  0
SECTION
  2
HEADER
  9
$ANGBASE
  50
0.0
  9
$ANGDIR
  70
1
  9
$MEASUREMENT
  70
0
  0
ENDSEC
  0
SECTION
  2
TABLES
  0
TABLE
  2
LTYPE
  70
4
  0
LTYPE
  5
40F
  2
CONTINUOUS
  70
0
  3
Solid line
  72
65
  73
0
  40
0.0
  0
LTYPE
  5
410
  2
DASHDOT
 70
0
  3
Dash Dot ____ _ ____ _
 72
65
 73
4
 40
2.0
 49
1.25
 49
-0.25
 49
0.25
 49
-0.25
  0
LTYPE
  5
411
  2
DASHED
 70
0
  3
Dashed __ __ __ __ __
 72
65
 73
2
 40
0.75
 49
0.5
 49
-0.25
  0
LTYPE
  5
43B
  2
DOTTED
 70
0
  3
Dotted .  .  .  .
 72
65
 73
2
 40
0.2
 49
0.0
 49
-0.2
  0
ENDTAB
  0
TABLE
  2
STYLE
  70
4
  0
STYLE
  2
KICAD
  70
0
  40
0
  41
1
  42
1
  50
0
  71
0
  3
isocp.shx
  0
STYLE
  2
KICADB
  70
0
  40
0
  41
1
  42
1
  50
0
  71
0
  3
isocp.shx
  0
STYLE
  2
KICADI
  70
0
  40
0
  41
1
  42
1
  50
15
  71
0
  3
isocp.shx
  0
STYLE
  2
KICADBI
  70
0
  40
0
  41
1
  42
1
  50
15
  71
0
  3
isocp.shx
  0
ENDTAB
  0
TABLE
  2
LAYER
  70
1
  0
LAYER
  2
BLACK
  70
0
  62
7
  6
CONTINUOUS
  0
ENDTAB
  0
ENDSEC
  0
SECTION
  2
ENTITIES
0
ARC
8
BLACK
10
3.32874
20
-4.89567
40
0.0984252
50
90
51
180
0
ARC
8
BLACK
10
3.32874
20
-6.86417
40
0.0984252
50
-180
51
-90
0
ARC
8
BLACK
10
6.69291
20
-6.86417
40
0.0984252
50
-90
51
-0
0
ARC
8
BLACK
10
6.69291
20
-4.89567
40
0.0984252
50
-0
51
90
0
LINE
8
BLACK
6
CONTINUOUS
10
3.32874
20
-6.9626
11
6.69291
21
-6.9626
0
LINE
8
BLACK
6
CONTINUOUS
10
3.32874
20
-4.79724
11
6.69291
21
-4.79724
0
LINE
8
BLACK
6
CONTINUOUS
10
3.23031
20
-6.86417
11
3.23031
21
-4.89567
0
LINE
8
BLACK
6
CONTINUOUS
10
6.79134
20
-6.86417
11
6.79134
21
-4.89567
0
LINE
8
BLACK
6
CONTINUOUS
10
3.30315
20
-4.87008
11
3.42913
21
-4.99606
0
LINE
8
BLACK
6
CONTINUOUS
10
3.42913
20
-4.87008
11
3.30315
21
-4.99606
0
LINE
8
BLACK
6
CONTINUOUS
10
3.30315
20
-6.76378
11
3.42913
21
-6.88976
0
LINE
8
BLACK
6
CONTINUOUS
10
3.42913
20
-6.76378
11
3.30315
21
-6.88976
0
LINE
8
BLACK
6
CONTINUOUS
10
6.59213
20
-4.87008
11
6.71811
21
-4.99606
0
LINE
8
BLACK
6
CONTINUOUS
10
6.71811
20
-4.87008
11
6.59213
21
-4.99606
0
LINE
8
BLACK
6
CONTINUOUS
10
6.59291
20
-6.76378
11
6.7189
21
-6.88976
0
LINE
8
BLACK
6
CONTINUOUS
10
6.7189
20
-6.76378
11
6.59291
21
-6.88976
0
LINE
8
BLACK
6
CONTINUOUS
10
3.32682
20
-7.07912
11
3.32682
21
-7.00038
0
LINE
8
BLACK
6
CONTINUOUS
10
3.32682
20
-7.00038
11
3.34557
21
-7.00038
0
LINE
8
BLACK
6
CONTINUOUS
10
3.34557
20
-7.00038
11
3.35681
21
-7.00413
0
LINE
8
BLACK
6
CONTINUOUS
10
3.35681
20
-7.00413
11
3.36431
21
-7.01163
0
LINE
8
BLACK
6
CONTINUOUS
10
3.36431
20
-7.01163
11
3.36806
21
-7.01913
0
LINE
8
BLACK
6
CONTINUOUS
10
3.36806
20
-7.01913
11
3.37181
21
-7.03413
0
LINE
8
BLACK
6
CONTINUOUS
10
3.37181
20
-7.03413
11
3.37181
21
-7.04538
0
LINE
8
BLACK
6
CONTINUOUS
10
3.37181
20
-7.04538
11
3.36806
21
-7.06038
0
LINE
8
BLACK
6
CONTINUOUS
10
3.36806
20
-7.06038
11
3.36431
21
-7.06788
0
LINE
8
BLACK
6
CONTINUOUS
10
3.36431
20
-7.06788
11
3.35681
21
-7.07537
0
LINE
8
BLACK
6
CONTINUOUS
10
3.35681
20
-7.07537
11
3.34557
21
-7.07912
0
LINE
8
BLACK
6
CONTINUOUS
10
3.34557
20
-7.07912
11
3.32682
21
-7.07912
0
LINE
8
BLACK
6
CONTINUOUS
10
3.40556
20
-7.07912
11
3.40556
21
-7.02663
0
LINE
8
BLACK
6
CONTINUOUS
10
3.40556
20
-7.04163
11
3.40931
21
-7.03413
0
LINE
8
BLACK
6
CONTINUOUS
10
3.40931
20
-7.03413
11
3.41306
21
-7.03038
0
LINE
8
BLACK
6
CONTINUOUS
10
3.41306
20
-7.03038
11
3.42056
21
-7.02663
0
LINE
8
BLACK
6
CONTINUOUS
10
3.42056
20
-7.02663
11
3.42806
21
-7.02663
0
LINE
8
BLACK
6
CONTINUOUS
10
3.4543
20
-7.07912
11
3.4543
21
-7.02663
0
LINE
8
BLACK
6
CONTINUOUS
10
3.4543
20
-7.00038
11
3.45055
21
-7.00413
0
LINE
8
BLACK
6
CONTINUOUS
10
3.45055
20
-7.00413
11
3.4543
21
-7.00788
0
LINE
8
BLACK
6
CONTINUOUS
10
3.4543
20
-7.00788
11
3.45805
21
-7.00413
0
LINE
8
BLACK
6
CONTINUOUS
10
3.45805
20
-7.00413
11
3.4543
21
-7.00038
0
LINE
8
BLACK
6
CONTINUOUS
10
3.4543
20
-7.00038
11
3.4543
21
-7.00788
0
LINE
8
BLACK
6
CONTINUOUS
10
3.50305
20
-7.07912
11
3.49555
21
-7.07537
0
LINE
8
BLACK
6
CONTINUOUS
10
3.49555
20
-7.07537
11
3.4918
21
-7.06788
0
LINE
8
BLACK
6
CONTINUOUS
10
3.4918
20
-7.06788
11
3.4918
21
-7.00038
0
LINE
8
BLACK
6
CONTINUOUS
10
3.54429
20
-7.07912
11
3.53679
21
-7.07537
0
LINE
8
BLACK
6
CONTINUOUS
10
3.53679
20
-7.07537
11
3.53304
21
-7.06788
0
LINE
8
BLACK
6
CONTINUOUS
10
3.53304
20
-7.06788
11
3.53304
21
-7.00038
0
LINE
8
BLACK
6
CONTINUOUS
10
3.62153
20
-7.07912
11
3.62153
21
-7.00038
0
LINE
8
BLACK
6
CONTINUOUS
10
3.62153
20
-7.00038
11
3.64778
21
-7.05663
0
LINE
8
BLACK
6
CONTINUOUS
10
3.64778
20
-7.05663
11
3.67403
21
-7.00038
0
LINE
8
BLACK
6
CONTINUOUS
10
3.67403
20
-7.00038
11
3.67403
21
-7.07912
0
LINE
8
BLACK
6
CONTINUOUS
10
3.74527
20
-7.07912
11
3.74527
21
-7.03788
0
LINE
8
BLACK
6
CONTINUOUS
10
3.74527
20
-7.03788
11
3.74152
21
-7.03038
0
LINE
8
BLACK
6
CONTINUOUS
10
3.74152
20
-7.03038
11
3.73402
21
-7.02663
0
LINE
8
BLACK
6
CONTINUOUS
10
3.73402
20
-7.02663
11
3.71902
21
-7.02663
0
LINE
8
BLACK
6
CONTINUOUS
10
3.71902
20
-7.02663
11
3.71152
21
-7.03038
0
LINE
8
BLACK
6
CONTINUOUS
10
3.74527
20
-7.07537
11
3.73777
21
-7.07912
0
LINE
8
BLACK
6
CONTINUOUS
10
3.73777
20
-7.07912
11
3.71902
21
-7.07912
0
LINE
8
BLACK
6
CONTINUOUS
10
3.71902
20
-7.07912
11
3.71152
21
-7.07537
0
LINE
8
BLACK
6
CONTINUOUS
10
3.71152
20
-7.07537
11
3.70777
21
-7.06788
0
LINE
8
BLACK
6
CONTINUOUS
10
3.70777
20
-7.06788
11
3.70777
21
-7.06038
0
LINE
8
BLACK
6
CONTINUOUS
10
3.70777
20
-7.06038
11
3.71152
21
-7.05288
0
LINE
8
BLACK
6
CONTINUOUS
10
3.71152
20
-7.05288
11
3.71902
21
-7.04913
0
LINE
8
BLACK
6
CONTINUOUS
10
3.71902
20
-7.04913
11
3.73777
21
-7.04913
0
LINE
8
BLACK
6
CONTINUOUS
10
3.73777
20
-7.04913
11
3.74527
21
-7.04538
0
LINE
8
BLACK
6
CONTINUOUS
10
3.78276
20
-7.02663
11
3.78276
21
-7.10537
0
LINE
8
BLACK
6
CONTINUOUS
10
3.78276
20
-7.03038
11
3.79026
21
-7.02663
0
LINE
8
BLACK
6
CONTINUOUS
10
3.79026
20
-7.02663
11
3.80526
21
-7.02663
0
LINE
8
BLACK
6
CONTINUOUS
10
3.80526
20
-7.02663
11
3.81276
21
-7.03038
0
LINE
8
BLACK
6
CONTINUOUS
10
3.81276
20
-7.03038
11
3.81651
21
-7.03413
0
LINE
8
BLACK
6
CONTINUOUS
10
3.81651
20
-7.03413
11
3.82026
21
-7.04163
0
LINE
8
BLACK
6
CONTINUOUS
10
3.82026
20
-7.04163
11
3.82026
21
-7.06413
0
LINE
8
BLACK
6
CONTINUOUS
10
3.82026
20
-7.06413
11
3.81651
21
-7.07163
0
LINE
8
BLACK
6
CONTINUOUS
10
3.81651
20
-7.07163
11
3.81276
21
-7.07537
0
LINE
8
BLACK
6
CONTINUOUS
10
3.81276
20
-7.07537
11
3.80526
21
-7.07912
0
LINE
8
BLACK
6
CONTINUOUS
10
3.80526
20
-7.07912
11
3.79026
21
-7.07912
0
LINE
8
BLACK
6
CONTINUOUS
10
3.79026
20
-7.07912
11
3.78276
21
-7.07537
0
LINE
8
BLACK
6
CONTINUOUS
10
3.854
20
-7.07163
11
3.85775
21
-7.07537
0
LINE
8
BLACK
6
CONTINUOUS
10
3.85775
20
-7.07537
11
3.854
21
-7.07912
0
LINE
8
BLACK
6
CONTINUOUS
10
3.854
20
-7.07912
11
3.85025
21
-7.07537
0
LINE
8
BLACK
6
CONTINUOUS
10
3.85025
20
-7.07537
11
3.854
21
-7.07163
0
LINE
8
BLACK
6
CONTINUOUS
10
3.854
20
-7.07163
11
3.854
21
-7.07912
0
LINE
8
BLACK
6
CONTINUOUS
10
3.854
20
-7.03038
11
3.85775
21
-7.03413
0
LINE
8
BLACK
6
CONTINUOUS
10
3.85775
20
-7.03413
11
3.854
21
-7.03788
0
LINE
8
BLACK
6
CONTINUOUS
10
3.854
20
-7.03788
11
3.85025
21
-7.03413
0
LINE
8
BLACK
6
CONTINUOUS
10
3.85025
20
-7.03413
11
3.854
21
-7.03038
0
LINE
8
BLACK
6
CONTINUOUS
10
3.854
20
-7.03038
11
3.854
21
-7.03788
0
LINE
8
BLACK
6
CONTINUOUS
10
3.15059
20
-7.17618
11
3.22933
21
-7.25492
0
LINE
8
BLACK
6
CONTINUOUS
10
3.22933
20
-7.17618
11
3.15059
21
-7.25492
0
LINE
8
BLACK
6
CONTINUOUS
10
3.31932
20
-7.16574
11
3.36806
21
-7.16574
0
LINE
8
BLACK
6
CONTINUOUS
10
3.36806
20
-7.16574
11
3.34182
21
-7.19573
0
LINE
8
BLACK
6
CONTINUOUS
10
3.34182
20
-7.19573
11
3.35307
21
-7.19573
0
LINE
8
BLACK
6
CONTINUOUS
10
3.35307
20
-7.19573
11
3.36056
21
-7.19948
0
LINE
8
BLACK
6
CONTINUOUS
10
3.36056
20
-7.19948
11
3.36431
21
-7.20323
0
LINE
8
BLACK
6
CONTINUOUS
10
3.36431
20
-7.20323
11
3.36806
21
-7.21073
0
LINE
8
BLACK
6
CONTINUOUS
10
3.36806
20
-7.21073
11
3.36806
21
-7.22948
0
LINE
8
BLACK
6
CONTINUOUS
10
3.36806
20
-7.22948
11
3.36431
21
-7.23698
0
LINE
8
BLACK
6
CONTINUOUS
10
3.36431
20
-7.23698
11
3.36056
21
-7.24073
0
LINE
8
BLACK
6
CONTINUOUS
10
3.36056
20
-7.24073
11
3.35307
21
-7.24448
0
LINE
8
BLACK
6
CONTINUOUS
10
3.35307
20
-7.24448
11
3.33057
21
-7.24448
0
LINE
8
BLACK
6
CONTINUOUS
10
3.33057
20
-7.24448
11
3.32307
21
-7.24073
0
LINE
8
BLACK
6
CONTINUOUS
10
3.32307
20
-7.24073
11
3.31932
21
-7.23698
0
LINE
8
BLACK
6
CONTINUOUS
10
3.40181
20
-7.23698
11
3.40556
21
-7.24073
0
LINE
8
BLACK
6
CONTINUOUS
10
3.40556
20
-7.24073
11
3.40181
21
-7.24448
0
LINE
8
BLACK
6
CONTINUOUS
10
3.40181
20
-7.24448
11
3.39806
21
-7.24073
0
LINE
8
BLACK
6
CONTINUOUS
10
3.39806
20
-7.24073
11
3.40181
21
-7.23698
0
LINE
8
BLACK
6
CONTINUOUS
10
3.40181
20
-7.23698
11
3.40181
21
-7.24448
0
LINE
8
BLACK
6
CONTINUOUS
10
3.43555
20
-7.17324
11
3.4393
21
-7.16949
0
LINE
8
BLACK
6
CONTINUOUS
10
3.4393
20
-7.16949
11
3.4468
21
-7.16574
0
LINE
8
BLACK
6
CONTINUOUS
10
3.4468
20
-7.16574
11
3.46555
21
-7.16574
0
LINE
8
BLACK
6
CONTINUOUS
10
3.46555
20
-7.16574
11
3.47305
21
-7.16949
0
LINE
8
BLACK
6
CONTINUOUS
10
3.47305
20
-7.16949
11
3.4768
21
-7.17324
0
LINE
8
BLACK
6
CONTINUOUS
10
3.4768
20
-7.17324
11
3.48055
21
-7.18074
0
LINE
8
BLACK
6
CONTINUOUS
10
3.48055
20
-7.18074
11
3.48055
21
-7.18824
0
LINE
8
BLACK
6
CONTINUOUS
10
3.48055
20
-7.18824
11
3.4768
21
-7.19948
0
LINE
8
BLACK
6
CONTINUOUS
10
3.4768
20
-7.19948
11
3.43181
21
-7.24448
0
LINE
8
BLACK
6
CONTINUOUS
10
3.43181
20
-7.24448
11
3.48055
21
-7.24448
0
LINE
8
BLACK
6
CONTINUOUS
10
3.52929
20
-7.16574
11
3.53679
21
-7.16574
0
LINE
8
BLACK
6
CONTINUOUS
10
3.53679
20
-7.16574
11
3.54429
21
-7.16949
0
LINE
8
BLACK
6
CONTINUOUS
10
3.54429
20
-7.16949
11
3.54804
21
-7.17324
0
LINE
8
BLACK
6
CONTINUOUS
10
3.54804
20
-7.17324
11
3.55179
21
-7.18074
0
LINE
8
BLACK
6
CONTINUOUS
10
3.55179
20
-7.18074
11
3.55554
21
-7.19573
0
LINE
8
BLACK
6
CONTINUOUS
10
3.55554
20
-7.19573
11
3.55554
21
-7.21448
0
LINE
8
BLACK
6
CONTINUOUS
10
3.55554
20
-7.21448
11
3.55179
21
-7.22948
0
LINE
8
BLACK
6
CONTINUOUS
10
3.55179
20
-7.22948
11
3.54804
21
-7.23698
0
LINE
8
BLACK
6
CONTINUOUS
10
3.54804
20
-7.23698
11
3.54429
21
-7.24073
0
LINE
8
BLACK
6
CONTINUOUS
10
3.54429
20
-7.24073
11
3.53679
21
-7.24448
0
LINE
8
BLACK
6
CONTINUOUS
10
3.53679
20
-7.24448
11
3.52929
21
-7.24448
0
LINE
8
BLACK
6
CONTINUOUS
10
3.52929
20
-7.24448
11
3.52179
21
-7.24073
0
LINE
8
BLACK
6
CONTINUOUS
10
3.52179
20
-7.24073
11
3.51804
21
-7.23698
0
LINE
8
BLACK
6
CONTINUOUS
10
3.51804
20
-7.23698
11
3.5143
21
-7.22948
0
LINE
8
BLACK
6
CONTINUOUS
10
3.5143
20
-7.22948
11
3.51055
21
-7.21448
0
LINE
8
BLACK
6
CONTINUOUS
10
3.51055
20
-7.21448
11
3.51055
21
-7.19573
0
LINE
8
BLACK
6
CONTINUOUS
10
3.51055
20
-7.19573
11
3.5143
21
-7.18074
0
LINE
8
BLACK
6
CONTINUOUS
10
3.5143
20
-7.18074
11
3.51804
21
-7.17324
0
LINE
8
BLACK
6
CONTINUOUS
10
3.51804
20
-7.17324
11
3.52179
21
-7.16949
0
LINE
8
BLACK
6
CONTINUOUS
10
3.52179
20
-7.16949
11
3.52929
21
-7.16574
0
LINE
8
BLACK
6
CONTINUOUS
10
3.60428
20
-7.16574
11
3.61178
21
-7.16574
0
LINE
8
BLACK
6
CONTINUOUS
10
3.61178
20
-7.16574
11
3.61928
21
-7.16949
0
LINE
8
BLACK
6
CONTINUOUS
10
3.61928
20
-7.16949
11
3.62303
21
-7.17324
0
LINE
8
BLACK
6
CONTINUOUS
10
3.62303
20
-7.17324
11
3.62678
21
-7.18074
0
LINE
8
BLACK
6
CONTINUOUS
10
3.62678
20
-7.18074
11
3.63053
21
-7.19573
0
LINE
8
BLACK
6
CONTINUOUS
10
3.63053
20
-7.19573
11
3.63053
21
-7.21448
0
LINE
8
BLACK
6
CONTINUOUS
10
3.63053
20
-7.21448
11
3.62678
21
-7.22948
0
LINE
8
BLACK
6
CONTINUOUS
10
3.62678
20
-7.22948
11
3.62303
21
-7.23698
0
LINE
8
BLACK
6
CONTINUOUS
10
3.62303
20
-7.23698
11
3.61928
21
-7.24073
0
LINE
8
BLACK
6
CONTINUOUS
10
3.61928
20
-7.24073
11
3.61178
21
-7.24448
0
LINE
8
BLACK
6
CONTINUOUS
10
3.61178
20
-7.24448
11
3.60428
21
-7.24448
0
LINE
8
BLACK
6
CONTINUOUS
10
3.60428
20
-7.24448
11
3.59678
21
-7.24073
0
LINE
8
BLACK
6
CONTINUOUS
10
3.59678
20
-7.24073
11
3.59304
21
-7.23698
0
LINE
8
BLACK
6
CONTINUOUS
10
3.59304
20
-7.23698
11
3.58929
21
-7.22948
0
LINE
8
BLACK
6
CONTINUOUS
10
3.58929
20
-7.22948
11
3.58554
21
-7.21448
0
LINE
8
BLACK
6
CONTINUOUS
10
3.58554
20
-7.21448
11
3.58554
21
-7.19573
0
LINE
8
BLACK
6
CONTINUOUS
10
3.58554
20
-7.19573
11
3.58929
21
-7.18074
0
LINE
8
BLACK
6
CONTINUOUS
10
3.58929
20
-7.18074
11
3.59304
21
-7.17324
0
LINE
8
BLACK
6
CONTINUOUS
10
3.59304
20
-7.17324
11
3.59678
21
-7.16949
0
LINE
8
BLACK
6
CONTINUOUS
10
3.59678
20
-7.16949
11
3.60428
21
-7.16574
0
LINE
8
BLACK
6
CONTINUOUS
10
3.66428
20
-7.24448
11
3.66428
21
-7.19199
0
LINE
8
BLACK
6
CONTINUOUS
10
3.66428
20
-7.19948
11
3.66803
21
-7.19573
0
LINE
8
BLACK
6
CONTINUOUS
10
3.66803
20
-7.19573
11
3.67552
21
-7.19199
0
LINE
8
BLACK
6
CONTINUOUS
10
3.67552
20
-7.19199
11
3.68677
21
-7.19199
0
LINE
8
BLACK
6
CONTINUOUS
10
3.68677
20
-7.19199
11
3.69427
21
-7.19573
0
LINE
8
BLACK
6
CONTINUOUS
10
3.69427
20
-7.19573
11
3.69802
21
-7.20323
0
LINE
8
BLACK
6
CONTINUOUS
10
3.69802
20
-7.20323
11
3.69802
21
-7.24448
0
LINE
8
BLACK
6
CONTINUOUS
10
3.69802
20
-7.20323
11
3.70177
21
-7.19573
0
LINE
8
BLACK
6
CONTINUOUS
10
3.70177
20
-7.19573
11
3.70927
21
-7.19199
0
LINE
8
BLACK
6
CONTINUOUS
10
3.70927
20
-7.19199
11
3.72052
21
-7.19199
0
LINE
8
BLACK
6
CONTINUOUS
10
3.72052
20
-7.19199
11
3.72802
21
-7.19573
0
LINE
8
BLACK
6
CONTINUOUS
10
3.72802
20
-7.19573
11
3.73177
21
-7.20323
0
LINE
8
BLACK
6
CONTINUOUS
10
3.73177
20
-7.20323
11
3.73177
21
-7.24448
0
LINE
8
BLACK
6
CONTINUOUS
10
3.76926
20
-7.24448
11
3.76926
21
-7.19199
0
LINE
8
BLACK
6
CONTINUOUS
10
3.76926
20
-7.19948
11
3.77301
21
-7.19573
0
LINE
8
BLACK
6
CONTINUOUS
10
3.77301
20
-7.19573
11
3.78051
21
-7.19199
0
LINE
8
BLACK
6
CONTINUOUS
10
3.78051
20
-7.19199
11
3.79176
21
-7.19199
0
LINE
8
BLACK
6
CONTINUOUS
10
3.79176
20
-7.19199
11
3.79926
21
-7.19573
0
LINE
8
BLACK
6
CONTINUOUS
10
3.79926
20
-7.19573
11
3.80301
21
-7.20323
0
LINE
8
BLACK
6
CONTINUOUS
10
3.80301
20
-7.20323
11
3.80301
21
-7.24448
0
LINE
8
BLACK
6
CONTINUOUS
10
3.80301
20
-7.20323
11
3.80676
21
-7.19573
0
LINE
8
BLACK
6
CONTINUOUS
10
3.80676
20
-7.19573
11
3.81426
21
-7.19199
0
LINE
8
BLACK
6
CONTINUOUS
10
3.81426
20
-7.19199
11
3.82551
21
-7.19199
0
LINE
8
BLACK
6
CONTINUOUS
10
3.82551
20
-7.19199
11
3.83301
21
-7.19573
0
LINE
8
BLACK
6
CONTINUOUS
10
3.83301
20
-7.19573
11
3.83675
21
-7.20323
0
LINE
8
BLACK
6
CONTINUOUS
10
3.83675
20
-7.20323
11
3.83675
21
-7.24448
0
LINE
8
BLACK
6
CONTINUOUS
10
3.97774
20
-7.16199
11
3.91025
21
-7.26323
0
LINE
8
BLACK
6
CONTINUOUS
10
4.06623
20
-7.16574
11
4.07373
21
-7.16574
0
LINE
8
BLACK
6
CONTINUOUS
10
4.07373
20
-7.16574
11
4.08122
21
-7.16949
0
LINE
8
BLACK
6
CONTINUOUS
10
4.08122
20
-7.16949
11
4.08497
21
-7.17324
0
LINE
8
BLACK
6
CONTINUOUS
10
4.08497
20
-7.17324
11
4.08872
21
-7.18074
0
LINE
8
BLACK
6
CONTINUOUS
10
4.08872
20
-7.18074
11
4.09247
21
-7.19573
0
LINE
8
BLACK
6
CONTINUOUS
10
4.09247
20
-7.19573
11
4.09247
21
-7.21448
0
LINE
8
BLACK
6
CONTINUOUS
10
4.09247
20
-7.21448
11
4.08872
21
-7.22948
0
LINE
8
BLACK
6
CONTINUOUS
10
4.08872
20
-7.22948
11
4.08497
21
-7.23698
0
LINE
8
BLACK
6
CONTINUOUS
10
4.08497
20
-7.23698
11
4.08122
21
-7.24073
0
LINE
8
BLACK
6
CONTINUOUS
10
4.08122
20
-7.24073
11
4.07373
21
-7.24448
0
LINE
8
BLACK
6
CONTINUOUS
10
4.07373
20
-7.24448
11
4.06623
21
-7.24448
0
LINE
8
BLACK
6
CONTINUOUS
10
4.06623
20
-7.24448
11
4.05873
21
-7.24073
0
LINE
8
BLACK
6
CONTINUOUS
10
4.05873
20
-7.24073
11
4.05498
21
-7.23698
0
LINE
8
BLACK
6
CONTINUOUS
10
4.05498
20
-7.23698
11
4.05123
21
-7.22948
0
LINE
8
BLACK
6
CONTINUOUS
10
4.05123
20
-7.22948
11
4.04748
21
-7.21448
0
LINE
8
BLACK
6
CONTINUOUS
10
4.04748
20
-7.21448
11
4.04748
21
-7.19573
0
LINE
8
BLACK
6
CONTINUOUS
10
4.04748
20
-7.19573
11
4.05123
21
-7.18074
0
LINE
8
BLACK
6
CONTINUOUS
10
4.05123
20
-7.18074
11
4.05498
21
-7.17324
0
LINE
8
BLACK
6
CONTINUOUS
10
4.05498
20
-7.17324
11
4.05873
21
-7.16949
0
LINE
8
BLACK
6
CONTINUOUS
10
4.05873
20
-7.16949
11
4.06623
21
-7.16574
0
LINE
8
BLACK
6
CONTINUOUS
10
4.12622
20
-7.23698
11
4.12997
21
-7.24073
0
LINE
8
BLACK
6
CONTINUOUS
10
4.12997
20
-7.24073
11
4.12622
21
-7.24448
0
LINE
8
BLACK
6
CONTINUOUS
10
4.12622
20
-7.24448
11
4.12247
21
-7.24073
0
LINE
8
BLACK
6
CONTINUOUS
10
4.12247
20
-7.24073
11
4.12622
21
-7.23698
0
LINE
8
BLACK
6
CONTINUOUS
10
4.12622
20
-7.23698
11
4.12622
21
-7.24448
0
LINE
8
BLACK
6
CONTINUOUS
10
4.20496
20
-7.24448
11
4.15996
21
-7.24448
0
LINE
8
BLACK
6
CONTINUOUS
10
4.18246
20
-7.24448
11
4.18246
21
-7.16574
0
LINE
8
BLACK
6
CONTINUOUS
10
4.18246
20
-7.16574
11
4.17496
21
-7.17699
0
LINE
8
BLACK
6
CONTINUOUS
10
4.17496
20
-7.17699
11
4.16746
21
-7.18449
0
LINE
8
BLACK
6
CONTINUOUS
10
4.16746
20
-7.18449
11
4.15996
21
-7.18824
0
LINE
8
BLACK
6
CONTINUOUS
10
4.23496
20
-7.17324
11
4.2387
21
-7.16949
0
LINE
8
BLACK
6
CONTINUOUS
10
4.2387
20
-7.16949
11
4.2462
21
-7.16574
0
LINE
8
BLACK
6
CONTINUOUS
10
4.2462
20
-7.16574
11
4.26495
21
-7.16574
0
LINE
8
BLACK
6
CONTINUOUS
10
4.26495
20
-7.16574
11
4.27245
21
-7.16949
0
LINE
8
BLACK
6
CONTINUOUS
10
4.27245
20
-7.16949
11
4.2762
21
-7.17324
0
LINE
8
BLACK
6
CONTINUOUS
10
4.2762
20
-7.17324
11
4.27995
21
-7.18074
0
LINE
8
BLACK
6
CONTINUOUS
10
4.27995
20
-7.18074
11
4.27995
21
-7.18824
0
LINE
8
BLACK
6
CONTINUOUS
10
4.27995
20
-7.18824
11
4.2762
21
-7.19948
0
LINE
8
BLACK
6
CONTINUOUS
10
4.2762
20
-7.19948
11
4.23121
21
-7.24448
0
LINE
8
BLACK
6
CONTINUOUS
10
4.23121
20
-7.24448
11
4.27995
21
-7.24448
0
LINE
8
BLACK
6
CONTINUOUS
10
4.34744
20
-7.16574
11
4.33244
21
-7.16574
0
LINE
8
BLACK
6
CONTINUOUS
10
4.33244
20
-7.16574
11
4.32494
21
-7.16949
0
LINE
8
BLACK
6
CONTINUOUS
10
4.32494
20
-7.16949
11
4.32119
21
-7.17324
0
LINE
8
BLACK
6
CONTINUOUS
10
4.32119
20
-7.17324
11
4.3137
21
-7.18449
0
LINE
8
BLACK
6
CONTINUOUS
10
4.3137
20
-7.18449
11
4.30995
21
-7.19948
0
LINE
8
BLACK
6
CONTINUOUS
10
4.30995
20
-7.19948
11
4.30995
21
-7.22948
0
LINE
8
BLACK
6
CONTINUOUS
10
4.30995
20
-7.22948
11
4.3137
21
-7.23698
0
LINE
8
BLACK
6
CONTINUOUS
10
4.3137
20
-7.23698
11
4.31744
21
-7.24073
0
LINE
8
BLACK
6
CONTINUOUS
10
4.31744
20
-7.24073
11
4.32494
21
-7.24448
0
LINE
8
BLACK
6
CONTINUOUS
10
4.32494
20
-7.24448
11
4.33994
21
-7.24448
0
LINE
8
BLACK
6
CONTINUOUS
10
4.33994
20
-7.24448
11
4.34744
21
-7.24073
0
LINE
8
BLACK
6
CONTINUOUS
10
4.34744
20
-7.24073
11
4.35119
21
-7.23698
0
LINE
8
BLACK
6
CONTINUOUS
10
4.35119
20
-7.23698
11
4.35494
21
-7.22948
0
LINE
8
BLACK
6
CONTINUOUS
10
4.35494
20
-7.22948
11
4.35494
21
-7.21073
0
LINE
8
BLACK
6
CONTINUOUS
10
4.35494
20
-7.21073
11
4.35119
21
-7.20323
0
LINE
8
BLACK
6
CONTINUOUS
10
4.35119
20
-7.20323
11
4.34744
21
-7.19948
0
LINE
8
BLACK
6
CONTINUOUS
10
4.34744
20
-7.19948
11
4.33994
21
-7.19573
0
LINE
8
BLACK
6
CONTINUOUS
10
4.33994
20
-7.19573
11
4.32494
21
-7.19573
0
LINE
8
BLACK
6
CONTINUOUS
10
4.32494
20
-7.19573
11
4.31744
21
-7.19948
0
LINE
8
BLACK
6
CONTINUOUS
10
4.31744
20
-7.19948
11
4.3137
21
-7.20323
0
LINE
8
BLACK
6
CONTINUOUS
10
4.3137
20
-7.20323
11
4.30995
21
-7.21073
0
LINE
8
BLACK
6
CONTINUOUS
10
4.40368
20
-7.16574
11
4.41118
21
-7.16574
0
LINE
8
BLACK
6
CONTINUOUS
10
4.41118
20
-7.16574
11
4.41868
21
-7.16949
0
LINE
8
BLACK
6
CONTINUOUS
10
4.41868
20
-7.16949
11
4.42243
21
-7.17324
0
LINE
8
BLACK
6
CONTINUOUS
10
4.42243
20
-7.17324
11
4.42618
21
-7.18074
0
LINE
8
BLACK
6
CONTINUOUS
10
4.42618
20
-7.18074
11
4.42993
21
-7.19573
0
LINE
8
BLACK
6
CONTINUOUS
10
4.42993
20
-7.19573
11
4.42993
21
-7.21448
0
LINE
8
BLACK
6
CONTINUOUS
10
4.42993
20
-7.21448
11
4.42618
21
-7.22948
0
LINE
8
BLACK
6
CONTINUOUS
10
4.42618
20
-7.22948
11
4.42243
21
-7.23698
0
LINE
8
BLACK
6
CONTINUOUS
10
4.42243
20
-7.23698
11
4.41868
21
-7.24073
0
LINE
8
BLACK
6
CONTINUOUS
10
4.41868
20
-7.24073
11
4.41118
21
-7.24448
0
LINE
8
BLACK
6
CONTINUOUS
10
4.41118
20
-7.24448
11
4.40368
21
-7.24448
0
LINE
8
BLACK
6
CONTINUOUS
10
4.40368
20
-7.24448
11
4.39618
21
-7.24073
0
LINE
8
BLACK
6
CONTINUOUS
10
4.39618
20
-7.24073
11
4.39244
21
-7.23698
0
LINE
8
BLACK
6
CONTINUOUS
10
4.39244
20
-7.23698
11
4.38869
21
-7.22948
0
LINE
8
BLACK
6
CONTINUOUS
10
4.38869
20
-7.22948
11
4.38494
21
-7.21448
0
LINE
8
BLACK
6
CONTINUOUS
10
4.38494
20
-7.21448
11
4.38494
21
-7.19573
0
LINE
8
BLACK
6
CONTINUOUS
10
4.38494
20
-7.19573
11
4.38869
21
-7.18074
0
LINE
8
BLACK
6
CONTINUOUS
10
4.38869
20
-7.18074
11
4.39244
21
-7.17324
0
LINE
8
BLACK
6
CONTINUOUS
10
4.39244
20
-7.17324
11
4.39618
21
-7.16949
0
LINE
8
BLACK
6
CONTINUOUS
10
4.39618
20
-7.16949
11
4.40368
21
-7.16574
0
LINE
8
BLACK
6
CONTINUOUS
10
4.45993
20
-7.16574
11
4.45993
21
-7.18074
0
LINE
8
BLACK
6
CONTINUOUS
10
4.48992
20
-7.16574
11
4.48992
21
-7.18074
0
LINE
8
BLACK
6
CONTINUOUS
10
4.59341
20
-7.27448
11
4.58966
21
-7.27073
0
LINE
8
BLACK
6
CONTINUOUS
10
4.58966
20
-7.27073
11
4.58216
21
-7.25948
0
LINE
8
BLACK
6
CONTINUOUS
10
4.58216
20
-7.25948
11
4.57841
21
-7.25198
0
LINE
8
BLACK
6
CONTINUOUS
10
4.57841
20
-7.25198
11
4.57466
21
-7.24073
0
LINE
8
BLACK
6
CONTINUOUS
10
4.57466
20
-7.24073
11
4.57091
21
-7.22198
0
LINE
8
BLACK
6
CONTINUOUS
10
4.57091
20
-7.22198
11
4.57091
21
-7.20698
0
LINE
8
BLACK
6
CONTINUOUS
10
4.57091
20
-7.20698
11
4.57466
21
-7.18824
0
LINE
8
BLACK
6
CONTINUOUS
10
4.57466
20
-7.18824
11
4.57841
21
-7.17699
0
LINE
8
BLACK
6
CONTINUOUS
10
4.57841
20
-7.17699
11
4.58216
21
-7.16949
0
LINE
8
BLACK
6
CONTINUOUS
10
4.58216
20
-7.16949
11
4.58966
21
-7.15824
0
LINE
8
BLACK
6
CONTINUOUS
10
4.58966
20
-7.15824
11
4.59341
21
-7.15449
0
LINE
8
BLACK
6
CONTINUOUS
10
4.65715
20
-7.19199
11
4.65715
21
-7.24448
0
LINE
8
BLACK
6
CONTINUOUS
10
4.6384
20
-7.16199
11
4.61966
21
-7.21823
0
LINE
8
BLACK
6
CONTINUOUS
10
4.61966
20
-7.21823
11
4.6684
21
-7.21823
0
LINE
8
BLACK
6
CONTINUOUS
10
4.74564
20
-7.24448
11
4.74564
21
-7.16574
0
LINE
8
BLACK
6
CONTINUOUS
10
4.77939
20
-7.24448
11
4.77939
21
-7.20323
0
LINE
8
BLACK
6
CONTINUOUS
10
4.77939
20
-7.20323
11
4.77564
21
-7.19573
0
LINE
8
BLACK
6
CONTINUOUS
10
4.77564
20
-7.19573
11
4.76814
21
-7.19199
0
LINE
8
BLACK
6
CONTINUOUS
10
4.76814
20
-7.19199
11
4.75689
21
-7.19199
0
LINE
8
BLACK
6
CONTINUOUS
10
4.75689
20
-7.19199
11
4.74939
21
-7.19573
0
LINE
8
BLACK
6
CONTINUOUS
10
4.74939
20
-7.19573
11
4.74564
21
-7.19948
0
LINE
8
BLACK
6
CONTINUOUS
10
4.82813
20
-7.24448
11
4.82063
21
-7.24073
0
LINE
8
BLACK
6
CONTINUOUS
10
4.82063
20
-7.24073
11
4.81688
21
-7.23698
0
LINE
8
BLACK
6
CONTINUOUS
10
4.81688
20
-7.23698
11
4.81313
21
-7.22948
0
LINE
8
BLACK
6
CONTINUOUS
10
4.81313
20
-7.22948
11
4.81313
21
-7.20698
0
LINE
8
BLACK
6
CONTINUOUS
10
4.81313
20
-7.20698
11
4.81688
21
-7.19948
0
LINE
8
BLACK
6
CONTINUOUS
10
4.81688
20
-7.19948
11
4.82063
21
-7.19573
0
LINE
8
BLACK
6
CONTINUOUS
10
4.82063
20
-7.19573
11
4.82813
21
-7.19199
0
LINE
8
BLACK
6
CONTINUOUS
10
4.82813
20
-7.19199
11
4.83938
21
-7.19199
0
LINE
8
BLACK
6
CONTINUOUS
10
4.83938
20
-7.19199
11
4.84688
21
-7.19573
0
LINE
8
BLACK
6
CONTINUOUS
10
4.84688
20
-7.19573
11
4.85063
21
-7.19948
0
LINE
8
BLACK
6
CONTINUOUS
10
4.85063
20
-7.19948
11
4.85438
21
-7.20698
0
LINE
8
BLACK
6
CONTINUOUS
10
4.85438
20
-7.20698
11
4.85438
21
-7.22948
0
LINE
8
BLACK
6
CONTINUOUS
10
4.85438
20
-7.22948
11
4.85063
21
-7.23698
0
LINE
8
BLACK
6
CONTINUOUS
10
4.85063
20
-7.23698
11
4.84688
21
-7.24073
0
LINE
8
BLACK
6
CONTINUOUS
10
4.84688
20
-7.24073
11
4.83938
21
-7.24448
0
LINE
8
BLACK
6
CONTINUOUS
10
4.83938
20
-7.24448
11
4.82813
21
-7.24448
0
LINE
8
BLACK
6
CONTINUOUS
10
4.89937
20
-7.24448
11
4.89187
21
-7.24073
0
LINE
8
BLACK
6
CONTINUOUS
10
4.89187
20
-7.24073
11
4.88812
21
-7.23323
0
LINE
8
BLACK
6
CONTINUOUS
10
4.88812
20
-7.23323
11
4.88812
21
-7.16574
0
LINE
8
BLACK
6
CONTINUOUS
10
4.95936
20
-7.24073
11
4.95187
21
-7.24448
0
LINE
8
BLACK
6
CONTINUOUS
10
4.95187
20
-7.24448
11
4.93687
21
-7.24448
0
LINE
8
BLACK
6
CONTINUOUS
10
4.93687
20
-7.24448
11
4.92937
21
-7.24073
0
LINE
8
BLACK
6
CONTINUOUS
10
4.92937
20
-7.24073
11
4.92562
21
-7.23323
0
LINE
8
BLACK
6
CONTINUOUS
10
4.92562
20
-7.23323
11
4.92562
21
-7.20323
0
LINE
8
BLACK
6
CONTINUOUS
10
4.92562
20
-7.20323
11
4.92937
21
-7.19573
0
LINE
8
BLACK
6
CONTINUOUS
10
4.92937
20
-7.19573
11
4.93687
21
-7.19199
0
LINE
8
BLACK
6
CONTINUOUS
10
4.93687
20
-7.19199
11
4.95187
21
-7.19199
0
LINE
8
BLACK
6
CONTINUOUS
10
4.95187
20
-7.19199
11
4.95936
21
-7.19573
0
LINE
8
BLACK
6
CONTINUOUS
10
4.95936
20
-7.19573
11
4.96311
21
-7.20323
0
LINE
8
BLACK
6
CONTINUOUS
10
4.96311
20
-7.20323
11
4.96311
21
-7.21073
0
LINE
8
BLACK
6
CONTINUOUS
10
4.96311
20
-7.21073
11
4.92562
21
-7.21823
0
LINE
8
BLACK
6
CONTINUOUS
10
4.99311
20
-7.24073
11
5.00061
21
-7.24448
0
LINE
8
BLACK
6
CONTINUOUS
10
5.00061
20
-7.24448
11
5.01561
21
-7.24448
0
LINE
8
BLACK
6
CONTINUOUS
10
5.01561
20
-7.24448
11
5.02311
21
-7.24073
0
LINE
8
BLACK
6
CONTINUOUS
10
5.02311
20
-7.24073
11
5.02686
21
-7.23323
0
LINE
8
BLACK
6
CONTINUOUS
10
5.02686
20
-7.23323
11
5.02686
21
-7.22948
0
LINE
8
BLACK
6
CONTINUOUS
10
5.02686
20
-7.22948
11
5.02311
21
-7.22198
0
LINE
8
BLACK
6
CONTINUOUS
10
5.02311
20
-7.22198
11
5.01561
21
-7.21823
0
LINE
8
BLACK
6
CONTINUOUS
10
5.01561
20
-7.21823
11
5.00436
21
-7.21823
0
LINE
8
BLACK
6
CONTINUOUS
10
5.00436
20
-7.21823
11
4.99686
21
-7.21448
0
LINE
8
BLACK
6
CONTINUOUS
10
4.99686
20
-7.21448
11
4.99311
21
-7.20698
0
LINE
8
BLACK
6
CONTINUOUS
10
4.99311
20
-7.20698
11
4.99311
21
-7.20323
0
LINE
8
BLACK
6
CONTINUOUS
10
4.99311
20
-7.20323
11
4.99686
21
-7.19573
0
LINE
8
BLACK
6
CONTINUOUS
10
4.99686
20
-7.19573
11
5.00436
21
-7.19199
0
LINE
8
BLACK
6
CONTINUOUS
10
5.00436
20
-7.19199
11
5.01561
21
-7.19199
0
LINE
8
BLACK
6
CONTINUOUS
10
5.01561
20
-7.19199
11
5.02311
21
-7.19573
0
LINE
8
BLACK
6
CONTINUOUS
10
5.0531
20
-7.27448
11
5.05685
21
-7.27073
0
LINE
8
BLACK
6
CONTINUOUS
10
5.05685
20
-7.27073
11
5.06435
21
-7.25948
0
LINE
8
BLACK
6
CONTINUOUS
10
5.06435
20
-7.25948
11
5.0681
21
-7.25198
0
LINE
8
BLACK
6
CONTINUOUS
10
5.0681
20
-7.25198
11
5.07185
21
-7.24073
0
LINE
8
BLACK
6
CONTINUOUS
10
5.07185
20
-7.24073
11
5.0756
21
-7.22198
0
LINE
8
BLACK
6
CONTINUOUS
10
5.0756
20
-7.22198
11
5.0756
21
-7.20698
0
LINE
8
BLACK
6
CONTINUOUS
10
5.0756
20
-7.20698
11
5.07185
21
-7.18824
0
LINE
8
BLACK
6
CONTINUOUS
10
5.07185
20
-7.18824
11
5.0681
21
-7.17699
0
LINE
8
BLACK
6
CONTINUOUS
10
5.0681
20
-7.17699
11
5.06435
21
-7.16949
0
LINE
8
BLACK
6
CONTINUOUS
10
5.06435
20
-7.16949
11
5.05685
21
-7.15824
0
LINE
8
BLACK
6
CONTINUOUS
10
5.05685
20
-7.15824
11
5.0531
21
-7.15449
0
LINE
8
BLACK
6
CONTINUOUS
10
5.18284
20
-7.27448
11
5.17909
21
-7.27073
0
LINE
8
BLACK
6
CONTINUOUS
10
5.17909
20
-7.27073
11
5.17159
21
-7.25948
0
LINE
8
BLACK
6
CONTINUOUS
10
5.17159
20
-7.25948
11
5.16784
21
-7.25198
0
LINE
8
BLACK
6
CONTINUOUS
10
5.16784
20
-7.25198
11
5.16409
21
-7.24073
0
LINE
8
BLACK
6
CONTINUOUS
10
5.16409
20
-7.24073
11
5.16034
21
-7.22198
0
LINE
8
BLACK
6
CONTINUOUS
10
5.16034
20
-7.22198
11
5.16034
21
-7.20698
0
LINE
8
BLACK
6
CONTINUOUS
10
5.16034
20
-7.20698
11
5.16409
21
-7.18824
0
LINE
8
BLACK
6
CONTINUOUS
10
5.16409
20
-7.18824
11
5.16784
21
-7.17699
0
LINE
8
BLACK
6
CONTINUOUS
10
5.16784
20
-7.17699
11
5.17159
21
-7.16949
0
LINE
8
BLACK
6
CONTINUOUS
10
5.17159
20
-7.16949
11
5.17909
21
-7.15824
0
LINE
8
BLACK
6
CONTINUOUS
10
5.17909
20
-7.15824
11
5.18284
21
-7.15449
0
LINE
8
BLACK
6
CONTINUOUS
10
5.21283
20
-7.19199
11
5.21283
21
-7.24448
0
LINE
8
BLACK
6
CONTINUOUS
10
5.21283
20
-7.19948
11
5.21658
21
-7.19573
0
LINE
8
BLACK
6
CONTINUOUS
10
5.21658
20
-7.19573
11
5.22408
21
-7.19199
0
LINE
8
BLACK
6
CONTINUOUS
10
5.22408
20
-7.19199
11
5.23533
21
-7.19199
0
LINE
8
BLACK
6
CONTINUOUS
10
5.23533
20
-7.19199
11
5.24283
21
-7.19573
0
LINE
8
BLACK
6
CONTINUOUS
10
5.24283
20
-7.19573
11
5.24658
21
-7.20323
0
LINE
8
BLACK
6
CONTINUOUS
10
5.24658
20
-7.20323
11
5.24658
21
-7.24448
0
LINE
8
BLACK
6
CONTINUOUS
10
5.29532
20
-7.24448
11
5.28782
21
-7.24073
0
LINE
8
BLACK
6
CONTINUOUS
10
5.28782
20
-7.24073
11
5.28407
21
-7.23698
0
LINE
8
BLACK
6
CONTINUOUS
10
5.28407
20
-7.23698
11
5.28032
21
-7.22948
0
LINE
8
BLACK
6
CONTINUOUS
10
5.28032
20
-7.22948
11
5.28032
21
-7.20698
0
LINE
8
BLACK
6
CONTINUOUS
10
5.28032
20
-7.20698
11
5.28407
21
-7.19948
0
LINE
8
BLACK
6
CONTINUOUS
10
5.28407
20
-7.19948
11
5.28782
21
-7.19573
0
LINE
8
BLACK
6
CONTINUOUS
10
5.28782
20
-7.19573
11
5.29532
21
-7.19199
0
LINE
8
BLACK
6
CONTINUOUS
10
5.29532
20
-7.19199
11
5.30657
21
-7.19199
0
LINE
8
BLACK
6
CONTINUOUS
10
5.30657
20
-7.19199
11
5.31407
21
-7.19573
0
LINE
8
BLACK
6
CONTINUOUS
10
5.31407
20
-7.19573
11
5.31782
21
-7.19948
0
LINE
8
BLACK
6
CONTINUOUS
10
5.31782
20
-7.19948
11
5.32157
21
-7.20698
0
LINE
8
BLACK
6
CONTINUOUS
10
5.32157
20
-7.20698
11
5.32157
21
-7.22948
0
LINE
8
BLACK
6
CONTINUOUS
10
5.32157
20
-7.22948
11
5.31782
21
-7.23698
0
LINE
8
BLACK
6
CONTINUOUS
10
5.31782
20
-7.23698
11
5.31407
21
-7.24073
0
LINE
8
BLACK
6
CONTINUOUS
10
5.31407
20
-7.24073
11
5.30657
21
-7.24448
0
LINE
8
BLACK
6
CONTINUOUS
10
5.30657
20
-7.24448
11
5.29532
21
-7.24448
0
LINE
8
BLACK
6
CONTINUOUS
10
5.34407
20
-7.19199
11
5.37406
21
-7.19199
0
LINE
8
BLACK
6
CONTINUOUS
10
5.35532
20
-7.16574
11
5.35532
21
-7.23323
0
LINE
8
BLACK
6
CONTINUOUS
10
5.35532
20
-7.23323
11
5.35906
21
-7.24073
0
LINE
8
BLACK
6
CONTINUOUS
10
5.35906
20
-7.24073
11
5.36656
21
-7.24448
0
LINE
8
BLACK
6
CONTINUOUS
10
5.36656
20
-7.24448
11
5.37406
21
-7.24448
0
LINE
8
BLACK
6
CONTINUOUS
10
5.44755
20
-7.19199
11
5.44755
21
-7.27073
0
LINE
8
BLACK
6
CONTINUOUS
10
5.44755
20
-7.19573
11
5.45505
21
-7.19199
0
LINE
8
BLACK
6
CONTINUOUS
10
5.45505
20
-7.19199
11
5.47005
21
-7.19199
0
LINE
8
BLACK
6
CONTINUOUS
10
5.47005
20
-7.19199
11
5.47755
21
-7.19573
0
LINE
8
BLACK
6
CONTINUOUS
10
5.47755
20
-7.19573
11
5.4813
21
-7.19948
0
LINE
8
BLACK
6
CONTINUOUS
10
5.4813
20
-7.19948
11
5.48505
21
-7.20698
0
LINE
8
BLACK
6
CONTINUOUS
10
5.48505
20
-7.20698
11
5.48505
21
-7.22948
0
LINE
8
BLACK
6
CONTINUOUS
10
5.48505
20
-7.22948
11
5.4813
21
-7.23698
0
LINE
8
BLACK
6
CONTINUOUS
10
5.4813
20
-7.23698
11
5.47755
21
-7.24073
0
LINE
8
BLACK
6
CONTINUOUS
10
5.47755
20
-7.24073
11
5.47005
21
-7.24448
0
LINE
8
BLACK
6
CONTINUOUS
10
5.47005
20
-7.24448
11
5.45505
21
-7.24448
0
LINE
8
BLACK
6
CONTINUOUS
10
5.45505
20
-7.24448
11
5.44755
21
-7.24073
0
LINE
8
BLACK
6
CONTINUOUS
10
5.53004
20
-7.24448
11
5.52254
21
-7.24073
0
LINE
8
BLACK
6
CONTINUOUS
10
5.52254
20
-7.24073
11
5.51879
21
-7.23323
0
LINE
8
BLACK
6
CONTINUOUS
10
5.51879
20
-7.23323
11
5.51879
21
-7.16574
0
LINE
8
BLACK
6
CONTINUOUS
10
5.59379
20
-7.24448
11
5.59379
21
-7.20323
0
LINE
8
BLACK
6
CONTINUOUS
10
5.59379
20
-7.20323
11
5.59004
21
-7.19573
0
LINE
8
BLACK
6
CONTINUOUS
10
5.59004
20
-7.19573
11
5.58254
21
-7.19199
0
LINE
8
BLACK
6
CONTINUOUS
10
5.58254
20
-7.19199
11
5.56754
21
-7.19199
0
LINE
8
BLACK
6
CONTINUOUS
10
5.56754
20
-7.19199
11
5.56004
21
-7.19573
0
LINE
8
BLACK
6
CONTINUOUS
10
5.59379
20
-7.24073
11
5.58629
21
-7.24448
0
LINE
8
BLACK
6
CONTINUOUS
10
5.58629
20
-7.24448
11
5.56754
21
-7.24448
0
LINE
8
BLACK
6
CONTINUOUS
10
5.56754
20
-7.24448
11
5.56004
21
-7.24073
0
LINE
8
BLACK
6
CONTINUOUS
10
5.56004
20
-7.24073
11
5.55629
21
-7.23323
0
LINE
8
BLACK
6
CONTINUOUS
10
5.55629
20
-7.23323
11
5.55629
21
-7.22573
0
LINE
8
BLACK
6
CONTINUOUS
10
5.55629
20
-7.22573
11
5.56004
21
-7.21823
0
LINE
8
BLACK
6
CONTINUOUS
10
5.56004
20
-7.21823
11
5.56754
21
-7.21448
0
LINE
8
BLACK
6
CONTINUOUS
10
5.56754
20
-7.21448
11
5.58629
21
-7.21448
0
LINE
8
BLACK
6
CONTINUOUS
10
5.58629
20
-7.21448
11
5.59379
21
-7.21073
0
LINE
8
BLACK
6
CONTINUOUS
10
5.62003
20
-7.19199
11
5.65003
21
-7.19199
0
LINE
8
BLACK
6
CONTINUOUS
10
5.63128
20
-7.16574
11
5.63128
21
-7.23323
0
LINE
8
BLACK
6
CONTINUOUS
10
5.63128
20
-7.23323
11
5.63503
21
-7.24073
0
LINE
8
BLACK
6
CONTINUOUS
10
5.63503
20
-7.24073
11
5.64253
21
-7.24448
0
LINE
8
BLACK
6
CONTINUOUS
10
5.64253
20
-7.24448
11
5.65003
21
-7.24448
0
LINE
8
BLACK
6
CONTINUOUS
10
5.70627
20
-7.24073
11
5.69877
21
-7.24448
0
LINE
8
BLACK
6
CONTINUOUS
10
5.69877
20
-7.24448
11
5.68377
21
-7.24448
0
LINE
8
BLACK
6
CONTINUOUS
10
5.68377
20
-7.24448
11
5.67627
21
-7.24073
0
LINE
8
BLACK
6
CONTINUOUS
10
5.67627
20
-7.24073
11
5.67253
21
-7.23323
0
LINE
8
BLACK
6
CONTINUOUS
10
5.67253
20
-7.23323
11
5.67253
21
-7.20323
0
LINE
8
BLACK
6
CONTINUOUS
10
5.67253
20
-7.20323
11
5.67627
21
-7.19573
0
LINE
8
BLACK
6
CONTINUOUS
10
5.67627
20
-7.19573
11
5.68377
21
-7.19199
0
LINE
8
BLACK
6
CONTINUOUS
10
5.68377
20
-7.19199
11
5.69877
21
-7.19199
0
LINE
8
BLACK
6
CONTINUOUS
10
5.69877
20
-7.19199
11
5.70627
21
-7.19573
0
LINE
8
BLACK
6
CONTINUOUS
10
5.70627
20
-7.19573
11
5.71002
21
-7.20323
0
LINE
8
BLACK
6
CONTINUOUS
10
5.71002
20
-7.20323
11
5.71002
21
-7.21073
0
LINE
8
BLACK
6
CONTINUOUS
10
5.71002
20
-7.21073
11
5.67253
21
-7.21823
0
LINE
8
BLACK
6
CONTINUOUS
10
5.77751
20
-7.24448
11
5.77751
21
-7.16574
0
LINE
8
BLACK
6
CONTINUOUS
10
5.77751
20
-7.24073
11
5.77001
21
-7.24448
0
LINE
8
BLACK
6
CONTINUOUS
10
5.77001
20
-7.24448
11
5.75502
21
-7.24448
0
LINE
8
BLACK
6
CONTINUOUS
10
5.75502
20
-7.24448
11
5.74752
21
-7.24073
0
LINE
8
BLACK
6
CONTINUOUS
10
5.74752
20
-7.24073
11
5.74377
21
-7.23698
0
LINE
8
BLACK
6
CONTINUOUS
10
5.74377
20
-7.23698
11
5.74002
21
-7.22948
0
LINE
8
BLACK
6
CONTINUOUS
10
5.74002
20
-7.22948
11
5.74002
21
-7.20698
0
LINE
8
BLACK
6
CONTINUOUS
10
5.74002
20
-7.20698
11
5.74377
21
-7.19948
0
LINE
8
BLACK
6
CONTINUOUS
10
5.74377
20
-7.19948
11
5.74752
21
-7.19573
0
LINE
8
BLACK
6
CONTINUOUS
10
5.74752
20
-7.19573
11
5.75502
21
-7.19199
0
LINE
8
BLACK
6
CONTINUOUS
10
5.75502
20
-7.19199
11
5.77001
21
-7.19199
0
LINE
8
BLACK
6
CONTINUOUS
10
5.77001
20
-7.19199
11
5.77751
21
-7.19573
0
LINE
8
BLACK
6
CONTINUOUS
10
5.80751
20
-7.27448
11
5.81126
21
-7.27073
0
LINE
8
BLACK
6
CONTINUOUS
10
5.81126
20
-7.27073
11
5.81876
21
-7.25948
0
LINE
8
BLACK
6
CONTINUOUS
10
5.81876
20
-7.25948
11
5.82251
21
-7.25198
0
LINE
8
BLACK
6
CONTINUOUS
10
5.82251
20
-7.25198
11
5.82626
21
-7.24073
0
LINE
8
BLACK
6
CONTINUOUS
10
5.82626
20
-7.24073
11
5.83001
21
-7.22198
0
LINE
8
BLACK
6
CONTINUOUS
10
5.83001
20
-7.22198
11
5.83001
21
-7.20698
0
LINE
8
BLACK
6
CONTINUOUS
10
5.83001
20
-7.20698
11
5.82626
21
-7.18824
0
LINE
8
BLACK
6
CONTINUOUS
10
5.82626
20
-7.18824
11
5.82251
21
-7.17699
0
LINE
8
BLACK
6
CONTINUOUS
10
5.82251
20
-7.17699
11
5.81876
21
-7.16949
0
LINE
8
BLACK
6
CONTINUOUS
10
5.81876
20
-7.16949
11
5.81126
21
-7.15824
0
LINE
8
BLACK
6
CONTINUOUS
10
5.81126
20
-7.15824
11
5.80751
21
-7.15449
  0
ENDSEC
  0
EOF
