%TF.GenerationSoftware,KiCad,Pcbnew,7.0.0*%
%TF.CreationDate,2023-09-15T15:31:49+08:00*%
%TF.ProjectId,QS-30,51532d33-302e-46b6-9963-61645f706362,rev?*%
%TF.SameCoordinates,Original*%
%TF.FileFunction,Copper,L1,Top*%
%TF.FilePolarity,Positive*%
%FSLAX46Y46*%
G04 Gerber Fmt 4.6, Leading zero omitted, Abs format (unit mm)*
G04 Created by KiCad (PCBNEW 7.0.0) date 2023-09-15 15:31:49*
%MOMM*%
%LPD*%
G01*
G04 APERTURE LIST*
%TA.AperFunction,ComponentPad*%
%ADD10C,1.000000*%
%TD*%
%TA.AperFunction,ComponentPad*%
%ADD11C,1.524000*%
%TD*%
%TA.AperFunction,Conductor*%
%ADD12C,0.250000*%
%TD*%
G04 APERTURE END LIST*
D10*
%TO.P,NX1,0,0*%
%TO.N,P0*%
X161710000Y-115960000D03*
%TO.P,NX1,1,1*%
%TO.N,P1*%
X149210000Y-115960000D03*
%TO.P,NX1,2,2*%
%TO.N,P2*%
X147460000Y-112860000D03*
%TO.P,NX1,3,3*%
%TO.N,P3*%
X147460000Y-108860000D03*
%TO.P,NX1,4,4*%
%TO.N,P4*%
X149210000Y-105760000D03*
%TO.P,NX1,5,5*%
%TO.N,P5*%
X151960000Y-103360000D03*
%TO.P,NX1,6,6*%
%TO.N,P6*%
X158960000Y-103360000D03*
%TO.P,NX1,7,7*%
%TO.N,P7*%
X161710000Y-105760000D03*
%TO.P,NX1,8,8*%
%TO.N,P8*%
X163460000Y-108860000D03*
%TO.P,NX1,9,9*%
%TO.N,P9*%
X163460000Y-112860000D03*
%TO.P,NX1,A,A*%
%TO.N,PA*%
X158960000Y-118360000D03*
%TO.P,NX1,NC*%
%TO.N,N/C*%
X155460000Y-102360000D03*
X155460000Y-119360000D03*
%TD*%
D11*
%TO.P,J1,0,0*%
%TO.N,P0*%
X151456000Y-110896000D03*
%TO.P,J1,1,1*%
%TO.N,P1*%
X151456000Y-113436000D03*
%TO.P,J1,2,2*%
%TO.N,P2*%
X152916000Y-115896000D03*
%TO.P,J1,3,3*%
%TO.N,P3*%
X155456000Y-115896000D03*
%TO.P,J1,4,4*%
%TO.N,P4*%
X157996000Y-115896000D03*
%TO.P,J1,5,5*%
%TO.N,P5*%
X159456000Y-113436000D03*
%TO.P,J1,6,6*%
%TO.N,P6*%
X159456000Y-110896000D03*
%TO.P,J1,7,7*%
%TO.N,P7*%
X159456000Y-108356000D03*
%TO.P,J1,8,8*%
%TO.N,P8*%
X157996000Y-105896000D03*
%TO.P,J1,9,9*%
%TO.N,P9*%
X155456000Y-105896000D03*
%TO.P,J1,10,10*%
%TO.N,unconnected-(J1-Pad10)*%
X152916000Y-105896000D03*
%TO.P,J1,A,A*%
%TO.N,PA*%
X151456000Y-108356000D03*
%TD*%
D12*
%TO.N,P0*%
X161710000Y-115960000D02*
X160442749Y-115960000D01*
X160442749Y-115960000D02*
X158702375Y-114219626D01*
X158702375Y-114219626D02*
X154779626Y-114219626D01*
X154779626Y-114219626D02*
X151456000Y-110896000D01*
%TO.N,P4*%
X149210000Y-105760000D02*
X146185000Y-108785000D01*
X146185000Y-108785000D02*
X146185000Y-115381396D01*
X146185000Y-115381396D02*
X148623604Y-117820000D01*
X148623604Y-117820000D02*
X156072000Y-117820000D01*
X156072000Y-117820000D02*
X157996000Y-115896000D01*
%TO.N,P3*%
X147460000Y-108860000D02*
X146635000Y-109685000D01*
X146635000Y-115195000D02*
X148750000Y-117310000D01*
X146635000Y-109685000D02*
X146635000Y-115195000D01*
X148750000Y-117310000D02*
X154042000Y-117310000D01*
X154042000Y-117310000D02*
X155456000Y-115896000D01*
%TO.N,P9*%
X163460000Y-112860000D02*
X164735000Y-111585000D01*
X164735000Y-111585000D02*
X164735000Y-106295000D01*
X164735000Y-106295000D02*
X160975000Y-102535000D01*
X158505000Y-102535000D02*
X155456000Y-105584000D01*
X160975000Y-102535000D02*
X158505000Y-102535000D01*
X155456000Y-105584000D02*
X155456000Y-105896000D01*
%TO.N,P6*%
X158960000Y-103360000D02*
X161113123Y-103360000D01*
X161113123Y-103360000D02*
X164285000Y-106531877D01*
X164285000Y-106531877D02*
X164285000Y-109201727D01*
X164285000Y-109201727D02*
X162590727Y-110896000D01*
X162590727Y-110896000D02*
X159456000Y-110896000D01*
%TO.N,P8*%
X157996000Y-105896000D02*
X158957000Y-104935000D01*
X158957000Y-104935000D02*
X162051727Y-104935000D01*
X162051727Y-104935000D02*
X163460000Y-106343273D01*
X163460000Y-106343273D02*
X163460000Y-108860000D01*
%TO.N,P2*%
X152916000Y-115896000D02*
X152027000Y-116785000D01*
X148868273Y-116785000D02*
X147460000Y-115376727D01*
X152027000Y-116785000D02*
X148868273Y-116785000D01*
X147460000Y-115376727D02*
X147460000Y-112860000D01*
%TO.N,P1*%
X151456000Y-113436000D02*
X149210000Y-115682000D01*
X149210000Y-115682000D02*
X149210000Y-115960000D01*
%TO.N,P7*%
X159456000Y-108356000D02*
X161710000Y-106102000D01*
X161710000Y-106102000D02*
X161710000Y-105760000D01*
%TD*%
M02*
