M48
; DRILL file {KiCad 7.0.0} date 西元2023年09月15日 (週五) 14時34分10秒
; FORMAT={-:-/ absolute / inch / decimal}
; #@! TF.CreationDate,2023-09-15T14:34:10+08:00
; #@! TF.GenerationSoftware,Kicad,Pcbnew,7.0.0
; #@! TF.FileFunction,Plated,1,2,PTH
FMAT,2
INCH
; #@! TA.AperFunction,Plated,PTH,ComponentDrill
T1C0.0276
; #@! TA.AperFunction,Plated,PTH,ComponentDrill
T2C0.0300
%
G90
G05
T1
X5.8055Y-4.2846
X5.8055Y-4.4421
X5.8843Y-4.1567
X5.8843Y-4.5701
X5.9827Y-4.0681
X6.1205Y-4.0287
X6.1205Y-4.698
X6.2583Y-4.0681
X6.2583Y-4.6587
X6.3567Y-4.1567
X6.3567Y-4.5701
X6.4354Y-4.2846
X6.4354Y-4.4421
T2
X5.9628Y-4.266
X5.9628Y-4.366
X5.9628Y-4.466
X6.0203Y-4.1691
X6.0203Y-4.5628
X6.1203Y-4.1691
X6.1203Y-4.5628
X6.2203Y-4.1691
X6.2203Y-4.5628
X6.2778Y-4.266
X6.2778Y-4.366
X6.2778Y-4.466
T0
M30
