%TF.GenerationSoftware,KiCad,Pcbnew,7.0.0*%
%TF.CreationDate,2023-09-15T14:34:08+08:00*%
%TF.ProjectId,QS-30,51532d33-302e-46b6-9963-61645f706362,rev?*%
%TF.SameCoordinates,Original*%
%TF.FileFunction,Copper,L1,Top*%
%TF.FilePolarity,Positive*%
%FSLAX46Y46*%
G04 Gerber Fmt 4.6, Leading zero omitted, Abs format (unit mm)*
G04 Created by KiCad (PCBNEW 7.0.0) date 2023-09-15 14:34:08*
%MOMM*%
%LPD*%
G01*
G04 APERTURE LIST*
%TA.AperFunction,ComponentPad*%
%ADD10C,1.524000*%
%TD*%
%TA.AperFunction,ComponentPad*%
%ADD11C,1.000000*%
%TD*%
%TA.AperFunction,Conductor*%
%ADD12C,0.250000*%
%TD*%
G04 APERTURE END LIST*
D10*
%TO.P,J1,0,0*%
%TO.N,P0*%
X151456000Y-110896000D03*
%TO.P,J1,1,1*%
%TO.N,P1*%
X151456000Y-113436000D03*
%TO.P,J1,2,2*%
%TO.N,P2*%
X152916000Y-115896000D03*
%TO.P,J1,3,3*%
%TO.N,P3*%
X155456000Y-115896000D03*
%TO.P,J1,4,4*%
%TO.N,P4*%
X157996000Y-115896000D03*
%TO.P,J1,5,5*%
%TO.N,P5*%
X159456000Y-113436000D03*
%TO.P,J1,6,6*%
%TO.N,P6*%
X159456000Y-110896000D03*
%TO.P,J1,7,7*%
%TO.N,P7*%
X159456000Y-108356000D03*
%TO.P,J1,8,8*%
%TO.N,P8*%
X157996000Y-105896000D03*
%TO.P,J1,9,9*%
%TO.N,P9*%
X155456000Y-105896000D03*
%TO.P,J1,10,10*%
%TO.N,unconnected-(J1-Pad10)*%
X152916000Y-105896000D03*
%TO.P,J1,A,A*%
%TO.N,PA*%
X151456000Y-108356000D03*
%TD*%
D11*
%TO.P,NX1,0,0*%
%TO.N,P0*%
X161460000Y-116080000D03*
%TO.P,NX1,1,1*%
%TO.N,P1*%
X149460000Y-116080000D03*
%TO.P,NX1,2,2*%
%TO.N,P2*%
X147460000Y-112830000D03*
%TO.P,NX1,3,3*%
%TO.N,P3*%
X147460000Y-108830000D03*
%TO.P,NX1,4,4*%
%TO.N,P4*%
X149460000Y-105580000D03*
%TO.P,NX1,5,5*%
%TO.N,P5*%
X151960000Y-103330000D03*
%TO.P,NX1,6,6*%
%TO.N,P6*%
X158960000Y-103330000D03*
%TO.P,NX1,7,7*%
%TO.N,P7*%
X161460000Y-105580000D03*
%TO.P,NX1,8,8*%
%TO.N,P8*%
X163460000Y-108830000D03*
%TO.P,NX1,9,9*%
%TO.N,P9*%
X163460000Y-112830000D03*
%TO.P,NX1,A,A*%
%TO.N,PA*%
X158960000Y-118330000D03*
%TO.P,NX1,NC*%
%TO.N,N/C*%
X155460000Y-102330000D03*
X155460000Y-119330000D03*
%TD*%
D12*
%TO.N,P0*%
X155083000Y-114523000D02*
X159903000Y-114523000D01*
X151456000Y-110896000D02*
X155083000Y-114523000D01*
X159903000Y-114523000D02*
X161460000Y-116080000D01*
%TO.N,P1*%
X149460000Y-116080000D02*
X151456000Y-114084000D01*
X151456000Y-114084000D02*
X151456000Y-113436000D01*
%TO.N,P2*%
X151907000Y-116905000D02*
X152916000Y-115896000D01*
X149118273Y-116905000D02*
X151907000Y-116905000D01*
X147460000Y-115246727D02*
X149118273Y-116905000D01*
X147460000Y-112830000D02*
X147460000Y-115246727D01*
%TO.N,P3*%
X153932000Y-117420000D02*
X155456000Y-115896000D01*
X148996877Y-117420000D02*
X153932000Y-117420000D01*
X147460000Y-108830000D02*
X146635000Y-109655000D01*
X146635000Y-109655000D02*
X146635000Y-115058123D01*
X146635000Y-115058123D02*
X148996877Y-117420000D01*
%TO.N,P4*%
X149460000Y-105580000D02*
X146185000Y-108855000D01*
X156022000Y-117870000D02*
X157996000Y-115896000D01*
X146185000Y-108855000D02*
X146185000Y-115244519D01*
X146185000Y-115244519D02*
X148810481Y-117870000D01*
X148810481Y-117870000D02*
X156022000Y-117870000D01*
%TO.N,P6*%
X164285000Y-106601877D02*
X164285000Y-109185000D01*
X158960000Y-103330000D02*
X161013123Y-103330000D01*
X161013123Y-103330000D02*
X164285000Y-106601877D01*
X164285000Y-109185000D02*
X162574000Y-110896000D01*
X162574000Y-110896000D02*
X159456000Y-110896000D01*
%TO.N,P7*%
X161460000Y-105580000D02*
X159456000Y-107584000D01*
X159456000Y-107584000D02*
X159456000Y-108356000D01*
%TO.N,P8*%
X161801727Y-104755000D02*
X159137000Y-104755000D01*
X163460000Y-108830000D02*
X163460000Y-106413273D01*
X163460000Y-106413273D02*
X161801727Y-104755000D01*
X159137000Y-104755000D02*
X157996000Y-105896000D01*
%TD*%
M02*
