  0
SECTION
  2
HEADER
  9
$ANGBASE
  50
0.0
  9
$ANGDIR
  70
1
  9
$MEASUREMENT
  70
0
  0
ENDSEC
  0
SECTION
  2
TABLES
  0
TABLE
  2
LTYPE
  70
4
  0
LTYPE
  5
40F
  2
CONTINUOUS
  70
0
  3
Solid line
  72
65
  73
0
  40
0.0
  0
LTYPE
  5
410
  2
DASHDOT
 70
0
  3
Dash Dot ____ _ ____ _
 72
65
 73
4
 40
2.0
 49
1.25
 49
-0.25
 49
0.25
 49
-0.25
  0
LTYPE
  5
411
  2
DASHED
 70
0
  3
Dashed __ __ __ __ __
 72
65
 73
2
 40
0.75
 49
0.5
 49
-0.25
  0
LTYPE
  5
43B
  2
DOTTED
 70
0
  3
Dotted .  .  .  .
 72
65
 73
2
 40
0.2
 49
0.0
 49
-0.2
  0
ENDTAB
  0
TABLE
  2
STYLE
  70
4
  0
STYLE
  2
KICAD
  70
0
  40
0
  41
1
  42
1
  50
0
  71
0
  3
isocp.shx
  0
STYLE
  2
KICADB
  70
0
  40
0
  41
1
  42
1
  50
0
  71
0
  3
isocp.shx
  0
STYLE
  2
KICADI
  70
0
  40
0
  41
1
  42
1
  50
15
  71
0
  3
isocp.shx
  0
STYLE
  2
KICADBI
  70
0
  40
0
  41
1
  42
1
  50
15
  71
0
  3
isocp.shx
  0
ENDTAB
  0
TABLE
  2
LAYER
  70
1
  0
LAYER
  2
BLACK
  70
0
  62
7
  6
CONTINUOUS
  0
ENDTAB
  0
ENDSEC
  0
SECTION
  2
ENTITIES
0
LINE
8
BLACK
6
CONTINUOUS
10
5.71
20
-3.96
11
6.53
21
-3.96
0
LINE
8
BLACK
6
CONTINUOUS
10
6.53
20
-3.96
11
6.53
21
-4.77
0
LINE
8
BLACK
6
CONTINUOUS
10
6.53
20
-4.77
11
5.71
21
-4.77
0
LINE
8
BLACK
6
CONTINUOUS
10
5.71
20
-4.77
11
5.71
21
-3.96
0
LINE
8
BLACK
6
CONTINUOUS
10
6.04173
20
-4.28583
11
6.19921
21
-4.44331
0
LINE
8
BLACK
6
CONTINUOUS
10
6.19921
20
-4.28583
11
6.04173
21
-4.44331
0
LINE
8
BLACK
6
CONTINUOUS
10
5.80552
20
-4.88751
11
5.80552
21
-4.80877
0
LINE
8
BLACK
6
CONTINUOUS
10
5.80552
20
-4.80877
11
5.82427
21
-4.80877
0
LINE
8
BLACK
6
CONTINUOUS
10
5.82427
20
-4.80877
11
5.83552
21
-4.81252
0
LINE
8
BLACK
6
CONTINUOUS
10
5.83552
20
-4.81252
11
5.84301
21
-4.82002
0
LINE
8
BLACK
6
CONTINUOUS
10
5.84301
20
-4.82002
11
5.84676
21
-4.82752
0
LINE
8
BLACK
6
CONTINUOUS
10
5.84676
20
-4.82752
11
5.85051
21
-4.84252
0
LINE
8
BLACK
6
CONTINUOUS
10
5.85051
20
-4.84252
11
5.85051
21
-4.85376
0
LINE
8
BLACK
6
CONTINUOUS
10
5.85051
20
-4.85376
11
5.84676
21
-4.86876
0
LINE
8
BLACK
6
CONTINUOUS
10
5.84676
20
-4.86876
11
5.84301
21
-4.87626
0
LINE
8
BLACK
6
CONTINUOUS
10
5.84301
20
-4.87626
11
5.83552
21
-4.88376
0
LINE
8
BLACK
6
CONTINUOUS
10
5.83552
20
-4.88376
11
5.82427
21
-4.88751
0
LINE
8
BLACK
6
CONTINUOUS
10
5.82427
20
-4.88751
11
5.80552
21
-4.88751
0
LINE
8
BLACK
6
CONTINUOUS
10
5.88426
20
-4.88751
11
5.88426
21
-4.83502
0
LINE
8
BLACK
6
CONTINUOUS
10
5.88426
20
-4.85001
11
5.88801
21
-4.84252
0
LINE
8
BLACK
6
CONTINUOUS
10
5.88801
20
-4.84252
11
5.89176
21
-4.83877
0
LINE
8
BLACK
6
CONTINUOUS
10
5.89176
20
-4.83877
11
5.89926
21
-4.83502
0
LINE
8
BLACK
6
CONTINUOUS
10
5.89926
20
-4.83502
11
5.90676
21
-4.83502
0
LINE
8
BLACK
6
CONTINUOUS
10
5.933
20
-4.88751
11
5.933
21
-4.83502
0
LINE
8
BLACK
6
CONTINUOUS
10
5.933
20
-4.80877
11
5.92925
21
-4.81252
0
LINE
8
BLACK
6
CONTINUOUS
10
5.92925
20
-4.81252
11
5.933
21
-4.81627
0
LINE
8
BLACK
6
CONTINUOUS
10
5.933
20
-4.81627
11
5.93675
21
-4.81252
0
LINE
8
BLACK
6
CONTINUOUS
10
5.93675
20
-4.81252
11
5.933
21
-4.80877
0
LINE
8
BLACK
6
CONTINUOUS
10
5.933
20
-4.80877
11
5.933
21
-4.81627
0
LINE
8
BLACK
6
CONTINUOUS
10
5.98175
20
-4.88751
11
5.97425
21
-4.88376
0
LINE
8
BLACK
6
CONTINUOUS
10
5.97425
20
-4.88376
11
5.9705
21
-4.87626
0
LINE
8
BLACK
6
CONTINUOUS
10
5.9705
20
-4.87626
11
5.9705
21
-4.80877
0
LINE
8
BLACK
6
CONTINUOUS
10
6.02299
20
-4.88751
11
6.01549
21
-4.88376
0
LINE
8
BLACK
6
CONTINUOUS
10
6.01549
20
-4.88376
11
6.01174
21
-4.87626
0
LINE
8
BLACK
6
CONTINUOUS
10
6.01174
20
-4.87626
11
6.01174
21
-4.80877
0
LINE
8
BLACK
6
CONTINUOUS
10
6.10023
20
-4.88751
11
6.10023
21
-4.80877
0
LINE
8
BLACK
6
CONTINUOUS
10
6.10023
20
-4.80877
11
6.12648
21
-4.86501
0
LINE
8
BLACK
6
CONTINUOUS
10
6.12648
20
-4.86501
11
6.15273
21
-4.80877
0
LINE
8
BLACK
6
CONTINUOUS
10
6.15273
20
-4.80877
11
6.15273
21
-4.88751
0
LINE
8
BLACK
6
CONTINUOUS
10
6.22397
20
-4.88751
11
6.22397
21
-4.84627
0
LINE
8
BLACK
6
CONTINUOUS
10
6.22397
20
-4.84627
11
6.22022
21
-4.83877
0
LINE
8
BLACK
6
CONTINUOUS
10
6.22022
20
-4.83877
11
6.21272
21
-4.83502
0
LINE
8
BLACK
6
CONTINUOUS
10
6.21272
20
-4.83502
11
6.19772
21
-4.83502
0
LINE
8
BLACK
6
CONTINUOUS
10
6.19772
20
-4.83502
11
6.19022
21
-4.83877
0
LINE
8
BLACK
6
CONTINUOUS
10
6.22397
20
-4.88376
11
6.21647
21
-4.88751
0
LINE
8
BLACK
6
CONTINUOUS
10
6.21647
20
-4.88751
11
6.19772
21
-4.88751
0
LINE
8
BLACK
6
CONTINUOUS
10
6.19772
20
-4.88751
11
6.19022
21
-4.88376
0
LINE
8
BLACK
6
CONTINUOUS
10
6.19022
20
-4.88376
11
6.18647
21
-4.87626
0
LINE
8
BLACK
6
CONTINUOUS
10
6.18647
20
-4.87626
11
6.18647
21
-4.86876
0
LINE
8
BLACK
6
CONTINUOUS
10
6.18647
20
-4.86876
11
6.19022
21
-4.86126
0
LINE
8
BLACK
6
CONTINUOUS
10
6.19022
20
-4.86126
11
6.19772
21
-4.85751
0
LINE
8
BLACK
6
CONTINUOUS
10
6.19772
20
-4.85751
11
6.21647
21
-4.85751
0
LINE
8
BLACK
6
CONTINUOUS
10
6.21647
20
-4.85751
11
6.22397
21
-4.85376
0
LINE
8
BLACK
6
CONTINUOUS
10
6.26146
20
-4.83502
11
6.26146
21
-4.91376
0
LINE
8
BLACK
6
CONTINUOUS
10
6.26146
20
-4.83877
11
6.26896
21
-4.83502
0
LINE
8
BLACK
6
CONTINUOUS
10
6.26896
20
-4.83502
11
6.28396
21
-4.83502
0
LINE
8
BLACK
6
CONTINUOUS
10
6.28396
20
-4.83502
11
6.29146
21
-4.83877
0
LINE
8
BLACK
6
CONTINUOUS
10
6.29146
20
-4.83877
11
6.29521
21
-4.84252
0
LINE
8
BLACK
6
CONTINUOUS
10
6.29521
20
-4.84252
11
6.29896
21
-4.85001
0
LINE
8
BLACK
6
CONTINUOUS
10
6.29896
20
-4.85001
11
6.29896
21
-4.87251
0
LINE
8
BLACK
6
CONTINUOUS
10
6.29896
20
-4.87251
11
6.29521
21
-4.88001
0
LINE
8
BLACK
6
CONTINUOUS
10
6.29521
20
-4.88001
11
6.29146
21
-4.88376
0
LINE
8
BLACK
6
CONTINUOUS
10
6.29146
20
-4.88376
11
6.28396
21
-4.88751
0
LINE
8
BLACK
6
CONTINUOUS
10
6.28396
20
-4.88751
11
6.26896
21
-4.88751
0
LINE
8
BLACK
6
CONTINUOUS
10
6.26896
20
-4.88751
11
6.26146
21
-4.88376
0
LINE
8
BLACK
6
CONTINUOUS
10
6.3327
20
-4.88001
11
6.33645
21
-4.88376
0
LINE
8
BLACK
6
CONTINUOUS
10
6.33645
20
-4.88376
11
6.3327
21
-4.88751
0
LINE
8
BLACK
6
CONTINUOUS
10
6.3327
20
-4.88751
11
6.32895
21
-4.88376
0
LINE
8
BLACK
6
CONTINUOUS
10
6.32895
20
-4.88376
11
6.3327
21
-4.88001
0
LINE
8
BLACK
6
CONTINUOUS
10
6.3327
20
-4.88001
11
6.3327
21
-4.88751
0
LINE
8
BLACK
6
CONTINUOUS
10
6.3327
20
-4.83877
11
6.33645
21
-4.84252
0
LINE
8
BLACK
6
CONTINUOUS
10
6.33645
20
-4.84252
11
6.3327
21
-4.84627
0
LINE
8
BLACK
6
CONTINUOUS
10
6.3327
20
-4.84627
11
6.32895
21
-4.84252
0
LINE
8
BLACK
6
CONTINUOUS
10
6.32895
20
-4.84252
11
6.3327
21
-4.83877
0
LINE
8
BLACK
6
CONTINUOUS
10
6.3327
20
-4.83877
11
6.3327
21
-4.84627
0
LINE
8
BLACK
6
CONTINUOUS
10
5.62929
20
-4.98457
11
5.70803
21
-5.06331
0
LINE
8
BLACK
6
CONTINUOUS
10
5.70803
20
-4.98457
11
5.62929
21
-5.06331
0
LINE
8
BLACK
6
CONTINUOUS
10
5.83927
20
-5.00037
11
5.83927
21
-5.05286
0
LINE
8
BLACK
6
CONTINUOUS
10
5.82052
20
-4.97037
11
5.80177
21
-5.02662
0
LINE
8
BLACK
6
CONTINUOUS
10
5.80177
20
-5.02662
11
5.85051
21
-5.02662
0
LINE
8
BLACK
6
CONTINUOUS
10
5.88051
20
-5.04537
11
5.88426
21
-5.04912
0
LINE
8
BLACK
6
CONTINUOUS
10
5.88426
20
-5.04912
11
5.88051
21
-5.05286
0
LINE
8
BLACK
6
CONTINUOUS
10
5.88051
20
-5.05286
11
5.87676
21
-5.04912
0
LINE
8
BLACK
6
CONTINUOUS
10
5.87676
20
-5.04912
11
5.88051
21
-5.04537
0
LINE
8
BLACK
6
CONTINUOUS
10
5.88051
20
-5.04537
11
5.88051
21
-5.05286
0
LINE
8
BLACK
6
CONTINUOUS
10
5.933
20
-4.97412
11
5.9405
21
-4.97412
0
LINE
8
BLACK
6
CONTINUOUS
10
5.9405
20
-4.97412
11
5.948
21
-4.97787
0
LINE
8
BLACK
6
CONTINUOUS
10
5.948
20
-4.97787
11
5.95175
21
-4.98162
0
LINE
8
BLACK
6
CONTINUOUS
10
5.95175
20
-4.98162
11
5.9555
21
-4.98912
0
LINE
8
BLACK
6
CONTINUOUS
10
5.9555
20
-4.98912
11
5.95925
21
-5.00412
0
LINE
8
BLACK
6
CONTINUOUS
10
5.95925
20
-5.00412
11
5.95925
21
-5.02287
0
LINE
8
BLACK
6
CONTINUOUS
10
5.95925
20
-5.02287
11
5.9555
21
-5.03787
0
LINE
8
BLACK
6
CONTINUOUS
10
5.9555
20
-5.03787
11
5.95175
21
-5.04537
0
LINE
8
BLACK
6
CONTINUOUS
10
5.95175
20
-5.04537
11
5.948
21
-5.04912
0
LINE
8
BLACK
6
CONTINUOUS
10
5.948
20
-5.04912
11
5.9405
21
-5.05286
0
LINE
8
BLACK
6
CONTINUOUS
10
5.9405
20
-5.05286
11
5.933
21
-5.05286
0
LINE
8
BLACK
6
CONTINUOUS
10
5.933
20
-5.05286
11
5.9255
21
-5.04912
0
LINE
8
BLACK
6
CONTINUOUS
10
5.9255
20
-5.04912
11
5.92175
21
-5.04537
0
LINE
8
BLACK
6
CONTINUOUS
10
5.92175
20
-5.04537
11
5.91801
21
-5.03787
0
LINE
8
BLACK
6
CONTINUOUS
10
5.91801
20
-5.03787
11
5.91426
21
-5.02287
0
LINE
8
BLACK
6
CONTINUOUS
10
5.91426
20
-5.02287
11
5.91426
21
-5.00412
0
LINE
8
BLACK
6
CONTINUOUS
10
5.91426
20
-5.00412
11
5.91801
21
-4.98912
0
LINE
8
BLACK
6
CONTINUOUS
10
5.91801
20
-4.98912
11
5.92175
21
-4.98162
0
LINE
8
BLACK
6
CONTINUOUS
10
5.92175
20
-4.98162
11
5.9255
21
-4.97787
0
LINE
8
BLACK
6
CONTINUOUS
10
5.9255
20
-4.97787
11
5.933
21
-4.97412
0
LINE
8
BLACK
6
CONTINUOUS
10
6.00799
20
-4.97412
11
6.01549
21
-4.97412
0
LINE
8
BLACK
6
CONTINUOUS
10
6.01549
20
-4.97412
11
6.02299
21
-4.97787
0
LINE
8
BLACK
6
CONTINUOUS
10
6.02299
20
-4.97787
11
6.02674
21
-4.98162
0
LINE
8
BLACK
6
CONTINUOUS
10
6.02674
20
-4.98162
11
6.03049
21
-4.98912
0
LINE
8
BLACK
6
CONTINUOUS
10
6.03049
20
-4.98912
11
6.03424
21
-5.00412
0
LINE
8
BLACK
6
CONTINUOUS
10
6.03424
20
-5.00412
11
6.03424
21
-5.02287
0
LINE
8
BLACK
6
CONTINUOUS
10
6.03424
20
-5.02287
11
6.03049
21
-5.03787
0
LINE
8
BLACK
6
CONTINUOUS
10
6.03049
20
-5.03787
11
6.02674
21
-5.04537
0
LINE
8
BLACK
6
CONTINUOUS
10
6.02674
20
-5.04537
11
6.02299
21
-5.04912
0
LINE
8
BLACK
6
CONTINUOUS
10
6.02299
20
-5.04912
11
6.01549
21
-5.05286
0
LINE
8
BLACK
6
CONTINUOUS
10
6.01549
20
-5.05286
11
6.00799
21
-5.05286
0
LINE
8
BLACK
6
CONTINUOUS
10
6.00799
20
-5.05286
11
6.00049
21
-5.04912
0
LINE
8
BLACK
6
CONTINUOUS
10
6.00049
20
-5.04912
11
5.99675
21
-5.04537
0
LINE
8
BLACK
6
CONTINUOUS
10
5.99675
20
-5.04537
11
5.993
21
-5.03787
0
LINE
8
BLACK
6
CONTINUOUS
10
5.993
20
-5.03787
11
5.98925
21
-5.02287
0
LINE
8
BLACK
6
CONTINUOUS
10
5.98925
20
-5.02287
11
5.98925
21
-5.00412
0
LINE
8
BLACK
6
CONTINUOUS
10
5.98925
20
-5.00412
11
5.993
21
-4.98912
0
LINE
8
BLACK
6
CONTINUOUS
10
5.993
20
-4.98912
11
5.99675
21
-4.98162
0
LINE
8
BLACK
6
CONTINUOUS
10
5.99675
20
-4.98162
11
6.00049
21
-4.97787
0
LINE
8
BLACK
6
CONTINUOUS
10
6.00049
20
-4.97787
11
6.00799
21
-4.97412
0
LINE
8
BLACK
6
CONTINUOUS
10
6.08298
20
-4.97412
11
6.09048
21
-4.97412
0
LINE
8
BLACK
6
CONTINUOUS
10
6.09048
20
-4.97412
11
6.09798
21
-4.97787
0
LINE
8
BLACK
6
CONTINUOUS
10
6.09798
20
-4.97787
11
6.10173
21
-4.98162
0
LINE
8
BLACK
6
CONTINUOUS
10
6.10173
20
-4.98162
11
6.10548
21
-4.98912
0
LINE
8
BLACK
6
CONTINUOUS
10
6.10548
20
-4.98912
11
6.10923
21
-5.00412
0
LINE
8
BLACK
6
CONTINUOUS
10
6.10923
20
-5.00412
11
6.10923
21
-5.02287
0
LINE
8
BLACK
6
CONTINUOUS
10
6.10923
20
-5.02287
11
6.10548
21
-5.03787
0
LINE
8
BLACK
6
CONTINUOUS
10
6.10548
20
-5.03787
11
6.10173
21
-5.04537
0
LINE
8
BLACK
6
CONTINUOUS
10
6.10173
20
-5.04537
11
6.09798
21
-5.04912
0
LINE
8
BLACK
6
CONTINUOUS
10
6.09798
20
-5.04912
11
6.09048
21
-5.05286
0
LINE
8
BLACK
6
CONTINUOUS
10
6.09048
20
-5.05286
11
6.08298
21
-5.05286
0
LINE
8
BLACK
6
CONTINUOUS
10
6.08298
20
-5.05286
11
6.07549
21
-5.04912
0
LINE
8
BLACK
6
CONTINUOUS
10
6.07549
20
-5.04912
11
6.07174
21
-5.04537
0
LINE
8
BLACK
6
CONTINUOUS
10
6.07174
20
-5.04537
11
6.06799
21
-5.03787
0
LINE
8
BLACK
6
CONTINUOUS
10
6.06799
20
-5.03787
11
6.06424
21
-5.02287
0
LINE
8
BLACK
6
CONTINUOUS
10
6.06424
20
-5.02287
11
6.06424
21
-5.00412
0
LINE
8
BLACK
6
CONTINUOUS
10
6.06424
20
-5.00412
11
6.06799
21
-4.98912
0
LINE
8
BLACK
6
CONTINUOUS
10
6.06799
20
-4.98912
11
6.07174
21
-4.98162
0
LINE
8
BLACK
6
CONTINUOUS
10
6.07174
20
-4.98162
11
6.07549
21
-4.97787
0
LINE
8
BLACK
6
CONTINUOUS
10
6.07549
20
-4.97787
11
6.08298
21
-4.97412
0
LINE
8
BLACK
6
CONTINUOUS
10
6.14298
20
-5.05286
11
6.14298
21
-5.00037
0
LINE
8
BLACK
6
CONTINUOUS
10
6.14298
20
-5.00787
11
6.14673
21
-5.00412
0
LINE
8
BLACK
6
CONTINUOUS
10
6.14673
20
-5.00412
11
6.15423
21
-5.00037
0
LINE
8
BLACK
6
CONTINUOUS
10
6.15423
20
-5.00037
11
6.16547
21
-5.00037
0
LINE
8
BLACK
6
CONTINUOUS
10
6.16547
20
-5.00037
11
6.17297
21
-5.00412
0
LINE
8
BLACK
6
CONTINUOUS
10
6.17297
20
-5.00412
11
6.17672
21
-5.01162
0
LINE
8
BLACK
6
CONTINUOUS
10
6.17672
20
-5.01162
11
6.17672
21
-5.05286
0
LINE
8
BLACK
6
CONTINUOUS
10
6.17672
20
-5.01162
11
6.18047
21
-5.00412
0
LINE
8
BLACK
6
CONTINUOUS
10
6.18047
20
-5.00412
11
6.18797
21
-5.00037
0
LINE
8
BLACK
6
CONTINUOUS
10
6.18797
20
-5.00037
11
6.19922
21
-5.00037
0
LINE
8
BLACK
6
CONTINUOUS
10
6.19922
20
-5.00037
11
6.20672
21
-5.00412
0
LINE
8
BLACK
6
CONTINUOUS
10
6.20672
20
-5.00412
11
6.21047
21
-5.01162
0
LINE
8
BLACK
6
CONTINUOUS
10
6.21047
20
-5.01162
11
6.21047
21
-5.05286
0
LINE
8
BLACK
6
CONTINUOUS
10
6.24796
20
-5.05286
11
6.24796
21
-5.00037
0
LINE
8
BLACK
6
CONTINUOUS
10
6.24796
20
-5.00787
11
6.25171
21
-5.00412
0
LINE
8
BLACK
6
CONTINUOUS
10
6.25171
20
-5.00412
11
6.25921
21
-5.00037
0
LINE
8
BLACK
6
CONTINUOUS
10
6.25921
20
-5.00037
11
6.27046
21
-5.00037
0
LINE
8
BLACK
6
CONTINUOUS
10
6.27046
20
-5.00037
11
6.27796
21
-5.00412
0
LINE
8
BLACK
6
CONTINUOUS
10
6.27796
20
-5.00412
11
6.28171
21
-5.01162
0
LINE
8
BLACK
6
CONTINUOUS
10
6.28171
20
-5.01162
11
6.28171
21
-5.05286
0
LINE
8
BLACK
6
CONTINUOUS
10
6.28171
20
-5.01162
11
6.28546
21
-5.00412
0
LINE
8
BLACK
6
CONTINUOUS
10
6.28546
20
-5.00412
11
6.29296
21
-5.00037
0
LINE
8
BLACK
6
CONTINUOUS
10
6.29296
20
-5.00037
11
6.30421
21
-5.00037
0
LINE
8
BLACK
6
CONTINUOUS
10
6.30421
20
-5.00037
11
6.31171
21
-5.00412
0
LINE
8
BLACK
6
CONTINUOUS
10
6.31171
20
-5.00412
11
6.31546
21
-5.01162
0
LINE
8
BLACK
6
CONTINUOUS
10
6.31546
20
-5.01162
11
6.31546
21
-5.05286
0
LINE
8
BLACK
6
CONTINUOUS
10
6.45644
20
-4.97037
11
6.38895
21
-5.07161
0
LINE
8
BLACK
6
CONTINUOUS
10
6.54493
20
-4.97412
11
6.55243
21
-4.97412
0
LINE
8
BLACK
6
CONTINUOUS
10
6.55243
20
-4.97412
11
6.55993
21
-4.97787
0
LINE
8
BLACK
6
CONTINUOUS
10
6.55993
20
-4.97787
11
6.56367
21
-4.98162
0
LINE
8
BLACK
6
CONTINUOUS
10
6.56367
20
-4.98162
11
6.56742
21
-4.98912
0
LINE
8
BLACK
6
CONTINUOUS
10
6.56742
20
-4.98912
11
6.57117
21
-5.00412
0
LINE
8
BLACK
6
CONTINUOUS
10
6.57117
20
-5.00412
11
6.57117
21
-5.02287
0
LINE
8
BLACK
6
CONTINUOUS
10
6.57117
20
-5.02287
11
6.56742
21
-5.03787
0
LINE
8
BLACK
6
CONTINUOUS
10
6.56742
20
-5.03787
11
6.56367
21
-5.04537
0
LINE
8
BLACK
6
CONTINUOUS
10
6.56367
20
-5.04537
11
6.55993
21
-5.04912
0
LINE
8
BLACK
6
CONTINUOUS
10
6.55993
20
-5.04912
11
6.55243
21
-5.05286
0
LINE
8
BLACK
6
CONTINUOUS
10
6.55243
20
-5.05286
11
6.54493
21
-5.05286
0
LINE
8
BLACK
6
CONTINUOUS
10
6.54493
20
-5.05286
11
6.53743
21
-5.04912
0
LINE
8
BLACK
6
CONTINUOUS
10
6.53743
20
-5.04912
11
6.53368
21
-5.04537
0
LINE
8
BLACK
6
CONTINUOUS
10
6.53368
20
-5.04537
11
6.52993
21
-5.03787
0
LINE
8
BLACK
6
CONTINUOUS
10
6.52993
20
-5.03787
11
6.52618
21
-5.02287
0
LINE
8
BLACK
6
CONTINUOUS
10
6.52618
20
-5.02287
11
6.52618
21
-5.00412
0
LINE
8
BLACK
6
CONTINUOUS
10
6.52618
20
-5.00412
11
6.52993
21
-4.98912
0
LINE
8
BLACK
6
CONTINUOUS
10
6.52993
20
-4.98912
11
6.53368
21
-4.98162
0
LINE
8
BLACK
6
CONTINUOUS
10
6.53368
20
-4.98162
11
6.53743
21
-4.97787
0
LINE
8
BLACK
6
CONTINUOUS
10
6.53743
20
-4.97787
11
6.54493
21
-4.97412
0
LINE
8
BLACK
6
CONTINUOUS
10
6.60492
20
-5.04537
11
6.60867
21
-5.04912
0
LINE
8
BLACK
6
CONTINUOUS
10
6.60867
20
-5.04912
11
6.60492
21
-5.05286
0
LINE
8
BLACK
6
CONTINUOUS
10
6.60492
20
-5.05286
11
6.60117
21
-5.04912
0
LINE
8
BLACK
6
CONTINUOUS
10
6.60117
20
-5.04912
11
6.60492
21
-5.04537
0
LINE
8
BLACK
6
CONTINUOUS
10
6.60492
20
-5.04537
11
6.60492
21
-5.05286
0
LINE
8
BLACK
6
CONTINUOUS
10
6.68366
20
-5.05286
11
6.63867
21
-5.05286
0
LINE
8
BLACK
6
CONTINUOUS
10
6.66116
20
-5.05286
11
6.66116
21
-4.97412
0
LINE
8
BLACK
6
CONTINUOUS
10
6.66116
20
-4.97412
11
6.65366
21
-4.98537
0
LINE
8
BLACK
6
CONTINUOUS
10
6.65366
20
-4.98537
11
6.64616
21
-4.99287
0
LINE
8
BLACK
6
CONTINUOUS
10
6.64616
20
-4.99287
11
6.63867
21
-4.99662
0
LINE
8
BLACK
6
CONTINUOUS
10
6.7549
20
-4.97412
11
6.71741
21
-4.97412
0
LINE
8
BLACK
6
CONTINUOUS
10
6.71741
20
-4.97412
11
6.71366
21
-5.01162
0
LINE
8
BLACK
6
CONTINUOUS
10
6.71366
20
-5.01162
11
6.71741
21
-5.00787
0
LINE
8
BLACK
6
CONTINUOUS
10
6.71741
20
-5.00787
11
6.7249
21
-5.00412
0
LINE
8
BLACK
6
CONTINUOUS
10
6.7249
20
-5.00412
11
6.74365
21
-5.00412
0
LINE
8
BLACK
6
CONTINUOUS
10
6.74365
20
-5.00412
11
6.75115
21
-5.00787
0
LINE
8
BLACK
6
CONTINUOUS
10
6.75115
20
-5.00787
11
6.7549
21
-5.01162
0
LINE
8
BLACK
6
CONTINUOUS
10
6.7549
20
-5.01162
11
6.75865
21
-5.01912
0
LINE
8
BLACK
6
CONTINUOUS
10
6.75865
20
-5.01912
11
6.75865
21
-5.03787
0
LINE
8
BLACK
6
CONTINUOUS
10
6.75865
20
-5.03787
11
6.7549
21
-5.04537
0
LINE
8
BLACK
6
CONTINUOUS
10
6.7549
20
-5.04537
11
6.75115
21
-5.04912
0
LINE
8
BLACK
6
CONTINUOUS
10
6.75115
20
-5.04912
11
6.74365
21
-5.05286
0
LINE
8
BLACK
6
CONTINUOUS
10
6.74365
20
-5.05286
11
6.7249
21
-5.05286
0
LINE
8
BLACK
6
CONTINUOUS
10
6.7249
20
-5.05286
11
6.71741
21
-5.04912
0
LINE
8
BLACK
6
CONTINUOUS
10
6.71741
20
-5.04912
11
6.71366
21
-5.04537
0
LINE
8
BLACK
6
CONTINUOUS
10
6.7849
20
-4.97412
11
6.83739
21
-4.97412
0
LINE
8
BLACK
6
CONTINUOUS
10
6.83739
20
-4.97412
11
6.80364
21
-5.05286
0
LINE
8
BLACK
6
CONTINUOUS
10
6.90488
20
-4.97412
11
6.86739
21
-4.97412
0
LINE
8
BLACK
6
CONTINUOUS
10
6.86739
20
-4.97412
11
6.86364
21
-5.01162
0
LINE
8
BLACK
6
CONTINUOUS
10
6.86364
20
-5.01162
11
6.86739
21
-5.00787
0
LINE
8
BLACK
6
CONTINUOUS
10
6.86739
20
-5.00787
11
6.87489
21
-5.00412
0
LINE
8
BLACK
6
CONTINUOUS
10
6.87489
20
-5.00412
11
6.89363
21
-5.00412
0
LINE
8
BLACK
6
CONTINUOUS
10
6.89363
20
-5.00412
11
6.90113
21
-5.00787
0
LINE
8
BLACK
6
CONTINUOUS
10
6.90113
20
-5.00787
11
6.90488
21
-5.01162
0
LINE
8
BLACK
6
CONTINUOUS
10
6.90488
20
-5.01162
11
6.90863
21
-5.01912
0
LINE
8
BLACK
6
CONTINUOUS
10
6.90863
20
-5.01912
11
6.90863
21
-5.03787
0
LINE
8
BLACK
6
CONTINUOUS
10
6.90863
20
-5.03787
11
6.90488
21
-5.04537
0
LINE
8
BLACK
6
CONTINUOUS
10
6.90488
20
-5.04537
11
6.90113
21
-5.04912
0
LINE
8
BLACK
6
CONTINUOUS
10
6.90113
20
-5.04912
11
6.89363
21
-5.05286
0
LINE
8
BLACK
6
CONTINUOUS
10
6.89363
20
-5.05286
11
6.87489
21
-5.05286
0
LINE
8
BLACK
6
CONTINUOUS
10
6.87489
20
-5.05286
11
6.86739
21
-5.04912
0
LINE
8
BLACK
6
CONTINUOUS
10
6.86739
20
-5.04912
11
6.86364
21
-5.04537
0
LINE
8
BLACK
6
CONTINUOUS
10
6.93863
20
-4.97412
11
6.93863
21
-4.98912
0
LINE
8
BLACK
6
CONTINUOUS
10
6.96862
20
-4.97412
11
6.96862
21
-4.98912
0
LINE
8
BLACK
6
CONTINUOUS
10
7.07211
20
-5.08286
11
7.06836
21
-5.07911
0
LINE
8
BLACK
6
CONTINUOUS
10
7.06836
20
-5.07911
11
7.06086
21
-5.06786
0
LINE
8
BLACK
6
CONTINUOUS
10
7.06086
20
-5.06786
11
7.05711
21
-5.06036
0
LINE
8
BLACK
6
CONTINUOUS
10
7.05711
20
-5.06036
11
7.05336
21
-5.04912
0
LINE
8
BLACK
6
CONTINUOUS
10
7.05336
20
-5.04912
11
7.04961
21
-5.03037
0
LINE
8
BLACK
6
CONTINUOUS
10
7.04961
20
-5.03037
11
7.04961
21
-5.01537
0
LINE
8
BLACK
6
CONTINUOUS
10
7.04961
20
-5.01537
11
7.05336
21
-4.99662
0
LINE
8
BLACK
6
CONTINUOUS
10
7.05336
20
-4.99662
11
7.05711
21
-4.98537
0
LINE
8
BLACK
6
CONTINUOUS
10
7.05711
20
-4.98537
11
7.06086
21
-4.97787
0
LINE
8
BLACK
6
CONTINUOUS
10
7.06086
20
-4.97787
11
7.06836
21
-4.96663
0
LINE
8
BLACK
6
CONTINUOUS
10
7.06836
20
-4.96663
11
7.07211
21
-4.96288
0
LINE
8
BLACK
6
CONTINUOUS
10
7.14335
20
-5.05286
11
7.09836
21
-5.05286
0
LINE
8
BLACK
6
CONTINUOUS
10
7.12085
20
-5.05286
11
7.12085
21
-4.97412
0
LINE
8
BLACK
6
CONTINUOUS
10
7.12085
20
-4.97412
11
7.11336
21
-4.98537
0
LINE
8
BLACK
6
CONTINUOUS
10
7.11336
20
-4.98537
11
7.10586
21
-4.99287
0
LINE
8
BLACK
6
CONTINUOUS
10
7.10586
20
-4.99287
11
7.09836
21
-4.99662
0
LINE
8
BLACK
6
CONTINUOUS
10
7.22434
20
-5.05286
11
7.22434
21
-4.97412
0
LINE
8
BLACK
6
CONTINUOUS
10
7.25809
20
-5.05286
11
7.25809
21
-5.01162
0
LINE
8
BLACK
6
CONTINUOUS
10
7.25809
20
-5.01162
11
7.25434
21
-5.00412
0
LINE
8
BLACK
6
CONTINUOUS
10
7.25434
20
-5.00412
11
7.24684
21
-5.00037
0
LINE
8
BLACK
6
CONTINUOUS
10
7.24684
20
-5.00037
11
7.23559
21
-5.00037
0
LINE
8
BLACK
6
CONTINUOUS
10
7.23559
20
-5.00037
11
7.22809
21
-5.00412
0
LINE
8
BLACK
6
CONTINUOUS
10
7.22809
20
-5.00412
11
7.22434
21
-5.00787
0
LINE
8
BLACK
6
CONTINUOUS
10
7.30683
20
-5.05286
11
7.29933
21
-5.04912
0
LINE
8
BLACK
6
CONTINUOUS
10
7.29933
20
-5.04912
11
7.29558
21
-5.04537
0
LINE
8
BLACK
6
CONTINUOUS
10
7.29558
20
-5.04537
11
7.29183
21
-5.03787
0
LINE
8
BLACK
6
CONTINUOUS
10
7.29183
20
-5.03787
11
7.29183
21
-5.01537
0
LINE
8
BLACK
6
CONTINUOUS
10
7.29183
20
-5.01537
11
7.29558
21
-5.00787
0
LINE
8
BLACK
6
CONTINUOUS
10
7.29558
20
-5.00787
11
7.29933
21
-5.00412
0
LINE
8
BLACK
6
CONTINUOUS
10
7.29933
20
-5.00412
11
7.30683
21
-5.00037
0
LINE
8
BLACK
6
CONTINUOUS
10
7.30683
20
-5.00037
11
7.31808
21
-5.00037
0
LINE
8
BLACK
6
CONTINUOUS
10
7.31808
20
-5.00037
11
7.32558
21
-5.00412
0
LINE
8
BLACK
6
CONTINUOUS
10
7.32558
20
-5.00412
11
7.32933
21
-5.00787
0
LINE
8
BLACK
6
CONTINUOUS
10
7.32933
20
-5.00787
11
7.33308
21
-5.01537
0
LINE
8
BLACK
6
CONTINUOUS
10
7.33308
20
-5.01537
11
7.33308
21
-5.03787
0
LINE
8
BLACK
6
CONTINUOUS
10
7.33308
20
-5.03787
11
7.32933
21
-5.04537
0
LINE
8
BLACK
6
CONTINUOUS
10
7.32933
20
-5.04537
11
7.32558
21
-5.04912
0
LINE
8
BLACK
6
CONTINUOUS
10
7.32558
20
-5.04912
11
7.31808
21
-5.05286
0
LINE
8
BLACK
6
CONTINUOUS
10
7.31808
20
-5.05286
11
7.30683
21
-5.05286
0
LINE
8
BLACK
6
CONTINUOUS
10
7.37807
20
-5.05286
11
7.37057
21
-5.04912
0
LINE
8
BLACK
6
CONTINUOUS
10
7.37057
20
-5.04912
11
7.36682
21
-5.04162
0
LINE
8
BLACK
6
CONTINUOUS
10
7.36682
20
-5.04162
11
7.36682
21
-4.97412
0
LINE
8
BLACK
6
CONTINUOUS
10
7.43807
20
-5.04912
11
7.43057
21
-5.05286
0
LINE
8
BLACK
6
CONTINUOUS
10
7.43057
20
-5.05286
11
7.41557
21
-5.05286
0
LINE
8
BLACK
6
CONTINUOUS
10
7.41557
20
-5.05286
11
7.40807
21
-5.04912
0
LINE
8
BLACK
6
CONTINUOUS
10
7.40807
20
-5.04912
11
7.40432
21
-5.04162
0
LINE
8
BLACK
6
CONTINUOUS
10
7.40432
20
-5.04162
11
7.40432
21
-5.01162
0
LINE
8
BLACK
6
CONTINUOUS
10
7.40432
20
-5.01162
11
7.40807
21
-5.00412
0
LINE
8
BLACK
6
CONTINUOUS
10
7.40807
20
-5.00412
11
7.41557
21
-5.00037
0
LINE
8
BLACK
6
CONTINUOUS
10
7.41557
20
-5.00037
11
7.43057
21
-5.00037
0
LINE
8
BLACK
6
CONTINUOUS
10
7.43057
20
-5.00037
11
7.43807
21
-5.00412
0
LINE
8
BLACK
6
CONTINUOUS
10
7.43807
20
-5.00412
11
7.44181
21
-5.01162
0
LINE
8
BLACK
6
CONTINUOUS
10
7.44181
20
-5.01162
11
7.44181
21
-5.01912
0
LINE
8
BLACK
6
CONTINUOUS
10
7.44181
20
-5.01912
11
7.40432
21
-5.02662
0
LINE
8
BLACK
6
CONTINUOUS
10
7.46806
20
-5.08286
11
7.47181
21
-5.07911
0
LINE
8
BLACK
6
CONTINUOUS
10
7.47181
20
-5.07911
11
7.47931
21
-5.06786
0
LINE
8
BLACK
6
CONTINUOUS
10
7.47931
20
-5.06786
11
7.48306
21
-5.06036
0
LINE
8
BLACK
6
CONTINUOUS
10
7.48306
20
-5.06036
11
7.48681
21
-5.04912
0
LINE
8
BLACK
6
CONTINUOUS
10
7.48681
20
-5.04912
11
7.49056
21
-5.03037
0
LINE
8
BLACK
6
CONTINUOUS
10
7.49056
20
-5.03037
11
7.49056
21
-5.01537
0
LINE
8
BLACK
6
CONTINUOUS
10
7.49056
20
-5.01537
11
7.48681
21
-4.99662
0
LINE
8
BLACK
6
CONTINUOUS
10
7.48681
20
-4.99662
11
7.48306
21
-4.98537
0
LINE
8
BLACK
6
CONTINUOUS
10
7.48306
20
-4.98537
11
7.47931
21
-4.97787
0
LINE
8
BLACK
6
CONTINUOUS
10
7.47931
20
-4.97787
11
7.47181
21
-4.96663
0
LINE
8
BLACK
6
CONTINUOUS
10
7.47181
20
-4.96663
11
7.46806
21
-4.96288
0
LINE
8
BLACK
6
CONTINUOUS
10
7.5978
20
-5.08286
11
7.59405
21
-5.07911
0
LINE
8
BLACK
6
CONTINUOUS
10
7.59405
20
-5.07911
11
7.58655
21
-5.06786
0
LINE
8
BLACK
6
CONTINUOUS
10
7.58655
20
-5.06786
11
7.5828
21
-5.06036
0
LINE
8
BLACK
6
CONTINUOUS
10
7.5828
20
-5.06036
11
7.57905
21
-5.04912
0
LINE
8
BLACK
6
CONTINUOUS
10
7.57905
20
-5.04912
11
7.5753
21
-5.03037
0
LINE
8
BLACK
6
CONTINUOUS
10
7.5753
20
-5.03037
11
7.5753
21
-5.01537
0
LINE
8
BLACK
6
CONTINUOUS
10
7.5753
20
-5.01537
11
7.57905
21
-4.99662
0
LINE
8
BLACK
6
CONTINUOUS
10
7.57905
20
-4.99662
11
7.5828
21
-4.98537
0
LINE
8
BLACK
6
CONTINUOUS
10
7.5828
20
-4.98537
11
7.58655
21
-4.97787
0
LINE
8
BLACK
6
CONTINUOUS
10
7.58655
20
-4.97787
11
7.59405
21
-4.96663
0
LINE
8
BLACK
6
CONTINUOUS
10
7.59405
20
-4.96663
11
7.5978
21
-4.96288
0
LINE
8
BLACK
6
CONTINUOUS
10
7.62779
20
-5.00037
11
7.62779
21
-5.05286
0
LINE
8
BLACK
6
CONTINUOUS
10
7.62779
20
-5.00787
11
7.63154
21
-5.00412
0
LINE
8
BLACK
6
CONTINUOUS
10
7.63154
20
-5.00412
11
7.63904
21
-5.00037
0
LINE
8
BLACK
6
CONTINUOUS
10
7.63904
20
-5.00037
11
7.65029
21
-5.00037
0
LINE
8
BLACK
6
CONTINUOUS
10
7.65029
20
-5.00037
11
7.65779
21
-5.00412
0
LINE
8
BLACK
6
CONTINUOUS
10
7.65779
20
-5.00412
11
7.66154
21
-5.01162
0
LINE
8
BLACK
6
CONTINUOUS
10
7.66154
20
-5.01162
11
7.66154
21
-5.05286
0
LINE
8
BLACK
6
CONTINUOUS
10
7.71028
20
-5.05286
11
7.70278
21
-5.04912
0
LINE
8
BLACK
6
CONTINUOUS
10
7.70278
20
-5.04912
11
7.69903
21
-5.04537
0
LINE
8
BLACK
6
CONTINUOUS
10
7.69903
20
-5.04537
11
7.69528
21
-5.03787
0
LINE
8
BLACK
6
CONTINUOUS
10
7.69528
20
-5.03787
11
7.69528
21
-5.01537
0
LINE
8
BLACK
6
CONTINUOUS
10
7.69528
20
-5.01537
11
7.69903
21
-5.00787
0
LINE
8
BLACK
6
CONTINUOUS
10
7.69903
20
-5.00787
11
7.70278
21
-5.00412
0
LINE
8
BLACK
6
CONTINUOUS
10
7.70278
20
-5.00412
11
7.71028
21
-5.00037
0
LINE
8
BLACK
6
CONTINUOUS
10
7.71028
20
-5.00037
11
7.72153
21
-5.00037
0
LINE
8
BLACK
6
CONTINUOUS
10
7.72153
20
-5.00037
11
7.72903
21
-5.00412
0
LINE
8
BLACK
6
CONTINUOUS
10
7.72903
20
-5.00412
11
7.73278
21
-5.00787
0
LINE
8
BLACK
6
CONTINUOUS
10
7.73278
20
-5.00787
11
7.73653
21
-5.01537
0
LINE
8
BLACK
6
CONTINUOUS
10
7.73653
20
-5.01537
11
7.73653
21
-5.03787
0
LINE
8
BLACK
6
CONTINUOUS
10
7.73653
20
-5.03787
11
7.73278
21
-5.04537
0
LINE
8
BLACK
6
CONTINUOUS
10
7.73278
20
-5.04537
11
7.72903
21
-5.04912
0
LINE
8
BLACK
6
CONTINUOUS
10
7.72903
20
-5.04912
11
7.72153
21
-5.05286
0
LINE
8
BLACK
6
CONTINUOUS
10
7.72153
20
-5.05286
11
7.71028
21
-5.05286
0
LINE
8
BLACK
6
CONTINUOUS
10
7.75903
20
-5.00037
11
7.78902
21
-5.00037
0
LINE
8
BLACK
6
CONTINUOUS
10
7.77027
20
-4.97412
11
7.77027
21
-5.04162
0
LINE
8
BLACK
6
CONTINUOUS
10
7.77027
20
-5.04162
11
7.77402
21
-5.04912
0
LINE
8
BLACK
6
CONTINUOUS
10
7.77402
20
-5.04912
11
7.78152
21
-5.05286
0
LINE
8
BLACK
6
CONTINUOUS
10
7.78152
20
-5.05286
11
7.78902
21
-5.05286
0
LINE
8
BLACK
6
CONTINUOUS
10
7.86251
20
-5.00037
11
7.86251
21
-5.07911
0
LINE
8
BLACK
6
CONTINUOUS
10
7.86251
20
-5.00412
11
7.87001
21
-5.00037
0
LINE
8
BLACK
6
CONTINUOUS
10
7.87001
20
-5.00037
11
7.88501
21
-5.00037
0
LINE
8
BLACK
6
CONTINUOUS
10
7.88501
20
-5.00037
11
7.89251
21
-5.00412
0
LINE
8
BLACK
6
CONTINUOUS
10
7.89251
20
-5.00412
11
7.89626
21
-5.00787
0
LINE
8
BLACK
6
CONTINUOUS
10
7.89626
20
-5.00787
11
7.90001
21
-5.01537
0
LINE
8
BLACK
6
CONTINUOUS
10
7.90001
20
-5.01537
11
7.90001
21
-5.03787
0
LINE
8
BLACK
6
CONTINUOUS
10
7.90001
20
-5.03787
11
7.89626
21
-5.04537
0
LINE
8
BLACK
6
CONTINUOUS
10
7.89626
20
-5.04537
11
7.89251
21
-5.04912
0
LINE
8
BLACK
6
CONTINUOUS
10
7.89251
20
-5.04912
11
7.88501
21
-5.05286
0
LINE
8
BLACK
6
CONTINUOUS
10
7.88501
20
-5.05286
11
7.87001
21
-5.05286
0
LINE
8
BLACK
6
CONTINUOUS
10
7.87001
20
-5.05286
11
7.86251
21
-5.04912
0
LINE
8
BLACK
6
CONTINUOUS
10
7.945
20
-5.05286
11
7.9375
21
-5.04912
0
LINE
8
BLACK
6
CONTINUOUS
10
7.9375
20
-5.04912
11
7.93375
21
-5.04162
0
LINE
8
BLACK
6
CONTINUOUS
10
7.93375
20
-5.04162
11
7.93375
21
-4.97412
0
LINE
8
BLACK
6
CONTINUOUS
10
8.00874
20
-5.05286
11
8.00874
21
-5.01162
0
LINE
8
BLACK
6
CONTINUOUS
10
8.00874
20
-5.01162
11
8.00499
21
-5.00412
0
LINE
8
BLACK
6
CONTINUOUS
10
8.00499
20
-5.00412
11
7.9975
21
-5.00037
0
LINE
8
BLACK
6
CONTINUOUS
10
7.9975
20
-5.00037
11
7.9825
21
-5.00037
0
LINE
8
BLACK
6
CONTINUOUS
10
7.9825
20
-5.00037
11
7.975
21
-5.00412
0
LINE
8
BLACK
6
CONTINUOUS
10
8.00874
20
-5.04912
11
8.00124
21
-5.05286
0
LINE
8
BLACK
6
CONTINUOUS
10
8.00124
20
-5.05286
11
7.9825
21
-5.05286
0
LINE
8
BLACK
6
CONTINUOUS
10
7.9825
20
-5.05286
11
7.975
21
-5.04912
0
LINE
8
BLACK
6
CONTINUOUS
10
7.975
20
-5.04912
11
7.97125
21
-5.04162
0
LINE
8
BLACK
6
CONTINUOUS
10
7.97125
20
-5.04162
11
7.97125
21
-5.03412
0
LINE
8
BLACK
6
CONTINUOUS
10
7.97125
20
-5.03412
11
7.975
21
-5.02662
0
LINE
8
BLACK
6
CONTINUOUS
10
7.975
20
-5.02662
11
7.9825
21
-5.02287
0
LINE
8
BLACK
6
CONTINUOUS
10
7.9825
20
-5.02287
11
8.00124
21
-5.02287
0
LINE
8
BLACK
6
CONTINUOUS
10
8.00124
20
-5.02287
11
8.00874
21
-5.01912
0
LINE
8
BLACK
6
CONTINUOUS
10
8.03499
20
-5.00037
11
8.06499
21
-5.00037
0
LINE
8
BLACK
6
CONTINUOUS
10
8.04624
20
-4.97412
11
8.04624
21
-5.04162
0
LINE
8
BLACK
6
CONTINUOUS
10
8.04624
20
-5.04162
11
8.04999
21
-5.04912
0
LINE
8
BLACK
6
CONTINUOUS
10
8.04999
20
-5.04912
11
8.05749
21
-5.05286
0
LINE
8
BLACK
6
CONTINUOUS
10
8.05749
20
-5.05286
11
8.06499
21
-5.05286
0
LINE
8
BLACK
6
CONTINUOUS
10
8.12123
20
-5.04912
11
8.11373
21
-5.05286
0
LINE
8
BLACK
6
CONTINUOUS
10
8.11373
20
-5.05286
11
8.09873
21
-5.05286
0
LINE
8
BLACK
6
CONTINUOUS
10
8.09873
20
-5.05286
11
8.09123
21
-5.04912
0
LINE
8
BLACK
6
CONTINUOUS
10
8.09123
20
-5.04912
11
8.08748
21
-5.04162
0
LINE
8
BLACK
6
CONTINUOUS
10
8.08748
20
-5.04162
11
8.08748
21
-5.01162
0
LINE
8
BLACK
6
CONTINUOUS
10
8.08748
20
-5.01162
11
8.09123
21
-5.00412
0
LINE
8
BLACK
6
CONTINUOUS
10
8.09123
20
-5.00412
11
8.09873
21
-5.00037
0
LINE
8
BLACK
6
CONTINUOUS
10
8.09873
20
-5.00037
11
8.11373
21
-5.00037
0
LINE
8
BLACK
6
CONTINUOUS
10
8.11373
20
-5.00037
11
8.12123
21
-5.00412
0
LINE
8
BLACK
6
CONTINUOUS
10
8.12123
20
-5.00412
11
8.12498
21
-5.01162
0
LINE
8
BLACK
6
CONTINUOUS
10
8.12498
20
-5.01162
11
8.12498
21
-5.01912
0
LINE
8
BLACK
6
CONTINUOUS
10
8.12498
20
-5.01912
11
8.08748
21
-5.02662
0
LINE
8
BLACK
6
CONTINUOUS
10
8.19247
20
-5.05286
11
8.19247
21
-4.97412
0
LINE
8
BLACK
6
CONTINUOUS
10
8.19247
20
-5.04912
11
8.18497
21
-5.05286
0
LINE
8
BLACK
6
CONTINUOUS
10
8.18497
20
-5.05286
11
8.16997
21
-5.05286
0
LINE
8
BLACK
6
CONTINUOUS
10
8.16997
20
-5.05286
11
8.16247
21
-5.04912
0
LINE
8
BLACK
6
CONTINUOUS
10
8.16247
20
-5.04912
11
8.15873
21
-5.04537
0
LINE
8
BLACK
6
CONTINUOUS
10
8.15873
20
-5.04537
11
8.15498
21
-5.03787
0
LINE
8
BLACK
6
CONTINUOUS
10
8.15498
20
-5.03787
11
8.15498
21
-5.01537
0
LINE
8
BLACK
6
CONTINUOUS
10
8.15498
20
-5.01537
11
8.15873
21
-5.00787
0
LINE
8
BLACK
6
CONTINUOUS
10
8.15873
20
-5.00787
11
8.16247
21
-5.00412
0
LINE
8
BLACK
6
CONTINUOUS
10
8.16247
20
-5.00412
11
8.16997
21
-5.00037
0
LINE
8
BLACK
6
CONTINUOUS
10
8.16997
20
-5.00037
11
8.18497
21
-5.00037
0
LINE
8
BLACK
6
CONTINUOUS
10
8.18497
20
-5.00037
11
8.19247
21
-5.00412
0
LINE
8
BLACK
6
CONTINUOUS
10
8.22247
20
-5.08286
11
8.22622
21
-5.07911
0
LINE
8
BLACK
6
CONTINUOUS
10
8.22622
20
-5.07911
11
8.23372
21
-5.06786
0
LINE
8
BLACK
6
CONTINUOUS
10
8.23372
20
-5.06786
11
8.23747
21
-5.06036
0
LINE
8
BLACK
6
CONTINUOUS
10
8.23747
20
-5.06036
11
8.24121
21
-5.04912
0
LINE
8
BLACK
6
CONTINUOUS
10
8.24121
20
-5.04912
11
8.24496
21
-5.03037
0
LINE
8
BLACK
6
CONTINUOUS
10
8.24496
20
-5.03037
11
8.24496
21
-5.01537
0
LINE
8
BLACK
6
CONTINUOUS
10
8.24496
20
-5.01537
11
8.24121
21
-4.99662
0
LINE
8
BLACK
6
CONTINUOUS
10
8.24121
20
-4.99662
11
8.23747
21
-4.98537
0
LINE
8
BLACK
6
CONTINUOUS
10
8.23747
20
-4.98537
11
8.23372
21
-4.97787
0
LINE
8
BLACK
6
CONTINUOUS
10
8.23372
20
-4.97787
11
8.22622
21
-4.96663
0
LINE
8
BLACK
6
CONTINUOUS
10
8.22622
20
-4.96663
11
8.22247
21
-4.96288
  0
ENDSEC
  0
EOF
