  0
SECTION
  2
HEADER
  9
$ANGBASE
  50
0.0
  9
$ANGDIR
  70
1
  9
$MEASUREMENT
  70
0
  0
ENDSEC
  0
SECTION
  2
TABLES
  0
TABLE
  2
LTYPE
  70
4
  0
LTYPE
  5
40F
  2
CONTINUOUS
  70
0
  3
Solid line
  72
65
  73
0
  40
0.0
  0
LTYPE
  5
410
  2
DASHDOT
 70
0
  3
Dash Dot ____ _ ____ _
 72
65
 73
4
 40
2.0
 49
1.25
 49
-0.25
 49
0.25
 49
-0.25
  0
LTYPE
  5
411
  2
DASHED
 70
0
  3
Dashed __ __ __ __ __
 72
65
 73
2
 40
0.75
 49
0.5
 49
-0.25
  0
LTYPE
  5
43B
  2
DOTTED
 70
0
  3
Dotted .  .  .  .
 72
65
 73
2
 40
0.2
 49
0.0
 49
-0.2
  0
ENDTAB
  0
TABLE
  2
STYLE
  70
4
  0
STYLE
  2
KICAD
  70
0
  40
0
  41
1
  42
1
  50
0
  71
0
  3
isocp.shx
  0
STYLE
  2
KICADB
  70
0
  40
0
  41
1
  42
1
  50
0
  71
0
  3
isocp.shx
  0
STYLE
  2
KICADI
  70
0
  40
0
  41
1
  42
1
  50
15
  71
0
  3
isocp.shx
  0
STYLE
  2
KICADBI
  70
0
  40
0
  41
1
  42
1
  50
15
  71
0
  3
isocp.shx
  0
ENDTAB
  0
TABLE
  2
LAYER
  70
1
  0
LAYER
  2
BLACK
  70
0
  62
7
  6
CONTINUOUS
  0
ENDTAB
  0
ENDSEC
  0
SECTION
  2
ENTITIES
0
LINE
8
BLACK
6
CONTINUOUS
10
5.36
20
-3.48
11
6.24
21
-3.48
0
LINE
8
BLACK
6
CONTINUOUS
10
6.24
20
-3.48
11
6.24
21
-4.355
0
LINE
8
BLACK
6
CONTINUOUS
10
6.24
20
-4.355
11
5.36
21
-4.355
0
LINE
8
BLACK
6
CONTINUOUS
10
5.36
20
-4.355
11
5.36
21
-3.48
0
LINE
8
BLACK
6
CONTINUOUS
10
5.74094
20
-3.85811
11
5.85906
21
-3.97622
0
LINE
8
BLACK
6
CONTINUOUS
10
5.85906
20
-3.85811
11
5.74094
21
-3.97622
0
LINE
8
BLACK
6
CONTINUOUS
10
5.45552
20
-4.47251
11
5.45552
21
-4.39377
0
LINE
8
BLACK
6
CONTINUOUS
10
5.45552
20
-4.39377
11
5.47427
21
-4.39377
0
LINE
8
BLACK
6
CONTINUOUS
10
5.47427
20
-4.39377
11
5.48552
21
-4.39752
0
LINE
8
BLACK
6
CONTINUOUS
10
5.48552
20
-4.39752
11
5.49301
21
-4.40502
0
LINE
8
BLACK
6
CONTINUOUS
10
5.49301
20
-4.40502
11
5.49676
21
-4.41252
0
LINE
8
BLACK
6
CONTINUOUS
10
5.49676
20
-4.41252
11
5.50051
21
-4.42752
0
LINE
8
BLACK
6
CONTINUOUS
10
5.50051
20
-4.42752
11
5.50051
21
-4.43876
0
LINE
8
BLACK
6
CONTINUOUS
10
5.50051
20
-4.43876
11
5.49676
21
-4.45376
0
LINE
8
BLACK
6
CONTINUOUS
10
5.49676
20
-4.45376
11
5.49301
21
-4.46126
0
LINE
8
BLACK
6
CONTINUOUS
10
5.49301
20
-4.46126
11
5.48552
21
-4.46876
0
LINE
8
BLACK
6
CONTINUOUS
10
5.48552
20
-4.46876
11
5.47427
21
-4.47251
0
LINE
8
BLACK
6
CONTINUOUS
10
5.47427
20
-4.47251
11
5.45552
21
-4.47251
0
LINE
8
BLACK
6
CONTINUOUS
10
5.53426
20
-4.47251
11
5.53426
21
-4.42002
0
LINE
8
BLACK
6
CONTINUOUS
10
5.53426
20
-4.43501
11
5.53801
21
-4.42752
0
LINE
8
BLACK
6
CONTINUOUS
10
5.53801
20
-4.42752
11
5.54176
21
-4.42377
0
LINE
8
BLACK
6
CONTINUOUS
10
5.54176
20
-4.42377
11
5.54926
21
-4.42002
0
LINE
8
BLACK
6
CONTINUOUS
10
5.54926
20
-4.42002
11
5.55676
21
-4.42002
0
LINE
8
BLACK
6
CONTINUOUS
10
5.583
20
-4.47251
11
5.583
21
-4.42002
0
LINE
8
BLACK
6
CONTINUOUS
10
5.583
20
-4.39377
11
5.57925
21
-4.39752
0
LINE
8
BLACK
6
CONTINUOUS
10
5.57925
20
-4.39752
11
5.583
21
-4.40127
0
LINE
8
BLACK
6
CONTINUOUS
10
5.583
20
-4.40127
11
5.58675
21
-4.39752
0
LINE
8
BLACK
6
CONTINUOUS
10
5.58675
20
-4.39752
11
5.583
21
-4.39377
0
LINE
8
BLACK
6
CONTINUOUS
10
5.583
20
-4.39377
11
5.583
21
-4.40127
0
LINE
8
BLACK
6
CONTINUOUS
10
5.63175
20
-4.47251
11
5.62425
21
-4.46876
0
LINE
8
BLACK
6
CONTINUOUS
10
5.62425
20
-4.46876
11
5.6205
21
-4.46126
0
LINE
8
BLACK
6
CONTINUOUS
10
5.6205
20
-4.46126
11
5.6205
21
-4.39377
0
LINE
8
BLACK
6
CONTINUOUS
10
5.67299
20
-4.47251
11
5.66549
21
-4.46876
0
LINE
8
BLACK
6
CONTINUOUS
10
5.66549
20
-4.46876
11
5.66174
21
-4.46126
0
LINE
8
BLACK
6
CONTINUOUS
10
5.66174
20
-4.46126
11
5.66174
21
-4.39377
0
LINE
8
BLACK
6
CONTINUOUS
10
5.75023
20
-4.47251
11
5.75023
21
-4.39377
0
LINE
8
BLACK
6
CONTINUOUS
10
5.75023
20
-4.39377
11
5.77648
21
-4.45001
0
LINE
8
BLACK
6
CONTINUOUS
10
5.77648
20
-4.45001
11
5.80273
21
-4.39377
0
LINE
8
BLACK
6
CONTINUOUS
10
5.80273
20
-4.39377
11
5.80273
21
-4.47251
0
LINE
8
BLACK
6
CONTINUOUS
10
5.87397
20
-4.47251
11
5.87397
21
-4.43127
0
LINE
8
BLACK
6
CONTINUOUS
10
5.87397
20
-4.43127
11
5.87022
21
-4.42377
0
LINE
8
BLACK
6
CONTINUOUS
10
5.87022
20
-4.42377
11
5.86272
21
-4.42002
0
LINE
8
BLACK
6
CONTINUOUS
10
5.86272
20
-4.42002
11
5.84772
21
-4.42002
0
LINE
8
BLACK
6
CONTINUOUS
10
5.84772
20
-4.42002
11
5.84022
21
-4.42377
0
LINE
8
BLACK
6
CONTINUOUS
10
5.87397
20
-4.46876
11
5.86647
21
-4.47251
0
LINE
8
BLACK
6
CONTINUOUS
10
5.86647
20
-4.47251
11
5.84772
21
-4.47251
0
LINE
8
BLACK
6
CONTINUOUS
10
5.84772
20
-4.47251
11
5.84022
21
-4.46876
0
LINE
8
BLACK
6
CONTINUOUS
10
5.84022
20
-4.46876
11
5.83647
21
-4.46126
0
LINE
8
BLACK
6
CONTINUOUS
10
5.83647
20
-4.46126
11
5.83647
21
-4.45376
0
LINE
8
BLACK
6
CONTINUOUS
10
5.83647
20
-4.45376
11
5.84022
21
-4.44626
0
LINE
8
BLACK
6
CONTINUOUS
10
5.84022
20
-4.44626
11
5.84772
21
-4.44251
0
LINE
8
BLACK
6
CONTINUOUS
10
5.84772
20
-4.44251
11
5.86647
21
-4.44251
0
LINE
8
BLACK
6
CONTINUOUS
10
5.86647
20
-4.44251
11
5.87397
21
-4.43876
0
LINE
8
BLACK
6
CONTINUOUS
10
5.91146
20
-4.42002
11
5.91146
21
-4.49876
0
LINE
8
BLACK
6
CONTINUOUS
10
5.91146
20
-4.42377
11
5.91896
21
-4.42002
0
LINE
8
BLACK
6
CONTINUOUS
10
5.91896
20
-4.42002
11
5.93396
21
-4.42002
0
LINE
8
BLACK
6
CONTINUOUS
10
5.93396
20
-4.42002
11
5.94146
21
-4.42377
0
LINE
8
BLACK
6
CONTINUOUS
10
5.94146
20
-4.42377
11
5.94521
21
-4.42752
0
LINE
8
BLACK
6
CONTINUOUS
10
5.94521
20
-4.42752
11
5.94896
21
-4.43501
0
LINE
8
BLACK
6
CONTINUOUS
10
5.94896
20
-4.43501
11
5.94896
21
-4.45751
0
LINE
8
BLACK
6
CONTINUOUS
10
5.94896
20
-4.45751
11
5.94521
21
-4.46501
0
LINE
8
BLACK
6
CONTINUOUS
10
5.94521
20
-4.46501
11
5.94146
21
-4.46876
0
LINE
8
BLACK
6
CONTINUOUS
10
5.94146
20
-4.46876
11
5.93396
21
-4.47251
0
LINE
8
BLACK
6
CONTINUOUS
10
5.93396
20
-4.47251
11
5.91896
21
-4.47251
0
LINE
8
BLACK
6
CONTINUOUS
10
5.91896
20
-4.47251
11
5.91146
21
-4.46876
0
LINE
8
BLACK
6
CONTINUOUS
10
5.9827
20
-4.46501
11
5.98645
21
-4.46876
0
LINE
8
BLACK
6
CONTINUOUS
10
5.98645
20
-4.46876
11
5.9827
21
-4.47251
0
LINE
8
BLACK
6
CONTINUOUS
10
5.9827
20
-4.47251
11
5.97895
21
-4.46876
0
LINE
8
BLACK
6
CONTINUOUS
10
5.97895
20
-4.46876
11
5.9827
21
-4.46501
0
LINE
8
BLACK
6
CONTINUOUS
10
5.9827
20
-4.46501
11
5.9827
21
-4.47251
0
LINE
8
BLACK
6
CONTINUOUS
10
5.9827
20
-4.42377
11
5.98645
21
-4.42752
0
LINE
8
BLACK
6
CONTINUOUS
10
5.98645
20
-4.42752
11
5.9827
21
-4.43127
0
LINE
8
BLACK
6
CONTINUOUS
10
5.9827
20
-4.43127
11
5.97895
21
-4.42752
0
LINE
8
BLACK
6
CONTINUOUS
10
5.97895
20
-4.42752
11
5.9827
21
-4.42377
0
LINE
8
BLACK
6
CONTINUOUS
10
5.9827
20
-4.42377
11
5.9827
21
-4.43127
0
LINE
8
BLACK
6
CONTINUOUS
10
5.27929
20
-4.56957
11
5.35803
21
-4.64831
0
LINE
8
BLACK
6
CONTINUOUS
10
5.35803
20
-4.56957
11
5.27929
21
-4.64831
0
LINE
8
BLACK
6
CONTINUOUS
10
5.44802
20
-4.55912
11
5.49676
21
-4.55912
0
LINE
8
BLACK
6
CONTINUOUS
10
5.49676
20
-4.55912
11
5.47052
21
-4.58912
0
LINE
8
BLACK
6
CONTINUOUS
10
5.47052
20
-4.58912
11
5.48177
21
-4.58912
0
LINE
8
BLACK
6
CONTINUOUS
10
5.48177
20
-4.58912
11
5.48927
21
-4.59287
0
LINE
8
BLACK
6
CONTINUOUS
10
5.48927
20
-4.59287
11
5.49301
21
-4.59662
0
LINE
8
BLACK
6
CONTINUOUS
10
5.49301
20
-4.59662
11
5.49676
21
-4.60412
0
LINE
8
BLACK
6
CONTINUOUS
10
5.49676
20
-4.60412
11
5.49676
21
-4.62287
0
LINE
8
BLACK
6
CONTINUOUS
10
5.49676
20
-4.62287
11
5.49301
21
-4.63037
0
LINE
8
BLACK
6
CONTINUOUS
10
5.49301
20
-4.63037
11
5.48927
21
-4.63412
0
LINE
8
BLACK
6
CONTINUOUS
10
5.48927
20
-4.63412
11
5.48177
21
-4.63786
0
LINE
8
BLACK
6
CONTINUOUS
10
5.48177
20
-4.63786
11
5.45927
21
-4.63786
0
LINE
8
BLACK
6
CONTINUOUS
10
5.45927
20
-4.63786
11
5.45177
21
-4.63412
0
LINE
8
BLACK
6
CONTINUOUS
10
5.45177
20
-4.63412
11
5.44802
21
-4.63037
0
LINE
8
BLACK
6
CONTINUOUS
10
5.53051
20
-4.63037
11
5.53426
21
-4.63412
0
LINE
8
BLACK
6
CONTINUOUS
10
5.53426
20
-4.63412
11
5.53051
21
-4.63786
0
LINE
8
BLACK
6
CONTINUOUS
10
5.53051
20
-4.63786
11
5.52676
21
-4.63412
0
LINE
8
BLACK
6
CONTINUOUS
10
5.52676
20
-4.63412
11
5.53051
21
-4.63037
0
LINE
8
BLACK
6
CONTINUOUS
10
5.53051
20
-4.63037
11
5.53051
21
-4.63786
0
LINE
8
BLACK
6
CONTINUOUS
10
5.583
20
-4.55912
11
5.5905
21
-4.55912
0
LINE
8
BLACK
6
CONTINUOUS
10
5.5905
20
-4.55912
11
5.598
21
-4.56287
0
LINE
8
BLACK
6
CONTINUOUS
10
5.598
20
-4.56287
11
5.60175
21
-4.56662
0
LINE
8
BLACK
6
CONTINUOUS
10
5.60175
20
-4.56662
11
5.6055
21
-4.57412
0
LINE
8
BLACK
6
CONTINUOUS
10
5.6055
20
-4.57412
11
5.60925
21
-4.58912
0
LINE
8
BLACK
6
CONTINUOUS
10
5.60925
20
-4.58912
11
5.60925
21
-4.60787
0
LINE
8
BLACK
6
CONTINUOUS
10
5.60925
20
-4.60787
11
5.6055
21
-4.62287
0
LINE
8
BLACK
6
CONTINUOUS
10
5.6055
20
-4.62287
11
5.60175
21
-4.63037
0
LINE
8
BLACK
6
CONTINUOUS
10
5.60175
20
-4.63037
11
5.598
21
-4.63412
0
LINE
8
BLACK
6
CONTINUOUS
10
5.598
20
-4.63412
11
5.5905
21
-4.63786
0
LINE
8
BLACK
6
CONTINUOUS
10
5.5905
20
-4.63786
11
5.583
21
-4.63786
0
LINE
8
BLACK
6
CONTINUOUS
10
5.583
20
-4.63786
11
5.5755
21
-4.63412
0
LINE
8
BLACK
6
CONTINUOUS
10
5.5755
20
-4.63412
11
5.57175
21
-4.63037
0
LINE
8
BLACK
6
CONTINUOUS
10
5.57175
20
-4.63037
11
5.56801
21
-4.62287
0
LINE
8
BLACK
6
CONTINUOUS
10
5.56801
20
-4.62287
11
5.56426
21
-4.60787
0
LINE
8
BLACK
6
CONTINUOUS
10
5.56426
20
-4.60787
11
5.56426
21
-4.58912
0
LINE
8
BLACK
6
CONTINUOUS
10
5.56426
20
-4.58912
11
5.56801
21
-4.57412
0
LINE
8
BLACK
6
CONTINUOUS
10
5.56801
20
-4.57412
11
5.57175
21
-4.56662
0
LINE
8
BLACK
6
CONTINUOUS
10
5.57175
20
-4.56662
11
5.5755
21
-4.56287
0
LINE
8
BLACK
6
CONTINUOUS
10
5.5755
20
-4.56287
11
5.583
21
-4.55912
0
LINE
8
BLACK
6
CONTINUOUS
10
5.65799
20
-4.55912
11
5.66549
21
-4.55912
0
LINE
8
BLACK
6
CONTINUOUS
10
5.66549
20
-4.55912
11
5.67299
21
-4.56287
0
LINE
8
BLACK
6
CONTINUOUS
10
5.67299
20
-4.56287
11
5.67674
21
-4.56662
0
LINE
8
BLACK
6
CONTINUOUS
10
5.67674
20
-4.56662
11
5.68049
21
-4.57412
0
LINE
8
BLACK
6
CONTINUOUS
10
5.68049
20
-4.57412
11
5.68424
21
-4.58912
0
LINE
8
BLACK
6
CONTINUOUS
10
5.68424
20
-4.58912
11
5.68424
21
-4.60787
0
LINE
8
BLACK
6
CONTINUOUS
10
5.68424
20
-4.60787
11
5.68049
21
-4.62287
0
LINE
8
BLACK
6
CONTINUOUS
10
5.68049
20
-4.62287
11
5.67674
21
-4.63037
0
LINE
8
BLACK
6
CONTINUOUS
10
5.67674
20
-4.63037
11
5.67299
21
-4.63412
0
LINE
8
BLACK
6
CONTINUOUS
10
5.67299
20
-4.63412
11
5.66549
21
-4.63786
0
LINE
8
BLACK
6
CONTINUOUS
10
5.66549
20
-4.63786
11
5.65799
21
-4.63786
0
LINE
8
BLACK
6
CONTINUOUS
10
5.65799
20
-4.63786
11
5.65049
21
-4.63412
0
LINE
8
BLACK
6
CONTINUOUS
10
5.65049
20
-4.63412
11
5.64675
21
-4.63037
0
LINE
8
BLACK
6
CONTINUOUS
10
5.64675
20
-4.63037
11
5.643
21
-4.62287
0
LINE
8
BLACK
6
CONTINUOUS
10
5.643
20
-4.62287
11
5.63925
21
-4.60787
0
LINE
8
BLACK
6
CONTINUOUS
10
5.63925
20
-4.60787
11
5.63925
21
-4.58912
0
LINE
8
BLACK
6
CONTINUOUS
10
5.63925
20
-4.58912
11
5.643
21
-4.57412
0
LINE
8
BLACK
6
CONTINUOUS
10
5.643
20
-4.57412
11
5.64675
21
-4.56662
0
LINE
8
BLACK
6
CONTINUOUS
10
5.64675
20
-4.56662
11
5.65049
21
-4.56287
0
LINE
8
BLACK
6
CONTINUOUS
10
5.65049
20
-4.56287
11
5.65799
21
-4.55912
0
LINE
8
BLACK
6
CONTINUOUS
10
5.73298
20
-4.55912
11
5.74048
21
-4.55912
0
LINE
8
BLACK
6
CONTINUOUS
10
5.74048
20
-4.55912
11
5.74798
21
-4.56287
0
LINE
8
BLACK
6
CONTINUOUS
10
5.74798
20
-4.56287
11
5.75173
21
-4.56662
0
LINE
8
BLACK
6
CONTINUOUS
10
5.75173
20
-4.56662
11
5.75548
21
-4.57412
0
LINE
8
BLACK
6
CONTINUOUS
10
5.75548
20
-4.57412
11
5.75923
21
-4.58912
0
LINE
8
BLACK
6
CONTINUOUS
10
5.75923
20
-4.58912
11
5.75923
21
-4.60787
0
LINE
8
BLACK
6
CONTINUOUS
10
5.75923
20
-4.60787
11
5.75548
21
-4.62287
0
LINE
8
BLACK
6
CONTINUOUS
10
5.75548
20
-4.62287
11
5.75173
21
-4.63037
0
LINE
8
BLACK
6
CONTINUOUS
10
5.75173
20
-4.63037
11
5.74798
21
-4.63412
0
LINE
8
BLACK
6
CONTINUOUS
10
5.74798
20
-4.63412
11
5.74048
21
-4.63786
0
LINE
8
BLACK
6
CONTINUOUS
10
5.74048
20
-4.63786
11
5.73298
21
-4.63786
0
LINE
8
BLACK
6
CONTINUOUS
10
5.73298
20
-4.63786
11
5.72549
21
-4.63412
0
LINE
8
BLACK
6
CONTINUOUS
10
5.72549
20
-4.63412
11
5.72174
21
-4.63037
0
LINE
8
BLACK
6
CONTINUOUS
10
5.72174
20
-4.63037
11
5.71799
21
-4.62287
0
LINE
8
BLACK
6
CONTINUOUS
10
5.71799
20
-4.62287
11
5.71424
21
-4.60787
0
LINE
8
BLACK
6
CONTINUOUS
10
5.71424
20
-4.60787
11
5.71424
21
-4.58912
0
LINE
8
BLACK
6
CONTINUOUS
10
5.71424
20
-4.58912
11
5.71799
21
-4.57412
0
LINE
8
BLACK
6
CONTINUOUS
10
5.71799
20
-4.57412
11
5.72174
21
-4.56662
0
LINE
8
BLACK
6
CONTINUOUS
10
5.72174
20
-4.56662
11
5.72549
21
-4.56287
0
LINE
8
BLACK
6
CONTINUOUS
10
5.72549
20
-4.56287
11
5.73298
21
-4.55912
0
LINE
8
BLACK
6
CONTINUOUS
10
5.79298
20
-4.63786
11
5.79298
21
-4.58537
0
LINE
8
BLACK
6
CONTINUOUS
10
5.79298
20
-4.59287
11
5.79673
21
-4.58912
0
LINE
8
BLACK
6
CONTINUOUS
10
5.79673
20
-4.58912
11
5.80423
21
-4.58537
0
LINE
8
BLACK
6
CONTINUOUS
10
5.80423
20
-4.58537
11
5.81547
21
-4.58537
0
LINE
8
BLACK
6
CONTINUOUS
10
5.81547
20
-4.58537
11
5.82297
21
-4.58912
0
LINE
8
BLACK
6
CONTINUOUS
10
5.82297
20
-4.58912
11
5.82672
21
-4.59662
0
LINE
8
BLACK
6
CONTINUOUS
10
5.82672
20
-4.59662
11
5.82672
21
-4.63786
0
LINE
8
BLACK
6
CONTINUOUS
10
5.82672
20
-4.59662
11
5.83047
21
-4.58912
0
LINE
8
BLACK
6
CONTINUOUS
10
5.83047
20
-4.58912
11
5.83797
21
-4.58537
0
LINE
8
BLACK
6
CONTINUOUS
10
5.83797
20
-4.58537
11
5.84922
21
-4.58537
0
LINE
8
BLACK
6
CONTINUOUS
10
5.84922
20
-4.58537
11
5.85672
21
-4.58912
0
LINE
8
BLACK
6
CONTINUOUS
10
5.85672
20
-4.58912
11
5.86047
21
-4.59662
0
LINE
8
BLACK
6
CONTINUOUS
10
5.86047
20
-4.59662
11
5.86047
21
-4.63786
0
LINE
8
BLACK
6
CONTINUOUS
10
5.89796
20
-4.63786
11
5.89796
21
-4.58537
0
LINE
8
BLACK
6
CONTINUOUS
10
5.89796
20
-4.59287
11
5.90171
21
-4.58912
0
LINE
8
BLACK
6
CONTINUOUS
10
5.90171
20
-4.58912
11
5.90921
21
-4.58537
0
LINE
8
BLACK
6
CONTINUOUS
10
5.90921
20
-4.58537
11
5.92046
21
-4.58537
0
LINE
8
BLACK
6
CONTINUOUS
10
5.92046
20
-4.58537
11
5.92796
21
-4.58912
0
LINE
8
BLACK
6
CONTINUOUS
10
5.92796
20
-4.58912
11
5.93171
21
-4.59662
0
LINE
8
BLACK
6
CONTINUOUS
10
5.93171
20
-4.59662
11
5.93171
21
-4.63786
0
LINE
8
BLACK
6
CONTINUOUS
10
5.93171
20
-4.59662
11
5.93546
21
-4.58912
0
LINE
8
BLACK
6
CONTINUOUS
10
5.93546
20
-4.58912
11
5.94296
21
-4.58537
0
LINE
8
BLACK
6
CONTINUOUS
10
5.94296
20
-4.58537
11
5.95421
21
-4.58537
0
LINE
8
BLACK
6
CONTINUOUS
10
5.95421
20
-4.58537
11
5.96171
21
-4.58912
0
LINE
8
BLACK
6
CONTINUOUS
10
5.96171
20
-4.58912
11
5.96546
21
-4.59662
0
LINE
8
BLACK
6
CONTINUOUS
10
5.96546
20
-4.59662
11
5.96546
21
-4.63786
0
LINE
8
BLACK
6
CONTINUOUS
10
6.10644
20
-4.55537
11
6.03895
21
-4.65661
0
LINE
8
BLACK
6
CONTINUOUS
10
6.19493
20
-4.55912
11
6.20243
21
-4.55912
0
LINE
8
BLACK
6
CONTINUOUS
10
6.20243
20
-4.55912
11
6.20993
21
-4.56287
0
LINE
8
BLACK
6
CONTINUOUS
10
6.20993
20
-4.56287
11
6.21367
21
-4.56662
0
LINE
8
BLACK
6
CONTINUOUS
10
6.21367
20
-4.56662
11
6.21742
21
-4.57412
0
LINE
8
BLACK
6
CONTINUOUS
10
6.21742
20
-4.57412
11
6.22117
21
-4.58912
0
LINE
8
BLACK
6
CONTINUOUS
10
6.22117
20
-4.58912
11
6.22117
21
-4.60787
0
LINE
8
BLACK
6
CONTINUOUS
10
6.22117
20
-4.60787
11
6.21742
21
-4.62287
0
LINE
8
BLACK
6
CONTINUOUS
10
6.21742
20
-4.62287
11
6.21367
21
-4.63037
0
LINE
8
BLACK
6
CONTINUOUS
10
6.21367
20
-4.63037
11
6.20993
21
-4.63412
0
LINE
8
BLACK
6
CONTINUOUS
10
6.20993
20
-4.63412
11
6.20243
21
-4.63786
0
LINE
8
BLACK
6
CONTINUOUS
10
6.20243
20
-4.63786
11
6.19493
21
-4.63786
0
LINE
8
BLACK
6
CONTINUOUS
10
6.19493
20
-4.63786
11
6.18743
21
-4.63412
0
LINE
8
BLACK
6
CONTINUOUS
10
6.18743
20
-4.63412
11
6.18368
21
-4.63037
0
LINE
8
BLACK
6
CONTINUOUS
10
6.18368
20
-4.63037
11
6.17993
21
-4.62287
0
LINE
8
BLACK
6
CONTINUOUS
10
6.17993
20
-4.62287
11
6.17618
21
-4.60787
0
LINE
8
BLACK
6
CONTINUOUS
10
6.17618
20
-4.60787
11
6.17618
21
-4.58912
0
LINE
8
BLACK
6
CONTINUOUS
10
6.17618
20
-4.58912
11
6.17993
21
-4.57412
0
LINE
8
BLACK
6
CONTINUOUS
10
6.17993
20
-4.57412
11
6.18368
21
-4.56662
0
LINE
8
BLACK
6
CONTINUOUS
10
6.18368
20
-4.56662
11
6.18743
21
-4.56287
0
LINE
8
BLACK
6
CONTINUOUS
10
6.18743
20
-4.56287
11
6.19493
21
-4.55912
0
LINE
8
BLACK
6
CONTINUOUS
10
6.25492
20
-4.63037
11
6.25867
21
-4.63412
0
LINE
8
BLACK
6
CONTINUOUS
10
6.25867
20
-4.63412
11
6.25492
21
-4.63786
0
LINE
8
BLACK
6
CONTINUOUS
10
6.25492
20
-4.63786
11
6.25117
21
-4.63412
0
LINE
8
BLACK
6
CONTINUOUS
10
6.25117
20
-4.63412
11
6.25492
21
-4.63037
0
LINE
8
BLACK
6
CONTINUOUS
10
6.25492
20
-4.63037
11
6.25492
21
-4.63786
0
LINE
8
BLACK
6
CONTINUOUS
10
6.33366
20
-4.63786
11
6.28867
21
-4.63786
0
LINE
8
BLACK
6
CONTINUOUS
10
6.31116
20
-4.63786
11
6.31116
21
-4.55912
0
LINE
8
BLACK
6
CONTINUOUS
10
6.31116
20
-4.55912
11
6.30366
21
-4.57037
0
LINE
8
BLACK
6
CONTINUOUS
10
6.30366
20
-4.57037
11
6.29616
21
-4.57787
0
LINE
8
BLACK
6
CONTINUOUS
10
6.29616
20
-4.57787
11
6.28867
21
-4.58162
0
LINE
8
BLACK
6
CONTINUOUS
10
6.40865
20
-4.63786
11
6.36366
21
-4.63786
0
LINE
8
BLACK
6
CONTINUOUS
10
6.38615
20
-4.63786
11
6.38615
21
-4.55912
0
LINE
8
BLACK
6
CONTINUOUS
10
6.38615
20
-4.55912
11
6.37865
21
-4.57037
0
LINE
8
BLACK
6
CONTINUOUS
10
6.37865
20
-4.57037
11
6.37115
21
-4.57787
0
LINE
8
BLACK
6
CONTINUOUS
10
6.37115
20
-4.57787
11
6.36366
21
-4.58162
0
LINE
8
BLACK
6
CONTINUOUS
10
6.45364
20
-4.59287
11
6.44615
21
-4.58912
0
LINE
8
BLACK
6
CONTINUOUS
10
6.44615
20
-4.58912
11
6.4424
21
-4.58537
0
LINE
8
BLACK
6
CONTINUOUS
10
6.4424
20
-4.58537
11
6.43865
21
-4.57787
0
LINE
8
BLACK
6
CONTINUOUS
10
6.43865
20
-4.57787
11
6.43865
21
-4.57412
0
LINE
8
BLACK
6
CONTINUOUS
10
6.43865
20
-4.57412
11
6.4424
21
-4.56662
0
LINE
8
BLACK
6
CONTINUOUS
10
6.4424
20
-4.56662
11
6.44615
21
-4.56287
0
LINE
8
BLACK
6
CONTINUOUS
10
6.44615
20
-4.56287
11
6.45364
21
-4.55912
0
LINE
8
BLACK
6
CONTINUOUS
10
6.45364
20
-4.55912
11
6.46864
21
-4.55912
0
LINE
8
BLACK
6
CONTINUOUS
10
6.46864
20
-4.55912
11
6.47614
21
-4.56287
0
LINE
8
BLACK
6
CONTINUOUS
10
6.47614
20
-4.56287
11
6.47989
21
-4.56662
0
LINE
8
BLACK
6
CONTINUOUS
10
6.47989
20
-4.56662
11
6.48364
21
-4.57412
0
LINE
8
BLACK
6
CONTINUOUS
10
6.48364
20
-4.57412
11
6.48364
21
-4.57787
0
LINE
8
BLACK
6
CONTINUOUS
10
6.48364
20
-4.57787
11
6.47989
21
-4.58537
0
LINE
8
BLACK
6
CONTINUOUS
10
6.47989
20
-4.58537
11
6.47614
21
-4.58912
0
LINE
8
BLACK
6
CONTINUOUS
10
6.47614
20
-4.58912
11
6.46864
21
-4.59287
0
LINE
8
BLACK
6
CONTINUOUS
10
6.46864
20
-4.59287
11
6.45364
21
-4.59287
0
LINE
8
BLACK
6
CONTINUOUS
10
6.45364
20
-4.59287
11
6.44615
21
-4.59662
0
LINE
8
BLACK
6
CONTINUOUS
10
6.44615
20
-4.59662
11
6.4424
21
-4.60037
0
LINE
8
BLACK
6
CONTINUOUS
10
6.4424
20
-4.60037
11
6.43865
21
-4.60787
0
LINE
8
BLACK
6
CONTINUOUS
10
6.43865
20
-4.60787
11
6.43865
21
-4.62287
0
LINE
8
BLACK
6
CONTINUOUS
10
6.43865
20
-4.62287
11
6.4424
21
-4.63037
0
LINE
8
BLACK
6
CONTINUOUS
10
6.4424
20
-4.63037
11
6.44615
21
-4.63412
0
LINE
8
BLACK
6
CONTINUOUS
10
6.44615
20
-4.63412
11
6.45364
21
-4.63786
0
LINE
8
BLACK
6
CONTINUOUS
10
6.45364
20
-4.63786
11
6.46864
21
-4.63786
0
LINE
8
BLACK
6
CONTINUOUS
10
6.46864
20
-4.63786
11
6.47614
21
-4.63412
0
LINE
8
BLACK
6
CONTINUOUS
10
6.47614
20
-4.63412
11
6.47989
21
-4.63037
0
LINE
8
BLACK
6
CONTINUOUS
10
6.47989
20
-4.63037
11
6.48364
21
-4.62287
0
LINE
8
BLACK
6
CONTINUOUS
10
6.48364
20
-4.62287
11
6.48364
21
-4.60787
0
LINE
8
BLACK
6
CONTINUOUS
10
6.48364
20
-4.60787
11
6.47989
21
-4.60037
0
LINE
8
BLACK
6
CONTINUOUS
10
6.47989
20
-4.60037
11
6.47614
21
-4.59662
0
LINE
8
BLACK
6
CONTINUOUS
10
6.47614
20
-4.59662
11
6.46864
21
-4.59287
0
LINE
8
BLACK
6
CONTINUOUS
10
6.55863
20
-4.63786
11
6.51364
21
-4.63786
0
LINE
8
BLACK
6
CONTINUOUS
10
6.53613
20
-4.63786
11
6.53613
21
-4.55912
0
LINE
8
BLACK
6
CONTINUOUS
10
6.53613
20
-4.55912
11
6.52864
21
-4.57037
0
LINE
8
BLACK
6
CONTINUOUS
10
6.52864
20
-4.57037
11
6.52114
21
-4.57787
0
LINE
8
BLACK
6
CONTINUOUS
10
6.52114
20
-4.57787
11
6.51364
21
-4.58162
0
LINE
8
BLACK
6
CONTINUOUS
10
6.58863
20
-4.55912
11
6.58863
21
-4.57412
0
LINE
8
BLACK
6
CONTINUOUS
10
6.61862
20
-4.55912
11
6.61862
21
-4.57412
0
LINE
8
BLACK
6
CONTINUOUS
10
6.72211
20
-4.66786
11
6.71836
21
-4.66411
0
LINE
8
BLACK
6
CONTINUOUS
10
6.71836
20
-4.66411
11
6.71086
21
-4.65286
0
LINE
8
BLACK
6
CONTINUOUS
10
6.71086
20
-4.65286
11
6.70711
21
-4.64536
0
LINE
8
BLACK
6
CONTINUOUS
10
6.70711
20
-4.64536
11
6.70336
21
-4.63412
0
LINE
8
BLACK
6
CONTINUOUS
10
6.70336
20
-4.63412
11
6.69961
21
-4.61537
0
LINE
8
BLACK
6
CONTINUOUS
10
6.69961
20
-4.61537
11
6.69961
21
-4.60037
0
LINE
8
BLACK
6
CONTINUOUS
10
6.69961
20
-4.60037
11
6.70336
21
-4.58162
0
LINE
8
BLACK
6
CONTINUOUS
10
6.70336
20
-4.58162
11
6.70711
21
-4.57037
0
LINE
8
BLACK
6
CONTINUOUS
10
6.70711
20
-4.57037
11
6.71086
21
-4.56287
0
LINE
8
BLACK
6
CONTINUOUS
10
6.71086
20
-4.56287
11
6.71836
21
-4.55163
0
LINE
8
BLACK
6
CONTINUOUS
10
6.71836
20
-4.55163
11
6.72211
21
-4.54788
0
LINE
8
BLACK
6
CONTINUOUS
10
6.79335
20
-4.63786
11
6.74836
21
-4.63786
0
LINE
8
BLACK
6
CONTINUOUS
10
6.77085
20
-4.63786
11
6.77085
21
-4.55912
0
LINE
8
BLACK
6
CONTINUOUS
10
6.77085
20
-4.55912
11
6.76336
21
-4.57037
0
LINE
8
BLACK
6
CONTINUOUS
10
6.76336
20
-4.57037
11
6.75586
21
-4.57787
0
LINE
8
BLACK
6
CONTINUOUS
10
6.75586
20
-4.57787
11
6.74836
21
-4.58162
0
LINE
8
BLACK
6
CONTINUOUS
10
6.87434
20
-4.63786
11
6.87434
21
-4.55912
0
LINE
8
BLACK
6
CONTINUOUS
10
6.90809
20
-4.63786
11
6.90809
21
-4.59662
0
LINE
8
BLACK
6
CONTINUOUS
10
6.90809
20
-4.59662
11
6.90434
21
-4.58912
0
LINE
8
BLACK
6
CONTINUOUS
10
6.90434
20
-4.58912
11
6.89684
21
-4.58537
0
LINE
8
BLACK
6
CONTINUOUS
10
6.89684
20
-4.58537
11
6.88559
21
-4.58537
0
LINE
8
BLACK
6
CONTINUOUS
10
6.88559
20
-4.58537
11
6.87809
21
-4.58912
0
LINE
8
BLACK
6
CONTINUOUS
10
6.87809
20
-4.58912
11
6.87434
21
-4.59287
0
LINE
8
BLACK
6
CONTINUOUS
10
6.95683
20
-4.63786
11
6.94933
21
-4.63412
0
LINE
8
BLACK
6
CONTINUOUS
10
6.94933
20
-4.63412
11
6.94558
21
-4.63037
0
LINE
8
BLACK
6
CONTINUOUS
10
6.94558
20
-4.63037
11
6.94183
21
-4.62287
0
LINE
8
BLACK
6
CONTINUOUS
10
6.94183
20
-4.62287
11
6.94183
21
-4.60037
0
LINE
8
BLACK
6
CONTINUOUS
10
6.94183
20
-4.60037
11
6.94558
21
-4.59287
0
LINE
8
BLACK
6
CONTINUOUS
10
6.94558
20
-4.59287
11
6.94933
21
-4.58912
0
LINE
8
BLACK
6
CONTINUOUS
10
6.94933
20
-4.58912
11
6.95683
21
-4.58537
0
LINE
8
BLACK
6
CONTINUOUS
10
6.95683
20
-4.58537
11
6.96808
21
-4.58537
0
LINE
8
BLACK
6
CONTINUOUS
10
6.96808
20
-4.58537
11
6.97558
21
-4.58912
0
LINE
8
BLACK
6
CONTINUOUS
10
6.97558
20
-4.58912
11
6.97933
21
-4.59287
0
LINE
8
BLACK
6
CONTINUOUS
10
6.97933
20
-4.59287
11
6.98308
21
-4.60037
0
LINE
8
BLACK
6
CONTINUOUS
10
6.98308
20
-4.60037
11
6.98308
21
-4.62287
0
LINE
8
BLACK
6
CONTINUOUS
10
6.98308
20
-4.62287
11
6.97933
21
-4.63037
0
LINE
8
BLACK
6
CONTINUOUS
10
6.97933
20
-4.63037
11
6.97558
21
-4.63412
0
LINE
8
BLACK
6
CONTINUOUS
10
6.97558
20
-4.63412
11
6.96808
21
-4.63786
0
LINE
8
BLACK
6
CONTINUOUS
10
6.96808
20
-4.63786
11
6.95683
21
-4.63786
0
LINE
8
BLACK
6
CONTINUOUS
10
7.02807
20
-4.63786
11
7.02057
21
-4.63412
0
LINE
8
BLACK
6
CONTINUOUS
10
7.02057
20
-4.63412
11
7.01682
21
-4.62662
0
LINE
8
BLACK
6
CONTINUOUS
10
7.01682
20
-4.62662
11
7.01682
21
-4.55912
0
LINE
8
BLACK
6
CONTINUOUS
10
7.08807
20
-4.63412
11
7.08057
21
-4.63786
0
LINE
8
BLACK
6
CONTINUOUS
10
7.08057
20
-4.63786
11
7.06557
21
-4.63786
0
LINE
8
BLACK
6
CONTINUOUS
10
7.06557
20
-4.63786
11
7.05807
21
-4.63412
0
LINE
8
BLACK
6
CONTINUOUS
10
7.05807
20
-4.63412
11
7.05432
21
-4.62662
0
LINE
8
BLACK
6
CONTINUOUS
10
7.05432
20
-4.62662
11
7.05432
21
-4.59662
0
LINE
8
BLACK
6
CONTINUOUS
10
7.05432
20
-4.59662
11
7.05807
21
-4.58912
0
LINE
8
BLACK
6
CONTINUOUS
10
7.05807
20
-4.58912
11
7.06557
21
-4.58537
0
LINE
8
BLACK
6
CONTINUOUS
10
7.06557
20
-4.58537
11
7.08057
21
-4.58537
0
LINE
8
BLACK
6
CONTINUOUS
10
7.08057
20
-4.58537
11
7.08807
21
-4.58912
0
LINE
8
BLACK
6
CONTINUOUS
10
7.08807
20
-4.58912
11
7.09181
21
-4.59662
0
LINE
8
BLACK
6
CONTINUOUS
10
7.09181
20
-4.59662
11
7.09181
21
-4.60412
0
LINE
8
BLACK
6
CONTINUOUS
10
7.09181
20
-4.60412
11
7.05432
21
-4.61162
0
LINE
8
BLACK
6
CONTINUOUS
10
7.11806
20
-4.66786
11
7.12181
21
-4.66411
0
LINE
8
BLACK
6
CONTINUOUS
10
7.12181
20
-4.66411
11
7.12931
21
-4.65286
0
LINE
8
BLACK
6
CONTINUOUS
10
7.12931
20
-4.65286
11
7.13306
21
-4.64536
0
LINE
8
BLACK
6
CONTINUOUS
10
7.13306
20
-4.64536
11
7.13681
21
-4.63412
0
LINE
8
BLACK
6
CONTINUOUS
10
7.13681
20
-4.63412
11
7.14056
21
-4.61537
0
LINE
8
BLACK
6
CONTINUOUS
10
7.14056
20
-4.61537
11
7.14056
21
-4.60037
0
LINE
8
BLACK
6
CONTINUOUS
10
7.14056
20
-4.60037
11
7.13681
21
-4.58162
0
LINE
8
BLACK
6
CONTINUOUS
10
7.13681
20
-4.58162
11
7.13306
21
-4.57037
0
LINE
8
BLACK
6
CONTINUOUS
10
7.13306
20
-4.57037
11
7.12931
21
-4.56287
0
LINE
8
BLACK
6
CONTINUOUS
10
7.12931
20
-4.56287
11
7.12181
21
-4.55163
0
LINE
8
BLACK
6
CONTINUOUS
10
7.12181
20
-4.55163
11
7.11806
21
-4.54788
0
LINE
8
BLACK
6
CONTINUOUS
10
7.2478
20
-4.66786
11
7.24405
21
-4.66411
0
LINE
8
BLACK
6
CONTINUOUS
10
7.24405
20
-4.66411
11
7.23655
21
-4.65286
0
LINE
8
BLACK
6
CONTINUOUS
10
7.23655
20
-4.65286
11
7.2328
21
-4.64536
0
LINE
8
BLACK
6
CONTINUOUS
10
7.2328
20
-4.64536
11
7.22905
21
-4.63412
0
LINE
8
BLACK
6
CONTINUOUS
10
7.22905
20
-4.63412
11
7.2253
21
-4.61537
0
LINE
8
BLACK
6
CONTINUOUS
10
7.2253
20
-4.61537
11
7.2253
21
-4.60037
0
LINE
8
BLACK
6
CONTINUOUS
10
7.2253
20
-4.60037
11
7.22905
21
-4.58162
0
LINE
8
BLACK
6
CONTINUOUS
10
7.22905
20
-4.58162
11
7.2328
21
-4.57037
0
LINE
8
BLACK
6
CONTINUOUS
10
7.2328
20
-4.57037
11
7.23655
21
-4.56287
0
LINE
8
BLACK
6
CONTINUOUS
10
7.23655
20
-4.56287
11
7.24405
21
-4.55163
0
LINE
8
BLACK
6
CONTINUOUS
10
7.24405
20
-4.55163
11
7.2478
21
-4.54788
0
LINE
8
BLACK
6
CONTINUOUS
10
7.27779
20
-4.58537
11
7.27779
21
-4.63786
0
LINE
8
BLACK
6
CONTINUOUS
10
7.27779
20
-4.59287
11
7.28154
21
-4.58912
0
LINE
8
BLACK
6
CONTINUOUS
10
7.28154
20
-4.58912
11
7.28904
21
-4.58537
0
LINE
8
BLACK
6
CONTINUOUS
10
7.28904
20
-4.58537
11
7.30029
21
-4.58537
0
LINE
8
BLACK
6
CONTINUOUS
10
7.30029
20
-4.58537
11
7.30779
21
-4.58912
0
LINE
8
BLACK
6
CONTINUOUS
10
7.30779
20
-4.58912
11
7.31154
21
-4.59662
0
LINE
8
BLACK
6
CONTINUOUS
10
7.31154
20
-4.59662
11
7.31154
21
-4.63786
0
LINE
8
BLACK
6
CONTINUOUS
10
7.36028
20
-4.63786
11
7.35278
21
-4.63412
0
LINE
8
BLACK
6
CONTINUOUS
10
7.35278
20
-4.63412
11
7.34903
21
-4.63037
0
LINE
8
BLACK
6
CONTINUOUS
10
7.34903
20
-4.63037
11
7.34528
21
-4.62287
0
LINE
8
BLACK
6
CONTINUOUS
10
7.34528
20
-4.62287
11
7.34528
21
-4.60037
0
LINE
8
BLACK
6
CONTINUOUS
10
7.34528
20
-4.60037
11
7.34903
21
-4.59287
0
LINE
8
BLACK
6
CONTINUOUS
10
7.34903
20
-4.59287
11
7.35278
21
-4.58912
0
LINE
8
BLACK
6
CONTINUOUS
10
7.35278
20
-4.58912
11
7.36028
21
-4.58537
0
LINE
8
BLACK
6
CONTINUOUS
10
7.36028
20
-4.58537
11
7.37153
21
-4.58537
0
LINE
8
BLACK
6
CONTINUOUS
10
7.37153
20
-4.58537
11
7.37903
21
-4.58912
0
LINE
8
BLACK
6
CONTINUOUS
10
7.37903
20
-4.58912
11
7.38278
21
-4.59287
0
LINE
8
BLACK
6
CONTINUOUS
10
7.38278
20
-4.59287
11
7.38653
21
-4.60037
0
LINE
8
BLACK
6
CONTINUOUS
10
7.38653
20
-4.60037
11
7.38653
21
-4.62287
0
LINE
8
BLACK
6
CONTINUOUS
10
7.38653
20
-4.62287
11
7.38278
21
-4.63037
0
LINE
8
BLACK
6
CONTINUOUS
10
7.38278
20
-4.63037
11
7.37903
21
-4.63412
0
LINE
8
BLACK
6
CONTINUOUS
10
7.37903
20
-4.63412
11
7.37153
21
-4.63786
0
LINE
8
BLACK
6
CONTINUOUS
10
7.37153
20
-4.63786
11
7.36028
21
-4.63786
0
LINE
8
BLACK
6
CONTINUOUS
10
7.40903
20
-4.58537
11
7.43902
21
-4.58537
0
LINE
8
BLACK
6
CONTINUOUS
10
7.42027
20
-4.55912
11
7.42027
21
-4.62662
0
LINE
8
BLACK
6
CONTINUOUS
10
7.42027
20
-4.62662
11
7.42402
21
-4.63412
0
LINE
8
BLACK
6
CONTINUOUS
10
7.42402
20
-4.63412
11
7.43152
21
-4.63786
0
LINE
8
BLACK
6
CONTINUOUS
10
7.43152
20
-4.63786
11
7.43902
21
-4.63786
0
LINE
8
BLACK
6
CONTINUOUS
10
7.51251
20
-4.58537
11
7.51251
21
-4.66411
0
LINE
8
BLACK
6
CONTINUOUS
10
7.51251
20
-4.58912
11
7.52001
21
-4.58537
0
LINE
8
BLACK
6
CONTINUOUS
10
7.52001
20
-4.58537
11
7.53501
21
-4.58537
0
LINE
8
BLACK
6
CONTINUOUS
10
7.53501
20
-4.58537
11
7.54251
21
-4.58912
0
LINE
8
BLACK
6
CONTINUOUS
10
7.54251
20
-4.58912
11
7.54626
21
-4.59287
0
LINE
8
BLACK
6
CONTINUOUS
10
7.54626
20
-4.59287
11
7.55001
21
-4.60037
0
LINE
8
BLACK
6
CONTINUOUS
10
7.55001
20
-4.60037
11
7.55001
21
-4.62287
0
LINE
8
BLACK
6
CONTINUOUS
10
7.55001
20
-4.62287
11
7.54626
21
-4.63037
0
LINE
8
BLACK
6
CONTINUOUS
10
7.54626
20
-4.63037
11
7.54251
21
-4.63412
0
LINE
8
BLACK
6
CONTINUOUS
10
7.54251
20
-4.63412
11
7.53501
21
-4.63786
0
LINE
8
BLACK
6
CONTINUOUS
10
7.53501
20
-4.63786
11
7.52001
21
-4.63786
0
LINE
8
BLACK
6
CONTINUOUS
10
7.52001
20
-4.63786
11
7.51251
21
-4.63412
0
LINE
8
BLACK
6
CONTINUOUS
10
7.595
20
-4.63786
11
7.5875
21
-4.63412
0
LINE
8
BLACK
6
CONTINUOUS
10
7.5875
20
-4.63412
11
7.58375
21
-4.62662
0
LINE
8
BLACK
6
CONTINUOUS
10
7.58375
20
-4.62662
11
7.58375
21
-4.55912
0
LINE
8
BLACK
6
CONTINUOUS
10
7.65874
20
-4.63786
11
7.65874
21
-4.59662
0
LINE
8
BLACK
6
CONTINUOUS
10
7.65874
20
-4.59662
11
7.65499
21
-4.58912
0
LINE
8
BLACK
6
CONTINUOUS
10
7.65499
20
-4.58912
11
7.6475
21
-4.58537
0
LINE
8
BLACK
6
CONTINUOUS
10
7.6475
20
-4.58537
11
7.6325
21
-4.58537
0
LINE
8
BLACK
6
CONTINUOUS
10
7.6325
20
-4.58537
11
7.625
21
-4.58912
0
LINE
8
BLACK
6
CONTINUOUS
10
7.65874
20
-4.63412
11
7.65124
21
-4.63786
0
LINE
8
BLACK
6
CONTINUOUS
10
7.65124
20
-4.63786
11
7.6325
21
-4.63786
0
LINE
8
BLACK
6
CONTINUOUS
10
7.6325
20
-4.63786
11
7.625
21
-4.63412
0
LINE
8
BLACK
6
CONTINUOUS
10
7.625
20
-4.63412
11
7.62125
21
-4.62662
0
LINE
8
BLACK
6
CONTINUOUS
10
7.62125
20
-4.62662
11
7.62125
21
-4.61912
0
LINE
8
BLACK
6
CONTINUOUS
10
7.62125
20
-4.61912
11
7.625
21
-4.61162
0
LINE
8
BLACK
6
CONTINUOUS
10
7.625
20
-4.61162
11
7.6325
21
-4.60787
0
LINE
8
BLACK
6
CONTINUOUS
10
7.6325
20
-4.60787
11
7.65124
21
-4.60787
0
LINE
8
BLACK
6
CONTINUOUS
10
7.65124
20
-4.60787
11
7.65874
21
-4.60412
0
LINE
8
BLACK
6
CONTINUOUS
10
7.68499
20
-4.58537
11
7.71499
21
-4.58537
0
LINE
8
BLACK
6
CONTINUOUS
10
7.69624
20
-4.55912
11
7.69624
21
-4.62662
0
LINE
8
BLACK
6
CONTINUOUS
10
7.69624
20
-4.62662
11
7.69999
21
-4.63412
0
LINE
8
BLACK
6
CONTINUOUS
10
7.69999
20
-4.63412
11
7.70749
21
-4.63786
0
LINE
8
BLACK
6
CONTINUOUS
10
7.70749
20
-4.63786
11
7.71499
21
-4.63786
0
LINE
8
BLACK
6
CONTINUOUS
10
7.77123
20
-4.63412
11
7.76373
21
-4.63786
0
LINE
8
BLACK
6
CONTINUOUS
10
7.76373
20
-4.63786
11
7.74873
21
-4.63786
0
LINE
8
BLACK
6
CONTINUOUS
10
7.74873
20
-4.63786
11
7.74123
21
-4.63412
0
LINE
8
BLACK
6
CONTINUOUS
10
7.74123
20
-4.63412
11
7.73748
21
-4.62662
0
LINE
8
BLACK
6
CONTINUOUS
10
7.73748
20
-4.62662
11
7.73748
21
-4.59662
0
LINE
8
BLACK
6
CONTINUOUS
10
7.73748
20
-4.59662
11
7.74123
21
-4.58912
0
LINE
8
BLACK
6
CONTINUOUS
10
7.74123
20
-4.58912
11
7.74873
21
-4.58537
0
LINE
8
BLACK
6
CONTINUOUS
10
7.74873
20
-4.58537
11
7.76373
21
-4.58537
0
LINE
8
BLACK
6
CONTINUOUS
10
7.76373
20
-4.58537
11
7.77123
21
-4.58912
0
LINE
8
BLACK
6
CONTINUOUS
10
7.77123
20
-4.58912
11
7.77498
21
-4.59662
0
LINE
8
BLACK
6
CONTINUOUS
10
7.77498
20
-4.59662
11
7.77498
21
-4.60412
0
LINE
8
BLACK
6
CONTINUOUS
10
7.77498
20
-4.60412
11
7.73748
21
-4.61162
0
LINE
8
BLACK
6
CONTINUOUS
10
7.84247
20
-4.63786
11
7.84247
21
-4.55912
0
LINE
8
BLACK
6
CONTINUOUS
10
7.84247
20
-4.63412
11
7.83497
21
-4.63786
0
LINE
8
BLACK
6
CONTINUOUS
10
7.83497
20
-4.63786
11
7.81997
21
-4.63786
0
LINE
8
BLACK
6
CONTINUOUS
10
7.81997
20
-4.63786
11
7.81247
21
-4.63412
0
LINE
8
BLACK
6
CONTINUOUS
10
7.81247
20
-4.63412
11
7.80873
21
-4.63037
0
LINE
8
BLACK
6
CONTINUOUS
10
7.80873
20
-4.63037
11
7.80498
21
-4.62287
0
LINE
8
BLACK
6
CONTINUOUS
10
7.80498
20
-4.62287
11
7.80498
21
-4.60037
0
LINE
8
BLACK
6
CONTINUOUS
10
7.80498
20
-4.60037
11
7.80873
21
-4.59287
0
LINE
8
BLACK
6
CONTINUOUS
10
7.80873
20
-4.59287
11
7.81247
21
-4.58912
0
LINE
8
BLACK
6
CONTINUOUS
10
7.81247
20
-4.58912
11
7.81997
21
-4.58537
0
LINE
8
BLACK
6
CONTINUOUS
10
7.81997
20
-4.58537
11
7.83497
21
-4.58537
0
LINE
8
BLACK
6
CONTINUOUS
10
7.83497
20
-4.58537
11
7.84247
21
-4.58912
0
LINE
8
BLACK
6
CONTINUOUS
10
7.87247
20
-4.66786
11
7.87622
21
-4.66411
0
LINE
8
BLACK
6
CONTINUOUS
10
7.87622
20
-4.66411
11
7.88372
21
-4.65286
0
LINE
8
BLACK
6
CONTINUOUS
10
7.88372
20
-4.65286
11
7.88747
21
-4.64536
0
LINE
8
BLACK
6
CONTINUOUS
10
7.88747
20
-4.64536
11
7.89121
21
-4.63412
0
LINE
8
BLACK
6
CONTINUOUS
10
7.89121
20
-4.63412
11
7.89496
21
-4.61537
0
LINE
8
BLACK
6
CONTINUOUS
10
7.89496
20
-4.61537
11
7.89496
21
-4.60037
0
LINE
8
BLACK
6
CONTINUOUS
10
7.89496
20
-4.60037
11
7.89121
21
-4.58162
0
LINE
8
BLACK
6
CONTINUOUS
10
7.89121
20
-4.58162
11
7.88747
21
-4.57037
0
LINE
8
BLACK
6
CONTINUOUS
10
7.88747
20
-4.57037
11
7.88372
21
-4.56287
0
LINE
8
BLACK
6
CONTINUOUS
10
7.88372
20
-4.56287
11
7.87622
21
-4.55163
0
LINE
8
BLACK
6
CONTINUOUS
10
7.87622
20
-4.55163
11
7.87247
21
-4.54788
  0
ENDSEC
  0
EOF
