%TF.GenerationSoftware,KiCad,Pcbnew,5.1.9+dfsg1-1+deb11u1*%
%TF.CreationDate,2023-02-08T14:45:02+08:00*%
%TF.ProjectId,IN12,494e3132-2e6b-4696-9361-645f70636258,v1.0*%
%TF.SameCoordinates,Original*%
%TF.FileFunction,Legend,Top*%
%TF.FilePolarity,Positive*%
%FSLAX46Y46*%
G04 Gerber Fmt 4.6, Leading zero omitted, Abs format (unit mm)*
G04 Created by KiCad (PCBNEW 5.1.9+dfsg1-1+deb11u1) date 2023-02-08 14:45:02*
%MOMM*%
%LPD*%
G01*
G04 APERTURE LIST*
%ADD10C,0.120000*%
%ADD11C,0.150000*%
G04 APERTURE END LIST*
D10*
%TO.C,NX4*%
X287875000Y-154375000D02*
G75*
G03*
X287875000Y-154375000I-11000000J0D01*
G01*
%TO.C,NX3*%
X253400000Y-154375000D02*
G75*
G03*
X253400000Y-154375000I-11000000J0D01*
G01*
%TO.C,NX2*%
X187400000Y-154375000D02*
G75*
G03*
X187400000Y-154375000I-11000000J0D01*
G01*
%TO.C,NX1*%
X152925000Y-154375000D02*
G75*
G03*
X152925000Y-154375000I-11000000J0D01*
G01*
%TO.C,U1*%
X221560000Y-170620000D02*
X219910000Y-170620000D01*
X221560000Y-180900000D02*
X221560000Y-170620000D01*
X216260000Y-180900000D02*
X221560000Y-180900000D01*
X216260000Y-170620000D02*
X216260000Y-180900000D01*
X217910000Y-170620000D02*
X216260000Y-170620000D01*
X219910000Y-170620000D02*
G75*
G02*
X217910000Y-170620000I-1000000J0D01*
G01*
%TO.C,R4*%
X202620000Y-168600000D02*
X203570000Y-168600000D01*
X208360000Y-168600000D02*
X207410000Y-168600000D01*
X203570000Y-169520000D02*
X207410000Y-169520000D01*
X203570000Y-167680000D02*
X203570000Y-169520000D01*
X207410000Y-167680000D02*
X203570000Y-167680000D01*
X207410000Y-169520000D02*
X207410000Y-167680000D01*
%TO.C,R3*%
X207410000Y-173170000D02*
X207410000Y-171330000D01*
X207410000Y-171330000D02*
X203570000Y-171330000D01*
X203570000Y-171330000D02*
X203570000Y-173170000D01*
X203570000Y-173170000D02*
X207410000Y-173170000D01*
X208360000Y-172250000D02*
X207410000Y-172250000D01*
X202620000Y-172250000D02*
X203570000Y-172250000D01*
%TO.C,R2*%
X207410000Y-177070000D02*
X207410000Y-175230000D01*
X207410000Y-175230000D02*
X203570000Y-175230000D01*
X203570000Y-175230000D02*
X203570000Y-177070000D01*
X203570000Y-177070000D02*
X207410000Y-177070000D01*
X208360000Y-176150000D02*
X207410000Y-176150000D01*
X202620000Y-176150000D02*
X203570000Y-176150000D01*
%TO.C,R1*%
X207380000Y-180970000D02*
X207380000Y-179130000D01*
X207380000Y-179130000D02*
X203540000Y-179130000D01*
X203540000Y-179130000D02*
X203540000Y-180970000D01*
X203540000Y-180970000D02*
X207380000Y-180970000D01*
X208330000Y-180050000D02*
X207380000Y-180050000D01*
X202590000Y-180050000D02*
X203540000Y-180050000D01*
%TO.C,Q1*%
X195200000Y-180230000D02*
X195200000Y-176630000D01*
X195188478Y-176591522D02*
G75*
G03*
X190750000Y-178430000I-1838478J-1838478D01*
G01*
X195188478Y-180268478D02*
G75*
G02*
X190750000Y-178430000I-1838478J1838478D01*
G01*
%TO.C,NE1*%
X210730000Y-153105000D02*
X208070000Y-153105000D01*
X210730000Y-153105000D02*
X210730000Y-150505000D01*
X210730000Y-150505000D02*
X208070000Y-150505000D01*
X208070000Y-153105000D02*
X208070000Y-150505000D01*
X208070000Y-155705000D02*
X208070000Y-154375000D01*
X209400000Y-155705000D02*
X208070000Y-155705000D01*
%TO.C,J5*%
X96890000Y-173560000D02*
X100910000Y-173560000D01*
X100910000Y-173560000D02*
X100910000Y-163340000D01*
X100910000Y-163340000D02*
X96890000Y-163340000D01*
X96890000Y-163340000D02*
X96890000Y-173560000D01*
X98600000Y-173560000D02*
X98600000Y-173060000D01*
X98600000Y-173060000D02*
X97390000Y-173060000D01*
X97390000Y-173060000D02*
X97390000Y-163840000D01*
X97390000Y-163840000D02*
X98600000Y-163840000D01*
X98600000Y-163840000D02*
X98600000Y-163340000D01*
X99410000Y-173560000D02*
X99410000Y-172560000D01*
X99410000Y-172560000D02*
X100910000Y-172560000D01*
X99410000Y-163340000D02*
X99410000Y-164340000D01*
X99410000Y-164340000D02*
X100910000Y-164340000D01*
X98710000Y-173860000D02*
X101210000Y-173860000D01*
X101210000Y-173860000D02*
X101210000Y-171360000D01*
%TO.C,J4*%
X277990000Y-124640000D02*
X277990000Y-128660000D01*
X277990000Y-128660000D02*
X305710000Y-128660000D01*
X305710000Y-128660000D02*
X305710000Y-124640000D01*
X305710000Y-124640000D02*
X277990000Y-124640000D01*
X277990000Y-126350000D02*
X278490000Y-126350000D01*
X278490000Y-126350000D02*
X278490000Y-125140000D01*
X278490000Y-125140000D02*
X305210000Y-125140000D01*
X305210000Y-125140000D02*
X305210000Y-126350000D01*
X305210000Y-126350000D02*
X305710000Y-126350000D01*
X277990000Y-127160000D02*
X278990000Y-127160000D01*
X278990000Y-127160000D02*
X278990000Y-128660000D01*
X305710000Y-127160000D02*
X304710000Y-127160000D01*
X304710000Y-127160000D02*
X304710000Y-128660000D01*
X277690000Y-126460000D02*
X277690000Y-128960000D01*
X277690000Y-128960000D02*
X280190000Y-128960000D01*
%TO.C,J3*%
X222590000Y-124640000D02*
X222590000Y-128660000D01*
X222590000Y-128660000D02*
X250310000Y-128660000D01*
X250310000Y-128660000D02*
X250310000Y-124640000D01*
X250310000Y-124640000D02*
X222590000Y-124640000D01*
X222590000Y-126350000D02*
X223090000Y-126350000D01*
X223090000Y-126350000D02*
X223090000Y-125140000D01*
X223090000Y-125140000D02*
X249810000Y-125140000D01*
X249810000Y-125140000D02*
X249810000Y-126350000D01*
X249810000Y-126350000D02*
X250310000Y-126350000D01*
X222590000Y-127160000D02*
X223590000Y-127160000D01*
X223590000Y-127160000D02*
X223590000Y-128660000D01*
X250310000Y-127160000D02*
X249310000Y-127160000D01*
X249310000Y-127160000D02*
X249310000Y-128660000D01*
X222290000Y-126460000D02*
X222290000Y-128960000D01*
X222290000Y-128960000D02*
X224790000Y-128960000D01*
%TO.C,J2*%
X167040000Y-124640000D02*
X167040000Y-128660000D01*
X167040000Y-128660000D02*
X194760000Y-128660000D01*
X194760000Y-128660000D02*
X194760000Y-124640000D01*
X194760000Y-124640000D02*
X167040000Y-124640000D01*
X167040000Y-126350000D02*
X167540000Y-126350000D01*
X167540000Y-126350000D02*
X167540000Y-125140000D01*
X167540000Y-125140000D02*
X194260000Y-125140000D01*
X194260000Y-125140000D02*
X194260000Y-126350000D01*
X194260000Y-126350000D02*
X194760000Y-126350000D01*
X167040000Y-127160000D02*
X168040000Y-127160000D01*
X168040000Y-127160000D02*
X168040000Y-128660000D01*
X194760000Y-127160000D02*
X193760000Y-127160000D01*
X193760000Y-127160000D02*
X193760000Y-128660000D01*
X166740000Y-126460000D02*
X166740000Y-128960000D01*
X166740000Y-128960000D02*
X169240000Y-128960000D01*
%TO.C,J1*%
X111390000Y-124640000D02*
X111390000Y-128660000D01*
X111390000Y-128660000D02*
X139110000Y-128660000D01*
X139110000Y-128660000D02*
X139110000Y-124640000D01*
X139110000Y-124640000D02*
X111390000Y-124640000D01*
X111390000Y-126350000D02*
X111890000Y-126350000D01*
X111890000Y-126350000D02*
X111890000Y-125140000D01*
X111890000Y-125140000D02*
X138610000Y-125140000D01*
X138610000Y-125140000D02*
X138610000Y-126350000D01*
X138610000Y-126350000D02*
X139110000Y-126350000D01*
X111390000Y-127160000D02*
X112390000Y-127160000D01*
X112390000Y-127160000D02*
X112390000Y-128660000D01*
X139110000Y-127160000D02*
X138110000Y-127160000D01*
X138110000Y-127160000D02*
X138110000Y-128660000D01*
X111090000Y-126460000D02*
X111090000Y-128960000D01*
X111090000Y-128960000D02*
X113590000Y-128960000D01*
%TO.C,C1*%
X195770000Y-169350000D02*
G75*
G03*
X195770000Y-169350000I-2620000J0D01*
G01*
X193150000Y-171930000D02*
X193150000Y-166770000D01*
X193110000Y-171930000D02*
X193110000Y-166770000D01*
X193070000Y-171929000D02*
X193070000Y-166771000D01*
X193030000Y-171928000D02*
X193030000Y-166772000D01*
X192990000Y-171926000D02*
X192990000Y-166774000D01*
X192950000Y-171923000D02*
X192950000Y-166777000D01*
X192910000Y-171919000D02*
X192910000Y-170390000D01*
X192910000Y-168310000D02*
X192910000Y-166781000D01*
X192870000Y-171915000D02*
X192870000Y-170390000D01*
X192870000Y-168310000D02*
X192870000Y-166785000D01*
X192830000Y-171911000D02*
X192830000Y-170390000D01*
X192830000Y-168310000D02*
X192830000Y-166789000D01*
X192790000Y-171906000D02*
X192790000Y-170390000D01*
X192790000Y-168310000D02*
X192790000Y-166794000D01*
X192750000Y-171900000D02*
X192750000Y-170390000D01*
X192750000Y-168310000D02*
X192750000Y-166800000D01*
X192710000Y-171893000D02*
X192710000Y-170390000D01*
X192710000Y-168310000D02*
X192710000Y-166807000D01*
X192670000Y-171886000D02*
X192670000Y-170390000D01*
X192670000Y-168310000D02*
X192670000Y-166814000D01*
X192630000Y-171878000D02*
X192630000Y-170390000D01*
X192630000Y-168310000D02*
X192630000Y-166822000D01*
X192590000Y-171870000D02*
X192590000Y-170390000D01*
X192590000Y-168310000D02*
X192590000Y-166830000D01*
X192550000Y-171861000D02*
X192550000Y-170390000D01*
X192550000Y-168310000D02*
X192550000Y-166839000D01*
X192510000Y-171851000D02*
X192510000Y-170390000D01*
X192510000Y-168310000D02*
X192510000Y-166849000D01*
X192470000Y-171841000D02*
X192470000Y-170390000D01*
X192470000Y-168310000D02*
X192470000Y-166859000D01*
X192429000Y-171830000D02*
X192429000Y-170390000D01*
X192429000Y-168310000D02*
X192429000Y-166870000D01*
X192389000Y-171818000D02*
X192389000Y-170390000D01*
X192389000Y-168310000D02*
X192389000Y-166882000D01*
X192349000Y-171805000D02*
X192349000Y-170390000D01*
X192349000Y-168310000D02*
X192349000Y-166895000D01*
X192309000Y-171792000D02*
X192309000Y-170390000D01*
X192309000Y-168310000D02*
X192309000Y-166908000D01*
X192269000Y-171778000D02*
X192269000Y-170390000D01*
X192269000Y-168310000D02*
X192269000Y-166922000D01*
X192229000Y-171764000D02*
X192229000Y-170390000D01*
X192229000Y-168310000D02*
X192229000Y-166936000D01*
X192189000Y-171748000D02*
X192189000Y-170390000D01*
X192189000Y-168310000D02*
X192189000Y-166952000D01*
X192149000Y-171732000D02*
X192149000Y-170390000D01*
X192149000Y-168310000D02*
X192149000Y-166968000D01*
X192109000Y-171715000D02*
X192109000Y-170390000D01*
X192109000Y-168310000D02*
X192109000Y-166985000D01*
X192069000Y-171698000D02*
X192069000Y-170390000D01*
X192069000Y-168310000D02*
X192069000Y-167002000D01*
X192029000Y-171679000D02*
X192029000Y-170390000D01*
X192029000Y-168310000D02*
X192029000Y-167021000D01*
X191989000Y-171660000D02*
X191989000Y-170390000D01*
X191989000Y-168310000D02*
X191989000Y-167040000D01*
X191949000Y-171640000D02*
X191949000Y-170390000D01*
X191949000Y-168310000D02*
X191949000Y-167060000D01*
X191909000Y-171618000D02*
X191909000Y-170390000D01*
X191909000Y-168310000D02*
X191909000Y-167082000D01*
X191869000Y-171597000D02*
X191869000Y-170390000D01*
X191869000Y-168310000D02*
X191869000Y-167103000D01*
X191829000Y-171574000D02*
X191829000Y-170390000D01*
X191829000Y-168310000D02*
X191829000Y-167126000D01*
X191789000Y-171550000D02*
X191789000Y-170390000D01*
X191789000Y-168310000D02*
X191789000Y-167150000D01*
X191749000Y-171525000D02*
X191749000Y-170390000D01*
X191749000Y-168310000D02*
X191749000Y-167175000D01*
X191709000Y-171499000D02*
X191709000Y-170390000D01*
X191709000Y-168310000D02*
X191709000Y-167201000D01*
X191669000Y-171472000D02*
X191669000Y-170390000D01*
X191669000Y-168310000D02*
X191669000Y-167228000D01*
X191629000Y-171445000D02*
X191629000Y-170390000D01*
X191629000Y-168310000D02*
X191629000Y-167255000D01*
X191589000Y-171415000D02*
X191589000Y-170390000D01*
X191589000Y-168310000D02*
X191589000Y-167285000D01*
X191549000Y-171385000D02*
X191549000Y-170390000D01*
X191549000Y-168310000D02*
X191549000Y-167315000D01*
X191509000Y-171354000D02*
X191509000Y-170390000D01*
X191509000Y-168310000D02*
X191509000Y-167346000D01*
X191469000Y-171321000D02*
X191469000Y-170390000D01*
X191469000Y-168310000D02*
X191469000Y-167379000D01*
X191429000Y-171287000D02*
X191429000Y-170390000D01*
X191429000Y-168310000D02*
X191429000Y-167413000D01*
X191389000Y-171251000D02*
X191389000Y-170390000D01*
X191389000Y-168310000D02*
X191389000Y-167449000D01*
X191349000Y-171214000D02*
X191349000Y-170390000D01*
X191349000Y-168310000D02*
X191349000Y-167486000D01*
X191309000Y-171176000D02*
X191309000Y-170390000D01*
X191309000Y-168310000D02*
X191309000Y-167524000D01*
X191269000Y-171135000D02*
X191269000Y-170390000D01*
X191269000Y-168310000D02*
X191269000Y-167565000D01*
X191229000Y-171093000D02*
X191229000Y-170390000D01*
X191229000Y-168310000D02*
X191229000Y-167607000D01*
X191189000Y-171049000D02*
X191189000Y-170390000D01*
X191189000Y-168310000D02*
X191189000Y-167651000D01*
X191149000Y-171003000D02*
X191149000Y-170390000D01*
X191149000Y-168310000D02*
X191149000Y-167697000D01*
X191109000Y-170955000D02*
X191109000Y-170390000D01*
X191109000Y-168310000D02*
X191109000Y-167745000D01*
X191069000Y-170904000D02*
X191069000Y-170390000D01*
X191069000Y-168310000D02*
X191069000Y-167796000D01*
X191029000Y-170850000D02*
X191029000Y-170390000D01*
X191029000Y-168310000D02*
X191029000Y-167850000D01*
X190989000Y-170793000D02*
X190989000Y-170390000D01*
X190989000Y-168310000D02*
X190989000Y-167907000D01*
X190949000Y-170733000D02*
X190949000Y-170390000D01*
X190949000Y-168310000D02*
X190949000Y-167967000D01*
X190909000Y-170669000D02*
X190909000Y-170390000D01*
X190909000Y-168310000D02*
X190909000Y-168031000D01*
X190869000Y-170601000D02*
X190869000Y-170390000D01*
X190869000Y-168310000D02*
X190869000Y-168099000D01*
X190829000Y-170528000D02*
X190829000Y-168172000D01*
X190789000Y-170448000D02*
X190789000Y-168252000D01*
X190749000Y-170361000D02*
X190749000Y-168339000D01*
X190709000Y-170265000D02*
X190709000Y-168435000D01*
X190669000Y-170155000D02*
X190669000Y-168545000D01*
X190629000Y-170027000D02*
X190629000Y-168673000D01*
X190589000Y-169868000D02*
X190589000Y-168832000D01*
X190549000Y-169634000D02*
X190549000Y-169066000D01*
X195954775Y-170825000D02*
X195454775Y-170825000D01*
X195704775Y-171075000D02*
X195704775Y-170575000D01*
%TO.C,NX4*%
D11*
X275636904Y-151957180D02*
X275636904Y-150957180D01*
X276208333Y-151957180D01*
X276208333Y-150957180D01*
X276589285Y-150957180D02*
X277255952Y-151957180D01*
X277255952Y-150957180D02*
X276589285Y-151957180D01*
X278065476Y-151290514D02*
X278065476Y-151957180D01*
X277827380Y-150909561D02*
X277589285Y-151623847D01*
X278208333Y-151623847D01*
%TO.C,NX3*%
X241161904Y-151957180D02*
X241161904Y-150957180D01*
X241733333Y-151957180D01*
X241733333Y-150957180D01*
X242114285Y-150957180D02*
X242780952Y-151957180D01*
X242780952Y-150957180D02*
X242114285Y-151957180D01*
X243066666Y-150957180D02*
X243685714Y-150957180D01*
X243352380Y-151338133D01*
X243495238Y-151338133D01*
X243590476Y-151385752D01*
X243638095Y-151433371D01*
X243685714Y-151528609D01*
X243685714Y-151766704D01*
X243638095Y-151861942D01*
X243590476Y-151909561D01*
X243495238Y-151957180D01*
X243209523Y-151957180D01*
X243114285Y-151909561D01*
X243066666Y-151861942D01*
%TO.C,NX2*%
X175161904Y-151957180D02*
X175161904Y-150957180D01*
X175733333Y-151957180D01*
X175733333Y-150957180D01*
X176114285Y-150957180D02*
X176780952Y-151957180D01*
X176780952Y-150957180D02*
X176114285Y-151957180D01*
X177114285Y-151052419D02*
X177161904Y-151004800D01*
X177257142Y-150957180D01*
X177495238Y-150957180D01*
X177590476Y-151004800D01*
X177638095Y-151052419D01*
X177685714Y-151147657D01*
X177685714Y-151242895D01*
X177638095Y-151385752D01*
X177066666Y-151957180D01*
X177685714Y-151957180D01*
%TO.C,NX1*%
X140686904Y-151957180D02*
X140686904Y-150957180D01*
X141258333Y-151957180D01*
X141258333Y-150957180D01*
X141639285Y-150957180D02*
X142305952Y-151957180D01*
X142305952Y-150957180D02*
X141639285Y-151957180D01*
X143210714Y-151957180D02*
X142639285Y-151957180D01*
X142925000Y-151957180D02*
X142925000Y-150957180D01*
X142829761Y-151100038D01*
X142734523Y-151195276D01*
X142639285Y-151242895D01*
%TO.C,U1*%
X218148095Y-169072380D02*
X218148095Y-169881904D01*
X218195714Y-169977142D01*
X218243333Y-170024761D01*
X218338571Y-170072380D01*
X218529047Y-170072380D01*
X218624285Y-170024761D01*
X218671904Y-169977142D01*
X218719523Y-169881904D01*
X218719523Y-169072380D01*
X219719523Y-170072380D02*
X219148095Y-170072380D01*
X219433809Y-170072380D02*
X219433809Y-169072380D01*
X219338571Y-169215238D01*
X219243333Y-169310476D01*
X219148095Y-169358095D01*
%TO.C,R4*%
X205323333Y-170972380D02*
X204990000Y-170496190D01*
X204751904Y-170972380D02*
X204751904Y-169972380D01*
X205132857Y-169972380D01*
X205228095Y-170020000D01*
X205275714Y-170067619D01*
X205323333Y-170162857D01*
X205323333Y-170305714D01*
X205275714Y-170400952D01*
X205228095Y-170448571D01*
X205132857Y-170496190D01*
X204751904Y-170496190D01*
X206180476Y-170305714D02*
X206180476Y-170972380D01*
X205942380Y-169924761D02*
X205704285Y-170639047D01*
X206323333Y-170639047D01*
%TO.C,R3*%
X205323333Y-174622380D02*
X204990000Y-174146190D01*
X204751904Y-174622380D02*
X204751904Y-173622380D01*
X205132857Y-173622380D01*
X205228095Y-173670000D01*
X205275714Y-173717619D01*
X205323333Y-173812857D01*
X205323333Y-173955714D01*
X205275714Y-174050952D01*
X205228095Y-174098571D01*
X205132857Y-174146190D01*
X204751904Y-174146190D01*
X205656666Y-173622380D02*
X206275714Y-173622380D01*
X205942380Y-174003333D01*
X206085238Y-174003333D01*
X206180476Y-174050952D01*
X206228095Y-174098571D01*
X206275714Y-174193809D01*
X206275714Y-174431904D01*
X206228095Y-174527142D01*
X206180476Y-174574761D01*
X206085238Y-174622380D01*
X205799523Y-174622380D01*
X205704285Y-174574761D01*
X205656666Y-174527142D01*
%TO.C,R2*%
X205323333Y-178522380D02*
X204990000Y-178046190D01*
X204751904Y-178522380D02*
X204751904Y-177522380D01*
X205132857Y-177522380D01*
X205228095Y-177570000D01*
X205275714Y-177617619D01*
X205323333Y-177712857D01*
X205323333Y-177855714D01*
X205275714Y-177950952D01*
X205228095Y-177998571D01*
X205132857Y-178046190D01*
X204751904Y-178046190D01*
X205704285Y-177617619D02*
X205751904Y-177570000D01*
X205847142Y-177522380D01*
X206085238Y-177522380D01*
X206180476Y-177570000D01*
X206228095Y-177617619D01*
X206275714Y-177712857D01*
X206275714Y-177808095D01*
X206228095Y-177950952D01*
X205656666Y-178522380D01*
X206275714Y-178522380D01*
%TO.C,R1*%
X205293333Y-182422380D02*
X204960000Y-181946190D01*
X204721904Y-182422380D02*
X204721904Y-181422380D01*
X205102857Y-181422380D01*
X205198095Y-181470000D01*
X205245714Y-181517619D01*
X205293333Y-181612857D01*
X205293333Y-181755714D01*
X205245714Y-181850952D01*
X205198095Y-181898571D01*
X205102857Y-181946190D01*
X204721904Y-181946190D01*
X206245714Y-182422380D02*
X205674285Y-182422380D01*
X205960000Y-182422380D02*
X205960000Y-181422380D01*
X205864761Y-181565238D01*
X205769523Y-181660476D01*
X205674285Y-181708095D01*
%TO.C,Q1*%
X190337619Y-178525238D02*
X190290000Y-178620476D01*
X190194761Y-178715714D01*
X190051904Y-178858571D01*
X190004285Y-178953809D01*
X190004285Y-179049047D01*
X190242380Y-179001428D02*
X190194761Y-179096666D01*
X190099523Y-179191904D01*
X189909047Y-179239523D01*
X189575714Y-179239523D01*
X189385238Y-179191904D01*
X189290000Y-179096666D01*
X189242380Y-179001428D01*
X189242380Y-178810952D01*
X189290000Y-178715714D01*
X189385238Y-178620476D01*
X189575714Y-178572857D01*
X189909047Y-178572857D01*
X190099523Y-178620476D01*
X190194761Y-178715714D01*
X190242380Y-178810952D01*
X190242380Y-179001428D01*
X190242380Y-177620476D02*
X190242380Y-178191904D01*
X190242380Y-177906190D02*
X189242380Y-177906190D01*
X189385238Y-178001428D01*
X189480476Y-178096666D01*
X189528095Y-178191904D01*
%TO.C,NE1*%
X208185714Y-157597380D02*
X208185714Y-156597380D01*
X208757142Y-157597380D01*
X208757142Y-156597380D01*
X209233333Y-157073571D02*
X209566666Y-157073571D01*
X209709523Y-157597380D02*
X209233333Y-157597380D01*
X209233333Y-156597380D01*
X209709523Y-156597380D01*
X210661904Y-157597380D02*
X210090476Y-157597380D01*
X210376190Y-157597380D02*
X210376190Y-156597380D01*
X210280952Y-156740238D01*
X210185714Y-156835476D01*
X210090476Y-156883095D01*
%TO.C,J5*%
X95252380Y-168783333D02*
X95966666Y-168783333D01*
X96109523Y-168830952D01*
X96204761Y-168926190D01*
X96252380Y-169069047D01*
X96252380Y-169164285D01*
X95252380Y-167830952D02*
X95252380Y-168307142D01*
X95728571Y-168354761D01*
X95680952Y-168307142D01*
X95633333Y-168211904D01*
X95633333Y-167973809D01*
X95680952Y-167878571D01*
X95728571Y-167830952D01*
X95823809Y-167783333D01*
X96061904Y-167783333D01*
X96157142Y-167830952D01*
X96204761Y-167878571D01*
X96252380Y-167973809D01*
X96252380Y-168211904D01*
X96204761Y-168307142D01*
X96157142Y-168354761D01*
%TO.C,J4*%
X291516666Y-123002380D02*
X291516666Y-123716666D01*
X291469047Y-123859523D01*
X291373809Y-123954761D01*
X291230952Y-124002380D01*
X291135714Y-124002380D01*
X292421428Y-123335714D02*
X292421428Y-124002380D01*
X292183333Y-122954761D02*
X291945238Y-123669047D01*
X292564285Y-123669047D01*
%TO.C,J3*%
X236116666Y-123002380D02*
X236116666Y-123716666D01*
X236069047Y-123859523D01*
X235973809Y-123954761D01*
X235830952Y-124002380D01*
X235735714Y-124002380D01*
X236497619Y-123002380D02*
X237116666Y-123002380D01*
X236783333Y-123383333D01*
X236926190Y-123383333D01*
X237021428Y-123430952D01*
X237069047Y-123478571D01*
X237116666Y-123573809D01*
X237116666Y-123811904D01*
X237069047Y-123907142D01*
X237021428Y-123954761D01*
X236926190Y-124002380D01*
X236640476Y-124002380D01*
X236545238Y-123954761D01*
X236497619Y-123907142D01*
%TO.C,J2*%
X180566666Y-123002380D02*
X180566666Y-123716666D01*
X180519047Y-123859523D01*
X180423809Y-123954761D01*
X180280952Y-124002380D01*
X180185714Y-124002380D01*
X180995238Y-123097619D02*
X181042857Y-123050000D01*
X181138095Y-123002380D01*
X181376190Y-123002380D01*
X181471428Y-123050000D01*
X181519047Y-123097619D01*
X181566666Y-123192857D01*
X181566666Y-123288095D01*
X181519047Y-123430952D01*
X180947619Y-124002380D01*
X181566666Y-124002380D01*
%TO.C,J1*%
X124916666Y-123002380D02*
X124916666Y-123716666D01*
X124869047Y-123859523D01*
X124773809Y-123954761D01*
X124630952Y-124002380D01*
X124535714Y-124002380D01*
X125916666Y-124002380D02*
X125345238Y-124002380D01*
X125630952Y-124002380D02*
X125630952Y-123002380D01*
X125535714Y-123145238D01*
X125440476Y-123240476D01*
X125345238Y-123288095D01*
%TO.C,C1*%
X192983333Y-173457142D02*
X192935714Y-173504761D01*
X192792857Y-173552380D01*
X192697619Y-173552380D01*
X192554761Y-173504761D01*
X192459523Y-173409523D01*
X192411904Y-173314285D01*
X192364285Y-173123809D01*
X192364285Y-172980952D01*
X192411904Y-172790476D01*
X192459523Y-172695238D01*
X192554761Y-172600000D01*
X192697619Y-172552380D01*
X192792857Y-172552380D01*
X192935714Y-172600000D01*
X192983333Y-172647619D01*
X193935714Y-173552380D02*
X193364285Y-173552380D01*
X193650000Y-173552380D02*
X193650000Y-172552380D01*
X193554761Y-172695238D01*
X193459523Y-172790476D01*
X193364285Y-172838095D01*
%TD*%
M02*
