%TF.GenerationSoftware,KiCad,Pcbnew,5.1.9+dfsg1-1+deb11u1*%
%TF.CreationDate,2023-02-08T14:45:02+08:00*%
%TF.ProjectId,IN12,494e3132-2e6b-4696-9361-645f70636258,v1.0*%
%TF.SameCoordinates,Original*%
%TF.FileFunction,Copper,L1,Top*%
%TF.FilePolarity,Positive*%
%FSLAX46Y46*%
G04 Gerber Fmt 4.6, Leading zero omitted, Abs format (unit mm)*
G04 Created by KiCad (PCBNEW 5.1.9+dfsg1-1+deb11u1) date 2023-02-08 14:45:02*
%MOMM*%
%LPD*%
G01*
G04 APERTURE LIST*
%TA.AperFunction,ComponentPad*%
%ADD10C,1.500000*%
%TD*%
%TA.AperFunction,ComponentPad*%
%ADD11R,1.600000X1.600000*%
%TD*%
%TA.AperFunction,ComponentPad*%
%ADD12O,1.600000X1.600000*%
%TD*%
%TA.AperFunction,ComponentPad*%
%ADD13C,1.400000*%
%TD*%
%TA.AperFunction,ComponentPad*%
%ADD14O,1.400000X1.400000*%
%TD*%
%TA.AperFunction,ComponentPad*%
%ADD15R,1.500000X1.050000*%
%TD*%
%TA.AperFunction,ComponentPad*%
%ADD16O,1.500000X1.050000*%
%TD*%
%TA.AperFunction,ComponentPad*%
%ADD17O,1.700000X1.700000*%
%TD*%
%TA.AperFunction,ComponentPad*%
%ADD18R,1.700000X1.700000*%
%TD*%
%TA.AperFunction,ComponentPad*%
%ADD19O,1.950000X1.700000*%
%TD*%
%TA.AperFunction,ComponentPad*%
%ADD20O,1.700000X1.950000*%
%TD*%
%TA.AperFunction,ComponentPad*%
%ADD21C,1.600000*%
%TD*%
%TA.AperFunction,Conductor*%
%ADD22C,0.250000*%
%TD*%
%TA.AperFunction,Conductor*%
%ADD23C,0.254000*%
%TD*%
%TA.AperFunction,Conductor*%
%ADD24C,0.100000*%
%TD*%
G04 APERTURE END LIST*
D10*
%TO.P,NX4,1*%
%TO.N,Net-(J4-Pad2)*%
X272875000Y-162375000D03*
%TO.P,NX4,DP*%
%TO.N,N/C*%
X276875000Y-163375000D03*
%TO.P,NX4,A*%
%TO.N,ANODE_PIN*%
X280875000Y-162375000D03*
%TO.P,NX4,0*%
%TO.N,Net-(J4-Pad1)*%
X282475000Y-158875000D03*
%TO.P,NX4,9*%
%TO.N,Net-(J4-Pad10)*%
X282575000Y-154375000D03*
%TO.P,NX4,8*%
%TO.N,Net-(J4-Pad9)*%
X282475000Y-149875000D03*
%TO.P,NX4,7*%
%TO.N,Net-(J4-Pad8)*%
X280875000Y-146375000D03*
%TO.P,NX4,6*%
%TO.N,Net-(J4-Pad7)*%
X276875000Y-145375000D03*
%TO.P,NX4,5*%
%TO.N,Net-(J4-Pad6)*%
X272875000Y-146375000D03*
%TO.P,NX4,4*%
%TO.N,Net-(J4-Pad5)*%
X271275000Y-149875000D03*
%TO.P,NX4,3*%
%TO.N,Net-(J4-Pad4)*%
X271175000Y-154375000D03*
%TO.P,NX4,2*%
%TO.N,Net-(J4-Pad3)*%
X271275000Y-158875000D03*
%TD*%
%TO.P,NX3,1*%
%TO.N,Net-(J3-Pad2)*%
X238400000Y-162375000D03*
%TO.P,NX3,DP*%
%TO.N,N/C*%
X242400000Y-163375000D03*
%TO.P,NX3,A*%
%TO.N,ANODE_PIN*%
X246400000Y-162375000D03*
%TO.P,NX3,0*%
%TO.N,Net-(J3-Pad1)*%
X248000000Y-158875000D03*
%TO.P,NX3,9*%
%TO.N,Net-(J3-Pad10)*%
X248100000Y-154375000D03*
%TO.P,NX3,8*%
%TO.N,Net-(J3-Pad9)*%
X248000000Y-149875000D03*
%TO.P,NX3,7*%
%TO.N,Net-(J3-Pad8)*%
X246400000Y-146375000D03*
%TO.P,NX3,6*%
%TO.N,Net-(J3-Pad7)*%
X242400000Y-145375000D03*
%TO.P,NX3,5*%
%TO.N,Net-(J3-Pad6)*%
X238400000Y-146375000D03*
%TO.P,NX3,4*%
%TO.N,Net-(J3-Pad5)*%
X236800000Y-149875000D03*
%TO.P,NX3,3*%
%TO.N,Net-(J3-Pad4)*%
X236700000Y-154375000D03*
%TO.P,NX3,2*%
%TO.N,Net-(J3-Pad3)*%
X236800000Y-158875000D03*
%TD*%
%TO.P,NX2,1*%
%TO.N,Net-(J2-Pad2)*%
X172400000Y-162375000D03*
%TO.P,NX2,DP*%
%TO.N,N/C*%
X176400000Y-163375000D03*
%TO.P,NX2,A*%
%TO.N,ANODE_PIN*%
X180400000Y-162375000D03*
%TO.P,NX2,0*%
%TO.N,Net-(J2-Pad1)*%
X182000000Y-158875000D03*
%TO.P,NX2,9*%
%TO.N,Net-(J2-Pad10)*%
X182100000Y-154375000D03*
%TO.P,NX2,8*%
%TO.N,Net-(J2-Pad9)*%
X182000000Y-149875000D03*
%TO.P,NX2,7*%
%TO.N,Net-(J2-Pad8)*%
X180400000Y-146375000D03*
%TO.P,NX2,6*%
%TO.N,Net-(J2-Pad7)*%
X176400000Y-145375000D03*
%TO.P,NX2,5*%
%TO.N,Net-(J2-Pad6)*%
X172400000Y-146375000D03*
%TO.P,NX2,4*%
%TO.N,Net-(J2-Pad5)*%
X170800000Y-149875000D03*
%TO.P,NX2,3*%
%TO.N,Net-(J2-Pad4)*%
X170700000Y-154375000D03*
%TO.P,NX2,2*%
%TO.N,Net-(J2-Pad3)*%
X170800000Y-158875000D03*
%TD*%
%TO.P,NX1,1*%
%TO.N,Net-(J1-Pad2)*%
X137925000Y-162375000D03*
%TO.P,NX1,DP*%
%TO.N,N/C*%
X141925000Y-163375000D03*
%TO.P,NX1,A*%
%TO.N,ANODE_PIN*%
X145925000Y-162375000D03*
%TO.P,NX1,0*%
%TO.N,Net-(J1-Pad1)*%
X147525000Y-158875000D03*
%TO.P,NX1,9*%
%TO.N,Net-(J1-Pad10)*%
X147625000Y-154375000D03*
%TO.P,NX1,8*%
%TO.N,Net-(J1-Pad9)*%
X147525000Y-149875000D03*
%TO.P,NX1,7*%
%TO.N,Net-(J1-Pad8)*%
X145925000Y-146375000D03*
%TO.P,NX1,6*%
%TO.N,Net-(J1-Pad7)*%
X141925000Y-145375000D03*
%TO.P,NX1,5*%
%TO.N,Net-(J1-Pad6)*%
X137925000Y-146375000D03*
%TO.P,NX1,4*%
%TO.N,Net-(J1-Pad5)*%
X136325000Y-149875000D03*
%TO.P,NX1,3*%
%TO.N,Net-(J1-Pad4)*%
X136225000Y-154375000D03*
%TO.P,NX1,2*%
%TO.N,Net-(J1-Pad3)*%
X136325000Y-158875000D03*
%TD*%
D11*
%TO.P,U1,1*%
%TO.N,GND*%
X215100000Y-171950000D03*
D12*
%TO.P,U1,5*%
%TO.N,N/C*%
X222720000Y-179570000D03*
%TO.P,U1,2*%
%TO.N,Net-(C1-Pad1)*%
X215100000Y-174490000D03*
%TO.P,U1,6*%
X222720000Y-177030000D03*
%TO.P,U1,3*%
%TO.N,Net-(R2-Pad2)*%
X215100000Y-177030000D03*
%TO.P,U1,7*%
%TO.N,Net-(R1-Pad2)*%
X222720000Y-174490000D03*
%TO.P,U1,4*%
%TO.N,+5V*%
X215100000Y-179570000D03*
%TO.P,U1,8*%
X222720000Y-171950000D03*
%TD*%
D13*
%TO.P,R4,1*%
%TO.N,Net-(NE1-Pad2)*%
X209300000Y-168600000D03*
D14*
%TO.P,R4,2*%
%TO.N,Net-(Q1-Pad3)*%
X201680000Y-168600000D03*
%TD*%
%TO.P,R3,2*%
%TO.N,Net-(C1-Pad1)*%
X201680000Y-172250000D03*
D13*
%TO.P,R3,1*%
%TO.N,Net-(R1-Pad2)*%
X209300000Y-172250000D03*
%TD*%
D14*
%TO.P,R2,2*%
%TO.N,Net-(R2-Pad2)*%
X201680000Y-176150000D03*
D13*
%TO.P,R2,1*%
%TO.N,NE555_OUT*%
X209300000Y-176150000D03*
%TD*%
D14*
%TO.P,R1,2*%
%TO.N,Net-(R1-Pad2)*%
X201650000Y-180050000D03*
D13*
%TO.P,R1,1*%
%TO.N,+5V*%
X209270000Y-180050000D03*
%TD*%
D15*
%TO.P,Q1,1*%
%TO.N,GND*%
X193350000Y-179700000D03*
D16*
%TO.P,Q1,3*%
%TO.N,Net-(Q1-Pad3)*%
X193350000Y-177160000D03*
%TO.P,Q1,2*%
%TO.N,NE555_OUT*%
X193350000Y-178430000D03*
%TD*%
D17*
%TO.P,NE1,2*%
%TO.N,Net-(NE1-Pad2)*%
X209400000Y-151835000D03*
D18*
%TO.P,NE1,1*%
%TO.N,ANODE_PIN*%
X209400000Y-154375000D03*
%TD*%
D19*
%TO.P,J5,3*%
%TO.N,GND*%
X98600000Y-165950000D03*
%TO.P,J5,2*%
%TO.N,ANODE_PIN*%
X98600000Y-168450000D03*
%TO.P,J5,1*%
%TO.N,+5V*%
%TA.AperFunction,ComponentPad*%
G36*
G01*
X99325000Y-171800000D02*
X97875000Y-171800000D01*
G75*
G02*
X97625000Y-171550000I0J250000D01*
G01*
X97625000Y-170350000D01*
G75*
G02*
X97875000Y-170100000I250000J0D01*
G01*
X99325000Y-170100000D01*
G75*
G02*
X99575000Y-170350000I0J-250000D01*
G01*
X99575000Y-171550000D01*
G75*
G02*
X99325000Y-171800000I-250000J0D01*
G01*
G37*
%TD.AperFunction*%
%TD*%
D20*
%TO.P,J4,10*%
%TO.N,Net-(J4-Pad10)*%
X303100000Y-126350000D03*
%TO.P,J4,9*%
%TO.N,Net-(J4-Pad9)*%
X300600000Y-126350000D03*
%TO.P,J4,8*%
%TO.N,Net-(J4-Pad8)*%
X298100000Y-126350000D03*
%TO.P,J4,7*%
%TO.N,Net-(J4-Pad7)*%
X295600000Y-126350000D03*
%TO.P,J4,6*%
%TO.N,Net-(J4-Pad6)*%
X293100000Y-126350000D03*
%TO.P,J4,5*%
%TO.N,Net-(J4-Pad5)*%
X290600000Y-126350000D03*
%TO.P,J4,4*%
%TO.N,Net-(J4-Pad4)*%
X288100000Y-126350000D03*
%TO.P,J4,3*%
%TO.N,Net-(J4-Pad3)*%
X285600000Y-126350000D03*
%TO.P,J4,2*%
%TO.N,Net-(J4-Pad2)*%
X283100000Y-126350000D03*
%TO.P,J4,1*%
%TO.N,Net-(J4-Pad1)*%
%TA.AperFunction,ComponentPad*%
G36*
G01*
X279750000Y-127075000D02*
X279750000Y-125625000D01*
G75*
G02*
X280000000Y-125375000I250000J0D01*
G01*
X281200000Y-125375000D01*
G75*
G02*
X281450000Y-125625000I0J-250000D01*
G01*
X281450000Y-127075000D01*
G75*
G02*
X281200000Y-127325000I-250000J0D01*
G01*
X280000000Y-127325000D01*
G75*
G02*
X279750000Y-127075000I0J250000D01*
G01*
G37*
%TD.AperFunction*%
%TD*%
%TO.P,J3,10*%
%TO.N,Net-(J3-Pad10)*%
X247700000Y-126350000D03*
%TO.P,J3,9*%
%TO.N,Net-(J3-Pad9)*%
X245200000Y-126350000D03*
%TO.P,J3,8*%
%TO.N,Net-(J3-Pad8)*%
X242700000Y-126350000D03*
%TO.P,J3,7*%
%TO.N,Net-(J3-Pad7)*%
X240200000Y-126350000D03*
%TO.P,J3,6*%
%TO.N,Net-(J3-Pad6)*%
X237700000Y-126350000D03*
%TO.P,J3,5*%
%TO.N,Net-(J3-Pad5)*%
X235200000Y-126350000D03*
%TO.P,J3,4*%
%TO.N,Net-(J3-Pad4)*%
X232700000Y-126350000D03*
%TO.P,J3,3*%
%TO.N,Net-(J3-Pad3)*%
X230200000Y-126350000D03*
%TO.P,J3,2*%
%TO.N,Net-(J3-Pad2)*%
X227700000Y-126350000D03*
%TO.P,J3,1*%
%TO.N,Net-(J3-Pad1)*%
%TA.AperFunction,ComponentPad*%
G36*
G01*
X224350000Y-127075000D02*
X224350000Y-125625000D01*
G75*
G02*
X224600000Y-125375000I250000J0D01*
G01*
X225800000Y-125375000D01*
G75*
G02*
X226050000Y-125625000I0J-250000D01*
G01*
X226050000Y-127075000D01*
G75*
G02*
X225800000Y-127325000I-250000J0D01*
G01*
X224600000Y-127325000D01*
G75*
G02*
X224350000Y-127075000I0J250000D01*
G01*
G37*
%TD.AperFunction*%
%TD*%
%TO.P,J2,10*%
%TO.N,Net-(J2-Pad10)*%
X192150000Y-126350000D03*
%TO.P,J2,9*%
%TO.N,Net-(J2-Pad9)*%
X189650000Y-126350000D03*
%TO.P,J2,8*%
%TO.N,Net-(J2-Pad8)*%
X187150000Y-126350000D03*
%TO.P,J2,7*%
%TO.N,Net-(J2-Pad7)*%
X184650000Y-126350000D03*
%TO.P,J2,6*%
%TO.N,Net-(J2-Pad6)*%
X182150000Y-126350000D03*
%TO.P,J2,5*%
%TO.N,Net-(J2-Pad5)*%
X179650000Y-126350000D03*
%TO.P,J2,4*%
%TO.N,Net-(J2-Pad4)*%
X177150000Y-126350000D03*
%TO.P,J2,3*%
%TO.N,Net-(J2-Pad3)*%
X174650000Y-126350000D03*
%TO.P,J2,2*%
%TO.N,Net-(J2-Pad2)*%
X172150000Y-126350000D03*
%TO.P,J2,1*%
%TO.N,Net-(J2-Pad1)*%
%TA.AperFunction,ComponentPad*%
G36*
G01*
X168800000Y-127075000D02*
X168800000Y-125625000D01*
G75*
G02*
X169050000Y-125375000I250000J0D01*
G01*
X170250000Y-125375000D01*
G75*
G02*
X170500000Y-125625000I0J-250000D01*
G01*
X170500000Y-127075000D01*
G75*
G02*
X170250000Y-127325000I-250000J0D01*
G01*
X169050000Y-127325000D01*
G75*
G02*
X168800000Y-127075000I0J250000D01*
G01*
G37*
%TD.AperFunction*%
%TD*%
%TO.P,J1,10*%
%TO.N,Net-(J1-Pad10)*%
X136500000Y-126350000D03*
%TO.P,J1,9*%
%TO.N,Net-(J1-Pad9)*%
X134000000Y-126350000D03*
%TO.P,J1,8*%
%TO.N,Net-(J1-Pad8)*%
X131500000Y-126350000D03*
%TO.P,J1,7*%
%TO.N,Net-(J1-Pad7)*%
X129000000Y-126350000D03*
%TO.P,J1,6*%
%TO.N,Net-(J1-Pad6)*%
X126500000Y-126350000D03*
%TO.P,J1,5*%
%TO.N,Net-(J1-Pad5)*%
X124000000Y-126350000D03*
%TO.P,J1,4*%
%TO.N,Net-(J1-Pad4)*%
X121500000Y-126350000D03*
%TO.P,J1,3*%
%TO.N,Net-(J1-Pad3)*%
X119000000Y-126350000D03*
%TO.P,J1,2*%
%TO.N,Net-(J1-Pad2)*%
X116500000Y-126350000D03*
%TO.P,J1,1*%
%TO.N,Net-(J1-Pad1)*%
%TA.AperFunction,ComponentPad*%
G36*
G01*
X113150000Y-127075000D02*
X113150000Y-125625000D01*
G75*
G02*
X113400000Y-125375000I250000J0D01*
G01*
X114600000Y-125375000D01*
G75*
G02*
X114850000Y-125625000I0J-250000D01*
G01*
X114850000Y-127075000D01*
G75*
G02*
X114600000Y-127325000I-250000J0D01*
G01*
X113400000Y-127325000D01*
G75*
G02*
X113150000Y-127075000I0J250000D01*
G01*
G37*
%TD.AperFunction*%
%TD*%
D21*
%TO.P,C1,2*%
%TO.N,GND*%
X191900000Y-169350000D03*
D11*
%TO.P,C1,1*%
%TO.N,Net-(C1-Pad1)*%
X194400000Y-169350000D03*
%TD*%
D22*
%TO.N,GND*%
X192350000Y-179700000D02*
X193350000Y-179700000D01*
X191900000Y-179250000D02*
X192350000Y-179700000D01*
X191900000Y-169350000D02*
X191900000Y-179250000D01*
%TO.N,Net-(C1-Pad1)*%
X198780000Y-169350000D02*
X201680000Y-172250000D01*
X194400000Y-169350000D02*
X198780000Y-169350000D01*
X220180000Y-174490000D02*
X222720000Y-177030000D01*
X215100000Y-174490000D02*
X220180000Y-174490000D01*
X203920000Y-174490000D02*
X215100000Y-174490000D01*
X201680000Y-172250000D02*
X203920000Y-174490000D01*
%TO.N,Net-(J1-Pad10)*%
X136500000Y-126350000D02*
X149400000Y-139250000D01*
X149400000Y-152600000D02*
X147625000Y-154375000D01*
X149400000Y-139250000D02*
X149400000Y-152600000D01*
%TO.N,Net-(J1-Pad9)*%
X147525000Y-139875000D02*
X147525000Y-149875000D01*
X134000000Y-126350000D02*
X147525000Y-139875000D01*
%TO.N,Net-(J1-Pad8)*%
X145925000Y-140775000D02*
X131500000Y-126350000D01*
X145925000Y-146375000D02*
X145925000Y-140775000D01*
%TO.N,Net-(J1-Pad7)*%
X129000000Y-132450000D02*
X141925000Y-145375000D01*
X129000000Y-126350000D02*
X129000000Y-132450000D01*
%TO.N,Net-(J1-Pad6)*%
X126500000Y-134950000D02*
X137925000Y-146375000D01*
X126500000Y-126350000D02*
X126500000Y-134950000D01*
%TO.N,Net-(J1-Pad5)*%
X124000000Y-137550000D02*
X136325000Y-149875000D01*
X124000000Y-126350000D02*
X124000000Y-137550000D01*
%TO.N,Net-(J1-Pad4)*%
X121500000Y-139650000D02*
X121500000Y-126350000D01*
X136225000Y-154375000D02*
X121500000Y-139650000D01*
%TO.N,Net-(J1-Pad3)*%
X119000000Y-141550000D02*
X119000000Y-126350000D01*
X136325000Y-158875000D02*
X119000000Y-141550000D01*
%TO.N,Net-(J1-Pad2)*%
X116500000Y-126350000D02*
X116500000Y-142150000D01*
X136725000Y-162375000D02*
X137925000Y-162375000D01*
X116500000Y-142150000D02*
X136725000Y-162375000D01*
%TO.N,Net-(J2-Pad10)*%
X192150000Y-144325000D02*
X182100000Y-154375000D01*
X192150000Y-126350000D02*
X192150000Y-144325000D01*
%TO.N,Net-(J2-Pad9)*%
X189650000Y-142225000D02*
X182000000Y-149875000D01*
X189650000Y-126350000D02*
X189650000Y-142225000D01*
%TO.N,Net-(J2-Pad8)*%
X187150000Y-139625000D02*
X180400000Y-146375000D01*
X187150000Y-126350000D02*
X187150000Y-139625000D01*
%TO.N,Net-(J2-Pad7)*%
X184650000Y-137125000D02*
X176400000Y-145375000D01*
X184650000Y-126350000D02*
X184650000Y-137125000D01*
%TO.N,Net-(J2-Pad6)*%
X172400000Y-136100000D02*
X182150000Y-126350000D01*
X172400000Y-146375000D02*
X172400000Y-136100000D01*
%TO.N,Net-(J2-Pad5)*%
X170800000Y-135200000D02*
X170800000Y-149875000D01*
X179650000Y-126350000D02*
X170800000Y-135200000D01*
%TO.N,Net-(J2-Pad4)*%
X170700000Y-154375000D02*
X169150000Y-152825000D01*
X169150000Y-134350000D02*
X177150000Y-126350000D01*
X169150000Y-152825000D02*
X169150000Y-134350000D01*
%TO.N,Net-(J2-Pad3)*%
X170800000Y-158875000D02*
X167600000Y-155675000D01*
X167600000Y-133400000D02*
X174650000Y-126350000D01*
X167600000Y-155675000D02*
X167600000Y-133400000D01*
%TO.N,Net-(J2-Pad2)*%
X172150000Y-126350000D02*
X172000000Y-126350000D01*
X172150000Y-126350000D02*
X172150000Y-126500000D01*
X172150000Y-126500000D02*
X165650000Y-133000000D01*
X165650000Y-133000000D02*
X165650000Y-157000000D01*
X171025000Y-162375000D02*
X172400000Y-162375000D01*
X165650000Y-157000000D02*
X171025000Y-162375000D01*
%TO.N,Net-(J2-Pad1)*%
X169650000Y-126350000D02*
X169574989Y-126425011D01*
X169650000Y-126350000D02*
X169374989Y-126625011D01*
%TO.N,Net-(J3-Pad10)*%
X249075001Y-153399999D02*
X248100000Y-154375000D01*
X249075001Y-127725001D02*
X249075001Y-153399999D01*
X247700000Y-126350000D02*
X249075001Y-127725001D01*
%TO.N,Net-(J3-Pad9)*%
X248000000Y-129150000D02*
X245200000Y-126350000D01*
X248000000Y-149875000D02*
X248000000Y-129150000D01*
%TO.N,Net-(J3-Pad8)*%
X242700000Y-142675000D02*
X246400000Y-146375000D01*
X242700000Y-126350000D02*
X242700000Y-142675000D01*
%TO.N,Net-(J3-Pad7)*%
X240200000Y-143175000D02*
X242400000Y-145375000D01*
X240200000Y-126350000D02*
X240200000Y-143175000D01*
%TO.N,Net-(J3-Pad6)*%
X237700000Y-145675000D02*
X238400000Y-146375000D01*
X237700000Y-126350000D02*
X237700000Y-145675000D01*
%TO.N,Net-(J3-Pad5)*%
X235200000Y-148275000D02*
X236800000Y-149875000D01*
X235200000Y-126350000D02*
X235200000Y-148275000D01*
%TO.N,Net-(J3-Pad4)*%
X232700000Y-150375000D02*
X232700000Y-126350000D01*
X236700000Y-154375000D02*
X232700000Y-150375000D01*
%TO.N,Net-(J3-Pad3)*%
X230200000Y-152275000D02*
X230200000Y-126350000D01*
X236800000Y-158875000D02*
X230200000Y-152275000D01*
%TO.N,Net-(J3-Pad2)*%
X238400000Y-162375000D02*
X236525000Y-162375000D01*
X227700000Y-153550000D02*
X227700000Y-126350000D01*
X236525000Y-162375000D02*
X227700000Y-153550000D01*
%TO.N,Net-(J4-Pad10)*%
X303100000Y-133850000D02*
X282575000Y-154375000D01*
X303100000Y-126350000D02*
X303100000Y-133850000D01*
%TO.N,Net-(J4-Pad9)*%
X300600000Y-131750000D02*
X300600000Y-126350000D01*
X282475000Y-149875000D02*
X300600000Y-131750000D01*
%TO.N,Net-(J4-Pad8)*%
X298100000Y-129150000D02*
X280875000Y-146375000D01*
X298100000Y-126350000D02*
X298100000Y-129150000D01*
%TO.N,Net-(J4-Pad7)*%
X295600000Y-126650000D02*
X295600000Y-126350000D01*
X276875000Y-145375000D02*
X295600000Y-126650000D01*
%TO.N,Net-(J4-Pad6)*%
X292900000Y-126350000D02*
X293100000Y-126350000D01*
X272875000Y-146375000D02*
X292900000Y-126350000D01*
%TO.N,Net-(J4-Pad5)*%
X271275000Y-145675000D02*
X271275000Y-149875000D01*
X290600000Y-126350000D02*
X271275000Y-145675000D01*
%TO.N,Net-(J4-Pad4)*%
X270199999Y-144250001D02*
X288100000Y-126350000D01*
X270199999Y-153399999D02*
X270199999Y-144250001D01*
X271175000Y-154375000D02*
X270199999Y-153399999D01*
%TO.N,Net-(J4-Pad3)*%
X271275000Y-158875000D02*
X269050000Y-156650000D01*
X269050000Y-142900000D02*
X285600000Y-126350000D01*
X269050000Y-156650000D02*
X269050000Y-142900000D01*
%TO.N,Net-(J4-Pad2)*%
X283100000Y-126350000D02*
X267950000Y-141500000D01*
X267950000Y-157450000D02*
X272875000Y-162375000D01*
X267950000Y-141500000D02*
X267950000Y-157450000D01*
%TO.N,Net-(J4-Pad1)*%
X280600000Y-126350000D02*
X279750000Y-126350000D01*
%TO.N,ANODE_PIN*%
X139850000Y-168450000D02*
X145925000Y-162375000D01*
X98600000Y-168450000D02*
X139850000Y-168450000D01*
X178324999Y-164450001D02*
X180400000Y-162375000D01*
X148000001Y-164450001D02*
X178324999Y-164450001D01*
X145925000Y-162375000D02*
X148000001Y-164450001D01*
X201400000Y-162375000D02*
X209400000Y-154375000D01*
X180400000Y-162375000D02*
X201400000Y-162375000D01*
X244324999Y-164450001D02*
X246400000Y-162375000D01*
X182475001Y-164450001D02*
X244324999Y-164450001D01*
X180400000Y-162375000D02*
X182475001Y-164450001D01*
X278799999Y-164450001D02*
X280875000Y-162375000D01*
X248475001Y-164450001D02*
X278799999Y-164450001D01*
X246400000Y-162375000D02*
X248475001Y-164450001D01*
%TO.N,+5V*%
X214620000Y-180050000D02*
X215100000Y-179570000D01*
X209270000Y-180050000D02*
X214620000Y-180050000D01*
%TO.N,NE555_OUT*%
X207020000Y-178430000D02*
X209300000Y-176150000D01*
X193350000Y-178430000D02*
X207020000Y-178430000D01*
%TO.N,Net-(R1-Pad2)*%
X219054999Y-170824999D02*
X222720000Y-174490000D01*
X210725001Y-170824999D02*
X219054999Y-170824999D01*
X209300000Y-172250000D02*
X210725001Y-170824999D01*
X223845001Y-175615001D02*
X222720000Y-174490000D01*
X223845001Y-180110001D02*
X223845001Y-175615001D01*
X202675001Y-181075001D02*
X222880001Y-181075001D01*
X222880001Y-181075001D02*
X223845001Y-180110001D01*
X201650000Y-180050000D02*
X202675001Y-181075001D01*
%TO.N,Net-(R2-Pad2)*%
X213194999Y-175124999D02*
X215100000Y-177030000D01*
X202705001Y-175124999D02*
X213194999Y-175124999D01*
X201680000Y-176150000D02*
X202705001Y-175124999D01*
%TD*%
D23*
%TO.N,GND*%
X322247064Y-122647195D02*
X322580912Y-122747990D01*
X322888821Y-122911708D01*
X323159065Y-123132115D01*
X323381353Y-123400813D01*
X323547217Y-123707572D01*
X323650340Y-124040710D01*
X323690000Y-124418051D01*
X323690001Y-184317711D01*
X323652805Y-184697064D01*
X323552011Y-185030909D01*
X323388293Y-185338820D01*
X323167888Y-185609063D01*
X322899184Y-185831354D01*
X322592426Y-185997218D01*
X322259291Y-186100340D01*
X321881948Y-186140000D01*
X96932279Y-186140000D01*
X96552936Y-186102805D01*
X96219091Y-186002011D01*
X95911180Y-185838293D01*
X95640937Y-185617888D01*
X95418646Y-185349184D01*
X95252782Y-185042426D01*
X95149660Y-184709291D01*
X95110000Y-184331948D01*
X95110000Y-184184042D01*
X95215000Y-184184042D01*
X95215000Y-184515958D01*
X95279754Y-184841496D01*
X95406772Y-185148147D01*
X95591175Y-185424125D01*
X95825875Y-185658825D01*
X96101853Y-185843228D01*
X96408504Y-185970246D01*
X96734042Y-186035000D01*
X97065958Y-186035000D01*
X97391496Y-185970246D01*
X97698147Y-185843228D01*
X97974125Y-185658825D01*
X98208825Y-185424125D01*
X98393228Y-185148147D01*
X98520246Y-184841496D01*
X98585000Y-184515958D01*
X98585000Y-184184042D01*
X320215000Y-184184042D01*
X320215000Y-184515958D01*
X320279754Y-184841496D01*
X320406772Y-185148147D01*
X320591175Y-185424125D01*
X320825875Y-185658825D01*
X321101853Y-185843228D01*
X321408504Y-185970246D01*
X321734042Y-186035000D01*
X322065958Y-186035000D01*
X322391496Y-185970246D01*
X322698147Y-185843228D01*
X322974125Y-185658825D01*
X323208825Y-185424125D01*
X323393228Y-185148147D01*
X323520246Y-184841496D01*
X323585000Y-184515958D01*
X323585000Y-184184042D01*
X323520246Y-183858504D01*
X323393228Y-183551853D01*
X323208825Y-183275875D01*
X322974125Y-183041175D01*
X322698147Y-182856772D01*
X322391496Y-182729754D01*
X322065958Y-182665000D01*
X321734042Y-182665000D01*
X321408504Y-182729754D01*
X321101853Y-182856772D01*
X320825875Y-183041175D01*
X320591175Y-183275875D01*
X320406772Y-183551853D01*
X320279754Y-183858504D01*
X320215000Y-184184042D01*
X98585000Y-184184042D01*
X98520246Y-183858504D01*
X98393228Y-183551853D01*
X98208825Y-183275875D01*
X97974125Y-183041175D01*
X97698147Y-182856772D01*
X97391496Y-182729754D01*
X97065958Y-182665000D01*
X96734042Y-182665000D01*
X96408504Y-182729754D01*
X96101853Y-182856772D01*
X95825875Y-183041175D01*
X95591175Y-183275875D01*
X95406772Y-183551853D01*
X95279754Y-183858504D01*
X95215000Y-184184042D01*
X95110000Y-184184042D01*
X95110000Y-180225000D01*
X191961928Y-180225000D01*
X191974188Y-180349482D01*
X192010498Y-180469180D01*
X192069463Y-180579494D01*
X192148815Y-180676185D01*
X192245506Y-180755537D01*
X192355820Y-180814502D01*
X192475518Y-180850812D01*
X192600000Y-180863072D01*
X193064250Y-180860000D01*
X193223000Y-180701250D01*
X193223000Y-179827000D01*
X193477000Y-179827000D01*
X193477000Y-180701250D01*
X193635750Y-180860000D01*
X194100000Y-180863072D01*
X194224482Y-180850812D01*
X194344180Y-180814502D01*
X194454494Y-180755537D01*
X194551185Y-180676185D01*
X194630537Y-180579494D01*
X194689502Y-180469180D01*
X194725812Y-180349482D01*
X194738072Y-180225000D01*
X194735000Y-179985750D01*
X194576250Y-179827000D01*
X193477000Y-179827000D01*
X193223000Y-179827000D01*
X192123750Y-179827000D01*
X191965000Y-179985750D01*
X191961928Y-180225000D01*
X95110000Y-180225000D01*
X95110000Y-177160000D01*
X191959388Y-177160000D01*
X191981785Y-177387400D01*
X192048115Y-177606060D01*
X192149105Y-177795000D01*
X192048115Y-177983940D01*
X191981785Y-178202600D01*
X191959388Y-178430000D01*
X191981785Y-178657400D01*
X192045093Y-178866098D01*
X192010498Y-178930820D01*
X191974188Y-179050518D01*
X191961928Y-179175000D01*
X191965000Y-179414250D01*
X192123750Y-179573000D01*
X192896891Y-179573000D01*
X192897600Y-179573215D01*
X193068021Y-179590000D01*
X193631979Y-179590000D01*
X193802400Y-179573215D01*
X193803109Y-179573000D01*
X194576250Y-179573000D01*
X194735000Y-179414250D01*
X194737879Y-179190000D01*
X200622025Y-179190000D01*
X200613038Y-179198987D01*
X200466939Y-179417641D01*
X200366304Y-179660595D01*
X200315000Y-179918514D01*
X200315000Y-180181486D01*
X200366304Y-180439405D01*
X200466939Y-180682359D01*
X200613038Y-180901013D01*
X200798987Y-181086962D01*
X201017641Y-181233061D01*
X201260595Y-181333696D01*
X201518514Y-181385000D01*
X201781486Y-181385000D01*
X201888843Y-181363645D01*
X202111202Y-181586004D01*
X202135000Y-181615002D01*
X202250725Y-181709975D01*
X202382754Y-181780547D01*
X202526015Y-181824004D01*
X202637668Y-181835001D01*
X202637677Y-181835001D01*
X202675000Y-181838677D01*
X202712323Y-181835001D01*
X222842679Y-181835001D01*
X222880001Y-181838677D01*
X222917323Y-181835001D01*
X222917334Y-181835001D01*
X223028987Y-181824004D01*
X223172248Y-181780547D01*
X223304277Y-181709975D01*
X223420002Y-181615002D01*
X223443805Y-181585999D01*
X224356005Y-180673799D01*
X224385002Y-180650002D01*
X224434244Y-180590001D01*
X224479975Y-180534278D01*
X224550547Y-180402248D01*
X224566553Y-180349482D01*
X224594004Y-180258987D01*
X224605001Y-180147334D01*
X224605001Y-180147325D01*
X224608677Y-180110002D01*
X224605001Y-180072679D01*
X224605001Y-175652326D01*
X224608677Y-175615001D01*
X224605001Y-175577676D01*
X224605001Y-175577668D01*
X224594004Y-175466015D01*
X224550547Y-175322754D01*
X224479975Y-175190725D01*
X224385002Y-175075000D01*
X224356004Y-175051202D01*
X224118688Y-174813886D01*
X224155000Y-174631335D01*
X224155000Y-174348665D01*
X224099853Y-174071426D01*
X223991680Y-173810273D01*
X223834637Y-173575241D01*
X223634759Y-173375363D01*
X223402241Y-173220000D01*
X223634759Y-173064637D01*
X223834637Y-172864759D01*
X223991680Y-172629727D01*
X224099853Y-172368574D01*
X224155000Y-172091335D01*
X224155000Y-171808665D01*
X224099853Y-171531426D01*
X223991680Y-171270273D01*
X223834637Y-171035241D01*
X223634759Y-170835363D01*
X223399727Y-170678320D01*
X223138574Y-170570147D01*
X222861335Y-170515000D01*
X222578665Y-170515000D01*
X222301426Y-170570147D01*
X222040273Y-170678320D01*
X221805241Y-170835363D01*
X221605363Y-171035241D01*
X221448320Y-171270273D01*
X221340147Y-171531426D01*
X221285000Y-171808665D01*
X221285000Y-171980199D01*
X219618803Y-170314002D01*
X219595000Y-170284998D01*
X219479275Y-170190025D01*
X219347246Y-170119453D01*
X219203985Y-170075996D01*
X219092332Y-170064999D01*
X219092321Y-170064999D01*
X219054999Y-170061323D01*
X219017677Y-170064999D01*
X210762326Y-170064999D01*
X210725001Y-170061323D01*
X210687676Y-170064999D01*
X210687668Y-170064999D01*
X210576015Y-170075996D01*
X210432754Y-170119453D01*
X210300725Y-170190025D01*
X210185000Y-170284998D01*
X210161202Y-170313996D01*
X209538843Y-170936355D01*
X209431486Y-170915000D01*
X209168514Y-170915000D01*
X208910595Y-170966304D01*
X208667641Y-171066939D01*
X208448987Y-171213038D01*
X208263038Y-171398987D01*
X208116939Y-171617641D01*
X208016304Y-171860595D01*
X207965000Y-172118514D01*
X207965000Y-172381486D01*
X208016304Y-172639405D01*
X208116939Y-172882359D01*
X208263038Y-173101013D01*
X208448987Y-173286962D01*
X208667641Y-173433061D01*
X208910595Y-173533696D01*
X209168514Y-173585000D01*
X209431486Y-173585000D01*
X209689405Y-173533696D01*
X209932359Y-173433061D01*
X210151013Y-173286962D01*
X210336962Y-173101013D01*
X210483061Y-172882359D01*
X210583696Y-172639405D01*
X210635000Y-172381486D01*
X210635000Y-172118514D01*
X210613645Y-172011157D01*
X211039803Y-171584999D01*
X213664527Y-171584999D01*
X213665000Y-171664250D01*
X213823750Y-171823000D01*
X214973000Y-171823000D01*
X214973000Y-171803000D01*
X215227000Y-171803000D01*
X215227000Y-171823000D01*
X216376250Y-171823000D01*
X216535000Y-171664250D01*
X216535473Y-171584999D01*
X218740198Y-171584999D01*
X221321312Y-174166114D01*
X221285000Y-174348665D01*
X221285000Y-174520199D01*
X220743804Y-173979003D01*
X220720001Y-173949999D01*
X220604276Y-173855026D01*
X220472247Y-173784454D01*
X220328986Y-173740997D01*
X220217333Y-173730000D01*
X220217322Y-173730000D01*
X220180000Y-173726324D01*
X220142678Y-173730000D01*
X216318043Y-173730000D01*
X216214637Y-173575241D01*
X216016039Y-173376643D01*
X216024482Y-173375812D01*
X216144180Y-173339502D01*
X216254494Y-173280537D01*
X216351185Y-173201185D01*
X216430537Y-173104494D01*
X216489502Y-172994180D01*
X216525812Y-172874482D01*
X216538072Y-172750000D01*
X216535000Y-172235750D01*
X216376250Y-172077000D01*
X215227000Y-172077000D01*
X215227000Y-172097000D01*
X214973000Y-172097000D01*
X214973000Y-172077000D01*
X213823750Y-172077000D01*
X213665000Y-172235750D01*
X213661928Y-172750000D01*
X213674188Y-172874482D01*
X213710498Y-172994180D01*
X213769463Y-173104494D01*
X213848815Y-173201185D01*
X213945506Y-173280537D01*
X214055820Y-173339502D01*
X214175518Y-173375812D01*
X214183961Y-173376643D01*
X213985363Y-173575241D01*
X213881957Y-173730000D01*
X204234803Y-173730000D01*
X202993645Y-172488843D01*
X203015000Y-172381486D01*
X203015000Y-172118514D01*
X202963696Y-171860595D01*
X202863061Y-171617641D01*
X202716962Y-171398987D01*
X202531013Y-171213038D01*
X202312359Y-171066939D01*
X202069405Y-170966304D01*
X201811486Y-170915000D01*
X201548514Y-170915000D01*
X201441157Y-170936355D01*
X199343804Y-168839003D01*
X199320001Y-168809999D01*
X199204276Y-168715026D01*
X199072247Y-168644454D01*
X198928986Y-168600997D01*
X198817333Y-168590000D01*
X198817322Y-168590000D01*
X198780000Y-168586324D01*
X198742678Y-168590000D01*
X195838072Y-168590000D01*
X195838072Y-168550000D01*
X195830047Y-168468514D01*
X200345000Y-168468514D01*
X200345000Y-168731486D01*
X200396304Y-168989405D01*
X200496939Y-169232359D01*
X200643038Y-169451013D01*
X200828987Y-169636962D01*
X201047641Y-169783061D01*
X201290595Y-169883696D01*
X201548514Y-169935000D01*
X201811486Y-169935000D01*
X202069405Y-169883696D01*
X202312359Y-169783061D01*
X202531013Y-169636962D01*
X202716962Y-169451013D01*
X202863061Y-169232359D01*
X202963696Y-168989405D01*
X203015000Y-168731486D01*
X203015000Y-168468514D01*
X207965000Y-168468514D01*
X207965000Y-168731486D01*
X208016304Y-168989405D01*
X208116939Y-169232359D01*
X208263038Y-169451013D01*
X208448987Y-169636962D01*
X208667641Y-169783061D01*
X208910595Y-169883696D01*
X209168514Y-169935000D01*
X209431486Y-169935000D01*
X209689405Y-169883696D01*
X209932359Y-169783061D01*
X210151013Y-169636962D01*
X210336962Y-169451013D01*
X210483061Y-169232359D01*
X210583696Y-168989405D01*
X210635000Y-168731486D01*
X210635000Y-168468514D01*
X210583696Y-168210595D01*
X210483061Y-167967641D01*
X210336962Y-167748987D01*
X210151013Y-167563038D01*
X209932359Y-167416939D01*
X209689405Y-167316304D01*
X209431486Y-167265000D01*
X209168514Y-167265000D01*
X208910595Y-167316304D01*
X208667641Y-167416939D01*
X208448987Y-167563038D01*
X208263038Y-167748987D01*
X208116939Y-167967641D01*
X208016304Y-168210595D01*
X207965000Y-168468514D01*
X203015000Y-168468514D01*
X202963696Y-168210595D01*
X202863061Y-167967641D01*
X202716962Y-167748987D01*
X202531013Y-167563038D01*
X202312359Y-167416939D01*
X202069405Y-167316304D01*
X201811486Y-167265000D01*
X201548514Y-167265000D01*
X201290595Y-167316304D01*
X201047641Y-167416939D01*
X200828987Y-167563038D01*
X200643038Y-167748987D01*
X200496939Y-167967641D01*
X200396304Y-168210595D01*
X200345000Y-168468514D01*
X195830047Y-168468514D01*
X195825812Y-168425518D01*
X195789502Y-168305820D01*
X195730537Y-168195506D01*
X195651185Y-168098815D01*
X195554494Y-168019463D01*
X195444180Y-167960498D01*
X195324482Y-167924188D01*
X195200000Y-167911928D01*
X193600000Y-167911928D01*
X193475518Y-167924188D01*
X193355820Y-167960498D01*
X193245506Y-168019463D01*
X193148815Y-168098815D01*
X193069463Y-168195506D01*
X193010498Y-168305820D01*
X192974188Y-168425518D01*
X192961928Y-168550000D01*
X192961928Y-168557215D01*
X192892702Y-168536903D01*
X192079605Y-169350000D01*
X192892702Y-170163097D01*
X192961928Y-170142785D01*
X192961928Y-170150000D01*
X192974188Y-170274482D01*
X193010498Y-170394180D01*
X193069463Y-170504494D01*
X193148815Y-170601185D01*
X193245506Y-170680537D01*
X193355820Y-170739502D01*
X193475518Y-170775812D01*
X193600000Y-170788072D01*
X195200000Y-170788072D01*
X195324482Y-170775812D01*
X195444180Y-170739502D01*
X195554494Y-170680537D01*
X195651185Y-170601185D01*
X195730537Y-170504494D01*
X195789502Y-170394180D01*
X195825812Y-170274482D01*
X195838072Y-170150000D01*
X195838072Y-170110000D01*
X198465199Y-170110000D01*
X200366355Y-172011157D01*
X200345000Y-172118514D01*
X200345000Y-172381486D01*
X200396304Y-172639405D01*
X200496939Y-172882359D01*
X200643038Y-173101013D01*
X200828987Y-173286962D01*
X201047641Y-173433061D01*
X201290595Y-173533696D01*
X201548514Y-173585000D01*
X201811486Y-173585000D01*
X201918843Y-173563645D01*
X202717779Y-174362582D01*
X202705000Y-174361323D01*
X202667677Y-174364999D01*
X202667668Y-174364999D01*
X202556015Y-174375996D01*
X202412754Y-174419453D01*
X202280725Y-174490025D01*
X202165000Y-174584998D01*
X202141202Y-174613996D01*
X201918843Y-174836355D01*
X201811486Y-174815000D01*
X201548514Y-174815000D01*
X201290595Y-174866304D01*
X201047641Y-174966939D01*
X200828987Y-175113038D01*
X200643038Y-175298987D01*
X200496939Y-175517641D01*
X200396304Y-175760595D01*
X200345000Y-176018514D01*
X200345000Y-176281486D01*
X200396304Y-176539405D01*
X200496939Y-176782359D01*
X200643038Y-177001013D01*
X200828987Y-177186962D01*
X201047641Y-177333061D01*
X201290595Y-177433696D01*
X201548514Y-177485000D01*
X201811486Y-177485000D01*
X202069405Y-177433696D01*
X202312359Y-177333061D01*
X202531013Y-177186962D01*
X202716962Y-177001013D01*
X202863061Y-176782359D01*
X202963696Y-176539405D01*
X203015000Y-176281486D01*
X203015000Y-176018514D01*
X202993645Y-175911157D01*
X203019803Y-175884999D01*
X207991558Y-175884999D01*
X207965000Y-176018514D01*
X207965000Y-176281486D01*
X207986355Y-176388843D01*
X206705199Y-177670000D01*
X194617708Y-177670000D01*
X194651885Y-177606060D01*
X194718215Y-177387400D01*
X194740612Y-177160000D01*
X194718215Y-176932600D01*
X194651885Y-176713940D01*
X194544171Y-176512421D01*
X194399212Y-176335788D01*
X194222579Y-176190829D01*
X194021060Y-176083115D01*
X193802400Y-176016785D01*
X193631979Y-176000000D01*
X193068021Y-176000000D01*
X192897600Y-176016785D01*
X192678940Y-176083115D01*
X192477421Y-176190829D01*
X192300788Y-176335788D01*
X192155829Y-176512421D01*
X192048115Y-176713940D01*
X191981785Y-176932600D01*
X191959388Y-177160000D01*
X95110000Y-177160000D01*
X95110000Y-168450000D01*
X96982815Y-168450000D01*
X97011487Y-168741111D01*
X97096401Y-169021034D01*
X97234294Y-169279014D01*
X97419866Y-169505134D01*
X97483337Y-169557223D01*
X97381614Y-169611595D01*
X97247038Y-169722038D01*
X97136595Y-169856614D01*
X97054528Y-170010150D01*
X97003992Y-170176746D01*
X96986928Y-170350000D01*
X96986928Y-171550000D01*
X97003992Y-171723254D01*
X97054528Y-171889850D01*
X97136595Y-172043386D01*
X97247038Y-172177962D01*
X97381614Y-172288405D01*
X97535150Y-172370472D01*
X97701746Y-172421008D01*
X97875000Y-172438072D01*
X99325000Y-172438072D01*
X99498254Y-172421008D01*
X99664850Y-172370472D01*
X99818386Y-172288405D01*
X99952962Y-172177962D01*
X100063405Y-172043386D01*
X100145472Y-171889850D01*
X100196008Y-171723254D01*
X100213072Y-171550000D01*
X100213072Y-170350000D01*
X100212354Y-170342702D01*
X191086903Y-170342702D01*
X191158486Y-170586671D01*
X191413996Y-170707571D01*
X191688184Y-170776300D01*
X191970512Y-170790217D01*
X192250130Y-170748787D01*
X192516292Y-170653603D01*
X192641514Y-170586671D01*
X192713097Y-170342702D01*
X191900000Y-169529605D01*
X191086903Y-170342702D01*
X100212354Y-170342702D01*
X100196008Y-170176746D01*
X100145472Y-170010150D01*
X100063405Y-169856614D01*
X99952962Y-169722038D01*
X99818386Y-169611595D01*
X99716663Y-169557223D01*
X99780134Y-169505134D01*
X99849581Y-169420512D01*
X190459783Y-169420512D01*
X190501213Y-169700130D01*
X190596397Y-169966292D01*
X190663329Y-170091514D01*
X190907298Y-170163097D01*
X191720395Y-169350000D01*
X190907298Y-168536903D01*
X190663329Y-168608486D01*
X190542429Y-168863996D01*
X190473700Y-169138184D01*
X190459783Y-169420512D01*
X99849581Y-169420512D01*
X99965706Y-169279014D01*
X100002595Y-169210000D01*
X139812678Y-169210000D01*
X139850000Y-169213676D01*
X139887322Y-169210000D01*
X139887333Y-169210000D01*
X139998986Y-169199003D01*
X140142247Y-169155546D01*
X140274276Y-169084974D01*
X140390001Y-168990001D01*
X140413804Y-168960997D01*
X141017503Y-168357298D01*
X191086903Y-168357298D01*
X191900000Y-169170395D01*
X192713097Y-168357298D01*
X192641514Y-168113329D01*
X192386004Y-167992429D01*
X192111816Y-167923700D01*
X191829488Y-167909783D01*
X191549870Y-167951213D01*
X191283708Y-168046397D01*
X191158486Y-168113329D01*
X191086903Y-168357298D01*
X141017503Y-168357298D01*
X145643636Y-163731167D01*
X145788589Y-163760000D01*
X146061411Y-163760000D01*
X146206365Y-163731167D01*
X147436202Y-164961004D01*
X147460000Y-164990002D01*
X147488998Y-165013800D01*
X147575725Y-165084975D01*
X147707754Y-165155547D01*
X147851015Y-165199004D01*
X148000001Y-165213678D01*
X148037334Y-165210001D01*
X178287677Y-165210001D01*
X178324999Y-165213677D01*
X178362321Y-165210001D01*
X178362332Y-165210001D01*
X178473985Y-165199004D01*
X178617246Y-165155547D01*
X178749275Y-165084975D01*
X178865000Y-164990002D01*
X178888803Y-164960998D01*
X180118635Y-163731167D01*
X180263589Y-163760000D01*
X180536411Y-163760000D01*
X180681365Y-163731167D01*
X181911202Y-164961004D01*
X181935000Y-164990002D01*
X181963998Y-165013800D01*
X182050725Y-165084975D01*
X182182754Y-165155547D01*
X182326015Y-165199004D01*
X182475001Y-165213678D01*
X182512334Y-165210001D01*
X244287677Y-165210001D01*
X244324999Y-165213677D01*
X244362321Y-165210001D01*
X244362332Y-165210001D01*
X244473985Y-165199004D01*
X244617246Y-165155547D01*
X244749275Y-165084975D01*
X244865000Y-164990002D01*
X244888803Y-164960998D01*
X246118635Y-163731167D01*
X246263589Y-163760000D01*
X246536411Y-163760000D01*
X246681365Y-163731167D01*
X247911202Y-164961004D01*
X247935000Y-164990002D01*
X247963998Y-165013800D01*
X248050725Y-165084975D01*
X248182754Y-165155547D01*
X248326015Y-165199004D01*
X248475001Y-165213678D01*
X248512334Y-165210001D01*
X278762677Y-165210001D01*
X278799999Y-165213677D01*
X278837321Y-165210001D01*
X278837332Y-165210001D01*
X278948985Y-165199004D01*
X279092246Y-165155547D01*
X279224275Y-165084975D01*
X279340000Y-164990002D01*
X279363803Y-164960998D01*
X280593635Y-163731167D01*
X280738589Y-163760000D01*
X281011411Y-163760000D01*
X281278989Y-163706775D01*
X281531043Y-163602371D01*
X281757886Y-163450799D01*
X281950799Y-163257886D01*
X282102371Y-163031043D01*
X282206775Y-162778989D01*
X282260000Y-162511411D01*
X282260000Y-162238589D01*
X282206775Y-161971011D01*
X282102371Y-161718957D01*
X281950799Y-161492114D01*
X281757886Y-161299201D01*
X281531043Y-161147629D01*
X281278989Y-161043225D01*
X281011411Y-160990000D01*
X280738589Y-160990000D01*
X280471011Y-161043225D01*
X280218957Y-161147629D01*
X279992114Y-161299201D01*
X279799201Y-161492114D01*
X279647629Y-161718957D01*
X279543225Y-161971011D01*
X279490000Y-162238589D01*
X279490000Y-162511411D01*
X279518833Y-162656365D01*
X278485198Y-163690001D01*
X278224476Y-163690001D01*
X278260000Y-163511411D01*
X278260000Y-163238589D01*
X278206775Y-162971011D01*
X278102371Y-162718957D01*
X277950799Y-162492114D01*
X277757886Y-162299201D01*
X277531043Y-162147629D01*
X277278989Y-162043225D01*
X277011411Y-161990000D01*
X276738589Y-161990000D01*
X276471011Y-162043225D01*
X276218957Y-162147629D01*
X275992114Y-162299201D01*
X275799201Y-162492114D01*
X275647629Y-162718957D01*
X275543225Y-162971011D01*
X275490000Y-163238589D01*
X275490000Y-163511411D01*
X275525524Y-163690001D01*
X273319485Y-163690001D01*
X273531043Y-163602371D01*
X273757886Y-163450799D01*
X273950799Y-163257886D01*
X274102371Y-163031043D01*
X274206775Y-162778989D01*
X274260000Y-162511411D01*
X274260000Y-162238589D01*
X274206775Y-161971011D01*
X274102371Y-161718957D01*
X273950799Y-161492114D01*
X273757886Y-161299201D01*
X273531043Y-161147629D01*
X273278989Y-161043225D01*
X273011411Y-160990000D01*
X272738589Y-160990000D01*
X272593635Y-161018833D01*
X271751529Y-160176728D01*
X271931043Y-160102371D01*
X272157886Y-159950799D01*
X272350799Y-159757886D01*
X272502371Y-159531043D01*
X272606775Y-159278989D01*
X272660000Y-159011411D01*
X272660000Y-158738589D01*
X281090000Y-158738589D01*
X281090000Y-159011411D01*
X281143225Y-159278989D01*
X281247629Y-159531043D01*
X281399201Y-159757886D01*
X281592114Y-159950799D01*
X281818957Y-160102371D01*
X282071011Y-160206775D01*
X282338589Y-160260000D01*
X282611411Y-160260000D01*
X282878989Y-160206775D01*
X283131043Y-160102371D01*
X283357886Y-159950799D01*
X283550799Y-159757886D01*
X283702371Y-159531043D01*
X283806775Y-159278989D01*
X283860000Y-159011411D01*
X283860000Y-158738589D01*
X283806775Y-158471011D01*
X283702371Y-158218957D01*
X283550799Y-157992114D01*
X283357886Y-157799201D01*
X283131043Y-157647629D01*
X282878989Y-157543225D01*
X282611411Y-157490000D01*
X282338589Y-157490000D01*
X282071011Y-157543225D01*
X281818957Y-157647629D01*
X281592114Y-157799201D01*
X281399201Y-157992114D01*
X281247629Y-158218957D01*
X281143225Y-158471011D01*
X281090000Y-158738589D01*
X272660000Y-158738589D01*
X272606775Y-158471011D01*
X272502371Y-158218957D01*
X272350799Y-157992114D01*
X272157886Y-157799201D01*
X271931043Y-157647629D01*
X271678989Y-157543225D01*
X271411411Y-157490000D01*
X271138589Y-157490000D01*
X270993635Y-157518833D01*
X269810000Y-156335199D01*
X269810000Y-154611957D01*
X269843225Y-154778989D01*
X269947629Y-155031043D01*
X270099201Y-155257886D01*
X270292114Y-155450799D01*
X270518957Y-155602371D01*
X270771011Y-155706775D01*
X271038589Y-155760000D01*
X271311411Y-155760000D01*
X271578989Y-155706775D01*
X271831043Y-155602371D01*
X272057886Y-155450799D01*
X272250799Y-155257886D01*
X272402371Y-155031043D01*
X272506775Y-154778989D01*
X272560000Y-154511411D01*
X272560000Y-154238589D01*
X272545307Y-154164721D01*
X274740000Y-154164721D01*
X274740000Y-154585279D01*
X274822047Y-154997756D01*
X274982988Y-155386302D01*
X275216637Y-155735983D01*
X275514017Y-156033363D01*
X275863698Y-156267012D01*
X276252244Y-156427953D01*
X276664721Y-156510000D01*
X277085279Y-156510000D01*
X277497756Y-156427953D01*
X277886302Y-156267012D01*
X278235983Y-156033363D01*
X278533363Y-155735983D01*
X278767012Y-155386302D01*
X278927953Y-154997756D01*
X279010000Y-154585279D01*
X279010000Y-154164721D01*
X278927953Y-153752244D01*
X278767012Y-153363698D01*
X278533363Y-153014017D01*
X278235983Y-152716637D01*
X277886302Y-152482988D01*
X277497756Y-152322047D01*
X277085279Y-152240000D01*
X276664721Y-152240000D01*
X276252244Y-152322047D01*
X275863698Y-152482988D01*
X275514017Y-152716637D01*
X275216637Y-153014017D01*
X274982988Y-153363698D01*
X274822047Y-153752244D01*
X274740000Y-154164721D01*
X272545307Y-154164721D01*
X272506775Y-153971011D01*
X272402371Y-153718957D01*
X272250799Y-153492114D01*
X272057886Y-153299201D01*
X271831043Y-153147629D01*
X271578989Y-153043225D01*
X271311411Y-152990000D01*
X271038589Y-152990000D01*
X270959999Y-153005633D01*
X270959999Y-151224476D01*
X271138589Y-151260000D01*
X271411411Y-151260000D01*
X271678989Y-151206775D01*
X271931043Y-151102371D01*
X272157886Y-150950799D01*
X272350799Y-150757886D01*
X272502371Y-150531043D01*
X272606775Y-150278989D01*
X272660000Y-150011411D01*
X272660000Y-149738589D01*
X272606775Y-149471011D01*
X272502371Y-149218957D01*
X272350799Y-148992114D01*
X272157886Y-148799201D01*
X272035000Y-148717091D01*
X272035000Y-147479455D01*
X272218957Y-147602371D01*
X272471011Y-147706775D01*
X272738589Y-147760000D01*
X273011411Y-147760000D01*
X273278989Y-147706775D01*
X273531043Y-147602371D01*
X273757886Y-147450799D01*
X273950799Y-147257886D01*
X274102371Y-147031043D01*
X274206775Y-146778989D01*
X274260000Y-146511411D01*
X274260000Y-146238589D01*
X274231167Y-146093635D01*
X275731771Y-144593031D01*
X275647629Y-144718957D01*
X275543225Y-144971011D01*
X275490000Y-145238589D01*
X275490000Y-145511411D01*
X275543225Y-145778989D01*
X275647629Y-146031043D01*
X275799201Y-146257886D01*
X275992114Y-146450799D01*
X276218957Y-146602371D01*
X276471011Y-146706775D01*
X276738589Y-146760000D01*
X277011411Y-146760000D01*
X277278989Y-146706775D01*
X277531043Y-146602371D01*
X277757886Y-146450799D01*
X277950799Y-146257886D01*
X278102371Y-146031043D01*
X278206775Y-145778989D01*
X278260000Y-145511411D01*
X278260000Y-145238589D01*
X278231167Y-145093635D01*
X295379349Y-127945453D01*
X295600000Y-127967185D01*
X295891111Y-127938513D01*
X296171034Y-127853599D01*
X296429014Y-127715706D01*
X296655134Y-127530134D01*
X296840706Y-127304014D01*
X296850000Y-127286626D01*
X296859294Y-127304014D01*
X297044866Y-127530134D01*
X297270987Y-127715706D01*
X297340001Y-127752594D01*
X297340001Y-128835197D01*
X281156365Y-145018833D01*
X281011411Y-144990000D01*
X280738589Y-144990000D01*
X280471011Y-145043225D01*
X280218957Y-145147629D01*
X279992114Y-145299201D01*
X279799201Y-145492114D01*
X279647629Y-145718957D01*
X279543225Y-145971011D01*
X279490000Y-146238589D01*
X279490000Y-146511411D01*
X279543225Y-146778989D01*
X279647629Y-147031043D01*
X279799201Y-147257886D01*
X279992114Y-147450799D01*
X280218957Y-147602371D01*
X280471011Y-147706775D01*
X280738589Y-147760000D01*
X281011411Y-147760000D01*
X281278989Y-147706775D01*
X281531043Y-147602371D01*
X281757886Y-147450799D01*
X281950799Y-147257886D01*
X282102371Y-147031043D01*
X282206775Y-146778989D01*
X282260000Y-146511411D01*
X282260000Y-146238589D01*
X282231167Y-146093635D01*
X298611003Y-129713799D01*
X298640001Y-129690001D01*
X298734974Y-129574276D01*
X298805546Y-129442247D01*
X298849003Y-129298986D01*
X298860000Y-129187333D01*
X298863677Y-129150000D01*
X298860000Y-129112667D01*
X298860000Y-127752595D01*
X298929014Y-127715706D01*
X299155134Y-127530134D01*
X299340706Y-127304014D01*
X299350000Y-127286626D01*
X299359294Y-127304014D01*
X299544866Y-127530134D01*
X299770987Y-127715706D01*
X299840001Y-127752595D01*
X299840000Y-131435198D01*
X282756365Y-148518833D01*
X282611411Y-148490000D01*
X282338589Y-148490000D01*
X282071011Y-148543225D01*
X281818957Y-148647629D01*
X281592114Y-148799201D01*
X281399201Y-148992114D01*
X281247629Y-149218957D01*
X281143225Y-149471011D01*
X281090000Y-149738589D01*
X281090000Y-150011411D01*
X281143225Y-150278989D01*
X281247629Y-150531043D01*
X281399201Y-150757886D01*
X281592114Y-150950799D01*
X281818957Y-151102371D01*
X282071011Y-151206775D01*
X282338589Y-151260000D01*
X282611411Y-151260000D01*
X282878989Y-151206775D01*
X283131043Y-151102371D01*
X283357886Y-150950799D01*
X283550799Y-150757886D01*
X283702371Y-150531043D01*
X283806775Y-150278989D01*
X283860000Y-150011411D01*
X283860000Y-149738589D01*
X283831167Y-149593635D01*
X301111004Y-132313798D01*
X301140001Y-132290001D01*
X301234974Y-132174276D01*
X301305546Y-132042247D01*
X301349003Y-131898986D01*
X301360000Y-131787333D01*
X301360000Y-131787323D01*
X301363676Y-131750000D01*
X301360000Y-131712677D01*
X301360000Y-127752595D01*
X301429014Y-127715706D01*
X301655134Y-127530134D01*
X301840706Y-127304014D01*
X301850000Y-127286626D01*
X301859294Y-127304014D01*
X302044866Y-127530134D01*
X302270987Y-127715706D01*
X302340000Y-127752594D01*
X302340001Y-133535197D01*
X282856365Y-153018833D01*
X282711411Y-152990000D01*
X282438589Y-152990000D01*
X282171011Y-153043225D01*
X281918957Y-153147629D01*
X281692114Y-153299201D01*
X281499201Y-153492114D01*
X281347629Y-153718957D01*
X281243225Y-153971011D01*
X281190000Y-154238589D01*
X281190000Y-154511411D01*
X281243225Y-154778989D01*
X281347629Y-155031043D01*
X281499201Y-155257886D01*
X281692114Y-155450799D01*
X281918957Y-155602371D01*
X282171011Y-155706775D01*
X282438589Y-155760000D01*
X282711411Y-155760000D01*
X282978989Y-155706775D01*
X283231043Y-155602371D01*
X283457886Y-155450799D01*
X283650799Y-155257886D01*
X283802371Y-155031043D01*
X283906775Y-154778989D01*
X283960000Y-154511411D01*
X283960000Y-154238589D01*
X283931167Y-154093635D01*
X303611003Y-134413799D01*
X303640001Y-134390001D01*
X303734974Y-134274276D01*
X303805546Y-134142247D01*
X303849003Y-133998986D01*
X303860000Y-133887333D01*
X303860000Y-133887324D01*
X303863676Y-133850001D01*
X303860000Y-133812678D01*
X303860000Y-127752595D01*
X303929014Y-127715706D01*
X304155134Y-127530134D01*
X304340706Y-127304014D01*
X304478599Y-127046033D01*
X304563513Y-126766110D01*
X304585000Y-126547949D01*
X304585000Y-126152050D01*
X304563513Y-125933889D01*
X304478599Y-125653966D01*
X304340706Y-125395986D01*
X304155134Y-125169866D01*
X303929013Y-124984294D01*
X303671033Y-124846401D01*
X303391110Y-124761487D01*
X303100000Y-124732815D01*
X302808889Y-124761487D01*
X302528966Y-124846401D01*
X302270986Y-124984294D01*
X302044866Y-125169866D01*
X301859294Y-125395987D01*
X301850000Y-125413374D01*
X301840706Y-125395986D01*
X301655134Y-125169866D01*
X301429013Y-124984294D01*
X301171033Y-124846401D01*
X300891110Y-124761487D01*
X300600000Y-124732815D01*
X300308889Y-124761487D01*
X300028966Y-124846401D01*
X299770986Y-124984294D01*
X299544866Y-125169866D01*
X299359294Y-125395987D01*
X299350000Y-125413374D01*
X299340706Y-125395986D01*
X299155134Y-125169866D01*
X298929013Y-124984294D01*
X298671033Y-124846401D01*
X298391110Y-124761487D01*
X298100000Y-124732815D01*
X297808889Y-124761487D01*
X297528966Y-124846401D01*
X297270986Y-124984294D01*
X297044866Y-125169866D01*
X296859294Y-125395987D01*
X296850000Y-125413374D01*
X296840706Y-125395986D01*
X296655134Y-125169866D01*
X296429013Y-124984294D01*
X296171033Y-124846401D01*
X295891110Y-124761487D01*
X295600000Y-124732815D01*
X295308889Y-124761487D01*
X295028966Y-124846401D01*
X294770986Y-124984294D01*
X294544866Y-125169866D01*
X294359294Y-125395987D01*
X294350000Y-125413374D01*
X294340706Y-125395986D01*
X294155134Y-125169866D01*
X293929013Y-124984294D01*
X293671033Y-124846401D01*
X293391110Y-124761487D01*
X293100000Y-124732815D01*
X292808889Y-124761487D01*
X292528966Y-124846401D01*
X292270986Y-124984294D01*
X292044866Y-125169866D01*
X291859294Y-125395987D01*
X291850000Y-125413374D01*
X291840706Y-125395986D01*
X291655134Y-125169866D01*
X291429013Y-124984294D01*
X291171033Y-124846401D01*
X290891110Y-124761487D01*
X290600000Y-124732815D01*
X290308889Y-124761487D01*
X290028966Y-124846401D01*
X289770986Y-124984294D01*
X289544866Y-125169866D01*
X289359294Y-125395987D01*
X289350000Y-125413374D01*
X289340706Y-125395986D01*
X289155134Y-125169866D01*
X288929013Y-124984294D01*
X288671033Y-124846401D01*
X288391110Y-124761487D01*
X288100000Y-124732815D01*
X287808889Y-124761487D01*
X287528966Y-124846401D01*
X287270986Y-124984294D01*
X287044866Y-125169866D01*
X286859294Y-125395987D01*
X286850000Y-125413374D01*
X286840706Y-125395986D01*
X286655134Y-125169866D01*
X286429013Y-124984294D01*
X286171033Y-124846401D01*
X285891110Y-124761487D01*
X285600000Y-124732815D01*
X285308889Y-124761487D01*
X285028966Y-124846401D01*
X284770986Y-124984294D01*
X284544866Y-125169866D01*
X284359294Y-125395987D01*
X284350000Y-125413374D01*
X284340706Y-125395986D01*
X284155134Y-125169866D01*
X283929013Y-124984294D01*
X283671033Y-124846401D01*
X283391110Y-124761487D01*
X283100000Y-124732815D01*
X282808889Y-124761487D01*
X282528966Y-124846401D01*
X282270986Y-124984294D01*
X282044866Y-125169866D01*
X281992777Y-125233337D01*
X281938405Y-125131614D01*
X281827962Y-124997038D01*
X281693386Y-124886595D01*
X281539850Y-124804528D01*
X281373254Y-124753992D01*
X281200000Y-124736928D01*
X280000000Y-124736928D01*
X279826746Y-124753992D01*
X279660150Y-124804528D01*
X279506614Y-124886595D01*
X279372038Y-124997038D01*
X279261595Y-125131614D01*
X279179528Y-125285150D01*
X279128992Y-125451746D01*
X279111928Y-125625000D01*
X279111928Y-125931520D01*
X279044454Y-126057753D01*
X279000997Y-126201014D01*
X278986323Y-126350000D01*
X279000997Y-126498986D01*
X279044454Y-126642247D01*
X279111928Y-126768480D01*
X279111928Y-127075000D01*
X279128992Y-127248254D01*
X279179528Y-127414850D01*
X279261595Y-127568386D01*
X279372038Y-127702962D01*
X279506614Y-127813405D01*
X279660150Y-127895472D01*
X279826746Y-127946008D01*
X280000000Y-127963072D01*
X280412125Y-127963072D01*
X267439003Y-140936196D01*
X267409999Y-140959999D01*
X267354871Y-141027174D01*
X267315026Y-141075724D01*
X267248986Y-141199276D01*
X267244454Y-141207754D01*
X267200997Y-141351015D01*
X267190000Y-141462668D01*
X267190000Y-141462678D01*
X267186324Y-141500000D01*
X267190000Y-141537322D01*
X267190001Y-157412667D01*
X267186324Y-157450000D01*
X267200998Y-157598985D01*
X267244454Y-157742246D01*
X267315026Y-157874276D01*
X267386201Y-157961002D01*
X267410000Y-157990001D01*
X267438998Y-158013799D01*
X271518833Y-162093635D01*
X271490000Y-162238589D01*
X271490000Y-162511411D01*
X271543225Y-162778989D01*
X271647629Y-163031043D01*
X271799201Y-163257886D01*
X271992114Y-163450799D01*
X272218957Y-163602371D01*
X272430515Y-163690001D01*
X248789803Y-163690001D01*
X247756167Y-162656365D01*
X247785000Y-162511411D01*
X247785000Y-162238589D01*
X247731775Y-161971011D01*
X247627371Y-161718957D01*
X247475799Y-161492114D01*
X247282886Y-161299201D01*
X247056043Y-161147629D01*
X246803989Y-161043225D01*
X246536411Y-160990000D01*
X246263589Y-160990000D01*
X245996011Y-161043225D01*
X245743957Y-161147629D01*
X245517114Y-161299201D01*
X245324201Y-161492114D01*
X245172629Y-161718957D01*
X245068225Y-161971011D01*
X245015000Y-162238589D01*
X245015000Y-162511411D01*
X245043833Y-162656365D01*
X244010198Y-163690001D01*
X243749476Y-163690001D01*
X243785000Y-163511411D01*
X243785000Y-163238589D01*
X243731775Y-162971011D01*
X243627371Y-162718957D01*
X243475799Y-162492114D01*
X243282886Y-162299201D01*
X243056043Y-162147629D01*
X242803989Y-162043225D01*
X242536411Y-161990000D01*
X242263589Y-161990000D01*
X241996011Y-162043225D01*
X241743957Y-162147629D01*
X241517114Y-162299201D01*
X241324201Y-162492114D01*
X241172629Y-162718957D01*
X241068225Y-162971011D01*
X241015000Y-163238589D01*
X241015000Y-163511411D01*
X241050524Y-163690001D01*
X238844485Y-163690001D01*
X239056043Y-163602371D01*
X239282886Y-163450799D01*
X239475799Y-163257886D01*
X239627371Y-163031043D01*
X239731775Y-162778989D01*
X239785000Y-162511411D01*
X239785000Y-162238589D01*
X239731775Y-161971011D01*
X239627371Y-161718957D01*
X239475799Y-161492114D01*
X239282886Y-161299201D01*
X239056043Y-161147629D01*
X238803989Y-161043225D01*
X238536411Y-160990000D01*
X238263589Y-160990000D01*
X237996011Y-161043225D01*
X237743957Y-161147629D01*
X237517114Y-161299201D01*
X237324201Y-161492114D01*
X237242091Y-161615000D01*
X236839802Y-161615000D01*
X228460000Y-153235199D01*
X228460000Y-127752595D01*
X228529014Y-127715706D01*
X228755134Y-127530134D01*
X228940706Y-127304014D01*
X228950000Y-127286626D01*
X228959294Y-127304014D01*
X229144866Y-127530134D01*
X229370987Y-127715706D01*
X229440001Y-127752595D01*
X229440000Y-152237678D01*
X229436324Y-152275000D01*
X229440000Y-152312322D01*
X229440000Y-152312332D01*
X229450997Y-152423985D01*
X229483991Y-152532754D01*
X229494454Y-152567246D01*
X229565026Y-152699276D01*
X229579274Y-152716637D01*
X229659999Y-152815001D01*
X229689003Y-152838804D01*
X235443833Y-158593635D01*
X235415000Y-158738589D01*
X235415000Y-159011411D01*
X235468225Y-159278989D01*
X235572629Y-159531043D01*
X235724201Y-159757886D01*
X235917114Y-159950799D01*
X236143957Y-160102371D01*
X236396011Y-160206775D01*
X236663589Y-160260000D01*
X236936411Y-160260000D01*
X237203989Y-160206775D01*
X237456043Y-160102371D01*
X237682886Y-159950799D01*
X237875799Y-159757886D01*
X238027371Y-159531043D01*
X238131775Y-159278989D01*
X238185000Y-159011411D01*
X238185000Y-158738589D01*
X246615000Y-158738589D01*
X246615000Y-159011411D01*
X246668225Y-159278989D01*
X246772629Y-159531043D01*
X246924201Y-159757886D01*
X247117114Y-159950799D01*
X247343957Y-160102371D01*
X247596011Y-160206775D01*
X247863589Y-160260000D01*
X248136411Y-160260000D01*
X248403989Y-160206775D01*
X248656043Y-160102371D01*
X248882886Y-159950799D01*
X249075799Y-159757886D01*
X249227371Y-159531043D01*
X249331775Y-159278989D01*
X249385000Y-159011411D01*
X249385000Y-158738589D01*
X249331775Y-158471011D01*
X249227371Y-158218957D01*
X249075799Y-157992114D01*
X248882886Y-157799201D01*
X248656043Y-157647629D01*
X248403989Y-157543225D01*
X248136411Y-157490000D01*
X247863589Y-157490000D01*
X247596011Y-157543225D01*
X247343957Y-157647629D01*
X247117114Y-157799201D01*
X246924201Y-157992114D01*
X246772629Y-158218957D01*
X246668225Y-158471011D01*
X246615000Y-158738589D01*
X238185000Y-158738589D01*
X238131775Y-158471011D01*
X238027371Y-158218957D01*
X237875799Y-157992114D01*
X237682886Y-157799201D01*
X237456043Y-157647629D01*
X237203989Y-157543225D01*
X236936411Y-157490000D01*
X236663589Y-157490000D01*
X236518635Y-157518833D01*
X230960000Y-151960199D01*
X230960000Y-127752595D01*
X231029014Y-127715706D01*
X231255134Y-127530134D01*
X231440706Y-127304014D01*
X231450000Y-127286626D01*
X231459294Y-127304014D01*
X231644866Y-127530134D01*
X231870987Y-127715706D01*
X231940001Y-127752595D01*
X231940000Y-150337678D01*
X231936324Y-150375000D01*
X231940000Y-150412322D01*
X231940000Y-150412332D01*
X231950997Y-150523985D01*
X231981337Y-150624003D01*
X231994454Y-150667246D01*
X232065026Y-150799276D01*
X232104871Y-150847826D01*
X232159999Y-150915001D01*
X232189003Y-150938804D01*
X235343833Y-154093635D01*
X235315000Y-154238589D01*
X235315000Y-154511411D01*
X235368225Y-154778989D01*
X235472629Y-155031043D01*
X235624201Y-155257886D01*
X235817114Y-155450799D01*
X236043957Y-155602371D01*
X236296011Y-155706775D01*
X236563589Y-155760000D01*
X236836411Y-155760000D01*
X237103989Y-155706775D01*
X237356043Y-155602371D01*
X237582886Y-155450799D01*
X237775799Y-155257886D01*
X237927371Y-155031043D01*
X238031775Y-154778989D01*
X238085000Y-154511411D01*
X238085000Y-154238589D01*
X238070307Y-154164721D01*
X240265000Y-154164721D01*
X240265000Y-154585279D01*
X240347047Y-154997756D01*
X240507988Y-155386302D01*
X240741637Y-155735983D01*
X241039017Y-156033363D01*
X241388698Y-156267012D01*
X241777244Y-156427953D01*
X242189721Y-156510000D01*
X242610279Y-156510000D01*
X243022756Y-156427953D01*
X243411302Y-156267012D01*
X243760983Y-156033363D01*
X244058363Y-155735983D01*
X244292012Y-155386302D01*
X244452953Y-154997756D01*
X244535000Y-154585279D01*
X244535000Y-154164721D01*
X244452953Y-153752244D01*
X244292012Y-153363698D01*
X244058363Y-153014017D01*
X243760983Y-152716637D01*
X243411302Y-152482988D01*
X243022756Y-152322047D01*
X242610279Y-152240000D01*
X242189721Y-152240000D01*
X241777244Y-152322047D01*
X241388698Y-152482988D01*
X241039017Y-152716637D01*
X240741637Y-153014017D01*
X240507988Y-153363698D01*
X240347047Y-153752244D01*
X240265000Y-154164721D01*
X238070307Y-154164721D01*
X238031775Y-153971011D01*
X237927371Y-153718957D01*
X237775799Y-153492114D01*
X237582886Y-153299201D01*
X237356043Y-153147629D01*
X237103989Y-153043225D01*
X236836411Y-152990000D01*
X236563589Y-152990000D01*
X236418635Y-153018833D01*
X233460000Y-150060199D01*
X233460000Y-127752595D01*
X233529014Y-127715706D01*
X233755134Y-127530134D01*
X233940706Y-127304014D01*
X233950000Y-127286626D01*
X233959294Y-127304014D01*
X234144866Y-127530134D01*
X234370987Y-127715706D01*
X234440000Y-127752594D01*
X234440001Y-148237667D01*
X234436324Y-148275000D01*
X234450998Y-148423985D01*
X234494454Y-148567246D01*
X234565026Y-148699276D01*
X234636201Y-148786002D01*
X234660000Y-148815001D01*
X234688998Y-148838799D01*
X235443833Y-149593635D01*
X235415000Y-149738589D01*
X235415000Y-150011411D01*
X235468225Y-150278989D01*
X235572629Y-150531043D01*
X235724201Y-150757886D01*
X235917114Y-150950799D01*
X236143957Y-151102371D01*
X236396011Y-151206775D01*
X236663589Y-151260000D01*
X236936411Y-151260000D01*
X237203989Y-151206775D01*
X237456043Y-151102371D01*
X237682886Y-150950799D01*
X237875799Y-150757886D01*
X238027371Y-150531043D01*
X238131775Y-150278989D01*
X238185000Y-150011411D01*
X238185000Y-149738589D01*
X238131775Y-149471011D01*
X238027371Y-149218957D01*
X237875799Y-148992114D01*
X237682886Y-148799201D01*
X237456043Y-148647629D01*
X237203989Y-148543225D01*
X236936411Y-148490000D01*
X236663589Y-148490000D01*
X236518635Y-148518833D01*
X235960000Y-147960199D01*
X235960000Y-127752595D01*
X236029014Y-127715706D01*
X236255134Y-127530134D01*
X236440706Y-127304014D01*
X236450000Y-127286626D01*
X236459294Y-127304014D01*
X236644866Y-127530134D01*
X236870987Y-127715706D01*
X236940000Y-127752594D01*
X236940001Y-145637667D01*
X236936324Y-145675000D01*
X236950998Y-145823985D01*
X236994454Y-145967246D01*
X237048763Y-146068851D01*
X237015000Y-146238589D01*
X237015000Y-146511411D01*
X237068225Y-146778989D01*
X237172629Y-147031043D01*
X237324201Y-147257886D01*
X237517114Y-147450799D01*
X237743957Y-147602371D01*
X237996011Y-147706775D01*
X238263589Y-147760000D01*
X238536411Y-147760000D01*
X238803989Y-147706775D01*
X239056043Y-147602371D01*
X239282886Y-147450799D01*
X239475799Y-147257886D01*
X239627371Y-147031043D01*
X239731775Y-146778989D01*
X239785000Y-146511411D01*
X239785000Y-146238589D01*
X239731775Y-145971011D01*
X239627371Y-145718957D01*
X239475799Y-145492114D01*
X239282886Y-145299201D01*
X239056043Y-145147629D01*
X238803989Y-145043225D01*
X238536411Y-144990000D01*
X238460000Y-144990000D01*
X238460000Y-127752595D01*
X238529014Y-127715706D01*
X238755134Y-127530134D01*
X238940706Y-127304014D01*
X238950000Y-127286626D01*
X238959294Y-127304014D01*
X239144866Y-127530134D01*
X239370987Y-127715706D01*
X239440000Y-127752594D01*
X239440001Y-143137667D01*
X239436324Y-143175000D01*
X239450998Y-143323985D01*
X239494454Y-143467246D01*
X239565026Y-143599276D01*
X239636201Y-143686002D01*
X239660000Y-143715001D01*
X239688998Y-143738799D01*
X241043833Y-145093635D01*
X241015000Y-145238589D01*
X241015000Y-145511411D01*
X241068225Y-145778989D01*
X241172629Y-146031043D01*
X241324201Y-146257886D01*
X241517114Y-146450799D01*
X241743957Y-146602371D01*
X241996011Y-146706775D01*
X242263589Y-146760000D01*
X242536411Y-146760000D01*
X242803989Y-146706775D01*
X243056043Y-146602371D01*
X243282886Y-146450799D01*
X243475799Y-146257886D01*
X243627371Y-146031043D01*
X243731775Y-145778989D01*
X243785000Y-145511411D01*
X243785000Y-145238589D01*
X243731775Y-144971011D01*
X243627371Y-144718957D01*
X243543230Y-144593031D01*
X245043833Y-146093635D01*
X245015000Y-146238589D01*
X245015000Y-146511411D01*
X245068225Y-146778989D01*
X245172629Y-147031043D01*
X245324201Y-147257886D01*
X245517114Y-147450799D01*
X245743957Y-147602371D01*
X245996011Y-147706775D01*
X246263589Y-147760000D01*
X246536411Y-147760000D01*
X246803989Y-147706775D01*
X247056043Y-147602371D01*
X247240000Y-147479454D01*
X247240000Y-148717091D01*
X247117114Y-148799201D01*
X246924201Y-148992114D01*
X246772629Y-149218957D01*
X246668225Y-149471011D01*
X246615000Y-149738589D01*
X246615000Y-150011411D01*
X246668225Y-150278989D01*
X246772629Y-150531043D01*
X246924201Y-150757886D01*
X247117114Y-150950799D01*
X247343957Y-151102371D01*
X247596011Y-151206775D01*
X247863589Y-151260000D01*
X248136411Y-151260000D01*
X248315002Y-151224476D01*
X248315002Y-153005633D01*
X248236411Y-152990000D01*
X247963589Y-152990000D01*
X247696011Y-153043225D01*
X247443957Y-153147629D01*
X247217114Y-153299201D01*
X247024201Y-153492114D01*
X246872629Y-153718957D01*
X246768225Y-153971011D01*
X246715000Y-154238589D01*
X246715000Y-154511411D01*
X246768225Y-154778989D01*
X246872629Y-155031043D01*
X247024201Y-155257886D01*
X247217114Y-155450799D01*
X247443957Y-155602371D01*
X247696011Y-155706775D01*
X247963589Y-155760000D01*
X248236411Y-155760000D01*
X248503989Y-155706775D01*
X248756043Y-155602371D01*
X248982886Y-155450799D01*
X249175799Y-155257886D01*
X249327371Y-155031043D01*
X249431775Y-154778989D01*
X249485000Y-154511411D01*
X249485000Y-154238589D01*
X249456167Y-154093635D01*
X249586004Y-153963798D01*
X249615002Y-153940000D01*
X249709975Y-153824275D01*
X249780547Y-153692246D01*
X249824004Y-153548985D01*
X249835001Y-153437332D01*
X249835001Y-153437324D01*
X249838677Y-153399999D01*
X249835001Y-153362674D01*
X249835001Y-127762323D01*
X249838677Y-127725000D01*
X249835001Y-127687677D01*
X249835001Y-127687668D01*
X249824004Y-127576015D01*
X249780547Y-127432754D01*
X249770350Y-127413677D01*
X249709975Y-127300724D01*
X249638800Y-127213998D01*
X249615002Y-127185000D01*
X249586005Y-127161203D01*
X249165970Y-126741168D01*
X249185000Y-126547949D01*
X249185000Y-126152050D01*
X249163513Y-125933889D01*
X249078599Y-125653966D01*
X248940706Y-125395986D01*
X248755134Y-125169866D01*
X248529013Y-124984294D01*
X248271033Y-124846401D01*
X247991110Y-124761487D01*
X247700000Y-124732815D01*
X247408889Y-124761487D01*
X247128966Y-124846401D01*
X246870986Y-124984294D01*
X246644866Y-125169866D01*
X246459294Y-125395987D01*
X246450000Y-125413374D01*
X246440706Y-125395986D01*
X246255134Y-125169866D01*
X246029013Y-124984294D01*
X245771033Y-124846401D01*
X245491110Y-124761487D01*
X245200000Y-124732815D01*
X244908889Y-124761487D01*
X244628966Y-124846401D01*
X244370986Y-124984294D01*
X244144866Y-125169866D01*
X243959294Y-125395987D01*
X243950000Y-125413374D01*
X243940706Y-125395986D01*
X243755134Y-125169866D01*
X243529013Y-124984294D01*
X243271033Y-124846401D01*
X242991110Y-124761487D01*
X242700000Y-124732815D01*
X242408889Y-124761487D01*
X242128966Y-124846401D01*
X241870986Y-124984294D01*
X241644866Y-125169866D01*
X241459294Y-125395987D01*
X241450000Y-125413374D01*
X241440706Y-125395986D01*
X241255134Y-125169866D01*
X241029013Y-124984294D01*
X240771033Y-124846401D01*
X240491110Y-124761487D01*
X240200000Y-124732815D01*
X239908889Y-124761487D01*
X239628966Y-124846401D01*
X239370986Y-124984294D01*
X239144866Y-125169866D01*
X238959294Y-125395987D01*
X238950000Y-125413374D01*
X238940706Y-125395986D01*
X238755134Y-125169866D01*
X238529013Y-124984294D01*
X238271033Y-124846401D01*
X237991110Y-124761487D01*
X237700000Y-124732815D01*
X237408889Y-124761487D01*
X237128966Y-124846401D01*
X236870986Y-124984294D01*
X236644866Y-125169866D01*
X236459294Y-125395987D01*
X236450000Y-125413374D01*
X236440706Y-125395986D01*
X236255134Y-125169866D01*
X236029013Y-124984294D01*
X235771033Y-124846401D01*
X235491110Y-124761487D01*
X235200000Y-124732815D01*
X234908889Y-124761487D01*
X234628966Y-124846401D01*
X234370986Y-124984294D01*
X234144866Y-125169866D01*
X233959294Y-125395987D01*
X233950000Y-125413374D01*
X233940706Y-125395986D01*
X233755134Y-125169866D01*
X233529013Y-124984294D01*
X233271033Y-124846401D01*
X232991110Y-124761487D01*
X232700000Y-124732815D01*
X232408889Y-124761487D01*
X232128966Y-124846401D01*
X231870986Y-124984294D01*
X231644866Y-125169866D01*
X231459294Y-125395987D01*
X231450000Y-125413374D01*
X231440706Y-125395986D01*
X231255134Y-125169866D01*
X231029013Y-124984294D01*
X230771033Y-124846401D01*
X230491110Y-124761487D01*
X230200000Y-124732815D01*
X229908889Y-124761487D01*
X229628966Y-124846401D01*
X229370986Y-124984294D01*
X229144866Y-125169866D01*
X228959294Y-125395987D01*
X228950000Y-125413374D01*
X228940706Y-125395986D01*
X228755134Y-125169866D01*
X228529013Y-124984294D01*
X228271033Y-124846401D01*
X227991110Y-124761487D01*
X227700000Y-124732815D01*
X227408889Y-124761487D01*
X227128966Y-124846401D01*
X226870986Y-124984294D01*
X226644866Y-125169866D01*
X226592777Y-125233337D01*
X226538405Y-125131614D01*
X226427962Y-124997038D01*
X226293386Y-124886595D01*
X226139850Y-124804528D01*
X225973254Y-124753992D01*
X225800000Y-124736928D01*
X224600000Y-124736928D01*
X224426746Y-124753992D01*
X224260150Y-124804528D01*
X224106614Y-124886595D01*
X223972038Y-124997038D01*
X223861595Y-125131614D01*
X223779528Y-125285150D01*
X223728992Y-125451746D01*
X223711928Y-125625000D01*
X223711928Y-127075000D01*
X223728992Y-127248254D01*
X223779528Y-127414850D01*
X223861595Y-127568386D01*
X223972038Y-127702962D01*
X224106614Y-127813405D01*
X224260150Y-127895472D01*
X224426746Y-127946008D01*
X224600000Y-127963072D01*
X225800000Y-127963072D01*
X225973254Y-127946008D01*
X226139850Y-127895472D01*
X226293386Y-127813405D01*
X226427962Y-127702962D01*
X226538405Y-127568386D01*
X226592777Y-127466663D01*
X226644866Y-127530134D01*
X226870987Y-127715706D01*
X226940001Y-127752595D01*
X226940000Y-153512678D01*
X226936324Y-153550000D01*
X226940000Y-153587322D01*
X226940000Y-153587332D01*
X226950997Y-153698985D01*
X226963447Y-153740027D01*
X226994454Y-153842246D01*
X227065026Y-153974276D01*
X227104871Y-154022826D01*
X227159999Y-154090001D01*
X227189003Y-154113804D01*
X235961200Y-162886002D01*
X235984999Y-162915001D01*
X236100724Y-163009974D01*
X236232753Y-163080546D01*
X236376014Y-163124003D01*
X236487667Y-163135000D01*
X236487675Y-163135000D01*
X236525000Y-163138676D01*
X236562325Y-163135000D01*
X237242091Y-163135000D01*
X237324201Y-163257886D01*
X237517114Y-163450799D01*
X237743957Y-163602371D01*
X237955515Y-163690001D01*
X182789803Y-163690001D01*
X182234802Y-163135000D01*
X201362678Y-163135000D01*
X201400000Y-163138676D01*
X201437322Y-163135000D01*
X201437333Y-163135000D01*
X201548986Y-163124003D01*
X201692247Y-163080546D01*
X201824276Y-163009974D01*
X201940001Y-162915001D01*
X201963804Y-162885997D01*
X208986731Y-155863072D01*
X210250000Y-155863072D01*
X210374482Y-155850812D01*
X210494180Y-155814502D01*
X210604494Y-155755537D01*
X210701185Y-155676185D01*
X210780537Y-155579494D01*
X210839502Y-155469180D01*
X210875812Y-155349482D01*
X210888072Y-155225000D01*
X210888072Y-153525000D01*
X210875812Y-153400518D01*
X210839502Y-153280820D01*
X210780537Y-153170506D01*
X210701185Y-153073815D01*
X210604494Y-152994463D01*
X210494180Y-152935498D01*
X210421620Y-152913487D01*
X210553475Y-152781632D01*
X210715990Y-152538411D01*
X210827932Y-152268158D01*
X210885000Y-151981260D01*
X210885000Y-151688740D01*
X210827932Y-151401842D01*
X210715990Y-151131589D01*
X210553475Y-150888368D01*
X210346632Y-150681525D01*
X210103411Y-150519010D01*
X209833158Y-150407068D01*
X209546260Y-150350000D01*
X209253740Y-150350000D01*
X208966842Y-150407068D01*
X208696589Y-150519010D01*
X208453368Y-150681525D01*
X208246525Y-150888368D01*
X208084010Y-151131589D01*
X207972068Y-151401842D01*
X207915000Y-151688740D01*
X207915000Y-151981260D01*
X207972068Y-152268158D01*
X208084010Y-152538411D01*
X208246525Y-152781632D01*
X208378380Y-152913487D01*
X208305820Y-152935498D01*
X208195506Y-152994463D01*
X208098815Y-153073815D01*
X208019463Y-153170506D01*
X207960498Y-153280820D01*
X207924188Y-153400518D01*
X207911928Y-153525000D01*
X207911928Y-154788269D01*
X201085199Y-161615000D01*
X181557909Y-161615000D01*
X181475799Y-161492114D01*
X181282886Y-161299201D01*
X181056043Y-161147629D01*
X180803989Y-161043225D01*
X180536411Y-160990000D01*
X180263589Y-160990000D01*
X179996011Y-161043225D01*
X179743957Y-161147629D01*
X179517114Y-161299201D01*
X179324201Y-161492114D01*
X179172629Y-161718957D01*
X179068225Y-161971011D01*
X179015000Y-162238589D01*
X179015000Y-162511411D01*
X179043833Y-162656365D01*
X178010198Y-163690001D01*
X177749476Y-163690001D01*
X177785000Y-163511411D01*
X177785000Y-163238589D01*
X177731775Y-162971011D01*
X177627371Y-162718957D01*
X177475799Y-162492114D01*
X177282886Y-162299201D01*
X177056043Y-162147629D01*
X176803989Y-162043225D01*
X176536411Y-161990000D01*
X176263589Y-161990000D01*
X175996011Y-162043225D01*
X175743957Y-162147629D01*
X175517114Y-162299201D01*
X175324201Y-162492114D01*
X175172629Y-162718957D01*
X175068225Y-162971011D01*
X175015000Y-163238589D01*
X175015000Y-163511411D01*
X175050524Y-163690001D01*
X172844485Y-163690001D01*
X173056043Y-163602371D01*
X173282886Y-163450799D01*
X173475799Y-163257886D01*
X173627371Y-163031043D01*
X173731775Y-162778989D01*
X173785000Y-162511411D01*
X173785000Y-162238589D01*
X173731775Y-161971011D01*
X173627371Y-161718957D01*
X173475799Y-161492114D01*
X173282886Y-161299201D01*
X173056043Y-161147629D01*
X172803989Y-161043225D01*
X172536411Y-160990000D01*
X172263589Y-160990000D01*
X171996011Y-161043225D01*
X171743957Y-161147629D01*
X171517114Y-161299201D01*
X171324201Y-161492114D01*
X171281229Y-161556427D01*
X166410000Y-156685199D01*
X166410000Y-133314801D01*
X171803186Y-127921615D01*
X171858890Y-127938513D01*
X171975227Y-127949971D01*
X167088998Y-132836201D01*
X167060000Y-132859999D01*
X167036202Y-132888997D01*
X167036201Y-132888998D01*
X166965026Y-132975724D01*
X166894454Y-133107754D01*
X166850998Y-133251015D01*
X166836324Y-133400000D01*
X166840001Y-133437333D01*
X166840000Y-155637678D01*
X166836324Y-155675000D01*
X166840000Y-155712322D01*
X166840000Y-155712332D01*
X166850997Y-155823985D01*
X166887540Y-155944454D01*
X166894454Y-155967246D01*
X166965026Y-156099276D01*
X167004871Y-156147826D01*
X167059999Y-156215001D01*
X167089003Y-156238804D01*
X169443833Y-158593636D01*
X169415000Y-158738589D01*
X169415000Y-159011411D01*
X169468225Y-159278989D01*
X169572629Y-159531043D01*
X169724201Y-159757886D01*
X169917114Y-159950799D01*
X170143957Y-160102371D01*
X170396011Y-160206775D01*
X170663589Y-160260000D01*
X170936411Y-160260000D01*
X171203989Y-160206775D01*
X171456043Y-160102371D01*
X171682886Y-159950799D01*
X171875799Y-159757886D01*
X172027371Y-159531043D01*
X172131775Y-159278989D01*
X172185000Y-159011411D01*
X172185000Y-158738589D01*
X180615000Y-158738589D01*
X180615000Y-159011411D01*
X180668225Y-159278989D01*
X180772629Y-159531043D01*
X180924201Y-159757886D01*
X181117114Y-159950799D01*
X181343957Y-160102371D01*
X181596011Y-160206775D01*
X181863589Y-160260000D01*
X182136411Y-160260000D01*
X182403989Y-160206775D01*
X182656043Y-160102371D01*
X182882886Y-159950799D01*
X183075799Y-159757886D01*
X183227371Y-159531043D01*
X183331775Y-159278989D01*
X183385000Y-159011411D01*
X183385000Y-158738589D01*
X183331775Y-158471011D01*
X183227371Y-158218957D01*
X183075799Y-157992114D01*
X182882886Y-157799201D01*
X182656043Y-157647629D01*
X182403989Y-157543225D01*
X182136411Y-157490000D01*
X181863589Y-157490000D01*
X181596011Y-157543225D01*
X181343957Y-157647629D01*
X181117114Y-157799201D01*
X180924201Y-157992114D01*
X180772629Y-158218957D01*
X180668225Y-158471011D01*
X180615000Y-158738589D01*
X172185000Y-158738589D01*
X172131775Y-158471011D01*
X172027371Y-158218957D01*
X171875799Y-157992114D01*
X171682886Y-157799201D01*
X171456043Y-157647629D01*
X171203989Y-157543225D01*
X170936411Y-157490000D01*
X170663589Y-157490000D01*
X170518636Y-157518833D01*
X168360000Y-155360199D01*
X168360000Y-133714801D01*
X174188098Y-127886704D01*
X174358890Y-127938513D01*
X174475226Y-127949971D01*
X168638998Y-133786201D01*
X168610000Y-133809999D01*
X168586202Y-133838997D01*
X168586201Y-133838998D01*
X168515026Y-133925724D01*
X168444454Y-134057754D01*
X168429957Y-134105546D01*
X168400998Y-134201014D01*
X168393782Y-134274276D01*
X168386324Y-134350000D01*
X168390001Y-134387333D01*
X168390000Y-152787678D01*
X168386324Y-152825000D01*
X168390000Y-152862322D01*
X168390000Y-152862332D01*
X168400997Y-152973985D01*
X168431280Y-153073815D01*
X168444454Y-153117246D01*
X168515026Y-153249276D01*
X168540914Y-153280820D01*
X168609999Y-153365001D01*
X168639003Y-153388804D01*
X169343833Y-154093635D01*
X169315000Y-154238589D01*
X169315000Y-154511411D01*
X169368225Y-154778989D01*
X169472629Y-155031043D01*
X169624201Y-155257886D01*
X169817114Y-155450799D01*
X170043957Y-155602371D01*
X170296011Y-155706775D01*
X170563589Y-155760000D01*
X170836411Y-155760000D01*
X171103989Y-155706775D01*
X171356043Y-155602371D01*
X171582886Y-155450799D01*
X171775799Y-155257886D01*
X171927371Y-155031043D01*
X172031775Y-154778989D01*
X172085000Y-154511411D01*
X172085000Y-154238589D01*
X172070307Y-154164721D01*
X174265000Y-154164721D01*
X174265000Y-154585279D01*
X174347047Y-154997756D01*
X174507988Y-155386302D01*
X174741637Y-155735983D01*
X175039017Y-156033363D01*
X175388698Y-156267012D01*
X175777244Y-156427953D01*
X176189721Y-156510000D01*
X176610279Y-156510000D01*
X177022756Y-156427953D01*
X177411302Y-156267012D01*
X177760983Y-156033363D01*
X178058363Y-155735983D01*
X178292012Y-155386302D01*
X178452953Y-154997756D01*
X178535000Y-154585279D01*
X178535000Y-154164721D01*
X178452953Y-153752244D01*
X178292012Y-153363698D01*
X178058363Y-153014017D01*
X177760983Y-152716637D01*
X177411302Y-152482988D01*
X177022756Y-152322047D01*
X176610279Y-152240000D01*
X176189721Y-152240000D01*
X175777244Y-152322047D01*
X175388698Y-152482988D01*
X175039017Y-152716637D01*
X174741637Y-153014017D01*
X174507988Y-153363698D01*
X174347047Y-153752244D01*
X174265000Y-154164721D01*
X172070307Y-154164721D01*
X172031775Y-153971011D01*
X171927371Y-153718957D01*
X171775799Y-153492114D01*
X171582886Y-153299201D01*
X171356043Y-153147629D01*
X171103989Y-153043225D01*
X170836411Y-152990000D01*
X170563589Y-152990000D01*
X170418635Y-153018833D01*
X169910000Y-152510199D01*
X169910000Y-150943685D01*
X169917114Y-150950799D01*
X170143957Y-151102371D01*
X170396011Y-151206775D01*
X170663589Y-151260000D01*
X170936411Y-151260000D01*
X171203989Y-151206775D01*
X171456043Y-151102371D01*
X171682886Y-150950799D01*
X171875799Y-150757886D01*
X172027371Y-150531043D01*
X172131775Y-150278989D01*
X172185000Y-150011411D01*
X172185000Y-149738589D01*
X172131775Y-149471011D01*
X172027371Y-149218957D01*
X171875799Y-148992114D01*
X171682886Y-148799201D01*
X171560000Y-148717091D01*
X171560000Y-147479455D01*
X171743957Y-147602371D01*
X171996011Y-147706775D01*
X172263589Y-147760000D01*
X172536411Y-147760000D01*
X172803989Y-147706775D01*
X173056043Y-147602371D01*
X173282886Y-147450799D01*
X173475799Y-147257886D01*
X173627371Y-147031043D01*
X173731775Y-146778989D01*
X173785000Y-146511411D01*
X173785000Y-146238589D01*
X173731775Y-145971011D01*
X173627371Y-145718957D01*
X173475799Y-145492114D01*
X173282886Y-145299201D01*
X173160000Y-145217091D01*
X173160000Y-136414801D01*
X181688098Y-127886704D01*
X181858890Y-127938513D01*
X182150000Y-127967185D01*
X182441111Y-127938513D01*
X182721034Y-127853599D01*
X182979014Y-127715706D01*
X183205134Y-127530134D01*
X183390706Y-127304014D01*
X183400000Y-127286626D01*
X183409294Y-127304014D01*
X183594866Y-127530134D01*
X183820987Y-127715706D01*
X183890000Y-127752594D01*
X183890001Y-136810197D01*
X176681365Y-144018833D01*
X176536411Y-143990000D01*
X176263589Y-143990000D01*
X175996011Y-144043225D01*
X175743957Y-144147629D01*
X175517114Y-144299201D01*
X175324201Y-144492114D01*
X175172629Y-144718957D01*
X175068225Y-144971011D01*
X175015000Y-145238589D01*
X175015000Y-145511411D01*
X175068225Y-145778989D01*
X175172629Y-146031043D01*
X175324201Y-146257886D01*
X175517114Y-146450799D01*
X175743957Y-146602371D01*
X175996011Y-146706775D01*
X176263589Y-146760000D01*
X176536411Y-146760000D01*
X176803989Y-146706775D01*
X177056043Y-146602371D01*
X177282886Y-146450799D01*
X177475799Y-146257886D01*
X177627371Y-146031043D01*
X177731775Y-145778989D01*
X177785000Y-145511411D01*
X177785000Y-145238589D01*
X177756167Y-145093635D01*
X185161003Y-137688799D01*
X185190001Y-137665001D01*
X185216332Y-137632917D01*
X185284974Y-137549277D01*
X185355546Y-137417247D01*
X185360470Y-137401015D01*
X185399003Y-137273986D01*
X185410000Y-137162333D01*
X185410000Y-137162323D01*
X185413676Y-137125000D01*
X185410000Y-137087677D01*
X185410000Y-127752595D01*
X185479014Y-127715706D01*
X185705134Y-127530134D01*
X185890706Y-127304014D01*
X185900000Y-127286626D01*
X185909294Y-127304014D01*
X186094866Y-127530134D01*
X186320987Y-127715706D01*
X186390000Y-127752594D01*
X186390001Y-139310197D01*
X180681365Y-145018833D01*
X180536411Y-144990000D01*
X180263589Y-144990000D01*
X179996011Y-145043225D01*
X179743957Y-145147629D01*
X179517114Y-145299201D01*
X179324201Y-145492114D01*
X179172629Y-145718957D01*
X179068225Y-145971011D01*
X179015000Y-146238589D01*
X179015000Y-146511411D01*
X179068225Y-146778989D01*
X179172629Y-147031043D01*
X179324201Y-147257886D01*
X179517114Y-147450799D01*
X179743957Y-147602371D01*
X179996011Y-147706775D01*
X180263589Y-147760000D01*
X180536411Y-147760000D01*
X180803989Y-147706775D01*
X181056043Y-147602371D01*
X181282886Y-147450799D01*
X181475799Y-147257886D01*
X181627371Y-147031043D01*
X181731775Y-146778989D01*
X181785000Y-146511411D01*
X181785000Y-146238589D01*
X181756167Y-146093635D01*
X187661003Y-140188799D01*
X187690001Y-140165001D01*
X187784974Y-140049276D01*
X187855546Y-139917247D01*
X187899003Y-139773986D01*
X187910000Y-139662333D01*
X187913677Y-139625000D01*
X187910000Y-139587667D01*
X187910000Y-127752595D01*
X187979014Y-127715706D01*
X188205134Y-127530134D01*
X188390706Y-127304014D01*
X188400000Y-127286626D01*
X188409294Y-127304014D01*
X188594866Y-127530134D01*
X188820987Y-127715706D01*
X188890000Y-127752594D01*
X188890001Y-141910197D01*
X182281365Y-148518833D01*
X182136411Y-148490000D01*
X181863589Y-148490000D01*
X181596011Y-148543225D01*
X181343957Y-148647629D01*
X181117114Y-148799201D01*
X180924201Y-148992114D01*
X180772629Y-149218957D01*
X180668225Y-149471011D01*
X180615000Y-149738589D01*
X180615000Y-150011411D01*
X180668225Y-150278989D01*
X180772629Y-150531043D01*
X180924201Y-150757886D01*
X181117114Y-150950799D01*
X181343957Y-151102371D01*
X181596011Y-151206775D01*
X181863589Y-151260000D01*
X182136411Y-151260000D01*
X182403989Y-151206775D01*
X182656043Y-151102371D01*
X182882886Y-150950799D01*
X183075799Y-150757886D01*
X183227371Y-150531043D01*
X183331775Y-150278989D01*
X183385000Y-150011411D01*
X183385000Y-149738589D01*
X183356167Y-149593635D01*
X190161003Y-142788799D01*
X190190001Y-142765001D01*
X190284974Y-142649276D01*
X190355546Y-142517247D01*
X190399003Y-142373986D01*
X190410000Y-142262333D01*
X190410000Y-142262325D01*
X190413676Y-142225000D01*
X190410000Y-142187675D01*
X190410000Y-127752595D01*
X190479014Y-127715706D01*
X190705134Y-127530134D01*
X190890706Y-127304014D01*
X190900000Y-127286626D01*
X190909294Y-127304014D01*
X191094866Y-127530134D01*
X191320987Y-127715706D01*
X191390000Y-127752594D01*
X191390001Y-144010197D01*
X182381365Y-153018833D01*
X182236411Y-152990000D01*
X181963589Y-152990000D01*
X181696011Y-153043225D01*
X181443957Y-153147629D01*
X181217114Y-153299201D01*
X181024201Y-153492114D01*
X180872629Y-153718957D01*
X180768225Y-153971011D01*
X180715000Y-154238589D01*
X180715000Y-154511411D01*
X180768225Y-154778989D01*
X180872629Y-155031043D01*
X181024201Y-155257886D01*
X181217114Y-155450799D01*
X181443957Y-155602371D01*
X181696011Y-155706775D01*
X181963589Y-155760000D01*
X182236411Y-155760000D01*
X182503989Y-155706775D01*
X182756043Y-155602371D01*
X182982886Y-155450799D01*
X183175799Y-155257886D01*
X183327371Y-155031043D01*
X183431775Y-154778989D01*
X183485000Y-154511411D01*
X183485000Y-154238589D01*
X183456167Y-154093635D01*
X192661003Y-144888799D01*
X192690001Y-144865001D01*
X192784974Y-144749276D01*
X192855546Y-144617247D01*
X192899003Y-144473986D01*
X192910000Y-144362333D01*
X192910000Y-144362324D01*
X192913676Y-144325001D01*
X192910000Y-144287678D01*
X192910000Y-127752595D01*
X192979014Y-127715706D01*
X193205134Y-127530134D01*
X193390706Y-127304014D01*
X193528599Y-127046033D01*
X193613513Y-126766110D01*
X193635000Y-126547949D01*
X193635000Y-126152050D01*
X193613513Y-125933889D01*
X193528599Y-125653966D01*
X193390706Y-125395986D01*
X193205134Y-125169866D01*
X192979013Y-124984294D01*
X192721033Y-124846401D01*
X192441110Y-124761487D01*
X192150000Y-124732815D01*
X191858889Y-124761487D01*
X191578966Y-124846401D01*
X191320986Y-124984294D01*
X191094866Y-125169866D01*
X190909294Y-125395987D01*
X190900000Y-125413374D01*
X190890706Y-125395986D01*
X190705134Y-125169866D01*
X190479013Y-124984294D01*
X190221033Y-124846401D01*
X189941110Y-124761487D01*
X189650000Y-124732815D01*
X189358889Y-124761487D01*
X189078966Y-124846401D01*
X188820986Y-124984294D01*
X188594866Y-125169866D01*
X188409294Y-125395987D01*
X188400000Y-125413374D01*
X188390706Y-125395986D01*
X188205134Y-125169866D01*
X187979013Y-124984294D01*
X187721033Y-124846401D01*
X187441110Y-124761487D01*
X187150000Y-124732815D01*
X186858889Y-124761487D01*
X186578966Y-124846401D01*
X186320986Y-124984294D01*
X186094866Y-125169866D01*
X185909294Y-125395987D01*
X185900000Y-125413374D01*
X185890706Y-125395986D01*
X185705134Y-125169866D01*
X185479013Y-124984294D01*
X185221033Y-124846401D01*
X184941110Y-124761487D01*
X184650000Y-124732815D01*
X184358889Y-124761487D01*
X184078966Y-124846401D01*
X183820986Y-124984294D01*
X183594866Y-125169866D01*
X183409294Y-125395987D01*
X183400000Y-125413374D01*
X183390706Y-125395986D01*
X183205134Y-125169866D01*
X182979013Y-124984294D01*
X182721033Y-124846401D01*
X182441110Y-124761487D01*
X182150000Y-124732815D01*
X181858889Y-124761487D01*
X181578966Y-124846401D01*
X181320986Y-124984294D01*
X181094866Y-125169866D01*
X180909294Y-125395987D01*
X180900000Y-125413374D01*
X180890706Y-125395986D01*
X180705134Y-125169866D01*
X180479013Y-124984294D01*
X180221033Y-124846401D01*
X179941110Y-124761487D01*
X179650000Y-124732815D01*
X179358889Y-124761487D01*
X179078966Y-124846401D01*
X178820986Y-124984294D01*
X178594866Y-125169866D01*
X178409294Y-125395987D01*
X178400000Y-125413374D01*
X178390706Y-125395986D01*
X178205134Y-125169866D01*
X177979013Y-124984294D01*
X177721033Y-124846401D01*
X177441110Y-124761487D01*
X177150000Y-124732815D01*
X176858889Y-124761487D01*
X176578966Y-124846401D01*
X176320986Y-124984294D01*
X176094866Y-125169866D01*
X175909294Y-125395987D01*
X175900000Y-125413374D01*
X175890706Y-125395986D01*
X175705134Y-125169866D01*
X175479013Y-124984294D01*
X175221033Y-124846401D01*
X174941110Y-124761487D01*
X174650000Y-124732815D01*
X174358889Y-124761487D01*
X174078966Y-124846401D01*
X173820986Y-124984294D01*
X173594866Y-125169866D01*
X173409294Y-125395987D01*
X173400000Y-125413374D01*
X173390706Y-125395986D01*
X173205134Y-125169866D01*
X172979013Y-124984294D01*
X172721033Y-124846401D01*
X172441110Y-124761487D01*
X172150000Y-124732815D01*
X171858889Y-124761487D01*
X171578966Y-124846401D01*
X171320986Y-124984294D01*
X171094866Y-125169866D01*
X171042777Y-125233337D01*
X170988405Y-125131614D01*
X170877962Y-124997038D01*
X170743386Y-124886595D01*
X170589850Y-124804528D01*
X170423254Y-124753992D01*
X170250000Y-124736928D01*
X169050000Y-124736928D01*
X168876746Y-124753992D01*
X168710150Y-124804528D01*
X168556614Y-124886595D01*
X168422038Y-124997038D01*
X168311595Y-125131614D01*
X168229528Y-125285150D01*
X168178992Y-125451746D01*
X168161928Y-125625000D01*
X168161928Y-127075000D01*
X168178992Y-127248254D01*
X168229528Y-127414850D01*
X168311595Y-127568386D01*
X168422038Y-127702962D01*
X168556614Y-127813405D01*
X168710150Y-127895472D01*
X168876746Y-127946008D01*
X169050000Y-127963072D01*
X169612126Y-127963072D01*
X165139003Y-132436196D01*
X165109999Y-132459999D01*
X165077990Y-132499003D01*
X165015026Y-132575724D01*
X164951563Y-132694454D01*
X164944454Y-132707754D01*
X164900997Y-132851015D01*
X164890000Y-132962668D01*
X164890000Y-132962678D01*
X164886324Y-133000000D01*
X164890000Y-133037322D01*
X164890001Y-156962667D01*
X164886324Y-157000000D01*
X164900998Y-157148985D01*
X164944454Y-157292246D01*
X165015026Y-157424276D01*
X165068965Y-157490000D01*
X165110000Y-157540001D01*
X165138998Y-157563799D01*
X170461200Y-162886002D01*
X170484999Y-162915001D01*
X170513997Y-162938799D01*
X170600723Y-163009974D01*
X170732751Y-163080545D01*
X170732753Y-163080546D01*
X170876014Y-163124003D01*
X170987667Y-163135000D01*
X170987677Y-163135000D01*
X171025000Y-163138676D01*
X171062323Y-163135000D01*
X171242091Y-163135000D01*
X171324201Y-163257886D01*
X171517114Y-163450799D01*
X171743957Y-163602371D01*
X171955515Y-163690001D01*
X148314803Y-163690001D01*
X147281167Y-162656365D01*
X147310000Y-162511411D01*
X147310000Y-162238589D01*
X147256775Y-161971011D01*
X147152371Y-161718957D01*
X147000799Y-161492114D01*
X146807886Y-161299201D01*
X146581043Y-161147629D01*
X146328989Y-161043225D01*
X146061411Y-160990000D01*
X145788589Y-160990000D01*
X145521011Y-161043225D01*
X145268957Y-161147629D01*
X145042114Y-161299201D01*
X144849201Y-161492114D01*
X144697629Y-161718957D01*
X144593225Y-161971011D01*
X144540000Y-162238589D01*
X144540000Y-162511411D01*
X144568833Y-162656364D01*
X143068232Y-164156966D01*
X143152371Y-164031043D01*
X143256775Y-163778989D01*
X143310000Y-163511411D01*
X143310000Y-163238589D01*
X143256775Y-162971011D01*
X143152371Y-162718957D01*
X143000799Y-162492114D01*
X142807886Y-162299201D01*
X142581043Y-162147629D01*
X142328989Y-162043225D01*
X142061411Y-161990000D01*
X141788589Y-161990000D01*
X141521011Y-162043225D01*
X141268957Y-162147629D01*
X141042114Y-162299201D01*
X140849201Y-162492114D01*
X140697629Y-162718957D01*
X140593225Y-162971011D01*
X140540000Y-163238589D01*
X140540000Y-163511411D01*
X140593225Y-163778989D01*
X140697629Y-164031043D01*
X140849201Y-164257886D01*
X141042114Y-164450799D01*
X141268957Y-164602371D01*
X141521011Y-164706775D01*
X141788589Y-164760000D01*
X142061411Y-164760000D01*
X142328989Y-164706775D01*
X142581043Y-164602371D01*
X142706966Y-164518231D01*
X139535199Y-167690000D01*
X100002595Y-167690000D01*
X99965706Y-167620986D01*
X99780134Y-167394866D01*
X99554014Y-167209294D01*
X99528278Y-167195538D01*
X99734429Y-167039049D01*
X99927496Y-166821193D01*
X100074352Y-166569858D01*
X100166476Y-166306890D01*
X100045155Y-166077000D01*
X98727000Y-166077000D01*
X98727000Y-166097000D01*
X98473000Y-166097000D01*
X98473000Y-166077000D01*
X97154845Y-166077000D01*
X97033524Y-166306890D01*
X97125648Y-166569858D01*
X97272504Y-166821193D01*
X97465571Y-167039049D01*
X97671722Y-167195538D01*
X97645986Y-167209294D01*
X97419866Y-167394866D01*
X97234294Y-167620986D01*
X97096401Y-167878966D01*
X97011487Y-168158889D01*
X96982815Y-168450000D01*
X95110000Y-168450000D01*
X95110000Y-165593110D01*
X97033524Y-165593110D01*
X97154845Y-165823000D01*
X98473000Y-165823000D01*
X98473000Y-164623835D01*
X98727000Y-164623835D01*
X98727000Y-165823000D01*
X100045155Y-165823000D01*
X100166476Y-165593110D01*
X100074352Y-165330142D01*
X99927496Y-165078807D01*
X99734429Y-164860951D01*
X99502570Y-164684947D01*
X99240830Y-164557558D01*
X98959267Y-164483680D01*
X98727000Y-164623835D01*
X98473000Y-164623835D01*
X98240733Y-164483680D01*
X97959170Y-164557558D01*
X97697430Y-164684947D01*
X97465571Y-164860951D01*
X97272504Y-165078807D01*
X97125648Y-165330142D01*
X97033524Y-165593110D01*
X95110000Y-165593110D01*
X95110000Y-124432279D01*
X95129437Y-124234042D01*
X95215000Y-124234042D01*
X95215000Y-124565958D01*
X95279754Y-124891496D01*
X95406772Y-125198147D01*
X95591175Y-125474125D01*
X95825875Y-125708825D01*
X96101853Y-125893228D01*
X96408504Y-126020246D01*
X96734042Y-126085000D01*
X97065958Y-126085000D01*
X97391496Y-126020246D01*
X97698147Y-125893228D01*
X97974125Y-125708825D01*
X98057950Y-125625000D01*
X112511928Y-125625000D01*
X112511928Y-127075000D01*
X112528992Y-127248254D01*
X112579528Y-127414850D01*
X112661595Y-127568386D01*
X112772038Y-127702962D01*
X112906614Y-127813405D01*
X113060150Y-127895472D01*
X113226746Y-127946008D01*
X113400000Y-127963072D01*
X114600000Y-127963072D01*
X114773254Y-127946008D01*
X114939850Y-127895472D01*
X115093386Y-127813405D01*
X115227962Y-127702962D01*
X115338405Y-127568386D01*
X115392777Y-127466663D01*
X115444866Y-127530134D01*
X115670987Y-127715706D01*
X115740000Y-127752594D01*
X115740001Y-142112667D01*
X115736324Y-142150000D01*
X115740001Y-142187333D01*
X115750998Y-142298986D01*
X115764180Y-142342442D01*
X115794454Y-142442246D01*
X115865026Y-142574276D01*
X115914861Y-142634999D01*
X115960000Y-142690001D01*
X115988998Y-142713799D01*
X136161200Y-162886002D01*
X136184999Y-162915001D01*
X136300724Y-163009974D01*
X136432753Y-163080546D01*
X136576014Y-163124003D01*
X136687667Y-163135000D01*
X136687676Y-163135000D01*
X136724999Y-163138676D01*
X136762322Y-163135000D01*
X136767091Y-163135000D01*
X136849201Y-163257886D01*
X137042114Y-163450799D01*
X137268957Y-163602371D01*
X137521011Y-163706775D01*
X137788589Y-163760000D01*
X138061411Y-163760000D01*
X138328989Y-163706775D01*
X138581043Y-163602371D01*
X138807886Y-163450799D01*
X139000799Y-163257886D01*
X139152371Y-163031043D01*
X139256775Y-162778989D01*
X139310000Y-162511411D01*
X139310000Y-162238589D01*
X139256775Y-161971011D01*
X139152371Y-161718957D01*
X139000799Y-161492114D01*
X138807886Y-161299201D01*
X138581043Y-161147629D01*
X138328989Y-161043225D01*
X138061411Y-160990000D01*
X137788589Y-160990000D01*
X137521011Y-161043225D01*
X137268957Y-161147629D01*
X137042114Y-161299201D01*
X136883058Y-161458257D01*
X117260000Y-141835199D01*
X117260000Y-127752595D01*
X117329014Y-127715706D01*
X117555134Y-127530134D01*
X117740706Y-127304014D01*
X117750000Y-127286626D01*
X117759294Y-127304014D01*
X117944866Y-127530134D01*
X118170987Y-127715706D01*
X118240001Y-127752595D01*
X118240000Y-141512678D01*
X118236324Y-141550000D01*
X118240000Y-141587322D01*
X118240000Y-141587332D01*
X118250997Y-141698985D01*
X118279287Y-141792246D01*
X118294454Y-141842246D01*
X118365026Y-141974276D01*
X118404871Y-142022826D01*
X118459999Y-142090001D01*
X118489003Y-142113804D01*
X134968833Y-158593635D01*
X134940000Y-158738589D01*
X134940000Y-159011411D01*
X134993225Y-159278989D01*
X135097629Y-159531043D01*
X135249201Y-159757886D01*
X135442114Y-159950799D01*
X135668957Y-160102371D01*
X135921011Y-160206775D01*
X136188589Y-160260000D01*
X136461411Y-160260000D01*
X136728989Y-160206775D01*
X136981043Y-160102371D01*
X137207886Y-159950799D01*
X137400799Y-159757886D01*
X137552371Y-159531043D01*
X137656775Y-159278989D01*
X137710000Y-159011411D01*
X137710000Y-158738589D01*
X146140000Y-158738589D01*
X146140000Y-159011411D01*
X146193225Y-159278989D01*
X146297629Y-159531043D01*
X146449201Y-159757886D01*
X146642114Y-159950799D01*
X146868957Y-160102371D01*
X147121011Y-160206775D01*
X147388589Y-160260000D01*
X147661411Y-160260000D01*
X147928989Y-160206775D01*
X148181043Y-160102371D01*
X148407886Y-159950799D01*
X148600799Y-159757886D01*
X148752371Y-159531043D01*
X148856775Y-159278989D01*
X148910000Y-159011411D01*
X148910000Y-158738589D01*
X148856775Y-158471011D01*
X148752371Y-158218957D01*
X148600799Y-157992114D01*
X148407886Y-157799201D01*
X148181043Y-157647629D01*
X147928989Y-157543225D01*
X147661411Y-157490000D01*
X147388589Y-157490000D01*
X147121011Y-157543225D01*
X146868957Y-157647629D01*
X146642114Y-157799201D01*
X146449201Y-157992114D01*
X146297629Y-158218957D01*
X146193225Y-158471011D01*
X146140000Y-158738589D01*
X137710000Y-158738589D01*
X137656775Y-158471011D01*
X137552371Y-158218957D01*
X137400799Y-157992114D01*
X137207886Y-157799201D01*
X136981043Y-157647629D01*
X136728989Y-157543225D01*
X136461411Y-157490000D01*
X136188589Y-157490000D01*
X136043635Y-157518833D01*
X119760000Y-141235199D01*
X119760000Y-127752595D01*
X119829014Y-127715706D01*
X120055134Y-127530134D01*
X120240706Y-127304014D01*
X120250000Y-127286626D01*
X120259294Y-127304014D01*
X120444866Y-127530134D01*
X120670987Y-127715706D01*
X120740001Y-127752595D01*
X120740000Y-139612678D01*
X120736324Y-139650000D01*
X120740000Y-139687322D01*
X120740000Y-139687332D01*
X120750997Y-139798985D01*
X120777081Y-139884974D01*
X120794454Y-139942246D01*
X120865026Y-140074276D01*
X120904871Y-140122826D01*
X120959999Y-140190001D01*
X120989003Y-140213804D01*
X134868833Y-154093635D01*
X134840000Y-154238589D01*
X134840000Y-154511411D01*
X134893225Y-154778989D01*
X134997629Y-155031043D01*
X135149201Y-155257886D01*
X135342114Y-155450799D01*
X135568957Y-155602371D01*
X135821011Y-155706775D01*
X136088589Y-155760000D01*
X136361411Y-155760000D01*
X136628989Y-155706775D01*
X136881043Y-155602371D01*
X137107886Y-155450799D01*
X137300799Y-155257886D01*
X137452371Y-155031043D01*
X137556775Y-154778989D01*
X137610000Y-154511411D01*
X137610000Y-154238589D01*
X137595307Y-154164721D01*
X139790000Y-154164721D01*
X139790000Y-154585279D01*
X139872047Y-154997756D01*
X140032988Y-155386302D01*
X140266637Y-155735983D01*
X140564017Y-156033363D01*
X140913698Y-156267012D01*
X141302244Y-156427953D01*
X141714721Y-156510000D01*
X142135279Y-156510000D01*
X142547756Y-156427953D01*
X142936302Y-156267012D01*
X143285983Y-156033363D01*
X143583363Y-155735983D01*
X143817012Y-155386302D01*
X143977953Y-154997756D01*
X144060000Y-154585279D01*
X144060000Y-154164721D01*
X143977953Y-153752244D01*
X143817012Y-153363698D01*
X143583363Y-153014017D01*
X143285983Y-152716637D01*
X142936302Y-152482988D01*
X142547756Y-152322047D01*
X142135279Y-152240000D01*
X141714721Y-152240000D01*
X141302244Y-152322047D01*
X140913698Y-152482988D01*
X140564017Y-152716637D01*
X140266637Y-153014017D01*
X140032988Y-153363698D01*
X139872047Y-153752244D01*
X139790000Y-154164721D01*
X137595307Y-154164721D01*
X137556775Y-153971011D01*
X137452371Y-153718957D01*
X137300799Y-153492114D01*
X137107886Y-153299201D01*
X136881043Y-153147629D01*
X136628989Y-153043225D01*
X136361411Y-152990000D01*
X136088589Y-152990000D01*
X135943635Y-153018833D01*
X122260000Y-139335199D01*
X122260000Y-127752595D01*
X122329014Y-127715706D01*
X122555134Y-127530134D01*
X122740706Y-127304014D01*
X122750000Y-127286626D01*
X122759294Y-127304014D01*
X122944866Y-127530134D01*
X123170987Y-127715706D01*
X123240000Y-127752594D01*
X123240001Y-137512668D01*
X123236324Y-137550000D01*
X123250998Y-137698985D01*
X123294454Y-137842246D01*
X123365026Y-137974276D01*
X123436201Y-138061002D01*
X123460000Y-138090001D01*
X123488998Y-138113799D01*
X134968833Y-149593635D01*
X134940000Y-149738589D01*
X134940000Y-150011411D01*
X134993225Y-150278989D01*
X135097629Y-150531043D01*
X135249201Y-150757886D01*
X135442114Y-150950799D01*
X135668957Y-151102371D01*
X135921011Y-151206775D01*
X136188589Y-151260000D01*
X136461411Y-151260000D01*
X136728989Y-151206775D01*
X136981043Y-151102371D01*
X137207886Y-150950799D01*
X137400799Y-150757886D01*
X137552371Y-150531043D01*
X137656775Y-150278989D01*
X137710000Y-150011411D01*
X137710000Y-149738589D01*
X137656775Y-149471011D01*
X137552371Y-149218957D01*
X137400799Y-148992114D01*
X137207886Y-148799201D01*
X136981043Y-148647629D01*
X136728989Y-148543225D01*
X136461411Y-148490000D01*
X136188589Y-148490000D01*
X136043635Y-148518833D01*
X124760000Y-137235199D01*
X124760000Y-127752595D01*
X124829014Y-127715706D01*
X125055134Y-127530134D01*
X125240706Y-127304014D01*
X125250000Y-127286626D01*
X125259294Y-127304014D01*
X125444866Y-127530134D01*
X125670987Y-127715706D01*
X125740000Y-127752594D01*
X125740001Y-134912668D01*
X125736324Y-134950000D01*
X125740001Y-134987333D01*
X125746720Y-135055546D01*
X125750998Y-135098985D01*
X125794454Y-135242246D01*
X125865026Y-135374276D01*
X125936201Y-135461002D01*
X125960000Y-135490001D01*
X125988998Y-135513799D01*
X136568833Y-146093635D01*
X136540000Y-146238589D01*
X136540000Y-146511411D01*
X136593225Y-146778989D01*
X136697629Y-147031043D01*
X136849201Y-147257886D01*
X137042114Y-147450799D01*
X137268957Y-147602371D01*
X137521011Y-147706775D01*
X137788589Y-147760000D01*
X138061411Y-147760000D01*
X138328989Y-147706775D01*
X138581043Y-147602371D01*
X138807886Y-147450799D01*
X139000799Y-147257886D01*
X139152371Y-147031043D01*
X139256775Y-146778989D01*
X139310000Y-146511411D01*
X139310000Y-146238589D01*
X139256775Y-145971011D01*
X139152371Y-145718957D01*
X139000799Y-145492114D01*
X138807886Y-145299201D01*
X138581043Y-145147629D01*
X138328989Y-145043225D01*
X138061411Y-144990000D01*
X137788589Y-144990000D01*
X137643635Y-145018833D01*
X127260000Y-134635199D01*
X127260000Y-127752595D01*
X127329014Y-127715706D01*
X127555134Y-127530134D01*
X127740706Y-127304014D01*
X127750000Y-127286626D01*
X127759294Y-127304014D01*
X127944866Y-127530134D01*
X128170987Y-127715706D01*
X128240000Y-127752594D01*
X128240001Y-132412668D01*
X128236324Y-132450000D01*
X128250998Y-132598985D01*
X128294454Y-132742246D01*
X128365026Y-132874276D01*
X128436201Y-132961002D01*
X128460000Y-132990001D01*
X128488998Y-133013799D01*
X140568833Y-145093635D01*
X140540000Y-145238589D01*
X140540000Y-145511411D01*
X140593225Y-145778989D01*
X140697629Y-146031043D01*
X140849201Y-146257886D01*
X141042114Y-146450799D01*
X141268957Y-146602371D01*
X141521011Y-146706775D01*
X141788589Y-146760000D01*
X142061411Y-146760000D01*
X142328989Y-146706775D01*
X142581043Y-146602371D01*
X142807886Y-146450799D01*
X143000799Y-146257886D01*
X143152371Y-146031043D01*
X143256775Y-145778989D01*
X143310000Y-145511411D01*
X143310000Y-145238589D01*
X143256775Y-144971011D01*
X143152371Y-144718957D01*
X143000799Y-144492114D01*
X142807886Y-144299201D01*
X142581043Y-144147629D01*
X142328989Y-144043225D01*
X142061411Y-143990000D01*
X141788589Y-143990000D01*
X141643635Y-144018833D01*
X129760000Y-132135199D01*
X129760000Y-127752595D01*
X129829014Y-127715706D01*
X130055134Y-127530134D01*
X130240706Y-127304014D01*
X130250000Y-127286626D01*
X130259294Y-127304014D01*
X130444866Y-127530134D01*
X130670987Y-127715706D01*
X130928967Y-127853599D01*
X131208890Y-127938513D01*
X131500000Y-127967185D01*
X131791111Y-127938513D01*
X131961903Y-127886704D01*
X145165001Y-141089803D01*
X145165000Y-145217091D01*
X145042114Y-145299201D01*
X144849201Y-145492114D01*
X144697629Y-145718957D01*
X144593225Y-145971011D01*
X144540000Y-146238589D01*
X144540000Y-146511411D01*
X144593225Y-146778989D01*
X144697629Y-147031043D01*
X144849201Y-147257886D01*
X145042114Y-147450799D01*
X145268957Y-147602371D01*
X145521011Y-147706775D01*
X145788589Y-147760000D01*
X146061411Y-147760000D01*
X146328989Y-147706775D01*
X146581043Y-147602371D01*
X146765001Y-147479454D01*
X146765001Y-148717090D01*
X146642114Y-148799201D01*
X146449201Y-148992114D01*
X146297629Y-149218957D01*
X146193225Y-149471011D01*
X146140000Y-149738589D01*
X146140000Y-150011411D01*
X146193225Y-150278989D01*
X146297629Y-150531043D01*
X146449201Y-150757886D01*
X146642114Y-150950799D01*
X146868957Y-151102371D01*
X147121011Y-151206775D01*
X147388589Y-151260000D01*
X147661411Y-151260000D01*
X147928989Y-151206775D01*
X148181043Y-151102371D01*
X148407886Y-150950799D01*
X148600799Y-150757886D01*
X148640001Y-150699216D01*
X148640001Y-152285197D01*
X147906365Y-153018833D01*
X147761411Y-152990000D01*
X147488589Y-152990000D01*
X147221011Y-153043225D01*
X146968957Y-153147629D01*
X146742114Y-153299201D01*
X146549201Y-153492114D01*
X146397629Y-153718957D01*
X146293225Y-153971011D01*
X146240000Y-154238589D01*
X146240000Y-154511411D01*
X146293225Y-154778989D01*
X146397629Y-155031043D01*
X146549201Y-155257886D01*
X146742114Y-155450799D01*
X146968957Y-155602371D01*
X147221011Y-155706775D01*
X147488589Y-155760000D01*
X147761411Y-155760000D01*
X148028989Y-155706775D01*
X148281043Y-155602371D01*
X148507886Y-155450799D01*
X148700799Y-155257886D01*
X148852371Y-155031043D01*
X148956775Y-154778989D01*
X149010000Y-154511411D01*
X149010000Y-154238589D01*
X148981167Y-154093635D01*
X149911003Y-153163799D01*
X149940001Y-153140001D01*
X149966466Y-153107753D01*
X150034974Y-153024277D01*
X150105546Y-152892247D01*
X150115328Y-152859998D01*
X150149003Y-152748986D01*
X150160000Y-152637333D01*
X150160000Y-152637324D01*
X150163676Y-152600001D01*
X150160000Y-152562678D01*
X150160000Y-139287323D01*
X150163676Y-139250000D01*
X150160000Y-139212677D01*
X150160000Y-139212667D01*
X150149003Y-139101014D01*
X150105546Y-138957753D01*
X150098437Y-138944454D01*
X150034974Y-138825723D01*
X149963799Y-138738997D01*
X149940001Y-138709999D01*
X149911004Y-138686202D01*
X137965970Y-126741168D01*
X137985000Y-126547949D01*
X137985000Y-126152050D01*
X137963513Y-125933889D01*
X137878599Y-125653966D01*
X137740706Y-125395986D01*
X137555134Y-125169866D01*
X137329013Y-124984294D01*
X137071033Y-124846401D01*
X136791110Y-124761487D01*
X136500000Y-124732815D01*
X136208889Y-124761487D01*
X135928966Y-124846401D01*
X135670986Y-124984294D01*
X135444866Y-125169866D01*
X135259294Y-125395987D01*
X135250000Y-125413374D01*
X135240706Y-125395986D01*
X135055134Y-125169866D01*
X134829013Y-124984294D01*
X134571033Y-124846401D01*
X134291110Y-124761487D01*
X134000000Y-124732815D01*
X133708889Y-124761487D01*
X133428966Y-124846401D01*
X133170986Y-124984294D01*
X132944866Y-125169866D01*
X132759294Y-125395987D01*
X132750000Y-125413374D01*
X132740706Y-125395986D01*
X132555134Y-125169866D01*
X132329013Y-124984294D01*
X132071033Y-124846401D01*
X131791110Y-124761487D01*
X131500000Y-124732815D01*
X131208889Y-124761487D01*
X130928966Y-124846401D01*
X130670986Y-124984294D01*
X130444866Y-125169866D01*
X130259294Y-125395987D01*
X130250000Y-125413374D01*
X130240706Y-125395986D01*
X130055134Y-125169866D01*
X129829013Y-124984294D01*
X129571033Y-124846401D01*
X129291110Y-124761487D01*
X129000000Y-124732815D01*
X128708889Y-124761487D01*
X128428966Y-124846401D01*
X128170986Y-124984294D01*
X127944866Y-125169866D01*
X127759294Y-125395987D01*
X127750000Y-125413374D01*
X127740706Y-125395986D01*
X127555134Y-125169866D01*
X127329013Y-124984294D01*
X127071033Y-124846401D01*
X126791110Y-124761487D01*
X126500000Y-124732815D01*
X126208889Y-124761487D01*
X125928966Y-124846401D01*
X125670986Y-124984294D01*
X125444866Y-125169866D01*
X125259294Y-125395987D01*
X125250000Y-125413374D01*
X125240706Y-125395986D01*
X125055134Y-125169866D01*
X124829013Y-124984294D01*
X124571033Y-124846401D01*
X124291110Y-124761487D01*
X124000000Y-124732815D01*
X123708889Y-124761487D01*
X123428966Y-124846401D01*
X123170986Y-124984294D01*
X122944866Y-125169866D01*
X122759294Y-125395987D01*
X122750000Y-125413374D01*
X122740706Y-125395986D01*
X122555134Y-125169866D01*
X122329013Y-124984294D01*
X122071033Y-124846401D01*
X121791110Y-124761487D01*
X121500000Y-124732815D01*
X121208889Y-124761487D01*
X120928966Y-124846401D01*
X120670986Y-124984294D01*
X120444866Y-125169866D01*
X120259294Y-125395987D01*
X120250000Y-125413374D01*
X120240706Y-125395986D01*
X120055134Y-125169866D01*
X119829013Y-124984294D01*
X119571033Y-124846401D01*
X119291110Y-124761487D01*
X119000000Y-124732815D01*
X118708889Y-124761487D01*
X118428966Y-124846401D01*
X118170986Y-124984294D01*
X117944866Y-125169866D01*
X117759294Y-125395987D01*
X117750000Y-125413374D01*
X117740706Y-125395986D01*
X117555134Y-125169866D01*
X117329013Y-124984294D01*
X117071033Y-124846401D01*
X116791110Y-124761487D01*
X116500000Y-124732815D01*
X116208889Y-124761487D01*
X115928966Y-124846401D01*
X115670986Y-124984294D01*
X115444866Y-125169866D01*
X115392777Y-125233337D01*
X115338405Y-125131614D01*
X115227962Y-124997038D01*
X115093386Y-124886595D01*
X114939850Y-124804528D01*
X114773254Y-124753992D01*
X114600000Y-124736928D01*
X113400000Y-124736928D01*
X113226746Y-124753992D01*
X113060150Y-124804528D01*
X112906614Y-124886595D01*
X112772038Y-124997038D01*
X112661595Y-125131614D01*
X112579528Y-125285150D01*
X112528992Y-125451746D01*
X112511928Y-125625000D01*
X98057950Y-125625000D01*
X98208825Y-125474125D01*
X98393228Y-125198147D01*
X98520246Y-124891496D01*
X98585000Y-124565958D01*
X98585000Y-124234042D01*
X320215000Y-124234042D01*
X320215000Y-124565958D01*
X320279754Y-124891496D01*
X320406772Y-125198147D01*
X320591175Y-125474125D01*
X320825875Y-125708825D01*
X321101853Y-125893228D01*
X321408504Y-126020246D01*
X321734042Y-126085000D01*
X322065958Y-126085000D01*
X322391496Y-126020246D01*
X322698147Y-125893228D01*
X322974125Y-125708825D01*
X323208825Y-125474125D01*
X323393228Y-125198147D01*
X323520246Y-124891496D01*
X323585000Y-124565958D01*
X323585000Y-124234042D01*
X323520246Y-123908504D01*
X323393228Y-123601853D01*
X323208825Y-123325875D01*
X322974125Y-123091175D01*
X322698147Y-122906772D01*
X322391496Y-122779754D01*
X322065958Y-122715000D01*
X321734042Y-122715000D01*
X321408504Y-122779754D01*
X321101853Y-122906772D01*
X320825875Y-123091175D01*
X320591175Y-123325875D01*
X320406772Y-123601853D01*
X320279754Y-123908504D01*
X320215000Y-124234042D01*
X98585000Y-124234042D01*
X98520246Y-123908504D01*
X98393228Y-123601853D01*
X98208825Y-123325875D01*
X97974125Y-123091175D01*
X97698147Y-122906772D01*
X97391496Y-122779754D01*
X97065958Y-122715000D01*
X96734042Y-122715000D01*
X96408504Y-122779754D01*
X96101853Y-122906772D01*
X95825875Y-123091175D01*
X95591175Y-123325875D01*
X95406772Y-123601853D01*
X95279754Y-123908504D01*
X95215000Y-124234042D01*
X95129437Y-124234042D01*
X95147195Y-124052936D01*
X95247990Y-123719088D01*
X95411708Y-123411179D01*
X95632115Y-123140935D01*
X95900813Y-122918647D01*
X96207572Y-122752783D01*
X96540710Y-122649660D01*
X96918051Y-122610000D01*
X321867721Y-122610000D01*
X322247064Y-122647195D01*
%TA.AperFunction,Conductor*%
D24*
G36*
X322247064Y-122647195D02*
G01*
X322580912Y-122747990D01*
X322888821Y-122911708D01*
X323159065Y-123132115D01*
X323381353Y-123400813D01*
X323547217Y-123707572D01*
X323650340Y-124040710D01*
X323690000Y-124418051D01*
X323690001Y-184317711D01*
X323652805Y-184697064D01*
X323552011Y-185030909D01*
X323388293Y-185338820D01*
X323167888Y-185609063D01*
X322899184Y-185831354D01*
X322592426Y-185997218D01*
X322259291Y-186100340D01*
X321881948Y-186140000D01*
X96932279Y-186140000D01*
X96552936Y-186102805D01*
X96219091Y-186002011D01*
X95911180Y-185838293D01*
X95640937Y-185617888D01*
X95418646Y-185349184D01*
X95252782Y-185042426D01*
X95149660Y-184709291D01*
X95110000Y-184331948D01*
X95110000Y-184184042D01*
X95215000Y-184184042D01*
X95215000Y-184515958D01*
X95279754Y-184841496D01*
X95406772Y-185148147D01*
X95591175Y-185424125D01*
X95825875Y-185658825D01*
X96101853Y-185843228D01*
X96408504Y-185970246D01*
X96734042Y-186035000D01*
X97065958Y-186035000D01*
X97391496Y-185970246D01*
X97698147Y-185843228D01*
X97974125Y-185658825D01*
X98208825Y-185424125D01*
X98393228Y-185148147D01*
X98520246Y-184841496D01*
X98585000Y-184515958D01*
X98585000Y-184184042D01*
X320215000Y-184184042D01*
X320215000Y-184515958D01*
X320279754Y-184841496D01*
X320406772Y-185148147D01*
X320591175Y-185424125D01*
X320825875Y-185658825D01*
X321101853Y-185843228D01*
X321408504Y-185970246D01*
X321734042Y-186035000D01*
X322065958Y-186035000D01*
X322391496Y-185970246D01*
X322698147Y-185843228D01*
X322974125Y-185658825D01*
X323208825Y-185424125D01*
X323393228Y-185148147D01*
X323520246Y-184841496D01*
X323585000Y-184515958D01*
X323585000Y-184184042D01*
X323520246Y-183858504D01*
X323393228Y-183551853D01*
X323208825Y-183275875D01*
X322974125Y-183041175D01*
X322698147Y-182856772D01*
X322391496Y-182729754D01*
X322065958Y-182665000D01*
X321734042Y-182665000D01*
X321408504Y-182729754D01*
X321101853Y-182856772D01*
X320825875Y-183041175D01*
X320591175Y-183275875D01*
X320406772Y-183551853D01*
X320279754Y-183858504D01*
X320215000Y-184184042D01*
X98585000Y-184184042D01*
X98520246Y-183858504D01*
X98393228Y-183551853D01*
X98208825Y-183275875D01*
X97974125Y-183041175D01*
X97698147Y-182856772D01*
X97391496Y-182729754D01*
X97065958Y-182665000D01*
X96734042Y-182665000D01*
X96408504Y-182729754D01*
X96101853Y-182856772D01*
X95825875Y-183041175D01*
X95591175Y-183275875D01*
X95406772Y-183551853D01*
X95279754Y-183858504D01*
X95215000Y-184184042D01*
X95110000Y-184184042D01*
X95110000Y-180225000D01*
X191961928Y-180225000D01*
X191974188Y-180349482D01*
X192010498Y-180469180D01*
X192069463Y-180579494D01*
X192148815Y-180676185D01*
X192245506Y-180755537D01*
X192355820Y-180814502D01*
X192475518Y-180850812D01*
X192600000Y-180863072D01*
X193064250Y-180860000D01*
X193223000Y-180701250D01*
X193223000Y-179827000D01*
X193477000Y-179827000D01*
X193477000Y-180701250D01*
X193635750Y-180860000D01*
X194100000Y-180863072D01*
X194224482Y-180850812D01*
X194344180Y-180814502D01*
X194454494Y-180755537D01*
X194551185Y-180676185D01*
X194630537Y-180579494D01*
X194689502Y-180469180D01*
X194725812Y-180349482D01*
X194738072Y-180225000D01*
X194735000Y-179985750D01*
X194576250Y-179827000D01*
X193477000Y-179827000D01*
X193223000Y-179827000D01*
X192123750Y-179827000D01*
X191965000Y-179985750D01*
X191961928Y-180225000D01*
X95110000Y-180225000D01*
X95110000Y-177160000D01*
X191959388Y-177160000D01*
X191981785Y-177387400D01*
X192048115Y-177606060D01*
X192149105Y-177795000D01*
X192048115Y-177983940D01*
X191981785Y-178202600D01*
X191959388Y-178430000D01*
X191981785Y-178657400D01*
X192045093Y-178866098D01*
X192010498Y-178930820D01*
X191974188Y-179050518D01*
X191961928Y-179175000D01*
X191965000Y-179414250D01*
X192123750Y-179573000D01*
X192896891Y-179573000D01*
X192897600Y-179573215D01*
X193068021Y-179590000D01*
X193631979Y-179590000D01*
X193802400Y-179573215D01*
X193803109Y-179573000D01*
X194576250Y-179573000D01*
X194735000Y-179414250D01*
X194737879Y-179190000D01*
X200622025Y-179190000D01*
X200613038Y-179198987D01*
X200466939Y-179417641D01*
X200366304Y-179660595D01*
X200315000Y-179918514D01*
X200315000Y-180181486D01*
X200366304Y-180439405D01*
X200466939Y-180682359D01*
X200613038Y-180901013D01*
X200798987Y-181086962D01*
X201017641Y-181233061D01*
X201260595Y-181333696D01*
X201518514Y-181385000D01*
X201781486Y-181385000D01*
X201888843Y-181363645D01*
X202111202Y-181586004D01*
X202135000Y-181615002D01*
X202250725Y-181709975D01*
X202382754Y-181780547D01*
X202526015Y-181824004D01*
X202637668Y-181835001D01*
X202637677Y-181835001D01*
X202675000Y-181838677D01*
X202712323Y-181835001D01*
X222842679Y-181835001D01*
X222880001Y-181838677D01*
X222917323Y-181835001D01*
X222917334Y-181835001D01*
X223028987Y-181824004D01*
X223172248Y-181780547D01*
X223304277Y-181709975D01*
X223420002Y-181615002D01*
X223443805Y-181585999D01*
X224356005Y-180673799D01*
X224385002Y-180650002D01*
X224434244Y-180590001D01*
X224479975Y-180534278D01*
X224550547Y-180402248D01*
X224566553Y-180349482D01*
X224594004Y-180258987D01*
X224605001Y-180147334D01*
X224605001Y-180147325D01*
X224608677Y-180110002D01*
X224605001Y-180072679D01*
X224605001Y-175652326D01*
X224608677Y-175615001D01*
X224605001Y-175577676D01*
X224605001Y-175577668D01*
X224594004Y-175466015D01*
X224550547Y-175322754D01*
X224479975Y-175190725D01*
X224385002Y-175075000D01*
X224356004Y-175051202D01*
X224118688Y-174813886D01*
X224155000Y-174631335D01*
X224155000Y-174348665D01*
X224099853Y-174071426D01*
X223991680Y-173810273D01*
X223834637Y-173575241D01*
X223634759Y-173375363D01*
X223402241Y-173220000D01*
X223634759Y-173064637D01*
X223834637Y-172864759D01*
X223991680Y-172629727D01*
X224099853Y-172368574D01*
X224155000Y-172091335D01*
X224155000Y-171808665D01*
X224099853Y-171531426D01*
X223991680Y-171270273D01*
X223834637Y-171035241D01*
X223634759Y-170835363D01*
X223399727Y-170678320D01*
X223138574Y-170570147D01*
X222861335Y-170515000D01*
X222578665Y-170515000D01*
X222301426Y-170570147D01*
X222040273Y-170678320D01*
X221805241Y-170835363D01*
X221605363Y-171035241D01*
X221448320Y-171270273D01*
X221340147Y-171531426D01*
X221285000Y-171808665D01*
X221285000Y-171980199D01*
X219618803Y-170314002D01*
X219595000Y-170284998D01*
X219479275Y-170190025D01*
X219347246Y-170119453D01*
X219203985Y-170075996D01*
X219092332Y-170064999D01*
X219092321Y-170064999D01*
X219054999Y-170061323D01*
X219017677Y-170064999D01*
X210762326Y-170064999D01*
X210725001Y-170061323D01*
X210687676Y-170064999D01*
X210687668Y-170064999D01*
X210576015Y-170075996D01*
X210432754Y-170119453D01*
X210300725Y-170190025D01*
X210185000Y-170284998D01*
X210161202Y-170313996D01*
X209538843Y-170936355D01*
X209431486Y-170915000D01*
X209168514Y-170915000D01*
X208910595Y-170966304D01*
X208667641Y-171066939D01*
X208448987Y-171213038D01*
X208263038Y-171398987D01*
X208116939Y-171617641D01*
X208016304Y-171860595D01*
X207965000Y-172118514D01*
X207965000Y-172381486D01*
X208016304Y-172639405D01*
X208116939Y-172882359D01*
X208263038Y-173101013D01*
X208448987Y-173286962D01*
X208667641Y-173433061D01*
X208910595Y-173533696D01*
X209168514Y-173585000D01*
X209431486Y-173585000D01*
X209689405Y-173533696D01*
X209932359Y-173433061D01*
X210151013Y-173286962D01*
X210336962Y-173101013D01*
X210483061Y-172882359D01*
X210583696Y-172639405D01*
X210635000Y-172381486D01*
X210635000Y-172118514D01*
X210613645Y-172011157D01*
X211039803Y-171584999D01*
X213664527Y-171584999D01*
X213665000Y-171664250D01*
X213823750Y-171823000D01*
X214973000Y-171823000D01*
X214973000Y-171803000D01*
X215227000Y-171803000D01*
X215227000Y-171823000D01*
X216376250Y-171823000D01*
X216535000Y-171664250D01*
X216535473Y-171584999D01*
X218740198Y-171584999D01*
X221321312Y-174166114D01*
X221285000Y-174348665D01*
X221285000Y-174520199D01*
X220743804Y-173979003D01*
X220720001Y-173949999D01*
X220604276Y-173855026D01*
X220472247Y-173784454D01*
X220328986Y-173740997D01*
X220217333Y-173730000D01*
X220217322Y-173730000D01*
X220180000Y-173726324D01*
X220142678Y-173730000D01*
X216318043Y-173730000D01*
X216214637Y-173575241D01*
X216016039Y-173376643D01*
X216024482Y-173375812D01*
X216144180Y-173339502D01*
X216254494Y-173280537D01*
X216351185Y-173201185D01*
X216430537Y-173104494D01*
X216489502Y-172994180D01*
X216525812Y-172874482D01*
X216538072Y-172750000D01*
X216535000Y-172235750D01*
X216376250Y-172077000D01*
X215227000Y-172077000D01*
X215227000Y-172097000D01*
X214973000Y-172097000D01*
X214973000Y-172077000D01*
X213823750Y-172077000D01*
X213665000Y-172235750D01*
X213661928Y-172750000D01*
X213674188Y-172874482D01*
X213710498Y-172994180D01*
X213769463Y-173104494D01*
X213848815Y-173201185D01*
X213945506Y-173280537D01*
X214055820Y-173339502D01*
X214175518Y-173375812D01*
X214183961Y-173376643D01*
X213985363Y-173575241D01*
X213881957Y-173730000D01*
X204234803Y-173730000D01*
X202993645Y-172488843D01*
X203015000Y-172381486D01*
X203015000Y-172118514D01*
X202963696Y-171860595D01*
X202863061Y-171617641D01*
X202716962Y-171398987D01*
X202531013Y-171213038D01*
X202312359Y-171066939D01*
X202069405Y-170966304D01*
X201811486Y-170915000D01*
X201548514Y-170915000D01*
X201441157Y-170936355D01*
X199343804Y-168839003D01*
X199320001Y-168809999D01*
X199204276Y-168715026D01*
X199072247Y-168644454D01*
X198928986Y-168600997D01*
X198817333Y-168590000D01*
X198817322Y-168590000D01*
X198780000Y-168586324D01*
X198742678Y-168590000D01*
X195838072Y-168590000D01*
X195838072Y-168550000D01*
X195830047Y-168468514D01*
X200345000Y-168468514D01*
X200345000Y-168731486D01*
X200396304Y-168989405D01*
X200496939Y-169232359D01*
X200643038Y-169451013D01*
X200828987Y-169636962D01*
X201047641Y-169783061D01*
X201290595Y-169883696D01*
X201548514Y-169935000D01*
X201811486Y-169935000D01*
X202069405Y-169883696D01*
X202312359Y-169783061D01*
X202531013Y-169636962D01*
X202716962Y-169451013D01*
X202863061Y-169232359D01*
X202963696Y-168989405D01*
X203015000Y-168731486D01*
X203015000Y-168468514D01*
X207965000Y-168468514D01*
X207965000Y-168731486D01*
X208016304Y-168989405D01*
X208116939Y-169232359D01*
X208263038Y-169451013D01*
X208448987Y-169636962D01*
X208667641Y-169783061D01*
X208910595Y-169883696D01*
X209168514Y-169935000D01*
X209431486Y-169935000D01*
X209689405Y-169883696D01*
X209932359Y-169783061D01*
X210151013Y-169636962D01*
X210336962Y-169451013D01*
X210483061Y-169232359D01*
X210583696Y-168989405D01*
X210635000Y-168731486D01*
X210635000Y-168468514D01*
X210583696Y-168210595D01*
X210483061Y-167967641D01*
X210336962Y-167748987D01*
X210151013Y-167563038D01*
X209932359Y-167416939D01*
X209689405Y-167316304D01*
X209431486Y-167265000D01*
X209168514Y-167265000D01*
X208910595Y-167316304D01*
X208667641Y-167416939D01*
X208448987Y-167563038D01*
X208263038Y-167748987D01*
X208116939Y-167967641D01*
X208016304Y-168210595D01*
X207965000Y-168468514D01*
X203015000Y-168468514D01*
X202963696Y-168210595D01*
X202863061Y-167967641D01*
X202716962Y-167748987D01*
X202531013Y-167563038D01*
X202312359Y-167416939D01*
X202069405Y-167316304D01*
X201811486Y-167265000D01*
X201548514Y-167265000D01*
X201290595Y-167316304D01*
X201047641Y-167416939D01*
X200828987Y-167563038D01*
X200643038Y-167748987D01*
X200496939Y-167967641D01*
X200396304Y-168210595D01*
X200345000Y-168468514D01*
X195830047Y-168468514D01*
X195825812Y-168425518D01*
X195789502Y-168305820D01*
X195730537Y-168195506D01*
X195651185Y-168098815D01*
X195554494Y-168019463D01*
X195444180Y-167960498D01*
X195324482Y-167924188D01*
X195200000Y-167911928D01*
X193600000Y-167911928D01*
X193475518Y-167924188D01*
X193355820Y-167960498D01*
X193245506Y-168019463D01*
X193148815Y-168098815D01*
X193069463Y-168195506D01*
X193010498Y-168305820D01*
X192974188Y-168425518D01*
X192961928Y-168550000D01*
X192961928Y-168557215D01*
X192892702Y-168536903D01*
X192079605Y-169350000D01*
X192892702Y-170163097D01*
X192961928Y-170142785D01*
X192961928Y-170150000D01*
X192974188Y-170274482D01*
X193010498Y-170394180D01*
X193069463Y-170504494D01*
X193148815Y-170601185D01*
X193245506Y-170680537D01*
X193355820Y-170739502D01*
X193475518Y-170775812D01*
X193600000Y-170788072D01*
X195200000Y-170788072D01*
X195324482Y-170775812D01*
X195444180Y-170739502D01*
X195554494Y-170680537D01*
X195651185Y-170601185D01*
X195730537Y-170504494D01*
X195789502Y-170394180D01*
X195825812Y-170274482D01*
X195838072Y-170150000D01*
X195838072Y-170110000D01*
X198465199Y-170110000D01*
X200366355Y-172011157D01*
X200345000Y-172118514D01*
X200345000Y-172381486D01*
X200396304Y-172639405D01*
X200496939Y-172882359D01*
X200643038Y-173101013D01*
X200828987Y-173286962D01*
X201047641Y-173433061D01*
X201290595Y-173533696D01*
X201548514Y-173585000D01*
X201811486Y-173585000D01*
X201918843Y-173563645D01*
X202717779Y-174362582D01*
X202705000Y-174361323D01*
X202667677Y-174364999D01*
X202667668Y-174364999D01*
X202556015Y-174375996D01*
X202412754Y-174419453D01*
X202280725Y-174490025D01*
X202165000Y-174584998D01*
X202141202Y-174613996D01*
X201918843Y-174836355D01*
X201811486Y-174815000D01*
X201548514Y-174815000D01*
X201290595Y-174866304D01*
X201047641Y-174966939D01*
X200828987Y-175113038D01*
X200643038Y-175298987D01*
X200496939Y-175517641D01*
X200396304Y-175760595D01*
X200345000Y-176018514D01*
X200345000Y-176281486D01*
X200396304Y-176539405D01*
X200496939Y-176782359D01*
X200643038Y-177001013D01*
X200828987Y-177186962D01*
X201047641Y-177333061D01*
X201290595Y-177433696D01*
X201548514Y-177485000D01*
X201811486Y-177485000D01*
X202069405Y-177433696D01*
X202312359Y-177333061D01*
X202531013Y-177186962D01*
X202716962Y-177001013D01*
X202863061Y-176782359D01*
X202963696Y-176539405D01*
X203015000Y-176281486D01*
X203015000Y-176018514D01*
X202993645Y-175911157D01*
X203019803Y-175884999D01*
X207991558Y-175884999D01*
X207965000Y-176018514D01*
X207965000Y-176281486D01*
X207986355Y-176388843D01*
X206705199Y-177670000D01*
X194617708Y-177670000D01*
X194651885Y-177606060D01*
X194718215Y-177387400D01*
X194740612Y-177160000D01*
X194718215Y-176932600D01*
X194651885Y-176713940D01*
X194544171Y-176512421D01*
X194399212Y-176335788D01*
X194222579Y-176190829D01*
X194021060Y-176083115D01*
X193802400Y-176016785D01*
X193631979Y-176000000D01*
X193068021Y-176000000D01*
X192897600Y-176016785D01*
X192678940Y-176083115D01*
X192477421Y-176190829D01*
X192300788Y-176335788D01*
X192155829Y-176512421D01*
X192048115Y-176713940D01*
X191981785Y-176932600D01*
X191959388Y-177160000D01*
X95110000Y-177160000D01*
X95110000Y-168450000D01*
X96982815Y-168450000D01*
X97011487Y-168741111D01*
X97096401Y-169021034D01*
X97234294Y-169279014D01*
X97419866Y-169505134D01*
X97483337Y-169557223D01*
X97381614Y-169611595D01*
X97247038Y-169722038D01*
X97136595Y-169856614D01*
X97054528Y-170010150D01*
X97003992Y-170176746D01*
X96986928Y-170350000D01*
X96986928Y-171550000D01*
X97003992Y-171723254D01*
X97054528Y-171889850D01*
X97136595Y-172043386D01*
X97247038Y-172177962D01*
X97381614Y-172288405D01*
X97535150Y-172370472D01*
X97701746Y-172421008D01*
X97875000Y-172438072D01*
X99325000Y-172438072D01*
X99498254Y-172421008D01*
X99664850Y-172370472D01*
X99818386Y-172288405D01*
X99952962Y-172177962D01*
X100063405Y-172043386D01*
X100145472Y-171889850D01*
X100196008Y-171723254D01*
X100213072Y-171550000D01*
X100213072Y-170350000D01*
X100212354Y-170342702D01*
X191086903Y-170342702D01*
X191158486Y-170586671D01*
X191413996Y-170707571D01*
X191688184Y-170776300D01*
X191970512Y-170790217D01*
X192250130Y-170748787D01*
X192516292Y-170653603D01*
X192641514Y-170586671D01*
X192713097Y-170342702D01*
X191900000Y-169529605D01*
X191086903Y-170342702D01*
X100212354Y-170342702D01*
X100196008Y-170176746D01*
X100145472Y-170010150D01*
X100063405Y-169856614D01*
X99952962Y-169722038D01*
X99818386Y-169611595D01*
X99716663Y-169557223D01*
X99780134Y-169505134D01*
X99849581Y-169420512D01*
X190459783Y-169420512D01*
X190501213Y-169700130D01*
X190596397Y-169966292D01*
X190663329Y-170091514D01*
X190907298Y-170163097D01*
X191720395Y-169350000D01*
X190907298Y-168536903D01*
X190663329Y-168608486D01*
X190542429Y-168863996D01*
X190473700Y-169138184D01*
X190459783Y-169420512D01*
X99849581Y-169420512D01*
X99965706Y-169279014D01*
X100002595Y-169210000D01*
X139812678Y-169210000D01*
X139850000Y-169213676D01*
X139887322Y-169210000D01*
X139887333Y-169210000D01*
X139998986Y-169199003D01*
X140142247Y-169155546D01*
X140274276Y-169084974D01*
X140390001Y-168990001D01*
X140413804Y-168960997D01*
X141017503Y-168357298D01*
X191086903Y-168357298D01*
X191900000Y-169170395D01*
X192713097Y-168357298D01*
X192641514Y-168113329D01*
X192386004Y-167992429D01*
X192111816Y-167923700D01*
X191829488Y-167909783D01*
X191549870Y-167951213D01*
X191283708Y-168046397D01*
X191158486Y-168113329D01*
X191086903Y-168357298D01*
X141017503Y-168357298D01*
X145643636Y-163731167D01*
X145788589Y-163760000D01*
X146061411Y-163760000D01*
X146206365Y-163731167D01*
X147436202Y-164961004D01*
X147460000Y-164990002D01*
X147488998Y-165013800D01*
X147575725Y-165084975D01*
X147707754Y-165155547D01*
X147851015Y-165199004D01*
X148000001Y-165213678D01*
X148037334Y-165210001D01*
X178287677Y-165210001D01*
X178324999Y-165213677D01*
X178362321Y-165210001D01*
X178362332Y-165210001D01*
X178473985Y-165199004D01*
X178617246Y-165155547D01*
X178749275Y-165084975D01*
X178865000Y-164990002D01*
X178888803Y-164960998D01*
X180118635Y-163731167D01*
X180263589Y-163760000D01*
X180536411Y-163760000D01*
X180681365Y-163731167D01*
X181911202Y-164961004D01*
X181935000Y-164990002D01*
X181963998Y-165013800D01*
X182050725Y-165084975D01*
X182182754Y-165155547D01*
X182326015Y-165199004D01*
X182475001Y-165213678D01*
X182512334Y-165210001D01*
X244287677Y-165210001D01*
X244324999Y-165213677D01*
X244362321Y-165210001D01*
X244362332Y-165210001D01*
X244473985Y-165199004D01*
X244617246Y-165155547D01*
X244749275Y-165084975D01*
X244865000Y-164990002D01*
X244888803Y-164960998D01*
X246118635Y-163731167D01*
X246263589Y-163760000D01*
X246536411Y-163760000D01*
X246681365Y-163731167D01*
X247911202Y-164961004D01*
X247935000Y-164990002D01*
X247963998Y-165013800D01*
X248050725Y-165084975D01*
X248182754Y-165155547D01*
X248326015Y-165199004D01*
X248475001Y-165213678D01*
X248512334Y-165210001D01*
X278762677Y-165210001D01*
X278799999Y-165213677D01*
X278837321Y-165210001D01*
X278837332Y-165210001D01*
X278948985Y-165199004D01*
X279092246Y-165155547D01*
X279224275Y-165084975D01*
X279340000Y-164990002D01*
X279363803Y-164960998D01*
X280593635Y-163731167D01*
X280738589Y-163760000D01*
X281011411Y-163760000D01*
X281278989Y-163706775D01*
X281531043Y-163602371D01*
X281757886Y-163450799D01*
X281950799Y-163257886D01*
X282102371Y-163031043D01*
X282206775Y-162778989D01*
X282260000Y-162511411D01*
X282260000Y-162238589D01*
X282206775Y-161971011D01*
X282102371Y-161718957D01*
X281950799Y-161492114D01*
X281757886Y-161299201D01*
X281531043Y-161147629D01*
X281278989Y-161043225D01*
X281011411Y-160990000D01*
X280738589Y-160990000D01*
X280471011Y-161043225D01*
X280218957Y-161147629D01*
X279992114Y-161299201D01*
X279799201Y-161492114D01*
X279647629Y-161718957D01*
X279543225Y-161971011D01*
X279490000Y-162238589D01*
X279490000Y-162511411D01*
X279518833Y-162656365D01*
X278485198Y-163690001D01*
X278224476Y-163690001D01*
X278260000Y-163511411D01*
X278260000Y-163238589D01*
X278206775Y-162971011D01*
X278102371Y-162718957D01*
X277950799Y-162492114D01*
X277757886Y-162299201D01*
X277531043Y-162147629D01*
X277278989Y-162043225D01*
X277011411Y-161990000D01*
X276738589Y-161990000D01*
X276471011Y-162043225D01*
X276218957Y-162147629D01*
X275992114Y-162299201D01*
X275799201Y-162492114D01*
X275647629Y-162718957D01*
X275543225Y-162971011D01*
X275490000Y-163238589D01*
X275490000Y-163511411D01*
X275525524Y-163690001D01*
X273319485Y-163690001D01*
X273531043Y-163602371D01*
X273757886Y-163450799D01*
X273950799Y-163257886D01*
X274102371Y-163031043D01*
X274206775Y-162778989D01*
X274260000Y-162511411D01*
X274260000Y-162238589D01*
X274206775Y-161971011D01*
X274102371Y-161718957D01*
X273950799Y-161492114D01*
X273757886Y-161299201D01*
X273531043Y-161147629D01*
X273278989Y-161043225D01*
X273011411Y-160990000D01*
X272738589Y-160990000D01*
X272593635Y-161018833D01*
X271751529Y-160176728D01*
X271931043Y-160102371D01*
X272157886Y-159950799D01*
X272350799Y-159757886D01*
X272502371Y-159531043D01*
X272606775Y-159278989D01*
X272660000Y-159011411D01*
X272660000Y-158738589D01*
X281090000Y-158738589D01*
X281090000Y-159011411D01*
X281143225Y-159278989D01*
X281247629Y-159531043D01*
X281399201Y-159757886D01*
X281592114Y-159950799D01*
X281818957Y-160102371D01*
X282071011Y-160206775D01*
X282338589Y-160260000D01*
X282611411Y-160260000D01*
X282878989Y-160206775D01*
X283131043Y-160102371D01*
X283357886Y-159950799D01*
X283550799Y-159757886D01*
X283702371Y-159531043D01*
X283806775Y-159278989D01*
X283860000Y-159011411D01*
X283860000Y-158738589D01*
X283806775Y-158471011D01*
X283702371Y-158218957D01*
X283550799Y-157992114D01*
X283357886Y-157799201D01*
X283131043Y-157647629D01*
X282878989Y-157543225D01*
X282611411Y-157490000D01*
X282338589Y-157490000D01*
X282071011Y-157543225D01*
X281818957Y-157647629D01*
X281592114Y-157799201D01*
X281399201Y-157992114D01*
X281247629Y-158218957D01*
X281143225Y-158471011D01*
X281090000Y-158738589D01*
X272660000Y-158738589D01*
X272606775Y-158471011D01*
X272502371Y-158218957D01*
X272350799Y-157992114D01*
X272157886Y-157799201D01*
X271931043Y-157647629D01*
X271678989Y-157543225D01*
X271411411Y-157490000D01*
X271138589Y-157490000D01*
X270993635Y-157518833D01*
X269810000Y-156335199D01*
X269810000Y-154611957D01*
X269843225Y-154778989D01*
X269947629Y-155031043D01*
X270099201Y-155257886D01*
X270292114Y-155450799D01*
X270518957Y-155602371D01*
X270771011Y-155706775D01*
X271038589Y-155760000D01*
X271311411Y-155760000D01*
X271578989Y-155706775D01*
X271831043Y-155602371D01*
X272057886Y-155450799D01*
X272250799Y-155257886D01*
X272402371Y-155031043D01*
X272506775Y-154778989D01*
X272560000Y-154511411D01*
X272560000Y-154238589D01*
X272545307Y-154164721D01*
X274740000Y-154164721D01*
X274740000Y-154585279D01*
X274822047Y-154997756D01*
X274982988Y-155386302D01*
X275216637Y-155735983D01*
X275514017Y-156033363D01*
X275863698Y-156267012D01*
X276252244Y-156427953D01*
X276664721Y-156510000D01*
X277085279Y-156510000D01*
X277497756Y-156427953D01*
X277886302Y-156267012D01*
X278235983Y-156033363D01*
X278533363Y-155735983D01*
X278767012Y-155386302D01*
X278927953Y-154997756D01*
X279010000Y-154585279D01*
X279010000Y-154164721D01*
X278927953Y-153752244D01*
X278767012Y-153363698D01*
X278533363Y-153014017D01*
X278235983Y-152716637D01*
X277886302Y-152482988D01*
X277497756Y-152322047D01*
X277085279Y-152240000D01*
X276664721Y-152240000D01*
X276252244Y-152322047D01*
X275863698Y-152482988D01*
X275514017Y-152716637D01*
X275216637Y-153014017D01*
X274982988Y-153363698D01*
X274822047Y-153752244D01*
X274740000Y-154164721D01*
X272545307Y-154164721D01*
X272506775Y-153971011D01*
X272402371Y-153718957D01*
X272250799Y-153492114D01*
X272057886Y-153299201D01*
X271831043Y-153147629D01*
X271578989Y-153043225D01*
X271311411Y-152990000D01*
X271038589Y-152990000D01*
X270959999Y-153005633D01*
X270959999Y-151224476D01*
X271138589Y-151260000D01*
X271411411Y-151260000D01*
X271678989Y-151206775D01*
X271931043Y-151102371D01*
X272157886Y-150950799D01*
X272350799Y-150757886D01*
X272502371Y-150531043D01*
X272606775Y-150278989D01*
X272660000Y-150011411D01*
X272660000Y-149738589D01*
X272606775Y-149471011D01*
X272502371Y-149218957D01*
X272350799Y-148992114D01*
X272157886Y-148799201D01*
X272035000Y-148717091D01*
X272035000Y-147479455D01*
X272218957Y-147602371D01*
X272471011Y-147706775D01*
X272738589Y-147760000D01*
X273011411Y-147760000D01*
X273278989Y-147706775D01*
X273531043Y-147602371D01*
X273757886Y-147450799D01*
X273950799Y-147257886D01*
X274102371Y-147031043D01*
X274206775Y-146778989D01*
X274260000Y-146511411D01*
X274260000Y-146238589D01*
X274231167Y-146093635D01*
X275731771Y-144593031D01*
X275647629Y-144718957D01*
X275543225Y-144971011D01*
X275490000Y-145238589D01*
X275490000Y-145511411D01*
X275543225Y-145778989D01*
X275647629Y-146031043D01*
X275799201Y-146257886D01*
X275992114Y-146450799D01*
X276218957Y-146602371D01*
X276471011Y-146706775D01*
X276738589Y-146760000D01*
X277011411Y-146760000D01*
X277278989Y-146706775D01*
X277531043Y-146602371D01*
X277757886Y-146450799D01*
X277950799Y-146257886D01*
X278102371Y-146031043D01*
X278206775Y-145778989D01*
X278260000Y-145511411D01*
X278260000Y-145238589D01*
X278231167Y-145093635D01*
X295379349Y-127945453D01*
X295600000Y-127967185D01*
X295891111Y-127938513D01*
X296171034Y-127853599D01*
X296429014Y-127715706D01*
X296655134Y-127530134D01*
X296840706Y-127304014D01*
X296850000Y-127286626D01*
X296859294Y-127304014D01*
X297044866Y-127530134D01*
X297270987Y-127715706D01*
X297340001Y-127752594D01*
X297340001Y-128835197D01*
X281156365Y-145018833D01*
X281011411Y-144990000D01*
X280738589Y-144990000D01*
X280471011Y-145043225D01*
X280218957Y-145147629D01*
X279992114Y-145299201D01*
X279799201Y-145492114D01*
X279647629Y-145718957D01*
X279543225Y-145971011D01*
X279490000Y-146238589D01*
X279490000Y-146511411D01*
X279543225Y-146778989D01*
X279647629Y-147031043D01*
X279799201Y-147257886D01*
X279992114Y-147450799D01*
X280218957Y-147602371D01*
X280471011Y-147706775D01*
X280738589Y-147760000D01*
X281011411Y-147760000D01*
X281278989Y-147706775D01*
X281531043Y-147602371D01*
X281757886Y-147450799D01*
X281950799Y-147257886D01*
X282102371Y-147031043D01*
X282206775Y-146778989D01*
X282260000Y-146511411D01*
X282260000Y-146238589D01*
X282231167Y-146093635D01*
X298611003Y-129713799D01*
X298640001Y-129690001D01*
X298734974Y-129574276D01*
X298805546Y-129442247D01*
X298849003Y-129298986D01*
X298860000Y-129187333D01*
X298863677Y-129150000D01*
X298860000Y-129112667D01*
X298860000Y-127752595D01*
X298929014Y-127715706D01*
X299155134Y-127530134D01*
X299340706Y-127304014D01*
X299350000Y-127286626D01*
X299359294Y-127304014D01*
X299544866Y-127530134D01*
X299770987Y-127715706D01*
X299840001Y-127752595D01*
X299840000Y-131435198D01*
X282756365Y-148518833D01*
X282611411Y-148490000D01*
X282338589Y-148490000D01*
X282071011Y-148543225D01*
X281818957Y-148647629D01*
X281592114Y-148799201D01*
X281399201Y-148992114D01*
X281247629Y-149218957D01*
X281143225Y-149471011D01*
X281090000Y-149738589D01*
X281090000Y-150011411D01*
X281143225Y-150278989D01*
X281247629Y-150531043D01*
X281399201Y-150757886D01*
X281592114Y-150950799D01*
X281818957Y-151102371D01*
X282071011Y-151206775D01*
X282338589Y-151260000D01*
X282611411Y-151260000D01*
X282878989Y-151206775D01*
X283131043Y-151102371D01*
X283357886Y-150950799D01*
X283550799Y-150757886D01*
X283702371Y-150531043D01*
X283806775Y-150278989D01*
X283860000Y-150011411D01*
X283860000Y-149738589D01*
X283831167Y-149593635D01*
X301111004Y-132313798D01*
X301140001Y-132290001D01*
X301234974Y-132174276D01*
X301305546Y-132042247D01*
X301349003Y-131898986D01*
X301360000Y-131787333D01*
X301360000Y-131787323D01*
X301363676Y-131750000D01*
X301360000Y-131712677D01*
X301360000Y-127752595D01*
X301429014Y-127715706D01*
X301655134Y-127530134D01*
X301840706Y-127304014D01*
X301850000Y-127286626D01*
X301859294Y-127304014D01*
X302044866Y-127530134D01*
X302270987Y-127715706D01*
X302340000Y-127752594D01*
X302340001Y-133535197D01*
X282856365Y-153018833D01*
X282711411Y-152990000D01*
X282438589Y-152990000D01*
X282171011Y-153043225D01*
X281918957Y-153147629D01*
X281692114Y-153299201D01*
X281499201Y-153492114D01*
X281347629Y-153718957D01*
X281243225Y-153971011D01*
X281190000Y-154238589D01*
X281190000Y-154511411D01*
X281243225Y-154778989D01*
X281347629Y-155031043D01*
X281499201Y-155257886D01*
X281692114Y-155450799D01*
X281918957Y-155602371D01*
X282171011Y-155706775D01*
X282438589Y-155760000D01*
X282711411Y-155760000D01*
X282978989Y-155706775D01*
X283231043Y-155602371D01*
X283457886Y-155450799D01*
X283650799Y-155257886D01*
X283802371Y-155031043D01*
X283906775Y-154778989D01*
X283960000Y-154511411D01*
X283960000Y-154238589D01*
X283931167Y-154093635D01*
X303611003Y-134413799D01*
X303640001Y-134390001D01*
X303734974Y-134274276D01*
X303805546Y-134142247D01*
X303849003Y-133998986D01*
X303860000Y-133887333D01*
X303860000Y-133887324D01*
X303863676Y-133850001D01*
X303860000Y-133812678D01*
X303860000Y-127752595D01*
X303929014Y-127715706D01*
X304155134Y-127530134D01*
X304340706Y-127304014D01*
X304478599Y-127046033D01*
X304563513Y-126766110D01*
X304585000Y-126547949D01*
X304585000Y-126152050D01*
X304563513Y-125933889D01*
X304478599Y-125653966D01*
X304340706Y-125395986D01*
X304155134Y-125169866D01*
X303929013Y-124984294D01*
X303671033Y-124846401D01*
X303391110Y-124761487D01*
X303100000Y-124732815D01*
X302808889Y-124761487D01*
X302528966Y-124846401D01*
X302270986Y-124984294D01*
X302044866Y-125169866D01*
X301859294Y-125395987D01*
X301850000Y-125413374D01*
X301840706Y-125395986D01*
X301655134Y-125169866D01*
X301429013Y-124984294D01*
X301171033Y-124846401D01*
X300891110Y-124761487D01*
X300600000Y-124732815D01*
X300308889Y-124761487D01*
X300028966Y-124846401D01*
X299770986Y-124984294D01*
X299544866Y-125169866D01*
X299359294Y-125395987D01*
X299350000Y-125413374D01*
X299340706Y-125395986D01*
X299155134Y-125169866D01*
X298929013Y-124984294D01*
X298671033Y-124846401D01*
X298391110Y-124761487D01*
X298100000Y-124732815D01*
X297808889Y-124761487D01*
X297528966Y-124846401D01*
X297270986Y-124984294D01*
X297044866Y-125169866D01*
X296859294Y-125395987D01*
X296850000Y-125413374D01*
X296840706Y-125395986D01*
X296655134Y-125169866D01*
X296429013Y-124984294D01*
X296171033Y-124846401D01*
X295891110Y-124761487D01*
X295600000Y-124732815D01*
X295308889Y-124761487D01*
X295028966Y-124846401D01*
X294770986Y-124984294D01*
X294544866Y-125169866D01*
X294359294Y-125395987D01*
X294350000Y-125413374D01*
X294340706Y-125395986D01*
X294155134Y-125169866D01*
X293929013Y-124984294D01*
X293671033Y-124846401D01*
X293391110Y-124761487D01*
X293100000Y-124732815D01*
X292808889Y-124761487D01*
X292528966Y-124846401D01*
X292270986Y-124984294D01*
X292044866Y-125169866D01*
X291859294Y-125395987D01*
X291850000Y-125413374D01*
X291840706Y-125395986D01*
X291655134Y-125169866D01*
X291429013Y-124984294D01*
X291171033Y-124846401D01*
X290891110Y-124761487D01*
X290600000Y-124732815D01*
X290308889Y-124761487D01*
X290028966Y-124846401D01*
X289770986Y-124984294D01*
X289544866Y-125169866D01*
X289359294Y-125395987D01*
X289350000Y-125413374D01*
X289340706Y-125395986D01*
X289155134Y-125169866D01*
X288929013Y-124984294D01*
X288671033Y-124846401D01*
X288391110Y-124761487D01*
X288100000Y-124732815D01*
X287808889Y-124761487D01*
X287528966Y-124846401D01*
X287270986Y-124984294D01*
X287044866Y-125169866D01*
X286859294Y-125395987D01*
X286850000Y-125413374D01*
X286840706Y-125395986D01*
X286655134Y-125169866D01*
X286429013Y-124984294D01*
X286171033Y-124846401D01*
X285891110Y-124761487D01*
X285600000Y-124732815D01*
X285308889Y-124761487D01*
X285028966Y-124846401D01*
X284770986Y-124984294D01*
X284544866Y-125169866D01*
X284359294Y-125395987D01*
X284350000Y-125413374D01*
X284340706Y-125395986D01*
X284155134Y-125169866D01*
X283929013Y-124984294D01*
X283671033Y-124846401D01*
X283391110Y-124761487D01*
X283100000Y-124732815D01*
X282808889Y-124761487D01*
X282528966Y-124846401D01*
X282270986Y-124984294D01*
X282044866Y-125169866D01*
X281992777Y-125233337D01*
X281938405Y-125131614D01*
X281827962Y-124997038D01*
X281693386Y-124886595D01*
X281539850Y-124804528D01*
X281373254Y-124753992D01*
X281200000Y-124736928D01*
X280000000Y-124736928D01*
X279826746Y-124753992D01*
X279660150Y-124804528D01*
X279506614Y-124886595D01*
X279372038Y-124997038D01*
X279261595Y-125131614D01*
X279179528Y-125285150D01*
X279128992Y-125451746D01*
X279111928Y-125625000D01*
X279111928Y-125931520D01*
X279044454Y-126057753D01*
X279000997Y-126201014D01*
X278986323Y-126350000D01*
X279000997Y-126498986D01*
X279044454Y-126642247D01*
X279111928Y-126768480D01*
X279111928Y-127075000D01*
X279128992Y-127248254D01*
X279179528Y-127414850D01*
X279261595Y-127568386D01*
X279372038Y-127702962D01*
X279506614Y-127813405D01*
X279660150Y-127895472D01*
X279826746Y-127946008D01*
X280000000Y-127963072D01*
X280412125Y-127963072D01*
X267439003Y-140936196D01*
X267409999Y-140959999D01*
X267354871Y-141027174D01*
X267315026Y-141075724D01*
X267248986Y-141199276D01*
X267244454Y-141207754D01*
X267200997Y-141351015D01*
X267190000Y-141462668D01*
X267190000Y-141462678D01*
X267186324Y-141500000D01*
X267190000Y-141537322D01*
X267190001Y-157412667D01*
X267186324Y-157450000D01*
X267200998Y-157598985D01*
X267244454Y-157742246D01*
X267315026Y-157874276D01*
X267386201Y-157961002D01*
X267410000Y-157990001D01*
X267438998Y-158013799D01*
X271518833Y-162093635D01*
X271490000Y-162238589D01*
X271490000Y-162511411D01*
X271543225Y-162778989D01*
X271647629Y-163031043D01*
X271799201Y-163257886D01*
X271992114Y-163450799D01*
X272218957Y-163602371D01*
X272430515Y-163690001D01*
X248789803Y-163690001D01*
X247756167Y-162656365D01*
X247785000Y-162511411D01*
X247785000Y-162238589D01*
X247731775Y-161971011D01*
X247627371Y-161718957D01*
X247475799Y-161492114D01*
X247282886Y-161299201D01*
X247056043Y-161147629D01*
X246803989Y-161043225D01*
X246536411Y-160990000D01*
X246263589Y-160990000D01*
X245996011Y-161043225D01*
X245743957Y-161147629D01*
X245517114Y-161299201D01*
X245324201Y-161492114D01*
X245172629Y-161718957D01*
X245068225Y-161971011D01*
X245015000Y-162238589D01*
X245015000Y-162511411D01*
X245043833Y-162656365D01*
X244010198Y-163690001D01*
X243749476Y-163690001D01*
X243785000Y-163511411D01*
X243785000Y-163238589D01*
X243731775Y-162971011D01*
X243627371Y-162718957D01*
X243475799Y-162492114D01*
X243282886Y-162299201D01*
X243056043Y-162147629D01*
X242803989Y-162043225D01*
X242536411Y-161990000D01*
X242263589Y-161990000D01*
X241996011Y-162043225D01*
X241743957Y-162147629D01*
X241517114Y-162299201D01*
X241324201Y-162492114D01*
X241172629Y-162718957D01*
X241068225Y-162971011D01*
X241015000Y-163238589D01*
X241015000Y-163511411D01*
X241050524Y-163690001D01*
X238844485Y-163690001D01*
X239056043Y-163602371D01*
X239282886Y-163450799D01*
X239475799Y-163257886D01*
X239627371Y-163031043D01*
X239731775Y-162778989D01*
X239785000Y-162511411D01*
X239785000Y-162238589D01*
X239731775Y-161971011D01*
X239627371Y-161718957D01*
X239475799Y-161492114D01*
X239282886Y-161299201D01*
X239056043Y-161147629D01*
X238803989Y-161043225D01*
X238536411Y-160990000D01*
X238263589Y-160990000D01*
X237996011Y-161043225D01*
X237743957Y-161147629D01*
X237517114Y-161299201D01*
X237324201Y-161492114D01*
X237242091Y-161615000D01*
X236839802Y-161615000D01*
X228460000Y-153235199D01*
X228460000Y-127752595D01*
X228529014Y-127715706D01*
X228755134Y-127530134D01*
X228940706Y-127304014D01*
X228950000Y-127286626D01*
X228959294Y-127304014D01*
X229144866Y-127530134D01*
X229370987Y-127715706D01*
X229440001Y-127752595D01*
X229440000Y-152237678D01*
X229436324Y-152275000D01*
X229440000Y-152312322D01*
X229440000Y-152312332D01*
X229450997Y-152423985D01*
X229483991Y-152532754D01*
X229494454Y-152567246D01*
X229565026Y-152699276D01*
X229579274Y-152716637D01*
X229659999Y-152815001D01*
X229689003Y-152838804D01*
X235443833Y-158593635D01*
X235415000Y-158738589D01*
X235415000Y-159011411D01*
X235468225Y-159278989D01*
X235572629Y-159531043D01*
X235724201Y-159757886D01*
X235917114Y-159950799D01*
X236143957Y-160102371D01*
X236396011Y-160206775D01*
X236663589Y-160260000D01*
X236936411Y-160260000D01*
X237203989Y-160206775D01*
X237456043Y-160102371D01*
X237682886Y-159950799D01*
X237875799Y-159757886D01*
X238027371Y-159531043D01*
X238131775Y-159278989D01*
X238185000Y-159011411D01*
X238185000Y-158738589D01*
X246615000Y-158738589D01*
X246615000Y-159011411D01*
X246668225Y-159278989D01*
X246772629Y-159531043D01*
X246924201Y-159757886D01*
X247117114Y-159950799D01*
X247343957Y-160102371D01*
X247596011Y-160206775D01*
X247863589Y-160260000D01*
X248136411Y-160260000D01*
X248403989Y-160206775D01*
X248656043Y-160102371D01*
X248882886Y-159950799D01*
X249075799Y-159757886D01*
X249227371Y-159531043D01*
X249331775Y-159278989D01*
X249385000Y-159011411D01*
X249385000Y-158738589D01*
X249331775Y-158471011D01*
X249227371Y-158218957D01*
X249075799Y-157992114D01*
X248882886Y-157799201D01*
X248656043Y-157647629D01*
X248403989Y-157543225D01*
X248136411Y-157490000D01*
X247863589Y-157490000D01*
X247596011Y-157543225D01*
X247343957Y-157647629D01*
X247117114Y-157799201D01*
X246924201Y-157992114D01*
X246772629Y-158218957D01*
X246668225Y-158471011D01*
X246615000Y-158738589D01*
X238185000Y-158738589D01*
X238131775Y-158471011D01*
X238027371Y-158218957D01*
X237875799Y-157992114D01*
X237682886Y-157799201D01*
X237456043Y-157647629D01*
X237203989Y-157543225D01*
X236936411Y-157490000D01*
X236663589Y-157490000D01*
X236518635Y-157518833D01*
X230960000Y-151960199D01*
X230960000Y-127752595D01*
X231029014Y-127715706D01*
X231255134Y-127530134D01*
X231440706Y-127304014D01*
X231450000Y-127286626D01*
X231459294Y-127304014D01*
X231644866Y-127530134D01*
X231870987Y-127715706D01*
X231940001Y-127752595D01*
X231940000Y-150337678D01*
X231936324Y-150375000D01*
X231940000Y-150412322D01*
X231940000Y-150412332D01*
X231950997Y-150523985D01*
X231981337Y-150624003D01*
X231994454Y-150667246D01*
X232065026Y-150799276D01*
X232104871Y-150847826D01*
X232159999Y-150915001D01*
X232189003Y-150938804D01*
X235343833Y-154093635D01*
X235315000Y-154238589D01*
X235315000Y-154511411D01*
X235368225Y-154778989D01*
X235472629Y-155031043D01*
X235624201Y-155257886D01*
X235817114Y-155450799D01*
X236043957Y-155602371D01*
X236296011Y-155706775D01*
X236563589Y-155760000D01*
X236836411Y-155760000D01*
X237103989Y-155706775D01*
X237356043Y-155602371D01*
X237582886Y-155450799D01*
X237775799Y-155257886D01*
X237927371Y-155031043D01*
X238031775Y-154778989D01*
X238085000Y-154511411D01*
X238085000Y-154238589D01*
X238070307Y-154164721D01*
X240265000Y-154164721D01*
X240265000Y-154585279D01*
X240347047Y-154997756D01*
X240507988Y-155386302D01*
X240741637Y-155735983D01*
X241039017Y-156033363D01*
X241388698Y-156267012D01*
X241777244Y-156427953D01*
X242189721Y-156510000D01*
X242610279Y-156510000D01*
X243022756Y-156427953D01*
X243411302Y-156267012D01*
X243760983Y-156033363D01*
X244058363Y-155735983D01*
X244292012Y-155386302D01*
X244452953Y-154997756D01*
X244535000Y-154585279D01*
X244535000Y-154164721D01*
X244452953Y-153752244D01*
X244292012Y-153363698D01*
X244058363Y-153014017D01*
X243760983Y-152716637D01*
X243411302Y-152482988D01*
X243022756Y-152322047D01*
X242610279Y-152240000D01*
X242189721Y-152240000D01*
X241777244Y-152322047D01*
X241388698Y-152482988D01*
X241039017Y-152716637D01*
X240741637Y-153014017D01*
X240507988Y-153363698D01*
X240347047Y-153752244D01*
X240265000Y-154164721D01*
X238070307Y-154164721D01*
X238031775Y-153971011D01*
X237927371Y-153718957D01*
X237775799Y-153492114D01*
X237582886Y-153299201D01*
X237356043Y-153147629D01*
X237103989Y-153043225D01*
X236836411Y-152990000D01*
X236563589Y-152990000D01*
X236418635Y-153018833D01*
X233460000Y-150060199D01*
X233460000Y-127752595D01*
X233529014Y-127715706D01*
X233755134Y-127530134D01*
X233940706Y-127304014D01*
X233950000Y-127286626D01*
X233959294Y-127304014D01*
X234144866Y-127530134D01*
X234370987Y-127715706D01*
X234440000Y-127752594D01*
X234440001Y-148237667D01*
X234436324Y-148275000D01*
X234450998Y-148423985D01*
X234494454Y-148567246D01*
X234565026Y-148699276D01*
X234636201Y-148786002D01*
X234660000Y-148815001D01*
X234688998Y-148838799D01*
X235443833Y-149593635D01*
X235415000Y-149738589D01*
X235415000Y-150011411D01*
X235468225Y-150278989D01*
X235572629Y-150531043D01*
X235724201Y-150757886D01*
X235917114Y-150950799D01*
X236143957Y-151102371D01*
X236396011Y-151206775D01*
X236663589Y-151260000D01*
X236936411Y-151260000D01*
X237203989Y-151206775D01*
X237456043Y-151102371D01*
X237682886Y-150950799D01*
X237875799Y-150757886D01*
X238027371Y-150531043D01*
X238131775Y-150278989D01*
X238185000Y-150011411D01*
X238185000Y-149738589D01*
X238131775Y-149471011D01*
X238027371Y-149218957D01*
X237875799Y-148992114D01*
X237682886Y-148799201D01*
X237456043Y-148647629D01*
X237203989Y-148543225D01*
X236936411Y-148490000D01*
X236663589Y-148490000D01*
X236518635Y-148518833D01*
X235960000Y-147960199D01*
X235960000Y-127752595D01*
X236029014Y-127715706D01*
X236255134Y-127530134D01*
X236440706Y-127304014D01*
X236450000Y-127286626D01*
X236459294Y-127304014D01*
X236644866Y-127530134D01*
X236870987Y-127715706D01*
X236940000Y-127752594D01*
X236940001Y-145637667D01*
X236936324Y-145675000D01*
X236950998Y-145823985D01*
X236994454Y-145967246D01*
X237048763Y-146068851D01*
X237015000Y-146238589D01*
X237015000Y-146511411D01*
X237068225Y-146778989D01*
X237172629Y-147031043D01*
X237324201Y-147257886D01*
X237517114Y-147450799D01*
X237743957Y-147602371D01*
X237996011Y-147706775D01*
X238263589Y-147760000D01*
X238536411Y-147760000D01*
X238803989Y-147706775D01*
X239056043Y-147602371D01*
X239282886Y-147450799D01*
X239475799Y-147257886D01*
X239627371Y-147031043D01*
X239731775Y-146778989D01*
X239785000Y-146511411D01*
X239785000Y-146238589D01*
X239731775Y-145971011D01*
X239627371Y-145718957D01*
X239475799Y-145492114D01*
X239282886Y-145299201D01*
X239056043Y-145147629D01*
X238803989Y-145043225D01*
X238536411Y-144990000D01*
X238460000Y-144990000D01*
X238460000Y-127752595D01*
X238529014Y-127715706D01*
X238755134Y-127530134D01*
X238940706Y-127304014D01*
X238950000Y-127286626D01*
X238959294Y-127304014D01*
X239144866Y-127530134D01*
X239370987Y-127715706D01*
X239440000Y-127752594D01*
X239440001Y-143137667D01*
X239436324Y-143175000D01*
X239450998Y-143323985D01*
X239494454Y-143467246D01*
X239565026Y-143599276D01*
X239636201Y-143686002D01*
X239660000Y-143715001D01*
X239688998Y-143738799D01*
X241043833Y-145093635D01*
X241015000Y-145238589D01*
X241015000Y-145511411D01*
X241068225Y-145778989D01*
X241172629Y-146031043D01*
X241324201Y-146257886D01*
X241517114Y-146450799D01*
X241743957Y-146602371D01*
X241996011Y-146706775D01*
X242263589Y-146760000D01*
X242536411Y-146760000D01*
X242803989Y-146706775D01*
X243056043Y-146602371D01*
X243282886Y-146450799D01*
X243475799Y-146257886D01*
X243627371Y-146031043D01*
X243731775Y-145778989D01*
X243785000Y-145511411D01*
X243785000Y-145238589D01*
X243731775Y-144971011D01*
X243627371Y-144718957D01*
X243543230Y-144593031D01*
X245043833Y-146093635D01*
X245015000Y-146238589D01*
X245015000Y-146511411D01*
X245068225Y-146778989D01*
X245172629Y-147031043D01*
X245324201Y-147257886D01*
X245517114Y-147450799D01*
X245743957Y-147602371D01*
X245996011Y-147706775D01*
X246263589Y-147760000D01*
X246536411Y-147760000D01*
X246803989Y-147706775D01*
X247056043Y-147602371D01*
X247240000Y-147479454D01*
X247240000Y-148717091D01*
X247117114Y-148799201D01*
X246924201Y-148992114D01*
X246772629Y-149218957D01*
X246668225Y-149471011D01*
X246615000Y-149738589D01*
X246615000Y-150011411D01*
X246668225Y-150278989D01*
X246772629Y-150531043D01*
X246924201Y-150757886D01*
X247117114Y-150950799D01*
X247343957Y-151102371D01*
X247596011Y-151206775D01*
X247863589Y-151260000D01*
X248136411Y-151260000D01*
X248315002Y-151224476D01*
X248315002Y-153005633D01*
X248236411Y-152990000D01*
X247963589Y-152990000D01*
X247696011Y-153043225D01*
X247443957Y-153147629D01*
X247217114Y-153299201D01*
X247024201Y-153492114D01*
X246872629Y-153718957D01*
X246768225Y-153971011D01*
X246715000Y-154238589D01*
X246715000Y-154511411D01*
X246768225Y-154778989D01*
X246872629Y-155031043D01*
X247024201Y-155257886D01*
X247217114Y-155450799D01*
X247443957Y-155602371D01*
X247696011Y-155706775D01*
X247963589Y-155760000D01*
X248236411Y-155760000D01*
X248503989Y-155706775D01*
X248756043Y-155602371D01*
X248982886Y-155450799D01*
X249175799Y-155257886D01*
X249327371Y-155031043D01*
X249431775Y-154778989D01*
X249485000Y-154511411D01*
X249485000Y-154238589D01*
X249456167Y-154093635D01*
X249586004Y-153963798D01*
X249615002Y-153940000D01*
X249709975Y-153824275D01*
X249780547Y-153692246D01*
X249824004Y-153548985D01*
X249835001Y-153437332D01*
X249835001Y-153437324D01*
X249838677Y-153399999D01*
X249835001Y-153362674D01*
X249835001Y-127762323D01*
X249838677Y-127725000D01*
X249835001Y-127687677D01*
X249835001Y-127687668D01*
X249824004Y-127576015D01*
X249780547Y-127432754D01*
X249770350Y-127413677D01*
X249709975Y-127300724D01*
X249638800Y-127213998D01*
X249615002Y-127185000D01*
X249586005Y-127161203D01*
X249165970Y-126741168D01*
X249185000Y-126547949D01*
X249185000Y-126152050D01*
X249163513Y-125933889D01*
X249078599Y-125653966D01*
X248940706Y-125395986D01*
X248755134Y-125169866D01*
X248529013Y-124984294D01*
X248271033Y-124846401D01*
X247991110Y-124761487D01*
X247700000Y-124732815D01*
X247408889Y-124761487D01*
X247128966Y-124846401D01*
X246870986Y-124984294D01*
X246644866Y-125169866D01*
X246459294Y-125395987D01*
X246450000Y-125413374D01*
X246440706Y-125395986D01*
X246255134Y-125169866D01*
X246029013Y-124984294D01*
X245771033Y-124846401D01*
X245491110Y-124761487D01*
X245200000Y-124732815D01*
X244908889Y-124761487D01*
X244628966Y-124846401D01*
X244370986Y-124984294D01*
X244144866Y-125169866D01*
X243959294Y-125395987D01*
X243950000Y-125413374D01*
X243940706Y-125395986D01*
X243755134Y-125169866D01*
X243529013Y-124984294D01*
X243271033Y-124846401D01*
X242991110Y-124761487D01*
X242700000Y-124732815D01*
X242408889Y-124761487D01*
X242128966Y-124846401D01*
X241870986Y-124984294D01*
X241644866Y-125169866D01*
X241459294Y-125395987D01*
X241450000Y-125413374D01*
X241440706Y-125395986D01*
X241255134Y-125169866D01*
X241029013Y-124984294D01*
X240771033Y-124846401D01*
X240491110Y-124761487D01*
X240200000Y-124732815D01*
X239908889Y-124761487D01*
X239628966Y-124846401D01*
X239370986Y-124984294D01*
X239144866Y-125169866D01*
X238959294Y-125395987D01*
X238950000Y-125413374D01*
X238940706Y-125395986D01*
X238755134Y-125169866D01*
X238529013Y-124984294D01*
X238271033Y-124846401D01*
X237991110Y-124761487D01*
X237700000Y-124732815D01*
X237408889Y-124761487D01*
X237128966Y-124846401D01*
X236870986Y-124984294D01*
X236644866Y-125169866D01*
X236459294Y-125395987D01*
X236450000Y-125413374D01*
X236440706Y-125395986D01*
X236255134Y-125169866D01*
X236029013Y-124984294D01*
X235771033Y-124846401D01*
X235491110Y-124761487D01*
X235200000Y-124732815D01*
X234908889Y-124761487D01*
X234628966Y-124846401D01*
X234370986Y-124984294D01*
X234144866Y-125169866D01*
X233959294Y-125395987D01*
X233950000Y-125413374D01*
X233940706Y-125395986D01*
X233755134Y-125169866D01*
X233529013Y-124984294D01*
X233271033Y-124846401D01*
X232991110Y-124761487D01*
X232700000Y-124732815D01*
X232408889Y-124761487D01*
X232128966Y-124846401D01*
X231870986Y-124984294D01*
X231644866Y-125169866D01*
X231459294Y-125395987D01*
X231450000Y-125413374D01*
X231440706Y-125395986D01*
X231255134Y-125169866D01*
X231029013Y-124984294D01*
X230771033Y-124846401D01*
X230491110Y-124761487D01*
X230200000Y-124732815D01*
X229908889Y-124761487D01*
X229628966Y-124846401D01*
X229370986Y-124984294D01*
X229144866Y-125169866D01*
X228959294Y-125395987D01*
X228950000Y-125413374D01*
X228940706Y-125395986D01*
X228755134Y-125169866D01*
X228529013Y-124984294D01*
X228271033Y-124846401D01*
X227991110Y-124761487D01*
X227700000Y-124732815D01*
X227408889Y-124761487D01*
X227128966Y-124846401D01*
X226870986Y-124984294D01*
X226644866Y-125169866D01*
X226592777Y-125233337D01*
X226538405Y-125131614D01*
X226427962Y-124997038D01*
X226293386Y-124886595D01*
X226139850Y-124804528D01*
X225973254Y-124753992D01*
X225800000Y-124736928D01*
X224600000Y-124736928D01*
X224426746Y-124753992D01*
X224260150Y-124804528D01*
X224106614Y-124886595D01*
X223972038Y-124997038D01*
X223861595Y-125131614D01*
X223779528Y-125285150D01*
X223728992Y-125451746D01*
X223711928Y-125625000D01*
X223711928Y-127075000D01*
X223728992Y-127248254D01*
X223779528Y-127414850D01*
X223861595Y-127568386D01*
X223972038Y-127702962D01*
X224106614Y-127813405D01*
X224260150Y-127895472D01*
X224426746Y-127946008D01*
X224600000Y-127963072D01*
X225800000Y-127963072D01*
X225973254Y-127946008D01*
X226139850Y-127895472D01*
X226293386Y-127813405D01*
X226427962Y-127702962D01*
X226538405Y-127568386D01*
X226592777Y-127466663D01*
X226644866Y-127530134D01*
X226870987Y-127715706D01*
X226940001Y-127752595D01*
X226940000Y-153512678D01*
X226936324Y-153550000D01*
X226940000Y-153587322D01*
X226940000Y-153587332D01*
X226950997Y-153698985D01*
X226963447Y-153740027D01*
X226994454Y-153842246D01*
X227065026Y-153974276D01*
X227104871Y-154022826D01*
X227159999Y-154090001D01*
X227189003Y-154113804D01*
X235961200Y-162886002D01*
X235984999Y-162915001D01*
X236100724Y-163009974D01*
X236232753Y-163080546D01*
X236376014Y-163124003D01*
X236487667Y-163135000D01*
X236487675Y-163135000D01*
X236525000Y-163138676D01*
X236562325Y-163135000D01*
X237242091Y-163135000D01*
X237324201Y-163257886D01*
X237517114Y-163450799D01*
X237743957Y-163602371D01*
X237955515Y-163690001D01*
X182789803Y-163690001D01*
X182234802Y-163135000D01*
X201362678Y-163135000D01*
X201400000Y-163138676D01*
X201437322Y-163135000D01*
X201437333Y-163135000D01*
X201548986Y-163124003D01*
X201692247Y-163080546D01*
X201824276Y-163009974D01*
X201940001Y-162915001D01*
X201963804Y-162885997D01*
X208986731Y-155863072D01*
X210250000Y-155863072D01*
X210374482Y-155850812D01*
X210494180Y-155814502D01*
X210604494Y-155755537D01*
X210701185Y-155676185D01*
X210780537Y-155579494D01*
X210839502Y-155469180D01*
X210875812Y-155349482D01*
X210888072Y-155225000D01*
X210888072Y-153525000D01*
X210875812Y-153400518D01*
X210839502Y-153280820D01*
X210780537Y-153170506D01*
X210701185Y-153073815D01*
X210604494Y-152994463D01*
X210494180Y-152935498D01*
X210421620Y-152913487D01*
X210553475Y-152781632D01*
X210715990Y-152538411D01*
X210827932Y-152268158D01*
X210885000Y-151981260D01*
X210885000Y-151688740D01*
X210827932Y-151401842D01*
X210715990Y-151131589D01*
X210553475Y-150888368D01*
X210346632Y-150681525D01*
X210103411Y-150519010D01*
X209833158Y-150407068D01*
X209546260Y-150350000D01*
X209253740Y-150350000D01*
X208966842Y-150407068D01*
X208696589Y-150519010D01*
X208453368Y-150681525D01*
X208246525Y-150888368D01*
X208084010Y-151131589D01*
X207972068Y-151401842D01*
X207915000Y-151688740D01*
X207915000Y-151981260D01*
X207972068Y-152268158D01*
X208084010Y-152538411D01*
X208246525Y-152781632D01*
X208378380Y-152913487D01*
X208305820Y-152935498D01*
X208195506Y-152994463D01*
X208098815Y-153073815D01*
X208019463Y-153170506D01*
X207960498Y-153280820D01*
X207924188Y-153400518D01*
X207911928Y-153525000D01*
X207911928Y-154788269D01*
X201085199Y-161615000D01*
X181557909Y-161615000D01*
X181475799Y-161492114D01*
X181282886Y-161299201D01*
X181056043Y-161147629D01*
X180803989Y-161043225D01*
X180536411Y-160990000D01*
X180263589Y-160990000D01*
X179996011Y-161043225D01*
X179743957Y-161147629D01*
X179517114Y-161299201D01*
X179324201Y-161492114D01*
X179172629Y-161718957D01*
X179068225Y-161971011D01*
X179015000Y-162238589D01*
X179015000Y-162511411D01*
X179043833Y-162656365D01*
X178010198Y-163690001D01*
X177749476Y-163690001D01*
X177785000Y-163511411D01*
X177785000Y-163238589D01*
X177731775Y-162971011D01*
X177627371Y-162718957D01*
X177475799Y-162492114D01*
X177282886Y-162299201D01*
X177056043Y-162147629D01*
X176803989Y-162043225D01*
X176536411Y-161990000D01*
X176263589Y-161990000D01*
X175996011Y-162043225D01*
X175743957Y-162147629D01*
X175517114Y-162299201D01*
X175324201Y-162492114D01*
X175172629Y-162718957D01*
X175068225Y-162971011D01*
X175015000Y-163238589D01*
X175015000Y-163511411D01*
X175050524Y-163690001D01*
X172844485Y-163690001D01*
X173056043Y-163602371D01*
X173282886Y-163450799D01*
X173475799Y-163257886D01*
X173627371Y-163031043D01*
X173731775Y-162778989D01*
X173785000Y-162511411D01*
X173785000Y-162238589D01*
X173731775Y-161971011D01*
X173627371Y-161718957D01*
X173475799Y-161492114D01*
X173282886Y-161299201D01*
X173056043Y-161147629D01*
X172803989Y-161043225D01*
X172536411Y-160990000D01*
X172263589Y-160990000D01*
X171996011Y-161043225D01*
X171743957Y-161147629D01*
X171517114Y-161299201D01*
X171324201Y-161492114D01*
X171281229Y-161556427D01*
X166410000Y-156685199D01*
X166410000Y-133314801D01*
X171803186Y-127921615D01*
X171858890Y-127938513D01*
X171975227Y-127949971D01*
X167088998Y-132836201D01*
X167060000Y-132859999D01*
X167036202Y-132888997D01*
X167036201Y-132888998D01*
X166965026Y-132975724D01*
X166894454Y-133107754D01*
X166850998Y-133251015D01*
X166836324Y-133400000D01*
X166840001Y-133437333D01*
X166840000Y-155637678D01*
X166836324Y-155675000D01*
X166840000Y-155712322D01*
X166840000Y-155712332D01*
X166850997Y-155823985D01*
X166887540Y-155944454D01*
X166894454Y-155967246D01*
X166965026Y-156099276D01*
X167004871Y-156147826D01*
X167059999Y-156215001D01*
X167089003Y-156238804D01*
X169443833Y-158593636D01*
X169415000Y-158738589D01*
X169415000Y-159011411D01*
X169468225Y-159278989D01*
X169572629Y-159531043D01*
X169724201Y-159757886D01*
X169917114Y-159950799D01*
X170143957Y-160102371D01*
X170396011Y-160206775D01*
X170663589Y-160260000D01*
X170936411Y-160260000D01*
X171203989Y-160206775D01*
X171456043Y-160102371D01*
X171682886Y-159950799D01*
X171875799Y-159757886D01*
X172027371Y-159531043D01*
X172131775Y-159278989D01*
X172185000Y-159011411D01*
X172185000Y-158738589D01*
X180615000Y-158738589D01*
X180615000Y-159011411D01*
X180668225Y-159278989D01*
X180772629Y-159531043D01*
X180924201Y-159757886D01*
X181117114Y-159950799D01*
X181343957Y-160102371D01*
X181596011Y-160206775D01*
X181863589Y-160260000D01*
X182136411Y-160260000D01*
X182403989Y-160206775D01*
X182656043Y-160102371D01*
X182882886Y-159950799D01*
X183075799Y-159757886D01*
X183227371Y-159531043D01*
X183331775Y-159278989D01*
X183385000Y-159011411D01*
X183385000Y-158738589D01*
X183331775Y-158471011D01*
X183227371Y-158218957D01*
X183075799Y-157992114D01*
X182882886Y-157799201D01*
X182656043Y-157647629D01*
X182403989Y-157543225D01*
X182136411Y-157490000D01*
X181863589Y-157490000D01*
X181596011Y-157543225D01*
X181343957Y-157647629D01*
X181117114Y-157799201D01*
X180924201Y-157992114D01*
X180772629Y-158218957D01*
X180668225Y-158471011D01*
X180615000Y-158738589D01*
X172185000Y-158738589D01*
X172131775Y-158471011D01*
X172027371Y-158218957D01*
X171875799Y-157992114D01*
X171682886Y-157799201D01*
X171456043Y-157647629D01*
X171203989Y-157543225D01*
X170936411Y-157490000D01*
X170663589Y-157490000D01*
X170518636Y-157518833D01*
X168360000Y-155360199D01*
X168360000Y-133714801D01*
X174188098Y-127886704D01*
X174358890Y-127938513D01*
X174475226Y-127949971D01*
X168638998Y-133786201D01*
X168610000Y-133809999D01*
X168586202Y-133838997D01*
X168586201Y-133838998D01*
X168515026Y-133925724D01*
X168444454Y-134057754D01*
X168429957Y-134105546D01*
X168400998Y-134201014D01*
X168393782Y-134274276D01*
X168386324Y-134350000D01*
X168390001Y-134387333D01*
X168390000Y-152787678D01*
X168386324Y-152825000D01*
X168390000Y-152862322D01*
X168390000Y-152862332D01*
X168400997Y-152973985D01*
X168431280Y-153073815D01*
X168444454Y-153117246D01*
X168515026Y-153249276D01*
X168540914Y-153280820D01*
X168609999Y-153365001D01*
X168639003Y-153388804D01*
X169343833Y-154093635D01*
X169315000Y-154238589D01*
X169315000Y-154511411D01*
X169368225Y-154778989D01*
X169472629Y-155031043D01*
X169624201Y-155257886D01*
X169817114Y-155450799D01*
X170043957Y-155602371D01*
X170296011Y-155706775D01*
X170563589Y-155760000D01*
X170836411Y-155760000D01*
X171103989Y-155706775D01*
X171356043Y-155602371D01*
X171582886Y-155450799D01*
X171775799Y-155257886D01*
X171927371Y-155031043D01*
X172031775Y-154778989D01*
X172085000Y-154511411D01*
X172085000Y-154238589D01*
X172070307Y-154164721D01*
X174265000Y-154164721D01*
X174265000Y-154585279D01*
X174347047Y-154997756D01*
X174507988Y-155386302D01*
X174741637Y-155735983D01*
X175039017Y-156033363D01*
X175388698Y-156267012D01*
X175777244Y-156427953D01*
X176189721Y-156510000D01*
X176610279Y-156510000D01*
X177022756Y-156427953D01*
X177411302Y-156267012D01*
X177760983Y-156033363D01*
X178058363Y-155735983D01*
X178292012Y-155386302D01*
X178452953Y-154997756D01*
X178535000Y-154585279D01*
X178535000Y-154164721D01*
X178452953Y-153752244D01*
X178292012Y-153363698D01*
X178058363Y-153014017D01*
X177760983Y-152716637D01*
X177411302Y-152482988D01*
X177022756Y-152322047D01*
X176610279Y-152240000D01*
X176189721Y-152240000D01*
X175777244Y-152322047D01*
X175388698Y-152482988D01*
X175039017Y-152716637D01*
X174741637Y-153014017D01*
X174507988Y-153363698D01*
X174347047Y-153752244D01*
X174265000Y-154164721D01*
X172070307Y-154164721D01*
X172031775Y-153971011D01*
X171927371Y-153718957D01*
X171775799Y-153492114D01*
X171582886Y-153299201D01*
X171356043Y-153147629D01*
X171103989Y-153043225D01*
X170836411Y-152990000D01*
X170563589Y-152990000D01*
X170418635Y-153018833D01*
X169910000Y-152510199D01*
X169910000Y-150943685D01*
X169917114Y-150950799D01*
X170143957Y-151102371D01*
X170396011Y-151206775D01*
X170663589Y-151260000D01*
X170936411Y-151260000D01*
X171203989Y-151206775D01*
X171456043Y-151102371D01*
X171682886Y-150950799D01*
X171875799Y-150757886D01*
X172027371Y-150531043D01*
X172131775Y-150278989D01*
X172185000Y-150011411D01*
X172185000Y-149738589D01*
X172131775Y-149471011D01*
X172027371Y-149218957D01*
X171875799Y-148992114D01*
X171682886Y-148799201D01*
X171560000Y-148717091D01*
X171560000Y-147479455D01*
X171743957Y-147602371D01*
X171996011Y-147706775D01*
X172263589Y-147760000D01*
X172536411Y-147760000D01*
X172803989Y-147706775D01*
X173056043Y-147602371D01*
X173282886Y-147450799D01*
X173475799Y-147257886D01*
X173627371Y-147031043D01*
X173731775Y-146778989D01*
X173785000Y-146511411D01*
X173785000Y-146238589D01*
X173731775Y-145971011D01*
X173627371Y-145718957D01*
X173475799Y-145492114D01*
X173282886Y-145299201D01*
X173160000Y-145217091D01*
X173160000Y-136414801D01*
X181688098Y-127886704D01*
X181858890Y-127938513D01*
X182150000Y-127967185D01*
X182441111Y-127938513D01*
X182721034Y-127853599D01*
X182979014Y-127715706D01*
X183205134Y-127530134D01*
X183390706Y-127304014D01*
X183400000Y-127286626D01*
X183409294Y-127304014D01*
X183594866Y-127530134D01*
X183820987Y-127715706D01*
X183890000Y-127752594D01*
X183890001Y-136810197D01*
X176681365Y-144018833D01*
X176536411Y-143990000D01*
X176263589Y-143990000D01*
X175996011Y-144043225D01*
X175743957Y-144147629D01*
X175517114Y-144299201D01*
X175324201Y-144492114D01*
X175172629Y-144718957D01*
X175068225Y-144971011D01*
X175015000Y-145238589D01*
X175015000Y-145511411D01*
X175068225Y-145778989D01*
X175172629Y-146031043D01*
X175324201Y-146257886D01*
X175517114Y-146450799D01*
X175743957Y-146602371D01*
X175996011Y-146706775D01*
X176263589Y-146760000D01*
X176536411Y-146760000D01*
X176803989Y-146706775D01*
X177056043Y-146602371D01*
X177282886Y-146450799D01*
X177475799Y-146257886D01*
X177627371Y-146031043D01*
X177731775Y-145778989D01*
X177785000Y-145511411D01*
X177785000Y-145238589D01*
X177756167Y-145093635D01*
X185161003Y-137688799D01*
X185190001Y-137665001D01*
X185216332Y-137632917D01*
X185284974Y-137549277D01*
X185355546Y-137417247D01*
X185360470Y-137401015D01*
X185399003Y-137273986D01*
X185410000Y-137162333D01*
X185410000Y-137162323D01*
X185413676Y-137125000D01*
X185410000Y-137087677D01*
X185410000Y-127752595D01*
X185479014Y-127715706D01*
X185705134Y-127530134D01*
X185890706Y-127304014D01*
X185900000Y-127286626D01*
X185909294Y-127304014D01*
X186094866Y-127530134D01*
X186320987Y-127715706D01*
X186390000Y-127752594D01*
X186390001Y-139310197D01*
X180681365Y-145018833D01*
X180536411Y-144990000D01*
X180263589Y-144990000D01*
X179996011Y-145043225D01*
X179743957Y-145147629D01*
X179517114Y-145299201D01*
X179324201Y-145492114D01*
X179172629Y-145718957D01*
X179068225Y-145971011D01*
X179015000Y-146238589D01*
X179015000Y-146511411D01*
X179068225Y-146778989D01*
X179172629Y-147031043D01*
X179324201Y-147257886D01*
X179517114Y-147450799D01*
X179743957Y-147602371D01*
X179996011Y-147706775D01*
X180263589Y-147760000D01*
X180536411Y-147760000D01*
X180803989Y-147706775D01*
X181056043Y-147602371D01*
X181282886Y-147450799D01*
X181475799Y-147257886D01*
X181627371Y-147031043D01*
X181731775Y-146778989D01*
X181785000Y-146511411D01*
X181785000Y-146238589D01*
X181756167Y-146093635D01*
X187661003Y-140188799D01*
X187690001Y-140165001D01*
X187784974Y-140049276D01*
X187855546Y-139917247D01*
X187899003Y-139773986D01*
X187910000Y-139662333D01*
X187913677Y-139625000D01*
X187910000Y-139587667D01*
X187910000Y-127752595D01*
X187979014Y-127715706D01*
X188205134Y-127530134D01*
X188390706Y-127304014D01*
X188400000Y-127286626D01*
X188409294Y-127304014D01*
X188594866Y-127530134D01*
X188820987Y-127715706D01*
X188890000Y-127752594D01*
X188890001Y-141910197D01*
X182281365Y-148518833D01*
X182136411Y-148490000D01*
X181863589Y-148490000D01*
X181596011Y-148543225D01*
X181343957Y-148647629D01*
X181117114Y-148799201D01*
X180924201Y-148992114D01*
X180772629Y-149218957D01*
X180668225Y-149471011D01*
X180615000Y-149738589D01*
X180615000Y-150011411D01*
X180668225Y-150278989D01*
X180772629Y-150531043D01*
X180924201Y-150757886D01*
X181117114Y-150950799D01*
X181343957Y-151102371D01*
X181596011Y-151206775D01*
X181863589Y-151260000D01*
X182136411Y-151260000D01*
X182403989Y-151206775D01*
X182656043Y-151102371D01*
X182882886Y-150950799D01*
X183075799Y-150757886D01*
X183227371Y-150531043D01*
X183331775Y-150278989D01*
X183385000Y-150011411D01*
X183385000Y-149738589D01*
X183356167Y-149593635D01*
X190161003Y-142788799D01*
X190190001Y-142765001D01*
X190284974Y-142649276D01*
X190355546Y-142517247D01*
X190399003Y-142373986D01*
X190410000Y-142262333D01*
X190410000Y-142262325D01*
X190413676Y-142225000D01*
X190410000Y-142187675D01*
X190410000Y-127752595D01*
X190479014Y-127715706D01*
X190705134Y-127530134D01*
X190890706Y-127304014D01*
X190900000Y-127286626D01*
X190909294Y-127304014D01*
X191094866Y-127530134D01*
X191320987Y-127715706D01*
X191390000Y-127752594D01*
X191390001Y-144010197D01*
X182381365Y-153018833D01*
X182236411Y-152990000D01*
X181963589Y-152990000D01*
X181696011Y-153043225D01*
X181443957Y-153147629D01*
X181217114Y-153299201D01*
X181024201Y-153492114D01*
X180872629Y-153718957D01*
X180768225Y-153971011D01*
X180715000Y-154238589D01*
X180715000Y-154511411D01*
X180768225Y-154778989D01*
X180872629Y-155031043D01*
X181024201Y-155257886D01*
X181217114Y-155450799D01*
X181443957Y-155602371D01*
X181696011Y-155706775D01*
X181963589Y-155760000D01*
X182236411Y-155760000D01*
X182503989Y-155706775D01*
X182756043Y-155602371D01*
X182982886Y-155450799D01*
X183175799Y-155257886D01*
X183327371Y-155031043D01*
X183431775Y-154778989D01*
X183485000Y-154511411D01*
X183485000Y-154238589D01*
X183456167Y-154093635D01*
X192661003Y-144888799D01*
X192690001Y-144865001D01*
X192784974Y-144749276D01*
X192855546Y-144617247D01*
X192899003Y-144473986D01*
X192910000Y-144362333D01*
X192910000Y-144362324D01*
X192913676Y-144325001D01*
X192910000Y-144287678D01*
X192910000Y-127752595D01*
X192979014Y-127715706D01*
X193205134Y-127530134D01*
X193390706Y-127304014D01*
X193528599Y-127046033D01*
X193613513Y-126766110D01*
X193635000Y-126547949D01*
X193635000Y-126152050D01*
X193613513Y-125933889D01*
X193528599Y-125653966D01*
X193390706Y-125395986D01*
X193205134Y-125169866D01*
X192979013Y-124984294D01*
X192721033Y-124846401D01*
X192441110Y-124761487D01*
X192150000Y-124732815D01*
X191858889Y-124761487D01*
X191578966Y-124846401D01*
X191320986Y-124984294D01*
X191094866Y-125169866D01*
X190909294Y-125395987D01*
X190900000Y-125413374D01*
X190890706Y-125395986D01*
X190705134Y-125169866D01*
X190479013Y-124984294D01*
X190221033Y-124846401D01*
X189941110Y-124761487D01*
X189650000Y-124732815D01*
X189358889Y-124761487D01*
X189078966Y-124846401D01*
X188820986Y-124984294D01*
X188594866Y-125169866D01*
X188409294Y-125395987D01*
X188400000Y-125413374D01*
X188390706Y-125395986D01*
X188205134Y-125169866D01*
X187979013Y-124984294D01*
X187721033Y-124846401D01*
X187441110Y-124761487D01*
X187150000Y-124732815D01*
X186858889Y-124761487D01*
X186578966Y-124846401D01*
X186320986Y-124984294D01*
X186094866Y-125169866D01*
X185909294Y-125395987D01*
X185900000Y-125413374D01*
X185890706Y-125395986D01*
X185705134Y-125169866D01*
X185479013Y-124984294D01*
X185221033Y-124846401D01*
X184941110Y-124761487D01*
X184650000Y-124732815D01*
X184358889Y-124761487D01*
X184078966Y-124846401D01*
X183820986Y-124984294D01*
X183594866Y-125169866D01*
X183409294Y-125395987D01*
X183400000Y-125413374D01*
X183390706Y-125395986D01*
X183205134Y-125169866D01*
X182979013Y-124984294D01*
X182721033Y-124846401D01*
X182441110Y-124761487D01*
X182150000Y-124732815D01*
X181858889Y-124761487D01*
X181578966Y-124846401D01*
X181320986Y-124984294D01*
X181094866Y-125169866D01*
X180909294Y-125395987D01*
X180900000Y-125413374D01*
X180890706Y-125395986D01*
X180705134Y-125169866D01*
X180479013Y-124984294D01*
X180221033Y-124846401D01*
X179941110Y-124761487D01*
X179650000Y-124732815D01*
X179358889Y-124761487D01*
X179078966Y-124846401D01*
X178820986Y-124984294D01*
X178594866Y-125169866D01*
X178409294Y-125395987D01*
X178400000Y-125413374D01*
X178390706Y-125395986D01*
X178205134Y-125169866D01*
X177979013Y-124984294D01*
X177721033Y-124846401D01*
X177441110Y-124761487D01*
X177150000Y-124732815D01*
X176858889Y-124761487D01*
X176578966Y-124846401D01*
X176320986Y-124984294D01*
X176094866Y-125169866D01*
X175909294Y-125395987D01*
X175900000Y-125413374D01*
X175890706Y-125395986D01*
X175705134Y-125169866D01*
X175479013Y-124984294D01*
X175221033Y-124846401D01*
X174941110Y-124761487D01*
X174650000Y-124732815D01*
X174358889Y-124761487D01*
X174078966Y-124846401D01*
X173820986Y-124984294D01*
X173594866Y-125169866D01*
X173409294Y-125395987D01*
X173400000Y-125413374D01*
X173390706Y-125395986D01*
X173205134Y-125169866D01*
X172979013Y-124984294D01*
X172721033Y-124846401D01*
X172441110Y-124761487D01*
X172150000Y-124732815D01*
X171858889Y-124761487D01*
X171578966Y-124846401D01*
X171320986Y-124984294D01*
X171094866Y-125169866D01*
X171042777Y-125233337D01*
X170988405Y-125131614D01*
X170877962Y-124997038D01*
X170743386Y-124886595D01*
X170589850Y-124804528D01*
X170423254Y-124753992D01*
X170250000Y-124736928D01*
X169050000Y-124736928D01*
X168876746Y-124753992D01*
X168710150Y-124804528D01*
X168556614Y-124886595D01*
X168422038Y-124997038D01*
X168311595Y-125131614D01*
X168229528Y-125285150D01*
X168178992Y-125451746D01*
X168161928Y-125625000D01*
X168161928Y-127075000D01*
X168178992Y-127248254D01*
X168229528Y-127414850D01*
X168311595Y-127568386D01*
X168422038Y-127702962D01*
X168556614Y-127813405D01*
X168710150Y-127895472D01*
X168876746Y-127946008D01*
X169050000Y-127963072D01*
X169612126Y-127963072D01*
X165139003Y-132436196D01*
X165109999Y-132459999D01*
X165077990Y-132499003D01*
X165015026Y-132575724D01*
X164951563Y-132694454D01*
X164944454Y-132707754D01*
X164900997Y-132851015D01*
X164890000Y-132962668D01*
X164890000Y-132962678D01*
X164886324Y-133000000D01*
X164890000Y-133037322D01*
X164890001Y-156962667D01*
X164886324Y-157000000D01*
X164900998Y-157148985D01*
X164944454Y-157292246D01*
X165015026Y-157424276D01*
X165068965Y-157490000D01*
X165110000Y-157540001D01*
X165138998Y-157563799D01*
X170461200Y-162886002D01*
X170484999Y-162915001D01*
X170513997Y-162938799D01*
X170600723Y-163009974D01*
X170732751Y-163080545D01*
X170732753Y-163080546D01*
X170876014Y-163124003D01*
X170987667Y-163135000D01*
X170987677Y-163135000D01*
X171025000Y-163138676D01*
X171062323Y-163135000D01*
X171242091Y-163135000D01*
X171324201Y-163257886D01*
X171517114Y-163450799D01*
X171743957Y-163602371D01*
X171955515Y-163690001D01*
X148314803Y-163690001D01*
X147281167Y-162656365D01*
X147310000Y-162511411D01*
X147310000Y-162238589D01*
X147256775Y-161971011D01*
X147152371Y-161718957D01*
X147000799Y-161492114D01*
X146807886Y-161299201D01*
X146581043Y-161147629D01*
X146328989Y-161043225D01*
X146061411Y-160990000D01*
X145788589Y-160990000D01*
X145521011Y-161043225D01*
X145268957Y-161147629D01*
X145042114Y-161299201D01*
X144849201Y-161492114D01*
X144697629Y-161718957D01*
X144593225Y-161971011D01*
X144540000Y-162238589D01*
X144540000Y-162511411D01*
X144568833Y-162656364D01*
X143068232Y-164156966D01*
X143152371Y-164031043D01*
X143256775Y-163778989D01*
X143310000Y-163511411D01*
X143310000Y-163238589D01*
X143256775Y-162971011D01*
X143152371Y-162718957D01*
X143000799Y-162492114D01*
X142807886Y-162299201D01*
X142581043Y-162147629D01*
X142328989Y-162043225D01*
X142061411Y-161990000D01*
X141788589Y-161990000D01*
X141521011Y-162043225D01*
X141268957Y-162147629D01*
X141042114Y-162299201D01*
X140849201Y-162492114D01*
X140697629Y-162718957D01*
X140593225Y-162971011D01*
X140540000Y-163238589D01*
X140540000Y-163511411D01*
X140593225Y-163778989D01*
X140697629Y-164031043D01*
X140849201Y-164257886D01*
X141042114Y-164450799D01*
X141268957Y-164602371D01*
X141521011Y-164706775D01*
X141788589Y-164760000D01*
X142061411Y-164760000D01*
X142328989Y-164706775D01*
X142581043Y-164602371D01*
X142706966Y-164518231D01*
X139535199Y-167690000D01*
X100002595Y-167690000D01*
X99965706Y-167620986D01*
X99780134Y-167394866D01*
X99554014Y-167209294D01*
X99528278Y-167195538D01*
X99734429Y-167039049D01*
X99927496Y-166821193D01*
X100074352Y-166569858D01*
X100166476Y-166306890D01*
X100045155Y-166077000D01*
X98727000Y-166077000D01*
X98727000Y-166097000D01*
X98473000Y-166097000D01*
X98473000Y-166077000D01*
X97154845Y-166077000D01*
X97033524Y-166306890D01*
X97125648Y-166569858D01*
X97272504Y-166821193D01*
X97465571Y-167039049D01*
X97671722Y-167195538D01*
X97645986Y-167209294D01*
X97419866Y-167394866D01*
X97234294Y-167620986D01*
X97096401Y-167878966D01*
X97011487Y-168158889D01*
X96982815Y-168450000D01*
X95110000Y-168450000D01*
X95110000Y-165593110D01*
X97033524Y-165593110D01*
X97154845Y-165823000D01*
X98473000Y-165823000D01*
X98473000Y-164623835D01*
X98727000Y-164623835D01*
X98727000Y-165823000D01*
X100045155Y-165823000D01*
X100166476Y-165593110D01*
X100074352Y-165330142D01*
X99927496Y-165078807D01*
X99734429Y-164860951D01*
X99502570Y-164684947D01*
X99240830Y-164557558D01*
X98959267Y-164483680D01*
X98727000Y-164623835D01*
X98473000Y-164623835D01*
X98240733Y-164483680D01*
X97959170Y-164557558D01*
X97697430Y-164684947D01*
X97465571Y-164860951D01*
X97272504Y-165078807D01*
X97125648Y-165330142D01*
X97033524Y-165593110D01*
X95110000Y-165593110D01*
X95110000Y-124432279D01*
X95129437Y-124234042D01*
X95215000Y-124234042D01*
X95215000Y-124565958D01*
X95279754Y-124891496D01*
X95406772Y-125198147D01*
X95591175Y-125474125D01*
X95825875Y-125708825D01*
X96101853Y-125893228D01*
X96408504Y-126020246D01*
X96734042Y-126085000D01*
X97065958Y-126085000D01*
X97391496Y-126020246D01*
X97698147Y-125893228D01*
X97974125Y-125708825D01*
X98057950Y-125625000D01*
X112511928Y-125625000D01*
X112511928Y-127075000D01*
X112528992Y-127248254D01*
X112579528Y-127414850D01*
X112661595Y-127568386D01*
X112772038Y-127702962D01*
X112906614Y-127813405D01*
X113060150Y-127895472D01*
X113226746Y-127946008D01*
X113400000Y-127963072D01*
X114600000Y-127963072D01*
X114773254Y-127946008D01*
X114939850Y-127895472D01*
X115093386Y-127813405D01*
X115227962Y-127702962D01*
X115338405Y-127568386D01*
X115392777Y-127466663D01*
X115444866Y-127530134D01*
X115670987Y-127715706D01*
X115740000Y-127752594D01*
X115740001Y-142112667D01*
X115736324Y-142150000D01*
X115740001Y-142187333D01*
X115750998Y-142298986D01*
X115764180Y-142342442D01*
X115794454Y-142442246D01*
X115865026Y-142574276D01*
X115914861Y-142634999D01*
X115960000Y-142690001D01*
X115988998Y-142713799D01*
X136161200Y-162886002D01*
X136184999Y-162915001D01*
X136300724Y-163009974D01*
X136432753Y-163080546D01*
X136576014Y-163124003D01*
X136687667Y-163135000D01*
X136687676Y-163135000D01*
X136724999Y-163138676D01*
X136762322Y-163135000D01*
X136767091Y-163135000D01*
X136849201Y-163257886D01*
X137042114Y-163450799D01*
X137268957Y-163602371D01*
X137521011Y-163706775D01*
X137788589Y-163760000D01*
X138061411Y-163760000D01*
X138328989Y-163706775D01*
X138581043Y-163602371D01*
X138807886Y-163450799D01*
X139000799Y-163257886D01*
X139152371Y-163031043D01*
X139256775Y-162778989D01*
X139310000Y-162511411D01*
X139310000Y-162238589D01*
X139256775Y-161971011D01*
X139152371Y-161718957D01*
X139000799Y-161492114D01*
X138807886Y-161299201D01*
X138581043Y-161147629D01*
X138328989Y-161043225D01*
X138061411Y-160990000D01*
X137788589Y-160990000D01*
X137521011Y-161043225D01*
X137268957Y-161147629D01*
X137042114Y-161299201D01*
X136883058Y-161458257D01*
X117260000Y-141835199D01*
X117260000Y-127752595D01*
X117329014Y-127715706D01*
X117555134Y-127530134D01*
X117740706Y-127304014D01*
X117750000Y-127286626D01*
X117759294Y-127304014D01*
X117944866Y-127530134D01*
X118170987Y-127715706D01*
X118240001Y-127752595D01*
X118240000Y-141512678D01*
X118236324Y-141550000D01*
X118240000Y-141587322D01*
X118240000Y-141587332D01*
X118250997Y-141698985D01*
X118279287Y-141792246D01*
X118294454Y-141842246D01*
X118365026Y-141974276D01*
X118404871Y-142022826D01*
X118459999Y-142090001D01*
X118489003Y-142113804D01*
X134968833Y-158593635D01*
X134940000Y-158738589D01*
X134940000Y-159011411D01*
X134993225Y-159278989D01*
X135097629Y-159531043D01*
X135249201Y-159757886D01*
X135442114Y-159950799D01*
X135668957Y-160102371D01*
X135921011Y-160206775D01*
X136188589Y-160260000D01*
X136461411Y-160260000D01*
X136728989Y-160206775D01*
X136981043Y-160102371D01*
X137207886Y-159950799D01*
X137400799Y-159757886D01*
X137552371Y-159531043D01*
X137656775Y-159278989D01*
X137710000Y-159011411D01*
X137710000Y-158738589D01*
X146140000Y-158738589D01*
X146140000Y-159011411D01*
X146193225Y-159278989D01*
X146297629Y-159531043D01*
X146449201Y-159757886D01*
X146642114Y-159950799D01*
X146868957Y-160102371D01*
X147121011Y-160206775D01*
X147388589Y-160260000D01*
X147661411Y-160260000D01*
X147928989Y-160206775D01*
X148181043Y-160102371D01*
X148407886Y-159950799D01*
X148600799Y-159757886D01*
X148752371Y-159531043D01*
X148856775Y-159278989D01*
X148910000Y-159011411D01*
X148910000Y-158738589D01*
X148856775Y-158471011D01*
X148752371Y-158218957D01*
X148600799Y-157992114D01*
X148407886Y-157799201D01*
X148181043Y-157647629D01*
X147928989Y-157543225D01*
X147661411Y-157490000D01*
X147388589Y-157490000D01*
X147121011Y-157543225D01*
X146868957Y-157647629D01*
X146642114Y-157799201D01*
X146449201Y-157992114D01*
X146297629Y-158218957D01*
X146193225Y-158471011D01*
X146140000Y-158738589D01*
X137710000Y-158738589D01*
X137656775Y-158471011D01*
X137552371Y-158218957D01*
X137400799Y-157992114D01*
X137207886Y-157799201D01*
X136981043Y-157647629D01*
X136728989Y-157543225D01*
X136461411Y-157490000D01*
X136188589Y-157490000D01*
X136043635Y-157518833D01*
X119760000Y-141235199D01*
X119760000Y-127752595D01*
X119829014Y-127715706D01*
X120055134Y-127530134D01*
X120240706Y-127304014D01*
X120250000Y-127286626D01*
X120259294Y-127304014D01*
X120444866Y-127530134D01*
X120670987Y-127715706D01*
X120740001Y-127752595D01*
X120740000Y-139612678D01*
X120736324Y-139650000D01*
X120740000Y-139687322D01*
X120740000Y-139687332D01*
X120750997Y-139798985D01*
X120777081Y-139884974D01*
X120794454Y-139942246D01*
X120865026Y-140074276D01*
X120904871Y-140122826D01*
X120959999Y-140190001D01*
X120989003Y-140213804D01*
X134868833Y-154093635D01*
X134840000Y-154238589D01*
X134840000Y-154511411D01*
X134893225Y-154778989D01*
X134997629Y-155031043D01*
X135149201Y-155257886D01*
X135342114Y-155450799D01*
X135568957Y-155602371D01*
X135821011Y-155706775D01*
X136088589Y-155760000D01*
X136361411Y-155760000D01*
X136628989Y-155706775D01*
X136881043Y-155602371D01*
X137107886Y-155450799D01*
X137300799Y-155257886D01*
X137452371Y-155031043D01*
X137556775Y-154778989D01*
X137610000Y-154511411D01*
X137610000Y-154238589D01*
X137595307Y-154164721D01*
X139790000Y-154164721D01*
X139790000Y-154585279D01*
X139872047Y-154997756D01*
X140032988Y-155386302D01*
X140266637Y-155735983D01*
X140564017Y-156033363D01*
X140913698Y-156267012D01*
X141302244Y-156427953D01*
X141714721Y-156510000D01*
X142135279Y-156510000D01*
X142547756Y-156427953D01*
X142936302Y-156267012D01*
X143285983Y-156033363D01*
X143583363Y-155735983D01*
X143817012Y-155386302D01*
X143977953Y-154997756D01*
X144060000Y-154585279D01*
X144060000Y-154164721D01*
X143977953Y-153752244D01*
X143817012Y-153363698D01*
X143583363Y-153014017D01*
X143285983Y-152716637D01*
X142936302Y-152482988D01*
X142547756Y-152322047D01*
X142135279Y-152240000D01*
X141714721Y-152240000D01*
X141302244Y-152322047D01*
X140913698Y-152482988D01*
X140564017Y-152716637D01*
X140266637Y-153014017D01*
X140032988Y-153363698D01*
X139872047Y-153752244D01*
X139790000Y-154164721D01*
X137595307Y-154164721D01*
X137556775Y-153971011D01*
X137452371Y-153718957D01*
X137300799Y-153492114D01*
X137107886Y-153299201D01*
X136881043Y-153147629D01*
X136628989Y-153043225D01*
X136361411Y-152990000D01*
X136088589Y-152990000D01*
X135943635Y-153018833D01*
X122260000Y-139335199D01*
X122260000Y-127752595D01*
X122329014Y-127715706D01*
X122555134Y-127530134D01*
X122740706Y-127304014D01*
X122750000Y-127286626D01*
X122759294Y-127304014D01*
X122944866Y-127530134D01*
X123170987Y-127715706D01*
X123240000Y-127752594D01*
X123240001Y-137512668D01*
X123236324Y-137550000D01*
X123250998Y-137698985D01*
X123294454Y-137842246D01*
X123365026Y-137974276D01*
X123436201Y-138061002D01*
X123460000Y-138090001D01*
X123488998Y-138113799D01*
X134968833Y-149593635D01*
X134940000Y-149738589D01*
X134940000Y-150011411D01*
X134993225Y-150278989D01*
X135097629Y-150531043D01*
X135249201Y-150757886D01*
X135442114Y-150950799D01*
X135668957Y-151102371D01*
X135921011Y-151206775D01*
X136188589Y-151260000D01*
X136461411Y-151260000D01*
X136728989Y-151206775D01*
X136981043Y-151102371D01*
X137207886Y-150950799D01*
X137400799Y-150757886D01*
X137552371Y-150531043D01*
X137656775Y-150278989D01*
X137710000Y-150011411D01*
X137710000Y-149738589D01*
X137656775Y-149471011D01*
X137552371Y-149218957D01*
X137400799Y-148992114D01*
X137207886Y-148799201D01*
X136981043Y-148647629D01*
X136728989Y-148543225D01*
X136461411Y-148490000D01*
X136188589Y-148490000D01*
X136043635Y-148518833D01*
X124760000Y-137235199D01*
X124760000Y-127752595D01*
X124829014Y-127715706D01*
X125055134Y-127530134D01*
X125240706Y-127304014D01*
X125250000Y-127286626D01*
X125259294Y-127304014D01*
X125444866Y-127530134D01*
X125670987Y-127715706D01*
X125740000Y-127752594D01*
X125740001Y-134912668D01*
X125736324Y-134950000D01*
X125740001Y-134987333D01*
X125746720Y-135055546D01*
X125750998Y-135098985D01*
X125794454Y-135242246D01*
X125865026Y-135374276D01*
X125936201Y-135461002D01*
X125960000Y-135490001D01*
X125988998Y-135513799D01*
X136568833Y-146093635D01*
X136540000Y-146238589D01*
X136540000Y-146511411D01*
X136593225Y-146778989D01*
X136697629Y-147031043D01*
X136849201Y-147257886D01*
X137042114Y-147450799D01*
X137268957Y-147602371D01*
X137521011Y-147706775D01*
X137788589Y-147760000D01*
X138061411Y-147760000D01*
X138328989Y-147706775D01*
X138581043Y-147602371D01*
X138807886Y-147450799D01*
X139000799Y-147257886D01*
X139152371Y-147031043D01*
X139256775Y-146778989D01*
X139310000Y-146511411D01*
X139310000Y-146238589D01*
X139256775Y-145971011D01*
X139152371Y-145718957D01*
X139000799Y-145492114D01*
X138807886Y-145299201D01*
X138581043Y-145147629D01*
X138328989Y-145043225D01*
X138061411Y-144990000D01*
X137788589Y-144990000D01*
X137643635Y-145018833D01*
X127260000Y-134635199D01*
X127260000Y-127752595D01*
X127329014Y-127715706D01*
X127555134Y-127530134D01*
X127740706Y-127304014D01*
X127750000Y-127286626D01*
X127759294Y-127304014D01*
X127944866Y-127530134D01*
X128170987Y-127715706D01*
X128240000Y-127752594D01*
X128240001Y-132412668D01*
X128236324Y-132450000D01*
X128250998Y-132598985D01*
X128294454Y-132742246D01*
X128365026Y-132874276D01*
X128436201Y-132961002D01*
X128460000Y-132990001D01*
X128488998Y-133013799D01*
X140568833Y-145093635D01*
X140540000Y-145238589D01*
X140540000Y-145511411D01*
X140593225Y-145778989D01*
X140697629Y-146031043D01*
X140849201Y-146257886D01*
X141042114Y-146450799D01*
X141268957Y-146602371D01*
X141521011Y-146706775D01*
X141788589Y-146760000D01*
X142061411Y-146760000D01*
X142328989Y-146706775D01*
X142581043Y-146602371D01*
X142807886Y-146450799D01*
X143000799Y-146257886D01*
X143152371Y-146031043D01*
X143256775Y-145778989D01*
X143310000Y-145511411D01*
X143310000Y-145238589D01*
X143256775Y-144971011D01*
X143152371Y-144718957D01*
X143000799Y-144492114D01*
X142807886Y-144299201D01*
X142581043Y-144147629D01*
X142328989Y-144043225D01*
X142061411Y-143990000D01*
X141788589Y-143990000D01*
X141643635Y-144018833D01*
X129760000Y-132135199D01*
X129760000Y-127752595D01*
X129829014Y-127715706D01*
X130055134Y-127530134D01*
X130240706Y-127304014D01*
X130250000Y-127286626D01*
X130259294Y-127304014D01*
X130444866Y-127530134D01*
X130670987Y-127715706D01*
X130928967Y-127853599D01*
X131208890Y-127938513D01*
X131500000Y-127967185D01*
X131791111Y-127938513D01*
X131961903Y-127886704D01*
X145165001Y-141089803D01*
X145165000Y-145217091D01*
X145042114Y-145299201D01*
X144849201Y-145492114D01*
X144697629Y-145718957D01*
X144593225Y-145971011D01*
X144540000Y-146238589D01*
X144540000Y-146511411D01*
X144593225Y-146778989D01*
X144697629Y-147031043D01*
X144849201Y-147257886D01*
X145042114Y-147450799D01*
X145268957Y-147602371D01*
X145521011Y-147706775D01*
X145788589Y-147760000D01*
X146061411Y-147760000D01*
X146328989Y-147706775D01*
X146581043Y-147602371D01*
X146765001Y-147479454D01*
X146765001Y-148717090D01*
X146642114Y-148799201D01*
X146449201Y-148992114D01*
X146297629Y-149218957D01*
X146193225Y-149471011D01*
X146140000Y-149738589D01*
X146140000Y-150011411D01*
X146193225Y-150278989D01*
X146297629Y-150531043D01*
X146449201Y-150757886D01*
X146642114Y-150950799D01*
X146868957Y-151102371D01*
X147121011Y-151206775D01*
X147388589Y-151260000D01*
X147661411Y-151260000D01*
X147928989Y-151206775D01*
X148181043Y-151102371D01*
X148407886Y-150950799D01*
X148600799Y-150757886D01*
X148640001Y-150699216D01*
X148640001Y-152285197D01*
X147906365Y-153018833D01*
X147761411Y-152990000D01*
X147488589Y-152990000D01*
X147221011Y-153043225D01*
X146968957Y-153147629D01*
X146742114Y-153299201D01*
X146549201Y-153492114D01*
X146397629Y-153718957D01*
X146293225Y-153971011D01*
X146240000Y-154238589D01*
X146240000Y-154511411D01*
X146293225Y-154778989D01*
X146397629Y-155031043D01*
X146549201Y-155257886D01*
X146742114Y-155450799D01*
X146968957Y-155602371D01*
X147221011Y-155706775D01*
X147488589Y-155760000D01*
X147761411Y-155760000D01*
X148028989Y-155706775D01*
X148281043Y-155602371D01*
X148507886Y-155450799D01*
X148700799Y-155257886D01*
X148852371Y-155031043D01*
X148956775Y-154778989D01*
X149010000Y-154511411D01*
X149010000Y-154238589D01*
X148981167Y-154093635D01*
X149911003Y-153163799D01*
X149940001Y-153140001D01*
X149966466Y-153107753D01*
X150034974Y-153024277D01*
X150105546Y-152892247D01*
X150115328Y-152859998D01*
X150149003Y-152748986D01*
X150160000Y-152637333D01*
X150160000Y-152637324D01*
X150163676Y-152600001D01*
X150160000Y-152562678D01*
X150160000Y-139287323D01*
X150163676Y-139250000D01*
X150160000Y-139212677D01*
X150160000Y-139212667D01*
X150149003Y-139101014D01*
X150105546Y-138957753D01*
X150098437Y-138944454D01*
X150034974Y-138825723D01*
X149963799Y-138738997D01*
X149940001Y-138709999D01*
X149911004Y-138686202D01*
X137965970Y-126741168D01*
X137985000Y-126547949D01*
X137985000Y-126152050D01*
X137963513Y-125933889D01*
X137878599Y-125653966D01*
X137740706Y-125395986D01*
X137555134Y-125169866D01*
X137329013Y-124984294D01*
X137071033Y-124846401D01*
X136791110Y-124761487D01*
X136500000Y-124732815D01*
X136208889Y-124761487D01*
X135928966Y-124846401D01*
X135670986Y-124984294D01*
X135444866Y-125169866D01*
X135259294Y-125395987D01*
X135250000Y-125413374D01*
X135240706Y-125395986D01*
X135055134Y-125169866D01*
X134829013Y-124984294D01*
X134571033Y-124846401D01*
X134291110Y-124761487D01*
X134000000Y-124732815D01*
X133708889Y-124761487D01*
X133428966Y-124846401D01*
X133170986Y-124984294D01*
X132944866Y-125169866D01*
X132759294Y-125395987D01*
X132750000Y-125413374D01*
X132740706Y-125395986D01*
X132555134Y-125169866D01*
X132329013Y-124984294D01*
X132071033Y-124846401D01*
X131791110Y-124761487D01*
X131500000Y-124732815D01*
X131208889Y-124761487D01*
X130928966Y-124846401D01*
X130670986Y-124984294D01*
X130444866Y-125169866D01*
X130259294Y-125395987D01*
X130250000Y-125413374D01*
X130240706Y-125395986D01*
X130055134Y-125169866D01*
X129829013Y-124984294D01*
X129571033Y-124846401D01*
X129291110Y-124761487D01*
X129000000Y-124732815D01*
X128708889Y-124761487D01*
X128428966Y-124846401D01*
X128170986Y-124984294D01*
X127944866Y-125169866D01*
X127759294Y-125395987D01*
X127750000Y-125413374D01*
X127740706Y-125395986D01*
X127555134Y-125169866D01*
X127329013Y-124984294D01*
X127071033Y-124846401D01*
X126791110Y-124761487D01*
X126500000Y-124732815D01*
X126208889Y-124761487D01*
X125928966Y-124846401D01*
X125670986Y-124984294D01*
X125444866Y-125169866D01*
X125259294Y-125395987D01*
X125250000Y-125413374D01*
X125240706Y-125395986D01*
X125055134Y-125169866D01*
X124829013Y-124984294D01*
X124571033Y-124846401D01*
X124291110Y-124761487D01*
X124000000Y-124732815D01*
X123708889Y-124761487D01*
X123428966Y-124846401D01*
X123170986Y-124984294D01*
X122944866Y-125169866D01*
X122759294Y-125395987D01*
X122750000Y-125413374D01*
X122740706Y-125395986D01*
X122555134Y-125169866D01*
X122329013Y-124984294D01*
X122071033Y-124846401D01*
X121791110Y-124761487D01*
X121500000Y-124732815D01*
X121208889Y-124761487D01*
X120928966Y-124846401D01*
X120670986Y-124984294D01*
X120444866Y-125169866D01*
X120259294Y-125395987D01*
X120250000Y-125413374D01*
X120240706Y-125395986D01*
X120055134Y-125169866D01*
X119829013Y-124984294D01*
X119571033Y-124846401D01*
X119291110Y-124761487D01*
X119000000Y-124732815D01*
X118708889Y-124761487D01*
X118428966Y-124846401D01*
X118170986Y-124984294D01*
X117944866Y-125169866D01*
X117759294Y-125395987D01*
X117750000Y-125413374D01*
X117740706Y-125395986D01*
X117555134Y-125169866D01*
X117329013Y-124984294D01*
X117071033Y-124846401D01*
X116791110Y-124761487D01*
X116500000Y-124732815D01*
X116208889Y-124761487D01*
X115928966Y-124846401D01*
X115670986Y-124984294D01*
X115444866Y-125169866D01*
X115392777Y-125233337D01*
X115338405Y-125131614D01*
X115227962Y-124997038D01*
X115093386Y-124886595D01*
X114939850Y-124804528D01*
X114773254Y-124753992D01*
X114600000Y-124736928D01*
X113400000Y-124736928D01*
X113226746Y-124753992D01*
X113060150Y-124804528D01*
X112906614Y-124886595D01*
X112772038Y-124997038D01*
X112661595Y-125131614D01*
X112579528Y-125285150D01*
X112528992Y-125451746D01*
X112511928Y-125625000D01*
X98057950Y-125625000D01*
X98208825Y-125474125D01*
X98393228Y-125198147D01*
X98520246Y-124891496D01*
X98585000Y-124565958D01*
X98585000Y-124234042D01*
X320215000Y-124234042D01*
X320215000Y-124565958D01*
X320279754Y-124891496D01*
X320406772Y-125198147D01*
X320591175Y-125474125D01*
X320825875Y-125708825D01*
X321101853Y-125893228D01*
X321408504Y-126020246D01*
X321734042Y-126085000D01*
X322065958Y-126085000D01*
X322391496Y-126020246D01*
X322698147Y-125893228D01*
X322974125Y-125708825D01*
X323208825Y-125474125D01*
X323393228Y-125198147D01*
X323520246Y-124891496D01*
X323585000Y-124565958D01*
X323585000Y-124234042D01*
X323520246Y-123908504D01*
X323393228Y-123601853D01*
X323208825Y-123325875D01*
X322974125Y-123091175D01*
X322698147Y-122906772D01*
X322391496Y-122779754D01*
X322065958Y-122715000D01*
X321734042Y-122715000D01*
X321408504Y-122779754D01*
X321101853Y-122906772D01*
X320825875Y-123091175D01*
X320591175Y-123325875D01*
X320406772Y-123601853D01*
X320279754Y-123908504D01*
X320215000Y-124234042D01*
X98585000Y-124234042D01*
X98520246Y-123908504D01*
X98393228Y-123601853D01*
X98208825Y-123325875D01*
X97974125Y-123091175D01*
X97698147Y-122906772D01*
X97391496Y-122779754D01*
X97065958Y-122715000D01*
X96734042Y-122715000D01*
X96408504Y-122779754D01*
X96101853Y-122906772D01*
X95825875Y-123091175D01*
X95591175Y-123325875D01*
X95406772Y-123601853D01*
X95279754Y-123908504D01*
X95215000Y-124234042D01*
X95129437Y-124234042D01*
X95147195Y-124052936D01*
X95247990Y-123719088D01*
X95411708Y-123411179D01*
X95632115Y-123140935D01*
X95900813Y-122918647D01*
X96207572Y-122752783D01*
X96540710Y-122649660D01*
X96918051Y-122610000D01*
X321867721Y-122610000D01*
X322247064Y-122647195D01*
G37*
%TD.AperFunction*%
%TD*%
M02*
