%TF.GenerationSoftware,KiCad,Pcbnew,5.1.9+dfsg1-1+deb11u1*%
%TF.CreationDate,2023-02-08T14:45:02+08:00*%
%TF.ProjectId,IN12,494e3132-2e6b-4696-9361-645f70636258,v1.0*%
%TF.SameCoordinates,Original*%
%TF.FileFunction,Profile,NP*%
%FSLAX46Y46*%
G04 Gerber Fmt 4.6, Leading zero omitted, Abs format (unit mm)*
G04 Created by KiCad (PCBNEW 5.1.9+dfsg1-1+deb11u1) date 2023-02-08 14:45:02*
%MOMM*%
%LPD*%
G01*
G04 APERTURE LIST*
%TA.AperFunction,Profile*%
%ADD10C,0.050000*%
%TD*%
G04 APERTURE END LIST*
D10*
X323566666Y-184350000D02*
G75*
G03*
X323566666Y-184350000I-1666666J0D01*
G01*
X319400000Y-184350000D02*
X324400000Y-184350000D01*
X321900000Y-181850000D02*
X321900000Y-186850000D01*
X323566666Y-124400000D02*
G75*
G03*
X323566666Y-124400000I-1666666J0D01*
G01*
X319400000Y-124400000D02*
X324400000Y-124400000D01*
X321900000Y-121900000D02*
X321900000Y-126900000D01*
X98566666Y-124400000D02*
G75*
G03*
X98566666Y-124400000I-1666666J0D01*
G01*
X94400000Y-124400000D02*
X99400000Y-124400000D01*
X96900000Y-121900000D02*
X96900000Y-126900000D01*
X98566666Y-184350000D02*
G75*
G03*
X98566666Y-184350000I-1666666J0D01*
G01*
X94400000Y-184350000D02*
X99400000Y-184350000D01*
X96900000Y-181850000D02*
X96900000Y-186850000D01*
X96900000Y-121950000D02*
X321900000Y-121950000D01*
X94450000Y-184350000D02*
X94450000Y-124400000D01*
X321900000Y-186800000D02*
X96900000Y-186800000D01*
X324350000Y-124400000D02*
X324350000Y-184350000D01*
X321900000Y-121950000D02*
G75*
G02*
X324350000Y-124400000I0J-2450000D01*
G01*
X324350000Y-184350000D02*
G75*
G02*
X321900000Y-186800000I-2450000J0D01*
G01*
X96900000Y-186800000D02*
G75*
G02*
X94450000Y-184350000I0J2450000D01*
G01*
X94450000Y-124400000D02*
G75*
G02*
X96900000Y-121950000I2450000J0D01*
G01*
M02*
