  0
SECTION
  2
HEADER
  9
$ANGBASE
  50
0.0
  9
$ANGDIR
  70
1
  9
$MEASUREMENT
  70
0
  0
ENDSEC
  0
SECTION
  2
TABLES
  0
TABLE
  2
LTYPE
  70
4
  0
LTYPE
  5
40F
  2
CONTINUOUS
  70
0
  3
Solid line
  72
65
  73
0
  40
0.0
  0
LTYPE
  5
410
  2
DASHDOT
 70
0
  3
Dash Dot ____ _ ____ _
 72
65
 73
4
 40
2.0
 49
1.25
 49
-0.25
 49
0.25
 49
-0.25
  0
LTYPE
  5
411
  2
DASHED
 70
0
  3
Dashed __ __ __ __ __
 72
65
 73
2
 40
0.75
 49
0.5
 49
-0.25
  0
LTYPE
  5
43B
  2
DOTTED
 70
0
  3
Dotted .  .  .  .
 72
65
 73
2
 40
0.2
 49
0.0
 49
-0.2
  0
ENDTAB
  0
TABLE
  2
STYLE
  70
4
  0
STYLE
  2
KICAD
  70
0
  40
0
  41
1
  42
1
  50
0
  71
0
  3
isocp.shx
  0
STYLE
  2
KICADB
  70
0
  40
0
  41
1
  42
1
  50
0
  71
0
  3
isocp.shx
  0
STYLE
  2
KICADI
  70
0
  40
0
  41
1
  42
1
  50
15
  71
0
  3
isocp.shx
  0
STYLE
  2
KICADBI
  70
0
  40
0
  41
1
  42
1
  50
15
  71
0
  3
isocp.shx
  0
ENDTAB
  0
TABLE
  2
LAYER
  70
1
  0
LAYER
  2
BLACK
  70
0
  62
7
  6
CONTINUOUS
  0
ENDTAB
  0
ENDSEC
  0
SECTION
  2
ENTITIES
0
LINE
8
BLACK
6
CONTINUOUS
10
5.36
20
-3.48
11
6.24
21
-3.48
0
LINE
8
BLACK
6
CONTINUOUS
10
6.24
20
-3.48
11
6.24
21
-4.355
0
LINE
8
BLACK
6
CONTINUOUS
10
6.24
20
-4.355
11
5.36
21
-4.355
0
LINE
8
BLACK
6
CONTINUOUS
10
5.36
20
-4.355
11
5.36
21
-3.48
0
LINE
8
BLACK
6
CONTINUOUS
10
5.56181
20
-3.90339
11
5.58937
21
-3.93094
0
LINE
8
BLACK
6
CONTINUOUS
10
5.58937
20
-3.90339
11
5.56181
21
-3.93094
0
LINE
8
BLACK
6
CONTINUOUS
10
5.56575
20
-3.72622
11
5.59331
21
-3.75378
0
LINE
8
BLACK
6
CONTINUOUS
10
5.59331
20
-3.72622
11
5.56575
21
-3.75378
0
LINE
8
BLACK
6
CONTINUOUS
10
5.56575
20
-4.08055
11
5.59331
21
-4.10811
0
LINE
8
BLACK
6
CONTINUOUS
10
5.59331
20
-4.08055
11
5.56575
21
-4.10811
0
LINE
8
BLACK
6
CONTINUOUS
10
5.62874
20
-3.58843
11
5.6563
21
-3.61598
0
LINE
8
BLACK
6
CONTINUOUS
10
5.6563
20
-3.58843
11
5.62874
21
-3.61598
0
LINE
8
BLACK
6
CONTINUOUS
10
5.62874
20
-4.21835
11
5.6563
21
-4.24591
0
LINE
8
BLACK
6
CONTINUOUS
10
5.6563
20
-4.21835
11
5.62874
21
-4.24591
0
LINE
8
BLACK
6
CONTINUOUS
10
5.78622
20
-3.54906
11
5.81378
21
-3.57661
0
LINE
8
BLACK
6
CONTINUOUS
10
5.81378
20
-3.54906
11
5.78622
21
-3.57661
0
LINE
8
BLACK
6
CONTINUOUS
10
5.78622
20
-4.25772
11
5.81378
21
-4.28528
0
LINE
8
BLACK
6
CONTINUOUS
10
5.81378
20
-4.25772
11
5.78622
21
-4.28528
0
LINE
8
BLACK
6
CONTINUOUS
10
5.9437
20
-3.58843
11
5.97126
21
-3.61598
0
LINE
8
BLACK
6
CONTINUOUS
10
5.97126
20
-3.58843
11
5.9437
21
-3.61598
0
LINE
8
BLACK
6
CONTINUOUS
10
5.9437
20
-4.21835
11
5.97126
21
-4.24591
0
LINE
8
BLACK
6
CONTINUOUS
10
5.97126
20
-4.21835
11
5.9437
21
-4.24591
0
LINE
8
BLACK
6
CONTINUOUS
10
6.00669
20
-3.72622
11
6.03425
21
-3.75378
0
LINE
8
BLACK
6
CONTINUOUS
10
6.03425
20
-3.72622
11
6.00669
21
-3.75378
0
LINE
8
BLACK
6
CONTINUOUS
10
6.00669
20
-4.08055
11
6.03425
21
-4.10811
0
LINE
8
BLACK
6
CONTINUOUS
10
6.03425
20
-4.08055
11
6.00669
21
-4.10811
0
LINE
8
BLACK
6
CONTINUOUS
10
6.01063
20
-3.90339
11
6.03819
21
-3.93094
0
LINE
8
BLACK
6
CONTINUOUS
10
6.03819
20
-3.90339
11
6.01063
21
-3.93094
0
CIRCLE
8
BLACK
10
5.64252
20
-3.81717
40
0.015
0
CIRCLE
8
BLACK
10
5.64252
20
-3.91717
40
0.015
0
CIRCLE
8
BLACK
10
5.64252
20
-4.01717
40
0.015
0
CIRCLE
8
BLACK
10
5.7
20
-3.72031
40
0.015
0
CIRCLE
8
BLACK
10
5.7
20
-4.11402
40
0.015
0
CIRCLE
8
BLACK
10
5.8
20
-3.72031
40
0.015
0
CIRCLE
8
BLACK
10
5.8
20
-4.11402
40
0.015
0
CIRCLE
8
BLACK
10
5.9
20
-3.72031
40
0.015
0
CIRCLE
8
BLACK
10
5.9
20
-4.11402
40
0.015
0
CIRCLE
8
BLACK
10
5.95748
20
-3.81717
40
0.015
0
CIRCLE
8
BLACK
10
5.95748
20
-3.91717
40
0.015
0
CIRCLE
8
BLACK
10
5.95748
20
-4.01717
40
0.015
0
LINE
8
BLACK
6
CONTINUOUS
10
5.45552
20
-4.47251
11
5.45552
21
-4.39377
0
LINE
8
BLACK
6
CONTINUOUS
10
5.45552
20
-4.39377
11
5.47427
21
-4.39377
0
LINE
8
BLACK
6
CONTINUOUS
10
5.47427
20
-4.39377
11
5.48552
21
-4.39752
0
LINE
8
BLACK
6
CONTINUOUS
10
5.48552
20
-4.39752
11
5.49301
21
-4.40502
0
LINE
8
BLACK
6
CONTINUOUS
10
5.49301
20
-4.40502
11
5.49676
21
-4.41252
0
LINE
8
BLACK
6
CONTINUOUS
10
5.49676
20
-4.41252
11
5.50051
21
-4.42752
0
LINE
8
BLACK
6
CONTINUOUS
10
5.50051
20
-4.42752
11
5.50051
21
-4.43876
0
LINE
8
BLACK
6
CONTINUOUS
10
5.50051
20
-4.43876
11
5.49676
21
-4.45376
0
LINE
8
BLACK
6
CONTINUOUS
10
5.49676
20
-4.45376
11
5.49301
21
-4.46126
0
LINE
8
BLACK
6
CONTINUOUS
10
5.49301
20
-4.46126
11
5.48552
21
-4.46876
0
LINE
8
BLACK
6
CONTINUOUS
10
5.48552
20
-4.46876
11
5.47427
21
-4.47251
0
LINE
8
BLACK
6
CONTINUOUS
10
5.47427
20
-4.47251
11
5.45552
21
-4.47251
0
LINE
8
BLACK
6
CONTINUOUS
10
5.53426
20
-4.47251
11
5.53426
21
-4.42002
0
LINE
8
BLACK
6
CONTINUOUS
10
5.53426
20
-4.43501
11
5.53801
21
-4.42752
0
LINE
8
BLACK
6
CONTINUOUS
10
5.53801
20
-4.42752
11
5.54176
21
-4.42377
0
LINE
8
BLACK
6
CONTINUOUS
10
5.54176
20
-4.42377
11
5.54926
21
-4.42002
0
LINE
8
BLACK
6
CONTINUOUS
10
5.54926
20
-4.42002
11
5.55676
21
-4.42002
0
LINE
8
BLACK
6
CONTINUOUS
10
5.583
20
-4.47251
11
5.583
21
-4.42002
0
LINE
8
BLACK
6
CONTINUOUS
10
5.583
20
-4.39377
11
5.57925
21
-4.39752
0
LINE
8
BLACK
6
CONTINUOUS
10
5.57925
20
-4.39752
11
5.583
21
-4.40127
0
LINE
8
BLACK
6
CONTINUOUS
10
5.583
20
-4.40127
11
5.58675
21
-4.39752
0
LINE
8
BLACK
6
CONTINUOUS
10
5.58675
20
-4.39752
11
5.583
21
-4.39377
0
LINE
8
BLACK
6
CONTINUOUS
10
5.583
20
-4.39377
11
5.583
21
-4.40127
0
LINE
8
BLACK
6
CONTINUOUS
10
5.63175
20
-4.47251
11
5.62425
21
-4.46876
0
LINE
8
BLACK
6
CONTINUOUS
10
5.62425
20
-4.46876
11
5.6205
21
-4.46126
0
LINE
8
BLACK
6
CONTINUOUS
10
5.6205
20
-4.46126
11
5.6205
21
-4.39377
0
LINE
8
BLACK
6
CONTINUOUS
10
5.67299
20
-4.47251
11
5.66549
21
-4.46876
0
LINE
8
BLACK
6
CONTINUOUS
10
5.66549
20
-4.46876
11
5.66174
21
-4.46126
0
LINE
8
BLACK
6
CONTINUOUS
10
5.66174
20
-4.46126
11
5.66174
21
-4.39377
0
LINE
8
BLACK
6
CONTINUOUS
10
5.75023
20
-4.47251
11
5.75023
21
-4.39377
0
LINE
8
BLACK
6
CONTINUOUS
10
5.75023
20
-4.39377
11
5.77648
21
-4.45001
0
LINE
8
BLACK
6
CONTINUOUS
10
5.77648
20
-4.45001
11
5.80273
21
-4.39377
0
LINE
8
BLACK
6
CONTINUOUS
10
5.80273
20
-4.39377
11
5.80273
21
-4.47251
0
LINE
8
BLACK
6
CONTINUOUS
10
5.87397
20
-4.47251
11
5.87397
21
-4.43127
0
LINE
8
BLACK
6
CONTINUOUS
10
5.87397
20
-4.43127
11
5.87022
21
-4.42377
0
LINE
8
BLACK
6
CONTINUOUS
10
5.87022
20
-4.42377
11
5.86272
21
-4.42002
0
LINE
8
BLACK
6
CONTINUOUS
10
5.86272
20
-4.42002
11
5.84772
21
-4.42002
0
LINE
8
BLACK
6
CONTINUOUS
10
5.84772
20
-4.42002
11
5.84022
21
-4.42377
0
LINE
8
BLACK
6
CONTINUOUS
10
5.87397
20
-4.46876
11
5.86647
21
-4.47251
0
LINE
8
BLACK
6
CONTINUOUS
10
5.86647
20
-4.47251
11
5.84772
21
-4.47251
0
LINE
8
BLACK
6
CONTINUOUS
10
5.84772
20
-4.47251
11
5.84022
21
-4.46876
0
LINE
8
BLACK
6
CONTINUOUS
10
5.84022
20
-4.46876
11
5.83647
21
-4.46126
0
LINE
8
BLACK
6
CONTINUOUS
10
5.83647
20
-4.46126
11
5.83647
21
-4.45376
0
LINE
8
BLACK
6
CONTINUOUS
10
5.83647
20
-4.45376
11
5.84022
21
-4.44626
0
LINE
8
BLACK
6
CONTINUOUS
10
5.84022
20
-4.44626
11
5.84772
21
-4.44251
0
LINE
8
BLACK
6
CONTINUOUS
10
5.84772
20
-4.44251
11
5.86647
21
-4.44251
0
LINE
8
BLACK
6
CONTINUOUS
10
5.86647
20
-4.44251
11
5.87397
21
-4.43876
0
LINE
8
BLACK
6
CONTINUOUS
10
5.91146
20
-4.42002
11
5.91146
21
-4.49876
0
LINE
8
BLACK
6
CONTINUOUS
10
5.91146
20
-4.42377
11
5.91896
21
-4.42002
0
LINE
8
BLACK
6
CONTINUOUS
10
5.91896
20
-4.42002
11
5.93396
21
-4.42002
0
LINE
8
BLACK
6
CONTINUOUS
10
5.93396
20
-4.42002
11
5.94146
21
-4.42377
0
LINE
8
BLACK
6
CONTINUOUS
10
5.94146
20
-4.42377
11
5.94521
21
-4.42752
0
LINE
8
BLACK
6
CONTINUOUS
10
5.94521
20
-4.42752
11
5.94896
21
-4.43501
0
LINE
8
BLACK
6
CONTINUOUS
10
5.94896
20
-4.43501
11
5.94896
21
-4.45751
0
LINE
8
BLACK
6
CONTINUOUS
10
5.94896
20
-4.45751
11
5.94521
21
-4.46501
0
LINE
8
BLACK
6
CONTINUOUS
10
5.94521
20
-4.46501
11
5.94146
21
-4.46876
0
LINE
8
BLACK
6
CONTINUOUS
10
5.94146
20
-4.46876
11
5.93396
21
-4.47251
0
LINE
8
BLACK
6
CONTINUOUS
10
5.93396
20
-4.47251
11
5.91896
21
-4.47251
0
LINE
8
BLACK
6
CONTINUOUS
10
5.91896
20
-4.47251
11
5.91146
21
-4.46876
0
LINE
8
BLACK
6
CONTINUOUS
10
5.9827
20
-4.46501
11
5.98645
21
-4.46876
0
LINE
8
BLACK
6
CONTINUOUS
10
5.98645
20
-4.46876
11
5.9827
21
-4.47251
0
LINE
8
BLACK
6
CONTINUOUS
10
5.9827
20
-4.47251
11
5.97895
21
-4.46876
0
LINE
8
BLACK
6
CONTINUOUS
10
5.97895
20
-4.46876
11
5.9827
21
-4.46501
0
LINE
8
BLACK
6
CONTINUOUS
10
5.9827
20
-4.46501
11
5.9827
21
-4.47251
0
LINE
8
BLACK
6
CONTINUOUS
10
5.9827
20
-4.42377
11
5.98645
21
-4.42752
0
LINE
8
BLACK
6
CONTINUOUS
10
5.98645
20
-4.42752
11
5.9827
21
-4.43127
0
LINE
8
BLACK
6
CONTINUOUS
10
5.9827
20
-4.43127
11
5.97895
21
-4.42752
0
LINE
8
BLACK
6
CONTINUOUS
10
5.97895
20
-4.42752
11
5.9827
21
-4.42377
0
LINE
8
BLACK
6
CONTINUOUS
10
5.9827
20
-4.42377
11
5.9827
21
-4.43127
0
LINE
8
BLACK
6
CONTINUOUS
10
5.33047
20
-4.59516
11
5.35803
21
-4.62272
0
LINE
8
BLACK
6
CONTINUOUS
10
5.35803
20
-4.59516
11
5.33047
21
-4.62272
0
LINE
8
BLACK
6
CONTINUOUS
10
5.47052
20
-4.55912
11
5.47802
21
-4.55912
0
LINE
8
BLACK
6
CONTINUOUS
10
5.47802
20
-4.55912
11
5.48552
21
-4.56287
0
LINE
8
BLACK
6
CONTINUOUS
10
5.48552
20
-4.56287
11
5.48927
21
-4.56662
0
LINE
8
BLACK
6
CONTINUOUS
10
5.48927
20
-4.56662
11
5.49301
21
-4.57412
0
LINE
8
BLACK
6
CONTINUOUS
10
5.49301
20
-4.57412
11
5.49676
21
-4.58912
0
LINE
8
BLACK
6
CONTINUOUS
10
5.49676
20
-4.58912
11
5.49676
21
-4.60787
0
LINE
8
BLACK
6
CONTINUOUS
10
5.49676
20
-4.60787
11
5.49301
21
-4.62287
0
LINE
8
BLACK
6
CONTINUOUS
10
5.49301
20
-4.62287
11
5.48927
21
-4.63037
0
LINE
8
BLACK
6
CONTINUOUS
10
5.48927
20
-4.63037
11
5.48552
21
-4.63412
0
LINE
8
BLACK
6
CONTINUOUS
10
5.48552
20
-4.63412
11
5.47802
21
-4.63786
0
LINE
8
BLACK
6
CONTINUOUS
10
5.47802
20
-4.63786
11
5.47052
21
-4.63786
0
LINE
8
BLACK
6
CONTINUOUS
10
5.47052
20
-4.63786
11
5.46302
21
-4.63412
0
LINE
8
BLACK
6
CONTINUOUS
10
5.46302
20
-4.63412
11
5.45927
21
-4.63037
0
LINE
8
BLACK
6
CONTINUOUS
10
5.45927
20
-4.63037
11
5.45552
21
-4.62287
0
LINE
8
BLACK
6
CONTINUOUS
10
5.45552
20
-4.62287
11
5.45177
21
-4.60787
0
LINE
8
BLACK
6
CONTINUOUS
10
5.45177
20
-4.60787
11
5.45177
21
-4.58912
0
LINE
8
BLACK
6
CONTINUOUS
10
5.45177
20
-4.58912
11
5.45552
21
-4.57412
0
LINE
8
BLACK
6
CONTINUOUS
10
5.45552
20
-4.57412
11
5.45927
21
-4.56662
0
LINE
8
BLACK
6
CONTINUOUS
10
5.45927
20
-4.56662
11
5.46302
21
-4.56287
0
LINE
8
BLACK
6
CONTINUOUS
10
5.46302
20
-4.56287
11
5.47052
21
-4.55912
0
LINE
8
BLACK
6
CONTINUOUS
10
5.53051
20
-4.63037
11
5.53426
21
-4.63412
0
LINE
8
BLACK
6
CONTINUOUS
10
5.53426
20
-4.63412
11
5.53051
21
-4.63786
0
LINE
8
BLACK
6
CONTINUOUS
10
5.53051
20
-4.63786
11
5.52676
21
-4.63412
0
LINE
8
BLACK
6
CONTINUOUS
10
5.52676
20
-4.63412
11
5.53051
21
-4.63037
0
LINE
8
BLACK
6
CONTINUOUS
10
5.53051
20
-4.63037
11
5.53051
21
-4.63786
0
LINE
8
BLACK
6
CONTINUOUS
10
5.56051
20
-4.55912
11
5.613
21
-4.55912
0
LINE
8
BLACK
6
CONTINUOUS
10
5.613
20
-4.55912
11
5.57925
21
-4.63786
0
LINE
8
BLACK
6
CONTINUOUS
10
5.65799
20
-4.55912
11
5.66549
21
-4.55912
0
LINE
8
BLACK
6
CONTINUOUS
10
5.66549
20
-4.55912
11
5.67299
21
-4.56287
0
LINE
8
BLACK
6
CONTINUOUS
10
5.67299
20
-4.56287
11
5.67674
21
-4.56662
0
LINE
8
BLACK
6
CONTINUOUS
10
5.67674
20
-4.56662
11
5.68049
21
-4.57412
0
LINE
8
BLACK
6
CONTINUOUS
10
5.68049
20
-4.57412
11
5.68424
21
-4.58912
0
LINE
8
BLACK
6
CONTINUOUS
10
5.68424
20
-4.58912
11
5.68424
21
-4.60787
0
LINE
8
BLACK
6
CONTINUOUS
10
5.68424
20
-4.60787
11
5.68049
21
-4.62287
0
LINE
8
BLACK
6
CONTINUOUS
10
5.68049
20
-4.62287
11
5.67674
21
-4.63037
0
LINE
8
BLACK
6
CONTINUOUS
10
5.67674
20
-4.63037
11
5.67299
21
-4.63412
0
LINE
8
BLACK
6
CONTINUOUS
10
5.67299
20
-4.63412
11
5.66549
21
-4.63786
0
LINE
8
BLACK
6
CONTINUOUS
10
5.66549
20
-4.63786
11
5.65799
21
-4.63786
0
LINE
8
BLACK
6
CONTINUOUS
10
5.65799
20
-4.63786
11
5.65049
21
-4.63412
0
LINE
8
BLACK
6
CONTINUOUS
10
5.65049
20
-4.63412
11
5.64675
21
-4.63037
0
LINE
8
BLACK
6
CONTINUOUS
10
5.64675
20
-4.63037
11
5.643
21
-4.62287
0
LINE
8
BLACK
6
CONTINUOUS
10
5.643
20
-4.62287
11
5.63925
21
-4.60787
0
LINE
8
BLACK
6
CONTINUOUS
10
5.63925
20
-4.60787
11
5.63925
21
-4.58912
0
LINE
8
BLACK
6
CONTINUOUS
10
5.63925
20
-4.58912
11
5.643
21
-4.57412
0
LINE
8
BLACK
6
CONTINUOUS
10
5.643
20
-4.57412
11
5.64675
21
-4.56662
0
LINE
8
BLACK
6
CONTINUOUS
10
5.64675
20
-4.56662
11
5.65049
21
-4.56287
0
LINE
8
BLACK
6
CONTINUOUS
10
5.65049
20
-4.56287
11
5.65799
21
-4.55912
0
LINE
8
BLACK
6
CONTINUOUS
10
5.73298
20
-4.55912
11
5.74048
21
-4.55912
0
LINE
8
BLACK
6
CONTINUOUS
10
5.74048
20
-4.55912
11
5.74798
21
-4.56287
0
LINE
8
BLACK
6
CONTINUOUS
10
5.74798
20
-4.56287
11
5.75173
21
-4.56662
0
LINE
8
BLACK
6
CONTINUOUS
10
5.75173
20
-4.56662
11
5.75548
21
-4.57412
0
LINE
8
BLACK
6
CONTINUOUS
10
5.75548
20
-4.57412
11
5.75923
21
-4.58912
0
LINE
8
BLACK
6
CONTINUOUS
10
5.75923
20
-4.58912
11
5.75923
21
-4.60787
0
LINE
8
BLACK
6
CONTINUOUS
10
5.75923
20
-4.60787
11
5.75548
21
-4.62287
0
LINE
8
BLACK
6
CONTINUOUS
10
5.75548
20
-4.62287
11
5.75173
21
-4.63037
0
LINE
8
BLACK
6
CONTINUOUS
10
5.75173
20
-4.63037
11
5.74798
21
-4.63412
0
LINE
8
BLACK
6
CONTINUOUS
10
5.74798
20
-4.63412
11
5.74048
21
-4.63786
0
LINE
8
BLACK
6
CONTINUOUS
10
5.74048
20
-4.63786
11
5.73298
21
-4.63786
0
LINE
8
BLACK
6
CONTINUOUS
10
5.73298
20
-4.63786
11
5.72549
21
-4.63412
0
LINE
8
BLACK
6
CONTINUOUS
10
5.72549
20
-4.63412
11
5.72174
21
-4.63037
0
LINE
8
BLACK
6
CONTINUOUS
10
5.72174
20
-4.63037
11
5.71799
21
-4.62287
0
LINE
8
BLACK
6
CONTINUOUS
10
5.71799
20
-4.62287
11
5.71424
21
-4.60787
0
LINE
8
BLACK
6
CONTINUOUS
10
5.71424
20
-4.60787
11
5.71424
21
-4.58912
0
LINE
8
BLACK
6
CONTINUOUS
10
5.71424
20
-4.58912
11
5.71799
21
-4.57412
0
LINE
8
BLACK
6
CONTINUOUS
10
5.71799
20
-4.57412
11
5.72174
21
-4.56662
0
LINE
8
BLACK
6
CONTINUOUS
10
5.72174
20
-4.56662
11
5.72549
21
-4.56287
0
LINE
8
BLACK
6
CONTINUOUS
10
5.72549
20
-4.56287
11
5.73298
21
-4.55912
0
LINE
8
BLACK
6
CONTINUOUS
10
5.79298
20
-4.63786
11
5.79298
21
-4.58537
0
LINE
8
BLACK
6
CONTINUOUS
10
5.79298
20
-4.59287
11
5.79673
21
-4.58912
0
LINE
8
BLACK
6
CONTINUOUS
10
5.79673
20
-4.58912
11
5.80423
21
-4.58537
0
LINE
8
BLACK
6
CONTINUOUS
10
5.80423
20
-4.58537
11
5.81547
21
-4.58537
0
LINE
8
BLACK
6
CONTINUOUS
10
5.81547
20
-4.58537
11
5.82297
21
-4.58912
0
LINE
8
BLACK
6
CONTINUOUS
10
5.82297
20
-4.58912
11
5.82672
21
-4.59662
0
LINE
8
BLACK
6
CONTINUOUS
10
5.82672
20
-4.59662
11
5.82672
21
-4.63786
0
LINE
8
BLACK
6
CONTINUOUS
10
5.82672
20
-4.59662
11
5.83047
21
-4.58912
0
LINE
8
BLACK
6
CONTINUOUS
10
5.83047
20
-4.58912
11
5.83797
21
-4.58537
0
LINE
8
BLACK
6
CONTINUOUS
10
5.83797
20
-4.58537
11
5.84922
21
-4.58537
0
LINE
8
BLACK
6
CONTINUOUS
10
5.84922
20
-4.58537
11
5.85672
21
-4.58912
0
LINE
8
BLACK
6
CONTINUOUS
10
5.85672
20
-4.58912
11
5.86047
21
-4.59662
0
LINE
8
BLACK
6
CONTINUOUS
10
5.86047
20
-4.59662
11
5.86047
21
-4.63786
0
LINE
8
BLACK
6
CONTINUOUS
10
5.89796
20
-4.63786
11
5.89796
21
-4.58537
0
LINE
8
BLACK
6
CONTINUOUS
10
5.89796
20
-4.59287
11
5.90171
21
-4.58912
0
LINE
8
BLACK
6
CONTINUOUS
10
5.90171
20
-4.58912
11
5.90921
21
-4.58537
0
LINE
8
BLACK
6
CONTINUOUS
10
5.90921
20
-4.58537
11
5.92046
21
-4.58537
0
LINE
8
BLACK
6
CONTINUOUS
10
5.92046
20
-4.58537
11
5.92796
21
-4.58912
0
LINE
8
BLACK
6
CONTINUOUS
10
5.92796
20
-4.58912
11
5.93171
21
-4.59662
0
LINE
8
BLACK
6
CONTINUOUS
10
5.93171
20
-4.59662
11
5.93171
21
-4.63786
0
LINE
8
BLACK
6
CONTINUOUS
10
5.93171
20
-4.59662
11
5.93546
21
-4.58912
0
LINE
8
BLACK
6
CONTINUOUS
10
5.93546
20
-4.58912
11
5.94296
21
-4.58537
0
LINE
8
BLACK
6
CONTINUOUS
10
5.94296
20
-4.58537
11
5.95421
21
-4.58537
0
LINE
8
BLACK
6
CONTINUOUS
10
5.95421
20
-4.58537
11
5.96171
21
-4.58912
0
LINE
8
BLACK
6
CONTINUOUS
10
5.96171
20
-4.58912
11
5.96546
21
-4.59662
0
LINE
8
BLACK
6
CONTINUOUS
10
5.96546
20
-4.59662
11
5.96546
21
-4.63786
0
LINE
8
BLACK
6
CONTINUOUS
10
6.10644
20
-4.55537
11
6.03895
21
-4.65661
0
LINE
8
BLACK
6
CONTINUOUS
10
6.19493
20
-4.55912
11
6.20243
21
-4.55912
0
LINE
8
BLACK
6
CONTINUOUS
10
6.20243
20
-4.55912
11
6.20993
21
-4.56287
0
LINE
8
BLACK
6
CONTINUOUS
10
6.20993
20
-4.56287
11
6.21367
21
-4.56662
0
LINE
8
BLACK
6
CONTINUOUS
10
6.21367
20
-4.56662
11
6.21742
21
-4.57412
0
LINE
8
BLACK
6
CONTINUOUS
10
6.21742
20
-4.57412
11
6.22117
21
-4.58912
0
LINE
8
BLACK
6
CONTINUOUS
10
6.22117
20
-4.58912
11
6.22117
21
-4.60787
0
LINE
8
BLACK
6
CONTINUOUS
10
6.22117
20
-4.60787
11
6.21742
21
-4.62287
0
LINE
8
BLACK
6
CONTINUOUS
10
6.21742
20
-4.62287
11
6.21367
21
-4.63037
0
LINE
8
BLACK
6
CONTINUOUS
10
6.21367
20
-4.63037
11
6.20993
21
-4.63412
0
LINE
8
BLACK
6
CONTINUOUS
10
6.20993
20
-4.63412
11
6.20243
21
-4.63786
0
LINE
8
BLACK
6
CONTINUOUS
10
6.20243
20
-4.63786
11
6.19493
21
-4.63786
0
LINE
8
BLACK
6
CONTINUOUS
10
6.19493
20
-4.63786
11
6.18743
21
-4.63412
0
LINE
8
BLACK
6
CONTINUOUS
10
6.18743
20
-4.63412
11
6.18368
21
-4.63037
0
LINE
8
BLACK
6
CONTINUOUS
10
6.18368
20
-4.63037
11
6.17993
21
-4.62287
0
LINE
8
BLACK
6
CONTINUOUS
10
6.17993
20
-4.62287
11
6.17618
21
-4.60787
0
LINE
8
BLACK
6
CONTINUOUS
10
6.17618
20
-4.60787
11
6.17618
21
-4.58912
0
LINE
8
BLACK
6
CONTINUOUS
10
6.17618
20
-4.58912
11
6.17993
21
-4.57412
0
LINE
8
BLACK
6
CONTINUOUS
10
6.17993
20
-4.57412
11
6.18368
21
-4.56662
0
LINE
8
BLACK
6
CONTINUOUS
10
6.18368
20
-4.56662
11
6.18743
21
-4.56287
0
LINE
8
BLACK
6
CONTINUOUS
10
6.18743
20
-4.56287
11
6.19493
21
-4.55912
0
LINE
8
BLACK
6
CONTINUOUS
10
6.25492
20
-4.63037
11
6.25867
21
-4.63412
0
LINE
8
BLACK
6
CONTINUOUS
10
6.25867
20
-4.63412
11
6.25492
21
-4.63786
0
LINE
8
BLACK
6
CONTINUOUS
10
6.25492
20
-4.63786
11
6.25117
21
-4.63412
0
LINE
8
BLACK
6
CONTINUOUS
10
6.25117
20
-4.63412
11
6.25492
21
-4.63037
0
LINE
8
BLACK
6
CONTINUOUS
10
6.25492
20
-4.63037
11
6.25492
21
-4.63786
0
LINE
8
BLACK
6
CONTINUOUS
10
6.30741
20
-4.55912
11
6.31491
21
-4.55912
0
LINE
8
BLACK
6
CONTINUOUS
10
6.31491
20
-4.55912
11
6.32241
21
-4.56287
0
LINE
8
BLACK
6
CONTINUOUS
10
6.32241
20
-4.56287
11
6.32616
21
-4.56662
0
LINE
8
BLACK
6
CONTINUOUS
10
6.32616
20
-4.56662
11
6.32991
21
-4.57412
0
LINE
8
BLACK
6
CONTINUOUS
10
6.32991
20
-4.57412
11
6.33366
21
-4.58912
0
LINE
8
BLACK
6
CONTINUOUS
10
6.33366
20
-4.58912
11
6.33366
21
-4.60787
0
LINE
8
BLACK
6
CONTINUOUS
10
6.33366
20
-4.60787
11
6.32991
21
-4.62287
0
LINE
8
BLACK
6
CONTINUOUS
10
6.32991
20
-4.62287
11
6.32616
21
-4.63037
0
LINE
8
BLACK
6
CONTINUOUS
10
6.32616
20
-4.63037
11
6.32241
21
-4.63412
0
LINE
8
BLACK
6
CONTINUOUS
10
6.32241
20
-4.63412
11
6.31491
21
-4.63786
0
LINE
8
BLACK
6
CONTINUOUS
10
6.31491
20
-4.63786
11
6.30741
21
-4.63786
0
LINE
8
BLACK
6
CONTINUOUS
10
6.30741
20
-4.63786
11
6.29991
21
-4.63412
0
LINE
8
BLACK
6
CONTINUOUS
10
6.29991
20
-4.63412
11
6.29616
21
-4.63037
0
LINE
8
BLACK
6
CONTINUOUS
10
6.29616
20
-4.63037
11
6.29241
21
-4.62287
0
LINE
8
BLACK
6
CONTINUOUS
10
6.29241
20
-4.62287
11
6.28867
21
-4.60787
0
LINE
8
BLACK
6
CONTINUOUS
10
6.28867
20
-4.60787
11
6.28867
21
-4.58912
0
LINE
8
BLACK
6
CONTINUOUS
10
6.28867
20
-4.58912
11
6.29241
21
-4.57412
0
LINE
8
BLACK
6
CONTINUOUS
10
6.29241
20
-4.57412
11
6.29616
21
-4.56662
0
LINE
8
BLACK
6
CONTINUOUS
10
6.29616
20
-4.56662
11
6.29991
21
-4.56287
0
LINE
8
BLACK
6
CONTINUOUS
10
6.29991
20
-4.56287
11
6.30741
21
-4.55912
0
LINE
8
BLACK
6
CONTINUOUS
10
6.36366
20
-4.56662
11
6.36741
21
-4.56287
0
LINE
8
BLACK
6
CONTINUOUS
10
6.36741
20
-4.56287
11
6.3749
21
-4.55912
0
LINE
8
BLACK
6
CONTINUOUS
10
6.3749
20
-4.55912
11
6.39365
21
-4.55912
0
LINE
8
BLACK
6
CONTINUOUS
10
6.39365
20
-4.55912
11
6.40115
21
-4.56287
0
LINE
8
BLACK
6
CONTINUOUS
10
6.40115
20
-4.56287
11
6.4049
21
-4.56662
0
LINE
8
BLACK
6
CONTINUOUS
10
6.4049
20
-4.56662
11
6.40865
21
-4.57412
0
LINE
8
BLACK
6
CONTINUOUS
10
6.40865
20
-4.57412
11
6.40865
21
-4.58162
0
LINE
8
BLACK
6
CONTINUOUS
10
6.40865
20
-4.58162
11
6.4049
21
-4.59287
0
LINE
8
BLACK
6
CONTINUOUS
10
6.4049
20
-4.59287
11
6.35991
21
-4.63786
0
LINE
8
BLACK
6
CONTINUOUS
10
6.35991
20
-4.63786
11
6.40865
21
-4.63786
0
LINE
8
BLACK
6
CONTINUOUS
10
6.4349
20
-4.55912
11
6.48739
21
-4.55912
0
LINE
8
BLACK
6
CONTINUOUS
10
6.48739
20
-4.55912
11
6.45364
21
-4.63786
0
LINE
8
BLACK
6
CONTINUOUS
10
6.55113
20
-4.55912
11
6.53613
21
-4.55912
0
LINE
8
BLACK
6
CONTINUOUS
10
6.53613
20
-4.55912
11
6.52864
21
-4.56287
0
LINE
8
BLACK
6
CONTINUOUS
10
6.52864
20
-4.56287
11
6.52489
21
-4.56662
0
LINE
8
BLACK
6
CONTINUOUS
10
6.52489
20
-4.56662
11
6.51739
21
-4.57787
0
LINE
8
BLACK
6
CONTINUOUS
10
6.51739
20
-4.57787
11
6.51364
21
-4.59287
0
LINE
8
BLACK
6
CONTINUOUS
10
6.51364
20
-4.59287
11
6.51364
21
-4.62287
0
LINE
8
BLACK
6
CONTINUOUS
10
6.51364
20
-4.62287
11
6.51739
21
-4.63037
0
LINE
8
BLACK
6
CONTINUOUS
10
6.51739
20
-4.63037
11
6.52114
21
-4.63412
0
LINE
8
BLACK
6
CONTINUOUS
10
6.52114
20
-4.63412
11
6.52864
21
-4.63786
0
LINE
8
BLACK
6
CONTINUOUS
10
6.52864
20
-4.63786
11
6.54363
21
-4.63786
0
LINE
8
BLACK
6
CONTINUOUS
10
6.54363
20
-4.63786
11
6.55113
21
-4.63412
0
LINE
8
BLACK
6
CONTINUOUS
10
6.55113
20
-4.63412
11
6.55488
21
-4.63037
0
LINE
8
BLACK
6
CONTINUOUS
10
6.55488
20
-4.63037
11
6.55863
21
-4.62287
0
LINE
8
BLACK
6
CONTINUOUS
10
6.55863
20
-4.62287
11
6.55863
21
-4.60412
0
LINE
8
BLACK
6
CONTINUOUS
10
6.55863
20
-4.60412
11
6.55488
21
-4.59662
0
LINE
8
BLACK
6
CONTINUOUS
10
6.55488
20
-4.59662
11
6.55113
21
-4.59287
0
LINE
8
BLACK
6
CONTINUOUS
10
6.55113
20
-4.59287
11
6.54363
21
-4.58912
0
LINE
8
BLACK
6
CONTINUOUS
10
6.54363
20
-4.58912
11
6.52864
21
-4.58912
0
LINE
8
BLACK
6
CONTINUOUS
10
6.52864
20
-4.58912
11
6.52114
21
-4.59287
0
LINE
8
BLACK
6
CONTINUOUS
10
6.52114
20
-4.59287
11
6.51739
21
-4.59662
0
LINE
8
BLACK
6
CONTINUOUS
10
6.51739
20
-4.59662
11
6.51364
21
-4.60412
0
LINE
8
BLACK
6
CONTINUOUS
10
6.58863
20
-4.55912
11
6.58863
21
-4.57412
0
LINE
8
BLACK
6
CONTINUOUS
10
6.61862
20
-4.55912
11
6.61862
21
-4.57412
0
LINE
8
BLACK
6
CONTINUOUS
10
6.72211
20
-4.66786
11
6.71836
21
-4.66411
0
LINE
8
BLACK
6
CONTINUOUS
10
6.71836
20
-4.66411
11
6.71086
21
-4.65286
0
LINE
8
BLACK
6
CONTINUOUS
10
6.71086
20
-4.65286
11
6.70711
21
-4.64536
0
LINE
8
BLACK
6
CONTINUOUS
10
6.70711
20
-4.64536
11
6.70336
21
-4.63412
0
LINE
8
BLACK
6
CONTINUOUS
10
6.70336
20
-4.63412
11
6.69961
21
-4.61537
0
LINE
8
BLACK
6
CONTINUOUS
10
6.69961
20
-4.61537
11
6.69961
21
-4.60037
0
LINE
8
BLACK
6
CONTINUOUS
10
6.69961
20
-4.60037
11
6.70336
21
-4.58162
0
LINE
8
BLACK
6
CONTINUOUS
10
6.70336
20
-4.58162
11
6.70711
21
-4.57037
0
LINE
8
BLACK
6
CONTINUOUS
10
6.70711
20
-4.57037
11
6.71086
21
-4.56287
0
LINE
8
BLACK
6
CONTINUOUS
10
6.71086
20
-4.56287
11
6.71836
21
-4.55163
0
LINE
8
BLACK
6
CONTINUOUS
10
6.71836
20
-4.55163
11
6.72211
21
-4.54788
0
LINE
8
BLACK
6
CONTINUOUS
10
6.79335
20
-4.63786
11
6.74836
21
-4.63786
0
LINE
8
BLACK
6
CONTINUOUS
10
6.77085
20
-4.63786
11
6.77085
21
-4.55912
0
LINE
8
BLACK
6
CONTINUOUS
10
6.77085
20
-4.55912
11
6.76336
21
-4.57037
0
LINE
8
BLACK
6
CONTINUOUS
10
6.76336
20
-4.57037
11
6.75586
21
-4.57787
0
LINE
8
BLACK
6
CONTINUOUS
10
6.75586
20
-4.57787
11
6.74836
21
-4.58162
0
LINE
8
BLACK
6
CONTINUOUS
10
6.82335
20
-4.56662
11
6.8271
21
-4.56287
0
LINE
8
BLACK
6
CONTINUOUS
10
6.8271
20
-4.56287
11
6.8346
21
-4.55912
0
LINE
8
BLACK
6
CONTINUOUS
10
6.8346
20
-4.55912
11
6.85334
21
-4.55912
0
LINE
8
BLACK
6
CONTINUOUS
10
6.85334
20
-4.55912
11
6.86084
21
-4.56287
0
LINE
8
BLACK
6
CONTINUOUS
10
6.86084
20
-4.56287
11
6.86459
21
-4.56662
0
LINE
8
BLACK
6
CONTINUOUS
10
6.86459
20
-4.56662
11
6.86834
21
-4.57412
0
LINE
8
BLACK
6
CONTINUOUS
10
6.86834
20
-4.57412
11
6.86834
21
-4.58162
0
LINE
8
BLACK
6
CONTINUOUS
10
6.86834
20
-4.58162
11
6.86459
21
-4.59287
0
LINE
8
BLACK
6
CONTINUOUS
10
6.86459
20
-4.59287
11
6.8196
21
-4.63786
0
LINE
8
BLACK
6
CONTINUOUS
10
6.8196
20
-4.63786
11
6.86834
21
-4.63786
0
LINE
8
BLACK
6
CONTINUOUS
10
6.94933
20
-4.63786
11
6.94933
21
-4.55912
0
LINE
8
BLACK
6
CONTINUOUS
10
6.98308
20
-4.63786
11
6.98308
21
-4.59662
0
LINE
8
BLACK
6
CONTINUOUS
10
6.98308
20
-4.59662
11
6.97933
21
-4.58912
0
LINE
8
BLACK
6
CONTINUOUS
10
6.97933
20
-4.58912
11
6.97183
21
-4.58537
0
LINE
8
BLACK
6
CONTINUOUS
10
6.97183
20
-4.58537
11
6.96058
21
-4.58537
0
LINE
8
BLACK
6
CONTINUOUS
10
6.96058
20
-4.58537
11
6.95308
21
-4.58912
0
LINE
8
BLACK
6
CONTINUOUS
10
6.95308
20
-4.58912
11
6.94933
21
-4.59287
0
LINE
8
BLACK
6
CONTINUOUS
10
7.03182
20
-4.63786
11
7.02432
21
-4.63412
0
LINE
8
BLACK
6
CONTINUOUS
10
7.02432
20
-4.63412
11
7.02057
21
-4.63037
0
LINE
8
BLACK
6
CONTINUOUS
10
7.02057
20
-4.63037
11
7.01682
21
-4.62287
0
LINE
8
BLACK
6
CONTINUOUS
10
7.01682
20
-4.62287
11
7.01682
21
-4.60037
0
LINE
8
BLACK
6
CONTINUOUS
10
7.01682
20
-4.60037
11
7.02057
21
-4.59287
0
LINE
8
BLACK
6
CONTINUOUS
10
7.02057
20
-4.59287
11
7.02432
21
-4.58912
0
LINE
8
BLACK
6
CONTINUOUS
10
7.02432
20
-4.58912
11
7.03182
21
-4.58537
0
LINE
8
BLACK
6
CONTINUOUS
10
7.03182
20
-4.58537
11
7.04307
21
-4.58537
0
LINE
8
BLACK
6
CONTINUOUS
10
7.04307
20
-4.58537
11
7.05057
21
-4.58912
0
LINE
8
BLACK
6
CONTINUOUS
10
7.05057
20
-4.58912
11
7.05432
21
-4.59287
0
LINE
8
BLACK
6
CONTINUOUS
10
7.05432
20
-4.59287
11
7.05807
21
-4.60037
0
LINE
8
BLACK
6
CONTINUOUS
10
7.05807
20
-4.60037
11
7.05807
21
-4.62287
0
LINE
8
BLACK
6
CONTINUOUS
10
7.05807
20
-4.62287
11
7.05432
21
-4.63037
0
LINE
8
BLACK
6
CONTINUOUS
10
7.05432
20
-4.63037
11
7.05057
21
-4.63412
0
LINE
8
BLACK
6
CONTINUOUS
10
7.05057
20
-4.63412
11
7.04307
21
-4.63786
0
LINE
8
BLACK
6
CONTINUOUS
10
7.04307
20
-4.63786
11
7.03182
21
-4.63786
0
LINE
8
BLACK
6
CONTINUOUS
10
7.10306
20
-4.63786
11
7.09556
21
-4.63412
0
LINE
8
BLACK
6
CONTINUOUS
10
7.09556
20
-4.63412
11
7.09181
21
-4.62662
0
LINE
8
BLACK
6
CONTINUOUS
10
7.09181
20
-4.62662
11
7.09181
21
-4.55912
0
LINE
8
BLACK
6
CONTINUOUS
10
7.16306
20
-4.63412
11
7.15556
21
-4.63786
0
LINE
8
BLACK
6
CONTINUOUS
10
7.15556
20
-4.63786
11
7.14056
21
-4.63786
0
LINE
8
BLACK
6
CONTINUOUS
10
7.14056
20
-4.63786
11
7.13306
21
-4.63412
0
LINE
8
BLACK
6
CONTINUOUS
10
7.13306
20
-4.63412
11
7.12931
21
-4.62662
0
LINE
8
BLACK
6
CONTINUOUS
10
7.12931
20
-4.62662
11
7.12931
21
-4.59662
0
LINE
8
BLACK
6
CONTINUOUS
10
7.12931
20
-4.59662
11
7.13306
21
-4.58912
0
LINE
8
BLACK
6
CONTINUOUS
10
7.13306
20
-4.58912
11
7.14056
21
-4.58537
0
LINE
8
BLACK
6
CONTINUOUS
10
7.14056
20
-4.58537
11
7.15556
21
-4.58537
0
LINE
8
BLACK
6
CONTINUOUS
10
7.15556
20
-4.58537
11
7.16306
21
-4.58912
0
LINE
8
BLACK
6
CONTINUOUS
10
7.16306
20
-4.58912
11
7.16681
21
-4.59662
0
LINE
8
BLACK
6
CONTINUOUS
10
7.16681
20
-4.59662
11
7.16681
21
-4.60412
0
LINE
8
BLACK
6
CONTINUOUS
10
7.16681
20
-4.60412
11
7.12931
21
-4.61162
0
LINE
8
BLACK
6
CONTINUOUS
10
7.1968
20
-4.63412
11
7.2043
21
-4.63786
0
LINE
8
BLACK
6
CONTINUOUS
10
7.2043
20
-4.63786
11
7.2193
21
-4.63786
0
LINE
8
BLACK
6
CONTINUOUS
10
7.2193
20
-4.63786
11
7.2268
21
-4.63412
0
LINE
8
BLACK
6
CONTINUOUS
10
7.2268
20
-4.63412
11
7.23055
21
-4.62662
0
LINE
8
BLACK
6
CONTINUOUS
10
7.23055
20
-4.62662
11
7.23055
21
-4.62287
0
LINE
8
BLACK
6
CONTINUOUS
10
7.23055
20
-4.62287
11
7.2268
21
-4.61537
0
LINE
8
BLACK
6
CONTINUOUS
10
7.2268
20
-4.61537
11
7.2193
21
-4.61162
0
LINE
8
BLACK
6
CONTINUOUS
10
7.2193
20
-4.61162
11
7.20805
21
-4.61162
0
LINE
8
BLACK
6
CONTINUOUS
10
7.20805
20
-4.61162
11
7.20055
21
-4.60787
0
LINE
8
BLACK
6
CONTINUOUS
10
7.20055
20
-4.60787
11
7.1968
21
-4.60037
0
LINE
8
BLACK
6
CONTINUOUS
10
7.1968
20
-4.60037
11
7.1968
21
-4.59662
0
LINE
8
BLACK
6
CONTINUOUS
10
7.1968
20
-4.59662
11
7.20055
21
-4.58912
0
LINE
8
BLACK
6
CONTINUOUS
10
7.20055
20
-4.58912
11
7.20805
21
-4.58537
0
LINE
8
BLACK
6
CONTINUOUS
10
7.20805
20
-4.58537
11
7.2193
21
-4.58537
0
LINE
8
BLACK
6
CONTINUOUS
10
7.2193
20
-4.58537
11
7.2268
21
-4.58912
0
LINE
8
BLACK
6
CONTINUOUS
10
7.25679
20
-4.66786
11
7.26054
21
-4.66411
0
LINE
8
BLACK
6
CONTINUOUS
10
7.26054
20
-4.66411
11
7.26804
21
-4.65286
0
LINE
8
BLACK
6
CONTINUOUS
10
7.26804
20
-4.65286
11
7.27179
21
-4.64536
0
LINE
8
BLACK
6
CONTINUOUS
10
7.27179
20
-4.64536
11
7.27554
21
-4.63412
0
LINE
8
BLACK
6
CONTINUOUS
10
7.27554
20
-4.63412
11
7.27929
21
-4.61537
0
LINE
8
BLACK
6
CONTINUOUS
10
7.27929
20
-4.61537
11
7.27929
21
-4.60037
0
LINE
8
BLACK
6
CONTINUOUS
10
7.27929
20
-4.60037
11
7.27554
21
-4.58162
0
LINE
8
BLACK
6
CONTINUOUS
10
7.27554
20
-4.58162
11
7.27179
21
-4.57037
0
LINE
8
BLACK
6
CONTINUOUS
10
7.27179
20
-4.57037
11
7.26804
21
-4.56287
0
LINE
8
BLACK
6
CONTINUOUS
10
7.26804
20
-4.56287
11
7.26054
21
-4.55163
0
LINE
8
BLACK
6
CONTINUOUS
10
7.26054
20
-4.55163
11
7.25679
21
-4.54788
0
CIRCLE
8
BLACK
10
5.34303
20
-4.71287
40
0.015
0
LINE
8
BLACK
6
CONTINUOUS
10
5.47052
20
-4.66306
11
5.47802
21
-4.66306
0
LINE
8
BLACK
6
CONTINUOUS
10
5.47802
20
-4.66306
11
5.48552
21
-4.66681
0
LINE
8
BLACK
6
CONTINUOUS
10
5.48552
20
-4.66681
11
5.48927
21
-4.67056
0
LINE
8
BLACK
6
CONTINUOUS
10
5.48927
20
-4.67056
11
5.49301
21
-4.67806
0
LINE
8
BLACK
6
CONTINUOUS
10
5.49301
20
-4.67806
11
5.49676
21
-4.69306
0
LINE
8
BLACK
6
CONTINUOUS
10
5.49676
20
-4.69306
11
5.49676
21
-4.71181
0
LINE
8
BLACK
6
CONTINUOUS
10
5.49676
20
-4.71181
11
5.49301
21
-4.7268
0
LINE
8
BLACK
6
CONTINUOUS
10
5.49301
20
-4.7268
11
5.48927
21
-4.7343
0
LINE
8
BLACK
6
CONTINUOUS
10
5.48927
20
-4.7343
11
5.48552
21
-4.73805
0
LINE
8
BLACK
6
CONTINUOUS
10
5.48552
20
-4.73805
11
5.47802
21
-4.7418
0
LINE
8
BLACK
6
CONTINUOUS
10
5.47802
20
-4.7418
11
5.47052
21
-4.7418
0
LINE
8
BLACK
6
CONTINUOUS
10
5.47052
20
-4.7418
11
5.46302
21
-4.73805
0
LINE
8
BLACK
6
CONTINUOUS
10
5.46302
20
-4.73805
11
5.45927
21
-4.7343
0
LINE
8
BLACK
6
CONTINUOUS
10
5.45927
20
-4.7343
11
5.45552
21
-4.7268
0
LINE
8
BLACK
6
CONTINUOUS
10
5.45552
20
-4.7268
11
5.45177
21
-4.71181
0
LINE
8
BLACK
6
CONTINUOUS
10
5.45177
20
-4.71181
11
5.45177
21
-4.69306
0
LINE
8
BLACK
6
CONTINUOUS
10
5.45177
20
-4.69306
11
5.45552
21
-4.67806
0
LINE
8
BLACK
6
CONTINUOUS
10
5.45552
20
-4.67806
11
5.45927
21
-4.67056
0
LINE
8
BLACK
6
CONTINUOUS
10
5.45927
20
-4.67056
11
5.46302
21
-4.66681
0
LINE
8
BLACK
6
CONTINUOUS
10
5.46302
20
-4.66681
11
5.47052
21
-4.66306
0
LINE
8
BLACK
6
CONTINUOUS
10
5.53051
20
-4.7343
11
5.53426
21
-4.73805
0
LINE
8
BLACK
6
CONTINUOUS
10
5.53426
20
-4.73805
11
5.53051
21
-4.7418
0
LINE
8
BLACK
6
CONTINUOUS
10
5.53051
20
-4.7418
11
5.52676
21
-4.73805
0
LINE
8
BLACK
6
CONTINUOUS
10
5.52676
20
-4.73805
11
5.53051
21
-4.7343
0
LINE
8
BLACK
6
CONTINUOUS
10
5.53051
20
-4.7343
11
5.53051
21
-4.7418
0
LINE
8
BLACK
6
CONTINUOUS
10
5.56051
20
-4.66306
11
5.613
21
-4.66306
0
LINE
8
BLACK
6
CONTINUOUS
10
5.613
20
-4.66306
11
5.57925
21
-4.7418
0
LINE
8
BLACK
6
CONTINUOUS
10
5.67674
20
-4.66306
11
5.66174
21
-4.66306
0
LINE
8
BLACK
6
CONTINUOUS
10
5.66174
20
-4.66306
11
5.65424
21
-4.66681
0
LINE
8
BLACK
6
CONTINUOUS
10
5.65424
20
-4.66681
11
5.65049
21
-4.67056
0
LINE
8
BLACK
6
CONTINUOUS
10
5.65049
20
-4.67056
11
5.643
21
-4.68181
0
LINE
8
BLACK
6
CONTINUOUS
10
5.643
20
-4.68181
11
5.63925
21
-4.69681
0
LINE
8
BLACK
6
CONTINUOUS
10
5.63925
20
-4.69681
11
5.63925
21
-4.7268
0
LINE
8
BLACK
6
CONTINUOUS
10
5.63925
20
-4.7268
11
5.643
21
-4.7343
0
LINE
8
BLACK
6
CONTINUOUS
10
5.643
20
-4.7343
11
5.64675
21
-4.73805
0
LINE
8
BLACK
6
CONTINUOUS
10
5.64675
20
-4.73805
11
5.65424
21
-4.7418
0
LINE
8
BLACK
6
CONTINUOUS
10
5.65424
20
-4.7418
11
5.66924
21
-4.7418
0
LINE
8
BLACK
6
CONTINUOUS
10
5.66924
20
-4.7418
11
5.67674
21
-4.73805
0
LINE
8
BLACK
6
CONTINUOUS
10
5.67674
20
-4.73805
11
5.68049
21
-4.7343
0
LINE
8
BLACK
6
CONTINUOUS
10
5.68049
20
-4.7343
11
5.68424
21
-4.7268
0
LINE
8
BLACK
6
CONTINUOUS
10
5.68424
20
-4.7268
11
5.68424
21
-4.70806
0
LINE
8
BLACK
6
CONTINUOUS
10
5.68424
20
-4.70806
11
5.68049
21
-4.70056
0
LINE
8
BLACK
6
CONTINUOUS
10
5.68049
20
-4.70056
11
5.67674
21
-4.69681
0
LINE
8
BLACK
6
CONTINUOUS
10
5.67674
20
-4.69681
11
5.66924
21
-4.69306
0
LINE
8
BLACK
6
CONTINUOUS
10
5.66924
20
-4.69306
11
5.65424
21
-4.69306
0
LINE
8
BLACK
6
CONTINUOUS
10
5.65424
20
-4.69306
11
5.64675
21
-4.69681
0
LINE
8
BLACK
6
CONTINUOUS
10
5.64675
20
-4.69681
11
5.643
21
-4.70056
0
LINE
8
BLACK
6
CONTINUOUS
10
5.643
20
-4.70056
11
5.63925
21
-4.70806
0
LINE
8
BLACK
6
CONTINUOUS
10
5.71424
20
-4.67056
11
5.71799
21
-4.66681
0
LINE
8
BLACK
6
CONTINUOUS
10
5.71799
20
-4.66681
11
5.72549
21
-4.66306
0
LINE
8
BLACK
6
CONTINUOUS
10
5.72549
20
-4.66306
11
5.74423
21
-4.66306
0
LINE
8
BLACK
6
CONTINUOUS
10
5.74423
20
-4.66306
11
5.75173
21
-4.66681
0
LINE
8
BLACK
6
CONTINUOUS
10
5.75173
20
-4.66681
11
5.75548
21
-4.67056
0
LINE
8
BLACK
6
CONTINUOUS
10
5.75548
20
-4.67056
11
5.75923
21
-4.67806
0
LINE
8
BLACK
6
CONTINUOUS
10
5.75923
20
-4.67806
11
5.75923
21
-4.68556
0
LINE
8
BLACK
6
CONTINUOUS
10
5.75923
20
-4.68556
11
5.75548
21
-4.69681
0
LINE
8
BLACK
6
CONTINUOUS
10
5.75548
20
-4.69681
11
5.71049
21
-4.7418
0
LINE
8
BLACK
6
CONTINUOUS
10
5.71049
20
-4.7418
11
5.75923
21
-4.7418
0
LINE
8
BLACK
6
CONTINUOUS
10
5.79298
20
-4.7418
11
5.79298
21
-4.68931
0
LINE
8
BLACK
6
CONTINUOUS
10
5.79298
20
-4.69681
11
5.79673
21
-4.69306
0
LINE
8
BLACK
6
CONTINUOUS
10
5.79673
20
-4.69306
11
5.80423
21
-4.68931
0
LINE
8
BLACK
6
CONTINUOUS
10
5.80423
20
-4.68931
11
5.81547
21
-4.68931
0
LINE
8
BLACK
6
CONTINUOUS
10
5.81547
20
-4.68931
11
5.82297
21
-4.69306
0
LINE
8
BLACK
6
CONTINUOUS
10
5.82297
20
-4.69306
11
5.82672
21
-4.70056
0
LINE
8
BLACK
6
CONTINUOUS
10
5.82672
20
-4.70056
11
5.82672
21
-4.7418
0
LINE
8
BLACK
6
CONTINUOUS
10
5.82672
20
-4.70056
11
5.83047
21
-4.69306
0
LINE
8
BLACK
6
CONTINUOUS
10
5.83047
20
-4.69306
11
5.83797
21
-4.68931
0
LINE
8
BLACK
6
CONTINUOUS
10
5.83797
20
-4.68931
11
5.84922
21
-4.68931
0
LINE
8
BLACK
6
CONTINUOUS
10
5.84922
20
-4.68931
11
5.85672
21
-4.69306
0
LINE
8
BLACK
6
CONTINUOUS
10
5.85672
20
-4.69306
11
5.86047
21
-4.70056
0
LINE
8
BLACK
6
CONTINUOUS
10
5.86047
20
-4.70056
11
5.86047
21
-4.7418
0
LINE
8
BLACK
6
CONTINUOUS
10
5.89796
20
-4.7418
11
5.89796
21
-4.68931
0
LINE
8
BLACK
6
CONTINUOUS
10
5.89796
20
-4.69681
11
5.90171
21
-4.69306
0
LINE
8
BLACK
6
CONTINUOUS
10
5.90171
20
-4.69306
11
5.90921
21
-4.68931
0
LINE
8
BLACK
6
CONTINUOUS
10
5.90921
20
-4.68931
11
5.92046
21
-4.68931
0
LINE
8
BLACK
6
CONTINUOUS
10
5.92046
20
-4.68931
11
5.92796
21
-4.69306
0
LINE
8
BLACK
6
CONTINUOUS
10
5.92796
20
-4.69306
11
5.93171
21
-4.70056
0
LINE
8
BLACK
6
CONTINUOUS
10
5.93171
20
-4.70056
11
5.93171
21
-4.7418
0
LINE
8
BLACK
6
CONTINUOUS
10
5.93171
20
-4.70056
11
5.93546
21
-4.69306
0
LINE
8
BLACK
6
CONTINUOUS
10
5.93546
20
-4.69306
11
5.94296
21
-4.68931
0
LINE
8
BLACK
6
CONTINUOUS
10
5.94296
20
-4.68931
11
5.95421
21
-4.68931
0
LINE
8
BLACK
6
CONTINUOUS
10
5.95421
20
-4.68931
11
5.96171
21
-4.69306
0
LINE
8
BLACK
6
CONTINUOUS
10
5.96171
20
-4.69306
11
5.96546
21
-4.70056
0
LINE
8
BLACK
6
CONTINUOUS
10
5.96546
20
-4.70056
11
5.96546
21
-4.7418
0
LINE
8
BLACK
6
CONTINUOUS
10
6.10644
20
-4.65931
11
6.03895
21
-4.76055
0
LINE
8
BLACK
6
CONTINUOUS
10
6.19493
20
-4.66306
11
6.20243
21
-4.66306
0
LINE
8
BLACK
6
CONTINUOUS
10
6.20243
20
-4.66306
11
6.20993
21
-4.66681
0
LINE
8
BLACK
6
CONTINUOUS
10
6.20993
20
-4.66681
11
6.21367
21
-4.67056
0
LINE
8
BLACK
6
CONTINUOUS
10
6.21367
20
-4.67056
11
6.21742
21
-4.67806
0
LINE
8
BLACK
6
CONTINUOUS
10
6.21742
20
-4.67806
11
6.22117
21
-4.69306
0
LINE
8
BLACK
6
CONTINUOUS
10
6.22117
20
-4.69306
11
6.22117
21
-4.71181
0
LINE
8
BLACK
6
CONTINUOUS
10
6.22117
20
-4.71181
11
6.21742
21
-4.7268
0
LINE
8
BLACK
6
CONTINUOUS
10
6.21742
20
-4.7268
11
6.21367
21
-4.7343
0
LINE
8
BLACK
6
CONTINUOUS
10
6.21367
20
-4.7343
11
6.20993
21
-4.73805
0
LINE
8
BLACK
6
CONTINUOUS
10
6.20993
20
-4.73805
11
6.20243
21
-4.7418
0
LINE
8
BLACK
6
CONTINUOUS
10
6.20243
20
-4.7418
11
6.19493
21
-4.7418
0
LINE
8
BLACK
6
CONTINUOUS
10
6.19493
20
-4.7418
11
6.18743
21
-4.73805
0
LINE
8
BLACK
6
CONTINUOUS
10
6.18743
20
-4.73805
11
6.18368
21
-4.7343
0
LINE
8
BLACK
6
CONTINUOUS
10
6.18368
20
-4.7343
11
6.17993
21
-4.7268
0
LINE
8
BLACK
6
CONTINUOUS
10
6.17993
20
-4.7268
11
6.17618
21
-4.71181
0
LINE
8
BLACK
6
CONTINUOUS
10
6.17618
20
-4.71181
11
6.17618
21
-4.69306
0
LINE
8
BLACK
6
CONTINUOUS
10
6.17618
20
-4.69306
11
6.17993
21
-4.67806
0
LINE
8
BLACK
6
CONTINUOUS
10
6.17993
20
-4.67806
11
6.18368
21
-4.67056
0
LINE
8
BLACK
6
CONTINUOUS
10
6.18368
20
-4.67056
11
6.18743
21
-4.66681
0
LINE
8
BLACK
6
CONTINUOUS
10
6.18743
20
-4.66681
11
6.19493
21
-4.66306
0
LINE
8
BLACK
6
CONTINUOUS
10
6.25492
20
-4.7343
11
6.25867
21
-4.73805
0
LINE
8
BLACK
6
CONTINUOUS
10
6.25867
20
-4.73805
11
6.25492
21
-4.7418
0
LINE
8
BLACK
6
CONTINUOUS
10
6.25492
20
-4.7418
11
6.25117
21
-4.73805
0
LINE
8
BLACK
6
CONTINUOUS
10
6.25117
20
-4.73805
11
6.25492
21
-4.7343
0
LINE
8
BLACK
6
CONTINUOUS
10
6.25492
20
-4.7343
11
6.25492
21
-4.7418
0
LINE
8
BLACK
6
CONTINUOUS
10
6.30741
20
-4.66306
11
6.31491
21
-4.66306
0
LINE
8
BLACK
6
CONTINUOUS
10
6.31491
20
-4.66306
11
6.32241
21
-4.66681
0
LINE
8
BLACK
6
CONTINUOUS
10
6.32241
20
-4.66681
11
6.32616
21
-4.67056
0
LINE
8
BLACK
6
CONTINUOUS
10
6.32616
20
-4.67056
11
6.32991
21
-4.67806
0
LINE
8
BLACK
6
CONTINUOUS
10
6.32991
20
-4.67806
11
6.33366
21
-4.69306
0
LINE
8
BLACK
6
CONTINUOUS
10
6.33366
20
-4.69306
11
6.33366
21
-4.71181
0
LINE
8
BLACK
6
CONTINUOUS
10
6.33366
20
-4.71181
11
6.32991
21
-4.7268
0
LINE
8
BLACK
6
CONTINUOUS
10
6.32991
20
-4.7268
11
6.32616
21
-4.7343
0
LINE
8
BLACK
6
CONTINUOUS
10
6.32616
20
-4.7343
11
6.32241
21
-4.73805
0
LINE
8
BLACK
6
CONTINUOUS
10
6.32241
20
-4.73805
11
6.31491
21
-4.7418
0
LINE
8
BLACK
6
CONTINUOUS
10
6.31491
20
-4.7418
11
6.30741
21
-4.7418
0
LINE
8
BLACK
6
CONTINUOUS
10
6.30741
20
-4.7418
11
6.29991
21
-4.73805
0
LINE
8
BLACK
6
CONTINUOUS
10
6.29991
20
-4.73805
11
6.29616
21
-4.7343
0
LINE
8
BLACK
6
CONTINUOUS
10
6.29616
20
-4.7343
11
6.29241
21
-4.7268
0
LINE
8
BLACK
6
CONTINUOUS
10
6.29241
20
-4.7268
11
6.28867
21
-4.71181
0
LINE
8
BLACK
6
CONTINUOUS
10
6.28867
20
-4.71181
11
6.28867
21
-4.69306
0
LINE
8
BLACK
6
CONTINUOUS
10
6.28867
20
-4.69306
11
6.29241
21
-4.67806
0
LINE
8
BLACK
6
CONTINUOUS
10
6.29241
20
-4.67806
11
6.29616
21
-4.67056
0
LINE
8
BLACK
6
CONTINUOUS
10
6.29616
20
-4.67056
11
6.29991
21
-4.66681
0
LINE
8
BLACK
6
CONTINUOUS
10
6.29991
20
-4.66681
11
6.30741
21
-4.66306
0
LINE
8
BLACK
6
CONTINUOUS
10
6.35991
20
-4.66306
11
6.40865
21
-4.66306
0
LINE
8
BLACK
6
CONTINUOUS
10
6.40865
20
-4.66306
11
6.3824
21
-4.69306
0
LINE
8
BLACK
6
CONTINUOUS
10
6.3824
20
-4.69306
11
6.39365
21
-4.69306
0
LINE
8
BLACK
6
CONTINUOUS
10
6.39365
20
-4.69306
11
6.40115
21
-4.69681
0
LINE
8
BLACK
6
CONTINUOUS
10
6.40115
20
-4.69681
11
6.4049
21
-4.70056
0
LINE
8
BLACK
6
CONTINUOUS
10
6.4049
20
-4.70056
11
6.40865
21
-4.70806
0
LINE
8
BLACK
6
CONTINUOUS
10
6.40865
20
-4.70806
11
6.40865
21
-4.7268
0
LINE
8
BLACK
6
CONTINUOUS
10
6.40865
20
-4.7268
11
6.4049
21
-4.7343
0
LINE
8
BLACK
6
CONTINUOUS
10
6.4049
20
-4.7343
11
6.40115
21
-4.73805
0
LINE
8
BLACK
6
CONTINUOUS
10
6.40115
20
-4.73805
11
6.39365
21
-4.7418
0
LINE
8
BLACK
6
CONTINUOUS
10
6.39365
20
-4.7418
11
6.37115
21
-4.7418
0
LINE
8
BLACK
6
CONTINUOUS
10
6.37115
20
-4.7418
11
6.36366
21
-4.73805
0
LINE
8
BLACK
6
CONTINUOUS
10
6.36366
20
-4.73805
11
6.35991
21
-4.7343
0
LINE
8
BLACK
6
CONTINUOUS
10
6.45739
20
-4.66306
11
6.46489
21
-4.66306
0
LINE
8
BLACK
6
CONTINUOUS
10
6.46489
20
-4.66306
11
6.47239
21
-4.66681
0
LINE
8
BLACK
6
CONTINUOUS
10
6.47239
20
-4.66681
11
6.47614
21
-4.67056
0
LINE
8
BLACK
6
CONTINUOUS
10
6.47614
20
-4.67056
11
6.47989
21
-4.67806
0
LINE
8
BLACK
6
CONTINUOUS
10
6.47989
20
-4.67806
11
6.48364
21
-4.69306
0
LINE
8
BLACK
6
CONTINUOUS
10
6.48364
20
-4.69306
11
6.48364
21
-4.71181
0
LINE
8
BLACK
6
CONTINUOUS
10
6.48364
20
-4.71181
11
6.47989
21
-4.7268
0
LINE
8
BLACK
6
CONTINUOUS
10
6.47989
20
-4.7268
11
6.47614
21
-4.7343
0
LINE
8
BLACK
6
CONTINUOUS
10
6.47614
20
-4.7343
11
6.47239
21
-4.73805
0
LINE
8
BLACK
6
CONTINUOUS
10
6.47239
20
-4.73805
11
6.46489
21
-4.7418
0
LINE
8
BLACK
6
CONTINUOUS
10
6.46489
20
-4.7418
11
6.45739
21
-4.7418
0
LINE
8
BLACK
6
CONTINUOUS
10
6.45739
20
-4.7418
11
6.4499
21
-4.73805
0
LINE
8
BLACK
6
CONTINUOUS
10
6.4499
20
-4.73805
11
6.44615
21
-4.7343
0
LINE
8
BLACK
6
CONTINUOUS
10
6.44615
20
-4.7343
11
6.4424
21
-4.7268
0
LINE
8
BLACK
6
CONTINUOUS
10
6.4424
20
-4.7268
11
6.43865
21
-4.71181
0
LINE
8
BLACK
6
CONTINUOUS
10
6.43865
20
-4.71181
11
6.43865
21
-4.69306
0
LINE
8
BLACK
6
CONTINUOUS
10
6.43865
20
-4.69306
11
6.4424
21
-4.67806
0
LINE
8
BLACK
6
CONTINUOUS
10
6.4424
20
-4.67806
11
6.44615
21
-4.67056
0
LINE
8
BLACK
6
CONTINUOUS
10
6.44615
20
-4.67056
11
6.4499
21
-4.66681
0
LINE
8
BLACK
6
CONTINUOUS
10
6.4499
20
-4.66681
11
6.45739
21
-4.66306
0
LINE
8
BLACK
6
CONTINUOUS
10
6.53238
20
-4.66306
11
6.53988
21
-4.66306
0
LINE
8
BLACK
6
CONTINUOUS
10
6.53988
20
-4.66306
11
6.54738
21
-4.66681
0
LINE
8
BLACK
6
CONTINUOUS
10
6.54738
20
-4.66681
11
6.55113
21
-4.67056
0
LINE
8
BLACK
6
CONTINUOUS
10
6.55113
20
-4.67056
11
6.55488
21
-4.67806
0
LINE
8
BLACK
6
CONTINUOUS
10
6.55488
20
-4.67806
11
6.55863
21
-4.69306
0
LINE
8
BLACK
6
CONTINUOUS
10
6.55863
20
-4.69306
11
6.55863
21
-4.71181
0
LINE
8
BLACK
6
CONTINUOUS
10
6.55863
20
-4.71181
11
6.55488
21
-4.7268
0
LINE
8
BLACK
6
CONTINUOUS
10
6.55488
20
-4.7268
11
6.55113
21
-4.7343
0
LINE
8
BLACK
6
CONTINUOUS
10
6.55113
20
-4.7343
11
6.54738
21
-4.73805
0
LINE
8
BLACK
6
CONTINUOUS
10
6.54738
20
-4.73805
11
6.53988
21
-4.7418
0
LINE
8
BLACK
6
CONTINUOUS
10
6.53988
20
-4.7418
11
6.53238
21
-4.7418
0
LINE
8
BLACK
6
CONTINUOUS
10
6.53238
20
-4.7418
11
6.52489
21
-4.73805
0
LINE
8
BLACK
6
CONTINUOUS
10
6.52489
20
-4.73805
11
6.52114
21
-4.7343
0
LINE
8
BLACK
6
CONTINUOUS
10
6.52114
20
-4.7343
11
6.51739
21
-4.7268
0
LINE
8
BLACK
6
CONTINUOUS
10
6.51739
20
-4.7268
11
6.51364
21
-4.71181
0
LINE
8
BLACK
6
CONTINUOUS
10
6.51364
20
-4.71181
11
6.51364
21
-4.69306
0
LINE
8
BLACK
6
CONTINUOUS
10
6.51364
20
-4.69306
11
6.51739
21
-4.67806
0
LINE
8
BLACK
6
CONTINUOUS
10
6.51739
20
-4.67806
11
6.52114
21
-4.67056
0
LINE
8
BLACK
6
CONTINUOUS
10
6.52114
20
-4.67056
11
6.52489
21
-4.66681
0
LINE
8
BLACK
6
CONTINUOUS
10
6.52489
20
-4.66681
11
6.53238
21
-4.66306
0
LINE
8
BLACK
6
CONTINUOUS
10
6.58863
20
-4.66306
11
6.58863
21
-4.67806
0
LINE
8
BLACK
6
CONTINUOUS
10
6.61862
20
-4.66306
11
6.61862
21
-4.67806
0
LINE
8
BLACK
6
CONTINUOUS
10
6.72211
20
-4.7718
11
6.71836
21
-4.76805
0
LINE
8
BLACK
6
CONTINUOUS
10
6.71836
20
-4.76805
11
6.71086
21
-4.7568
0
LINE
8
BLACK
6
CONTINUOUS
10
6.71086
20
-4.7568
11
6.70711
21
-4.7493
0
LINE
8
BLACK
6
CONTINUOUS
10
6.70711
20
-4.7493
11
6.70336
21
-4.73805
0
LINE
8
BLACK
6
CONTINUOUS
10
6.70336
20
-4.73805
11
6.69961
21
-4.7193
0
LINE
8
BLACK
6
CONTINUOUS
10
6.69961
20
-4.7193
11
6.69961
21
-4.70431
0
LINE
8
BLACK
6
CONTINUOUS
10
6.69961
20
-4.70431
11
6.70336
21
-4.68556
0
LINE
8
BLACK
6
CONTINUOUS
10
6.70336
20
-4.68556
11
6.70711
21
-4.67431
0
LINE
8
BLACK
6
CONTINUOUS
10
6.70711
20
-4.67431
11
6.71086
21
-4.66681
0
LINE
8
BLACK
6
CONTINUOUS
10
6.71086
20
-4.66681
11
6.71836
21
-4.65556
0
LINE
8
BLACK
6
CONTINUOUS
10
6.71836
20
-4.65556
11
6.72211
21
-4.65181
0
LINE
8
BLACK
6
CONTINUOUS
10
6.79335
20
-4.7418
11
6.74836
21
-4.7418
0
LINE
8
BLACK
6
CONTINUOUS
10
6.77085
20
-4.7418
11
6.77085
21
-4.66306
0
LINE
8
BLACK
6
CONTINUOUS
10
6.77085
20
-4.66306
11
6.76336
21
-4.67431
0
LINE
8
BLACK
6
CONTINUOUS
10
6.76336
20
-4.67431
11
6.75586
21
-4.68181
0
LINE
8
BLACK
6
CONTINUOUS
10
6.75586
20
-4.68181
11
6.74836
21
-4.68556
0
LINE
8
BLACK
6
CONTINUOUS
10
6.82335
20
-4.67056
11
6.8271
21
-4.66681
0
LINE
8
BLACK
6
CONTINUOUS
10
6.8271
20
-4.66681
11
6.8346
21
-4.66306
0
LINE
8
BLACK
6
CONTINUOUS
10
6.8346
20
-4.66306
11
6.85334
21
-4.66306
0
LINE
8
BLACK
6
CONTINUOUS
10
6.85334
20
-4.66306
11
6.86084
21
-4.66681
0
LINE
8
BLACK
6
CONTINUOUS
10
6.86084
20
-4.66681
11
6.86459
21
-4.67056
0
LINE
8
BLACK
6
CONTINUOUS
10
6.86459
20
-4.67056
11
6.86834
21
-4.67806
0
LINE
8
BLACK
6
CONTINUOUS
10
6.86834
20
-4.67806
11
6.86834
21
-4.68556
0
LINE
8
BLACK
6
CONTINUOUS
10
6.86834
20
-4.68556
11
6.86459
21
-4.69681
0
LINE
8
BLACK
6
CONTINUOUS
10
6.86459
20
-4.69681
11
6.8196
21
-4.7418
0
LINE
8
BLACK
6
CONTINUOUS
10
6.8196
20
-4.7418
11
6.86834
21
-4.7418
0
LINE
8
BLACK
6
CONTINUOUS
10
6.94933
20
-4.7418
11
6.94933
21
-4.66306
0
LINE
8
BLACK
6
CONTINUOUS
10
6.98308
20
-4.7418
11
6.98308
21
-4.70056
0
LINE
8
BLACK
6
CONTINUOUS
10
6.98308
20
-4.70056
11
6.97933
21
-4.69306
0
LINE
8
BLACK
6
CONTINUOUS
10
6.97933
20
-4.69306
11
6.97183
21
-4.68931
0
LINE
8
BLACK
6
CONTINUOUS
10
6.97183
20
-4.68931
11
6.96058
21
-4.68931
0
LINE
8
BLACK
6
CONTINUOUS
10
6.96058
20
-4.68931
11
6.95308
21
-4.69306
0
LINE
8
BLACK
6
CONTINUOUS
10
6.95308
20
-4.69306
11
6.94933
21
-4.69681
0
LINE
8
BLACK
6
CONTINUOUS
10
7.03182
20
-4.7418
11
7.02432
21
-4.73805
0
LINE
8
BLACK
6
CONTINUOUS
10
7.02432
20
-4.73805
11
7.02057
21
-4.7343
0
LINE
8
BLACK
6
CONTINUOUS
10
7.02057
20
-4.7343
11
7.01682
21
-4.7268
0
LINE
8
BLACK
6
CONTINUOUS
10
7.01682
20
-4.7268
11
7.01682
21
-4.70431
0
LINE
8
BLACK
6
CONTINUOUS
10
7.01682
20
-4.70431
11
7.02057
21
-4.69681
0
LINE
8
BLACK
6
CONTINUOUS
10
7.02057
20
-4.69681
11
7.02432
21
-4.69306
0
LINE
8
BLACK
6
CONTINUOUS
10
7.02432
20
-4.69306
11
7.03182
21
-4.68931
0
LINE
8
BLACK
6
CONTINUOUS
10
7.03182
20
-4.68931
11
7.04307
21
-4.68931
0
LINE
8
BLACK
6
CONTINUOUS
10
7.04307
20
-4.68931
11
7.05057
21
-4.69306
0
LINE
8
BLACK
6
CONTINUOUS
10
7.05057
20
-4.69306
11
7.05432
21
-4.69681
0
LINE
8
BLACK
6
CONTINUOUS
10
7.05432
20
-4.69681
11
7.05807
21
-4.70431
0
LINE
8
BLACK
6
CONTINUOUS
10
7.05807
20
-4.70431
11
7.05807
21
-4.7268
0
LINE
8
BLACK
6
CONTINUOUS
10
7.05807
20
-4.7268
11
7.05432
21
-4.7343
0
LINE
8
BLACK
6
CONTINUOUS
10
7.05432
20
-4.7343
11
7.05057
21
-4.73805
0
LINE
8
BLACK
6
CONTINUOUS
10
7.05057
20
-4.73805
11
7.04307
21
-4.7418
0
LINE
8
BLACK
6
CONTINUOUS
10
7.04307
20
-4.7418
11
7.03182
21
-4.7418
0
LINE
8
BLACK
6
CONTINUOUS
10
7.10306
20
-4.7418
11
7.09556
21
-4.73805
0
LINE
8
BLACK
6
CONTINUOUS
10
7.09556
20
-4.73805
11
7.09181
21
-4.73055
0
LINE
8
BLACK
6
CONTINUOUS
10
7.09181
20
-4.73055
11
7.09181
21
-4.66306
0
LINE
8
BLACK
6
CONTINUOUS
10
7.16306
20
-4.73805
11
7.15556
21
-4.7418
0
LINE
8
BLACK
6
CONTINUOUS
10
7.15556
20
-4.7418
11
7.14056
21
-4.7418
0
LINE
8
BLACK
6
CONTINUOUS
10
7.14056
20
-4.7418
11
7.13306
21
-4.73805
0
LINE
8
BLACK
6
CONTINUOUS
10
7.13306
20
-4.73805
11
7.12931
21
-4.73055
0
LINE
8
BLACK
6
CONTINUOUS
10
7.12931
20
-4.73055
11
7.12931
21
-4.70056
0
LINE
8
BLACK
6
CONTINUOUS
10
7.12931
20
-4.70056
11
7.13306
21
-4.69306
0
LINE
8
BLACK
6
CONTINUOUS
10
7.13306
20
-4.69306
11
7.14056
21
-4.68931
0
LINE
8
BLACK
6
CONTINUOUS
10
7.14056
20
-4.68931
11
7.15556
21
-4.68931
0
LINE
8
BLACK
6
CONTINUOUS
10
7.15556
20
-4.68931
11
7.16306
21
-4.69306
0
LINE
8
BLACK
6
CONTINUOUS
10
7.16306
20
-4.69306
11
7.16681
21
-4.70056
0
LINE
8
BLACK
6
CONTINUOUS
10
7.16681
20
-4.70056
11
7.16681
21
-4.70806
0
LINE
8
BLACK
6
CONTINUOUS
10
7.16681
20
-4.70806
11
7.12931
21
-4.71555
0
LINE
8
BLACK
6
CONTINUOUS
10
7.1968
20
-4.73805
11
7.2043
21
-4.7418
0
LINE
8
BLACK
6
CONTINUOUS
10
7.2043
20
-4.7418
11
7.2193
21
-4.7418
0
LINE
8
BLACK
6
CONTINUOUS
10
7.2193
20
-4.7418
11
7.2268
21
-4.73805
0
LINE
8
BLACK
6
CONTINUOUS
10
7.2268
20
-4.73805
11
7.23055
21
-4.73055
0
LINE
8
BLACK
6
CONTINUOUS
10
7.23055
20
-4.73055
11
7.23055
21
-4.7268
0
LINE
8
BLACK
6
CONTINUOUS
10
7.23055
20
-4.7268
11
7.2268
21
-4.7193
0
LINE
8
BLACK
6
CONTINUOUS
10
7.2268
20
-4.7193
11
7.2193
21
-4.71555
0
LINE
8
BLACK
6
CONTINUOUS
10
7.2193
20
-4.71555
11
7.20805
21
-4.71555
0
LINE
8
BLACK
6
CONTINUOUS
10
7.20805
20
-4.71555
11
7.20055
21
-4.71181
0
LINE
8
BLACK
6
CONTINUOUS
10
7.20055
20
-4.71181
11
7.1968
21
-4.70431
0
LINE
8
BLACK
6
CONTINUOUS
10
7.1968
20
-4.70431
11
7.1968
21
-4.70056
0
LINE
8
BLACK
6
CONTINUOUS
10
7.1968
20
-4.70056
11
7.20055
21
-4.69306
0
LINE
8
BLACK
6
CONTINUOUS
10
7.20055
20
-4.69306
11
7.20805
21
-4.68931
0
LINE
8
BLACK
6
CONTINUOUS
10
7.20805
20
-4.68931
11
7.2193
21
-4.68931
0
LINE
8
BLACK
6
CONTINUOUS
10
7.2193
20
-4.68931
11
7.2268
21
-4.69306
0
LINE
8
BLACK
6
CONTINUOUS
10
7.25679
20
-4.7718
11
7.26054
21
-4.76805
0
LINE
8
BLACK
6
CONTINUOUS
10
7.26054
20
-4.76805
11
7.26804
21
-4.7568
0
LINE
8
BLACK
6
CONTINUOUS
10
7.26804
20
-4.7568
11
7.27179
21
-4.7493
0
LINE
8
BLACK
6
CONTINUOUS
10
7.27179
20
-4.7493
11
7.27554
21
-4.73805
0
LINE
8
BLACK
6
CONTINUOUS
10
7.27554
20
-4.73805
11
7.27929
21
-4.7193
0
LINE
8
BLACK
6
CONTINUOUS
10
7.27929
20
-4.7193
11
7.27929
21
-4.70431
0
LINE
8
BLACK
6
CONTINUOUS
10
7.27929
20
-4.70431
11
7.27554
21
-4.68556
0
LINE
8
BLACK
6
CONTINUOUS
10
7.27554
20
-4.68556
11
7.27179
21
-4.67431
0
LINE
8
BLACK
6
CONTINUOUS
10
7.27179
20
-4.67431
11
7.26804
21
-4.66681
0
LINE
8
BLACK
6
CONTINUOUS
10
7.26804
20
-4.66681
11
7.26054
21
-4.65556
0
LINE
8
BLACK
6
CONTINUOUS
10
7.26054
20
-4.65556
11
7.25679
21
-4.65181
  0
ENDSEC
  0
EOF
