%TF.GenerationSoftware,KiCad,Pcbnew,7.0.0*%
%TF.CreationDate,2023-02-15T18:07:56+08:00*%
%TF.ProjectId,IN12,494e3132-2e6b-4696-9361-645f70636258,rev?*%
%TF.SameCoordinates,Original*%
%TF.FileFunction,Copper,L2,Bot*%
%TF.FilePolarity,Positive*%
%FSLAX46Y46*%
G04 Gerber Fmt 4.6, Leading zero omitted, Abs format (unit mm)*
G04 Created by KiCad (PCBNEW 7.0.0) date 2023-02-15 18:07:56*
%MOMM*%
%LPD*%
G01*
G04 APERTURE LIST*
%TA.AperFunction,ComponentPad*%
%ADD10C,1.524000*%
%TD*%
%TA.AperFunction,ComponentPad*%
%ADD11C,1.000000*%
%TD*%
%TA.AperFunction,Conductor*%
%ADD12C,0.250000*%
%TD*%
G04 APERTURE END LIST*
D10*
%TO.P,J1,0,0*%
%TO.N,P0*%
X143320000Y-99496000D03*
%TO.P,J1,1,1*%
%TO.N,P1*%
X143320000Y-102036000D03*
%TO.P,J1,2,2*%
%TO.N,P2*%
X144780000Y-103996000D03*
%TO.P,J1,3,3*%
%TO.N,P3*%
X147320000Y-103996000D03*
%TO.P,J1,4,4*%
%TO.N,P4*%
X149860000Y-103996000D03*
%TO.P,J1,5,5*%
%TO.N,P5*%
X151320000Y-102036000D03*
%TO.P,J1,6,6*%
%TO.N,P6*%
X151320000Y-99496000D03*
%TO.P,J1,7,7*%
%TO.N,P7*%
X151320000Y-96956000D03*
%TO.P,J1,8,8*%
%TO.N,P8*%
X149860000Y-94996000D03*
%TO.P,J1,9,9*%
%TO.N,P9*%
X147320000Y-94996000D03*
%TO.P,J1,10,10*%
%TO.N,unconnected-(J1-Pad10)*%
X144780000Y-94996000D03*
%TO.P,J1,A,A*%
%TO.N,PA*%
X143320000Y-96956000D03*
%TD*%
D11*
%TO.P,NX1,0,0*%
%TO.N,P0*%
X152920000Y-103996000D03*
%TO.P,NX1,1,1*%
%TO.N,P1*%
X143320000Y-107496000D03*
%TO.P,NX1,2,2*%
%TO.N,P2*%
X141720000Y-103996000D03*
%TO.P,NX1,3,3*%
%TO.N,P3*%
X141620000Y-99496000D03*
%TO.P,NX1,4,4*%
%TO.N,P4*%
X141720000Y-94996000D03*
%TO.P,NX1,5,5*%
%TO.N,P5*%
X143320000Y-91496000D03*
%TO.P,NX1,6,6*%
%TO.N,P6*%
X147320000Y-90496000D03*
%TO.P,NX1,7,7*%
%TO.N,P7*%
X151320000Y-91496000D03*
%TO.P,NX1,8,8*%
%TO.N,P8*%
X152920000Y-94996000D03*
%TO.P,NX1,9,9*%
%TO.N,P9*%
X153020000Y-99496000D03*
%TO.P,NX1,A,A*%
%TO.N,PA*%
X151320000Y-107496000D03*
%TO.P,NX1,DP*%
%TO.N,N/C*%
X147320000Y-108496000D03*
%TD*%
D12*
%TO.N,P2*%
X141720000Y-103996000D02*
X144780000Y-103996000D01*
%TO.N,P3*%
X141620000Y-99496000D02*
X143073000Y-100949000D01*
X144273000Y-100949000D02*
X147320000Y-103996000D01*
X143073000Y-100949000D02*
X144273000Y-100949000D01*
%TO.N,P4*%
X149168350Y-103996000D02*
X144407000Y-99234650D01*
X149860000Y-103996000D02*
X149168350Y-103996000D01*
X144407000Y-96505749D02*
X142897251Y-94996000D01*
X144407000Y-99234650D02*
X144407000Y-96505749D01*
X142897251Y-94996000D02*
X141720000Y-94996000D01*
%TO.N,P8*%
X149860000Y-94996000D02*
X152920000Y-94996000D01*
%TO.N,P9*%
X151933000Y-98409000D02*
X153020000Y-99496000D01*
X150733000Y-98409000D02*
X151933000Y-98409000D01*
X147320000Y-94996000D02*
X150733000Y-98409000D01*
%TO.N,PA*%
X140795000Y-104237727D02*
X142983273Y-106426000D01*
X142242370Y-96956000D02*
X140795000Y-98403370D01*
X140795000Y-98403370D02*
X140795000Y-104237727D01*
X143320000Y-96956000D02*
X142242370Y-96956000D01*
X150250000Y-106426000D02*
X151320000Y-107496000D01*
X142983273Y-106426000D02*
X150250000Y-106426000D01*
%TD*%
M02*
