%TF.GenerationSoftware,KiCad,Pcbnew,7.0.0*%
%TF.CreationDate,2023-02-15T18:07:56+08:00*%
%TF.ProjectId,IN12,494e3132-2e6b-4696-9361-645f70636258,rev?*%
%TF.SameCoordinates,Original*%
%TF.FileFunction,Legend,Top*%
%TF.FilePolarity,Positive*%
%FSLAX46Y46*%
G04 Gerber Fmt 4.6, Leading zero omitted, Abs format (unit mm)*
G04 Created by KiCad (PCBNEW 7.0.0) date 2023-02-15 18:07:56*
%MOMM*%
%LPD*%
G01*
G04 APERTURE LIST*
%ADD10C,0.150000*%
%ADD11C,0.120000*%
G04 APERTURE END LIST*
D10*
%TO.C,J1*%
X146986666Y-99363380D02*
X146986666Y-100077666D01*
X146986666Y-100077666D02*
X146939047Y-100220523D01*
X146939047Y-100220523D02*
X146843809Y-100315761D01*
X146843809Y-100315761D02*
X146700952Y-100363380D01*
X146700952Y-100363380D02*
X146605714Y-100363380D01*
X147986666Y-100363380D02*
X147415238Y-100363380D01*
X147700952Y-100363380D02*
X147700952Y-99363380D01*
X147700952Y-99363380D02*
X147605714Y-99506238D01*
X147605714Y-99506238D02*
X147510476Y-99601476D01*
X147510476Y-99601476D02*
X147415238Y-99649095D01*
%TO.C,NX1*%
X146081905Y-96993180D02*
X146081905Y-95993180D01*
X146081905Y-95993180D02*
X146653333Y-96993180D01*
X146653333Y-96993180D02*
X146653333Y-95993180D01*
X147034286Y-95993180D02*
X147700952Y-96993180D01*
X147700952Y-95993180D02*
X147034286Y-96993180D01*
X148605714Y-96993180D02*
X148034286Y-96993180D01*
X148320000Y-96993180D02*
X148320000Y-95993180D01*
X148320000Y-95993180D02*
X148224762Y-96136038D01*
X148224762Y-96136038D02*
X148129524Y-96231276D01*
X148129524Y-96231276D02*
X148034286Y-96278895D01*
D11*
%TO.C,J1*%
X141320000Y-105496000D02*
X141320000Y-93496000D01*
X141320000Y-105496000D02*
X153320000Y-105496000D01*
X153320000Y-93496000D02*
X141320000Y-93496000D01*
X153320000Y-105496000D02*
X153320000Y-93496000D01*
%TO.C,NX1*%
X158320000Y-99496000D02*
G75*
G03*
X158320000Y-99496000I-11000000J0D01*
G01*
%TD*%
M02*
