%TF.GenerationSoftware,KiCad,Pcbnew,5.1.9+dfsg1-1+deb11u1*%
%TF.CreationDate,2023-01-31T21:53:36+08:00*%
%TF.ProjectId,QS27_1,51533237-5f31-42e6-9b69-6361645f7063,v1.0*%
%TF.SameCoordinates,Original*%
%TF.FileFunction,Copper,L1,Top*%
%TF.FilePolarity,Positive*%
%FSLAX46Y46*%
G04 Gerber Fmt 4.6, Leading zero omitted, Abs format (unit mm)*
G04 Created by KiCad (PCBNEW 5.1.9+dfsg1-1+deb11u1) date 2023-01-31 21:53:36*
%MOMM*%
%LPD*%
G01*
G04 APERTURE LIST*
%TA.AperFunction,ComponentPad*%
%ADD10R,1.600000X1.600000*%
%TD*%
%TA.AperFunction,ComponentPad*%
%ADD11O,1.600000X1.600000*%
%TD*%
%TA.AperFunction,ComponentPad*%
%ADD12C,1.400000*%
%TD*%
%TA.AperFunction,ComponentPad*%
%ADD13O,1.400000X1.400000*%
%TD*%
%TA.AperFunction,ComponentPad*%
%ADD14O,1.500000X1.050000*%
%TD*%
%TA.AperFunction,ComponentPad*%
%ADD15R,1.500000X1.050000*%
%TD*%
%TA.AperFunction,ComponentPad*%
%ADD16C,1.500000*%
%TD*%
%TA.AperFunction,ComponentPad*%
%ADD17O,1.700000X1.700000*%
%TD*%
%TA.AperFunction,ComponentPad*%
%ADD18R,1.700000X1.700000*%
%TD*%
%TA.AperFunction,ComponentPad*%
%ADD19O,1.950000X1.700000*%
%TD*%
%TA.AperFunction,ComponentPad*%
%ADD20O,1.700000X1.950000*%
%TD*%
%TA.AperFunction,ComponentPad*%
%ADD21C,1.600000*%
%TD*%
%TA.AperFunction,Conductor*%
%ADD22C,0.250000*%
%TD*%
%TA.AperFunction,Conductor*%
%ADD23C,0.254000*%
%TD*%
%TA.AperFunction,Conductor*%
%ADD24C,0.100000*%
%TD*%
G04 APERTURE END LIST*
D10*
%TO.P,U1,1*%
%TO.N,GND*%
X215100000Y-171950000D03*
D11*
%TO.P,U1,5*%
%TO.N,N/C*%
X222720000Y-179570000D03*
%TO.P,U1,2*%
%TO.N,Net-(C1-Pad1)*%
X215100000Y-174490000D03*
%TO.P,U1,6*%
X222720000Y-177030000D03*
%TO.P,U1,3*%
%TO.N,Net-(R2-Pad2)*%
X215100000Y-177030000D03*
%TO.P,U1,7*%
%TO.N,Net-(R1-Pad2)*%
X222720000Y-174490000D03*
%TO.P,U1,4*%
%TO.N,+5V*%
X215100000Y-179570000D03*
%TO.P,U1,8*%
X222720000Y-171950000D03*
%TD*%
D12*
%TO.P,R4,1*%
%TO.N,Net-(NE1-Pad2)*%
X209300000Y-168600000D03*
D13*
%TO.P,R4,2*%
%TO.N,Net-(Q1-Pad3)*%
X201680000Y-168600000D03*
%TD*%
D12*
%TO.P,R3,1*%
%TO.N,Net-(R1-Pad2)*%
X209300000Y-172250000D03*
D13*
%TO.P,R3,2*%
%TO.N,Net-(C1-Pad1)*%
X201680000Y-172250000D03*
%TD*%
D12*
%TO.P,R2,1*%
%TO.N,NE555_OUT*%
X209300000Y-176150000D03*
D13*
%TO.P,R2,2*%
%TO.N,Net-(R2-Pad2)*%
X201680000Y-176150000D03*
%TD*%
D12*
%TO.P,R1,1*%
%TO.N,+5V*%
X209270000Y-180050000D03*
D13*
%TO.P,R1,2*%
%TO.N,Net-(R1-Pad2)*%
X201650000Y-180050000D03*
%TD*%
D14*
%TO.P,Q1,2*%
%TO.N,NE555_OUT*%
X193350000Y-178430000D03*
%TO.P,Q1,3*%
%TO.N,Net-(Q1-Pad3)*%
X193350000Y-177160000D03*
D15*
%TO.P,Q1,1*%
%TO.N,GND*%
X193350000Y-179700000D03*
%TD*%
D16*
%TO.P,NX4,6*%
%TO.N,Net-(J4-Pad5)*%
X276875000Y-146375000D03*
%TO.P,NX4,7*%
%TO.N,Net-(J4-Pad4)*%
X273475000Y-147575000D03*
%TO.P,NX4,3*%
%TO.N,Net-(J4-Pad8)*%
X282375000Y-154375000D03*
%TO.P,NX4,4*%
%TO.N,Net-(J4-Pad7)*%
X282175000Y-150775000D03*
%TO.P,NX4,5*%
%TO.N,Net-(J4-Pad6)*%
X280275000Y-147575000D03*
%TO.P,NX4,8*%
%TO.N,Net-(J4-Pad3)*%
X271575000Y-150775000D03*
%TO.P,NX4,9*%
%TO.N,Net-(J4-Pad2)*%
X271375000Y-154375000D03*
%TO.P,NX4,0*%
%TO.N,Net-(J4-Pad1)*%
X271575000Y-157975000D03*
%TO.P,NX4,A*%
%TO.N,ANODE_PIN*%
X273475000Y-161075000D03*
%TO.P,NX4,1*%
%TO.N,Net-(J4-Pad10)*%
X280275000Y-161075000D03*
%TO.P,NX4,2*%
%TO.N,Net-(J4-Pad9)*%
X282175000Y-157975000D03*
%TD*%
%TO.P,NX3,6*%
%TO.N,Net-(J3-Pad5)*%
X242400000Y-146375000D03*
%TO.P,NX3,7*%
%TO.N,Net-(J3-Pad4)*%
X239000000Y-147575000D03*
%TO.P,NX3,3*%
%TO.N,Net-(J3-Pad8)*%
X247900000Y-154375000D03*
%TO.P,NX3,4*%
%TO.N,Net-(J3-Pad7)*%
X247700000Y-150775000D03*
%TO.P,NX3,5*%
%TO.N,Net-(J3-Pad6)*%
X245800000Y-147575000D03*
%TO.P,NX3,8*%
%TO.N,Net-(J3-Pad3)*%
X237100000Y-150775000D03*
%TO.P,NX3,9*%
%TO.N,Net-(J3-Pad2)*%
X236900000Y-154375000D03*
%TO.P,NX3,0*%
%TO.N,Net-(J3-Pad1)*%
X237100000Y-157975000D03*
%TO.P,NX3,A*%
%TO.N,ANODE_PIN*%
X239000000Y-161075000D03*
%TO.P,NX3,1*%
%TO.N,Net-(J3-Pad10)*%
X245800000Y-161075000D03*
%TO.P,NX3,2*%
%TO.N,Net-(J3-Pad9)*%
X247700000Y-157975000D03*
%TD*%
%TO.P,NX2,6*%
%TO.N,Net-(J2-Pad5)*%
X176400000Y-146375000D03*
%TO.P,NX2,7*%
%TO.N,Net-(J2-Pad4)*%
X173000000Y-147575000D03*
%TO.P,NX2,3*%
%TO.N,Net-(J2-Pad8)*%
X181900000Y-154375000D03*
%TO.P,NX2,4*%
%TO.N,Net-(J2-Pad7)*%
X181700000Y-150775000D03*
%TO.P,NX2,5*%
%TO.N,Net-(J2-Pad6)*%
X179800000Y-147575000D03*
%TO.P,NX2,8*%
%TO.N,Net-(J2-Pad3)*%
X171100000Y-150775000D03*
%TO.P,NX2,9*%
%TO.N,Net-(J2-Pad2)*%
X170900000Y-154375000D03*
%TO.P,NX2,0*%
%TO.N,Net-(J2-Pad1)*%
X171100000Y-157975000D03*
%TO.P,NX2,A*%
%TO.N,ANODE_PIN*%
X173000000Y-161075000D03*
%TO.P,NX2,1*%
%TO.N,Net-(J2-Pad10)*%
X179800000Y-161075000D03*
%TO.P,NX2,2*%
%TO.N,Net-(J2-Pad9)*%
X181700000Y-157975000D03*
%TD*%
%TO.P,NX1,6*%
%TO.N,Net-(J1-Pad5)*%
X141925000Y-146375000D03*
%TO.P,NX1,7*%
%TO.N,Net-(J1-Pad4)*%
X138525000Y-147575000D03*
%TO.P,NX1,3*%
%TO.N,Net-(J1-Pad8)*%
X147425000Y-154375000D03*
%TO.P,NX1,4*%
%TO.N,Net-(J1-Pad7)*%
X147225000Y-150775000D03*
%TO.P,NX1,5*%
%TO.N,Net-(J1-Pad6)*%
X145325000Y-147575000D03*
%TO.P,NX1,8*%
%TO.N,Net-(J1-Pad3)*%
X136625000Y-150775000D03*
%TO.P,NX1,9*%
%TO.N,Net-(J1-Pad2)*%
X136425000Y-154375000D03*
%TO.P,NX1,0*%
%TO.N,Net-(J1-Pad1)*%
X136625000Y-157975000D03*
%TO.P,NX1,A*%
%TO.N,ANODE_PIN*%
X138525000Y-161075000D03*
%TO.P,NX1,1*%
%TO.N,Net-(J1-Pad10)*%
X145325000Y-161075000D03*
%TO.P,NX1,2*%
%TO.N,Net-(J1-Pad9)*%
X147225000Y-157975000D03*
%TD*%
D17*
%TO.P,NE1,2*%
%TO.N,Net-(NE1-Pad2)*%
X209400000Y-151835000D03*
D18*
%TO.P,NE1,1*%
%TO.N,ANODE_PIN*%
X209400000Y-154375000D03*
%TD*%
D19*
%TO.P,J5,3*%
%TO.N,GND*%
X98600000Y-165950000D03*
%TO.P,J5,2*%
%TO.N,ANODE_PIN*%
X98600000Y-168450000D03*
%TO.P,J5,1*%
%TO.N,+5V*%
%TA.AperFunction,ComponentPad*%
G36*
G01*
X99325000Y-171800000D02*
X97875000Y-171800000D01*
G75*
G02*
X97625000Y-171550000I0J250000D01*
G01*
X97625000Y-170350000D01*
G75*
G02*
X97875000Y-170100000I250000J0D01*
G01*
X99325000Y-170100000D01*
G75*
G02*
X99575000Y-170350000I0J-250000D01*
G01*
X99575000Y-171550000D01*
G75*
G02*
X99325000Y-171800000I-250000J0D01*
G01*
G37*
%TD.AperFunction*%
%TD*%
D20*
%TO.P,J4,10*%
%TO.N,Net-(J4-Pad10)*%
X303100000Y-126350000D03*
%TO.P,J4,9*%
%TO.N,Net-(J4-Pad9)*%
X300600000Y-126350000D03*
%TO.P,J4,8*%
%TO.N,Net-(J4-Pad8)*%
X298100000Y-126350000D03*
%TO.P,J4,7*%
%TO.N,Net-(J4-Pad7)*%
X295600000Y-126350000D03*
%TO.P,J4,6*%
%TO.N,Net-(J4-Pad6)*%
X293100000Y-126350000D03*
%TO.P,J4,5*%
%TO.N,Net-(J4-Pad5)*%
X290600000Y-126350000D03*
%TO.P,J4,4*%
%TO.N,Net-(J4-Pad4)*%
X288100000Y-126350000D03*
%TO.P,J4,3*%
%TO.N,Net-(J4-Pad3)*%
X285600000Y-126350000D03*
%TO.P,J4,2*%
%TO.N,Net-(J4-Pad2)*%
X283100000Y-126350000D03*
%TO.P,J4,1*%
%TO.N,Net-(J4-Pad1)*%
%TA.AperFunction,ComponentPad*%
G36*
G01*
X279750000Y-127075000D02*
X279750000Y-125625000D01*
G75*
G02*
X280000000Y-125375000I250000J0D01*
G01*
X281200000Y-125375000D01*
G75*
G02*
X281450000Y-125625000I0J-250000D01*
G01*
X281450000Y-127075000D01*
G75*
G02*
X281200000Y-127325000I-250000J0D01*
G01*
X280000000Y-127325000D01*
G75*
G02*
X279750000Y-127075000I0J250000D01*
G01*
G37*
%TD.AperFunction*%
%TD*%
%TO.P,J3,10*%
%TO.N,Net-(J3-Pad10)*%
X247700000Y-126350000D03*
%TO.P,J3,9*%
%TO.N,Net-(J3-Pad9)*%
X245200000Y-126350000D03*
%TO.P,J3,8*%
%TO.N,Net-(J3-Pad8)*%
X242700000Y-126350000D03*
%TO.P,J3,7*%
%TO.N,Net-(J3-Pad7)*%
X240200000Y-126350000D03*
%TO.P,J3,6*%
%TO.N,Net-(J3-Pad6)*%
X237700000Y-126350000D03*
%TO.P,J3,5*%
%TO.N,Net-(J3-Pad5)*%
X235200000Y-126350000D03*
%TO.P,J3,4*%
%TO.N,Net-(J3-Pad4)*%
X232700000Y-126350000D03*
%TO.P,J3,3*%
%TO.N,Net-(J3-Pad3)*%
X230200000Y-126350000D03*
%TO.P,J3,2*%
%TO.N,Net-(J3-Pad2)*%
X227700000Y-126350000D03*
%TO.P,J3,1*%
%TO.N,Net-(J3-Pad1)*%
%TA.AperFunction,ComponentPad*%
G36*
G01*
X224350000Y-127075000D02*
X224350000Y-125625000D01*
G75*
G02*
X224600000Y-125375000I250000J0D01*
G01*
X225800000Y-125375000D01*
G75*
G02*
X226050000Y-125625000I0J-250000D01*
G01*
X226050000Y-127075000D01*
G75*
G02*
X225800000Y-127325000I-250000J0D01*
G01*
X224600000Y-127325000D01*
G75*
G02*
X224350000Y-127075000I0J250000D01*
G01*
G37*
%TD.AperFunction*%
%TD*%
%TO.P,J2,10*%
%TO.N,Net-(J2-Pad10)*%
X192150000Y-126350000D03*
%TO.P,J2,9*%
%TO.N,Net-(J2-Pad9)*%
X189650000Y-126350000D03*
%TO.P,J2,8*%
%TO.N,Net-(J2-Pad8)*%
X187150000Y-126350000D03*
%TO.P,J2,7*%
%TO.N,Net-(J2-Pad7)*%
X184650000Y-126350000D03*
%TO.P,J2,6*%
%TO.N,Net-(J2-Pad6)*%
X182150000Y-126350000D03*
%TO.P,J2,5*%
%TO.N,Net-(J2-Pad5)*%
X179650000Y-126350000D03*
%TO.P,J2,4*%
%TO.N,Net-(J2-Pad4)*%
X177150000Y-126350000D03*
%TO.P,J2,3*%
%TO.N,Net-(J2-Pad3)*%
X174650000Y-126350000D03*
%TO.P,J2,2*%
%TO.N,Net-(J2-Pad2)*%
X172150000Y-126350000D03*
%TO.P,J2,1*%
%TO.N,Net-(J2-Pad1)*%
%TA.AperFunction,ComponentPad*%
G36*
G01*
X168800000Y-127075000D02*
X168800000Y-125625000D01*
G75*
G02*
X169050000Y-125375000I250000J0D01*
G01*
X170250000Y-125375000D01*
G75*
G02*
X170500000Y-125625000I0J-250000D01*
G01*
X170500000Y-127075000D01*
G75*
G02*
X170250000Y-127325000I-250000J0D01*
G01*
X169050000Y-127325000D01*
G75*
G02*
X168800000Y-127075000I0J250000D01*
G01*
G37*
%TD.AperFunction*%
%TD*%
%TO.P,J1,10*%
%TO.N,Net-(J1-Pad10)*%
X136500000Y-126350000D03*
%TO.P,J1,9*%
%TO.N,Net-(J1-Pad9)*%
X134000000Y-126350000D03*
%TO.P,J1,8*%
%TO.N,Net-(J1-Pad8)*%
X131500000Y-126350000D03*
%TO.P,J1,7*%
%TO.N,Net-(J1-Pad7)*%
X129000000Y-126350000D03*
%TO.P,J1,6*%
%TO.N,Net-(J1-Pad6)*%
X126500000Y-126350000D03*
%TO.P,J1,5*%
%TO.N,Net-(J1-Pad5)*%
X124000000Y-126350000D03*
%TO.P,J1,4*%
%TO.N,Net-(J1-Pad4)*%
X121500000Y-126350000D03*
%TO.P,J1,3*%
%TO.N,Net-(J1-Pad3)*%
X119000000Y-126350000D03*
%TO.P,J1,2*%
%TO.N,Net-(J1-Pad2)*%
X116500000Y-126350000D03*
%TO.P,J1,1*%
%TO.N,Net-(J1-Pad1)*%
%TA.AperFunction,ComponentPad*%
G36*
G01*
X113150000Y-127075000D02*
X113150000Y-125625000D01*
G75*
G02*
X113400000Y-125375000I250000J0D01*
G01*
X114600000Y-125375000D01*
G75*
G02*
X114850000Y-125625000I0J-250000D01*
G01*
X114850000Y-127075000D01*
G75*
G02*
X114600000Y-127325000I-250000J0D01*
G01*
X113400000Y-127325000D01*
G75*
G02*
X113150000Y-127075000I0J250000D01*
G01*
G37*
%TD.AperFunction*%
%TD*%
D10*
%TO.P,C1,1*%
%TO.N,Net-(C1-Pad1)*%
X194400000Y-169350000D03*
D21*
%TO.P,C1,2*%
%TO.N,GND*%
X191900000Y-169350000D03*
%TD*%
D22*
%TO.N,GND*%
X192350000Y-179700000D02*
X193350000Y-179700000D01*
X191900000Y-179250000D02*
X192350000Y-179700000D01*
X191900000Y-169350000D02*
X191900000Y-179250000D01*
%TO.N,Net-(C1-Pad1)*%
X198780000Y-169350000D02*
X201680000Y-172250000D01*
X194400000Y-169350000D02*
X198780000Y-169350000D01*
X220180000Y-174490000D02*
X222720000Y-177030000D01*
X215100000Y-174490000D02*
X220180000Y-174490000D01*
X203920000Y-174490000D02*
X215100000Y-174490000D01*
X201680000Y-172250000D02*
X203920000Y-174490000D01*
%TO.N,Net-(J1-Pad10)*%
X146385660Y-161075000D02*
X145325000Y-161075000D01*
X149200020Y-158260640D02*
X146385660Y-161075000D01*
X149200020Y-139050020D02*
X149200020Y-158260640D01*
X136500000Y-126350000D02*
X149200020Y-139050020D01*
%TO.N,Net-(J1-Pad9)*%
X148750011Y-156449989D02*
X147225000Y-157975000D01*
X148750011Y-141100011D02*
X148750011Y-156449989D01*
X134000000Y-126350000D02*
X148750011Y-141100011D01*
%TO.N,Net-(J1-Pad8)*%
X148300001Y-153499999D02*
X147425000Y-154375000D01*
X148300001Y-143150001D02*
X148300001Y-153499999D01*
X131500000Y-126350000D02*
X148300001Y-143150001D01*
%TO.N,Net-(J1-Pad7)*%
X147225000Y-144575000D02*
X147225000Y-150775000D01*
X129000000Y-126350000D02*
X147225000Y-144575000D01*
%TO.N,Net-(J1-Pad6)*%
X145325000Y-145175000D02*
X126500000Y-126350000D01*
X145325000Y-147575000D02*
X145325000Y-145175000D01*
%TO.N,Net-(J1-Pad5)*%
X124000000Y-128450000D02*
X141925000Y-146375000D01*
X124000000Y-126350000D02*
X124000000Y-128450000D01*
%TO.N,Net-(J1-Pad4)*%
X121500000Y-130550000D02*
X138525000Y-147575000D01*
X121500000Y-126350000D02*
X121500000Y-130550000D01*
%TO.N,Net-(J1-Pad3)*%
X119000000Y-133150000D02*
X136625000Y-150775000D01*
X119000000Y-126350000D02*
X119000000Y-133150000D01*
%TO.N,Net-(J1-Pad2)*%
X116500000Y-134450000D02*
X136425000Y-154375000D01*
X116500000Y-126350000D02*
X116500000Y-134450000D01*
%TO.N,Net-(J1-Pad1)*%
X114000000Y-135350000D02*
X136625000Y-157975000D01*
X114000000Y-126350000D02*
X114000000Y-135350000D01*
%TO.N,Net-(J2-Pad10)*%
X180860660Y-161075000D02*
X179800000Y-161075000D01*
X192150000Y-149785660D02*
X180860660Y-161075000D01*
X192150000Y-126350000D02*
X192150000Y-149785660D01*
%TO.N,Net-(J2-Pad9)*%
X189650000Y-150025000D02*
X181700000Y-157975000D01*
X189650000Y-126350000D02*
X189650000Y-150025000D01*
%TO.N,Net-(J2-Pad8)*%
X187150000Y-149125000D02*
X187150000Y-126350000D01*
X181900000Y-154375000D02*
X187150000Y-149125000D01*
%TO.N,Net-(J2-Pad7)*%
X181700000Y-129300000D02*
X184650000Y-126350000D01*
X181700000Y-150775000D02*
X181700000Y-129300000D01*
%TO.N,Net-(J2-Pad6)*%
X179800000Y-128700000D02*
X182150000Y-126350000D01*
X179800000Y-147575000D02*
X179800000Y-128700000D01*
%TO.N,Net-(J2-Pad5)*%
X176400000Y-129600000D02*
X179650000Y-126350000D01*
X176400000Y-146375000D02*
X176400000Y-129600000D01*
%TO.N,Net-(J2-Pad4)*%
X173000000Y-130500000D02*
X177150000Y-126350000D01*
X173000000Y-147575000D02*
X173000000Y-130500000D01*
%TO.N,Net-(J2-Pad3)*%
X171100000Y-129900000D02*
X174650000Y-126350000D01*
X171100000Y-150775000D02*
X171100000Y-129900000D01*
%TO.N,Net-(J2-Pad2)*%
X170024999Y-128475001D02*
X172150000Y-126350000D01*
X170024999Y-153499999D02*
X170024999Y-128475001D01*
X170900000Y-154375000D02*
X170024999Y-153499999D01*
%TO.N,Net-(J2-Pad1)*%
X169574989Y-156449989D02*
X171100000Y-157975000D01*
X169574989Y-126425011D02*
X169574989Y-156449989D01*
X169650000Y-126350000D02*
X169574989Y-126425011D01*
%TO.N,Net-(J3-Pad10)*%
X249675020Y-128325020D02*
X247700000Y-126350000D01*
X249675020Y-158260640D02*
X249675020Y-128325020D01*
X246860660Y-161075000D02*
X249675020Y-158260640D01*
X245800000Y-161075000D02*
X246860660Y-161075000D01*
%TO.N,Net-(J3-Pad9)*%
X249225010Y-130375010D02*
X245200000Y-126350000D01*
X249225010Y-156449990D02*
X249225010Y-130375010D01*
X247700000Y-157975000D02*
X249225010Y-156449990D01*
%TO.N,Net-(J3-Pad8)*%
X248775001Y-132425001D02*
X242700000Y-126350000D01*
X248775001Y-153499999D02*
X248775001Y-132425001D01*
X247900000Y-154375000D02*
X248775001Y-153499999D01*
%TO.N,Net-(J3-Pad7)*%
X247700000Y-133850000D02*
X240200000Y-126350000D01*
X247700000Y-150775000D02*
X247700000Y-133850000D01*
%TO.N,Net-(J3-Pad6)*%
X237700000Y-139475000D02*
X245800000Y-147575000D01*
X237700000Y-126350000D02*
X237700000Y-139475000D01*
%TO.N,Net-(J3-Pad5)*%
X235200000Y-139175000D02*
X242400000Y-146375000D01*
X235200000Y-126350000D02*
X235200000Y-139175000D01*
%TO.N,Net-(J3-Pad4)*%
X232700000Y-141275000D02*
X239000000Y-147575000D01*
X232700000Y-126350000D02*
X232700000Y-141275000D01*
%TO.N,Net-(J3-Pad3)*%
X230200000Y-143875000D02*
X237100000Y-150775000D01*
X230200000Y-126350000D02*
X230200000Y-143875000D01*
%TO.N,Net-(J3-Pad2)*%
X227700000Y-145175000D02*
X236900000Y-154375000D01*
X227700000Y-126350000D02*
X227700000Y-145175000D01*
%TO.N,Net-(J3-Pad1)*%
X225200000Y-146075000D02*
X237100000Y-157975000D01*
X225200000Y-126350000D02*
X225200000Y-146075000D01*
%TO.N,Net-(J4-Pad10)*%
X280666002Y-161075000D02*
X280275000Y-161075000D01*
X303100000Y-139310660D02*
X303100000Y-126350000D01*
X281335660Y-161075000D02*
X303100000Y-139310660D01*
X280275000Y-161075000D02*
X281335660Y-161075000D01*
%TO.N,Net-(J4-Pad9)*%
X300600000Y-139550000D02*
X300600000Y-126350000D01*
X282175000Y-157975000D02*
X300600000Y-139550000D01*
%TO.N,Net-(J4-Pad8)*%
X298100000Y-138650000D02*
X298100000Y-126350000D01*
X282375000Y-154375000D02*
X298100000Y-138650000D01*
%TO.N,Net-(J4-Pad7)*%
X282175000Y-139775000D02*
X295600000Y-126350000D01*
X282175000Y-150775000D02*
X282175000Y-139775000D01*
%TO.N,Net-(J4-Pad6)*%
X280275000Y-139175000D02*
X293100000Y-126350000D01*
X280275000Y-147575000D02*
X280275000Y-139175000D01*
%TO.N,Net-(J4-Pad5)*%
X276875000Y-140075000D02*
X290600000Y-126350000D01*
X276875000Y-146375000D02*
X276875000Y-140075000D01*
%TO.N,Net-(J4-Pad4)*%
X273475000Y-140975000D02*
X288100000Y-126350000D01*
X273475000Y-147575000D02*
X273475000Y-140975000D01*
%TO.N,Net-(J4-Pad3)*%
X271575000Y-140375000D02*
X285600000Y-126350000D01*
X271575000Y-150775000D02*
X271575000Y-140375000D01*
%TO.N,Net-(J4-Pad2)*%
X270499999Y-138950001D02*
X283100000Y-126350000D01*
X270499999Y-153499999D02*
X270499999Y-138950001D01*
X271375000Y-154375000D02*
X270499999Y-153499999D01*
%TO.N,Net-(J4-Pad1)*%
X270049990Y-136900010D02*
X280600000Y-126350000D01*
X270049990Y-156449990D02*
X270049990Y-136900010D01*
X271575000Y-157975000D02*
X270049990Y-156449990D01*
%TO.N,ANODE_PIN*%
X272399999Y-162150001D02*
X273475000Y-161075000D01*
X240075001Y-162150001D02*
X272399999Y-162150001D01*
X239000000Y-161075000D02*
X240075001Y-162150001D01*
X139600001Y-162150001D02*
X138525000Y-161075000D01*
X171924999Y-162150001D02*
X139600001Y-162150001D01*
X173000000Y-161075000D02*
X171924999Y-162150001D01*
X105975000Y-161075000D02*
X138525000Y-161075000D01*
X98600000Y-168450000D02*
X105975000Y-161075000D01*
X174075001Y-162150001D02*
X173000000Y-161075000D01*
X201624999Y-162150001D02*
X174075001Y-162150001D01*
X216100000Y-161075000D02*
X239000000Y-161075000D01*
X209400000Y-154375000D02*
X201624999Y-162150001D01*
X209400000Y-154375000D02*
X216100000Y-161075000D01*
%TO.N,+5V*%
X214620000Y-180050000D02*
X215100000Y-179570000D01*
X209270000Y-180050000D02*
X214620000Y-180050000D01*
%TO.N,NE555_OUT*%
X207020000Y-178430000D02*
X209300000Y-176150000D01*
X193350000Y-178430000D02*
X207020000Y-178430000D01*
%TO.N,Net-(R1-Pad2)*%
X219054999Y-170824999D02*
X222720000Y-174490000D01*
X210725001Y-170824999D02*
X219054999Y-170824999D01*
X209300000Y-172250000D02*
X210725001Y-170824999D01*
X223845001Y-175615001D02*
X222720000Y-174490000D01*
X223845001Y-180110001D02*
X223845001Y-175615001D01*
X202675001Y-181075001D02*
X222880001Y-181075001D01*
X222880001Y-181075001D02*
X223845001Y-180110001D01*
X201650000Y-180050000D02*
X202675001Y-181075001D01*
%TO.N,Net-(R2-Pad2)*%
X213194999Y-175124999D02*
X215100000Y-177030000D01*
X202705001Y-175124999D02*
X213194999Y-175124999D01*
X201680000Y-176150000D02*
X202705001Y-175124999D01*
%TD*%
D23*
%TO.N,GND*%
X322247064Y-122647195D02*
X322580912Y-122747990D01*
X322888821Y-122911708D01*
X323159065Y-123132115D01*
X323381353Y-123400813D01*
X323547217Y-123707572D01*
X323650340Y-124040710D01*
X323690000Y-124418051D01*
X323690001Y-184317711D01*
X323652805Y-184697064D01*
X323552011Y-185030909D01*
X323388293Y-185338820D01*
X323167888Y-185609063D01*
X322899184Y-185831354D01*
X322592426Y-185997218D01*
X322259291Y-186100340D01*
X321881948Y-186140000D01*
X96932279Y-186140000D01*
X96552936Y-186102805D01*
X96219091Y-186002011D01*
X95911180Y-185838293D01*
X95640937Y-185617888D01*
X95418646Y-185349184D01*
X95252782Y-185042426D01*
X95149660Y-184709291D01*
X95110000Y-184331948D01*
X95110000Y-184184042D01*
X95215000Y-184184042D01*
X95215000Y-184515958D01*
X95279754Y-184841496D01*
X95406772Y-185148147D01*
X95591175Y-185424125D01*
X95825875Y-185658825D01*
X96101853Y-185843228D01*
X96408504Y-185970246D01*
X96734042Y-186035000D01*
X97065958Y-186035000D01*
X97391496Y-185970246D01*
X97698147Y-185843228D01*
X97974125Y-185658825D01*
X98208825Y-185424125D01*
X98393228Y-185148147D01*
X98520246Y-184841496D01*
X98585000Y-184515958D01*
X98585000Y-184184042D01*
X320215000Y-184184042D01*
X320215000Y-184515958D01*
X320279754Y-184841496D01*
X320406772Y-185148147D01*
X320591175Y-185424125D01*
X320825875Y-185658825D01*
X321101853Y-185843228D01*
X321408504Y-185970246D01*
X321734042Y-186035000D01*
X322065958Y-186035000D01*
X322391496Y-185970246D01*
X322698147Y-185843228D01*
X322974125Y-185658825D01*
X323208825Y-185424125D01*
X323393228Y-185148147D01*
X323520246Y-184841496D01*
X323585000Y-184515958D01*
X323585000Y-184184042D01*
X323520246Y-183858504D01*
X323393228Y-183551853D01*
X323208825Y-183275875D01*
X322974125Y-183041175D01*
X322698147Y-182856772D01*
X322391496Y-182729754D01*
X322065958Y-182665000D01*
X321734042Y-182665000D01*
X321408504Y-182729754D01*
X321101853Y-182856772D01*
X320825875Y-183041175D01*
X320591175Y-183275875D01*
X320406772Y-183551853D01*
X320279754Y-183858504D01*
X320215000Y-184184042D01*
X98585000Y-184184042D01*
X98520246Y-183858504D01*
X98393228Y-183551853D01*
X98208825Y-183275875D01*
X97974125Y-183041175D01*
X97698147Y-182856772D01*
X97391496Y-182729754D01*
X97065958Y-182665000D01*
X96734042Y-182665000D01*
X96408504Y-182729754D01*
X96101853Y-182856772D01*
X95825875Y-183041175D01*
X95591175Y-183275875D01*
X95406772Y-183551853D01*
X95279754Y-183858504D01*
X95215000Y-184184042D01*
X95110000Y-184184042D01*
X95110000Y-180225000D01*
X191961928Y-180225000D01*
X191974188Y-180349482D01*
X192010498Y-180469180D01*
X192069463Y-180579494D01*
X192148815Y-180676185D01*
X192245506Y-180755537D01*
X192355820Y-180814502D01*
X192475518Y-180850812D01*
X192600000Y-180863072D01*
X193064250Y-180860000D01*
X193223000Y-180701250D01*
X193223000Y-179827000D01*
X193477000Y-179827000D01*
X193477000Y-180701250D01*
X193635750Y-180860000D01*
X194100000Y-180863072D01*
X194224482Y-180850812D01*
X194344180Y-180814502D01*
X194454494Y-180755537D01*
X194551185Y-180676185D01*
X194630537Y-180579494D01*
X194689502Y-180469180D01*
X194725812Y-180349482D01*
X194738072Y-180225000D01*
X194735000Y-179985750D01*
X194576250Y-179827000D01*
X193477000Y-179827000D01*
X193223000Y-179827000D01*
X192123750Y-179827000D01*
X191965000Y-179985750D01*
X191961928Y-180225000D01*
X95110000Y-180225000D01*
X95110000Y-177160000D01*
X191959388Y-177160000D01*
X191981785Y-177387400D01*
X192048115Y-177606060D01*
X192149105Y-177795000D01*
X192048115Y-177983940D01*
X191981785Y-178202600D01*
X191959388Y-178430000D01*
X191981785Y-178657400D01*
X192045093Y-178866098D01*
X192010498Y-178930820D01*
X191974188Y-179050518D01*
X191961928Y-179175000D01*
X191965000Y-179414250D01*
X192123750Y-179573000D01*
X192896891Y-179573000D01*
X192897600Y-179573215D01*
X193068021Y-179590000D01*
X193631979Y-179590000D01*
X193802400Y-179573215D01*
X193803109Y-179573000D01*
X194576250Y-179573000D01*
X194735000Y-179414250D01*
X194737879Y-179190000D01*
X200622025Y-179190000D01*
X200613038Y-179198987D01*
X200466939Y-179417641D01*
X200366304Y-179660595D01*
X200315000Y-179918514D01*
X200315000Y-180181486D01*
X200366304Y-180439405D01*
X200466939Y-180682359D01*
X200613038Y-180901013D01*
X200798987Y-181086962D01*
X201017641Y-181233061D01*
X201260595Y-181333696D01*
X201518514Y-181385000D01*
X201781486Y-181385000D01*
X201888843Y-181363645D01*
X202111202Y-181586004D01*
X202135000Y-181615002D01*
X202250725Y-181709975D01*
X202382754Y-181780547D01*
X202526015Y-181824004D01*
X202637668Y-181835001D01*
X202637677Y-181835001D01*
X202675000Y-181838677D01*
X202712323Y-181835001D01*
X222842679Y-181835001D01*
X222880001Y-181838677D01*
X222917323Y-181835001D01*
X222917334Y-181835001D01*
X223028987Y-181824004D01*
X223172248Y-181780547D01*
X223304277Y-181709975D01*
X223420002Y-181615002D01*
X223443805Y-181585999D01*
X224356005Y-180673799D01*
X224385002Y-180650002D01*
X224434244Y-180590001D01*
X224479975Y-180534278D01*
X224550547Y-180402248D01*
X224566553Y-180349482D01*
X224594004Y-180258987D01*
X224605001Y-180147334D01*
X224605001Y-180147325D01*
X224608677Y-180110002D01*
X224605001Y-180072679D01*
X224605001Y-175652326D01*
X224608677Y-175615001D01*
X224605001Y-175577676D01*
X224605001Y-175577668D01*
X224594004Y-175466015D01*
X224550547Y-175322754D01*
X224479975Y-175190725D01*
X224385002Y-175075000D01*
X224356004Y-175051202D01*
X224118688Y-174813886D01*
X224155000Y-174631335D01*
X224155000Y-174348665D01*
X224099853Y-174071426D01*
X223991680Y-173810273D01*
X223834637Y-173575241D01*
X223634759Y-173375363D01*
X223402241Y-173220000D01*
X223634759Y-173064637D01*
X223834637Y-172864759D01*
X223991680Y-172629727D01*
X224099853Y-172368574D01*
X224155000Y-172091335D01*
X224155000Y-171808665D01*
X224099853Y-171531426D01*
X223991680Y-171270273D01*
X223834637Y-171035241D01*
X223634759Y-170835363D01*
X223399727Y-170678320D01*
X223138574Y-170570147D01*
X222861335Y-170515000D01*
X222578665Y-170515000D01*
X222301426Y-170570147D01*
X222040273Y-170678320D01*
X221805241Y-170835363D01*
X221605363Y-171035241D01*
X221448320Y-171270273D01*
X221340147Y-171531426D01*
X221285000Y-171808665D01*
X221285000Y-171980199D01*
X219618803Y-170314002D01*
X219595000Y-170284998D01*
X219479275Y-170190025D01*
X219347246Y-170119453D01*
X219203985Y-170075996D01*
X219092332Y-170064999D01*
X219092321Y-170064999D01*
X219054999Y-170061323D01*
X219017677Y-170064999D01*
X210762326Y-170064999D01*
X210725001Y-170061323D01*
X210687676Y-170064999D01*
X210687668Y-170064999D01*
X210576015Y-170075996D01*
X210432754Y-170119453D01*
X210300725Y-170190025D01*
X210185000Y-170284998D01*
X210161202Y-170313996D01*
X209538843Y-170936355D01*
X209431486Y-170915000D01*
X209168514Y-170915000D01*
X208910595Y-170966304D01*
X208667641Y-171066939D01*
X208448987Y-171213038D01*
X208263038Y-171398987D01*
X208116939Y-171617641D01*
X208016304Y-171860595D01*
X207965000Y-172118514D01*
X207965000Y-172381486D01*
X208016304Y-172639405D01*
X208116939Y-172882359D01*
X208263038Y-173101013D01*
X208448987Y-173286962D01*
X208667641Y-173433061D01*
X208910595Y-173533696D01*
X209168514Y-173585000D01*
X209431486Y-173585000D01*
X209689405Y-173533696D01*
X209932359Y-173433061D01*
X210151013Y-173286962D01*
X210336962Y-173101013D01*
X210483061Y-172882359D01*
X210583696Y-172639405D01*
X210635000Y-172381486D01*
X210635000Y-172118514D01*
X210613645Y-172011157D01*
X211039803Y-171584999D01*
X213664527Y-171584999D01*
X213665000Y-171664250D01*
X213823750Y-171823000D01*
X214973000Y-171823000D01*
X214973000Y-171803000D01*
X215227000Y-171803000D01*
X215227000Y-171823000D01*
X216376250Y-171823000D01*
X216535000Y-171664250D01*
X216535473Y-171584999D01*
X218740198Y-171584999D01*
X221321312Y-174166114D01*
X221285000Y-174348665D01*
X221285000Y-174520199D01*
X220743804Y-173979003D01*
X220720001Y-173949999D01*
X220604276Y-173855026D01*
X220472247Y-173784454D01*
X220328986Y-173740997D01*
X220217333Y-173730000D01*
X220217322Y-173730000D01*
X220180000Y-173726324D01*
X220142678Y-173730000D01*
X216318043Y-173730000D01*
X216214637Y-173575241D01*
X216016039Y-173376643D01*
X216024482Y-173375812D01*
X216144180Y-173339502D01*
X216254494Y-173280537D01*
X216351185Y-173201185D01*
X216430537Y-173104494D01*
X216489502Y-172994180D01*
X216525812Y-172874482D01*
X216538072Y-172750000D01*
X216535000Y-172235750D01*
X216376250Y-172077000D01*
X215227000Y-172077000D01*
X215227000Y-172097000D01*
X214973000Y-172097000D01*
X214973000Y-172077000D01*
X213823750Y-172077000D01*
X213665000Y-172235750D01*
X213661928Y-172750000D01*
X213674188Y-172874482D01*
X213710498Y-172994180D01*
X213769463Y-173104494D01*
X213848815Y-173201185D01*
X213945506Y-173280537D01*
X214055820Y-173339502D01*
X214175518Y-173375812D01*
X214183961Y-173376643D01*
X213985363Y-173575241D01*
X213881957Y-173730000D01*
X204234803Y-173730000D01*
X202993645Y-172488843D01*
X203015000Y-172381486D01*
X203015000Y-172118514D01*
X202963696Y-171860595D01*
X202863061Y-171617641D01*
X202716962Y-171398987D01*
X202531013Y-171213038D01*
X202312359Y-171066939D01*
X202069405Y-170966304D01*
X201811486Y-170915000D01*
X201548514Y-170915000D01*
X201441157Y-170936355D01*
X199343804Y-168839003D01*
X199320001Y-168809999D01*
X199204276Y-168715026D01*
X199072247Y-168644454D01*
X198928986Y-168600997D01*
X198817333Y-168590000D01*
X198817322Y-168590000D01*
X198780000Y-168586324D01*
X198742678Y-168590000D01*
X195838072Y-168590000D01*
X195838072Y-168550000D01*
X195830047Y-168468514D01*
X200345000Y-168468514D01*
X200345000Y-168731486D01*
X200396304Y-168989405D01*
X200496939Y-169232359D01*
X200643038Y-169451013D01*
X200828987Y-169636962D01*
X201047641Y-169783061D01*
X201290595Y-169883696D01*
X201548514Y-169935000D01*
X201811486Y-169935000D01*
X202069405Y-169883696D01*
X202312359Y-169783061D01*
X202531013Y-169636962D01*
X202716962Y-169451013D01*
X202863061Y-169232359D01*
X202963696Y-168989405D01*
X203015000Y-168731486D01*
X203015000Y-168468514D01*
X207965000Y-168468514D01*
X207965000Y-168731486D01*
X208016304Y-168989405D01*
X208116939Y-169232359D01*
X208263038Y-169451013D01*
X208448987Y-169636962D01*
X208667641Y-169783061D01*
X208910595Y-169883696D01*
X209168514Y-169935000D01*
X209431486Y-169935000D01*
X209689405Y-169883696D01*
X209932359Y-169783061D01*
X210151013Y-169636962D01*
X210336962Y-169451013D01*
X210483061Y-169232359D01*
X210583696Y-168989405D01*
X210635000Y-168731486D01*
X210635000Y-168468514D01*
X210583696Y-168210595D01*
X210483061Y-167967641D01*
X210336962Y-167748987D01*
X210151013Y-167563038D01*
X209932359Y-167416939D01*
X209689405Y-167316304D01*
X209431486Y-167265000D01*
X209168514Y-167265000D01*
X208910595Y-167316304D01*
X208667641Y-167416939D01*
X208448987Y-167563038D01*
X208263038Y-167748987D01*
X208116939Y-167967641D01*
X208016304Y-168210595D01*
X207965000Y-168468514D01*
X203015000Y-168468514D01*
X202963696Y-168210595D01*
X202863061Y-167967641D01*
X202716962Y-167748987D01*
X202531013Y-167563038D01*
X202312359Y-167416939D01*
X202069405Y-167316304D01*
X201811486Y-167265000D01*
X201548514Y-167265000D01*
X201290595Y-167316304D01*
X201047641Y-167416939D01*
X200828987Y-167563038D01*
X200643038Y-167748987D01*
X200496939Y-167967641D01*
X200396304Y-168210595D01*
X200345000Y-168468514D01*
X195830047Y-168468514D01*
X195825812Y-168425518D01*
X195789502Y-168305820D01*
X195730537Y-168195506D01*
X195651185Y-168098815D01*
X195554494Y-168019463D01*
X195444180Y-167960498D01*
X195324482Y-167924188D01*
X195200000Y-167911928D01*
X193600000Y-167911928D01*
X193475518Y-167924188D01*
X193355820Y-167960498D01*
X193245506Y-168019463D01*
X193148815Y-168098815D01*
X193069463Y-168195506D01*
X193010498Y-168305820D01*
X192974188Y-168425518D01*
X192961928Y-168550000D01*
X192961928Y-168557215D01*
X192892702Y-168536903D01*
X192079605Y-169350000D01*
X192892702Y-170163097D01*
X192961928Y-170142785D01*
X192961928Y-170150000D01*
X192974188Y-170274482D01*
X193010498Y-170394180D01*
X193069463Y-170504494D01*
X193148815Y-170601185D01*
X193245506Y-170680537D01*
X193355820Y-170739502D01*
X193475518Y-170775812D01*
X193600000Y-170788072D01*
X195200000Y-170788072D01*
X195324482Y-170775812D01*
X195444180Y-170739502D01*
X195554494Y-170680537D01*
X195651185Y-170601185D01*
X195730537Y-170504494D01*
X195789502Y-170394180D01*
X195825812Y-170274482D01*
X195838072Y-170150000D01*
X195838072Y-170110000D01*
X198465199Y-170110000D01*
X200366355Y-172011157D01*
X200345000Y-172118514D01*
X200345000Y-172381486D01*
X200396304Y-172639405D01*
X200496939Y-172882359D01*
X200643038Y-173101013D01*
X200828987Y-173286962D01*
X201047641Y-173433061D01*
X201290595Y-173533696D01*
X201548514Y-173585000D01*
X201811486Y-173585000D01*
X201918843Y-173563645D01*
X202717779Y-174362582D01*
X202705000Y-174361323D01*
X202667677Y-174364999D01*
X202667668Y-174364999D01*
X202556015Y-174375996D01*
X202412754Y-174419453D01*
X202280725Y-174490025D01*
X202165000Y-174584998D01*
X202141202Y-174613996D01*
X201918843Y-174836355D01*
X201811486Y-174815000D01*
X201548514Y-174815000D01*
X201290595Y-174866304D01*
X201047641Y-174966939D01*
X200828987Y-175113038D01*
X200643038Y-175298987D01*
X200496939Y-175517641D01*
X200396304Y-175760595D01*
X200345000Y-176018514D01*
X200345000Y-176281486D01*
X200396304Y-176539405D01*
X200496939Y-176782359D01*
X200643038Y-177001013D01*
X200828987Y-177186962D01*
X201047641Y-177333061D01*
X201290595Y-177433696D01*
X201548514Y-177485000D01*
X201811486Y-177485000D01*
X202069405Y-177433696D01*
X202312359Y-177333061D01*
X202531013Y-177186962D01*
X202716962Y-177001013D01*
X202863061Y-176782359D01*
X202963696Y-176539405D01*
X203015000Y-176281486D01*
X203015000Y-176018514D01*
X202993645Y-175911157D01*
X203019803Y-175884999D01*
X207991558Y-175884999D01*
X207965000Y-176018514D01*
X207965000Y-176281486D01*
X207986355Y-176388843D01*
X206705199Y-177670000D01*
X194617708Y-177670000D01*
X194651885Y-177606060D01*
X194718215Y-177387400D01*
X194740612Y-177160000D01*
X194718215Y-176932600D01*
X194651885Y-176713940D01*
X194544171Y-176512421D01*
X194399212Y-176335788D01*
X194222579Y-176190829D01*
X194021060Y-176083115D01*
X193802400Y-176016785D01*
X193631979Y-176000000D01*
X193068021Y-176000000D01*
X192897600Y-176016785D01*
X192678940Y-176083115D01*
X192477421Y-176190829D01*
X192300788Y-176335788D01*
X192155829Y-176512421D01*
X192048115Y-176713940D01*
X191981785Y-176932600D01*
X191959388Y-177160000D01*
X95110000Y-177160000D01*
X95110000Y-168450000D01*
X96982815Y-168450000D01*
X97011487Y-168741111D01*
X97096401Y-169021034D01*
X97234294Y-169279014D01*
X97419866Y-169505134D01*
X97483337Y-169557223D01*
X97381614Y-169611595D01*
X97247038Y-169722038D01*
X97136595Y-169856614D01*
X97054528Y-170010150D01*
X97003992Y-170176746D01*
X96986928Y-170350000D01*
X96986928Y-171550000D01*
X97003992Y-171723254D01*
X97054528Y-171889850D01*
X97136595Y-172043386D01*
X97247038Y-172177962D01*
X97381614Y-172288405D01*
X97535150Y-172370472D01*
X97701746Y-172421008D01*
X97875000Y-172438072D01*
X99325000Y-172438072D01*
X99498254Y-172421008D01*
X99664850Y-172370472D01*
X99818386Y-172288405D01*
X99952962Y-172177962D01*
X100063405Y-172043386D01*
X100145472Y-171889850D01*
X100196008Y-171723254D01*
X100213072Y-171550000D01*
X100213072Y-170350000D01*
X100212354Y-170342702D01*
X191086903Y-170342702D01*
X191158486Y-170586671D01*
X191413996Y-170707571D01*
X191688184Y-170776300D01*
X191970512Y-170790217D01*
X192250130Y-170748787D01*
X192516292Y-170653603D01*
X192641514Y-170586671D01*
X192713097Y-170342702D01*
X191900000Y-169529605D01*
X191086903Y-170342702D01*
X100212354Y-170342702D01*
X100196008Y-170176746D01*
X100145472Y-170010150D01*
X100063405Y-169856614D01*
X99952962Y-169722038D01*
X99818386Y-169611595D01*
X99716663Y-169557223D01*
X99780134Y-169505134D01*
X99849581Y-169420512D01*
X190459783Y-169420512D01*
X190501213Y-169700130D01*
X190596397Y-169966292D01*
X190663329Y-170091514D01*
X190907298Y-170163097D01*
X191720395Y-169350000D01*
X190907298Y-168536903D01*
X190663329Y-168608486D01*
X190542429Y-168863996D01*
X190473700Y-169138184D01*
X190459783Y-169420512D01*
X99849581Y-169420512D01*
X99965706Y-169279014D01*
X100103599Y-169021034D01*
X100188513Y-168741111D01*
X100217185Y-168450000D01*
X100208055Y-168357298D01*
X191086903Y-168357298D01*
X191900000Y-169170395D01*
X192713097Y-168357298D01*
X192641514Y-168113329D01*
X192386004Y-167992429D01*
X192111816Y-167923700D01*
X191829488Y-167909783D01*
X191549870Y-167951213D01*
X191283708Y-168046397D01*
X191158486Y-168113329D01*
X191086903Y-168357298D01*
X100208055Y-168357298D01*
X100188513Y-168158889D01*
X100136704Y-167988097D01*
X106289802Y-161835000D01*
X137367091Y-161835000D01*
X137449201Y-161957886D01*
X137642114Y-162150799D01*
X137868957Y-162302371D01*
X138121011Y-162406775D01*
X138388589Y-162460000D01*
X138661411Y-162460000D01*
X138806365Y-162431167D01*
X139036202Y-162661004D01*
X139060000Y-162690002D01*
X139088998Y-162713800D01*
X139175724Y-162784975D01*
X139307754Y-162855547D01*
X139451015Y-162899004D01*
X139562668Y-162910001D01*
X139562678Y-162910001D01*
X139600001Y-162913677D01*
X139637323Y-162910001D01*
X171887677Y-162910001D01*
X171924999Y-162913677D01*
X171962321Y-162910001D01*
X171962332Y-162910001D01*
X172073985Y-162899004D01*
X172217246Y-162855547D01*
X172349275Y-162784975D01*
X172465000Y-162690002D01*
X172488803Y-162660999D01*
X172718635Y-162431167D01*
X172863589Y-162460000D01*
X173136411Y-162460000D01*
X173281365Y-162431167D01*
X173511202Y-162661004D01*
X173535000Y-162690002D01*
X173563998Y-162713800D01*
X173650724Y-162784975D01*
X173782754Y-162855547D01*
X173926015Y-162899004D01*
X174037668Y-162910001D01*
X174037678Y-162910001D01*
X174075001Y-162913677D01*
X174112323Y-162910001D01*
X201587677Y-162910001D01*
X201624999Y-162913677D01*
X201662321Y-162910001D01*
X201662332Y-162910001D01*
X201773985Y-162899004D01*
X201917246Y-162855547D01*
X202049275Y-162784975D01*
X202165000Y-162690002D01*
X202188803Y-162660998D01*
X208986730Y-155863072D01*
X209813271Y-155863072D01*
X215536200Y-161586002D01*
X215559999Y-161615001D01*
X215675724Y-161709974D01*
X215807753Y-161780546D01*
X215951014Y-161824003D01*
X216062667Y-161835000D01*
X216062677Y-161835000D01*
X216100000Y-161838676D01*
X216137323Y-161835000D01*
X237842091Y-161835000D01*
X237924201Y-161957886D01*
X238117114Y-162150799D01*
X238343957Y-162302371D01*
X238596011Y-162406775D01*
X238863589Y-162460000D01*
X239136411Y-162460000D01*
X239281365Y-162431167D01*
X239511202Y-162661004D01*
X239535000Y-162690002D01*
X239563998Y-162713800D01*
X239650724Y-162784975D01*
X239782754Y-162855547D01*
X239926015Y-162899004D01*
X240037668Y-162910001D01*
X240037678Y-162910001D01*
X240075001Y-162913677D01*
X240112323Y-162910001D01*
X272362677Y-162910001D01*
X272399999Y-162913677D01*
X272437321Y-162910001D01*
X272437332Y-162910001D01*
X272548985Y-162899004D01*
X272692246Y-162855547D01*
X272824275Y-162784975D01*
X272940000Y-162690002D01*
X272963803Y-162660999D01*
X273193635Y-162431167D01*
X273338589Y-162460000D01*
X273611411Y-162460000D01*
X273878989Y-162406775D01*
X274131043Y-162302371D01*
X274357886Y-162150799D01*
X274550799Y-161957886D01*
X274702371Y-161731043D01*
X274806775Y-161478989D01*
X274860000Y-161211411D01*
X274860000Y-160938589D01*
X274806775Y-160671011D01*
X274702371Y-160418957D01*
X274550799Y-160192114D01*
X274357886Y-159999201D01*
X274131043Y-159847629D01*
X273878989Y-159743225D01*
X273611411Y-159690000D01*
X273338589Y-159690000D01*
X273071011Y-159743225D01*
X272818957Y-159847629D01*
X272592114Y-159999201D01*
X272399201Y-160192114D01*
X272247629Y-160418957D01*
X272143225Y-160671011D01*
X272090000Y-160938589D01*
X272090000Y-161211411D01*
X272118833Y-161356365D01*
X272085198Y-161390001D01*
X247620460Y-161390001D01*
X250186024Y-158824438D01*
X250215021Y-158800641D01*
X250241352Y-158768557D01*
X250309994Y-158684917D01*
X250380566Y-158552887D01*
X250392059Y-158515000D01*
X250424023Y-158409626D01*
X250435020Y-158297973D01*
X250435020Y-158297964D01*
X250438696Y-158260641D01*
X250435020Y-158223318D01*
X250435020Y-136900010D01*
X269286314Y-136900010D01*
X269289991Y-136937343D01*
X269289990Y-156412668D01*
X269286314Y-156449990D01*
X269289990Y-156487312D01*
X269289990Y-156487322D01*
X269300987Y-156598975D01*
X269334698Y-156710107D01*
X269344444Y-156742236D01*
X269415016Y-156874266D01*
X269435480Y-156899201D01*
X269509989Y-156989991D01*
X269538993Y-157013794D01*
X270218833Y-157693635D01*
X270190000Y-157838589D01*
X270190000Y-158111411D01*
X270243225Y-158378989D01*
X270347629Y-158631043D01*
X270499201Y-158857886D01*
X270692114Y-159050799D01*
X270918957Y-159202371D01*
X271171011Y-159306775D01*
X271438589Y-159360000D01*
X271711411Y-159360000D01*
X271978989Y-159306775D01*
X272231043Y-159202371D01*
X272457886Y-159050799D01*
X272650799Y-158857886D01*
X272802371Y-158631043D01*
X272906775Y-158378989D01*
X272960000Y-158111411D01*
X272960000Y-157838589D01*
X272906775Y-157571011D01*
X272802371Y-157318957D01*
X272650799Y-157092114D01*
X272457886Y-156899201D01*
X272231043Y-156747629D01*
X271978989Y-156643225D01*
X271711411Y-156590000D01*
X271438589Y-156590000D01*
X271293635Y-156618833D01*
X270809990Y-156135189D01*
X270809990Y-155640078D01*
X270971011Y-155706775D01*
X271238589Y-155760000D01*
X271511411Y-155760000D01*
X271778989Y-155706775D01*
X272031043Y-155602371D01*
X272257886Y-155450799D01*
X272450799Y-155257886D01*
X272602371Y-155031043D01*
X272706775Y-154778989D01*
X272760000Y-154511411D01*
X272760000Y-154238589D01*
X272735511Y-154115475D01*
X274240000Y-154115475D01*
X274240000Y-154634525D01*
X274341261Y-155143601D01*
X274539893Y-155623141D01*
X274828262Y-156054715D01*
X275195285Y-156421738D01*
X275626859Y-156710107D01*
X276106399Y-156908739D01*
X276615475Y-157010000D01*
X277134525Y-157010000D01*
X277643601Y-156908739D01*
X278123141Y-156710107D01*
X278554715Y-156421738D01*
X278921738Y-156054715D01*
X279210107Y-155623141D01*
X279408739Y-155143601D01*
X279510000Y-154634525D01*
X279510000Y-154115475D01*
X279408739Y-153606399D01*
X279210107Y-153126859D01*
X278921738Y-152695285D01*
X278554715Y-152328262D01*
X278123141Y-152039893D01*
X277643601Y-151841261D01*
X277134525Y-151740000D01*
X276615475Y-151740000D01*
X276106399Y-151841261D01*
X275626859Y-152039893D01*
X275195285Y-152328262D01*
X274828262Y-152695285D01*
X274539893Y-153126859D01*
X274341261Y-153606399D01*
X274240000Y-154115475D01*
X272735511Y-154115475D01*
X272706775Y-153971011D01*
X272602371Y-153718957D01*
X272450799Y-153492114D01*
X272257886Y-153299201D01*
X272031043Y-153147629D01*
X271778989Y-153043225D01*
X271511411Y-152990000D01*
X271259999Y-152990000D01*
X271259999Y-152124476D01*
X271438589Y-152160000D01*
X271711411Y-152160000D01*
X271978989Y-152106775D01*
X272231043Y-152002371D01*
X272457886Y-151850799D01*
X272650799Y-151657886D01*
X272802371Y-151431043D01*
X272906775Y-151178989D01*
X272960000Y-150911411D01*
X272960000Y-150638589D01*
X272906775Y-150371011D01*
X272802371Y-150118957D01*
X272650799Y-149892114D01*
X272457886Y-149699201D01*
X272335000Y-149617091D01*
X272335000Y-148361803D01*
X272399201Y-148457886D01*
X272592114Y-148650799D01*
X272818957Y-148802371D01*
X273071011Y-148906775D01*
X273338589Y-148960000D01*
X273611411Y-148960000D01*
X273878989Y-148906775D01*
X274131043Y-148802371D01*
X274357886Y-148650799D01*
X274550799Y-148457886D01*
X274702371Y-148231043D01*
X274806775Y-147978989D01*
X274860000Y-147711411D01*
X274860000Y-147438589D01*
X274806775Y-147171011D01*
X274702371Y-146918957D01*
X274550799Y-146692114D01*
X274357886Y-146499201D01*
X274235000Y-146417091D01*
X274235000Y-141289801D01*
X287638098Y-127886704D01*
X287808890Y-127938513D01*
X287925227Y-127949971D01*
X276363998Y-139511201D01*
X276335000Y-139534999D01*
X276311202Y-139563997D01*
X276311201Y-139563998D01*
X276240026Y-139650724D01*
X276169454Y-139782754D01*
X276144810Y-139863998D01*
X276125998Y-139926014D01*
X276120090Y-139986002D01*
X276111324Y-140075000D01*
X276115001Y-140112332D01*
X276115000Y-145217091D01*
X275992114Y-145299201D01*
X275799201Y-145492114D01*
X275647629Y-145718957D01*
X275543225Y-145971011D01*
X275490000Y-146238589D01*
X275490000Y-146511411D01*
X275543225Y-146778989D01*
X275647629Y-147031043D01*
X275799201Y-147257886D01*
X275992114Y-147450799D01*
X276218957Y-147602371D01*
X276471011Y-147706775D01*
X276738589Y-147760000D01*
X277011411Y-147760000D01*
X277278989Y-147706775D01*
X277531043Y-147602371D01*
X277757886Y-147450799D01*
X277950799Y-147257886D01*
X278102371Y-147031043D01*
X278206775Y-146778989D01*
X278260000Y-146511411D01*
X278260000Y-146238589D01*
X278206775Y-145971011D01*
X278102371Y-145718957D01*
X277950799Y-145492114D01*
X277757886Y-145299201D01*
X277635000Y-145217091D01*
X277635000Y-140389801D01*
X290138098Y-127886704D01*
X290308890Y-127938513D01*
X290425227Y-127949971D01*
X279763998Y-138611201D01*
X279735000Y-138634999D01*
X279711202Y-138663997D01*
X279711201Y-138663998D01*
X279640026Y-138750724D01*
X279569454Y-138882754D01*
X279551408Y-138942246D01*
X279525998Y-139026014D01*
X279518811Y-139098986D01*
X279511324Y-139175000D01*
X279515001Y-139212332D01*
X279515000Y-146417091D01*
X279392114Y-146499201D01*
X279199201Y-146692114D01*
X279047629Y-146918957D01*
X278943225Y-147171011D01*
X278890000Y-147438589D01*
X278890000Y-147711411D01*
X278943225Y-147978989D01*
X279047629Y-148231043D01*
X279199201Y-148457886D01*
X279392114Y-148650799D01*
X279618957Y-148802371D01*
X279871011Y-148906775D01*
X280138589Y-148960000D01*
X280411411Y-148960000D01*
X280678989Y-148906775D01*
X280931043Y-148802371D01*
X281157886Y-148650799D01*
X281350799Y-148457886D01*
X281415000Y-148361802D01*
X281415000Y-149617091D01*
X281292114Y-149699201D01*
X281099201Y-149892114D01*
X280947629Y-150118957D01*
X280843225Y-150371011D01*
X280790000Y-150638589D01*
X280790000Y-150911411D01*
X280843225Y-151178989D01*
X280947629Y-151431043D01*
X281099201Y-151657886D01*
X281292114Y-151850799D01*
X281518957Y-152002371D01*
X281771011Y-152106775D01*
X282038589Y-152160000D01*
X282311411Y-152160000D01*
X282578989Y-152106775D01*
X282831043Y-152002371D01*
X283057886Y-151850799D01*
X283250799Y-151657886D01*
X283402371Y-151431043D01*
X283506775Y-151178989D01*
X283560000Y-150911411D01*
X283560000Y-150638589D01*
X283506775Y-150371011D01*
X283402371Y-150118957D01*
X283250799Y-149892114D01*
X283057886Y-149699201D01*
X282935000Y-149617091D01*
X282935000Y-140089801D01*
X295138098Y-127886704D01*
X295308890Y-127938513D01*
X295600000Y-127967185D01*
X295891111Y-127938513D01*
X296171034Y-127853599D01*
X296429014Y-127715706D01*
X296655134Y-127530134D01*
X296840706Y-127304014D01*
X296850000Y-127286626D01*
X296859294Y-127304014D01*
X297044866Y-127530134D01*
X297270987Y-127715706D01*
X297340001Y-127752595D01*
X297340000Y-138335198D01*
X282656365Y-153018833D01*
X282511411Y-152990000D01*
X282238589Y-152990000D01*
X281971011Y-153043225D01*
X281718957Y-153147629D01*
X281492114Y-153299201D01*
X281299201Y-153492114D01*
X281147629Y-153718957D01*
X281043225Y-153971011D01*
X280990000Y-154238589D01*
X280990000Y-154511411D01*
X281043225Y-154778989D01*
X281147629Y-155031043D01*
X281299201Y-155257886D01*
X281492114Y-155450799D01*
X281718957Y-155602371D01*
X281971011Y-155706775D01*
X282238589Y-155760000D01*
X282511411Y-155760000D01*
X282778989Y-155706775D01*
X283031043Y-155602371D01*
X283257886Y-155450799D01*
X283450799Y-155257886D01*
X283602371Y-155031043D01*
X283706775Y-154778989D01*
X283760000Y-154511411D01*
X283760000Y-154238589D01*
X283731167Y-154093635D01*
X298611004Y-139213798D01*
X298640001Y-139190001D01*
X298734974Y-139074276D01*
X298805546Y-138942247D01*
X298849003Y-138798986D01*
X298860000Y-138687333D01*
X298860000Y-138687324D01*
X298863676Y-138650001D01*
X298860000Y-138612678D01*
X298860000Y-127752595D01*
X298929014Y-127715706D01*
X299155134Y-127530134D01*
X299340706Y-127304014D01*
X299350000Y-127286626D01*
X299359294Y-127304014D01*
X299544866Y-127530134D01*
X299770987Y-127715706D01*
X299840001Y-127752595D01*
X299840000Y-139235198D01*
X282456365Y-156618833D01*
X282311411Y-156590000D01*
X282038589Y-156590000D01*
X281771011Y-156643225D01*
X281518957Y-156747629D01*
X281292114Y-156899201D01*
X281099201Y-157092114D01*
X280947629Y-157318957D01*
X280843225Y-157571011D01*
X280790000Y-157838589D01*
X280790000Y-158111411D01*
X280843225Y-158378989D01*
X280947629Y-158631043D01*
X281099201Y-158857886D01*
X281292114Y-159050799D01*
X281518957Y-159202371D01*
X281771011Y-159306775D01*
X281986267Y-159349592D01*
X281247272Y-160088587D01*
X281157886Y-159999201D01*
X280931043Y-159847629D01*
X280678989Y-159743225D01*
X280411411Y-159690000D01*
X280138589Y-159690000D01*
X279871011Y-159743225D01*
X279618957Y-159847629D01*
X279392114Y-159999201D01*
X279199201Y-160192114D01*
X279047629Y-160418957D01*
X278943225Y-160671011D01*
X278890000Y-160938589D01*
X278890000Y-161211411D01*
X278943225Y-161478989D01*
X279047629Y-161731043D01*
X279199201Y-161957886D01*
X279392114Y-162150799D01*
X279618957Y-162302371D01*
X279871011Y-162406775D01*
X280138589Y-162460000D01*
X280411411Y-162460000D01*
X280678989Y-162406775D01*
X280931043Y-162302371D01*
X281157886Y-162150799D01*
X281350799Y-161957886D01*
X281437130Y-161828683D01*
X281484646Y-161824003D01*
X281627907Y-161780546D01*
X281759936Y-161709974D01*
X281875661Y-161615001D01*
X281899464Y-161585997D01*
X303611004Y-139874458D01*
X303640001Y-139850661D01*
X303734974Y-139734936D01*
X303805546Y-139602907D01*
X303849003Y-139459646D01*
X303860000Y-139347993D01*
X303860000Y-139347983D01*
X303863676Y-139310660D01*
X303860000Y-139273337D01*
X303860000Y-127752595D01*
X303929014Y-127715706D01*
X304155134Y-127530134D01*
X304340706Y-127304014D01*
X304478599Y-127046033D01*
X304563513Y-126766110D01*
X304585000Y-126547949D01*
X304585000Y-126152050D01*
X304563513Y-125933889D01*
X304478599Y-125653966D01*
X304340706Y-125395986D01*
X304155134Y-125169866D01*
X303929013Y-124984294D01*
X303671033Y-124846401D01*
X303391110Y-124761487D01*
X303100000Y-124732815D01*
X302808889Y-124761487D01*
X302528966Y-124846401D01*
X302270986Y-124984294D01*
X302044866Y-125169866D01*
X301859294Y-125395987D01*
X301850000Y-125413374D01*
X301840706Y-125395986D01*
X301655134Y-125169866D01*
X301429013Y-124984294D01*
X301171033Y-124846401D01*
X300891110Y-124761487D01*
X300600000Y-124732815D01*
X300308889Y-124761487D01*
X300028966Y-124846401D01*
X299770986Y-124984294D01*
X299544866Y-125169866D01*
X299359294Y-125395987D01*
X299350000Y-125413374D01*
X299340706Y-125395986D01*
X299155134Y-125169866D01*
X298929013Y-124984294D01*
X298671033Y-124846401D01*
X298391110Y-124761487D01*
X298100000Y-124732815D01*
X297808889Y-124761487D01*
X297528966Y-124846401D01*
X297270986Y-124984294D01*
X297044866Y-125169866D01*
X296859294Y-125395987D01*
X296850000Y-125413374D01*
X296840706Y-125395986D01*
X296655134Y-125169866D01*
X296429013Y-124984294D01*
X296171033Y-124846401D01*
X295891110Y-124761487D01*
X295600000Y-124732815D01*
X295308889Y-124761487D01*
X295028966Y-124846401D01*
X294770986Y-124984294D01*
X294544866Y-125169866D01*
X294359294Y-125395987D01*
X294350000Y-125413374D01*
X294340706Y-125395986D01*
X294155134Y-125169866D01*
X293929013Y-124984294D01*
X293671033Y-124846401D01*
X293391110Y-124761487D01*
X293100000Y-124732815D01*
X292808889Y-124761487D01*
X292528966Y-124846401D01*
X292270986Y-124984294D01*
X292044866Y-125169866D01*
X291859294Y-125395987D01*
X291850000Y-125413374D01*
X291840706Y-125395986D01*
X291655134Y-125169866D01*
X291429013Y-124984294D01*
X291171033Y-124846401D01*
X290891110Y-124761487D01*
X290600000Y-124732815D01*
X290308889Y-124761487D01*
X290028966Y-124846401D01*
X289770986Y-124984294D01*
X289544866Y-125169866D01*
X289359294Y-125395987D01*
X289350000Y-125413374D01*
X289340706Y-125395986D01*
X289155134Y-125169866D01*
X288929013Y-124984294D01*
X288671033Y-124846401D01*
X288391110Y-124761487D01*
X288100000Y-124732815D01*
X287808889Y-124761487D01*
X287528966Y-124846401D01*
X287270986Y-124984294D01*
X287044866Y-125169866D01*
X286859294Y-125395987D01*
X286850000Y-125413374D01*
X286840706Y-125395986D01*
X286655134Y-125169866D01*
X286429013Y-124984294D01*
X286171033Y-124846401D01*
X285891110Y-124761487D01*
X285600000Y-124732815D01*
X285308889Y-124761487D01*
X285028966Y-124846401D01*
X284770986Y-124984294D01*
X284544866Y-125169866D01*
X284359294Y-125395987D01*
X284350000Y-125413374D01*
X284340706Y-125395986D01*
X284155134Y-125169866D01*
X283929013Y-124984294D01*
X283671033Y-124846401D01*
X283391110Y-124761487D01*
X283100000Y-124732815D01*
X282808889Y-124761487D01*
X282528966Y-124846401D01*
X282270986Y-124984294D01*
X282044866Y-125169866D01*
X281992777Y-125233337D01*
X281938405Y-125131614D01*
X281827962Y-124997038D01*
X281693386Y-124886595D01*
X281539850Y-124804528D01*
X281373254Y-124753992D01*
X281200000Y-124736928D01*
X280000000Y-124736928D01*
X279826746Y-124753992D01*
X279660150Y-124804528D01*
X279506614Y-124886595D01*
X279372038Y-124997038D01*
X279261595Y-125131614D01*
X279179528Y-125285150D01*
X279128992Y-125451746D01*
X279111928Y-125625000D01*
X279111928Y-126763270D01*
X269538988Y-136336211D01*
X269509990Y-136360009D01*
X269486192Y-136389007D01*
X269486191Y-136389008D01*
X269415016Y-136475734D01*
X269344444Y-136607764D01*
X269300988Y-136751025D01*
X269286314Y-136900010D01*
X250435020Y-136900010D01*
X250435020Y-128362342D01*
X250438696Y-128325019D01*
X250435020Y-128287696D01*
X250435020Y-128287687D01*
X250424023Y-128176034D01*
X250380566Y-128032773D01*
X250343805Y-127963999D01*
X250309994Y-127900743D01*
X250238819Y-127814017D01*
X250215021Y-127785019D01*
X250186023Y-127761221D01*
X249165970Y-126741168D01*
X249185000Y-126547949D01*
X249185000Y-126152050D01*
X249163513Y-125933889D01*
X249078599Y-125653966D01*
X248940706Y-125395986D01*
X248755134Y-125169866D01*
X248529013Y-124984294D01*
X248271033Y-124846401D01*
X247991110Y-124761487D01*
X247700000Y-124732815D01*
X247408889Y-124761487D01*
X247128966Y-124846401D01*
X246870986Y-124984294D01*
X246644866Y-125169866D01*
X246459294Y-125395987D01*
X246450000Y-125413374D01*
X246440706Y-125395986D01*
X246255134Y-125169866D01*
X246029013Y-124984294D01*
X245771033Y-124846401D01*
X245491110Y-124761487D01*
X245200000Y-124732815D01*
X244908889Y-124761487D01*
X244628966Y-124846401D01*
X244370986Y-124984294D01*
X244144866Y-125169866D01*
X243959294Y-125395987D01*
X243950000Y-125413374D01*
X243940706Y-125395986D01*
X243755134Y-125169866D01*
X243529013Y-124984294D01*
X243271033Y-124846401D01*
X242991110Y-124761487D01*
X242700000Y-124732815D01*
X242408889Y-124761487D01*
X242128966Y-124846401D01*
X241870986Y-124984294D01*
X241644866Y-125169866D01*
X241459294Y-125395987D01*
X241450000Y-125413374D01*
X241440706Y-125395986D01*
X241255134Y-125169866D01*
X241029013Y-124984294D01*
X240771033Y-124846401D01*
X240491110Y-124761487D01*
X240200000Y-124732815D01*
X239908889Y-124761487D01*
X239628966Y-124846401D01*
X239370986Y-124984294D01*
X239144866Y-125169866D01*
X238959294Y-125395987D01*
X238950000Y-125413374D01*
X238940706Y-125395986D01*
X238755134Y-125169866D01*
X238529013Y-124984294D01*
X238271033Y-124846401D01*
X237991110Y-124761487D01*
X237700000Y-124732815D01*
X237408889Y-124761487D01*
X237128966Y-124846401D01*
X236870986Y-124984294D01*
X236644866Y-125169866D01*
X236459294Y-125395987D01*
X236450000Y-125413374D01*
X236440706Y-125395986D01*
X236255134Y-125169866D01*
X236029013Y-124984294D01*
X235771033Y-124846401D01*
X235491110Y-124761487D01*
X235200000Y-124732815D01*
X234908889Y-124761487D01*
X234628966Y-124846401D01*
X234370986Y-124984294D01*
X234144866Y-125169866D01*
X233959294Y-125395987D01*
X233950000Y-125413374D01*
X233940706Y-125395986D01*
X233755134Y-125169866D01*
X233529013Y-124984294D01*
X233271033Y-124846401D01*
X232991110Y-124761487D01*
X232700000Y-124732815D01*
X232408889Y-124761487D01*
X232128966Y-124846401D01*
X231870986Y-124984294D01*
X231644866Y-125169866D01*
X231459294Y-125395987D01*
X231450000Y-125413374D01*
X231440706Y-125395986D01*
X231255134Y-125169866D01*
X231029013Y-124984294D01*
X230771033Y-124846401D01*
X230491110Y-124761487D01*
X230200000Y-124732815D01*
X229908889Y-124761487D01*
X229628966Y-124846401D01*
X229370986Y-124984294D01*
X229144866Y-125169866D01*
X228959294Y-125395987D01*
X228950000Y-125413374D01*
X228940706Y-125395986D01*
X228755134Y-125169866D01*
X228529013Y-124984294D01*
X228271033Y-124846401D01*
X227991110Y-124761487D01*
X227700000Y-124732815D01*
X227408889Y-124761487D01*
X227128966Y-124846401D01*
X226870986Y-124984294D01*
X226644866Y-125169866D01*
X226592777Y-125233337D01*
X226538405Y-125131614D01*
X226427962Y-124997038D01*
X226293386Y-124886595D01*
X226139850Y-124804528D01*
X225973254Y-124753992D01*
X225800000Y-124736928D01*
X224600000Y-124736928D01*
X224426746Y-124753992D01*
X224260150Y-124804528D01*
X224106614Y-124886595D01*
X223972038Y-124997038D01*
X223861595Y-125131614D01*
X223779528Y-125285150D01*
X223728992Y-125451746D01*
X223711928Y-125625000D01*
X223711928Y-127075000D01*
X223728992Y-127248254D01*
X223779528Y-127414850D01*
X223861595Y-127568386D01*
X223972038Y-127702962D01*
X224106614Y-127813405D01*
X224260150Y-127895472D01*
X224426746Y-127946008D01*
X224440000Y-127947313D01*
X224440001Y-146037667D01*
X224436324Y-146075000D01*
X224450998Y-146223985D01*
X224494454Y-146367246D01*
X224565026Y-146499276D01*
X224636201Y-146586002D01*
X224660000Y-146615001D01*
X224688998Y-146638799D01*
X235743833Y-157693636D01*
X235715000Y-157838589D01*
X235715000Y-158111411D01*
X235768225Y-158378989D01*
X235872629Y-158631043D01*
X236024201Y-158857886D01*
X236217114Y-159050799D01*
X236443957Y-159202371D01*
X236696011Y-159306775D01*
X236963589Y-159360000D01*
X237236411Y-159360000D01*
X237503989Y-159306775D01*
X237756043Y-159202371D01*
X237982886Y-159050799D01*
X238175799Y-158857886D01*
X238327371Y-158631043D01*
X238431775Y-158378989D01*
X238485000Y-158111411D01*
X238485000Y-157838589D01*
X238431775Y-157571011D01*
X238327371Y-157318957D01*
X238175799Y-157092114D01*
X237982886Y-156899201D01*
X237756043Y-156747629D01*
X237503989Y-156643225D01*
X237236411Y-156590000D01*
X236963589Y-156590000D01*
X236818636Y-156618833D01*
X225960000Y-145760199D01*
X225960000Y-127947313D01*
X225973254Y-127946008D01*
X226139850Y-127895472D01*
X226293386Y-127813405D01*
X226427962Y-127702962D01*
X226538405Y-127568386D01*
X226592777Y-127466663D01*
X226644866Y-127530134D01*
X226870987Y-127715706D01*
X226940000Y-127752594D01*
X226940001Y-145137667D01*
X226936324Y-145175000D01*
X226940001Y-145212333D01*
X226950998Y-145323986D01*
X226955454Y-145338676D01*
X226994454Y-145467246D01*
X227065026Y-145599276D01*
X227107249Y-145650724D01*
X227160000Y-145715001D01*
X227188998Y-145738799D01*
X235543833Y-154093635D01*
X235515000Y-154238589D01*
X235515000Y-154511411D01*
X235568225Y-154778989D01*
X235672629Y-155031043D01*
X235824201Y-155257886D01*
X236017114Y-155450799D01*
X236243957Y-155602371D01*
X236496011Y-155706775D01*
X236763589Y-155760000D01*
X237036411Y-155760000D01*
X237303989Y-155706775D01*
X237556043Y-155602371D01*
X237782886Y-155450799D01*
X237975799Y-155257886D01*
X238127371Y-155031043D01*
X238231775Y-154778989D01*
X238285000Y-154511411D01*
X238285000Y-154238589D01*
X238260511Y-154115475D01*
X239765000Y-154115475D01*
X239765000Y-154634525D01*
X239866261Y-155143601D01*
X240064893Y-155623141D01*
X240353262Y-156054715D01*
X240720285Y-156421738D01*
X241151859Y-156710107D01*
X241631399Y-156908739D01*
X242140475Y-157010000D01*
X242659525Y-157010000D01*
X243168601Y-156908739D01*
X243648141Y-156710107D01*
X244079715Y-156421738D01*
X244446738Y-156054715D01*
X244735107Y-155623141D01*
X244933739Y-155143601D01*
X245035000Y-154634525D01*
X245035000Y-154115475D01*
X244933739Y-153606399D01*
X244735107Y-153126859D01*
X244446738Y-152695285D01*
X244079715Y-152328262D01*
X243648141Y-152039893D01*
X243168601Y-151841261D01*
X242659525Y-151740000D01*
X242140475Y-151740000D01*
X241631399Y-151841261D01*
X241151859Y-152039893D01*
X240720285Y-152328262D01*
X240353262Y-152695285D01*
X240064893Y-153126859D01*
X239866261Y-153606399D01*
X239765000Y-154115475D01*
X238260511Y-154115475D01*
X238231775Y-153971011D01*
X238127371Y-153718957D01*
X237975799Y-153492114D01*
X237782886Y-153299201D01*
X237556043Y-153147629D01*
X237303989Y-153043225D01*
X237036411Y-152990000D01*
X236763589Y-152990000D01*
X236618635Y-153018833D01*
X228460000Y-144860199D01*
X228460000Y-127752595D01*
X228529014Y-127715706D01*
X228755134Y-127530134D01*
X228940706Y-127304014D01*
X228950000Y-127286626D01*
X228959294Y-127304014D01*
X229144866Y-127530134D01*
X229370987Y-127715706D01*
X229440000Y-127752594D01*
X229440001Y-143837667D01*
X229436324Y-143875000D01*
X229450998Y-144023985D01*
X229494454Y-144167246D01*
X229565026Y-144299276D01*
X229636201Y-144386002D01*
X229660000Y-144415001D01*
X229688998Y-144438799D01*
X235743833Y-150493635D01*
X235715000Y-150638589D01*
X235715000Y-150911411D01*
X235768225Y-151178989D01*
X235872629Y-151431043D01*
X236024201Y-151657886D01*
X236217114Y-151850799D01*
X236443957Y-152002371D01*
X236696011Y-152106775D01*
X236963589Y-152160000D01*
X237236411Y-152160000D01*
X237503989Y-152106775D01*
X237756043Y-152002371D01*
X237982886Y-151850799D01*
X238175799Y-151657886D01*
X238327371Y-151431043D01*
X238431775Y-151178989D01*
X238485000Y-150911411D01*
X238485000Y-150638589D01*
X238431775Y-150371011D01*
X238327371Y-150118957D01*
X238175799Y-149892114D01*
X237982886Y-149699201D01*
X237756043Y-149547629D01*
X237503989Y-149443225D01*
X237236411Y-149390000D01*
X236963589Y-149390000D01*
X236818635Y-149418833D01*
X230960000Y-143560199D01*
X230960000Y-127752595D01*
X231029014Y-127715706D01*
X231255134Y-127530134D01*
X231440706Y-127304014D01*
X231450000Y-127286626D01*
X231459294Y-127304014D01*
X231644866Y-127530134D01*
X231870987Y-127715706D01*
X231940000Y-127752594D01*
X231940001Y-141237668D01*
X231936324Y-141275000D01*
X231950998Y-141423985D01*
X231994454Y-141567246D01*
X232065026Y-141699276D01*
X232136201Y-141786002D01*
X232160000Y-141815001D01*
X232188998Y-141838799D01*
X237643833Y-147293636D01*
X237615000Y-147438589D01*
X237615000Y-147711411D01*
X237668225Y-147978989D01*
X237772629Y-148231043D01*
X237924201Y-148457886D01*
X238117114Y-148650799D01*
X238343957Y-148802371D01*
X238596011Y-148906775D01*
X238863589Y-148960000D01*
X239136411Y-148960000D01*
X239403989Y-148906775D01*
X239656043Y-148802371D01*
X239882886Y-148650799D01*
X240075799Y-148457886D01*
X240227371Y-148231043D01*
X240331775Y-147978989D01*
X240385000Y-147711411D01*
X240385000Y-147438589D01*
X240331775Y-147171011D01*
X240227371Y-146918957D01*
X240075799Y-146692114D01*
X239882886Y-146499201D01*
X239656043Y-146347629D01*
X239403989Y-146243225D01*
X239136411Y-146190000D01*
X238863589Y-146190000D01*
X238718636Y-146218833D01*
X233460000Y-140960199D01*
X233460000Y-127752595D01*
X233529014Y-127715706D01*
X233755134Y-127530134D01*
X233940706Y-127304014D01*
X233950000Y-127286626D01*
X233959294Y-127304014D01*
X234144866Y-127530134D01*
X234370987Y-127715706D01*
X234440000Y-127752594D01*
X234440001Y-139137667D01*
X234436324Y-139175000D01*
X234440001Y-139212333D01*
X234450998Y-139323986D01*
X234464180Y-139367442D01*
X234494454Y-139467246D01*
X234565026Y-139599276D01*
X234635374Y-139684994D01*
X234660000Y-139715001D01*
X234688998Y-139738799D01*
X241043833Y-146093635D01*
X241015000Y-146238589D01*
X241015000Y-146511411D01*
X241068225Y-146778989D01*
X241172629Y-147031043D01*
X241324201Y-147257886D01*
X241517114Y-147450799D01*
X241743957Y-147602371D01*
X241996011Y-147706775D01*
X242263589Y-147760000D01*
X242536411Y-147760000D01*
X242803989Y-147706775D01*
X243056043Y-147602371D01*
X243282886Y-147450799D01*
X243475799Y-147257886D01*
X243627371Y-147031043D01*
X243731775Y-146778989D01*
X243764528Y-146614330D01*
X244443833Y-147293635D01*
X244415000Y-147438589D01*
X244415000Y-147711411D01*
X244468225Y-147978989D01*
X244572629Y-148231043D01*
X244724201Y-148457886D01*
X244917114Y-148650799D01*
X245143957Y-148802371D01*
X245396011Y-148906775D01*
X245663589Y-148960000D01*
X245936411Y-148960000D01*
X246203989Y-148906775D01*
X246456043Y-148802371D01*
X246682886Y-148650799D01*
X246875799Y-148457886D01*
X246940000Y-148361802D01*
X246940000Y-149617091D01*
X246817114Y-149699201D01*
X246624201Y-149892114D01*
X246472629Y-150118957D01*
X246368225Y-150371011D01*
X246315000Y-150638589D01*
X246315000Y-150911411D01*
X246368225Y-151178989D01*
X246472629Y-151431043D01*
X246624201Y-151657886D01*
X246817114Y-151850799D01*
X247043957Y-152002371D01*
X247296011Y-152106775D01*
X247563589Y-152160000D01*
X247836411Y-152160000D01*
X248015001Y-152124476D01*
X248015001Y-152990000D01*
X247763589Y-152990000D01*
X247496011Y-153043225D01*
X247243957Y-153147629D01*
X247017114Y-153299201D01*
X246824201Y-153492114D01*
X246672629Y-153718957D01*
X246568225Y-153971011D01*
X246515000Y-154238589D01*
X246515000Y-154511411D01*
X246568225Y-154778989D01*
X246672629Y-155031043D01*
X246824201Y-155257886D01*
X247017114Y-155450799D01*
X247243957Y-155602371D01*
X247496011Y-155706775D01*
X247763589Y-155760000D01*
X248036411Y-155760000D01*
X248303989Y-155706775D01*
X248465010Y-155640078D01*
X248465010Y-156135188D01*
X247981365Y-156618833D01*
X247836411Y-156590000D01*
X247563589Y-156590000D01*
X247296011Y-156643225D01*
X247043957Y-156747629D01*
X246817114Y-156899201D01*
X246624201Y-157092114D01*
X246472629Y-157318957D01*
X246368225Y-157571011D01*
X246315000Y-157838589D01*
X246315000Y-158111411D01*
X246368225Y-158378989D01*
X246472629Y-158631043D01*
X246624201Y-158857886D01*
X246817114Y-159050799D01*
X247043957Y-159202371D01*
X247296011Y-159306775D01*
X247511266Y-159349592D01*
X246772272Y-160088587D01*
X246682886Y-159999201D01*
X246456043Y-159847629D01*
X246203989Y-159743225D01*
X245936411Y-159690000D01*
X245663589Y-159690000D01*
X245396011Y-159743225D01*
X245143957Y-159847629D01*
X244917114Y-159999201D01*
X244724201Y-160192114D01*
X244572629Y-160418957D01*
X244468225Y-160671011D01*
X244415000Y-160938589D01*
X244415000Y-161211411D01*
X244450524Y-161390001D01*
X240389803Y-161390001D01*
X240356167Y-161356365D01*
X240385000Y-161211411D01*
X240385000Y-160938589D01*
X240331775Y-160671011D01*
X240227371Y-160418957D01*
X240075799Y-160192114D01*
X239882886Y-159999201D01*
X239656043Y-159847629D01*
X239403989Y-159743225D01*
X239136411Y-159690000D01*
X238863589Y-159690000D01*
X238596011Y-159743225D01*
X238343957Y-159847629D01*
X238117114Y-159999201D01*
X237924201Y-160192114D01*
X237842091Y-160315000D01*
X216414802Y-160315000D01*
X210888072Y-154788271D01*
X210888072Y-153525000D01*
X210875812Y-153400518D01*
X210839502Y-153280820D01*
X210780537Y-153170506D01*
X210701185Y-153073815D01*
X210604494Y-152994463D01*
X210494180Y-152935498D01*
X210421620Y-152913487D01*
X210553475Y-152781632D01*
X210715990Y-152538411D01*
X210827932Y-152268158D01*
X210885000Y-151981260D01*
X210885000Y-151688740D01*
X210827932Y-151401842D01*
X210715990Y-151131589D01*
X210553475Y-150888368D01*
X210346632Y-150681525D01*
X210103411Y-150519010D01*
X209833158Y-150407068D01*
X209546260Y-150350000D01*
X209253740Y-150350000D01*
X208966842Y-150407068D01*
X208696589Y-150519010D01*
X208453368Y-150681525D01*
X208246525Y-150888368D01*
X208084010Y-151131589D01*
X207972068Y-151401842D01*
X207915000Y-151688740D01*
X207915000Y-151981260D01*
X207972068Y-152268158D01*
X208084010Y-152538411D01*
X208246525Y-152781632D01*
X208378380Y-152913487D01*
X208305820Y-152935498D01*
X208195506Y-152994463D01*
X208098815Y-153073815D01*
X208019463Y-153170506D01*
X207960498Y-153280820D01*
X207924188Y-153400518D01*
X207911928Y-153525000D01*
X207911928Y-154788270D01*
X201310198Y-161390001D01*
X181620460Y-161390001D01*
X192661003Y-150349459D01*
X192690001Y-150325661D01*
X192784974Y-150209936D01*
X192855546Y-150077907D01*
X192899003Y-149934646D01*
X192910000Y-149822993D01*
X192910000Y-149822985D01*
X192913676Y-149785660D01*
X192910000Y-149748335D01*
X192910000Y-127752595D01*
X192979014Y-127715706D01*
X193205134Y-127530134D01*
X193390706Y-127304014D01*
X193528599Y-127046033D01*
X193613513Y-126766110D01*
X193635000Y-126547949D01*
X193635000Y-126152050D01*
X193613513Y-125933889D01*
X193528599Y-125653966D01*
X193390706Y-125395986D01*
X193205134Y-125169866D01*
X192979013Y-124984294D01*
X192721033Y-124846401D01*
X192441110Y-124761487D01*
X192150000Y-124732815D01*
X191858889Y-124761487D01*
X191578966Y-124846401D01*
X191320986Y-124984294D01*
X191094866Y-125169866D01*
X190909294Y-125395987D01*
X190900000Y-125413374D01*
X190890706Y-125395986D01*
X190705134Y-125169866D01*
X190479013Y-124984294D01*
X190221033Y-124846401D01*
X189941110Y-124761487D01*
X189650000Y-124732815D01*
X189358889Y-124761487D01*
X189078966Y-124846401D01*
X188820986Y-124984294D01*
X188594866Y-125169866D01*
X188409294Y-125395987D01*
X188400000Y-125413374D01*
X188390706Y-125395986D01*
X188205134Y-125169866D01*
X187979013Y-124984294D01*
X187721033Y-124846401D01*
X187441110Y-124761487D01*
X187150000Y-124732815D01*
X186858889Y-124761487D01*
X186578966Y-124846401D01*
X186320986Y-124984294D01*
X186094866Y-125169866D01*
X185909294Y-125395987D01*
X185900000Y-125413374D01*
X185890706Y-125395986D01*
X185705134Y-125169866D01*
X185479013Y-124984294D01*
X185221033Y-124846401D01*
X184941110Y-124761487D01*
X184650000Y-124732815D01*
X184358889Y-124761487D01*
X184078966Y-124846401D01*
X183820986Y-124984294D01*
X183594866Y-125169866D01*
X183409294Y-125395987D01*
X183400000Y-125413374D01*
X183390706Y-125395986D01*
X183205134Y-125169866D01*
X182979013Y-124984294D01*
X182721033Y-124846401D01*
X182441110Y-124761487D01*
X182150000Y-124732815D01*
X181858889Y-124761487D01*
X181578966Y-124846401D01*
X181320986Y-124984294D01*
X181094866Y-125169866D01*
X180909294Y-125395987D01*
X180900000Y-125413374D01*
X180890706Y-125395986D01*
X180705134Y-125169866D01*
X180479013Y-124984294D01*
X180221033Y-124846401D01*
X179941110Y-124761487D01*
X179650000Y-124732815D01*
X179358889Y-124761487D01*
X179078966Y-124846401D01*
X178820986Y-124984294D01*
X178594866Y-125169866D01*
X178409294Y-125395987D01*
X178400000Y-125413374D01*
X178390706Y-125395986D01*
X178205134Y-125169866D01*
X177979013Y-124984294D01*
X177721033Y-124846401D01*
X177441110Y-124761487D01*
X177150000Y-124732815D01*
X176858889Y-124761487D01*
X176578966Y-124846401D01*
X176320986Y-124984294D01*
X176094866Y-125169866D01*
X175909294Y-125395987D01*
X175900000Y-125413374D01*
X175890706Y-125395986D01*
X175705134Y-125169866D01*
X175479013Y-124984294D01*
X175221033Y-124846401D01*
X174941110Y-124761487D01*
X174650000Y-124732815D01*
X174358889Y-124761487D01*
X174078966Y-124846401D01*
X173820986Y-124984294D01*
X173594866Y-125169866D01*
X173409294Y-125395987D01*
X173400000Y-125413374D01*
X173390706Y-125395986D01*
X173205134Y-125169866D01*
X172979013Y-124984294D01*
X172721033Y-124846401D01*
X172441110Y-124761487D01*
X172150000Y-124732815D01*
X171858889Y-124761487D01*
X171578966Y-124846401D01*
X171320986Y-124984294D01*
X171094866Y-125169866D01*
X171042777Y-125233337D01*
X170988405Y-125131614D01*
X170877962Y-124997038D01*
X170743386Y-124886595D01*
X170589850Y-124804528D01*
X170423254Y-124753992D01*
X170250000Y-124736928D01*
X169050000Y-124736928D01*
X168876746Y-124753992D01*
X168710150Y-124804528D01*
X168556614Y-124886595D01*
X168422038Y-124997038D01*
X168311595Y-125131614D01*
X168229528Y-125285150D01*
X168178992Y-125451746D01*
X168161928Y-125625000D01*
X168161928Y-127075000D01*
X168178992Y-127248254D01*
X168229528Y-127414850D01*
X168311595Y-127568386D01*
X168422038Y-127702962D01*
X168556614Y-127813405D01*
X168710150Y-127895472D01*
X168814989Y-127927274D01*
X168814990Y-156412656D01*
X168811313Y-156449989D01*
X168814990Y-156487322D01*
X168825987Y-156598975D01*
X168839169Y-156642431D01*
X168869443Y-156742235D01*
X168940015Y-156874265D01*
X169011190Y-156960991D01*
X169034989Y-156989990D01*
X169063987Y-157013788D01*
X169743833Y-157693635D01*
X169715000Y-157838589D01*
X169715000Y-158111411D01*
X169768225Y-158378989D01*
X169872629Y-158631043D01*
X170024201Y-158857886D01*
X170217114Y-159050799D01*
X170443957Y-159202371D01*
X170696011Y-159306775D01*
X170963589Y-159360000D01*
X171236411Y-159360000D01*
X171503989Y-159306775D01*
X171756043Y-159202371D01*
X171982886Y-159050799D01*
X172175799Y-158857886D01*
X172327371Y-158631043D01*
X172431775Y-158378989D01*
X172485000Y-158111411D01*
X172485000Y-157838589D01*
X172431775Y-157571011D01*
X172327371Y-157318957D01*
X172175799Y-157092114D01*
X171982886Y-156899201D01*
X171756043Y-156747629D01*
X171503989Y-156643225D01*
X171236411Y-156590000D01*
X170963589Y-156590000D01*
X170818635Y-156618833D01*
X170334989Y-156135188D01*
X170334989Y-155640078D01*
X170496011Y-155706775D01*
X170763589Y-155760000D01*
X171036411Y-155760000D01*
X171303989Y-155706775D01*
X171556043Y-155602371D01*
X171782886Y-155450799D01*
X171975799Y-155257886D01*
X172127371Y-155031043D01*
X172231775Y-154778989D01*
X172285000Y-154511411D01*
X172285000Y-154238589D01*
X172260511Y-154115475D01*
X173765000Y-154115475D01*
X173765000Y-154634525D01*
X173866261Y-155143601D01*
X174064893Y-155623141D01*
X174353262Y-156054715D01*
X174720285Y-156421738D01*
X175151859Y-156710107D01*
X175631399Y-156908739D01*
X176140475Y-157010000D01*
X176659525Y-157010000D01*
X177168601Y-156908739D01*
X177648141Y-156710107D01*
X178079715Y-156421738D01*
X178446738Y-156054715D01*
X178735107Y-155623141D01*
X178933739Y-155143601D01*
X179035000Y-154634525D01*
X179035000Y-154115475D01*
X178933739Y-153606399D01*
X178735107Y-153126859D01*
X178446738Y-152695285D01*
X178079715Y-152328262D01*
X177648141Y-152039893D01*
X177168601Y-151841261D01*
X176659525Y-151740000D01*
X176140475Y-151740000D01*
X175631399Y-151841261D01*
X175151859Y-152039893D01*
X174720285Y-152328262D01*
X174353262Y-152695285D01*
X174064893Y-153126859D01*
X173866261Y-153606399D01*
X173765000Y-154115475D01*
X172260511Y-154115475D01*
X172231775Y-153971011D01*
X172127371Y-153718957D01*
X171975799Y-153492114D01*
X171782886Y-153299201D01*
X171556043Y-153147629D01*
X171303989Y-153043225D01*
X171036411Y-152990000D01*
X170784999Y-152990000D01*
X170784999Y-152124476D01*
X170963589Y-152160000D01*
X171236411Y-152160000D01*
X171503989Y-152106775D01*
X171756043Y-152002371D01*
X171982886Y-151850799D01*
X172175799Y-151657886D01*
X172327371Y-151431043D01*
X172431775Y-151178989D01*
X172485000Y-150911411D01*
X172485000Y-150638589D01*
X172431775Y-150371011D01*
X172327371Y-150118957D01*
X172175799Y-149892114D01*
X171982886Y-149699201D01*
X171860000Y-149617091D01*
X171860000Y-148361803D01*
X171924201Y-148457886D01*
X172117114Y-148650799D01*
X172343957Y-148802371D01*
X172596011Y-148906775D01*
X172863589Y-148960000D01*
X173136411Y-148960000D01*
X173403989Y-148906775D01*
X173656043Y-148802371D01*
X173882886Y-148650799D01*
X174075799Y-148457886D01*
X174227371Y-148231043D01*
X174331775Y-147978989D01*
X174385000Y-147711411D01*
X174385000Y-147438589D01*
X174331775Y-147171011D01*
X174227371Y-146918957D01*
X174075799Y-146692114D01*
X173882886Y-146499201D01*
X173760000Y-146417091D01*
X173760000Y-130814801D01*
X176688098Y-127886704D01*
X176858890Y-127938513D01*
X176975227Y-127949971D01*
X175888998Y-129036201D01*
X175860000Y-129059999D01*
X175836202Y-129088997D01*
X175836201Y-129088998D01*
X175765026Y-129175724D01*
X175694454Y-129307754D01*
X175669810Y-129388998D01*
X175651609Y-129449002D01*
X175650998Y-129451015D01*
X175636324Y-129600000D01*
X175640001Y-129637333D01*
X175640000Y-145217091D01*
X175517114Y-145299201D01*
X175324201Y-145492114D01*
X175172629Y-145718957D01*
X175068225Y-145971011D01*
X175015000Y-146238589D01*
X175015000Y-146511411D01*
X175068225Y-146778989D01*
X175172629Y-147031043D01*
X175324201Y-147257886D01*
X175517114Y-147450799D01*
X175743957Y-147602371D01*
X175996011Y-147706775D01*
X176263589Y-147760000D01*
X176536411Y-147760000D01*
X176803989Y-147706775D01*
X177056043Y-147602371D01*
X177282886Y-147450799D01*
X177475799Y-147257886D01*
X177627371Y-147031043D01*
X177731775Y-146778989D01*
X177785000Y-146511411D01*
X177785000Y-146238589D01*
X177731775Y-145971011D01*
X177627371Y-145718957D01*
X177475799Y-145492114D01*
X177282886Y-145299201D01*
X177160000Y-145217091D01*
X177160000Y-129914801D01*
X179188098Y-127886704D01*
X179358890Y-127938513D01*
X179475228Y-127949971D01*
X179288998Y-128136201D01*
X179260000Y-128159999D01*
X179236202Y-128188997D01*
X179236201Y-128188998D01*
X179165026Y-128275724D01*
X179094454Y-128407754D01*
X179074358Y-128474005D01*
X179050998Y-128551014D01*
X179046273Y-128598985D01*
X179036324Y-128700000D01*
X179040001Y-128737333D01*
X179040000Y-146417091D01*
X178917114Y-146499201D01*
X178724201Y-146692114D01*
X178572629Y-146918957D01*
X178468225Y-147171011D01*
X178415000Y-147438589D01*
X178415000Y-147711411D01*
X178468225Y-147978989D01*
X178572629Y-148231043D01*
X178724201Y-148457886D01*
X178917114Y-148650799D01*
X179143957Y-148802371D01*
X179396011Y-148906775D01*
X179663589Y-148960000D01*
X179936411Y-148960000D01*
X180203989Y-148906775D01*
X180456043Y-148802371D01*
X180682886Y-148650799D01*
X180875799Y-148457886D01*
X180940000Y-148361802D01*
X180940000Y-149617091D01*
X180817114Y-149699201D01*
X180624201Y-149892114D01*
X180472629Y-150118957D01*
X180368225Y-150371011D01*
X180315000Y-150638589D01*
X180315000Y-150911411D01*
X180368225Y-151178989D01*
X180472629Y-151431043D01*
X180624201Y-151657886D01*
X180817114Y-151850799D01*
X181043957Y-152002371D01*
X181296011Y-152106775D01*
X181563589Y-152160000D01*
X181836411Y-152160000D01*
X182103989Y-152106775D01*
X182356043Y-152002371D01*
X182582886Y-151850799D01*
X182775799Y-151657886D01*
X182927371Y-151431043D01*
X183031775Y-151178989D01*
X183085000Y-150911411D01*
X183085000Y-150638589D01*
X183031775Y-150371011D01*
X182927371Y-150118957D01*
X182775799Y-149892114D01*
X182582886Y-149699201D01*
X182460000Y-149617091D01*
X182460000Y-129614801D01*
X184188098Y-127886704D01*
X184358890Y-127938513D01*
X184650000Y-127967185D01*
X184941111Y-127938513D01*
X185221034Y-127853599D01*
X185479014Y-127715706D01*
X185705134Y-127530134D01*
X185890706Y-127304014D01*
X185900000Y-127286626D01*
X185909294Y-127304014D01*
X186094866Y-127530134D01*
X186320987Y-127715706D01*
X186390001Y-127752595D01*
X186390000Y-148810198D01*
X182181365Y-153018833D01*
X182036411Y-152990000D01*
X181763589Y-152990000D01*
X181496011Y-153043225D01*
X181243957Y-153147629D01*
X181017114Y-153299201D01*
X180824201Y-153492114D01*
X180672629Y-153718957D01*
X180568225Y-153971011D01*
X180515000Y-154238589D01*
X180515000Y-154511411D01*
X180568225Y-154778989D01*
X180672629Y-155031043D01*
X180824201Y-155257886D01*
X181017114Y-155450799D01*
X181243957Y-155602371D01*
X181496011Y-155706775D01*
X181763589Y-155760000D01*
X182036411Y-155760000D01*
X182303989Y-155706775D01*
X182556043Y-155602371D01*
X182782886Y-155450799D01*
X182975799Y-155257886D01*
X183127371Y-155031043D01*
X183231775Y-154778989D01*
X183285000Y-154511411D01*
X183285000Y-154238589D01*
X183256167Y-154093635D01*
X187661004Y-149688798D01*
X187690001Y-149665001D01*
X187784974Y-149549276D01*
X187855546Y-149417247D01*
X187899003Y-149273986D01*
X187910000Y-149162333D01*
X187910000Y-149162324D01*
X187913676Y-149125001D01*
X187910000Y-149087678D01*
X187910000Y-127752595D01*
X187979014Y-127715706D01*
X188205134Y-127530134D01*
X188390706Y-127304014D01*
X188400000Y-127286626D01*
X188409294Y-127304014D01*
X188594866Y-127530134D01*
X188820987Y-127715706D01*
X188890000Y-127752594D01*
X188890001Y-149710197D01*
X181981365Y-156618833D01*
X181836411Y-156590000D01*
X181563589Y-156590000D01*
X181296011Y-156643225D01*
X181043957Y-156747629D01*
X180817114Y-156899201D01*
X180624201Y-157092114D01*
X180472629Y-157318957D01*
X180368225Y-157571011D01*
X180315000Y-157838589D01*
X180315000Y-158111411D01*
X180368225Y-158378989D01*
X180472629Y-158631043D01*
X180624201Y-158857886D01*
X180817114Y-159050799D01*
X181043957Y-159202371D01*
X181296011Y-159306775D01*
X181511267Y-159349592D01*
X180772272Y-160088587D01*
X180682886Y-159999201D01*
X180456043Y-159847629D01*
X180203989Y-159743225D01*
X179936411Y-159690000D01*
X179663589Y-159690000D01*
X179396011Y-159743225D01*
X179143957Y-159847629D01*
X178917114Y-159999201D01*
X178724201Y-160192114D01*
X178572629Y-160418957D01*
X178468225Y-160671011D01*
X178415000Y-160938589D01*
X178415000Y-161211411D01*
X178450524Y-161390001D01*
X174389803Y-161390001D01*
X174356167Y-161356365D01*
X174385000Y-161211411D01*
X174385000Y-160938589D01*
X174331775Y-160671011D01*
X174227371Y-160418957D01*
X174075799Y-160192114D01*
X173882886Y-159999201D01*
X173656043Y-159847629D01*
X173403989Y-159743225D01*
X173136411Y-159690000D01*
X172863589Y-159690000D01*
X172596011Y-159743225D01*
X172343957Y-159847629D01*
X172117114Y-159999201D01*
X171924201Y-160192114D01*
X171772629Y-160418957D01*
X171668225Y-160671011D01*
X171615000Y-160938589D01*
X171615000Y-161211411D01*
X171643833Y-161356365D01*
X171610198Y-161390001D01*
X147145460Y-161390001D01*
X149711023Y-158824439D01*
X149740021Y-158800641D01*
X149766352Y-158768557D01*
X149834994Y-158684917D01*
X149905566Y-158552887D01*
X149917059Y-158515000D01*
X149949023Y-158409626D01*
X149960020Y-158297973D01*
X149960020Y-158297964D01*
X149963696Y-158260641D01*
X149960020Y-158223318D01*
X149960020Y-139087353D01*
X149963697Y-139050020D01*
X149949023Y-138901034D01*
X149905566Y-138757773D01*
X149834994Y-138625744D01*
X149763819Y-138539017D01*
X149740021Y-138510019D01*
X149711024Y-138486222D01*
X137965970Y-126741168D01*
X137985000Y-126547949D01*
X137985000Y-126152050D01*
X137963513Y-125933889D01*
X137878599Y-125653966D01*
X137740706Y-125395986D01*
X137555134Y-125169866D01*
X137329013Y-124984294D01*
X137071033Y-124846401D01*
X136791110Y-124761487D01*
X136500000Y-124732815D01*
X136208889Y-124761487D01*
X135928966Y-124846401D01*
X135670986Y-124984294D01*
X135444866Y-125169866D01*
X135259294Y-125395987D01*
X135250000Y-125413374D01*
X135240706Y-125395986D01*
X135055134Y-125169866D01*
X134829013Y-124984294D01*
X134571033Y-124846401D01*
X134291110Y-124761487D01*
X134000000Y-124732815D01*
X133708889Y-124761487D01*
X133428966Y-124846401D01*
X133170986Y-124984294D01*
X132944866Y-125169866D01*
X132759294Y-125395987D01*
X132750000Y-125413374D01*
X132740706Y-125395986D01*
X132555134Y-125169866D01*
X132329013Y-124984294D01*
X132071033Y-124846401D01*
X131791110Y-124761487D01*
X131500000Y-124732815D01*
X131208889Y-124761487D01*
X130928966Y-124846401D01*
X130670986Y-124984294D01*
X130444866Y-125169866D01*
X130259294Y-125395987D01*
X130250000Y-125413374D01*
X130240706Y-125395986D01*
X130055134Y-125169866D01*
X129829013Y-124984294D01*
X129571033Y-124846401D01*
X129291110Y-124761487D01*
X129000000Y-124732815D01*
X128708889Y-124761487D01*
X128428966Y-124846401D01*
X128170986Y-124984294D01*
X127944866Y-125169866D01*
X127759294Y-125395987D01*
X127750000Y-125413374D01*
X127740706Y-125395986D01*
X127555134Y-125169866D01*
X127329013Y-124984294D01*
X127071033Y-124846401D01*
X126791110Y-124761487D01*
X126500000Y-124732815D01*
X126208889Y-124761487D01*
X125928966Y-124846401D01*
X125670986Y-124984294D01*
X125444866Y-125169866D01*
X125259294Y-125395987D01*
X125250000Y-125413374D01*
X125240706Y-125395986D01*
X125055134Y-125169866D01*
X124829013Y-124984294D01*
X124571033Y-124846401D01*
X124291110Y-124761487D01*
X124000000Y-124732815D01*
X123708889Y-124761487D01*
X123428966Y-124846401D01*
X123170986Y-124984294D01*
X122944866Y-125169866D01*
X122759294Y-125395987D01*
X122750000Y-125413374D01*
X122740706Y-125395986D01*
X122555134Y-125169866D01*
X122329013Y-124984294D01*
X122071033Y-124846401D01*
X121791110Y-124761487D01*
X121500000Y-124732815D01*
X121208889Y-124761487D01*
X120928966Y-124846401D01*
X120670986Y-124984294D01*
X120444866Y-125169866D01*
X120259294Y-125395987D01*
X120250000Y-125413374D01*
X120240706Y-125395986D01*
X120055134Y-125169866D01*
X119829013Y-124984294D01*
X119571033Y-124846401D01*
X119291110Y-124761487D01*
X119000000Y-124732815D01*
X118708889Y-124761487D01*
X118428966Y-124846401D01*
X118170986Y-124984294D01*
X117944866Y-125169866D01*
X117759294Y-125395987D01*
X117750000Y-125413374D01*
X117740706Y-125395986D01*
X117555134Y-125169866D01*
X117329013Y-124984294D01*
X117071033Y-124846401D01*
X116791110Y-124761487D01*
X116500000Y-124732815D01*
X116208889Y-124761487D01*
X115928966Y-124846401D01*
X115670986Y-124984294D01*
X115444866Y-125169866D01*
X115392777Y-125233337D01*
X115338405Y-125131614D01*
X115227962Y-124997038D01*
X115093386Y-124886595D01*
X114939850Y-124804528D01*
X114773254Y-124753992D01*
X114600000Y-124736928D01*
X113400000Y-124736928D01*
X113226746Y-124753992D01*
X113060150Y-124804528D01*
X112906614Y-124886595D01*
X112772038Y-124997038D01*
X112661595Y-125131614D01*
X112579528Y-125285150D01*
X112528992Y-125451746D01*
X112511928Y-125625000D01*
X112511928Y-127075000D01*
X112528992Y-127248254D01*
X112579528Y-127414850D01*
X112661595Y-127568386D01*
X112772038Y-127702962D01*
X112906614Y-127813405D01*
X113060150Y-127895472D01*
X113226746Y-127946008D01*
X113240000Y-127947313D01*
X113240001Y-135312668D01*
X113236324Y-135350000D01*
X113250998Y-135498985D01*
X113294454Y-135642246D01*
X113365026Y-135774276D01*
X113436201Y-135861002D01*
X113460000Y-135890001D01*
X113488998Y-135913799D01*
X135268833Y-157693635D01*
X135240000Y-157838589D01*
X135240000Y-158111411D01*
X135293225Y-158378989D01*
X135397629Y-158631043D01*
X135549201Y-158857886D01*
X135742114Y-159050799D01*
X135968957Y-159202371D01*
X136221011Y-159306775D01*
X136488589Y-159360000D01*
X136761411Y-159360000D01*
X137028989Y-159306775D01*
X137281043Y-159202371D01*
X137507886Y-159050799D01*
X137700799Y-158857886D01*
X137852371Y-158631043D01*
X137956775Y-158378989D01*
X138010000Y-158111411D01*
X138010000Y-157838589D01*
X137956775Y-157571011D01*
X137852371Y-157318957D01*
X137700799Y-157092114D01*
X137507886Y-156899201D01*
X137281043Y-156747629D01*
X137028989Y-156643225D01*
X136761411Y-156590000D01*
X136488589Y-156590000D01*
X136343635Y-156618833D01*
X114760000Y-135035199D01*
X114760000Y-127947313D01*
X114773254Y-127946008D01*
X114939850Y-127895472D01*
X115093386Y-127813405D01*
X115227962Y-127702962D01*
X115338405Y-127568386D01*
X115392777Y-127466663D01*
X115444866Y-127530134D01*
X115670987Y-127715706D01*
X115740000Y-127752594D01*
X115740001Y-134412668D01*
X115736324Y-134450000D01*
X115740001Y-134487333D01*
X115750998Y-134598986D01*
X115755454Y-134613676D01*
X115794454Y-134742246D01*
X115865026Y-134874276D01*
X115907249Y-134925724D01*
X115960000Y-134990001D01*
X115988998Y-135013799D01*
X135068833Y-154093635D01*
X135040000Y-154238589D01*
X135040000Y-154511411D01*
X135093225Y-154778989D01*
X135197629Y-155031043D01*
X135349201Y-155257886D01*
X135542114Y-155450799D01*
X135768957Y-155602371D01*
X136021011Y-155706775D01*
X136288589Y-155760000D01*
X136561411Y-155760000D01*
X136828989Y-155706775D01*
X137081043Y-155602371D01*
X137307886Y-155450799D01*
X137500799Y-155257886D01*
X137652371Y-155031043D01*
X137756775Y-154778989D01*
X137810000Y-154511411D01*
X137810000Y-154238589D01*
X137785511Y-154115475D01*
X139290000Y-154115475D01*
X139290000Y-154634525D01*
X139391261Y-155143601D01*
X139589893Y-155623141D01*
X139878262Y-156054715D01*
X140245285Y-156421738D01*
X140676859Y-156710107D01*
X141156399Y-156908739D01*
X141665475Y-157010000D01*
X142184525Y-157010000D01*
X142693601Y-156908739D01*
X143173141Y-156710107D01*
X143604715Y-156421738D01*
X143971738Y-156054715D01*
X144260107Y-155623141D01*
X144458739Y-155143601D01*
X144560000Y-154634525D01*
X144560000Y-154115475D01*
X144458739Y-153606399D01*
X144260107Y-153126859D01*
X143971738Y-152695285D01*
X143604715Y-152328262D01*
X143173141Y-152039893D01*
X142693601Y-151841261D01*
X142184525Y-151740000D01*
X141665475Y-151740000D01*
X141156399Y-151841261D01*
X140676859Y-152039893D01*
X140245285Y-152328262D01*
X139878262Y-152695285D01*
X139589893Y-153126859D01*
X139391261Y-153606399D01*
X139290000Y-154115475D01*
X137785511Y-154115475D01*
X137756775Y-153971011D01*
X137652371Y-153718957D01*
X137500799Y-153492114D01*
X137307886Y-153299201D01*
X137081043Y-153147629D01*
X136828989Y-153043225D01*
X136561411Y-152990000D01*
X136288589Y-152990000D01*
X136143635Y-153018833D01*
X117260000Y-134135199D01*
X117260000Y-127752595D01*
X117329014Y-127715706D01*
X117555134Y-127530134D01*
X117740706Y-127304014D01*
X117750000Y-127286626D01*
X117759294Y-127304014D01*
X117944866Y-127530134D01*
X118170987Y-127715706D01*
X118240000Y-127752594D01*
X118240001Y-133112668D01*
X118236324Y-133150000D01*
X118250998Y-133298985D01*
X118294454Y-133442246D01*
X118365026Y-133574276D01*
X118436201Y-133661002D01*
X118460000Y-133690001D01*
X118488998Y-133713799D01*
X135268833Y-150493635D01*
X135240000Y-150638589D01*
X135240000Y-150911411D01*
X135293225Y-151178989D01*
X135397629Y-151431043D01*
X135549201Y-151657886D01*
X135742114Y-151850799D01*
X135968957Y-152002371D01*
X136221011Y-152106775D01*
X136488589Y-152160000D01*
X136761411Y-152160000D01*
X137028989Y-152106775D01*
X137281043Y-152002371D01*
X137507886Y-151850799D01*
X137700799Y-151657886D01*
X137852371Y-151431043D01*
X137956775Y-151178989D01*
X138010000Y-150911411D01*
X138010000Y-150638589D01*
X137956775Y-150371011D01*
X137852371Y-150118957D01*
X137700799Y-149892114D01*
X137507886Y-149699201D01*
X137281043Y-149547629D01*
X137028989Y-149443225D01*
X136761411Y-149390000D01*
X136488589Y-149390000D01*
X136343635Y-149418833D01*
X119760000Y-132835199D01*
X119760000Y-127752595D01*
X119829014Y-127715706D01*
X120055134Y-127530134D01*
X120240706Y-127304014D01*
X120250000Y-127286626D01*
X120259294Y-127304014D01*
X120444866Y-127530134D01*
X120670987Y-127715706D01*
X120740000Y-127752594D01*
X120740001Y-130512668D01*
X120736324Y-130550000D01*
X120750998Y-130698985D01*
X120794454Y-130842246D01*
X120865026Y-130974276D01*
X120918966Y-131040001D01*
X120960000Y-131090001D01*
X120988998Y-131113799D01*
X137168833Y-147293635D01*
X137140000Y-147438589D01*
X137140000Y-147711411D01*
X137193225Y-147978989D01*
X137297629Y-148231043D01*
X137449201Y-148457886D01*
X137642114Y-148650799D01*
X137868957Y-148802371D01*
X138121011Y-148906775D01*
X138388589Y-148960000D01*
X138661411Y-148960000D01*
X138928989Y-148906775D01*
X139181043Y-148802371D01*
X139407886Y-148650799D01*
X139600799Y-148457886D01*
X139752371Y-148231043D01*
X139856775Y-147978989D01*
X139910000Y-147711411D01*
X139910000Y-147438589D01*
X139856775Y-147171011D01*
X139752371Y-146918957D01*
X139600799Y-146692114D01*
X139407886Y-146499201D01*
X139181043Y-146347629D01*
X138928989Y-146243225D01*
X138661411Y-146190000D01*
X138388589Y-146190000D01*
X138243635Y-146218833D01*
X122260000Y-130235199D01*
X122260000Y-127752595D01*
X122329014Y-127715706D01*
X122555134Y-127530134D01*
X122740706Y-127304014D01*
X122750000Y-127286626D01*
X122759294Y-127304014D01*
X122944866Y-127530134D01*
X123170987Y-127715706D01*
X123240001Y-127752595D01*
X123240001Y-128412668D01*
X123236324Y-128450000D01*
X123240001Y-128487333D01*
X123246272Y-128550997D01*
X123250998Y-128598985D01*
X123294454Y-128742246D01*
X123365026Y-128874276D01*
X123435374Y-128959994D01*
X123460000Y-128990001D01*
X123488998Y-129013799D01*
X140568833Y-146093635D01*
X140540000Y-146238589D01*
X140540000Y-146511411D01*
X140593225Y-146778989D01*
X140697629Y-147031043D01*
X140849201Y-147257886D01*
X141042114Y-147450799D01*
X141268957Y-147602371D01*
X141521011Y-147706775D01*
X141788589Y-147760000D01*
X142061411Y-147760000D01*
X142328989Y-147706775D01*
X142581043Y-147602371D01*
X142807886Y-147450799D01*
X143000799Y-147257886D01*
X143152371Y-147031043D01*
X143256775Y-146778989D01*
X143310000Y-146511411D01*
X143310000Y-146238589D01*
X143256775Y-145971011D01*
X143152371Y-145718957D01*
X143000799Y-145492114D01*
X142807886Y-145299201D01*
X142581043Y-145147629D01*
X142328989Y-145043225D01*
X142061411Y-144990000D01*
X141788589Y-144990000D01*
X141643635Y-145018833D01*
X124760000Y-128135199D01*
X124760000Y-127752595D01*
X124829014Y-127715706D01*
X125055134Y-127530134D01*
X125240706Y-127304014D01*
X125250000Y-127286626D01*
X125259294Y-127304014D01*
X125444866Y-127530134D01*
X125670987Y-127715706D01*
X125928967Y-127853599D01*
X126208890Y-127938513D01*
X126500000Y-127967185D01*
X126791111Y-127938513D01*
X126961903Y-127886704D01*
X144565001Y-145489803D01*
X144565000Y-146417091D01*
X144442114Y-146499201D01*
X144249201Y-146692114D01*
X144097629Y-146918957D01*
X143993225Y-147171011D01*
X143940000Y-147438589D01*
X143940000Y-147711411D01*
X143993225Y-147978989D01*
X144097629Y-148231043D01*
X144249201Y-148457886D01*
X144442114Y-148650799D01*
X144668957Y-148802371D01*
X144921011Y-148906775D01*
X145188589Y-148960000D01*
X145461411Y-148960000D01*
X145728989Y-148906775D01*
X145981043Y-148802371D01*
X146207886Y-148650799D01*
X146400799Y-148457886D01*
X146465001Y-148361802D01*
X146465001Y-149617090D01*
X146342114Y-149699201D01*
X146149201Y-149892114D01*
X145997629Y-150118957D01*
X145893225Y-150371011D01*
X145840000Y-150638589D01*
X145840000Y-150911411D01*
X145893225Y-151178989D01*
X145997629Y-151431043D01*
X146149201Y-151657886D01*
X146342114Y-151850799D01*
X146568957Y-152002371D01*
X146821011Y-152106775D01*
X147088589Y-152160000D01*
X147361411Y-152160000D01*
X147540002Y-152124476D01*
X147540002Y-152990000D01*
X147288589Y-152990000D01*
X147021011Y-153043225D01*
X146768957Y-153147629D01*
X146542114Y-153299201D01*
X146349201Y-153492114D01*
X146197629Y-153718957D01*
X146093225Y-153971011D01*
X146040000Y-154238589D01*
X146040000Y-154511411D01*
X146093225Y-154778989D01*
X146197629Y-155031043D01*
X146349201Y-155257886D01*
X146542114Y-155450799D01*
X146768957Y-155602371D01*
X147021011Y-155706775D01*
X147288589Y-155760000D01*
X147561411Y-155760000D01*
X147828989Y-155706775D01*
X147990012Y-155640077D01*
X147990012Y-156135186D01*
X147506365Y-156618833D01*
X147361411Y-156590000D01*
X147088589Y-156590000D01*
X146821011Y-156643225D01*
X146568957Y-156747629D01*
X146342114Y-156899201D01*
X146149201Y-157092114D01*
X145997629Y-157318957D01*
X145893225Y-157571011D01*
X145840000Y-157838589D01*
X145840000Y-158111411D01*
X145893225Y-158378989D01*
X145997629Y-158631043D01*
X146149201Y-158857886D01*
X146342114Y-159050799D01*
X146568957Y-159202371D01*
X146821011Y-159306775D01*
X147036266Y-159349592D01*
X146297272Y-160088587D01*
X146207886Y-159999201D01*
X145981043Y-159847629D01*
X145728989Y-159743225D01*
X145461411Y-159690000D01*
X145188589Y-159690000D01*
X144921011Y-159743225D01*
X144668957Y-159847629D01*
X144442114Y-159999201D01*
X144249201Y-160192114D01*
X144097629Y-160418957D01*
X143993225Y-160671011D01*
X143940000Y-160938589D01*
X143940000Y-161211411D01*
X143975524Y-161390001D01*
X139914803Y-161390001D01*
X139881167Y-161356365D01*
X139910000Y-161211411D01*
X139910000Y-160938589D01*
X139856775Y-160671011D01*
X139752371Y-160418957D01*
X139600799Y-160192114D01*
X139407886Y-159999201D01*
X139181043Y-159847629D01*
X138928989Y-159743225D01*
X138661411Y-159690000D01*
X138388589Y-159690000D01*
X138121011Y-159743225D01*
X137868957Y-159847629D01*
X137642114Y-159999201D01*
X137449201Y-160192114D01*
X137367091Y-160315000D01*
X106012322Y-160315000D01*
X105974999Y-160311324D01*
X105937676Y-160315000D01*
X105937667Y-160315000D01*
X105826014Y-160325997D01*
X105682753Y-160369454D01*
X105550723Y-160440026D01*
X105467083Y-160508668D01*
X105434999Y-160534999D01*
X105411201Y-160563997D01*
X100152201Y-165822998D01*
X100045156Y-165822998D01*
X100166476Y-165593110D01*
X100074352Y-165330142D01*
X99927496Y-165078807D01*
X99734429Y-164860951D01*
X99502570Y-164684947D01*
X99240830Y-164557558D01*
X98959267Y-164483680D01*
X98727000Y-164623835D01*
X98727000Y-165823000D01*
X98747000Y-165823000D01*
X98747000Y-166077000D01*
X98727000Y-166077000D01*
X98727000Y-166097000D01*
X98473000Y-166097000D01*
X98473000Y-166077000D01*
X97154845Y-166077000D01*
X97033524Y-166306890D01*
X97125648Y-166569858D01*
X97272504Y-166821193D01*
X97465571Y-167039049D01*
X97671722Y-167195538D01*
X97645986Y-167209294D01*
X97419866Y-167394866D01*
X97234294Y-167620986D01*
X97096401Y-167878966D01*
X97011487Y-168158889D01*
X96982815Y-168450000D01*
X95110000Y-168450000D01*
X95110000Y-165593110D01*
X97033524Y-165593110D01*
X97154845Y-165823000D01*
X98473000Y-165823000D01*
X98473000Y-164623835D01*
X98240733Y-164483680D01*
X97959170Y-164557558D01*
X97697430Y-164684947D01*
X97465571Y-164860951D01*
X97272504Y-165078807D01*
X97125648Y-165330142D01*
X97033524Y-165593110D01*
X95110000Y-165593110D01*
X95110000Y-124432279D01*
X95129437Y-124234042D01*
X95215000Y-124234042D01*
X95215000Y-124565958D01*
X95279754Y-124891496D01*
X95406772Y-125198147D01*
X95591175Y-125474125D01*
X95825875Y-125708825D01*
X96101853Y-125893228D01*
X96408504Y-126020246D01*
X96734042Y-126085000D01*
X97065958Y-126085000D01*
X97391496Y-126020246D01*
X97698147Y-125893228D01*
X97974125Y-125708825D01*
X98208825Y-125474125D01*
X98393228Y-125198147D01*
X98520246Y-124891496D01*
X98585000Y-124565958D01*
X98585000Y-124234042D01*
X320215000Y-124234042D01*
X320215000Y-124565958D01*
X320279754Y-124891496D01*
X320406772Y-125198147D01*
X320591175Y-125474125D01*
X320825875Y-125708825D01*
X321101853Y-125893228D01*
X321408504Y-126020246D01*
X321734042Y-126085000D01*
X322065958Y-126085000D01*
X322391496Y-126020246D01*
X322698147Y-125893228D01*
X322974125Y-125708825D01*
X323208825Y-125474125D01*
X323393228Y-125198147D01*
X323520246Y-124891496D01*
X323585000Y-124565958D01*
X323585000Y-124234042D01*
X323520246Y-123908504D01*
X323393228Y-123601853D01*
X323208825Y-123325875D01*
X322974125Y-123091175D01*
X322698147Y-122906772D01*
X322391496Y-122779754D01*
X322065958Y-122715000D01*
X321734042Y-122715000D01*
X321408504Y-122779754D01*
X321101853Y-122906772D01*
X320825875Y-123091175D01*
X320591175Y-123325875D01*
X320406772Y-123601853D01*
X320279754Y-123908504D01*
X320215000Y-124234042D01*
X98585000Y-124234042D01*
X98520246Y-123908504D01*
X98393228Y-123601853D01*
X98208825Y-123325875D01*
X97974125Y-123091175D01*
X97698147Y-122906772D01*
X97391496Y-122779754D01*
X97065958Y-122715000D01*
X96734042Y-122715000D01*
X96408504Y-122779754D01*
X96101853Y-122906772D01*
X95825875Y-123091175D01*
X95591175Y-123325875D01*
X95406772Y-123601853D01*
X95279754Y-123908504D01*
X95215000Y-124234042D01*
X95129437Y-124234042D01*
X95147195Y-124052936D01*
X95247990Y-123719088D01*
X95411708Y-123411179D01*
X95632115Y-123140935D01*
X95900813Y-122918647D01*
X96207572Y-122752783D01*
X96540710Y-122649660D01*
X96918051Y-122610000D01*
X321867721Y-122610000D01*
X322247064Y-122647195D01*
%TA.AperFunction,Conductor*%
D24*
G36*
X322247064Y-122647195D02*
G01*
X322580912Y-122747990D01*
X322888821Y-122911708D01*
X323159065Y-123132115D01*
X323381353Y-123400813D01*
X323547217Y-123707572D01*
X323650340Y-124040710D01*
X323690000Y-124418051D01*
X323690001Y-184317711D01*
X323652805Y-184697064D01*
X323552011Y-185030909D01*
X323388293Y-185338820D01*
X323167888Y-185609063D01*
X322899184Y-185831354D01*
X322592426Y-185997218D01*
X322259291Y-186100340D01*
X321881948Y-186140000D01*
X96932279Y-186140000D01*
X96552936Y-186102805D01*
X96219091Y-186002011D01*
X95911180Y-185838293D01*
X95640937Y-185617888D01*
X95418646Y-185349184D01*
X95252782Y-185042426D01*
X95149660Y-184709291D01*
X95110000Y-184331948D01*
X95110000Y-184184042D01*
X95215000Y-184184042D01*
X95215000Y-184515958D01*
X95279754Y-184841496D01*
X95406772Y-185148147D01*
X95591175Y-185424125D01*
X95825875Y-185658825D01*
X96101853Y-185843228D01*
X96408504Y-185970246D01*
X96734042Y-186035000D01*
X97065958Y-186035000D01*
X97391496Y-185970246D01*
X97698147Y-185843228D01*
X97974125Y-185658825D01*
X98208825Y-185424125D01*
X98393228Y-185148147D01*
X98520246Y-184841496D01*
X98585000Y-184515958D01*
X98585000Y-184184042D01*
X320215000Y-184184042D01*
X320215000Y-184515958D01*
X320279754Y-184841496D01*
X320406772Y-185148147D01*
X320591175Y-185424125D01*
X320825875Y-185658825D01*
X321101853Y-185843228D01*
X321408504Y-185970246D01*
X321734042Y-186035000D01*
X322065958Y-186035000D01*
X322391496Y-185970246D01*
X322698147Y-185843228D01*
X322974125Y-185658825D01*
X323208825Y-185424125D01*
X323393228Y-185148147D01*
X323520246Y-184841496D01*
X323585000Y-184515958D01*
X323585000Y-184184042D01*
X323520246Y-183858504D01*
X323393228Y-183551853D01*
X323208825Y-183275875D01*
X322974125Y-183041175D01*
X322698147Y-182856772D01*
X322391496Y-182729754D01*
X322065958Y-182665000D01*
X321734042Y-182665000D01*
X321408504Y-182729754D01*
X321101853Y-182856772D01*
X320825875Y-183041175D01*
X320591175Y-183275875D01*
X320406772Y-183551853D01*
X320279754Y-183858504D01*
X320215000Y-184184042D01*
X98585000Y-184184042D01*
X98520246Y-183858504D01*
X98393228Y-183551853D01*
X98208825Y-183275875D01*
X97974125Y-183041175D01*
X97698147Y-182856772D01*
X97391496Y-182729754D01*
X97065958Y-182665000D01*
X96734042Y-182665000D01*
X96408504Y-182729754D01*
X96101853Y-182856772D01*
X95825875Y-183041175D01*
X95591175Y-183275875D01*
X95406772Y-183551853D01*
X95279754Y-183858504D01*
X95215000Y-184184042D01*
X95110000Y-184184042D01*
X95110000Y-180225000D01*
X191961928Y-180225000D01*
X191974188Y-180349482D01*
X192010498Y-180469180D01*
X192069463Y-180579494D01*
X192148815Y-180676185D01*
X192245506Y-180755537D01*
X192355820Y-180814502D01*
X192475518Y-180850812D01*
X192600000Y-180863072D01*
X193064250Y-180860000D01*
X193223000Y-180701250D01*
X193223000Y-179827000D01*
X193477000Y-179827000D01*
X193477000Y-180701250D01*
X193635750Y-180860000D01*
X194100000Y-180863072D01*
X194224482Y-180850812D01*
X194344180Y-180814502D01*
X194454494Y-180755537D01*
X194551185Y-180676185D01*
X194630537Y-180579494D01*
X194689502Y-180469180D01*
X194725812Y-180349482D01*
X194738072Y-180225000D01*
X194735000Y-179985750D01*
X194576250Y-179827000D01*
X193477000Y-179827000D01*
X193223000Y-179827000D01*
X192123750Y-179827000D01*
X191965000Y-179985750D01*
X191961928Y-180225000D01*
X95110000Y-180225000D01*
X95110000Y-177160000D01*
X191959388Y-177160000D01*
X191981785Y-177387400D01*
X192048115Y-177606060D01*
X192149105Y-177795000D01*
X192048115Y-177983940D01*
X191981785Y-178202600D01*
X191959388Y-178430000D01*
X191981785Y-178657400D01*
X192045093Y-178866098D01*
X192010498Y-178930820D01*
X191974188Y-179050518D01*
X191961928Y-179175000D01*
X191965000Y-179414250D01*
X192123750Y-179573000D01*
X192896891Y-179573000D01*
X192897600Y-179573215D01*
X193068021Y-179590000D01*
X193631979Y-179590000D01*
X193802400Y-179573215D01*
X193803109Y-179573000D01*
X194576250Y-179573000D01*
X194735000Y-179414250D01*
X194737879Y-179190000D01*
X200622025Y-179190000D01*
X200613038Y-179198987D01*
X200466939Y-179417641D01*
X200366304Y-179660595D01*
X200315000Y-179918514D01*
X200315000Y-180181486D01*
X200366304Y-180439405D01*
X200466939Y-180682359D01*
X200613038Y-180901013D01*
X200798987Y-181086962D01*
X201017641Y-181233061D01*
X201260595Y-181333696D01*
X201518514Y-181385000D01*
X201781486Y-181385000D01*
X201888843Y-181363645D01*
X202111202Y-181586004D01*
X202135000Y-181615002D01*
X202250725Y-181709975D01*
X202382754Y-181780547D01*
X202526015Y-181824004D01*
X202637668Y-181835001D01*
X202637677Y-181835001D01*
X202675000Y-181838677D01*
X202712323Y-181835001D01*
X222842679Y-181835001D01*
X222880001Y-181838677D01*
X222917323Y-181835001D01*
X222917334Y-181835001D01*
X223028987Y-181824004D01*
X223172248Y-181780547D01*
X223304277Y-181709975D01*
X223420002Y-181615002D01*
X223443805Y-181585999D01*
X224356005Y-180673799D01*
X224385002Y-180650002D01*
X224434244Y-180590001D01*
X224479975Y-180534278D01*
X224550547Y-180402248D01*
X224566553Y-180349482D01*
X224594004Y-180258987D01*
X224605001Y-180147334D01*
X224605001Y-180147325D01*
X224608677Y-180110002D01*
X224605001Y-180072679D01*
X224605001Y-175652326D01*
X224608677Y-175615001D01*
X224605001Y-175577676D01*
X224605001Y-175577668D01*
X224594004Y-175466015D01*
X224550547Y-175322754D01*
X224479975Y-175190725D01*
X224385002Y-175075000D01*
X224356004Y-175051202D01*
X224118688Y-174813886D01*
X224155000Y-174631335D01*
X224155000Y-174348665D01*
X224099853Y-174071426D01*
X223991680Y-173810273D01*
X223834637Y-173575241D01*
X223634759Y-173375363D01*
X223402241Y-173220000D01*
X223634759Y-173064637D01*
X223834637Y-172864759D01*
X223991680Y-172629727D01*
X224099853Y-172368574D01*
X224155000Y-172091335D01*
X224155000Y-171808665D01*
X224099853Y-171531426D01*
X223991680Y-171270273D01*
X223834637Y-171035241D01*
X223634759Y-170835363D01*
X223399727Y-170678320D01*
X223138574Y-170570147D01*
X222861335Y-170515000D01*
X222578665Y-170515000D01*
X222301426Y-170570147D01*
X222040273Y-170678320D01*
X221805241Y-170835363D01*
X221605363Y-171035241D01*
X221448320Y-171270273D01*
X221340147Y-171531426D01*
X221285000Y-171808665D01*
X221285000Y-171980199D01*
X219618803Y-170314002D01*
X219595000Y-170284998D01*
X219479275Y-170190025D01*
X219347246Y-170119453D01*
X219203985Y-170075996D01*
X219092332Y-170064999D01*
X219092321Y-170064999D01*
X219054999Y-170061323D01*
X219017677Y-170064999D01*
X210762326Y-170064999D01*
X210725001Y-170061323D01*
X210687676Y-170064999D01*
X210687668Y-170064999D01*
X210576015Y-170075996D01*
X210432754Y-170119453D01*
X210300725Y-170190025D01*
X210185000Y-170284998D01*
X210161202Y-170313996D01*
X209538843Y-170936355D01*
X209431486Y-170915000D01*
X209168514Y-170915000D01*
X208910595Y-170966304D01*
X208667641Y-171066939D01*
X208448987Y-171213038D01*
X208263038Y-171398987D01*
X208116939Y-171617641D01*
X208016304Y-171860595D01*
X207965000Y-172118514D01*
X207965000Y-172381486D01*
X208016304Y-172639405D01*
X208116939Y-172882359D01*
X208263038Y-173101013D01*
X208448987Y-173286962D01*
X208667641Y-173433061D01*
X208910595Y-173533696D01*
X209168514Y-173585000D01*
X209431486Y-173585000D01*
X209689405Y-173533696D01*
X209932359Y-173433061D01*
X210151013Y-173286962D01*
X210336962Y-173101013D01*
X210483061Y-172882359D01*
X210583696Y-172639405D01*
X210635000Y-172381486D01*
X210635000Y-172118514D01*
X210613645Y-172011157D01*
X211039803Y-171584999D01*
X213664527Y-171584999D01*
X213665000Y-171664250D01*
X213823750Y-171823000D01*
X214973000Y-171823000D01*
X214973000Y-171803000D01*
X215227000Y-171803000D01*
X215227000Y-171823000D01*
X216376250Y-171823000D01*
X216535000Y-171664250D01*
X216535473Y-171584999D01*
X218740198Y-171584999D01*
X221321312Y-174166114D01*
X221285000Y-174348665D01*
X221285000Y-174520199D01*
X220743804Y-173979003D01*
X220720001Y-173949999D01*
X220604276Y-173855026D01*
X220472247Y-173784454D01*
X220328986Y-173740997D01*
X220217333Y-173730000D01*
X220217322Y-173730000D01*
X220180000Y-173726324D01*
X220142678Y-173730000D01*
X216318043Y-173730000D01*
X216214637Y-173575241D01*
X216016039Y-173376643D01*
X216024482Y-173375812D01*
X216144180Y-173339502D01*
X216254494Y-173280537D01*
X216351185Y-173201185D01*
X216430537Y-173104494D01*
X216489502Y-172994180D01*
X216525812Y-172874482D01*
X216538072Y-172750000D01*
X216535000Y-172235750D01*
X216376250Y-172077000D01*
X215227000Y-172077000D01*
X215227000Y-172097000D01*
X214973000Y-172097000D01*
X214973000Y-172077000D01*
X213823750Y-172077000D01*
X213665000Y-172235750D01*
X213661928Y-172750000D01*
X213674188Y-172874482D01*
X213710498Y-172994180D01*
X213769463Y-173104494D01*
X213848815Y-173201185D01*
X213945506Y-173280537D01*
X214055820Y-173339502D01*
X214175518Y-173375812D01*
X214183961Y-173376643D01*
X213985363Y-173575241D01*
X213881957Y-173730000D01*
X204234803Y-173730000D01*
X202993645Y-172488843D01*
X203015000Y-172381486D01*
X203015000Y-172118514D01*
X202963696Y-171860595D01*
X202863061Y-171617641D01*
X202716962Y-171398987D01*
X202531013Y-171213038D01*
X202312359Y-171066939D01*
X202069405Y-170966304D01*
X201811486Y-170915000D01*
X201548514Y-170915000D01*
X201441157Y-170936355D01*
X199343804Y-168839003D01*
X199320001Y-168809999D01*
X199204276Y-168715026D01*
X199072247Y-168644454D01*
X198928986Y-168600997D01*
X198817333Y-168590000D01*
X198817322Y-168590000D01*
X198780000Y-168586324D01*
X198742678Y-168590000D01*
X195838072Y-168590000D01*
X195838072Y-168550000D01*
X195830047Y-168468514D01*
X200345000Y-168468514D01*
X200345000Y-168731486D01*
X200396304Y-168989405D01*
X200496939Y-169232359D01*
X200643038Y-169451013D01*
X200828987Y-169636962D01*
X201047641Y-169783061D01*
X201290595Y-169883696D01*
X201548514Y-169935000D01*
X201811486Y-169935000D01*
X202069405Y-169883696D01*
X202312359Y-169783061D01*
X202531013Y-169636962D01*
X202716962Y-169451013D01*
X202863061Y-169232359D01*
X202963696Y-168989405D01*
X203015000Y-168731486D01*
X203015000Y-168468514D01*
X207965000Y-168468514D01*
X207965000Y-168731486D01*
X208016304Y-168989405D01*
X208116939Y-169232359D01*
X208263038Y-169451013D01*
X208448987Y-169636962D01*
X208667641Y-169783061D01*
X208910595Y-169883696D01*
X209168514Y-169935000D01*
X209431486Y-169935000D01*
X209689405Y-169883696D01*
X209932359Y-169783061D01*
X210151013Y-169636962D01*
X210336962Y-169451013D01*
X210483061Y-169232359D01*
X210583696Y-168989405D01*
X210635000Y-168731486D01*
X210635000Y-168468514D01*
X210583696Y-168210595D01*
X210483061Y-167967641D01*
X210336962Y-167748987D01*
X210151013Y-167563038D01*
X209932359Y-167416939D01*
X209689405Y-167316304D01*
X209431486Y-167265000D01*
X209168514Y-167265000D01*
X208910595Y-167316304D01*
X208667641Y-167416939D01*
X208448987Y-167563038D01*
X208263038Y-167748987D01*
X208116939Y-167967641D01*
X208016304Y-168210595D01*
X207965000Y-168468514D01*
X203015000Y-168468514D01*
X202963696Y-168210595D01*
X202863061Y-167967641D01*
X202716962Y-167748987D01*
X202531013Y-167563038D01*
X202312359Y-167416939D01*
X202069405Y-167316304D01*
X201811486Y-167265000D01*
X201548514Y-167265000D01*
X201290595Y-167316304D01*
X201047641Y-167416939D01*
X200828987Y-167563038D01*
X200643038Y-167748987D01*
X200496939Y-167967641D01*
X200396304Y-168210595D01*
X200345000Y-168468514D01*
X195830047Y-168468514D01*
X195825812Y-168425518D01*
X195789502Y-168305820D01*
X195730537Y-168195506D01*
X195651185Y-168098815D01*
X195554494Y-168019463D01*
X195444180Y-167960498D01*
X195324482Y-167924188D01*
X195200000Y-167911928D01*
X193600000Y-167911928D01*
X193475518Y-167924188D01*
X193355820Y-167960498D01*
X193245506Y-168019463D01*
X193148815Y-168098815D01*
X193069463Y-168195506D01*
X193010498Y-168305820D01*
X192974188Y-168425518D01*
X192961928Y-168550000D01*
X192961928Y-168557215D01*
X192892702Y-168536903D01*
X192079605Y-169350000D01*
X192892702Y-170163097D01*
X192961928Y-170142785D01*
X192961928Y-170150000D01*
X192974188Y-170274482D01*
X193010498Y-170394180D01*
X193069463Y-170504494D01*
X193148815Y-170601185D01*
X193245506Y-170680537D01*
X193355820Y-170739502D01*
X193475518Y-170775812D01*
X193600000Y-170788072D01*
X195200000Y-170788072D01*
X195324482Y-170775812D01*
X195444180Y-170739502D01*
X195554494Y-170680537D01*
X195651185Y-170601185D01*
X195730537Y-170504494D01*
X195789502Y-170394180D01*
X195825812Y-170274482D01*
X195838072Y-170150000D01*
X195838072Y-170110000D01*
X198465199Y-170110000D01*
X200366355Y-172011157D01*
X200345000Y-172118514D01*
X200345000Y-172381486D01*
X200396304Y-172639405D01*
X200496939Y-172882359D01*
X200643038Y-173101013D01*
X200828987Y-173286962D01*
X201047641Y-173433061D01*
X201290595Y-173533696D01*
X201548514Y-173585000D01*
X201811486Y-173585000D01*
X201918843Y-173563645D01*
X202717779Y-174362582D01*
X202705000Y-174361323D01*
X202667677Y-174364999D01*
X202667668Y-174364999D01*
X202556015Y-174375996D01*
X202412754Y-174419453D01*
X202280725Y-174490025D01*
X202165000Y-174584998D01*
X202141202Y-174613996D01*
X201918843Y-174836355D01*
X201811486Y-174815000D01*
X201548514Y-174815000D01*
X201290595Y-174866304D01*
X201047641Y-174966939D01*
X200828987Y-175113038D01*
X200643038Y-175298987D01*
X200496939Y-175517641D01*
X200396304Y-175760595D01*
X200345000Y-176018514D01*
X200345000Y-176281486D01*
X200396304Y-176539405D01*
X200496939Y-176782359D01*
X200643038Y-177001013D01*
X200828987Y-177186962D01*
X201047641Y-177333061D01*
X201290595Y-177433696D01*
X201548514Y-177485000D01*
X201811486Y-177485000D01*
X202069405Y-177433696D01*
X202312359Y-177333061D01*
X202531013Y-177186962D01*
X202716962Y-177001013D01*
X202863061Y-176782359D01*
X202963696Y-176539405D01*
X203015000Y-176281486D01*
X203015000Y-176018514D01*
X202993645Y-175911157D01*
X203019803Y-175884999D01*
X207991558Y-175884999D01*
X207965000Y-176018514D01*
X207965000Y-176281486D01*
X207986355Y-176388843D01*
X206705199Y-177670000D01*
X194617708Y-177670000D01*
X194651885Y-177606060D01*
X194718215Y-177387400D01*
X194740612Y-177160000D01*
X194718215Y-176932600D01*
X194651885Y-176713940D01*
X194544171Y-176512421D01*
X194399212Y-176335788D01*
X194222579Y-176190829D01*
X194021060Y-176083115D01*
X193802400Y-176016785D01*
X193631979Y-176000000D01*
X193068021Y-176000000D01*
X192897600Y-176016785D01*
X192678940Y-176083115D01*
X192477421Y-176190829D01*
X192300788Y-176335788D01*
X192155829Y-176512421D01*
X192048115Y-176713940D01*
X191981785Y-176932600D01*
X191959388Y-177160000D01*
X95110000Y-177160000D01*
X95110000Y-168450000D01*
X96982815Y-168450000D01*
X97011487Y-168741111D01*
X97096401Y-169021034D01*
X97234294Y-169279014D01*
X97419866Y-169505134D01*
X97483337Y-169557223D01*
X97381614Y-169611595D01*
X97247038Y-169722038D01*
X97136595Y-169856614D01*
X97054528Y-170010150D01*
X97003992Y-170176746D01*
X96986928Y-170350000D01*
X96986928Y-171550000D01*
X97003992Y-171723254D01*
X97054528Y-171889850D01*
X97136595Y-172043386D01*
X97247038Y-172177962D01*
X97381614Y-172288405D01*
X97535150Y-172370472D01*
X97701746Y-172421008D01*
X97875000Y-172438072D01*
X99325000Y-172438072D01*
X99498254Y-172421008D01*
X99664850Y-172370472D01*
X99818386Y-172288405D01*
X99952962Y-172177962D01*
X100063405Y-172043386D01*
X100145472Y-171889850D01*
X100196008Y-171723254D01*
X100213072Y-171550000D01*
X100213072Y-170350000D01*
X100212354Y-170342702D01*
X191086903Y-170342702D01*
X191158486Y-170586671D01*
X191413996Y-170707571D01*
X191688184Y-170776300D01*
X191970512Y-170790217D01*
X192250130Y-170748787D01*
X192516292Y-170653603D01*
X192641514Y-170586671D01*
X192713097Y-170342702D01*
X191900000Y-169529605D01*
X191086903Y-170342702D01*
X100212354Y-170342702D01*
X100196008Y-170176746D01*
X100145472Y-170010150D01*
X100063405Y-169856614D01*
X99952962Y-169722038D01*
X99818386Y-169611595D01*
X99716663Y-169557223D01*
X99780134Y-169505134D01*
X99849581Y-169420512D01*
X190459783Y-169420512D01*
X190501213Y-169700130D01*
X190596397Y-169966292D01*
X190663329Y-170091514D01*
X190907298Y-170163097D01*
X191720395Y-169350000D01*
X190907298Y-168536903D01*
X190663329Y-168608486D01*
X190542429Y-168863996D01*
X190473700Y-169138184D01*
X190459783Y-169420512D01*
X99849581Y-169420512D01*
X99965706Y-169279014D01*
X100103599Y-169021034D01*
X100188513Y-168741111D01*
X100217185Y-168450000D01*
X100208055Y-168357298D01*
X191086903Y-168357298D01*
X191900000Y-169170395D01*
X192713097Y-168357298D01*
X192641514Y-168113329D01*
X192386004Y-167992429D01*
X192111816Y-167923700D01*
X191829488Y-167909783D01*
X191549870Y-167951213D01*
X191283708Y-168046397D01*
X191158486Y-168113329D01*
X191086903Y-168357298D01*
X100208055Y-168357298D01*
X100188513Y-168158889D01*
X100136704Y-167988097D01*
X106289802Y-161835000D01*
X137367091Y-161835000D01*
X137449201Y-161957886D01*
X137642114Y-162150799D01*
X137868957Y-162302371D01*
X138121011Y-162406775D01*
X138388589Y-162460000D01*
X138661411Y-162460000D01*
X138806365Y-162431167D01*
X139036202Y-162661004D01*
X139060000Y-162690002D01*
X139088998Y-162713800D01*
X139175724Y-162784975D01*
X139307754Y-162855547D01*
X139451015Y-162899004D01*
X139562668Y-162910001D01*
X139562678Y-162910001D01*
X139600001Y-162913677D01*
X139637323Y-162910001D01*
X171887677Y-162910001D01*
X171924999Y-162913677D01*
X171962321Y-162910001D01*
X171962332Y-162910001D01*
X172073985Y-162899004D01*
X172217246Y-162855547D01*
X172349275Y-162784975D01*
X172465000Y-162690002D01*
X172488803Y-162660999D01*
X172718635Y-162431167D01*
X172863589Y-162460000D01*
X173136411Y-162460000D01*
X173281365Y-162431167D01*
X173511202Y-162661004D01*
X173535000Y-162690002D01*
X173563998Y-162713800D01*
X173650724Y-162784975D01*
X173782754Y-162855547D01*
X173926015Y-162899004D01*
X174037668Y-162910001D01*
X174037678Y-162910001D01*
X174075001Y-162913677D01*
X174112323Y-162910001D01*
X201587677Y-162910001D01*
X201624999Y-162913677D01*
X201662321Y-162910001D01*
X201662332Y-162910001D01*
X201773985Y-162899004D01*
X201917246Y-162855547D01*
X202049275Y-162784975D01*
X202165000Y-162690002D01*
X202188803Y-162660998D01*
X208986730Y-155863072D01*
X209813271Y-155863072D01*
X215536200Y-161586002D01*
X215559999Y-161615001D01*
X215675724Y-161709974D01*
X215807753Y-161780546D01*
X215951014Y-161824003D01*
X216062667Y-161835000D01*
X216062677Y-161835000D01*
X216100000Y-161838676D01*
X216137323Y-161835000D01*
X237842091Y-161835000D01*
X237924201Y-161957886D01*
X238117114Y-162150799D01*
X238343957Y-162302371D01*
X238596011Y-162406775D01*
X238863589Y-162460000D01*
X239136411Y-162460000D01*
X239281365Y-162431167D01*
X239511202Y-162661004D01*
X239535000Y-162690002D01*
X239563998Y-162713800D01*
X239650724Y-162784975D01*
X239782754Y-162855547D01*
X239926015Y-162899004D01*
X240037668Y-162910001D01*
X240037678Y-162910001D01*
X240075001Y-162913677D01*
X240112323Y-162910001D01*
X272362677Y-162910001D01*
X272399999Y-162913677D01*
X272437321Y-162910001D01*
X272437332Y-162910001D01*
X272548985Y-162899004D01*
X272692246Y-162855547D01*
X272824275Y-162784975D01*
X272940000Y-162690002D01*
X272963803Y-162660999D01*
X273193635Y-162431167D01*
X273338589Y-162460000D01*
X273611411Y-162460000D01*
X273878989Y-162406775D01*
X274131043Y-162302371D01*
X274357886Y-162150799D01*
X274550799Y-161957886D01*
X274702371Y-161731043D01*
X274806775Y-161478989D01*
X274860000Y-161211411D01*
X274860000Y-160938589D01*
X274806775Y-160671011D01*
X274702371Y-160418957D01*
X274550799Y-160192114D01*
X274357886Y-159999201D01*
X274131043Y-159847629D01*
X273878989Y-159743225D01*
X273611411Y-159690000D01*
X273338589Y-159690000D01*
X273071011Y-159743225D01*
X272818957Y-159847629D01*
X272592114Y-159999201D01*
X272399201Y-160192114D01*
X272247629Y-160418957D01*
X272143225Y-160671011D01*
X272090000Y-160938589D01*
X272090000Y-161211411D01*
X272118833Y-161356365D01*
X272085198Y-161390001D01*
X247620460Y-161390001D01*
X250186024Y-158824438D01*
X250215021Y-158800641D01*
X250241352Y-158768557D01*
X250309994Y-158684917D01*
X250380566Y-158552887D01*
X250392059Y-158515000D01*
X250424023Y-158409626D01*
X250435020Y-158297973D01*
X250435020Y-158297964D01*
X250438696Y-158260641D01*
X250435020Y-158223318D01*
X250435020Y-136900010D01*
X269286314Y-136900010D01*
X269289991Y-136937343D01*
X269289990Y-156412668D01*
X269286314Y-156449990D01*
X269289990Y-156487312D01*
X269289990Y-156487322D01*
X269300987Y-156598975D01*
X269334698Y-156710107D01*
X269344444Y-156742236D01*
X269415016Y-156874266D01*
X269435480Y-156899201D01*
X269509989Y-156989991D01*
X269538993Y-157013794D01*
X270218833Y-157693635D01*
X270190000Y-157838589D01*
X270190000Y-158111411D01*
X270243225Y-158378989D01*
X270347629Y-158631043D01*
X270499201Y-158857886D01*
X270692114Y-159050799D01*
X270918957Y-159202371D01*
X271171011Y-159306775D01*
X271438589Y-159360000D01*
X271711411Y-159360000D01*
X271978989Y-159306775D01*
X272231043Y-159202371D01*
X272457886Y-159050799D01*
X272650799Y-158857886D01*
X272802371Y-158631043D01*
X272906775Y-158378989D01*
X272960000Y-158111411D01*
X272960000Y-157838589D01*
X272906775Y-157571011D01*
X272802371Y-157318957D01*
X272650799Y-157092114D01*
X272457886Y-156899201D01*
X272231043Y-156747629D01*
X271978989Y-156643225D01*
X271711411Y-156590000D01*
X271438589Y-156590000D01*
X271293635Y-156618833D01*
X270809990Y-156135189D01*
X270809990Y-155640078D01*
X270971011Y-155706775D01*
X271238589Y-155760000D01*
X271511411Y-155760000D01*
X271778989Y-155706775D01*
X272031043Y-155602371D01*
X272257886Y-155450799D01*
X272450799Y-155257886D01*
X272602371Y-155031043D01*
X272706775Y-154778989D01*
X272760000Y-154511411D01*
X272760000Y-154238589D01*
X272735511Y-154115475D01*
X274240000Y-154115475D01*
X274240000Y-154634525D01*
X274341261Y-155143601D01*
X274539893Y-155623141D01*
X274828262Y-156054715D01*
X275195285Y-156421738D01*
X275626859Y-156710107D01*
X276106399Y-156908739D01*
X276615475Y-157010000D01*
X277134525Y-157010000D01*
X277643601Y-156908739D01*
X278123141Y-156710107D01*
X278554715Y-156421738D01*
X278921738Y-156054715D01*
X279210107Y-155623141D01*
X279408739Y-155143601D01*
X279510000Y-154634525D01*
X279510000Y-154115475D01*
X279408739Y-153606399D01*
X279210107Y-153126859D01*
X278921738Y-152695285D01*
X278554715Y-152328262D01*
X278123141Y-152039893D01*
X277643601Y-151841261D01*
X277134525Y-151740000D01*
X276615475Y-151740000D01*
X276106399Y-151841261D01*
X275626859Y-152039893D01*
X275195285Y-152328262D01*
X274828262Y-152695285D01*
X274539893Y-153126859D01*
X274341261Y-153606399D01*
X274240000Y-154115475D01*
X272735511Y-154115475D01*
X272706775Y-153971011D01*
X272602371Y-153718957D01*
X272450799Y-153492114D01*
X272257886Y-153299201D01*
X272031043Y-153147629D01*
X271778989Y-153043225D01*
X271511411Y-152990000D01*
X271259999Y-152990000D01*
X271259999Y-152124476D01*
X271438589Y-152160000D01*
X271711411Y-152160000D01*
X271978989Y-152106775D01*
X272231043Y-152002371D01*
X272457886Y-151850799D01*
X272650799Y-151657886D01*
X272802371Y-151431043D01*
X272906775Y-151178989D01*
X272960000Y-150911411D01*
X272960000Y-150638589D01*
X272906775Y-150371011D01*
X272802371Y-150118957D01*
X272650799Y-149892114D01*
X272457886Y-149699201D01*
X272335000Y-149617091D01*
X272335000Y-148361803D01*
X272399201Y-148457886D01*
X272592114Y-148650799D01*
X272818957Y-148802371D01*
X273071011Y-148906775D01*
X273338589Y-148960000D01*
X273611411Y-148960000D01*
X273878989Y-148906775D01*
X274131043Y-148802371D01*
X274357886Y-148650799D01*
X274550799Y-148457886D01*
X274702371Y-148231043D01*
X274806775Y-147978989D01*
X274860000Y-147711411D01*
X274860000Y-147438589D01*
X274806775Y-147171011D01*
X274702371Y-146918957D01*
X274550799Y-146692114D01*
X274357886Y-146499201D01*
X274235000Y-146417091D01*
X274235000Y-141289801D01*
X287638098Y-127886704D01*
X287808890Y-127938513D01*
X287925227Y-127949971D01*
X276363998Y-139511201D01*
X276335000Y-139534999D01*
X276311202Y-139563997D01*
X276311201Y-139563998D01*
X276240026Y-139650724D01*
X276169454Y-139782754D01*
X276144810Y-139863998D01*
X276125998Y-139926014D01*
X276120090Y-139986002D01*
X276111324Y-140075000D01*
X276115001Y-140112332D01*
X276115000Y-145217091D01*
X275992114Y-145299201D01*
X275799201Y-145492114D01*
X275647629Y-145718957D01*
X275543225Y-145971011D01*
X275490000Y-146238589D01*
X275490000Y-146511411D01*
X275543225Y-146778989D01*
X275647629Y-147031043D01*
X275799201Y-147257886D01*
X275992114Y-147450799D01*
X276218957Y-147602371D01*
X276471011Y-147706775D01*
X276738589Y-147760000D01*
X277011411Y-147760000D01*
X277278989Y-147706775D01*
X277531043Y-147602371D01*
X277757886Y-147450799D01*
X277950799Y-147257886D01*
X278102371Y-147031043D01*
X278206775Y-146778989D01*
X278260000Y-146511411D01*
X278260000Y-146238589D01*
X278206775Y-145971011D01*
X278102371Y-145718957D01*
X277950799Y-145492114D01*
X277757886Y-145299201D01*
X277635000Y-145217091D01*
X277635000Y-140389801D01*
X290138098Y-127886704D01*
X290308890Y-127938513D01*
X290425227Y-127949971D01*
X279763998Y-138611201D01*
X279735000Y-138634999D01*
X279711202Y-138663997D01*
X279711201Y-138663998D01*
X279640026Y-138750724D01*
X279569454Y-138882754D01*
X279551408Y-138942246D01*
X279525998Y-139026014D01*
X279518811Y-139098986D01*
X279511324Y-139175000D01*
X279515001Y-139212332D01*
X279515000Y-146417091D01*
X279392114Y-146499201D01*
X279199201Y-146692114D01*
X279047629Y-146918957D01*
X278943225Y-147171011D01*
X278890000Y-147438589D01*
X278890000Y-147711411D01*
X278943225Y-147978989D01*
X279047629Y-148231043D01*
X279199201Y-148457886D01*
X279392114Y-148650799D01*
X279618957Y-148802371D01*
X279871011Y-148906775D01*
X280138589Y-148960000D01*
X280411411Y-148960000D01*
X280678989Y-148906775D01*
X280931043Y-148802371D01*
X281157886Y-148650799D01*
X281350799Y-148457886D01*
X281415000Y-148361802D01*
X281415000Y-149617091D01*
X281292114Y-149699201D01*
X281099201Y-149892114D01*
X280947629Y-150118957D01*
X280843225Y-150371011D01*
X280790000Y-150638589D01*
X280790000Y-150911411D01*
X280843225Y-151178989D01*
X280947629Y-151431043D01*
X281099201Y-151657886D01*
X281292114Y-151850799D01*
X281518957Y-152002371D01*
X281771011Y-152106775D01*
X282038589Y-152160000D01*
X282311411Y-152160000D01*
X282578989Y-152106775D01*
X282831043Y-152002371D01*
X283057886Y-151850799D01*
X283250799Y-151657886D01*
X283402371Y-151431043D01*
X283506775Y-151178989D01*
X283560000Y-150911411D01*
X283560000Y-150638589D01*
X283506775Y-150371011D01*
X283402371Y-150118957D01*
X283250799Y-149892114D01*
X283057886Y-149699201D01*
X282935000Y-149617091D01*
X282935000Y-140089801D01*
X295138098Y-127886704D01*
X295308890Y-127938513D01*
X295600000Y-127967185D01*
X295891111Y-127938513D01*
X296171034Y-127853599D01*
X296429014Y-127715706D01*
X296655134Y-127530134D01*
X296840706Y-127304014D01*
X296850000Y-127286626D01*
X296859294Y-127304014D01*
X297044866Y-127530134D01*
X297270987Y-127715706D01*
X297340001Y-127752595D01*
X297340000Y-138335198D01*
X282656365Y-153018833D01*
X282511411Y-152990000D01*
X282238589Y-152990000D01*
X281971011Y-153043225D01*
X281718957Y-153147629D01*
X281492114Y-153299201D01*
X281299201Y-153492114D01*
X281147629Y-153718957D01*
X281043225Y-153971011D01*
X280990000Y-154238589D01*
X280990000Y-154511411D01*
X281043225Y-154778989D01*
X281147629Y-155031043D01*
X281299201Y-155257886D01*
X281492114Y-155450799D01*
X281718957Y-155602371D01*
X281971011Y-155706775D01*
X282238589Y-155760000D01*
X282511411Y-155760000D01*
X282778989Y-155706775D01*
X283031043Y-155602371D01*
X283257886Y-155450799D01*
X283450799Y-155257886D01*
X283602371Y-155031043D01*
X283706775Y-154778989D01*
X283760000Y-154511411D01*
X283760000Y-154238589D01*
X283731167Y-154093635D01*
X298611004Y-139213798D01*
X298640001Y-139190001D01*
X298734974Y-139074276D01*
X298805546Y-138942247D01*
X298849003Y-138798986D01*
X298860000Y-138687333D01*
X298860000Y-138687324D01*
X298863676Y-138650001D01*
X298860000Y-138612678D01*
X298860000Y-127752595D01*
X298929014Y-127715706D01*
X299155134Y-127530134D01*
X299340706Y-127304014D01*
X299350000Y-127286626D01*
X299359294Y-127304014D01*
X299544866Y-127530134D01*
X299770987Y-127715706D01*
X299840001Y-127752595D01*
X299840000Y-139235198D01*
X282456365Y-156618833D01*
X282311411Y-156590000D01*
X282038589Y-156590000D01*
X281771011Y-156643225D01*
X281518957Y-156747629D01*
X281292114Y-156899201D01*
X281099201Y-157092114D01*
X280947629Y-157318957D01*
X280843225Y-157571011D01*
X280790000Y-157838589D01*
X280790000Y-158111411D01*
X280843225Y-158378989D01*
X280947629Y-158631043D01*
X281099201Y-158857886D01*
X281292114Y-159050799D01*
X281518957Y-159202371D01*
X281771011Y-159306775D01*
X281986267Y-159349592D01*
X281247272Y-160088587D01*
X281157886Y-159999201D01*
X280931043Y-159847629D01*
X280678989Y-159743225D01*
X280411411Y-159690000D01*
X280138589Y-159690000D01*
X279871011Y-159743225D01*
X279618957Y-159847629D01*
X279392114Y-159999201D01*
X279199201Y-160192114D01*
X279047629Y-160418957D01*
X278943225Y-160671011D01*
X278890000Y-160938589D01*
X278890000Y-161211411D01*
X278943225Y-161478989D01*
X279047629Y-161731043D01*
X279199201Y-161957886D01*
X279392114Y-162150799D01*
X279618957Y-162302371D01*
X279871011Y-162406775D01*
X280138589Y-162460000D01*
X280411411Y-162460000D01*
X280678989Y-162406775D01*
X280931043Y-162302371D01*
X281157886Y-162150799D01*
X281350799Y-161957886D01*
X281437130Y-161828683D01*
X281484646Y-161824003D01*
X281627907Y-161780546D01*
X281759936Y-161709974D01*
X281875661Y-161615001D01*
X281899464Y-161585997D01*
X303611004Y-139874458D01*
X303640001Y-139850661D01*
X303734974Y-139734936D01*
X303805546Y-139602907D01*
X303849003Y-139459646D01*
X303860000Y-139347993D01*
X303860000Y-139347983D01*
X303863676Y-139310660D01*
X303860000Y-139273337D01*
X303860000Y-127752595D01*
X303929014Y-127715706D01*
X304155134Y-127530134D01*
X304340706Y-127304014D01*
X304478599Y-127046033D01*
X304563513Y-126766110D01*
X304585000Y-126547949D01*
X304585000Y-126152050D01*
X304563513Y-125933889D01*
X304478599Y-125653966D01*
X304340706Y-125395986D01*
X304155134Y-125169866D01*
X303929013Y-124984294D01*
X303671033Y-124846401D01*
X303391110Y-124761487D01*
X303100000Y-124732815D01*
X302808889Y-124761487D01*
X302528966Y-124846401D01*
X302270986Y-124984294D01*
X302044866Y-125169866D01*
X301859294Y-125395987D01*
X301850000Y-125413374D01*
X301840706Y-125395986D01*
X301655134Y-125169866D01*
X301429013Y-124984294D01*
X301171033Y-124846401D01*
X300891110Y-124761487D01*
X300600000Y-124732815D01*
X300308889Y-124761487D01*
X300028966Y-124846401D01*
X299770986Y-124984294D01*
X299544866Y-125169866D01*
X299359294Y-125395987D01*
X299350000Y-125413374D01*
X299340706Y-125395986D01*
X299155134Y-125169866D01*
X298929013Y-124984294D01*
X298671033Y-124846401D01*
X298391110Y-124761487D01*
X298100000Y-124732815D01*
X297808889Y-124761487D01*
X297528966Y-124846401D01*
X297270986Y-124984294D01*
X297044866Y-125169866D01*
X296859294Y-125395987D01*
X296850000Y-125413374D01*
X296840706Y-125395986D01*
X296655134Y-125169866D01*
X296429013Y-124984294D01*
X296171033Y-124846401D01*
X295891110Y-124761487D01*
X295600000Y-124732815D01*
X295308889Y-124761487D01*
X295028966Y-124846401D01*
X294770986Y-124984294D01*
X294544866Y-125169866D01*
X294359294Y-125395987D01*
X294350000Y-125413374D01*
X294340706Y-125395986D01*
X294155134Y-125169866D01*
X293929013Y-124984294D01*
X293671033Y-124846401D01*
X293391110Y-124761487D01*
X293100000Y-124732815D01*
X292808889Y-124761487D01*
X292528966Y-124846401D01*
X292270986Y-124984294D01*
X292044866Y-125169866D01*
X291859294Y-125395987D01*
X291850000Y-125413374D01*
X291840706Y-125395986D01*
X291655134Y-125169866D01*
X291429013Y-124984294D01*
X291171033Y-124846401D01*
X290891110Y-124761487D01*
X290600000Y-124732815D01*
X290308889Y-124761487D01*
X290028966Y-124846401D01*
X289770986Y-124984294D01*
X289544866Y-125169866D01*
X289359294Y-125395987D01*
X289350000Y-125413374D01*
X289340706Y-125395986D01*
X289155134Y-125169866D01*
X288929013Y-124984294D01*
X288671033Y-124846401D01*
X288391110Y-124761487D01*
X288100000Y-124732815D01*
X287808889Y-124761487D01*
X287528966Y-124846401D01*
X287270986Y-124984294D01*
X287044866Y-125169866D01*
X286859294Y-125395987D01*
X286850000Y-125413374D01*
X286840706Y-125395986D01*
X286655134Y-125169866D01*
X286429013Y-124984294D01*
X286171033Y-124846401D01*
X285891110Y-124761487D01*
X285600000Y-124732815D01*
X285308889Y-124761487D01*
X285028966Y-124846401D01*
X284770986Y-124984294D01*
X284544866Y-125169866D01*
X284359294Y-125395987D01*
X284350000Y-125413374D01*
X284340706Y-125395986D01*
X284155134Y-125169866D01*
X283929013Y-124984294D01*
X283671033Y-124846401D01*
X283391110Y-124761487D01*
X283100000Y-124732815D01*
X282808889Y-124761487D01*
X282528966Y-124846401D01*
X282270986Y-124984294D01*
X282044866Y-125169866D01*
X281992777Y-125233337D01*
X281938405Y-125131614D01*
X281827962Y-124997038D01*
X281693386Y-124886595D01*
X281539850Y-124804528D01*
X281373254Y-124753992D01*
X281200000Y-124736928D01*
X280000000Y-124736928D01*
X279826746Y-124753992D01*
X279660150Y-124804528D01*
X279506614Y-124886595D01*
X279372038Y-124997038D01*
X279261595Y-125131614D01*
X279179528Y-125285150D01*
X279128992Y-125451746D01*
X279111928Y-125625000D01*
X279111928Y-126763270D01*
X269538988Y-136336211D01*
X269509990Y-136360009D01*
X269486192Y-136389007D01*
X269486191Y-136389008D01*
X269415016Y-136475734D01*
X269344444Y-136607764D01*
X269300988Y-136751025D01*
X269286314Y-136900010D01*
X250435020Y-136900010D01*
X250435020Y-128362342D01*
X250438696Y-128325019D01*
X250435020Y-128287696D01*
X250435020Y-128287687D01*
X250424023Y-128176034D01*
X250380566Y-128032773D01*
X250343805Y-127963999D01*
X250309994Y-127900743D01*
X250238819Y-127814017D01*
X250215021Y-127785019D01*
X250186023Y-127761221D01*
X249165970Y-126741168D01*
X249185000Y-126547949D01*
X249185000Y-126152050D01*
X249163513Y-125933889D01*
X249078599Y-125653966D01*
X248940706Y-125395986D01*
X248755134Y-125169866D01*
X248529013Y-124984294D01*
X248271033Y-124846401D01*
X247991110Y-124761487D01*
X247700000Y-124732815D01*
X247408889Y-124761487D01*
X247128966Y-124846401D01*
X246870986Y-124984294D01*
X246644866Y-125169866D01*
X246459294Y-125395987D01*
X246450000Y-125413374D01*
X246440706Y-125395986D01*
X246255134Y-125169866D01*
X246029013Y-124984294D01*
X245771033Y-124846401D01*
X245491110Y-124761487D01*
X245200000Y-124732815D01*
X244908889Y-124761487D01*
X244628966Y-124846401D01*
X244370986Y-124984294D01*
X244144866Y-125169866D01*
X243959294Y-125395987D01*
X243950000Y-125413374D01*
X243940706Y-125395986D01*
X243755134Y-125169866D01*
X243529013Y-124984294D01*
X243271033Y-124846401D01*
X242991110Y-124761487D01*
X242700000Y-124732815D01*
X242408889Y-124761487D01*
X242128966Y-124846401D01*
X241870986Y-124984294D01*
X241644866Y-125169866D01*
X241459294Y-125395987D01*
X241450000Y-125413374D01*
X241440706Y-125395986D01*
X241255134Y-125169866D01*
X241029013Y-124984294D01*
X240771033Y-124846401D01*
X240491110Y-124761487D01*
X240200000Y-124732815D01*
X239908889Y-124761487D01*
X239628966Y-124846401D01*
X239370986Y-124984294D01*
X239144866Y-125169866D01*
X238959294Y-125395987D01*
X238950000Y-125413374D01*
X238940706Y-125395986D01*
X238755134Y-125169866D01*
X238529013Y-124984294D01*
X238271033Y-124846401D01*
X237991110Y-124761487D01*
X237700000Y-124732815D01*
X237408889Y-124761487D01*
X237128966Y-124846401D01*
X236870986Y-124984294D01*
X236644866Y-125169866D01*
X236459294Y-125395987D01*
X236450000Y-125413374D01*
X236440706Y-125395986D01*
X236255134Y-125169866D01*
X236029013Y-124984294D01*
X235771033Y-124846401D01*
X235491110Y-124761487D01*
X235200000Y-124732815D01*
X234908889Y-124761487D01*
X234628966Y-124846401D01*
X234370986Y-124984294D01*
X234144866Y-125169866D01*
X233959294Y-125395987D01*
X233950000Y-125413374D01*
X233940706Y-125395986D01*
X233755134Y-125169866D01*
X233529013Y-124984294D01*
X233271033Y-124846401D01*
X232991110Y-124761487D01*
X232700000Y-124732815D01*
X232408889Y-124761487D01*
X232128966Y-124846401D01*
X231870986Y-124984294D01*
X231644866Y-125169866D01*
X231459294Y-125395987D01*
X231450000Y-125413374D01*
X231440706Y-125395986D01*
X231255134Y-125169866D01*
X231029013Y-124984294D01*
X230771033Y-124846401D01*
X230491110Y-124761487D01*
X230200000Y-124732815D01*
X229908889Y-124761487D01*
X229628966Y-124846401D01*
X229370986Y-124984294D01*
X229144866Y-125169866D01*
X228959294Y-125395987D01*
X228950000Y-125413374D01*
X228940706Y-125395986D01*
X228755134Y-125169866D01*
X228529013Y-124984294D01*
X228271033Y-124846401D01*
X227991110Y-124761487D01*
X227700000Y-124732815D01*
X227408889Y-124761487D01*
X227128966Y-124846401D01*
X226870986Y-124984294D01*
X226644866Y-125169866D01*
X226592777Y-125233337D01*
X226538405Y-125131614D01*
X226427962Y-124997038D01*
X226293386Y-124886595D01*
X226139850Y-124804528D01*
X225973254Y-124753992D01*
X225800000Y-124736928D01*
X224600000Y-124736928D01*
X224426746Y-124753992D01*
X224260150Y-124804528D01*
X224106614Y-124886595D01*
X223972038Y-124997038D01*
X223861595Y-125131614D01*
X223779528Y-125285150D01*
X223728992Y-125451746D01*
X223711928Y-125625000D01*
X223711928Y-127075000D01*
X223728992Y-127248254D01*
X223779528Y-127414850D01*
X223861595Y-127568386D01*
X223972038Y-127702962D01*
X224106614Y-127813405D01*
X224260150Y-127895472D01*
X224426746Y-127946008D01*
X224440000Y-127947313D01*
X224440001Y-146037667D01*
X224436324Y-146075000D01*
X224450998Y-146223985D01*
X224494454Y-146367246D01*
X224565026Y-146499276D01*
X224636201Y-146586002D01*
X224660000Y-146615001D01*
X224688998Y-146638799D01*
X235743833Y-157693636D01*
X235715000Y-157838589D01*
X235715000Y-158111411D01*
X235768225Y-158378989D01*
X235872629Y-158631043D01*
X236024201Y-158857886D01*
X236217114Y-159050799D01*
X236443957Y-159202371D01*
X236696011Y-159306775D01*
X236963589Y-159360000D01*
X237236411Y-159360000D01*
X237503989Y-159306775D01*
X237756043Y-159202371D01*
X237982886Y-159050799D01*
X238175799Y-158857886D01*
X238327371Y-158631043D01*
X238431775Y-158378989D01*
X238485000Y-158111411D01*
X238485000Y-157838589D01*
X238431775Y-157571011D01*
X238327371Y-157318957D01*
X238175799Y-157092114D01*
X237982886Y-156899201D01*
X237756043Y-156747629D01*
X237503989Y-156643225D01*
X237236411Y-156590000D01*
X236963589Y-156590000D01*
X236818636Y-156618833D01*
X225960000Y-145760199D01*
X225960000Y-127947313D01*
X225973254Y-127946008D01*
X226139850Y-127895472D01*
X226293386Y-127813405D01*
X226427962Y-127702962D01*
X226538405Y-127568386D01*
X226592777Y-127466663D01*
X226644866Y-127530134D01*
X226870987Y-127715706D01*
X226940000Y-127752594D01*
X226940001Y-145137667D01*
X226936324Y-145175000D01*
X226940001Y-145212333D01*
X226950998Y-145323986D01*
X226955454Y-145338676D01*
X226994454Y-145467246D01*
X227065026Y-145599276D01*
X227107249Y-145650724D01*
X227160000Y-145715001D01*
X227188998Y-145738799D01*
X235543833Y-154093635D01*
X235515000Y-154238589D01*
X235515000Y-154511411D01*
X235568225Y-154778989D01*
X235672629Y-155031043D01*
X235824201Y-155257886D01*
X236017114Y-155450799D01*
X236243957Y-155602371D01*
X236496011Y-155706775D01*
X236763589Y-155760000D01*
X237036411Y-155760000D01*
X237303989Y-155706775D01*
X237556043Y-155602371D01*
X237782886Y-155450799D01*
X237975799Y-155257886D01*
X238127371Y-155031043D01*
X238231775Y-154778989D01*
X238285000Y-154511411D01*
X238285000Y-154238589D01*
X238260511Y-154115475D01*
X239765000Y-154115475D01*
X239765000Y-154634525D01*
X239866261Y-155143601D01*
X240064893Y-155623141D01*
X240353262Y-156054715D01*
X240720285Y-156421738D01*
X241151859Y-156710107D01*
X241631399Y-156908739D01*
X242140475Y-157010000D01*
X242659525Y-157010000D01*
X243168601Y-156908739D01*
X243648141Y-156710107D01*
X244079715Y-156421738D01*
X244446738Y-156054715D01*
X244735107Y-155623141D01*
X244933739Y-155143601D01*
X245035000Y-154634525D01*
X245035000Y-154115475D01*
X244933739Y-153606399D01*
X244735107Y-153126859D01*
X244446738Y-152695285D01*
X244079715Y-152328262D01*
X243648141Y-152039893D01*
X243168601Y-151841261D01*
X242659525Y-151740000D01*
X242140475Y-151740000D01*
X241631399Y-151841261D01*
X241151859Y-152039893D01*
X240720285Y-152328262D01*
X240353262Y-152695285D01*
X240064893Y-153126859D01*
X239866261Y-153606399D01*
X239765000Y-154115475D01*
X238260511Y-154115475D01*
X238231775Y-153971011D01*
X238127371Y-153718957D01*
X237975799Y-153492114D01*
X237782886Y-153299201D01*
X237556043Y-153147629D01*
X237303989Y-153043225D01*
X237036411Y-152990000D01*
X236763589Y-152990000D01*
X236618635Y-153018833D01*
X228460000Y-144860199D01*
X228460000Y-127752595D01*
X228529014Y-127715706D01*
X228755134Y-127530134D01*
X228940706Y-127304014D01*
X228950000Y-127286626D01*
X228959294Y-127304014D01*
X229144866Y-127530134D01*
X229370987Y-127715706D01*
X229440000Y-127752594D01*
X229440001Y-143837667D01*
X229436324Y-143875000D01*
X229450998Y-144023985D01*
X229494454Y-144167246D01*
X229565026Y-144299276D01*
X229636201Y-144386002D01*
X229660000Y-144415001D01*
X229688998Y-144438799D01*
X235743833Y-150493635D01*
X235715000Y-150638589D01*
X235715000Y-150911411D01*
X235768225Y-151178989D01*
X235872629Y-151431043D01*
X236024201Y-151657886D01*
X236217114Y-151850799D01*
X236443957Y-152002371D01*
X236696011Y-152106775D01*
X236963589Y-152160000D01*
X237236411Y-152160000D01*
X237503989Y-152106775D01*
X237756043Y-152002371D01*
X237982886Y-151850799D01*
X238175799Y-151657886D01*
X238327371Y-151431043D01*
X238431775Y-151178989D01*
X238485000Y-150911411D01*
X238485000Y-150638589D01*
X238431775Y-150371011D01*
X238327371Y-150118957D01*
X238175799Y-149892114D01*
X237982886Y-149699201D01*
X237756043Y-149547629D01*
X237503989Y-149443225D01*
X237236411Y-149390000D01*
X236963589Y-149390000D01*
X236818635Y-149418833D01*
X230960000Y-143560199D01*
X230960000Y-127752595D01*
X231029014Y-127715706D01*
X231255134Y-127530134D01*
X231440706Y-127304014D01*
X231450000Y-127286626D01*
X231459294Y-127304014D01*
X231644866Y-127530134D01*
X231870987Y-127715706D01*
X231940000Y-127752594D01*
X231940001Y-141237668D01*
X231936324Y-141275000D01*
X231950998Y-141423985D01*
X231994454Y-141567246D01*
X232065026Y-141699276D01*
X232136201Y-141786002D01*
X232160000Y-141815001D01*
X232188998Y-141838799D01*
X237643833Y-147293636D01*
X237615000Y-147438589D01*
X237615000Y-147711411D01*
X237668225Y-147978989D01*
X237772629Y-148231043D01*
X237924201Y-148457886D01*
X238117114Y-148650799D01*
X238343957Y-148802371D01*
X238596011Y-148906775D01*
X238863589Y-148960000D01*
X239136411Y-148960000D01*
X239403989Y-148906775D01*
X239656043Y-148802371D01*
X239882886Y-148650799D01*
X240075799Y-148457886D01*
X240227371Y-148231043D01*
X240331775Y-147978989D01*
X240385000Y-147711411D01*
X240385000Y-147438589D01*
X240331775Y-147171011D01*
X240227371Y-146918957D01*
X240075799Y-146692114D01*
X239882886Y-146499201D01*
X239656043Y-146347629D01*
X239403989Y-146243225D01*
X239136411Y-146190000D01*
X238863589Y-146190000D01*
X238718636Y-146218833D01*
X233460000Y-140960199D01*
X233460000Y-127752595D01*
X233529014Y-127715706D01*
X233755134Y-127530134D01*
X233940706Y-127304014D01*
X233950000Y-127286626D01*
X233959294Y-127304014D01*
X234144866Y-127530134D01*
X234370987Y-127715706D01*
X234440000Y-127752594D01*
X234440001Y-139137667D01*
X234436324Y-139175000D01*
X234440001Y-139212333D01*
X234450998Y-139323986D01*
X234464180Y-139367442D01*
X234494454Y-139467246D01*
X234565026Y-139599276D01*
X234635374Y-139684994D01*
X234660000Y-139715001D01*
X234688998Y-139738799D01*
X241043833Y-146093635D01*
X241015000Y-146238589D01*
X241015000Y-146511411D01*
X241068225Y-146778989D01*
X241172629Y-147031043D01*
X241324201Y-147257886D01*
X241517114Y-147450799D01*
X241743957Y-147602371D01*
X241996011Y-147706775D01*
X242263589Y-147760000D01*
X242536411Y-147760000D01*
X242803989Y-147706775D01*
X243056043Y-147602371D01*
X243282886Y-147450799D01*
X243475799Y-147257886D01*
X243627371Y-147031043D01*
X243731775Y-146778989D01*
X243764528Y-146614330D01*
X244443833Y-147293635D01*
X244415000Y-147438589D01*
X244415000Y-147711411D01*
X244468225Y-147978989D01*
X244572629Y-148231043D01*
X244724201Y-148457886D01*
X244917114Y-148650799D01*
X245143957Y-148802371D01*
X245396011Y-148906775D01*
X245663589Y-148960000D01*
X245936411Y-148960000D01*
X246203989Y-148906775D01*
X246456043Y-148802371D01*
X246682886Y-148650799D01*
X246875799Y-148457886D01*
X246940000Y-148361802D01*
X246940000Y-149617091D01*
X246817114Y-149699201D01*
X246624201Y-149892114D01*
X246472629Y-150118957D01*
X246368225Y-150371011D01*
X246315000Y-150638589D01*
X246315000Y-150911411D01*
X246368225Y-151178989D01*
X246472629Y-151431043D01*
X246624201Y-151657886D01*
X246817114Y-151850799D01*
X247043957Y-152002371D01*
X247296011Y-152106775D01*
X247563589Y-152160000D01*
X247836411Y-152160000D01*
X248015001Y-152124476D01*
X248015001Y-152990000D01*
X247763589Y-152990000D01*
X247496011Y-153043225D01*
X247243957Y-153147629D01*
X247017114Y-153299201D01*
X246824201Y-153492114D01*
X246672629Y-153718957D01*
X246568225Y-153971011D01*
X246515000Y-154238589D01*
X246515000Y-154511411D01*
X246568225Y-154778989D01*
X246672629Y-155031043D01*
X246824201Y-155257886D01*
X247017114Y-155450799D01*
X247243957Y-155602371D01*
X247496011Y-155706775D01*
X247763589Y-155760000D01*
X248036411Y-155760000D01*
X248303989Y-155706775D01*
X248465010Y-155640078D01*
X248465010Y-156135188D01*
X247981365Y-156618833D01*
X247836411Y-156590000D01*
X247563589Y-156590000D01*
X247296011Y-156643225D01*
X247043957Y-156747629D01*
X246817114Y-156899201D01*
X246624201Y-157092114D01*
X246472629Y-157318957D01*
X246368225Y-157571011D01*
X246315000Y-157838589D01*
X246315000Y-158111411D01*
X246368225Y-158378989D01*
X246472629Y-158631043D01*
X246624201Y-158857886D01*
X246817114Y-159050799D01*
X247043957Y-159202371D01*
X247296011Y-159306775D01*
X247511266Y-159349592D01*
X246772272Y-160088587D01*
X246682886Y-159999201D01*
X246456043Y-159847629D01*
X246203989Y-159743225D01*
X245936411Y-159690000D01*
X245663589Y-159690000D01*
X245396011Y-159743225D01*
X245143957Y-159847629D01*
X244917114Y-159999201D01*
X244724201Y-160192114D01*
X244572629Y-160418957D01*
X244468225Y-160671011D01*
X244415000Y-160938589D01*
X244415000Y-161211411D01*
X244450524Y-161390001D01*
X240389803Y-161390001D01*
X240356167Y-161356365D01*
X240385000Y-161211411D01*
X240385000Y-160938589D01*
X240331775Y-160671011D01*
X240227371Y-160418957D01*
X240075799Y-160192114D01*
X239882886Y-159999201D01*
X239656043Y-159847629D01*
X239403989Y-159743225D01*
X239136411Y-159690000D01*
X238863589Y-159690000D01*
X238596011Y-159743225D01*
X238343957Y-159847629D01*
X238117114Y-159999201D01*
X237924201Y-160192114D01*
X237842091Y-160315000D01*
X216414802Y-160315000D01*
X210888072Y-154788271D01*
X210888072Y-153525000D01*
X210875812Y-153400518D01*
X210839502Y-153280820D01*
X210780537Y-153170506D01*
X210701185Y-153073815D01*
X210604494Y-152994463D01*
X210494180Y-152935498D01*
X210421620Y-152913487D01*
X210553475Y-152781632D01*
X210715990Y-152538411D01*
X210827932Y-152268158D01*
X210885000Y-151981260D01*
X210885000Y-151688740D01*
X210827932Y-151401842D01*
X210715990Y-151131589D01*
X210553475Y-150888368D01*
X210346632Y-150681525D01*
X210103411Y-150519010D01*
X209833158Y-150407068D01*
X209546260Y-150350000D01*
X209253740Y-150350000D01*
X208966842Y-150407068D01*
X208696589Y-150519010D01*
X208453368Y-150681525D01*
X208246525Y-150888368D01*
X208084010Y-151131589D01*
X207972068Y-151401842D01*
X207915000Y-151688740D01*
X207915000Y-151981260D01*
X207972068Y-152268158D01*
X208084010Y-152538411D01*
X208246525Y-152781632D01*
X208378380Y-152913487D01*
X208305820Y-152935498D01*
X208195506Y-152994463D01*
X208098815Y-153073815D01*
X208019463Y-153170506D01*
X207960498Y-153280820D01*
X207924188Y-153400518D01*
X207911928Y-153525000D01*
X207911928Y-154788270D01*
X201310198Y-161390001D01*
X181620460Y-161390001D01*
X192661003Y-150349459D01*
X192690001Y-150325661D01*
X192784974Y-150209936D01*
X192855546Y-150077907D01*
X192899003Y-149934646D01*
X192910000Y-149822993D01*
X192910000Y-149822985D01*
X192913676Y-149785660D01*
X192910000Y-149748335D01*
X192910000Y-127752595D01*
X192979014Y-127715706D01*
X193205134Y-127530134D01*
X193390706Y-127304014D01*
X193528599Y-127046033D01*
X193613513Y-126766110D01*
X193635000Y-126547949D01*
X193635000Y-126152050D01*
X193613513Y-125933889D01*
X193528599Y-125653966D01*
X193390706Y-125395986D01*
X193205134Y-125169866D01*
X192979013Y-124984294D01*
X192721033Y-124846401D01*
X192441110Y-124761487D01*
X192150000Y-124732815D01*
X191858889Y-124761487D01*
X191578966Y-124846401D01*
X191320986Y-124984294D01*
X191094866Y-125169866D01*
X190909294Y-125395987D01*
X190900000Y-125413374D01*
X190890706Y-125395986D01*
X190705134Y-125169866D01*
X190479013Y-124984294D01*
X190221033Y-124846401D01*
X189941110Y-124761487D01*
X189650000Y-124732815D01*
X189358889Y-124761487D01*
X189078966Y-124846401D01*
X188820986Y-124984294D01*
X188594866Y-125169866D01*
X188409294Y-125395987D01*
X188400000Y-125413374D01*
X188390706Y-125395986D01*
X188205134Y-125169866D01*
X187979013Y-124984294D01*
X187721033Y-124846401D01*
X187441110Y-124761487D01*
X187150000Y-124732815D01*
X186858889Y-124761487D01*
X186578966Y-124846401D01*
X186320986Y-124984294D01*
X186094866Y-125169866D01*
X185909294Y-125395987D01*
X185900000Y-125413374D01*
X185890706Y-125395986D01*
X185705134Y-125169866D01*
X185479013Y-124984294D01*
X185221033Y-124846401D01*
X184941110Y-124761487D01*
X184650000Y-124732815D01*
X184358889Y-124761487D01*
X184078966Y-124846401D01*
X183820986Y-124984294D01*
X183594866Y-125169866D01*
X183409294Y-125395987D01*
X183400000Y-125413374D01*
X183390706Y-125395986D01*
X183205134Y-125169866D01*
X182979013Y-124984294D01*
X182721033Y-124846401D01*
X182441110Y-124761487D01*
X182150000Y-124732815D01*
X181858889Y-124761487D01*
X181578966Y-124846401D01*
X181320986Y-124984294D01*
X181094866Y-125169866D01*
X180909294Y-125395987D01*
X180900000Y-125413374D01*
X180890706Y-125395986D01*
X180705134Y-125169866D01*
X180479013Y-124984294D01*
X180221033Y-124846401D01*
X179941110Y-124761487D01*
X179650000Y-124732815D01*
X179358889Y-124761487D01*
X179078966Y-124846401D01*
X178820986Y-124984294D01*
X178594866Y-125169866D01*
X178409294Y-125395987D01*
X178400000Y-125413374D01*
X178390706Y-125395986D01*
X178205134Y-125169866D01*
X177979013Y-124984294D01*
X177721033Y-124846401D01*
X177441110Y-124761487D01*
X177150000Y-124732815D01*
X176858889Y-124761487D01*
X176578966Y-124846401D01*
X176320986Y-124984294D01*
X176094866Y-125169866D01*
X175909294Y-125395987D01*
X175900000Y-125413374D01*
X175890706Y-125395986D01*
X175705134Y-125169866D01*
X175479013Y-124984294D01*
X175221033Y-124846401D01*
X174941110Y-124761487D01*
X174650000Y-124732815D01*
X174358889Y-124761487D01*
X174078966Y-124846401D01*
X173820986Y-124984294D01*
X173594866Y-125169866D01*
X173409294Y-125395987D01*
X173400000Y-125413374D01*
X173390706Y-125395986D01*
X173205134Y-125169866D01*
X172979013Y-124984294D01*
X172721033Y-124846401D01*
X172441110Y-124761487D01*
X172150000Y-124732815D01*
X171858889Y-124761487D01*
X171578966Y-124846401D01*
X171320986Y-124984294D01*
X171094866Y-125169866D01*
X171042777Y-125233337D01*
X170988405Y-125131614D01*
X170877962Y-124997038D01*
X170743386Y-124886595D01*
X170589850Y-124804528D01*
X170423254Y-124753992D01*
X170250000Y-124736928D01*
X169050000Y-124736928D01*
X168876746Y-124753992D01*
X168710150Y-124804528D01*
X168556614Y-124886595D01*
X168422038Y-124997038D01*
X168311595Y-125131614D01*
X168229528Y-125285150D01*
X168178992Y-125451746D01*
X168161928Y-125625000D01*
X168161928Y-127075000D01*
X168178992Y-127248254D01*
X168229528Y-127414850D01*
X168311595Y-127568386D01*
X168422038Y-127702962D01*
X168556614Y-127813405D01*
X168710150Y-127895472D01*
X168814989Y-127927274D01*
X168814990Y-156412656D01*
X168811313Y-156449989D01*
X168814990Y-156487322D01*
X168825987Y-156598975D01*
X168839169Y-156642431D01*
X168869443Y-156742235D01*
X168940015Y-156874265D01*
X169011190Y-156960991D01*
X169034989Y-156989990D01*
X169063987Y-157013788D01*
X169743833Y-157693635D01*
X169715000Y-157838589D01*
X169715000Y-158111411D01*
X169768225Y-158378989D01*
X169872629Y-158631043D01*
X170024201Y-158857886D01*
X170217114Y-159050799D01*
X170443957Y-159202371D01*
X170696011Y-159306775D01*
X170963589Y-159360000D01*
X171236411Y-159360000D01*
X171503989Y-159306775D01*
X171756043Y-159202371D01*
X171982886Y-159050799D01*
X172175799Y-158857886D01*
X172327371Y-158631043D01*
X172431775Y-158378989D01*
X172485000Y-158111411D01*
X172485000Y-157838589D01*
X172431775Y-157571011D01*
X172327371Y-157318957D01*
X172175799Y-157092114D01*
X171982886Y-156899201D01*
X171756043Y-156747629D01*
X171503989Y-156643225D01*
X171236411Y-156590000D01*
X170963589Y-156590000D01*
X170818635Y-156618833D01*
X170334989Y-156135188D01*
X170334989Y-155640078D01*
X170496011Y-155706775D01*
X170763589Y-155760000D01*
X171036411Y-155760000D01*
X171303989Y-155706775D01*
X171556043Y-155602371D01*
X171782886Y-155450799D01*
X171975799Y-155257886D01*
X172127371Y-155031043D01*
X172231775Y-154778989D01*
X172285000Y-154511411D01*
X172285000Y-154238589D01*
X172260511Y-154115475D01*
X173765000Y-154115475D01*
X173765000Y-154634525D01*
X173866261Y-155143601D01*
X174064893Y-155623141D01*
X174353262Y-156054715D01*
X174720285Y-156421738D01*
X175151859Y-156710107D01*
X175631399Y-156908739D01*
X176140475Y-157010000D01*
X176659525Y-157010000D01*
X177168601Y-156908739D01*
X177648141Y-156710107D01*
X178079715Y-156421738D01*
X178446738Y-156054715D01*
X178735107Y-155623141D01*
X178933739Y-155143601D01*
X179035000Y-154634525D01*
X179035000Y-154115475D01*
X178933739Y-153606399D01*
X178735107Y-153126859D01*
X178446738Y-152695285D01*
X178079715Y-152328262D01*
X177648141Y-152039893D01*
X177168601Y-151841261D01*
X176659525Y-151740000D01*
X176140475Y-151740000D01*
X175631399Y-151841261D01*
X175151859Y-152039893D01*
X174720285Y-152328262D01*
X174353262Y-152695285D01*
X174064893Y-153126859D01*
X173866261Y-153606399D01*
X173765000Y-154115475D01*
X172260511Y-154115475D01*
X172231775Y-153971011D01*
X172127371Y-153718957D01*
X171975799Y-153492114D01*
X171782886Y-153299201D01*
X171556043Y-153147629D01*
X171303989Y-153043225D01*
X171036411Y-152990000D01*
X170784999Y-152990000D01*
X170784999Y-152124476D01*
X170963589Y-152160000D01*
X171236411Y-152160000D01*
X171503989Y-152106775D01*
X171756043Y-152002371D01*
X171982886Y-151850799D01*
X172175799Y-151657886D01*
X172327371Y-151431043D01*
X172431775Y-151178989D01*
X172485000Y-150911411D01*
X172485000Y-150638589D01*
X172431775Y-150371011D01*
X172327371Y-150118957D01*
X172175799Y-149892114D01*
X171982886Y-149699201D01*
X171860000Y-149617091D01*
X171860000Y-148361803D01*
X171924201Y-148457886D01*
X172117114Y-148650799D01*
X172343957Y-148802371D01*
X172596011Y-148906775D01*
X172863589Y-148960000D01*
X173136411Y-148960000D01*
X173403989Y-148906775D01*
X173656043Y-148802371D01*
X173882886Y-148650799D01*
X174075799Y-148457886D01*
X174227371Y-148231043D01*
X174331775Y-147978989D01*
X174385000Y-147711411D01*
X174385000Y-147438589D01*
X174331775Y-147171011D01*
X174227371Y-146918957D01*
X174075799Y-146692114D01*
X173882886Y-146499201D01*
X173760000Y-146417091D01*
X173760000Y-130814801D01*
X176688098Y-127886704D01*
X176858890Y-127938513D01*
X176975227Y-127949971D01*
X175888998Y-129036201D01*
X175860000Y-129059999D01*
X175836202Y-129088997D01*
X175836201Y-129088998D01*
X175765026Y-129175724D01*
X175694454Y-129307754D01*
X175669810Y-129388998D01*
X175651609Y-129449002D01*
X175650998Y-129451015D01*
X175636324Y-129600000D01*
X175640001Y-129637333D01*
X175640000Y-145217091D01*
X175517114Y-145299201D01*
X175324201Y-145492114D01*
X175172629Y-145718957D01*
X175068225Y-145971011D01*
X175015000Y-146238589D01*
X175015000Y-146511411D01*
X175068225Y-146778989D01*
X175172629Y-147031043D01*
X175324201Y-147257886D01*
X175517114Y-147450799D01*
X175743957Y-147602371D01*
X175996011Y-147706775D01*
X176263589Y-147760000D01*
X176536411Y-147760000D01*
X176803989Y-147706775D01*
X177056043Y-147602371D01*
X177282886Y-147450799D01*
X177475799Y-147257886D01*
X177627371Y-147031043D01*
X177731775Y-146778989D01*
X177785000Y-146511411D01*
X177785000Y-146238589D01*
X177731775Y-145971011D01*
X177627371Y-145718957D01*
X177475799Y-145492114D01*
X177282886Y-145299201D01*
X177160000Y-145217091D01*
X177160000Y-129914801D01*
X179188098Y-127886704D01*
X179358890Y-127938513D01*
X179475228Y-127949971D01*
X179288998Y-128136201D01*
X179260000Y-128159999D01*
X179236202Y-128188997D01*
X179236201Y-128188998D01*
X179165026Y-128275724D01*
X179094454Y-128407754D01*
X179074358Y-128474005D01*
X179050998Y-128551014D01*
X179046273Y-128598985D01*
X179036324Y-128700000D01*
X179040001Y-128737333D01*
X179040000Y-146417091D01*
X178917114Y-146499201D01*
X178724201Y-146692114D01*
X178572629Y-146918957D01*
X178468225Y-147171011D01*
X178415000Y-147438589D01*
X178415000Y-147711411D01*
X178468225Y-147978989D01*
X178572629Y-148231043D01*
X178724201Y-148457886D01*
X178917114Y-148650799D01*
X179143957Y-148802371D01*
X179396011Y-148906775D01*
X179663589Y-148960000D01*
X179936411Y-148960000D01*
X180203989Y-148906775D01*
X180456043Y-148802371D01*
X180682886Y-148650799D01*
X180875799Y-148457886D01*
X180940000Y-148361802D01*
X180940000Y-149617091D01*
X180817114Y-149699201D01*
X180624201Y-149892114D01*
X180472629Y-150118957D01*
X180368225Y-150371011D01*
X180315000Y-150638589D01*
X180315000Y-150911411D01*
X180368225Y-151178989D01*
X180472629Y-151431043D01*
X180624201Y-151657886D01*
X180817114Y-151850799D01*
X181043957Y-152002371D01*
X181296011Y-152106775D01*
X181563589Y-152160000D01*
X181836411Y-152160000D01*
X182103989Y-152106775D01*
X182356043Y-152002371D01*
X182582886Y-151850799D01*
X182775799Y-151657886D01*
X182927371Y-151431043D01*
X183031775Y-151178989D01*
X183085000Y-150911411D01*
X183085000Y-150638589D01*
X183031775Y-150371011D01*
X182927371Y-150118957D01*
X182775799Y-149892114D01*
X182582886Y-149699201D01*
X182460000Y-149617091D01*
X182460000Y-129614801D01*
X184188098Y-127886704D01*
X184358890Y-127938513D01*
X184650000Y-127967185D01*
X184941111Y-127938513D01*
X185221034Y-127853599D01*
X185479014Y-127715706D01*
X185705134Y-127530134D01*
X185890706Y-127304014D01*
X185900000Y-127286626D01*
X185909294Y-127304014D01*
X186094866Y-127530134D01*
X186320987Y-127715706D01*
X186390001Y-127752595D01*
X186390000Y-148810198D01*
X182181365Y-153018833D01*
X182036411Y-152990000D01*
X181763589Y-152990000D01*
X181496011Y-153043225D01*
X181243957Y-153147629D01*
X181017114Y-153299201D01*
X180824201Y-153492114D01*
X180672629Y-153718957D01*
X180568225Y-153971011D01*
X180515000Y-154238589D01*
X180515000Y-154511411D01*
X180568225Y-154778989D01*
X180672629Y-155031043D01*
X180824201Y-155257886D01*
X181017114Y-155450799D01*
X181243957Y-155602371D01*
X181496011Y-155706775D01*
X181763589Y-155760000D01*
X182036411Y-155760000D01*
X182303989Y-155706775D01*
X182556043Y-155602371D01*
X182782886Y-155450799D01*
X182975799Y-155257886D01*
X183127371Y-155031043D01*
X183231775Y-154778989D01*
X183285000Y-154511411D01*
X183285000Y-154238589D01*
X183256167Y-154093635D01*
X187661004Y-149688798D01*
X187690001Y-149665001D01*
X187784974Y-149549276D01*
X187855546Y-149417247D01*
X187899003Y-149273986D01*
X187910000Y-149162333D01*
X187910000Y-149162324D01*
X187913676Y-149125001D01*
X187910000Y-149087678D01*
X187910000Y-127752595D01*
X187979014Y-127715706D01*
X188205134Y-127530134D01*
X188390706Y-127304014D01*
X188400000Y-127286626D01*
X188409294Y-127304014D01*
X188594866Y-127530134D01*
X188820987Y-127715706D01*
X188890000Y-127752594D01*
X188890001Y-149710197D01*
X181981365Y-156618833D01*
X181836411Y-156590000D01*
X181563589Y-156590000D01*
X181296011Y-156643225D01*
X181043957Y-156747629D01*
X180817114Y-156899201D01*
X180624201Y-157092114D01*
X180472629Y-157318957D01*
X180368225Y-157571011D01*
X180315000Y-157838589D01*
X180315000Y-158111411D01*
X180368225Y-158378989D01*
X180472629Y-158631043D01*
X180624201Y-158857886D01*
X180817114Y-159050799D01*
X181043957Y-159202371D01*
X181296011Y-159306775D01*
X181511267Y-159349592D01*
X180772272Y-160088587D01*
X180682886Y-159999201D01*
X180456043Y-159847629D01*
X180203989Y-159743225D01*
X179936411Y-159690000D01*
X179663589Y-159690000D01*
X179396011Y-159743225D01*
X179143957Y-159847629D01*
X178917114Y-159999201D01*
X178724201Y-160192114D01*
X178572629Y-160418957D01*
X178468225Y-160671011D01*
X178415000Y-160938589D01*
X178415000Y-161211411D01*
X178450524Y-161390001D01*
X174389803Y-161390001D01*
X174356167Y-161356365D01*
X174385000Y-161211411D01*
X174385000Y-160938589D01*
X174331775Y-160671011D01*
X174227371Y-160418957D01*
X174075799Y-160192114D01*
X173882886Y-159999201D01*
X173656043Y-159847629D01*
X173403989Y-159743225D01*
X173136411Y-159690000D01*
X172863589Y-159690000D01*
X172596011Y-159743225D01*
X172343957Y-159847629D01*
X172117114Y-159999201D01*
X171924201Y-160192114D01*
X171772629Y-160418957D01*
X171668225Y-160671011D01*
X171615000Y-160938589D01*
X171615000Y-161211411D01*
X171643833Y-161356365D01*
X171610198Y-161390001D01*
X147145460Y-161390001D01*
X149711023Y-158824439D01*
X149740021Y-158800641D01*
X149766352Y-158768557D01*
X149834994Y-158684917D01*
X149905566Y-158552887D01*
X149917059Y-158515000D01*
X149949023Y-158409626D01*
X149960020Y-158297973D01*
X149960020Y-158297964D01*
X149963696Y-158260641D01*
X149960020Y-158223318D01*
X149960020Y-139087353D01*
X149963697Y-139050020D01*
X149949023Y-138901034D01*
X149905566Y-138757773D01*
X149834994Y-138625744D01*
X149763819Y-138539017D01*
X149740021Y-138510019D01*
X149711024Y-138486222D01*
X137965970Y-126741168D01*
X137985000Y-126547949D01*
X137985000Y-126152050D01*
X137963513Y-125933889D01*
X137878599Y-125653966D01*
X137740706Y-125395986D01*
X137555134Y-125169866D01*
X137329013Y-124984294D01*
X137071033Y-124846401D01*
X136791110Y-124761487D01*
X136500000Y-124732815D01*
X136208889Y-124761487D01*
X135928966Y-124846401D01*
X135670986Y-124984294D01*
X135444866Y-125169866D01*
X135259294Y-125395987D01*
X135250000Y-125413374D01*
X135240706Y-125395986D01*
X135055134Y-125169866D01*
X134829013Y-124984294D01*
X134571033Y-124846401D01*
X134291110Y-124761487D01*
X134000000Y-124732815D01*
X133708889Y-124761487D01*
X133428966Y-124846401D01*
X133170986Y-124984294D01*
X132944866Y-125169866D01*
X132759294Y-125395987D01*
X132750000Y-125413374D01*
X132740706Y-125395986D01*
X132555134Y-125169866D01*
X132329013Y-124984294D01*
X132071033Y-124846401D01*
X131791110Y-124761487D01*
X131500000Y-124732815D01*
X131208889Y-124761487D01*
X130928966Y-124846401D01*
X130670986Y-124984294D01*
X130444866Y-125169866D01*
X130259294Y-125395987D01*
X130250000Y-125413374D01*
X130240706Y-125395986D01*
X130055134Y-125169866D01*
X129829013Y-124984294D01*
X129571033Y-124846401D01*
X129291110Y-124761487D01*
X129000000Y-124732815D01*
X128708889Y-124761487D01*
X128428966Y-124846401D01*
X128170986Y-124984294D01*
X127944866Y-125169866D01*
X127759294Y-125395987D01*
X127750000Y-125413374D01*
X127740706Y-125395986D01*
X127555134Y-125169866D01*
X127329013Y-124984294D01*
X127071033Y-124846401D01*
X126791110Y-124761487D01*
X126500000Y-124732815D01*
X126208889Y-124761487D01*
X125928966Y-124846401D01*
X125670986Y-124984294D01*
X125444866Y-125169866D01*
X125259294Y-125395987D01*
X125250000Y-125413374D01*
X125240706Y-125395986D01*
X125055134Y-125169866D01*
X124829013Y-124984294D01*
X124571033Y-124846401D01*
X124291110Y-124761487D01*
X124000000Y-124732815D01*
X123708889Y-124761487D01*
X123428966Y-124846401D01*
X123170986Y-124984294D01*
X122944866Y-125169866D01*
X122759294Y-125395987D01*
X122750000Y-125413374D01*
X122740706Y-125395986D01*
X122555134Y-125169866D01*
X122329013Y-124984294D01*
X122071033Y-124846401D01*
X121791110Y-124761487D01*
X121500000Y-124732815D01*
X121208889Y-124761487D01*
X120928966Y-124846401D01*
X120670986Y-124984294D01*
X120444866Y-125169866D01*
X120259294Y-125395987D01*
X120250000Y-125413374D01*
X120240706Y-125395986D01*
X120055134Y-125169866D01*
X119829013Y-124984294D01*
X119571033Y-124846401D01*
X119291110Y-124761487D01*
X119000000Y-124732815D01*
X118708889Y-124761487D01*
X118428966Y-124846401D01*
X118170986Y-124984294D01*
X117944866Y-125169866D01*
X117759294Y-125395987D01*
X117750000Y-125413374D01*
X117740706Y-125395986D01*
X117555134Y-125169866D01*
X117329013Y-124984294D01*
X117071033Y-124846401D01*
X116791110Y-124761487D01*
X116500000Y-124732815D01*
X116208889Y-124761487D01*
X115928966Y-124846401D01*
X115670986Y-124984294D01*
X115444866Y-125169866D01*
X115392777Y-125233337D01*
X115338405Y-125131614D01*
X115227962Y-124997038D01*
X115093386Y-124886595D01*
X114939850Y-124804528D01*
X114773254Y-124753992D01*
X114600000Y-124736928D01*
X113400000Y-124736928D01*
X113226746Y-124753992D01*
X113060150Y-124804528D01*
X112906614Y-124886595D01*
X112772038Y-124997038D01*
X112661595Y-125131614D01*
X112579528Y-125285150D01*
X112528992Y-125451746D01*
X112511928Y-125625000D01*
X112511928Y-127075000D01*
X112528992Y-127248254D01*
X112579528Y-127414850D01*
X112661595Y-127568386D01*
X112772038Y-127702962D01*
X112906614Y-127813405D01*
X113060150Y-127895472D01*
X113226746Y-127946008D01*
X113240000Y-127947313D01*
X113240001Y-135312668D01*
X113236324Y-135350000D01*
X113250998Y-135498985D01*
X113294454Y-135642246D01*
X113365026Y-135774276D01*
X113436201Y-135861002D01*
X113460000Y-135890001D01*
X113488998Y-135913799D01*
X135268833Y-157693635D01*
X135240000Y-157838589D01*
X135240000Y-158111411D01*
X135293225Y-158378989D01*
X135397629Y-158631043D01*
X135549201Y-158857886D01*
X135742114Y-159050799D01*
X135968957Y-159202371D01*
X136221011Y-159306775D01*
X136488589Y-159360000D01*
X136761411Y-159360000D01*
X137028989Y-159306775D01*
X137281043Y-159202371D01*
X137507886Y-159050799D01*
X137700799Y-158857886D01*
X137852371Y-158631043D01*
X137956775Y-158378989D01*
X138010000Y-158111411D01*
X138010000Y-157838589D01*
X137956775Y-157571011D01*
X137852371Y-157318957D01*
X137700799Y-157092114D01*
X137507886Y-156899201D01*
X137281043Y-156747629D01*
X137028989Y-156643225D01*
X136761411Y-156590000D01*
X136488589Y-156590000D01*
X136343635Y-156618833D01*
X114760000Y-135035199D01*
X114760000Y-127947313D01*
X114773254Y-127946008D01*
X114939850Y-127895472D01*
X115093386Y-127813405D01*
X115227962Y-127702962D01*
X115338405Y-127568386D01*
X115392777Y-127466663D01*
X115444866Y-127530134D01*
X115670987Y-127715706D01*
X115740000Y-127752594D01*
X115740001Y-134412668D01*
X115736324Y-134450000D01*
X115740001Y-134487333D01*
X115750998Y-134598986D01*
X115755454Y-134613676D01*
X115794454Y-134742246D01*
X115865026Y-134874276D01*
X115907249Y-134925724D01*
X115960000Y-134990001D01*
X115988998Y-135013799D01*
X135068833Y-154093635D01*
X135040000Y-154238589D01*
X135040000Y-154511411D01*
X135093225Y-154778989D01*
X135197629Y-155031043D01*
X135349201Y-155257886D01*
X135542114Y-155450799D01*
X135768957Y-155602371D01*
X136021011Y-155706775D01*
X136288589Y-155760000D01*
X136561411Y-155760000D01*
X136828989Y-155706775D01*
X137081043Y-155602371D01*
X137307886Y-155450799D01*
X137500799Y-155257886D01*
X137652371Y-155031043D01*
X137756775Y-154778989D01*
X137810000Y-154511411D01*
X137810000Y-154238589D01*
X137785511Y-154115475D01*
X139290000Y-154115475D01*
X139290000Y-154634525D01*
X139391261Y-155143601D01*
X139589893Y-155623141D01*
X139878262Y-156054715D01*
X140245285Y-156421738D01*
X140676859Y-156710107D01*
X141156399Y-156908739D01*
X141665475Y-157010000D01*
X142184525Y-157010000D01*
X142693601Y-156908739D01*
X143173141Y-156710107D01*
X143604715Y-156421738D01*
X143971738Y-156054715D01*
X144260107Y-155623141D01*
X144458739Y-155143601D01*
X144560000Y-154634525D01*
X144560000Y-154115475D01*
X144458739Y-153606399D01*
X144260107Y-153126859D01*
X143971738Y-152695285D01*
X143604715Y-152328262D01*
X143173141Y-152039893D01*
X142693601Y-151841261D01*
X142184525Y-151740000D01*
X141665475Y-151740000D01*
X141156399Y-151841261D01*
X140676859Y-152039893D01*
X140245285Y-152328262D01*
X139878262Y-152695285D01*
X139589893Y-153126859D01*
X139391261Y-153606399D01*
X139290000Y-154115475D01*
X137785511Y-154115475D01*
X137756775Y-153971011D01*
X137652371Y-153718957D01*
X137500799Y-153492114D01*
X137307886Y-153299201D01*
X137081043Y-153147629D01*
X136828989Y-153043225D01*
X136561411Y-152990000D01*
X136288589Y-152990000D01*
X136143635Y-153018833D01*
X117260000Y-134135199D01*
X117260000Y-127752595D01*
X117329014Y-127715706D01*
X117555134Y-127530134D01*
X117740706Y-127304014D01*
X117750000Y-127286626D01*
X117759294Y-127304014D01*
X117944866Y-127530134D01*
X118170987Y-127715706D01*
X118240000Y-127752594D01*
X118240001Y-133112668D01*
X118236324Y-133150000D01*
X118250998Y-133298985D01*
X118294454Y-133442246D01*
X118365026Y-133574276D01*
X118436201Y-133661002D01*
X118460000Y-133690001D01*
X118488998Y-133713799D01*
X135268833Y-150493635D01*
X135240000Y-150638589D01*
X135240000Y-150911411D01*
X135293225Y-151178989D01*
X135397629Y-151431043D01*
X135549201Y-151657886D01*
X135742114Y-151850799D01*
X135968957Y-152002371D01*
X136221011Y-152106775D01*
X136488589Y-152160000D01*
X136761411Y-152160000D01*
X137028989Y-152106775D01*
X137281043Y-152002371D01*
X137507886Y-151850799D01*
X137700799Y-151657886D01*
X137852371Y-151431043D01*
X137956775Y-151178989D01*
X138010000Y-150911411D01*
X138010000Y-150638589D01*
X137956775Y-150371011D01*
X137852371Y-150118957D01*
X137700799Y-149892114D01*
X137507886Y-149699201D01*
X137281043Y-149547629D01*
X137028989Y-149443225D01*
X136761411Y-149390000D01*
X136488589Y-149390000D01*
X136343635Y-149418833D01*
X119760000Y-132835199D01*
X119760000Y-127752595D01*
X119829014Y-127715706D01*
X120055134Y-127530134D01*
X120240706Y-127304014D01*
X120250000Y-127286626D01*
X120259294Y-127304014D01*
X120444866Y-127530134D01*
X120670987Y-127715706D01*
X120740000Y-127752594D01*
X120740001Y-130512668D01*
X120736324Y-130550000D01*
X120750998Y-130698985D01*
X120794454Y-130842246D01*
X120865026Y-130974276D01*
X120918966Y-131040001D01*
X120960000Y-131090001D01*
X120988998Y-131113799D01*
X137168833Y-147293635D01*
X137140000Y-147438589D01*
X137140000Y-147711411D01*
X137193225Y-147978989D01*
X137297629Y-148231043D01*
X137449201Y-148457886D01*
X137642114Y-148650799D01*
X137868957Y-148802371D01*
X138121011Y-148906775D01*
X138388589Y-148960000D01*
X138661411Y-148960000D01*
X138928989Y-148906775D01*
X139181043Y-148802371D01*
X139407886Y-148650799D01*
X139600799Y-148457886D01*
X139752371Y-148231043D01*
X139856775Y-147978989D01*
X139910000Y-147711411D01*
X139910000Y-147438589D01*
X139856775Y-147171011D01*
X139752371Y-146918957D01*
X139600799Y-146692114D01*
X139407886Y-146499201D01*
X139181043Y-146347629D01*
X138928989Y-146243225D01*
X138661411Y-146190000D01*
X138388589Y-146190000D01*
X138243635Y-146218833D01*
X122260000Y-130235199D01*
X122260000Y-127752595D01*
X122329014Y-127715706D01*
X122555134Y-127530134D01*
X122740706Y-127304014D01*
X122750000Y-127286626D01*
X122759294Y-127304014D01*
X122944866Y-127530134D01*
X123170987Y-127715706D01*
X123240001Y-127752595D01*
X123240001Y-128412668D01*
X123236324Y-128450000D01*
X123240001Y-128487333D01*
X123246272Y-128550997D01*
X123250998Y-128598985D01*
X123294454Y-128742246D01*
X123365026Y-128874276D01*
X123435374Y-128959994D01*
X123460000Y-128990001D01*
X123488998Y-129013799D01*
X140568833Y-146093635D01*
X140540000Y-146238589D01*
X140540000Y-146511411D01*
X140593225Y-146778989D01*
X140697629Y-147031043D01*
X140849201Y-147257886D01*
X141042114Y-147450799D01*
X141268957Y-147602371D01*
X141521011Y-147706775D01*
X141788589Y-147760000D01*
X142061411Y-147760000D01*
X142328989Y-147706775D01*
X142581043Y-147602371D01*
X142807886Y-147450799D01*
X143000799Y-147257886D01*
X143152371Y-147031043D01*
X143256775Y-146778989D01*
X143310000Y-146511411D01*
X143310000Y-146238589D01*
X143256775Y-145971011D01*
X143152371Y-145718957D01*
X143000799Y-145492114D01*
X142807886Y-145299201D01*
X142581043Y-145147629D01*
X142328989Y-145043225D01*
X142061411Y-144990000D01*
X141788589Y-144990000D01*
X141643635Y-145018833D01*
X124760000Y-128135199D01*
X124760000Y-127752595D01*
X124829014Y-127715706D01*
X125055134Y-127530134D01*
X125240706Y-127304014D01*
X125250000Y-127286626D01*
X125259294Y-127304014D01*
X125444866Y-127530134D01*
X125670987Y-127715706D01*
X125928967Y-127853599D01*
X126208890Y-127938513D01*
X126500000Y-127967185D01*
X126791111Y-127938513D01*
X126961903Y-127886704D01*
X144565001Y-145489803D01*
X144565000Y-146417091D01*
X144442114Y-146499201D01*
X144249201Y-146692114D01*
X144097629Y-146918957D01*
X143993225Y-147171011D01*
X143940000Y-147438589D01*
X143940000Y-147711411D01*
X143993225Y-147978989D01*
X144097629Y-148231043D01*
X144249201Y-148457886D01*
X144442114Y-148650799D01*
X144668957Y-148802371D01*
X144921011Y-148906775D01*
X145188589Y-148960000D01*
X145461411Y-148960000D01*
X145728989Y-148906775D01*
X145981043Y-148802371D01*
X146207886Y-148650799D01*
X146400799Y-148457886D01*
X146465001Y-148361802D01*
X146465001Y-149617090D01*
X146342114Y-149699201D01*
X146149201Y-149892114D01*
X145997629Y-150118957D01*
X145893225Y-150371011D01*
X145840000Y-150638589D01*
X145840000Y-150911411D01*
X145893225Y-151178989D01*
X145997629Y-151431043D01*
X146149201Y-151657886D01*
X146342114Y-151850799D01*
X146568957Y-152002371D01*
X146821011Y-152106775D01*
X147088589Y-152160000D01*
X147361411Y-152160000D01*
X147540002Y-152124476D01*
X147540002Y-152990000D01*
X147288589Y-152990000D01*
X147021011Y-153043225D01*
X146768957Y-153147629D01*
X146542114Y-153299201D01*
X146349201Y-153492114D01*
X146197629Y-153718957D01*
X146093225Y-153971011D01*
X146040000Y-154238589D01*
X146040000Y-154511411D01*
X146093225Y-154778989D01*
X146197629Y-155031043D01*
X146349201Y-155257886D01*
X146542114Y-155450799D01*
X146768957Y-155602371D01*
X147021011Y-155706775D01*
X147288589Y-155760000D01*
X147561411Y-155760000D01*
X147828989Y-155706775D01*
X147990012Y-155640077D01*
X147990012Y-156135186D01*
X147506365Y-156618833D01*
X147361411Y-156590000D01*
X147088589Y-156590000D01*
X146821011Y-156643225D01*
X146568957Y-156747629D01*
X146342114Y-156899201D01*
X146149201Y-157092114D01*
X145997629Y-157318957D01*
X145893225Y-157571011D01*
X145840000Y-157838589D01*
X145840000Y-158111411D01*
X145893225Y-158378989D01*
X145997629Y-158631043D01*
X146149201Y-158857886D01*
X146342114Y-159050799D01*
X146568957Y-159202371D01*
X146821011Y-159306775D01*
X147036266Y-159349592D01*
X146297272Y-160088587D01*
X146207886Y-159999201D01*
X145981043Y-159847629D01*
X145728989Y-159743225D01*
X145461411Y-159690000D01*
X145188589Y-159690000D01*
X144921011Y-159743225D01*
X144668957Y-159847629D01*
X144442114Y-159999201D01*
X144249201Y-160192114D01*
X144097629Y-160418957D01*
X143993225Y-160671011D01*
X143940000Y-160938589D01*
X143940000Y-161211411D01*
X143975524Y-161390001D01*
X139914803Y-161390001D01*
X139881167Y-161356365D01*
X139910000Y-161211411D01*
X139910000Y-160938589D01*
X139856775Y-160671011D01*
X139752371Y-160418957D01*
X139600799Y-160192114D01*
X139407886Y-159999201D01*
X139181043Y-159847629D01*
X138928989Y-159743225D01*
X138661411Y-159690000D01*
X138388589Y-159690000D01*
X138121011Y-159743225D01*
X137868957Y-159847629D01*
X137642114Y-159999201D01*
X137449201Y-160192114D01*
X137367091Y-160315000D01*
X106012322Y-160315000D01*
X105974999Y-160311324D01*
X105937676Y-160315000D01*
X105937667Y-160315000D01*
X105826014Y-160325997D01*
X105682753Y-160369454D01*
X105550723Y-160440026D01*
X105467083Y-160508668D01*
X105434999Y-160534999D01*
X105411201Y-160563997D01*
X100152201Y-165822998D01*
X100045156Y-165822998D01*
X100166476Y-165593110D01*
X100074352Y-165330142D01*
X99927496Y-165078807D01*
X99734429Y-164860951D01*
X99502570Y-164684947D01*
X99240830Y-164557558D01*
X98959267Y-164483680D01*
X98727000Y-164623835D01*
X98727000Y-165823000D01*
X98747000Y-165823000D01*
X98747000Y-166077000D01*
X98727000Y-166077000D01*
X98727000Y-166097000D01*
X98473000Y-166097000D01*
X98473000Y-166077000D01*
X97154845Y-166077000D01*
X97033524Y-166306890D01*
X97125648Y-166569858D01*
X97272504Y-166821193D01*
X97465571Y-167039049D01*
X97671722Y-167195538D01*
X97645986Y-167209294D01*
X97419866Y-167394866D01*
X97234294Y-167620986D01*
X97096401Y-167878966D01*
X97011487Y-168158889D01*
X96982815Y-168450000D01*
X95110000Y-168450000D01*
X95110000Y-165593110D01*
X97033524Y-165593110D01*
X97154845Y-165823000D01*
X98473000Y-165823000D01*
X98473000Y-164623835D01*
X98240733Y-164483680D01*
X97959170Y-164557558D01*
X97697430Y-164684947D01*
X97465571Y-164860951D01*
X97272504Y-165078807D01*
X97125648Y-165330142D01*
X97033524Y-165593110D01*
X95110000Y-165593110D01*
X95110000Y-124432279D01*
X95129437Y-124234042D01*
X95215000Y-124234042D01*
X95215000Y-124565958D01*
X95279754Y-124891496D01*
X95406772Y-125198147D01*
X95591175Y-125474125D01*
X95825875Y-125708825D01*
X96101853Y-125893228D01*
X96408504Y-126020246D01*
X96734042Y-126085000D01*
X97065958Y-126085000D01*
X97391496Y-126020246D01*
X97698147Y-125893228D01*
X97974125Y-125708825D01*
X98208825Y-125474125D01*
X98393228Y-125198147D01*
X98520246Y-124891496D01*
X98585000Y-124565958D01*
X98585000Y-124234042D01*
X320215000Y-124234042D01*
X320215000Y-124565958D01*
X320279754Y-124891496D01*
X320406772Y-125198147D01*
X320591175Y-125474125D01*
X320825875Y-125708825D01*
X321101853Y-125893228D01*
X321408504Y-126020246D01*
X321734042Y-126085000D01*
X322065958Y-126085000D01*
X322391496Y-126020246D01*
X322698147Y-125893228D01*
X322974125Y-125708825D01*
X323208825Y-125474125D01*
X323393228Y-125198147D01*
X323520246Y-124891496D01*
X323585000Y-124565958D01*
X323585000Y-124234042D01*
X323520246Y-123908504D01*
X323393228Y-123601853D01*
X323208825Y-123325875D01*
X322974125Y-123091175D01*
X322698147Y-122906772D01*
X322391496Y-122779754D01*
X322065958Y-122715000D01*
X321734042Y-122715000D01*
X321408504Y-122779754D01*
X321101853Y-122906772D01*
X320825875Y-123091175D01*
X320591175Y-123325875D01*
X320406772Y-123601853D01*
X320279754Y-123908504D01*
X320215000Y-124234042D01*
X98585000Y-124234042D01*
X98520246Y-123908504D01*
X98393228Y-123601853D01*
X98208825Y-123325875D01*
X97974125Y-123091175D01*
X97698147Y-122906772D01*
X97391496Y-122779754D01*
X97065958Y-122715000D01*
X96734042Y-122715000D01*
X96408504Y-122779754D01*
X96101853Y-122906772D01*
X95825875Y-123091175D01*
X95591175Y-123325875D01*
X95406772Y-123601853D01*
X95279754Y-123908504D01*
X95215000Y-124234042D01*
X95129437Y-124234042D01*
X95147195Y-124052936D01*
X95247990Y-123719088D01*
X95411708Y-123411179D01*
X95632115Y-123140935D01*
X95900813Y-122918647D01*
X96207572Y-122752783D01*
X96540710Y-122649660D01*
X96918051Y-122610000D01*
X321867721Y-122610000D01*
X322247064Y-122647195D01*
G37*
%TD.AperFunction*%
%TD*%
M02*
