M48
; DRILL file {KiCad 5.1.9+dfsg1-1+deb11u1} date Wed Feb  1 01:12:43 2023
; FORMAT={-:-/ absolute / inch / decimal}
; #@! TF.CreationDate,2023-02-01T01:12:43+08:00
; #@! TF.GenerationSoftware,Kicad,Pcbnew,5.1.9+dfsg1-1+deb11u1
; #@! TF.FileFunction,Plated,1,2,PTH
FMAT,2
INCH
T1C0.0276
T2C0.0295
T3C0.0315
T4C0.0374
T5C0.0394
%
G90
G05
T1
X7.939Y-7.0886
X7.9402Y-6.6378
X7.9402Y-6.7815
X7.9402Y-6.935
X8.239Y-7.0886
X8.2402Y-6.6378
X8.2402Y-6.7815
X8.2402Y-6.935
T2
X7.6122Y-6.9748
X7.6122Y-7.0248
X7.6122Y-7.0748
T3
X5.3711Y-6.0778
X5.3789Y-5.936
X5.3789Y-6.2195
X5.4537Y-5.81
X5.4537Y-6.3415
X5.5876Y-5.7628
X5.7215Y-5.81
X5.7215Y-6.3415
X5.7963Y-5.936
X5.7963Y-6.2195
X5.8041Y-6.0778
X6.7283Y-6.0778
X6.7362Y-5.936
X6.7362Y-6.2195
X6.811Y-5.81
X6.811Y-6.3415
X6.9449Y-5.7628
X7.0787Y-5.81
X7.0787Y-6.3415
X7.1535Y-5.936
X7.1535Y-6.2195
X7.1614Y-6.0778
X7.5551Y-6.6673
X7.6535Y-6.6673
X8.4685Y-6.7697
X8.4685Y-6.8697
X8.4685Y-6.9697
X8.4685Y-7.0697
X8.7685Y-6.7697
X8.7685Y-6.8697
X8.7685Y-6.9697
X8.7685Y-7.0697
X9.3268Y-6.0778
X9.3346Y-5.936
X9.3346Y-6.2195
X9.4094Y-5.81
X9.4094Y-6.3415
X9.5433Y-5.7628
X9.6772Y-5.81
X9.6772Y-6.3415
X9.752Y-5.936
X9.752Y-6.2195
X9.7598Y-6.0778
X10.6841Y-6.0778
X10.6919Y-5.936
X10.6919Y-6.2195
X10.7667Y-5.81
X10.7667Y-6.3415
X10.9006Y-5.7628
X11.0344Y-5.81
X11.0344Y-6.3415
X11.1093Y-5.936
X11.1093Y-6.2195
X11.1171Y-6.0778
T4
X3.8819Y-6.5335
X3.8819Y-6.6319
X3.8819Y-6.7303
X4.4882Y-4.9744
X4.5866Y-4.9744
X4.685Y-4.9744
X4.7835Y-4.9744
X4.8819Y-4.9744
X4.9803Y-4.9744
X5.0787Y-4.9744
X5.1772Y-4.9744
X5.2756Y-4.9744
X5.374Y-4.9744
X6.6791Y-4.9744
X6.7776Y-4.9744
X6.876Y-4.9744
X6.9744Y-4.9744
X7.0728Y-4.9744
X7.1713Y-4.9744
X7.2697Y-4.9744
X7.3681Y-4.9744
X7.4665Y-4.9744
X7.565Y-4.9744
X8.8661Y-4.9744
X8.9646Y-4.9744
X9.063Y-4.9744
X9.1614Y-4.9744
X9.2598Y-4.9744
X9.3583Y-4.9744
X9.4567Y-4.9744
X9.5551Y-4.9744
X9.6535Y-4.9744
X9.752Y-4.9744
X11.0472Y-4.9744
X11.1457Y-4.9744
X11.2441Y-4.9744
X11.3425Y-4.9744
X11.4409Y-4.9744
X11.5394Y-4.9744
X11.6378Y-4.9744
X11.7362Y-4.9744
X11.8346Y-4.9744
X11.9331Y-4.9744
T5
X8.2441Y-5.9778
X8.2441Y-6.0778
T0
M30
