%TF.GenerationSoftware,KiCad,Pcbnew,5.1.9+dfsg1-1+deb11u1*%
%TF.CreationDate,2023-01-31T21:53:36+08:00*%
%TF.ProjectId,QS27_1,51533237-5f31-42e6-9b69-6361645f7063,v1.0*%
%TF.SameCoordinates,Original*%
%TF.FileFunction,Copper,L2,Bot*%
%TF.FilePolarity,Positive*%
%FSLAX46Y46*%
G04 Gerber Fmt 4.6, Leading zero omitted, Abs format (unit mm)*
G04 Created by KiCad (PCBNEW 5.1.9+dfsg1-1+deb11u1) date 2023-01-31 21:53:36*
%MOMM*%
%LPD*%
G01*
G04 APERTURE LIST*
%TA.AperFunction,ComponentPad*%
%ADD10R,1.600000X1.600000*%
%TD*%
%TA.AperFunction,ComponentPad*%
%ADD11O,1.600000X1.600000*%
%TD*%
%TA.AperFunction,ComponentPad*%
%ADD12C,1.400000*%
%TD*%
%TA.AperFunction,ComponentPad*%
%ADD13O,1.400000X1.400000*%
%TD*%
%TA.AperFunction,ComponentPad*%
%ADD14O,1.500000X1.050000*%
%TD*%
%TA.AperFunction,ComponentPad*%
%ADD15R,1.500000X1.050000*%
%TD*%
%TA.AperFunction,ComponentPad*%
%ADD16C,1.500000*%
%TD*%
%TA.AperFunction,ComponentPad*%
%ADD17O,1.700000X1.700000*%
%TD*%
%TA.AperFunction,ComponentPad*%
%ADD18R,1.700000X1.700000*%
%TD*%
%TA.AperFunction,ComponentPad*%
%ADD19O,1.950000X1.700000*%
%TD*%
%TA.AperFunction,ComponentPad*%
%ADD20O,1.700000X1.950000*%
%TD*%
%TA.AperFunction,ComponentPad*%
%ADD21C,1.600000*%
%TD*%
%TA.AperFunction,Conductor*%
%ADD22C,0.250000*%
%TD*%
%TA.AperFunction,Conductor*%
%ADD23C,0.254000*%
%TD*%
%TA.AperFunction,Conductor*%
%ADD24C,0.100000*%
%TD*%
G04 APERTURE END LIST*
D10*
%TO.P,U1,1*%
%TO.N,GND*%
X215100000Y-171950000D03*
D11*
%TO.P,U1,5*%
%TO.N,N/C*%
X222720000Y-179570000D03*
%TO.P,U1,2*%
%TO.N,Net-(C1-Pad1)*%
X215100000Y-174490000D03*
%TO.P,U1,6*%
X222720000Y-177030000D03*
%TO.P,U1,3*%
%TO.N,Net-(R2-Pad2)*%
X215100000Y-177030000D03*
%TO.P,U1,7*%
%TO.N,Net-(R1-Pad2)*%
X222720000Y-174490000D03*
%TO.P,U1,4*%
%TO.N,+5V*%
X215100000Y-179570000D03*
%TO.P,U1,8*%
X222720000Y-171950000D03*
%TD*%
D12*
%TO.P,R4,1*%
%TO.N,Net-(NE1-Pad2)*%
X209300000Y-168600000D03*
D13*
%TO.P,R4,2*%
%TO.N,Net-(Q1-Pad3)*%
X201680000Y-168600000D03*
%TD*%
D12*
%TO.P,R3,1*%
%TO.N,Net-(R1-Pad2)*%
X209300000Y-172250000D03*
D13*
%TO.P,R3,2*%
%TO.N,Net-(C1-Pad1)*%
X201680000Y-172250000D03*
%TD*%
D12*
%TO.P,R2,1*%
%TO.N,NE555_OUT*%
X209300000Y-176150000D03*
D13*
%TO.P,R2,2*%
%TO.N,Net-(R2-Pad2)*%
X201680000Y-176150000D03*
%TD*%
D12*
%TO.P,R1,1*%
%TO.N,+5V*%
X209270000Y-180050000D03*
D13*
%TO.P,R1,2*%
%TO.N,Net-(R1-Pad2)*%
X201650000Y-180050000D03*
%TD*%
D14*
%TO.P,Q1,2*%
%TO.N,NE555_OUT*%
X193350000Y-178430000D03*
%TO.P,Q1,3*%
%TO.N,Net-(Q1-Pad3)*%
X193350000Y-177160000D03*
D15*
%TO.P,Q1,1*%
%TO.N,GND*%
X193350000Y-179700000D03*
%TD*%
D16*
%TO.P,NX4,6*%
%TO.N,Net-(J4-Pad5)*%
X276875000Y-146375000D03*
%TO.P,NX4,7*%
%TO.N,Net-(J4-Pad4)*%
X273475000Y-147575000D03*
%TO.P,NX4,3*%
%TO.N,Net-(J4-Pad8)*%
X282375000Y-154375000D03*
%TO.P,NX4,4*%
%TO.N,Net-(J4-Pad7)*%
X282175000Y-150775000D03*
%TO.P,NX4,5*%
%TO.N,Net-(J4-Pad6)*%
X280275000Y-147575000D03*
%TO.P,NX4,8*%
%TO.N,Net-(J4-Pad3)*%
X271575000Y-150775000D03*
%TO.P,NX4,9*%
%TO.N,Net-(J4-Pad2)*%
X271375000Y-154375000D03*
%TO.P,NX4,0*%
%TO.N,Net-(J4-Pad1)*%
X271575000Y-157975000D03*
%TO.P,NX4,A*%
%TO.N,ANODE_PIN*%
X273475000Y-161075000D03*
%TO.P,NX4,1*%
%TO.N,Net-(J4-Pad10)*%
X280275000Y-161075000D03*
%TO.P,NX4,2*%
%TO.N,Net-(J4-Pad9)*%
X282175000Y-157975000D03*
%TD*%
%TO.P,NX3,6*%
%TO.N,Net-(J3-Pad5)*%
X242400000Y-146375000D03*
%TO.P,NX3,7*%
%TO.N,Net-(J3-Pad4)*%
X239000000Y-147575000D03*
%TO.P,NX3,3*%
%TO.N,Net-(J3-Pad8)*%
X247900000Y-154375000D03*
%TO.P,NX3,4*%
%TO.N,Net-(J3-Pad7)*%
X247700000Y-150775000D03*
%TO.P,NX3,5*%
%TO.N,Net-(J3-Pad6)*%
X245800000Y-147575000D03*
%TO.P,NX3,8*%
%TO.N,Net-(J3-Pad3)*%
X237100000Y-150775000D03*
%TO.P,NX3,9*%
%TO.N,Net-(J3-Pad2)*%
X236900000Y-154375000D03*
%TO.P,NX3,0*%
%TO.N,Net-(J3-Pad1)*%
X237100000Y-157975000D03*
%TO.P,NX3,A*%
%TO.N,ANODE_PIN*%
X239000000Y-161075000D03*
%TO.P,NX3,1*%
%TO.N,Net-(J3-Pad10)*%
X245800000Y-161075000D03*
%TO.P,NX3,2*%
%TO.N,Net-(J3-Pad9)*%
X247700000Y-157975000D03*
%TD*%
%TO.P,NX2,6*%
%TO.N,Net-(J2-Pad5)*%
X176400000Y-146375000D03*
%TO.P,NX2,7*%
%TO.N,Net-(J2-Pad4)*%
X173000000Y-147575000D03*
%TO.P,NX2,3*%
%TO.N,Net-(J2-Pad8)*%
X181900000Y-154375000D03*
%TO.P,NX2,4*%
%TO.N,Net-(J2-Pad7)*%
X181700000Y-150775000D03*
%TO.P,NX2,5*%
%TO.N,Net-(J2-Pad6)*%
X179800000Y-147575000D03*
%TO.P,NX2,8*%
%TO.N,Net-(J2-Pad3)*%
X171100000Y-150775000D03*
%TO.P,NX2,9*%
%TO.N,Net-(J2-Pad2)*%
X170900000Y-154375000D03*
%TO.P,NX2,0*%
%TO.N,Net-(J2-Pad1)*%
X171100000Y-157975000D03*
%TO.P,NX2,A*%
%TO.N,ANODE_PIN*%
X173000000Y-161075000D03*
%TO.P,NX2,1*%
%TO.N,Net-(J2-Pad10)*%
X179800000Y-161075000D03*
%TO.P,NX2,2*%
%TO.N,Net-(J2-Pad9)*%
X181700000Y-157975000D03*
%TD*%
%TO.P,NX1,6*%
%TO.N,Net-(J1-Pad5)*%
X141925000Y-146375000D03*
%TO.P,NX1,7*%
%TO.N,Net-(J1-Pad4)*%
X138525000Y-147575000D03*
%TO.P,NX1,3*%
%TO.N,Net-(J1-Pad8)*%
X147425000Y-154375000D03*
%TO.P,NX1,4*%
%TO.N,Net-(J1-Pad7)*%
X147225000Y-150775000D03*
%TO.P,NX1,5*%
%TO.N,Net-(J1-Pad6)*%
X145325000Y-147575000D03*
%TO.P,NX1,8*%
%TO.N,Net-(J1-Pad3)*%
X136625000Y-150775000D03*
%TO.P,NX1,9*%
%TO.N,Net-(J1-Pad2)*%
X136425000Y-154375000D03*
%TO.P,NX1,0*%
%TO.N,Net-(J1-Pad1)*%
X136625000Y-157975000D03*
%TO.P,NX1,A*%
%TO.N,ANODE_PIN*%
X138525000Y-161075000D03*
%TO.P,NX1,1*%
%TO.N,Net-(J1-Pad10)*%
X145325000Y-161075000D03*
%TO.P,NX1,2*%
%TO.N,Net-(J1-Pad9)*%
X147225000Y-157975000D03*
%TD*%
D17*
%TO.P,NE1,2*%
%TO.N,Net-(NE1-Pad2)*%
X209400000Y-151835000D03*
D18*
%TO.P,NE1,1*%
%TO.N,ANODE_PIN*%
X209400000Y-154375000D03*
%TD*%
D19*
%TO.P,J5,3*%
%TO.N,GND*%
X98600000Y-165950000D03*
%TO.P,J5,2*%
%TO.N,ANODE_PIN*%
X98600000Y-168450000D03*
%TO.P,J5,1*%
%TO.N,+5V*%
%TA.AperFunction,ComponentPad*%
G36*
G01*
X99325000Y-171800000D02*
X97875000Y-171800000D01*
G75*
G02*
X97625000Y-171550000I0J250000D01*
G01*
X97625000Y-170350000D01*
G75*
G02*
X97875000Y-170100000I250000J0D01*
G01*
X99325000Y-170100000D01*
G75*
G02*
X99575000Y-170350000I0J-250000D01*
G01*
X99575000Y-171550000D01*
G75*
G02*
X99325000Y-171800000I-250000J0D01*
G01*
G37*
%TD.AperFunction*%
%TD*%
D20*
%TO.P,J4,10*%
%TO.N,Net-(J4-Pad10)*%
X303100000Y-126350000D03*
%TO.P,J4,9*%
%TO.N,Net-(J4-Pad9)*%
X300600000Y-126350000D03*
%TO.P,J4,8*%
%TO.N,Net-(J4-Pad8)*%
X298100000Y-126350000D03*
%TO.P,J4,7*%
%TO.N,Net-(J4-Pad7)*%
X295600000Y-126350000D03*
%TO.P,J4,6*%
%TO.N,Net-(J4-Pad6)*%
X293100000Y-126350000D03*
%TO.P,J4,5*%
%TO.N,Net-(J4-Pad5)*%
X290600000Y-126350000D03*
%TO.P,J4,4*%
%TO.N,Net-(J4-Pad4)*%
X288100000Y-126350000D03*
%TO.P,J4,3*%
%TO.N,Net-(J4-Pad3)*%
X285600000Y-126350000D03*
%TO.P,J4,2*%
%TO.N,Net-(J4-Pad2)*%
X283100000Y-126350000D03*
%TO.P,J4,1*%
%TO.N,Net-(J4-Pad1)*%
%TA.AperFunction,ComponentPad*%
G36*
G01*
X279750000Y-127075000D02*
X279750000Y-125625000D01*
G75*
G02*
X280000000Y-125375000I250000J0D01*
G01*
X281200000Y-125375000D01*
G75*
G02*
X281450000Y-125625000I0J-250000D01*
G01*
X281450000Y-127075000D01*
G75*
G02*
X281200000Y-127325000I-250000J0D01*
G01*
X280000000Y-127325000D01*
G75*
G02*
X279750000Y-127075000I0J250000D01*
G01*
G37*
%TD.AperFunction*%
%TD*%
%TO.P,J3,10*%
%TO.N,Net-(J3-Pad10)*%
X247700000Y-126350000D03*
%TO.P,J3,9*%
%TO.N,Net-(J3-Pad9)*%
X245200000Y-126350000D03*
%TO.P,J3,8*%
%TO.N,Net-(J3-Pad8)*%
X242700000Y-126350000D03*
%TO.P,J3,7*%
%TO.N,Net-(J3-Pad7)*%
X240200000Y-126350000D03*
%TO.P,J3,6*%
%TO.N,Net-(J3-Pad6)*%
X237700000Y-126350000D03*
%TO.P,J3,5*%
%TO.N,Net-(J3-Pad5)*%
X235200000Y-126350000D03*
%TO.P,J3,4*%
%TO.N,Net-(J3-Pad4)*%
X232700000Y-126350000D03*
%TO.P,J3,3*%
%TO.N,Net-(J3-Pad3)*%
X230200000Y-126350000D03*
%TO.P,J3,2*%
%TO.N,Net-(J3-Pad2)*%
X227700000Y-126350000D03*
%TO.P,J3,1*%
%TO.N,Net-(J3-Pad1)*%
%TA.AperFunction,ComponentPad*%
G36*
G01*
X224350000Y-127075000D02*
X224350000Y-125625000D01*
G75*
G02*
X224600000Y-125375000I250000J0D01*
G01*
X225800000Y-125375000D01*
G75*
G02*
X226050000Y-125625000I0J-250000D01*
G01*
X226050000Y-127075000D01*
G75*
G02*
X225800000Y-127325000I-250000J0D01*
G01*
X224600000Y-127325000D01*
G75*
G02*
X224350000Y-127075000I0J250000D01*
G01*
G37*
%TD.AperFunction*%
%TD*%
%TO.P,J2,10*%
%TO.N,Net-(J2-Pad10)*%
X192150000Y-126350000D03*
%TO.P,J2,9*%
%TO.N,Net-(J2-Pad9)*%
X189650000Y-126350000D03*
%TO.P,J2,8*%
%TO.N,Net-(J2-Pad8)*%
X187150000Y-126350000D03*
%TO.P,J2,7*%
%TO.N,Net-(J2-Pad7)*%
X184650000Y-126350000D03*
%TO.P,J2,6*%
%TO.N,Net-(J2-Pad6)*%
X182150000Y-126350000D03*
%TO.P,J2,5*%
%TO.N,Net-(J2-Pad5)*%
X179650000Y-126350000D03*
%TO.P,J2,4*%
%TO.N,Net-(J2-Pad4)*%
X177150000Y-126350000D03*
%TO.P,J2,3*%
%TO.N,Net-(J2-Pad3)*%
X174650000Y-126350000D03*
%TO.P,J2,2*%
%TO.N,Net-(J2-Pad2)*%
X172150000Y-126350000D03*
%TO.P,J2,1*%
%TO.N,Net-(J2-Pad1)*%
%TA.AperFunction,ComponentPad*%
G36*
G01*
X168800000Y-127075000D02*
X168800000Y-125625000D01*
G75*
G02*
X169050000Y-125375000I250000J0D01*
G01*
X170250000Y-125375000D01*
G75*
G02*
X170500000Y-125625000I0J-250000D01*
G01*
X170500000Y-127075000D01*
G75*
G02*
X170250000Y-127325000I-250000J0D01*
G01*
X169050000Y-127325000D01*
G75*
G02*
X168800000Y-127075000I0J250000D01*
G01*
G37*
%TD.AperFunction*%
%TD*%
%TO.P,J1,10*%
%TO.N,Net-(J1-Pad10)*%
X136500000Y-126350000D03*
%TO.P,J1,9*%
%TO.N,Net-(J1-Pad9)*%
X134000000Y-126350000D03*
%TO.P,J1,8*%
%TO.N,Net-(J1-Pad8)*%
X131500000Y-126350000D03*
%TO.P,J1,7*%
%TO.N,Net-(J1-Pad7)*%
X129000000Y-126350000D03*
%TO.P,J1,6*%
%TO.N,Net-(J1-Pad6)*%
X126500000Y-126350000D03*
%TO.P,J1,5*%
%TO.N,Net-(J1-Pad5)*%
X124000000Y-126350000D03*
%TO.P,J1,4*%
%TO.N,Net-(J1-Pad4)*%
X121500000Y-126350000D03*
%TO.P,J1,3*%
%TO.N,Net-(J1-Pad3)*%
X119000000Y-126350000D03*
%TO.P,J1,2*%
%TO.N,Net-(J1-Pad2)*%
X116500000Y-126350000D03*
%TO.P,J1,1*%
%TO.N,Net-(J1-Pad1)*%
%TA.AperFunction,ComponentPad*%
G36*
G01*
X113150000Y-127075000D02*
X113150000Y-125625000D01*
G75*
G02*
X113400000Y-125375000I250000J0D01*
G01*
X114600000Y-125375000D01*
G75*
G02*
X114850000Y-125625000I0J-250000D01*
G01*
X114850000Y-127075000D01*
G75*
G02*
X114600000Y-127325000I-250000J0D01*
G01*
X113400000Y-127325000D01*
G75*
G02*
X113150000Y-127075000I0J250000D01*
G01*
G37*
%TD.AperFunction*%
%TD*%
D10*
%TO.P,C1,1*%
%TO.N,Net-(C1-Pad1)*%
X194400000Y-169350000D03*
D21*
%TO.P,C1,2*%
%TO.N,GND*%
X191900000Y-169350000D03*
%TD*%
D22*
%TO.N,GND*%
X200774999Y-173275001D02*
X194350000Y-179700000D01*
X213774999Y-173275001D02*
X200774999Y-173275001D01*
X194350000Y-179700000D02*
X193350000Y-179700000D01*
X215100000Y-171950000D02*
X213774999Y-173275001D01*
X188500000Y-165950000D02*
X191900000Y-169350000D01*
X98600000Y-165950000D02*
X188500000Y-165950000D01*
%TO.N,+5V*%
X215100000Y-179570000D02*
X222720000Y-171950000D01*
X108725001Y-181075001D02*
X98600000Y-170950000D01*
X208244999Y-181075001D02*
X108725001Y-181075001D01*
X209270000Y-180050000D02*
X208244999Y-181075001D01*
%TO.N,Net-(NE1-Pad2)*%
X208224999Y-153010001D02*
X209400000Y-151835000D01*
X208224999Y-167524999D02*
X208224999Y-153010001D01*
X209300000Y-168600000D02*
X208224999Y-167524999D01*
%TO.N,Net-(Q1-Pad3)*%
X193350000Y-176930000D02*
X193350000Y-177160000D01*
X201680000Y-168600000D02*
X193350000Y-176930000D01*
%TD*%
D23*
%TO.N,GND*%
X322247064Y-122647195D02*
X322580912Y-122747990D01*
X322888821Y-122911708D01*
X323159065Y-123132115D01*
X323381353Y-123400813D01*
X323547217Y-123707572D01*
X323650340Y-124040710D01*
X323690000Y-124418051D01*
X323690001Y-184317711D01*
X323652805Y-184697064D01*
X323552011Y-185030909D01*
X323388293Y-185338820D01*
X323167888Y-185609063D01*
X322899184Y-185831354D01*
X322592426Y-185997218D01*
X322259291Y-186100340D01*
X321881948Y-186140000D01*
X96932279Y-186140000D01*
X96552936Y-186102805D01*
X96219091Y-186002011D01*
X95911180Y-185838293D01*
X95640937Y-185617888D01*
X95418646Y-185349184D01*
X95252782Y-185042426D01*
X95149660Y-184709291D01*
X95110000Y-184331948D01*
X95110000Y-184184042D01*
X95215000Y-184184042D01*
X95215000Y-184515958D01*
X95279754Y-184841496D01*
X95406772Y-185148147D01*
X95591175Y-185424125D01*
X95825875Y-185658825D01*
X96101853Y-185843228D01*
X96408504Y-185970246D01*
X96734042Y-186035000D01*
X97065958Y-186035000D01*
X97391496Y-185970246D01*
X97698147Y-185843228D01*
X97974125Y-185658825D01*
X98208825Y-185424125D01*
X98393228Y-185148147D01*
X98520246Y-184841496D01*
X98585000Y-184515958D01*
X98585000Y-184184042D01*
X320215000Y-184184042D01*
X320215000Y-184515958D01*
X320279754Y-184841496D01*
X320406772Y-185148147D01*
X320591175Y-185424125D01*
X320825875Y-185658825D01*
X321101853Y-185843228D01*
X321408504Y-185970246D01*
X321734042Y-186035000D01*
X322065958Y-186035000D01*
X322391496Y-185970246D01*
X322698147Y-185843228D01*
X322974125Y-185658825D01*
X323208825Y-185424125D01*
X323393228Y-185148147D01*
X323520246Y-184841496D01*
X323585000Y-184515958D01*
X323585000Y-184184042D01*
X323520246Y-183858504D01*
X323393228Y-183551853D01*
X323208825Y-183275875D01*
X322974125Y-183041175D01*
X322698147Y-182856772D01*
X322391496Y-182729754D01*
X322065958Y-182665000D01*
X321734042Y-182665000D01*
X321408504Y-182729754D01*
X321101853Y-182856772D01*
X320825875Y-183041175D01*
X320591175Y-183275875D01*
X320406772Y-183551853D01*
X320279754Y-183858504D01*
X320215000Y-184184042D01*
X98585000Y-184184042D01*
X98520246Y-183858504D01*
X98393228Y-183551853D01*
X98208825Y-183275875D01*
X97974125Y-183041175D01*
X97698147Y-182856772D01*
X97391496Y-182729754D01*
X97065958Y-182665000D01*
X96734042Y-182665000D01*
X96408504Y-182729754D01*
X96101853Y-182856772D01*
X95825875Y-183041175D01*
X95591175Y-183275875D01*
X95406772Y-183551853D01*
X95279754Y-183858504D01*
X95215000Y-184184042D01*
X95110000Y-184184042D01*
X95110000Y-168450000D01*
X96982815Y-168450000D01*
X97011487Y-168741111D01*
X97096401Y-169021034D01*
X97234294Y-169279014D01*
X97419866Y-169505134D01*
X97483337Y-169557223D01*
X97381614Y-169611595D01*
X97247038Y-169722038D01*
X97136595Y-169856614D01*
X97054528Y-170010150D01*
X97003992Y-170176746D01*
X96986928Y-170350000D01*
X96986928Y-171550000D01*
X97003992Y-171723254D01*
X97054528Y-171889850D01*
X97136595Y-172043386D01*
X97247038Y-172177962D01*
X97381614Y-172288405D01*
X97535150Y-172370472D01*
X97701746Y-172421008D01*
X97875000Y-172438072D01*
X99013271Y-172438072D01*
X108161202Y-181586004D01*
X108185000Y-181615002D01*
X108300725Y-181709975D01*
X108432754Y-181780547D01*
X108576015Y-181824004D01*
X108687668Y-181835001D01*
X108687676Y-181835001D01*
X108725001Y-181838677D01*
X108762326Y-181835001D01*
X208207677Y-181835001D01*
X208244999Y-181838677D01*
X208282321Y-181835001D01*
X208282332Y-181835001D01*
X208393985Y-181824004D01*
X208537246Y-181780547D01*
X208669275Y-181709975D01*
X208785000Y-181615002D01*
X208808803Y-181585999D01*
X209031156Y-181363645D01*
X209138514Y-181385000D01*
X209401486Y-181385000D01*
X209659405Y-181333696D01*
X209902359Y-181233061D01*
X210121013Y-181086962D01*
X210306962Y-180901013D01*
X210453061Y-180682359D01*
X210553696Y-180439405D01*
X210605000Y-180181486D01*
X210605000Y-179918514D01*
X210553696Y-179660595D01*
X210453061Y-179417641D01*
X210306962Y-179198987D01*
X210121013Y-179013038D01*
X209902359Y-178866939D01*
X209659405Y-178766304D01*
X209401486Y-178715000D01*
X209138514Y-178715000D01*
X208880595Y-178766304D01*
X208637641Y-178866939D01*
X208418987Y-179013038D01*
X208233038Y-179198987D01*
X208086939Y-179417641D01*
X207986304Y-179660595D01*
X207935000Y-179918514D01*
X207935000Y-180181486D01*
X207956355Y-180288844D01*
X207930198Y-180315001D01*
X202958442Y-180315001D01*
X202985000Y-180181486D01*
X202985000Y-179918514D01*
X202933696Y-179660595D01*
X202833061Y-179417641D01*
X202686962Y-179198987D01*
X202501013Y-179013038D01*
X202282359Y-178866939D01*
X202039405Y-178766304D01*
X201781486Y-178715000D01*
X201518514Y-178715000D01*
X201260595Y-178766304D01*
X201017641Y-178866939D01*
X200798987Y-179013038D01*
X200613038Y-179198987D01*
X200466939Y-179417641D01*
X200366304Y-179660595D01*
X200315000Y-179918514D01*
X200315000Y-180181486D01*
X200341558Y-180315001D01*
X194729208Y-180315001D01*
X194738072Y-180225000D01*
X194735000Y-179985750D01*
X194576250Y-179827000D01*
X193477000Y-179827000D01*
X193477000Y-179847000D01*
X193223000Y-179847000D01*
X193223000Y-179827000D01*
X192123750Y-179827000D01*
X191965000Y-179985750D01*
X191961928Y-180225000D01*
X191970792Y-180315001D01*
X109039803Y-180315001D01*
X105884802Y-177160000D01*
X191959388Y-177160000D01*
X191981785Y-177387400D01*
X192048115Y-177606060D01*
X192149105Y-177795000D01*
X192048115Y-177983940D01*
X191981785Y-178202600D01*
X191959388Y-178430000D01*
X191981785Y-178657400D01*
X192045093Y-178866098D01*
X192010498Y-178930820D01*
X191974188Y-179050518D01*
X191961928Y-179175000D01*
X191965000Y-179414250D01*
X192123750Y-179573000D01*
X192896891Y-179573000D01*
X192897600Y-179573215D01*
X193068021Y-179590000D01*
X193631979Y-179590000D01*
X193802400Y-179573215D01*
X193803109Y-179573000D01*
X194576250Y-179573000D01*
X194735000Y-179414250D01*
X194738072Y-179175000D01*
X194725812Y-179050518D01*
X194689502Y-178930820D01*
X194654907Y-178866098D01*
X194718215Y-178657400D01*
X194740612Y-178430000D01*
X194718215Y-178202600D01*
X194651885Y-177983940D01*
X194550895Y-177795000D01*
X194651885Y-177606060D01*
X194718215Y-177387400D01*
X194740612Y-177160000D01*
X194718215Y-176932600D01*
X194651885Y-176713940D01*
X194648045Y-176706756D01*
X195336287Y-176018514D01*
X200345000Y-176018514D01*
X200345000Y-176281486D01*
X200396304Y-176539405D01*
X200496939Y-176782359D01*
X200643038Y-177001013D01*
X200828987Y-177186962D01*
X201047641Y-177333061D01*
X201290595Y-177433696D01*
X201548514Y-177485000D01*
X201811486Y-177485000D01*
X202069405Y-177433696D01*
X202312359Y-177333061D01*
X202531013Y-177186962D01*
X202716962Y-177001013D01*
X202863061Y-176782359D01*
X202963696Y-176539405D01*
X203015000Y-176281486D01*
X203015000Y-176018514D01*
X207965000Y-176018514D01*
X207965000Y-176281486D01*
X208016304Y-176539405D01*
X208116939Y-176782359D01*
X208263038Y-177001013D01*
X208448987Y-177186962D01*
X208667641Y-177333061D01*
X208910595Y-177433696D01*
X209168514Y-177485000D01*
X209431486Y-177485000D01*
X209689405Y-177433696D01*
X209932359Y-177333061D01*
X210151013Y-177186962D01*
X210336962Y-177001013D01*
X210483061Y-176782359D01*
X210583696Y-176539405D01*
X210635000Y-176281486D01*
X210635000Y-176018514D01*
X210583696Y-175760595D01*
X210483061Y-175517641D01*
X210336962Y-175298987D01*
X210151013Y-175113038D01*
X209932359Y-174966939D01*
X209689405Y-174866304D01*
X209431486Y-174815000D01*
X209168514Y-174815000D01*
X208910595Y-174866304D01*
X208667641Y-174966939D01*
X208448987Y-175113038D01*
X208263038Y-175298987D01*
X208116939Y-175517641D01*
X208016304Y-175760595D01*
X207965000Y-176018514D01*
X203015000Y-176018514D01*
X202963696Y-175760595D01*
X202863061Y-175517641D01*
X202716962Y-175298987D01*
X202531013Y-175113038D01*
X202312359Y-174966939D01*
X202069405Y-174866304D01*
X201811486Y-174815000D01*
X201548514Y-174815000D01*
X201290595Y-174866304D01*
X201047641Y-174966939D01*
X200828987Y-175113038D01*
X200643038Y-175298987D01*
X200496939Y-175517641D01*
X200396304Y-175760595D01*
X200345000Y-176018514D01*
X195336287Y-176018514D01*
X199236287Y-172118514D01*
X200345000Y-172118514D01*
X200345000Y-172381486D01*
X200396304Y-172639405D01*
X200496939Y-172882359D01*
X200643038Y-173101013D01*
X200828987Y-173286962D01*
X201047641Y-173433061D01*
X201290595Y-173533696D01*
X201548514Y-173585000D01*
X201811486Y-173585000D01*
X202069405Y-173533696D01*
X202312359Y-173433061D01*
X202531013Y-173286962D01*
X202716962Y-173101013D01*
X202863061Y-172882359D01*
X202963696Y-172639405D01*
X203015000Y-172381486D01*
X203015000Y-172118514D01*
X207965000Y-172118514D01*
X207965000Y-172381486D01*
X208016304Y-172639405D01*
X208116939Y-172882359D01*
X208263038Y-173101013D01*
X208448987Y-173286962D01*
X208667641Y-173433061D01*
X208910595Y-173533696D01*
X209168514Y-173585000D01*
X209431486Y-173585000D01*
X209689405Y-173533696D01*
X209932359Y-173433061D01*
X210151013Y-173286962D01*
X210336962Y-173101013D01*
X210483061Y-172882359D01*
X210537885Y-172750000D01*
X213661928Y-172750000D01*
X213674188Y-172874482D01*
X213710498Y-172994180D01*
X213769463Y-173104494D01*
X213848815Y-173201185D01*
X213945506Y-173280537D01*
X214055820Y-173339502D01*
X214175518Y-173375812D01*
X214183961Y-173376643D01*
X213985363Y-173575241D01*
X213828320Y-173810273D01*
X213720147Y-174071426D01*
X213665000Y-174348665D01*
X213665000Y-174631335D01*
X213720147Y-174908574D01*
X213828320Y-175169727D01*
X213985363Y-175404759D01*
X214185241Y-175604637D01*
X214417759Y-175760000D01*
X214185241Y-175915363D01*
X213985363Y-176115241D01*
X213828320Y-176350273D01*
X213720147Y-176611426D01*
X213665000Y-176888665D01*
X213665000Y-177171335D01*
X213720147Y-177448574D01*
X213828320Y-177709727D01*
X213985363Y-177944759D01*
X214185241Y-178144637D01*
X214417759Y-178300000D01*
X214185241Y-178455363D01*
X213985363Y-178655241D01*
X213828320Y-178890273D01*
X213720147Y-179151426D01*
X213665000Y-179428665D01*
X213665000Y-179711335D01*
X213720147Y-179988574D01*
X213828320Y-180249727D01*
X213985363Y-180484759D01*
X214185241Y-180684637D01*
X214420273Y-180841680D01*
X214681426Y-180949853D01*
X214958665Y-181005000D01*
X215241335Y-181005000D01*
X215518574Y-180949853D01*
X215779727Y-180841680D01*
X216014759Y-180684637D01*
X216214637Y-180484759D01*
X216371680Y-180249727D01*
X216479853Y-179988574D01*
X216535000Y-179711335D01*
X216535000Y-179428665D01*
X216498688Y-179246113D01*
X221285000Y-174459802D01*
X221285000Y-174631335D01*
X221340147Y-174908574D01*
X221448320Y-175169727D01*
X221605363Y-175404759D01*
X221805241Y-175604637D01*
X222037759Y-175760000D01*
X221805241Y-175915363D01*
X221605363Y-176115241D01*
X221448320Y-176350273D01*
X221340147Y-176611426D01*
X221285000Y-176888665D01*
X221285000Y-177171335D01*
X221340147Y-177448574D01*
X221448320Y-177709727D01*
X221605363Y-177944759D01*
X221805241Y-178144637D01*
X222037759Y-178300000D01*
X221805241Y-178455363D01*
X221605363Y-178655241D01*
X221448320Y-178890273D01*
X221340147Y-179151426D01*
X221285000Y-179428665D01*
X221285000Y-179711335D01*
X221340147Y-179988574D01*
X221448320Y-180249727D01*
X221605363Y-180484759D01*
X221805241Y-180684637D01*
X222040273Y-180841680D01*
X222301426Y-180949853D01*
X222578665Y-181005000D01*
X222861335Y-181005000D01*
X223138574Y-180949853D01*
X223399727Y-180841680D01*
X223634759Y-180684637D01*
X223834637Y-180484759D01*
X223991680Y-180249727D01*
X224099853Y-179988574D01*
X224155000Y-179711335D01*
X224155000Y-179428665D01*
X224099853Y-179151426D01*
X223991680Y-178890273D01*
X223834637Y-178655241D01*
X223634759Y-178455363D01*
X223402241Y-178300000D01*
X223634759Y-178144637D01*
X223834637Y-177944759D01*
X223991680Y-177709727D01*
X224099853Y-177448574D01*
X224155000Y-177171335D01*
X224155000Y-176888665D01*
X224099853Y-176611426D01*
X223991680Y-176350273D01*
X223834637Y-176115241D01*
X223634759Y-175915363D01*
X223402241Y-175760000D01*
X223634759Y-175604637D01*
X223834637Y-175404759D01*
X223991680Y-175169727D01*
X224099853Y-174908574D01*
X224155000Y-174631335D01*
X224155000Y-174348665D01*
X224099853Y-174071426D01*
X223991680Y-173810273D01*
X223834637Y-173575241D01*
X223634759Y-173375363D01*
X223402241Y-173220000D01*
X223634759Y-173064637D01*
X223834637Y-172864759D01*
X223991680Y-172629727D01*
X224099853Y-172368574D01*
X224155000Y-172091335D01*
X224155000Y-171808665D01*
X224099853Y-171531426D01*
X223991680Y-171270273D01*
X223834637Y-171035241D01*
X223634759Y-170835363D01*
X223399727Y-170678320D01*
X223138574Y-170570147D01*
X222861335Y-170515000D01*
X222578665Y-170515000D01*
X222301426Y-170570147D01*
X222040273Y-170678320D01*
X221805241Y-170835363D01*
X221605363Y-171035241D01*
X221448320Y-171270273D01*
X221340147Y-171531426D01*
X221285000Y-171808665D01*
X221285000Y-172091335D01*
X221321312Y-172273886D01*
X216535000Y-177060199D01*
X216535000Y-176888665D01*
X216479853Y-176611426D01*
X216371680Y-176350273D01*
X216214637Y-176115241D01*
X216014759Y-175915363D01*
X215782241Y-175760000D01*
X216014759Y-175604637D01*
X216214637Y-175404759D01*
X216371680Y-175169727D01*
X216479853Y-174908574D01*
X216535000Y-174631335D01*
X216535000Y-174348665D01*
X216479853Y-174071426D01*
X216371680Y-173810273D01*
X216214637Y-173575241D01*
X216016039Y-173376643D01*
X216024482Y-173375812D01*
X216144180Y-173339502D01*
X216254494Y-173280537D01*
X216351185Y-173201185D01*
X216430537Y-173104494D01*
X216489502Y-172994180D01*
X216525812Y-172874482D01*
X216538072Y-172750000D01*
X216535000Y-172235750D01*
X216376250Y-172077000D01*
X215227000Y-172077000D01*
X215227000Y-172097000D01*
X214973000Y-172097000D01*
X214973000Y-172077000D01*
X213823750Y-172077000D01*
X213665000Y-172235750D01*
X213661928Y-172750000D01*
X210537885Y-172750000D01*
X210583696Y-172639405D01*
X210635000Y-172381486D01*
X210635000Y-172118514D01*
X210583696Y-171860595D01*
X210483061Y-171617641D01*
X210336962Y-171398987D01*
X210151013Y-171213038D01*
X210056670Y-171150000D01*
X213661928Y-171150000D01*
X213665000Y-171664250D01*
X213823750Y-171823000D01*
X214973000Y-171823000D01*
X214973000Y-170673750D01*
X215227000Y-170673750D01*
X215227000Y-171823000D01*
X216376250Y-171823000D01*
X216535000Y-171664250D01*
X216538072Y-171150000D01*
X216525812Y-171025518D01*
X216489502Y-170905820D01*
X216430537Y-170795506D01*
X216351185Y-170698815D01*
X216254494Y-170619463D01*
X216144180Y-170560498D01*
X216024482Y-170524188D01*
X215900000Y-170511928D01*
X215385750Y-170515000D01*
X215227000Y-170673750D01*
X214973000Y-170673750D01*
X214814250Y-170515000D01*
X214300000Y-170511928D01*
X214175518Y-170524188D01*
X214055820Y-170560498D01*
X213945506Y-170619463D01*
X213848815Y-170698815D01*
X213769463Y-170795506D01*
X213710498Y-170905820D01*
X213674188Y-171025518D01*
X213661928Y-171150000D01*
X210056670Y-171150000D01*
X209932359Y-171066939D01*
X209689405Y-170966304D01*
X209431486Y-170915000D01*
X209168514Y-170915000D01*
X208910595Y-170966304D01*
X208667641Y-171066939D01*
X208448987Y-171213038D01*
X208263038Y-171398987D01*
X208116939Y-171617641D01*
X208016304Y-171860595D01*
X207965000Y-172118514D01*
X203015000Y-172118514D01*
X202963696Y-171860595D01*
X202863061Y-171617641D01*
X202716962Y-171398987D01*
X202531013Y-171213038D01*
X202312359Y-171066939D01*
X202069405Y-170966304D01*
X201811486Y-170915000D01*
X201548514Y-170915000D01*
X201290595Y-170966304D01*
X201047641Y-171066939D01*
X200828987Y-171213038D01*
X200643038Y-171398987D01*
X200496939Y-171617641D01*
X200396304Y-171860595D01*
X200345000Y-172118514D01*
X199236287Y-172118514D01*
X201441157Y-169913645D01*
X201548514Y-169935000D01*
X201811486Y-169935000D01*
X202069405Y-169883696D01*
X202312359Y-169783061D01*
X202531013Y-169636962D01*
X202716962Y-169451013D01*
X202863061Y-169232359D01*
X202963696Y-168989405D01*
X203015000Y-168731486D01*
X203015000Y-168468514D01*
X202963696Y-168210595D01*
X202863061Y-167967641D01*
X202716962Y-167748987D01*
X202531013Y-167563038D01*
X202312359Y-167416939D01*
X202069405Y-167316304D01*
X201811486Y-167265000D01*
X201548514Y-167265000D01*
X201290595Y-167316304D01*
X201047641Y-167416939D01*
X200828987Y-167563038D01*
X200643038Y-167748987D01*
X200496939Y-167967641D01*
X200396304Y-168210595D01*
X200345000Y-168468514D01*
X200345000Y-168731486D01*
X200366355Y-168838843D01*
X193205199Y-176000000D01*
X193068021Y-176000000D01*
X192897600Y-176016785D01*
X192678940Y-176083115D01*
X192477421Y-176190829D01*
X192300788Y-176335788D01*
X192155829Y-176512421D01*
X192048115Y-176713940D01*
X191981785Y-176932600D01*
X191959388Y-177160000D01*
X105884802Y-177160000D01*
X100213072Y-171488271D01*
X100213072Y-170350000D01*
X100212354Y-170342702D01*
X191086903Y-170342702D01*
X191158486Y-170586671D01*
X191413996Y-170707571D01*
X191688184Y-170776300D01*
X191970512Y-170790217D01*
X192250130Y-170748787D01*
X192516292Y-170653603D01*
X192641514Y-170586671D01*
X192713097Y-170342702D01*
X191900000Y-169529605D01*
X191086903Y-170342702D01*
X100212354Y-170342702D01*
X100196008Y-170176746D01*
X100145472Y-170010150D01*
X100063405Y-169856614D01*
X99952962Y-169722038D01*
X99818386Y-169611595D01*
X99716663Y-169557223D01*
X99780134Y-169505134D01*
X99849581Y-169420512D01*
X190459783Y-169420512D01*
X190501213Y-169700130D01*
X190596397Y-169966292D01*
X190663329Y-170091514D01*
X190907298Y-170163097D01*
X191720395Y-169350000D01*
X192079605Y-169350000D01*
X192892702Y-170163097D01*
X192961928Y-170142785D01*
X192961928Y-170150000D01*
X192974188Y-170274482D01*
X193010498Y-170394180D01*
X193069463Y-170504494D01*
X193148815Y-170601185D01*
X193245506Y-170680537D01*
X193355820Y-170739502D01*
X193475518Y-170775812D01*
X193600000Y-170788072D01*
X195200000Y-170788072D01*
X195324482Y-170775812D01*
X195444180Y-170739502D01*
X195554494Y-170680537D01*
X195651185Y-170601185D01*
X195730537Y-170504494D01*
X195789502Y-170394180D01*
X195825812Y-170274482D01*
X195838072Y-170150000D01*
X195838072Y-168550000D01*
X195825812Y-168425518D01*
X195789502Y-168305820D01*
X195730537Y-168195506D01*
X195651185Y-168098815D01*
X195554494Y-168019463D01*
X195444180Y-167960498D01*
X195324482Y-167924188D01*
X195200000Y-167911928D01*
X193600000Y-167911928D01*
X193475518Y-167924188D01*
X193355820Y-167960498D01*
X193245506Y-168019463D01*
X193148815Y-168098815D01*
X193069463Y-168195506D01*
X193010498Y-168305820D01*
X192974188Y-168425518D01*
X192961928Y-168550000D01*
X192961928Y-168557215D01*
X192892702Y-168536903D01*
X192079605Y-169350000D01*
X191720395Y-169350000D01*
X190907298Y-168536903D01*
X190663329Y-168608486D01*
X190542429Y-168863996D01*
X190473700Y-169138184D01*
X190459783Y-169420512D01*
X99849581Y-169420512D01*
X99965706Y-169279014D01*
X100103599Y-169021034D01*
X100188513Y-168741111D01*
X100217185Y-168450000D01*
X100208055Y-168357298D01*
X191086903Y-168357298D01*
X191900000Y-169170395D01*
X192713097Y-168357298D01*
X192641514Y-168113329D01*
X192386004Y-167992429D01*
X192111816Y-167923700D01*
X191829488Y-167909783D01*
X191549870Y-167951213D01*
X191283708Y-168046397D01*
X191158486Y-168113329D01*
X191086903Y-168357298D01*
X100208055Y-168357298D01*
X100188513Y-168158889D01*
X100103599Y-167878966D01*
X99965706Y-167620986D01*
X99780134Y-167394866D01*
X99554014Y-167209294D01*
X99528278Y-167195538D01*
X99734429Y-167039049D01*
X99927496Y-166821193D01*
X100074352Y-166569858D01*
X100166476Y-166306890D01*
X100045155Y-166077000D01*
X98727000Y-166077000D01*
X98727000Y-166097000D01*
X98473000Y-166097000D01*
X98473000Y-166077000D01*
X97154845Y-166077000D01*
X97033524Y-166306890D01*
X97125648Y-166569858D01*
X97272504Y-166821193D01*
X97465571Y-167039049D01*
X97671722Y-167195538D01*
X97645986Y-167209294D01*
X97419866Y-167394866D01*
X97234294Y-167620986D01*
X97096401Y-167878966D01*
X97011487Y-168158889D01*
X96982815Y-168450000D01*
X95110000Y-168450000D01*
X95110000Y-165593110D01*
X97033524Y-165593110D01*
X97154845Y-165823000D01*
X98473000Y-165823000D01*
X98473000Y-164623835D01*
X98727000Y-164623835D01*
X98727000Y-165823000D01*
X100045155Y-165823000D01*
X100166476Y-165593110D01*
X100074352Y-165330142D01*
X99927496Y-165078807D01*
X99734429Y-164860951D01*
X99502570Y-164684947D01*
X99240830Y-164557558D01*
X98959267Y-164483680D01*
X98727000Y-164623835D01*
X98473000Y-164623835D01*
X98240733Y-164483680D01*
X97959170Y-164557558D01*
X97697430Y-164684947D01*
X97465571Y-164860951D01*
X97272504Y-165078807D01*
X97125648Y-165330142D01*
X97033524Y-165593110D01*
X95110000Y-165593110D01*
X95110000Y-160938589D01*
X137140000Y-160938589D01*
X137140000Y-161211411D01*
X137193225Y-161478989D01*
X137297629Y-161731043D01*
X137449201Y-161957886D01*
X137642114Y-162150799D01*
X137868957Y-162302371D01*
X138121011Y-162406775D01*
X138388589Y-162460000D01*
X138661411Y-162460000D01*
X138928989Y-162406775D01*
X139181043Y-162302371D01*
X139407886Y-162150799D01*
X139600799Y-161957886D01*
X139752371Y-161731043D01*
X139856775Y-161478989D01*
X139910000Y-161211411D01*
X139910000Y-160938589D01*
X143940000Y-160938589D01*
X143940000Y-161211411D01*
X143993225Y-161478989D01*
X144097629Y-161731043D01*
X144249201Y-161957886D01*
X144442114Y-162150799D01*
X144668957Y-162302371D01*
X144921011Y-162406775D01*
X145188589Y-162460000D01*
X145461411Y-162460000D01*
X145728989Y-162406775D01*
X145981043Y-162302371D01*
X146207886Y-162150799D01*
X146400799Y-161957886D01*
X146552371Y-161731043D01*
X146656775Y-161478989D01*
X146710000Y-161211411D01*
X146710000Y-160938589D01*
X171615000Y-160938589D01*
X171615000Y-161211411D01*
X171668225Y-161478989D01*
X171772629Y-161731043D01*
X171924201Y-161957886D01*
X172117114Y-162150799D01*
X172343957Y-162302371D01*
X172596011Y-162406775D01*
X172863589Y-162460000D01*
X173136411Y-162460000D01*
X173403989Y-162406775D01*
X173656043Y-162302371D01*
X173882886Y-162150799D01*
X174075799Y-161957886D01*
X174227371Y-161731043D01*
X174331775Y-161478989D01*
X174385000Y-161211411D01*
X174385000Y-160938589D01*
X178415000Y-160938589D01*
X178415000Y-161211411D01*
X178468225Y-161478989D01*
X178572629Y-161731043D01*
X178724201Y-161957886D01*
X178917114Y-162150799D01*
X179143957Y-162302371D01*
X179396011Y-162406775D01*
X179663589Y-162460000D01*
X179936411Y-162460000D01*
X180203989Y-162406775D01*
X180456043Y-162302371D01*
X180682886Y-162150799D01*
X180875799Y-161957886D01*
X181027371Y-161731043D01*
X181131775Y-161478989D01*
X181185000Y-161211411D01*
X181185000Y-160938589D01*
X181131775Y-160671011D01*
X181027371Y-160418957D01*
X180875799Y-160192114D01*
X180682886Y-159999201D01*
X180456043Y-159847629D01*
X180203989Y-159743225D01*
X179936411Y-159690000D01*
X179663589Y-159690000D01*
X179396011Y-159743225D01*
X179143957Y-159847629D01*
X178917114Y-159999201D01*
X178724201Y-160192114D01*
X178572629Y-160418957D01*
X178468225Y-160671011D01*
X178415000Y-160938589D01*
X174385000Y-160938589D01*
X174331775Y-160671011D01*
X174227371Y-160418957D01*
X174075799Y-160192114D01*
X173882886Y-159999201D01*
X173656043Y-159847629D01*
X173403989Y-159743225D01*
X173136411Y-159690000D01*
X172863589Y-159690000D01*
X172596011Y-159743225D01*
X172343957Y-159847629D01*
X172117114Y-159999201D01*
X171924201Y-160192114D01*
X171772629Y-160418957D01*
X171668225Y-160671011D01*
X171615000Y-160938589D01*
X146710000Y-160938589D01*
X146656775Y-160671011D01*
X146552371Y-160418957D01*
X146400799Y-160192114D01*
X146207886Y-159999201D01*
X145981043Y-159847629D01*
X145728989Y-159743225D01*
X145461411Y-159690000D01*
X145188589Y-159690000D01*
X144921011Y-159743225D01*
X144668957Y-159847629D01*
X144442114Y-159999201D01*
X144249201Y-160192114D01*
X144097629Y-160418957D01*
X143993225Y-160671011D01*
X143940000Y-160938589D01*
X139910000Y-160938589D01*
X139856775Y-160671011D01*
X139752371Y-160418957D01*
X139600799Y-160192114D01*
X139407886Y-159999201D01*
X139181043Y-159847629D01*
X138928989Y-159743225D01*
X138661411Y-159690000D01*
X138388589Y-159690000D01*
X138121011Y-159743225D01*
X137868957Y-159847629D01*
X137642114Y-159999201D01*
X137449201Y-160192114D01*
X137297629Y-160418957D01*
X137193225Y-160671011D01*
X137140000Y-160938589D01*
X95110000Y-160938589D01*
X95110000Y-157838589D01*
X135240000Y-157838589D01*
X135240000Y-158111411D01*
X135293225Y-158378989D01*
X135397629Y-158631043D01*
X135549201Y-158857886D01*
X135742114Y-159050799D01*
X135968957Y-159202371D01*
X136221011Y-159306775D01*
X136488589Y-159360000D01*
X136761411Y-159360000D01*
X137028989Y-159306775D01*
X137281043Y-159202371D01*
X137507886Y-159050799D01*
X137700799Y-158857886D01*
X137852371Y-158631043D01*
X137956775Y-158378989D01*
X138010000Y-158111411D01*
X138010000Y-157838589D01*
X145840000Y-157838589D01*
X145840000Y-158111411D01*
X145893225Y-158378989D01*
X145997629Y-158631043D01*
X146149201Y-158857886D01*
X146342114Y-159050799D01*
X146568957Y-159202371D01*
X146821011Y-159306775D01*
X147088589Y-159360000D01*
X147361411Y-159360000D01*
X147628989Y-159306775D01*
X147881043Y-159202371D01*
X148107886Y-159050799D01*
X148300799Y-158857886D01*
X148452371Y-158631043D01*
X148556775Y-158378989D01*
X148610000Y-158111411D01*
X148610000Y-157838589D01*
X169715000Y-157838589D01*
X169715000Y-158111411D01*
X169768225Y-158378989D01*
X169872629Y-158631043D01*
X170024201Y-158857886D01*
X170217114Y-159050799D01*
X170443957Y-159202371D01*
X170696011Y-159306775D01*
X170963589Y-159360000D01*
X171236411Y-159360000D01*
X171503989Y-159306775D01*
X171756043Y-159202371D01*
X171982886Y-159050799D01*
X172175799Y-158857886D01*
X172327371Y-158631043D01*
X172431775Y-158378989D01*
X172485000Y-158111411D01*
X172485000Y-157838589D01*
X180315000Y-157838589D01*
X180315000Y-158111411D01*
X180368225Y-158378989D01*
X180472629Y-158631043D01*
X180624201Y-158857886D01*
X180817114Y-159050799D01*
X181043957Y-159202371D01*
X181296011Y-159306775D01*
X181563589Y-159360000D01*
X181836411Y-159360000D01*
X182103989Y-159306775D01*
X182356043Y-159202371D01*
X182582886Y-159050799D01*
X182775799Y-158857886D01*
X182927371Y-158631043D01*
X183031775Y-158378989D01*
X183085000Y-158111411D01*
X183085000Y-157838589D01*
X183031775Y-157571011D01*
X182927371Y-157318957D01*
X182775799Y-157092114D01*
X182582886Y-156899201D01*
X182356043Y-156747629D01*
X182103989Y-156643225D01*
X181836411Y-156590000D01*
X181563589Y-156590000D01*
X181296011Y-156643225D01*
X181043957Y-156747629D01*
X180817114Y-156899201D01*
X180624201Y-157092114D01*
X180472629Y-157318957D01*
X180368225Y-157571011D01*
X180315000Y-157838589D01*
X172485000Y-157838589D01*
X172431775Y-157571011D01*
X172327371Y-157318957D01*
X172175799Y-157092114D01*
X171982886Y-156899201D01*
X171756043Y-156747629D01*
X171503989Y-156643225D01*
X171236411Y-156590000D01*
X170963589Y-156590000D01*
X170696011Y-156643225D01*
X170443957Y-156747629D01*
X170217114Y-156899201D01*
X170024201Y-157092114D01*
X169872629Y-157318957D01*
X169768225Y-157571011D01*
X169715000Y-157838589D01*
X148610000Y-157838589D01*
X148556775Y-157571011D01*
X148452371Y-157318957D01*
X148300799Y-157092114D01*
X148107886Y-156899201D01*
X147881043Y-156747629D01*
X147628989Y-156643225D01*
X147361411Y-156590000D01*
X147088589Y-156590000D01*
X146821011Y-156643225D01*
X146568957Y-156747629D01*
X146342114Y-156899201D01*
X146149201Y-157092114D01*
X145997629Y-157318957D01*
X145893225Y-157571011D01*
X145840000Y-157838589D01*
X138010000Y-157838589D01*
X137956775Y-157571011D01*
X137852371Y-157318957D01*
X137700799Y-157092114D01*
X137507886Y-156899201D01*
X137281043Y-156747629D01*
X137028989Y-156643225D01*
X136761411Y-156590000D01*
X136488589Y-156590000D01*
X136221011Y-156643225D01*
X135968957Y-156747629D01*
X135742114Y-156899201D01*
X135549201Y-157092114D01*
X135397629Y-157318957D01*
X135293225Y-157571011D01*
X135240000Y-157838589D01*
X95110000Y-157838589D01*
X95110000Y-154238589D01*
X135040000Y-154238589D01*
X135040000Y-154511411D01*
X135093225Y-154778989D01*
X135197629Y-155031043D01*
X135349201Y-155257886D01*
X135542114Y-155450799D01*
X135768957Y-155602371D01*
X136021011Y-155706775D01*
X136288589Y-155760000D01*
X136561411Y-155760000D01*
X136828989Y-155706775D01*
X137081043Y-155602371D01*
X137307886Y-155450799D01*
X137500799Y-155257886D01*
X137652371Y-155031043D01*
X137756775Y-154778989D01*
X137810000Y-154511411D01*
X137810000Y-154238589D01*
X137785511Y-154115475D01*
X139290000Y-154115475D01*
X139290000Y-154634525D01*
X139391261Y-155143601D01*
X139589893Y-155623141D01*
X139878262Y-156054715D01*
X140245285Y-156421738D01*
X140676859Y-156710107D01*
X141156399Y-156908739D01*
X141665475Y-157010000D01*
X142184525Y-157010000D01*
X142693601Y-156908739D01*
X143173141Y-156710107D01*
X143604715Y-156421738D01*
X143971738Y-156054715D01*
X144260107Y-155623141D01*
X144458739Y-155143601D01*
X144560000Y-154634525D01*
X144560000Y-154238589D01*
X146040000Y-154238589D01*
X146040000Y-154511411D01*
X146093225Y-154778989D01*
X146197629Y-155031043D01*
X146349201Y-155257886D01*
X146542114Y-155450799D01*
X146768957Y-155602371D01*
X147021011Y-155706775D01*
X147288589Y-155760000D01*
X147561411Y-155760000D01*
X147828989Y-155706775D01*
X148081043Y-155602371D01*
X148307886Y-155450799D01*
X148500799Y-155257886D01*
X148652371Y-155031043D01*
X148756775Y-154778989D01*
X148810000Y-154511411D01*
X148810000Y-154238589D01*
X169515000Y-154238589D01*
X169515000Y-154511411D01*
X169568225Y-154778989D01*
X169672629Y-155031043D01*
X169824201Y-155257886D01*
X170017114Y-155450799D01*
X170243957Y-155602371D01*
X170496011Y-155706775D01*
X170763589Y-155760000D01*
X171036411Y-155760000D01*
X171303989Y-155706775D01*
X171556043Y-155602371D01*
X171782886Y-155450799D01*
X171975799Y-155257886D01*
X172127371Y-155031043D01*
X172231775Y-154778989D01*
X172285000Y-154511411D01*
X172285000Y-154238589D01*
X172260511Y-154115475D01*
X173765000Y-154115475D01*
X173765000Y-154634525D01*
X173866261Y-155143601D01*
X174064893Y-155623141D01*
X174353262Y-156054715D01*
X174720285Y-156421738D01*
X175151859Y-156710107D01*
X175631399Y-156908739D01*
X176140475Y-157010000D01*
X176659525Y-157010000D01*
X177168601Y-156908739D01*
X177648141Y-156710107D01*
X178079715Y-156421738D01*
X178446738Y-156054715D01*
X178735107Y-155623141D01*
X178933739Y-155143601D01*
X179035000Y-154634525D01*
X179035000Y-154238589D01*
X180515000Y-154238589D01*
X180515000Y-154511411D01*
X180568225Y-154778989D01*
X180672629Y-155031043D01*
X180824201Y-155257886D01*
X181017114Y-155450799D01*
X181243957Y-155602371D01*
X181496011Y-155706775D01*
X181763589Y-155760000D01*
X182036411Y-155760000D01*
X182303989Y-155706775D01*
X182556043Y-155602371D01*
X182782886Y-155450799D01*
X182975799Y-155257886D01*
X183127371Y-155031043D01*
X183231775Y-154778989D01*
X183285000Y-154511411D01*
X183285000Y-154238589D01*
X183231775Y-153971011D01*
X183127371Y-153718957D01*
X182975799Y-153492114D01*
X182782886Y-153299201D01*
X182556043Y-153147629D01*
X182303989Y-153043225D01*
X182136963Y-153010001D01*
X207461323Y-153010001D01*
X207465000Y-153047333D01*
X207464999Y-167487677D01*
X207461323Y-167524999D01*
X207464999Y-167562321D01*
X207464999Y-167562331D01*
X207475996Y-167673984D01*
X207498748Y-167748987D01*
X207519453Y-167817245D01*
X207590025Y-167949275D01*
X207599236Y-167960498D01*
X207684998Y-168065000D01*
X207714001Y-168088803D01*
X207986355Y-168361156D01*
X207965000Y-168468514D01*
X207965000Y-168731486D01*
X208016304Y-168989405D01*
X208116939Y-169232359D01*
X208263038Y-169451013D01*
X208448987Y-169636962D01*
X208667641Y-169783061D01*
X208910595Y-169883696D01*
X209168514Y-169935000D01*
X209431486Y-169935000D01*
X209689405Y-169883696D01*
X209932359Y-169783061D01*
X210151013Y-169636962D01*
X210336962Y-169451013D01*
X210483061Y-169232359D01*
X210583696Y-168989405D01*
X210635000Y-168731486D01*
X210635000Y-168468514D01*
X210583696Y-168210595D01*
X210483061Y-167967641D01*
X210336962Y-167748987D01*
X210151013Y-167563038D01*
X209932359Y-167416939D01*
X209689405Y-167316304D01*
X209431486Y-167265000D01*
X209168514Y-167265000D01*
X209061156Y-167286355D01*
X208984999Y-167210198D01*
X208984999Y-160938589D01*
X237615000Y-160938589D01*
X237615000Y-161211411D01*
X237668225Y-161478989D01*
X237772629Y-161731043D01*
X237924201Y-161957886D01*
X238117114Y-162150799D01*
X238343957Y-162302371D01*
X238596011Y-162406775D01*
X238863589Y-162460000D01*
X239136411Y-162460000D01*
X239403989Y-162406775D01*
X239656043Y-162302371D01*
X239882886Y-162150799D01*
X240075799Y-161957886D01*
X240227371Y-161731043D01*
X240331775Y-161478989D01*
X240385000Y-161211411D01*
X240385000Y-160938589D01*
X244415000Y-160938589D01*
X244415000Y-161211411D01*
X244468225Y-161478989D01*
X244572629Y-161731043D01*
X244724201Y-161957886D01*
X244917114Y-162150799D01*
X245143957Y-162302371D01*
X245396011Y-162406775D01*
X245663589Y-162460000D01*
X245936411Y-162460000D01*
X246203989Y-162406775D01*
X246456043Y-162302371D01*
X246682886Y-162150799D01*
X246875799Y-161957886D01*
X247027371Y-161731043D01*
X247131775Y-161478989D01*
X247185000Y-161211411D01*
X247185000Y-160938589D01*
X272090000Y-160938589D01*
X272090000Y-161211411D01*
X272143225Y-161478989D01*
X272247629Y-161731043D01*
X272399201Y-161957886D01*
X272592114Y-162150799D01*
X272818957Y-162302371D01*
X273071011Y-162406775D01*
X273338589Y-162460000D01*
X273611411Y-162460000D01*
X273878989Y-162406775D01*
X274131043Y-162302371D01*
X274357886Y-162150799D01*
X274550799Y-161957886D01*
X274702371Y-161731043D01*
X274806775Y-161478989D01*
X274860000Y-161211411D01*
X274860000Y-160938589D01*
X278890000Y-160938589D01*
X278890000Y-161211411D01*
X278943225Y-161478989D01*
X279047629Y-161731043D01*
X279199201Y-161957886D01*
X279392114Y-162150799D01*
X279618957Y-162302371D01*
X279871011Y-162406775D01*
X280138589Y-162460000D01*
X280411411Y-162460000D01*
X280678989Y-162406775D01*
X280931043Y-162302371D01*
X281157886Y-162150799D01*
X281350799Y-161957886D01*
X281502371Y-161731043D01*
X281606775Y-161478989D01*
X281660000Y-161211411D01*
X281660000Y-160938589D01*
X281606775Y-160671011D01*
X281502371Y-160418957D01*
X281350799Y-160192114D01*
X281157886Y-159999201D01*
X280931043Y-159847629D01*
X280678989Y-159743225D01*
X280411411Y-159690000D01*
X280138589Y-159690000D01*
X279871011Y-159743225D01*
X279618957Y-159847629D01*
X279392114Y-159999201D01*
X279199201Y-160192114D01*
X279047629Y-160418957D01*
X278943225Y-160671011D01*
X278890000Y-160938589D01*
X274860000Y-160938589D01*
X274806775Y-160671011D01*
X274702371Y-160418957D01*
X274550799Y-160192114D01*
X274357886Y-159999201D01*
X274131043Y-159847629D01*
X273878989Y-159743225D01*
X273611411Y-159690000D01*
X273338589Y-159690000D01*
X273071011Y-159743225D01*
X272818957Y-159847629D01*
X272592114Y-159999201D01*
X272399201Y-160192114D01*
X272247629Y-160418957D01*
X272143225Y-160671011D01*
X272090000Y-160938589D01*
X247185000Y-160938589D01*
X247131775Y-160671011D01*
X247027371Y-160418957D01*
X246875799Y-160192114D01*
X246682886Y-159999201D01*
X246456043Y-159847629D01*
X246203989Y-159743225D01*
X245936411Y-159690000D01*
X245663589Y-159690000D01*
X245396011Y-159743225D01*
X245143957Y-159847629D01*
X244917114Y-159999201D01*
X244724201Y-160192114D01*
X244572629Y-160418957D01*
X244468225Y-160671011D01*
X244415000Y-160938589D01*
X240385000Y-160938589D01*
X240331775Y-160671011D01*
X240227371Y-160418957D01*
X240075799Y-160192114D01*
X239882886Y-159999201D01*
X239656043Y-159847629D01*
X239403989Y-159743225D01*
X239136411Y-159690000D01*
X238863589Y-159690000D01*
X238596011Y-159743225D01*
X238343957Y-159847629D01*
X238117114Y-159999201D01*
X237924201Y-160192114D01*
X237772629Y-160418957D01*
X237668225Y-160671011D01*
X237615000Y-160938589D01*
X208984999Y-160938589D01*
X208984999Y-157838589D01*
X235715000Y-157838589D01*
X235715000Y-158111411D01*
X235768225Y-158378989D01*
X235872629Y-158631043D01*
X236024201Y-158857886D01*
X236217114Y-159050799D01*
X236443957Y-159202371D01*
X236696011Y-159306775D01*
X236963589Y-159360000D01*
X237236411Y-159360000D01*
X237503989Y-159306775D01*
X237756043Y-159202371D01*
X237982886Y-159050799D01*
X238175799Y-158857886D01*
X238327371Y-158631043D01*
X238431775Y-158378989D01*
X238485000Y-158111411D01*
X238485000Y-157838589D01*
X246315000Y-157838589D01*
X246315000Y-158111411D01*
X246368225Y-158378989D01*
X246472629Y-158631043D01*
X246624201Y-158857886D01*
X246817114Y-159050799D01*
X247043957Y-159202371D01*
X247296011Y-159306775D01*
X247563589Y-159360000D01*
X247836411Y-159360000D01*
X248103989Y-159306775D01*
X248356043Y-159202371D01*
X248582886Y-159050799D01*
X248775799Y-158857886D01*
X248927371Y-158631043D01*
X249031775Y-158378989D01*
X249085000Y-158111411D01*
X249085000Y-157838589D01*
X270190000Y-157838589D01*
X270190000Y-158111411D01*
X270243225Y-158378989D01*
X270347629Y-158631043D01*
X270499201Y-158857886D01*
X270692114Y-159050799D01*
X270918957Y-159202371D01*
X271171011Y-159306775D01*
X271438589Y-159360000D01*
X271711411Y-159360000D01*
X271978989Y-159306775D01*
X272231043Y-159202371D01*
X272457886Y-159050799D01*
X272650799Y-158857886D01*
X272802371Y-158631043D01*
X272906775Y-158378989D01*
X272960000Y-158111411D01*
X272960000Y-157838589D01*
X280790000Y-157838589D01*
X280790000Y-158111411D01*
X280843225Y-158378989D01*
X280947629Y-158631043D01*
X281099201Y-158857886D01*
X281292114Y-159050799D01*
X281518957Y-159202371D01*
X281771011Y-159306775D01*
X282038589Y-159360000D01*
X282311411Y-159360000D01*
X282578989Y-159306775D01*
X282831043Y-159202371D01*
X283057886Y-159050799D01*
X283250799Y-158857886D01*
X283402371Y-158631043D01*
X283506775Y-158378989D01*
X283560000Y-158111411D01*
X283560000Y-157838589D01*
X283506775Y-157571011D01*
X283402371Y-157318957D01*
X283250799Y-157092114D01*
X283057886Y-156899201D01*
X282831043Y-156747629D01*
X282578989Y-156643225D01*
X282311411Y-156590000D01*
X282038589Y-156590000D01*
X281771011Y-156643225D01*
X281518957Y-156747629D01*
X281292114Y-156899201D01*
X281099201Y-157092114D01*
X280947629Y-157318957D01*
X280843225Y-157571011D01*
X280790000Y-157838589D01*
X272960000Y-157838589D01*
X272906775Y-157571011D01*
X272802371Y-157318957D01*
X272650799Y-157092114D01*
X272457886Y-156899201D01*
X272231043Y-156747629D01*
X271978989Y-156643225D01*
X271711411Y-156590000D01*
X271438589Y-156590000D01*
X271171011Y-156643225D01*
X270918957Y-156747629D01*
X270692114Y-156899201D01*
X270499201Y-157092114D01*
X270347629Y-157318957D01*
X270243225Y-157571011D01*
X270190000Y-157838589D01*
X249085000Y-157838589D01*
X249031775Y-157571011D01*
X248927371Y-157318957D01*
X248775799Y-157092114D01*
X248582886Y-156899201D01*
X248356043Y-156747629D01*
X248103989Y-156643225D01*
X247836411Y-156590000D01*
X247563589Y-156590000D01*
X247296011Y-156643225D01*
X247043957Y-156747629D01*
X246817114Y-156899201D01*
X246624201Y-157092114D01*
X246472629Y-157318957D01*
X246368225Y-157571011D01*
X246315000Y-157838589D01*
X238485000Y-157838589D01*
X238431775Y-157571011D01*
X238327371Y-157318957D01*
X238175799Y-157092114D01*
X237982886Y-156899201D01*
X237756043Y-156747629D01*
X237503989Y-156643225D01*
X237236411Y-156590000D01*
X236963589Y-156590000D01*
X236696011Y-156643225D01*
X236443957Y-156747629D01*
X236217114Y-156899201D01*
X236024201Y-157092114D01*
X235872629Y-157318957D01*
X235768225Y-157571011D01*
X235715000Y-157838589D01*
X208984999Y-157838589D01*
X208984999Y-155863072D01*
X210250000Y-155863072D01*
X210374482Y-155850812D01*
X210494180Y-155814502D01*
X210604494Y-155755537D01*
X210701185Y-155676185D01*
X210780537Y-155579494D01*
X210839502Y-155469180D01*
X210875812Y-155349482D01*
X210888072Y-155225000D01*
X210888072Y-154238589D01*
X235515000Y-154238589D01*
X235515000Y-154511411D01*
X235568225Y-154778989D01*
X235672629Y-155031043D01*
X235824201Y-155257886D01*
X236017114Y-155450799D01*
X236243957Y-155602371D01*
X236496011Y-155706775D01*
X236763589Y-155760000D01*
X237036411Y-155760000D01*
X237303989Y-155706775D01*
X237556043Y-155602371D01*
X237782886Y-155450799D01*
X237975799Y-155257886D01*
X238127371Y-155031043D01*
X238231775Y-154778989D01*
X238285000Y-154511411D01*
X238285000Y-154238589D01*
X238260511Y-154115475D01*
X239765000Y-154115475D01*
X239765000Y-154634525D01*
X239866261Y-155143601D01*
X240064893Y-155623141D01*
X240353262Y-156054715D01*
X240720285Y-156421738D01*
X241151859Y-156710107D01*
X241631399Y-156908739D01*
X242140475Y-157010000D01*
X242659525Y-157010000D01*
X243168601Y-156908739D01*
X243648141Y-156710107D01*
X244079715Y-156421738D01*
X244446738Y-156054715D01*
X244735107Y-155623141D01*
X244933739Y-155143601D01*
X245035000Y-154634525D01*
X245035000Y-154238589D01*
X246515000Y-154238589D01*
X246515000Y-154511411D01*
X246568225Y-154778989D01*
X246672629Y-155031043D01*
X246824201Y-155257886D01*
X247017114Y-155450799D01*
X247243957Y-155602371D01*
X247496011Y-155706775D01*
X247763589Y-155760000D01*
X248036411Y-155760000D01*
X248303989Y-155706775D01*
X248556043Y-155602371D01*
X248782886Y-155450799D01*
X248975799Y-155257886D01*
X249127371Y-155031043D01*
X249231775Y-154778989D01*
X249285000Y-154511411D01*
X249285000Y-154238589D01*
X269990000Y-154238589D01*
X269990000Y-154511411D01*
X270043225Y-154778989D01*
X270147629Y-155031043D01*
X270299201Y-155257886D01*
X270492114Y-155450799D01*
X270718957Y-155602371D01*
X270971011Y-155706775D01*
X271238589Y-155760000D01*
X271511411Y-155760000D01*
X271778989Y-155706775D01*
X272031043Y-155602371D01*
X272257886Y-155450799D01*
X272450799Y-155257886D01*
X272602371Y-155031043D01*
X272706775Y-154778989D01*
X272760000Y-154511411D01*
X272760000Y-154238589D01*
X272735511Y-154115475D01*
X274240000Y-154115475D01*
X274240000Y-154634525D01*
X274341261Y-155143601D01*
X274539893Y-155623141D01*
X274828262Y-156054715D01*
X275195285Y-156421738D01*
X275626859Y-156710107D01*
X276106399Y-156908739D01*
X276615475Y-157010000D01*
X277134525Y-157010000D01*
X277643601Y-156908739D01*
X278123141Y-156710107D01*
X278554715Y-156421738D01*
X278921738Y-156054715D01*
X279210107Y-155623141D01*
X279408739Y-155143601D01*
X279510000Y-154634525D01*
X279510000Y-154238589D01*
X280990000Y-154238589D01*
X280990000Y-154511411D01*
X281043225Y-154778989D01*
X281147629Y-155031043D01*
X281299201Y-155257886D01*
X281492114Y-155450799D01*
X281718957Y-155602371D01*
X281971011Y-155706775D01*
X282238589Y-155760000D01*
X282511411Y-155760000D01*
X282778989Y-155706775D01*
X283031043Y-155602371D01*
X283257886Y-155450799D01*
X283450799Y-155257886D01*
X283602371Y-155031043D01*
X283706775Y-154778989D01*
X283760000Y-154511411D01*
X283760000Y-154238589D01*
X283706775Y-153971011D01*
X283602371Y-153718957D01*
X283450799Y-153492114D01*
X283257886Y-153299201D01*
X283031043Y-153147629D01*
X282778989Y-153043225D01*
X282511411Y-152990000D01*
X282238589Y-152990000D01*
X281971011Y-153043225D01*
X281718957Y-153147629D01*
X281492114Y-153299201D01*
X281299201Y-153492114D01*
X281147629Y-153718957D01*
X281043225Y-153971011D01*
X280990000Y-154238589D01*
X279510000Y-154238589D01*
X279510000Y-154115475D01*
X279408739Y-153606399D01*
X279210107Y-153126859D01*
X278921738Y-152695285D01*
X278554715Y-152328262D01*
X278123141Y-152039893D01*
X277643601Y-151841261D01*
X277134525Y-151740000D01*
X276615475Y-151740000D01*
X276106399Y-151841261D01*
X275626859Y-152039893D01*
X275195285Y-152328262D01*
X274828262Y-152695285D01*
X274539893Y-153126859D01*
X274341261Y-153606399D01*
X274240000Y-154115475D01*
X272735511Y-154115475D01*
X272706775Y-153971011D01*
X272602371Y-153718957D01*
X272450799Y-153492114D01*
X272257886Y-153299201D01*
X272031043Y-153147629D01*
X271778989Y-153043225D01*
X271511411Y-152990000D01*
X271238589Y-152990000D01*
X270971011Y-153043225D01*
X270718957Y-153147629D01*
X270492114Y-153299201D01*
X270299201Y-153492114D01*
X270147629Y-153718957D01*
X270043225Y-153971011D01*
X269990000Y-154238589D01*
X249285000Y-154238589D01*
X249231775Y-153971011D01*
X249127371Y-153718957D01*
X248975799Y-153492114D01*
X248782886Y-153299201D01*
X248556043Y-153147629D01*
X248303989Y-153043225D01*
X248036411Y-152990000D01*
X247763589Y-152990000D01*
X247496011Y-153043225D01*
X247243957Y-153147629D01*
X247017114Y-153299201D01*
X246824201Y-153492114D01*
X246672629Y-153718957D01*
X246568225Y-153971011D01*
X246515000Y-154238589D01*
X245035000Y-154238589D01*
X245035000Y-154115475D01*
X244933739Y-153606399D01*
X244735107Y-153126859D01*
X244446738Y-152695285D01*
X244079715Y-152328262D01*
X243648141Y-152039893D01*
X243168601Y-151841261D01*
X242659525Y-151740000D01*
X242140475Y-151740000D01*
X241631399Y-151841261D01*
X241151859Y-152039893D01*
X240720285Y-152328262D01*
X240353262Y-152695285D01*
X240064893Y-153126859D01*
X239866261Y-153606399D01*
X239765000Y-154115475D01*
X238260511Y-154115475D01*
X238231775Y-153971011D01*
X238127371Y-153718957D01*
X237975799Y-153492114D01*
X237782886Y-153299201D01*
X237556043Y-153147629D01*
X237303989Y-153043225D01*
X237036411Y-152990000D01*
X236763589Y-152990000D01*
X236496011Y-153043225D01*
X236243957Y-153147629D01*
X236017114Y-153299201D01*
X235824201Y-153492114D01*
X235672629Y-153718957D01*
X235568225Y-153971011D01*
X235515000Y-154238589D01*
X210888072Y-154238589D01*
X210888072Y-153525000D01*
X210875812Y-153400518D01*
X210839502Y-153280820D01*
X210780537Y-153170506D01*
X210701185Y-153073815D01*
X210604494Y-152994463D01*
X210494180Y-152935498D01*
X210421620Y-152913487D01*
X210553475Y-152781632D01*
X210715990Y-152538411D01*
X210827932Y-152268158D01*
X210885000Y-151981260D01*
X210885000Y-151688740D01*
X210827932Y-151401842D01*
X210715990Y-151131589D01*
X210553475Y-150888368D01*
X210346632Y-150681525D01*
X210282374Y-150638589D01*
X235715000Y-150638589D01*
X235715000Y-150911411D01*
X235768225Y-151178989D01*
X235872629Y-151431043D01*
X236024201Y-151657886D01*
X236217114Y-151850799D01*
X236443957Y-152002371D01*
X236696011Y-152106775D01*
X236963589Y-152160000D01*
X237236411Y-152160000D01*
X237503989Y-152106775D01*
X237756043Y-152002371D01*
X237982886Y-151850799D01*
X238175799Y-151657886D01*
X238327371Y-151431043D01*
X238431775Y-151178989D01*
X238485000Y-150911411D01*
X238485000Y-150638589D01*
X246315000Y-150638589D01*
X246315000Y-150911411D01*
X246368225Y-151178989D01*
X246472629Y-151431043D01*
X246624201Y-151657886D01*
X246817114Y-151850799D01*
X247043957Y-152002371D01*
X247296011Y-152106775D01*
X247563589Y-152160000D01*
X247836411Y-152160000D01*
X248103989Y-152106775D01*
X248356043Y-152002371D01*
X248582886Y-151850799D01*
X248775799Y-151657886D01*
X248927371Y-151431043D01*
X249031775Y-151178989D01*
X249085000Y-150911411D01*
X249085000Y-150638589D01*
X270190000Y-150638589D01*
X270190000Y-150911411D01*
X270243225Y-151178989D01*
X270347629Y-151431043D01*
X270499201Y-151657886D01*
X270692114Y-151850799D01*
X270918957Y-152002371D01*
X271171011Y-152106775D01*
X271438589Y-152160000D01*
X271711411Y-152160000D01*
X271978989Y-152106775D01*
X272231043Y-152002371D01*
X272457886Y-151850799D01*
X272650799Y-151657886D01*
X272802371Y-151431043D01*
X272906775Y-151178989D01*
X272960000Y-150911411D01*
X272960000Y-150638589D01*
X280790000Y-150638589D01*
X280790000Y-150911411D01*
X280843225Y-151178989D01*
X280947629Y-151431043D01*
X281099201Y-151657886D01*
X281292114Y-151850799D01*
X281518957Y-152002371D01*
X281771011Y-152106775D01*
X282038589Y-152160000D01*
X282311411Y-152160000D01*
X282578989Y-152106775D01*
X282831043Y-152002371D01*
X283057886Y-151850799D01*
X283250799Y-151657886D01*
X283402371Y-151431043D01*
X283506775Y-151178989D01*
X283560000Y-150911411D01*
X283560000Y-150638589D01*
X283506775Y-150371011D01*
X283402371Y-150118957D01*
X283250799Y-149892114D01*
X283057886Y-149699201D01*
X282831043Y-149547629D01*
X282578989Y-149443225D01*
X282311411Y-149390000D01*
X282038589Y-149390000D01*
X281771011Y-149443225D01*
X281518957Y-149547629D01*
X281292114Y-149699201D01*
X281099201Y-149892114D01*
X280947629Y-150118957D01*
X280843225Y-150371011D01*
X280790000Y-150638589D01*
X272960000Y-150638589D01*
X272906775Y-150371011D01*
X272802371Y-150118957D01*
X272650799Y-149892114D01*
X272457886Y-149699201D01*
X272231043Y-149547629D01*
X271978989Y-149443225D01*
X271711411Y-149390000D01*
X271438589Y-149390000D01*
X271171011Y-149443225D01*
X270918957Y-149547629D01*
X270692114Y-149699201D01*
X270499201Y-149892114D01*
X270347629Y-150118957D01*
X270243225Y-150371011D01*
X270190000Y-150638589D01*
X249085000Y-150638589D01*
X249031775Y-150371011D01*
X248927371Y-150118957D01*
X248775799Y-149892114D01*
X248582886Y-149699201D01*
X248356043Y-149547629D01*
X248103989Y-149443225D01*
X247836411Y-149390000D01*
X247563589Y-149390000D01*
X247296011Y-149443225D01*
X247043957Y-149547629D01*
X246817114Y-149699201D01*
X246624201Y-149892114D01*
X246472629Y-150118957D01*
X246368225Y-150371011D01*
X246315000Y-150638589D01*
X238485000Y-150638589D01*
X238431775Y-150371011D01*
X238327371Y-150118957D01*
X238175799Y-149892114D01*
X237982886Y-149699201D01*
X237756043Y-149547629D01*
X237503989Y-149443225D01*
X237236411Y-149390000D01*
X236963589Y-149390000D01*
X236696011Y-149443225D01*
X236443957Y-149547629D01*
X236217114Y-149699201D01*
X236024201Y-149892114D01*
X235872629Y-150118957D01*
X235768225Y-150371011D01*
X235715000Y-150638589D01*
X210282374Y-150638589D01*
X210103411Y-150519010D01*
X209833158Y-150407068D01*
X209546260Y-150350000D01*
X209253740Y-150350000D01*
X208966842Y-150407068D01*
X208696589Y-150519010D01*
X208453368Y-150681525D01*
X208246525Y-150888368D01*
X208084010Y-151131589D01*
X207972068Y-151401842D01*
X207915000Y-151688740D01*
X207915000Y-151981260D01*
X207958791Y-152201408D01*
X207713997Y-152446202D01*
X207684999Y-152470000D01*
X207661201Y-152498998D01*
X207661200Y-152498999D01*
X207590025Y-152585725D01*
X207519453Y-152717755D01*
X207475997Y-152861016D01*
X207461323Y-153010001D01*
X182136963Y-153010001D01*
X182036411Y-152990000D01*
X181763589Y-152990000D01*
X181496011Y-153043225D01*
X181243957Y-153147629D01*
X181017114Y-153299201D01*
X180824201Y-153492114D01*
X180672629Y-153718957D01*
X180568225Y-153971011D01*
X180515000Y-154238589D01*
X179035000Y-154238589D01*
X179035000Y-154115475D01*
X178933739Y-153606399D01*
X178735107Y-153126859D01*
X178446738Y-152695285D01*
X178079715Y-152328262D01*
X177648141Y-152039893D01*
X177168601Y-151841261D01*
X176659525Y-151740000D01*
X176140475Y-151740000D01*
X175631399Y-151841261D01*
X175151859Y-152039893D01*
X174720285Y-152328262D01*
X174353262Y-152695285D01*
X174064893Y-153126859D01*
X173866261Y-153606399D01*
X173765000Y-154115475D01*
X172260511Y-154115475D01*
X172231775Y-153971011D01*
X172127371Y-153718957D01*
X171975799Y-153492114D01*
X171782886Y-153299201D01*
X171556043Y-153147629D01*
X171303989Y-153043225D01*
X171036411Y-152990000D01*
X170763589Y-152990000D01*
X170496011Y-153043225D01*
X170243957Y-153147629D01*
X170017114Y-153299201D01*
X169824201Y-153492114D01*
X169672629Y-153718957D01*
X169568225Y-153971011D01*
X169515000Y-154238589D01*
X148810000Y-154238589D01*
X148756775Y-153971011D01*
X148652371Y-153718957D01*
X148500799Y-153492114D01*
X148307886Y-153299201D01*
X148081043Y-153147629D01*
X147828989Y-153043225D01*
X147561411Y-152990000D01*
X147288589Y-152990000D01*
X147021011Y-153043225D01*
X146768957Y-153147629D01*
X146542114Y-153299201D01*
X146349201Y-153492114D01*
X146197629Y-153718957D01*
X146093225Y-153971011D01*
X146040000Y-154238589D01*
X144560000Y-154238589D01*
X144560000Y-154115475D01*
X144458739Y-153606399D01*
X144260107Y-153126859D01*
X143971738Y-152695285D01*
X143604715Y-152328262D01*
X143173141Y-152039893D01*
X142693601Y-151841261D01*
X142184525Y-151740000D01*
X141665475Y-151740000D01*
X141156399Y-151841261D01*
X140676859Y-152039893D01*
X140245285Y-152328262D01*
X139878262Y-152695285D01*
X139589893Y-153126859D01*
X139391261Y-153606399D01*
X139290000Y-154115475D01*
X137785511Y-154115475D01*
X137756775Y-153971011D01*
X137652371Y-153718957D01*
X137500799Y-153492114D01*
X137307886Y-153299201D01*
X137081043Y-153147629D01*
X136828989Y-153043225D01*
X136561411Y-152990000D01*
X136288589Y-152990000D01*
X136021011Y-153043225D01*
X135768957Y-153147629D01*
X135542114Y-153299201D01*
X135349201Y-153492114D01*
X135197629Y-153718957D01*
X135093225Y-153971011D01*
X135040000Y-154238589D01*
X95110000Y-154238589D01*
X95110000Y-150638589D01*
X135240000Y-150638589D01*
X135240000Y-150911411D01*
X135293225Y-151178989D01*
X135397629Y-151431043D01*
X135549201Y-151657886D01*
X135742114Y-151850799D01*
X135968957Y-152002371D01*
X136221011Y-152106775D01*
X136488589Y-152160000D01*
X136761411Y-152160000D01*
X137028989Y-152106775D01*
X137281043Y-152002371D01*
X137507886Y-151850799D01*
X137700799Y-151657886D01*
X137852371Y-151431043D01*
X137956775Y-151178989D01*
X138010000Y-150911411D01*
X138010000Y-150638589D01*
X145840000Y-150638589D01*
X145840000Y-150911411D01*
X145893225Y-151178989D01*
X145997629Y-151431043D01*
X146149201Y-151657886D01*
X146342114Y-151850799D01*
X146568957Y-152002371D01*
X146821011Y-152106775D01*
X147088589Y-152160000D01*
X147361411Y-152160000D01*
X147628989Y-152106775D01*
X147881043Y-152002371D01*
X148107886Y-151850799D01*
X148300799Y-151657886D01*
X148452371Y-151431043D01*
X148556775Y-151178989D01*
X148610000Y-150911411D01*
X148610000Y-150638589D01*
X169715000Y-150638589D01*
X169715000Y-150911411D01*
X169768225Y-151178989D01*
X169872629Y-151431043D01*
X170024201Y-151657886D01*
X170217114Y-151850799D01*
X170443957Y-152002371D01*
X170696011Y-152106775D01*
X170963589Y-152160000D01*
X171236411Y-152160000D01*
X171503989Y-152106775D01*
X171756043Y-152002371D01*
X171982886Y-151850799D01*
X172175799Y-151657886D01*
X172327371Y-151431043D01*
X172431775Y-151178989D01*
X172485000Y-150911411D01*
X172485000Y-150638589D01*
X180315000Y-150638589D01*
X180315000Y-150911411D01*
X180368225Y-151178989D01*
X180472629Y-151431043D01*
X180624201Y-151657886D01*
X180817114Y-151850799D01*
X181043957Y-152002371D01*
X181296011Y-152106775D01*
X181563589Y-152160000D01*
X181836411Y-152160000D01*
X182103989Y-152106775D01*
X182356043Y-152002371D01*
X182582886Y-151850799D01*
X182775799Y-151657886D01*
X182927371Y-151431043D01*
X183031775Y-151178989D01*
X183085000Y-150911411D01*
X183085000Y-150638589D01*
X183031775Y-150371011D01*
X182927371Y-150118957D01*
X182775799Y-149892114D01*
X182582886Y-149699201D01*
X182356043Y-149547629D01*
X182103989Y-149443225D01*
X181836411Y-149390000D01*
X181563589Y-149390000D01*
X181296011Y-149443225D01*
X181043957Y-149547629D01*
X180817114Y-149699201D01*
X180624201Y-149892114D01*
X180472629Y-150118957D01*
X180368225Y-150371011D01*
X180315000Y-150638589D01*
X172485000Y-150638589D01*
X172431775Y-150371011D01*
X172327371Y-150118957D01*
X172175799Y-149892114D01*
X171982886Y-149699201D01*
X171756043Y-149547629D01*
X171503989Y-149443225D01*
X171236411Y-149390000D01*
X170963589Y-149390000D01*
X170696011Y-149443225D01*
X170443957Y-149547629D01*
X170217114Y-149699201D01*
X170024201Y-149892114D01*
X169872629Y-150118957D01*
X169768225Y-150371011D01*
X169715000Y-150638589D01*
X148610000Y-150638589D01*
X148556775Y-150371011D01*
X148452371Y-150118957D01*
X148300799Y-149892114D01*
X148107886Y-149699201D01*
X147881043Y-149547629D01*
X147628989Y-149443225D01*
X147361411Y-149390000D01*
X147088589Y-149390000D01*
X146821011Y-149443225D01*
X146568957Y-149547629D01*
X146342114Y-149699201D01*
X146149201Y-149892114D01*
X145997629Y-150118957D01*
X145893225Y-150371011D01*
X145840000Y-150638589D01*
X138010000Y-150638589D01*
X137956775Y-150371011D01*
X137852371Y-150118957D01*
X137700799Y-149892114D01*
X137507886Y-149699201D01*
X137281043Y-149547629D01*
X137028989Y-149443225D01*
X136761411Y-149390000D01*
X136488589Y-149390000D01*
X136221011Y-149443225D01*
X135968957Y-149547629D01*
X135742114Y-149699201D01*
X135549201Y-149892114D01*
X135397629Y-150118957D01*
X135293225Y-150371011D01*
X135240000Y-150638589D01*
X95110000Y-150638589D01*
X95110000Y-147438589D01*
X137140000Y-147438589D01*
X137140000Y-147711411D01*
X137193225Y-147978989D01*
X137297629Y-148231043D01*
X137449201Y-148457886D01*
X137642114Y-148650799D01*
X137868957Y-148802371D01*
X138121011Y-148906775D01*
X138388589Y-148960000D01*
X138661411Y-148960000D01*
X138928989Y-148906775D01*
X139181043Y-148802371D01*
X139407886Y-148650799D01*
X139600799Y-148457886D01*
X139752371Y-148231043D01*
X139856775Y-147978989D01*
X139910000Y-147711411D01*
X139910000Y-147438589D01*
X139856775Y-147171011D01*
X139752371Y-146918957D01*
X139600799Y-146692114D01*
X139407886Y-146499201D01*
X139181043Y-146347629D01*
X138928989Y-146243225D01*
X138905683Y-146238589D01*
X140540000Y-146238589D01*
X140540000Y-146511411D01*
X140593225Y-146778989D01*
X140697629Y-147031043D01*
X140849201Y-147257886D01*
X141042114Y-147450799D01*
X141268957Y-147602371D01*
X141521011Y-147706775D01*
X141788589Y-147760000D01*
X142061411Y-147760000D01*
X142328989Y-147706775D01*
X142581043Y-147602371D01*
X142807886Y-147450799D01*
X142820096Y-147438589D01*
X143940000Y-147438589D01*
X143940000Y-147711411D01*
X143993225Y-147978989D01*
X144097629Y-148231043D01*
X144249201Y-148457886D01*
X144442114Y-148650799D01*
X144668957Y-148802371D01*
X144921011Y-148906775D01*
X145188589Y-148960000D01*
X145461411Y-148960000D01*
X145728989Y-148906775D01*
X145981043Y-148802371D01*
X146207886Y-148650799D01*
X146400799Y-148457886D01*
X146552371Y-148231043D01*
X146656775Y-147978989D01*
X146710000Y-147711411D01*
X146710000Y-147438589D01*
X171615000Y-147438589D01*
X171615000Y-147711411D01*
X171668225Y-147978989D01*
X171772629Y-148231043D01*
X171924201Y-148457886D01*
X172117114Y-148650799D01*
X172343957Y-148802371D01*
X172596011Y-148906775D01*
X172863589Y-148960000D01*
X173136411Y-148960000D01*
X173403989Y-148906775D01*
X173656043Y-148802371D01*
X173882886Y-148650799D01*
X174075799Y-148457886D01*
X174227371Y-148231043D01*
X174331775Y-147978989D01*
X174385000Y-147711411D01*
X174385000Y-147438589D01*
X174331775Y-147171011D01*
X174227371Y-146918957D01*
X174075799Y-146692114D01*
X173882886Y-146499201D01*
X173656043Y-146347629D01*
X173403989Y-146243225D01*
X173380683Y-146238589D01*
X175015000Y-146238589D01*
X175015000Y-146511411D01*
X175068225Y-146778989D01*
X175172629Y-147031043D01*
X175324201Y-147257886D01*
X175517114Y-147450799D01*
X175743957Y-147602371D01*
X175996011Y-147706775D01*
X176263589Y-147760000D01*
X176536411Y-147760000D01*
X176803989Y-147706775D01*
X177056043Y-147602371D01*
X177282886Y-147450799D01*
X177295096Y-147438589D01*
X178415000Y-147438589D01*
X178415000Y-147711411D01*
X178468225Y-147978989D01*
X178572629Y-148231043D01*
X178724201Y-148457886D01*
X178917114Y-148650799D01*
X179143957Y-148802371D01*
X179396011Y-148906775D01*
X179663589Y-148960000D01*
X179936411Y-148960000D01*
X180203989Y-148906775D01*
X180456043Y-148802371D01*
X180682886Y-148650799D01*
X180875799Y-148457886D01*
X181027371Y-148231043D01*
X181131775Y-147978989D01*
X181185000Y-147711411D01*
X181185000Y-147438589D01*
X237615000Y-147438589D01*
X237615000Y-147711411D01*
X237668225Y-147978989D01*
X237772629Y-148231043D01*
X237924201Y-148457886D01*
X238117114Y-148650799D01*
X238343957Y-148802371D01*
X238596011Y-148906775D01*
X238863589Y-148960000D01*
X239136411Y-148960000D01*
X239403989Y-148906775D01*
X239656043Y-148802371D01*
X239882886Y-148650799D01*
X240075799Y-148457886D01*
X240227371Y-148231043D01*
X240331775Y-147978989D01*
X240385000Y-147711411D01*
X240385000Y-147438589D01*
X240331775Y-147171011D01*
X240227371Y-146918957D01*
X240075799Y-146692114D01*
X239882886Y-146499201D01*
X239656043Y-146347629D01*
X239403989Y-146243225D01*
X239380683Y-146238589D01*
X241015000Y-146238589D01*
X241015000Y-146511411D01*
X241068225Y-146778989D01*
X241172629Y-147031043D01*
X241324201Y-147257886D01*
X241517114Y-147450799D01*
X241743957Y-147602371D01*
X241996011Y-147706775D01*
X242263589Y-147760000D01*
X242536411Y-147760000D01*
X242803989Y-147706775D01*
X243056043Y-147602371D01*
X243282886Y-147450799D01*
X243295096Y-147438589D01*
X244415000Y-147438589D01*
X244415000Y-147711411D01*
X244468225Y-147978989D01*
X244572629Y-148231043D01*
X244724201Y-148457886D01*
X244917114Y-148650799D01*
X245143957Y-148802371D01*
X245396011Y-148906775D01*
X245663589Y-148960000D01*
X245936411Y-148960000D01*
X246203989Y-148906775D01*
X246456043Y-148802371D01*
X246682886Y-148650799D01*
X246875799Y-148457886D01*
X247027371Y-148231043D01*
X247131775Y-147978989D01*
X247185000Y-147711411D01*
X247185000Y-147438589D01*
X272090000Y-147438589D01*
X272090000Y-147711411D01*
X272143225Y-147978989D01*
X272247629Y-148231043D01*
X272399201Y-148457886D01*
X272592114Y-148650799D01*
X272818957Y-148802371D01*
X273071011Y-148906775D01*
X273338589Y-148960000D01*
X273611411Y-148960000D01*
X273878989Y-148906775D01*
X274131043Y-148802371D01*
X274357886Y-148650799D01*
X274550799Y-148457886D01*
X274702371Y-148231043D01*
X274806775Y-147978989D01*
X274860000Y-147711411D01*
X274860000Y-147438589D01*
X274806775Y-147171011D01*
X274702371Y-146918957D01*
X274550799Y-146692114D01*
X274357886Y-146499201D01*
X274131043Y-146347629D01*
X273878989Y-146243225D01*
X273855683Y-146238589D01*
X275490000Y-146238589D01*
X275490000Y-146511411D01*
X275543225Y-146778989D01*
X275647629Y-147031043D01*
X275799201Y-147257886D01*
X275992114Y-147450799D01*
X276218957Y-147602371D01*
X276471011Y-147706775D01*
X276738589Y-147760000D01*
X277011411Y-147760000D01*
X277278989Y-147706775D01*
X277531043Y-147602371D01*
X277757886Y-147450799D01*
X277770096Y-147438589D01*
X278890000Y-147438589D01*
X278890000Y-147711411D01*
X278943225Y-147978989D01*
X279047629Y-148231043D01*
X279199201Y-148457886D01*
X279392114Y-148650799D01*
X279618957Y-148802371D01*
X279871011Y-148906775D01*
X280138589Y-148960000D01*
X280411411Y-148960000D01*
X280678989Y-148906775D01*
X280931043Y-148802371D01*
X281157886Y-148650799D01*
X281350799Y-148457886D01*
X281502371Y-148231043D01*
X281606775Y-147978989D01*
X281660000Y-147711411D01*
X281660000Y-147438589D01*
X281606775Y-147171011D01*
X281502371Y-146918957D01*
X281350799Y-146692114D01*
X281157886Y-146499201D01*
X280931043Y-146347629D01*
X280678989Y-146243225D01*
X280411411Y-146190000D01*
X280138589Y-146190000D01*
X279871011Y-146243225D01*
X279618957Y-146347629D01*
X279392114Y-146499201D01*
X279199201Y-146692114D01*
X279047629Y-146918957D01*
X278943225Y-147171011D01*
X278890000Y-147438589D01*
X277770096Y-147438589D01*
X277950799Y-147257886D01*
X278102371Y-147031043D01*
X278206775Y-146778989D01*
X278260000Y-146511411D01*
X278260000Y-146238589D01*
X278206775Y-145971011D01*
X278102371Y-145718957D01*
X277950799Y-145492114D01*
X277757886Y-145299201D01*
X277531043Y-145147629D01*
X277278989Y-145043225D01*
X277011411Y-144990000D01*
X276738589Y-144990000D01*
X276471011Y-145043225D01*
X276218957Y-145147629D01*
X275992114Y-145299201D01*
X275799201Y-145492114D01*
X275647629Y-145718957D01*
X275543225Y-145971011D01*
X275490000Y-146238589D01*
X273855683Y-146238589D01*
X273611411Y-146190000D01*
X273338589Y-146190000D01*
X273071011Y-146243225D01*
X272818957Y-146347629D01*
X272592114Y-146499201D01*
X272399201Y-146692114D01*
X272247629Y-146918957D01*
X272143225Y-147171011D01*
X272090000Y-147438589D01*
X247185000Y-147438589D01*
X247131775Y-147171011D01*
X247027371Y-146918957D01*
X246875799Y-146692114D01*
X246682886Y-146499201D01*
X246456043Y-146347629D01*
X246203989Y-146243225D01*
X245936411Y-146190000D01*
X245663589Y-146190000D01*
X245396011Y-146243225D01*
X245143957Y-146347629D01*
X244917114Y-146499201D01*
X244724201Y-146692114D01*
X244572629Y-146918957D01*
X244468225Y-147171011D01*
X244415000Y-147438589D01*
X243295096Y-147438589D01*
X243475799Y-147257886D01*
X243627371Y-147031043D01*
X243731775Y-146778989D01*
X243785000Y-146511411D01*
X243785000Y-146238589D01*
X243731775Y-145971011D01*
X243627371Y-145718957D01*
X243475799Y-145492114D01*
X243282886Y-145299201D01*
X243056043Y-145147629D01*
X242803989Y-145043225D01*
X242536411Y-144990000D01*
X242263589Y-144990000D01*
X241996011Y-145043225D01*
X241743957Y-145147629D01*
X241517114Y-145299201D01*
X241324201Y-145492114D01*
X241172629Y-145718957D01*
X241068225Y-145971011D01*
X241015000Y-146238589D01*
X239380683Y-146238589D01*
X239136411Y-146190000D01*
X238863589Y-146190000D01*
X238596011Y-146243225D01*
X238343957Y-146347629D01*
X238117114Y-146499201D01*
X237924201Y-146692114D01*
X237772629Y-146918957D01*
X237668225Y-147171011D01*
X237615000Y-147438589D01*
X181185000Y-147438589D01*
X181131775Y-147171011D01*
X181027371Y-146918957D01*
X180875799Y-146692114D01*
X180682886Y-146499201D01*
X180456043Y-146347629D01*
X180203989Y-146243225D01*
X179936411Y-146190000D01*
X179663589Y-146190000D01*
X179396011Y-146243225D01*
X179143957Y-146347629D01*
X178917114Y-146499201D01*
X178724201Y-146692114D01*
X178572629Y-146918957D01*
X178468225Y-147171011D01*
X178415000Y-147438589D01*
X177295096Y-147438589D01*
X177475799Y-147257886D01*
X177627371Y-147031043D01*
X177731775Y-146778989D01*
X177785000Y-146511411D01*
X177785000Y-146238589D01*
X177731775Y-145971011D01*
X177627371Y-145718957D01*
X177475799Y-145492114D01*
X177282886Y-145299201D01*
X177056043Y-145147629D01*
X176803989Y-145043225D01*
X176536411Y-144990000D01*
X176263589Y-144990000D01*
X175996011Y-145043225D01*
X175743957Y-145147629D01*
X175517114Y-145299201D01*
X175324201Y-145492114D01*
X175172629Y-145718957D01*
X175068225Y-145971011D01*
X175015000Y-146238589D01*
X173380683Y-146238589D01*
X173136411Y-146190000D01*
X172863589Y-146190000D01*
X172596011Y-146243225D01*
X172343957Y-146347629D01*
X172117114Y-146499201D01*
X171924201Y-146692114D01*
X171772629Y-146918957D01*
X171668225Y-147171011D01*
X171615000Y-147438589D01*
X146710000Y-147438589D01*
X146656775Y-147171011D01*
X146552371Y-146918957D01*
X146400799Y-146692114D01*
X146207886Y-146499201D01*
X145981043Y-146347629D01*
X145728989Y-146243225D01*
X145461411Y-146190000D01*
X145188589Y-146190000D01*
X144921011Y-146243225D01*
X144668957Y-146347629D01*
X144442114Y-146499201D01*
X144249201Y-146692114D01*
X144097629Y-146918957D01*
X143993225Y-147171011D01*
X143940000Y-147438589D01*
X142820096Y-147438589D01*
X143000799Y-147257886D01*
X143152371Y-147031043D01*
X143256775Y-146778989D01*
X143310000Y-146511411D01*
X143310000Y-146238589D01*
X143256775Y-145971011D01*
X143152371Y-145718957D01*
X143000799Y-145492114D01*
X142807886Y-145299201D01*
X142581043Y-145147629D01*
X142328989Y-145043225D01*
X142061411Y-144990000D01*
X141788589Y-144990000D01*
X141521011Y-145043225D01*
X141268957Y-145147629D01*
X141042114Y-145299201D01*
X140849201Y-145492114D01*
X140697629Y-145718957D01*
X140593225Y-145971011D01*
X140540000Y-146238589D01*
X138905683Y-146238589D01*
X138661411Y-146190000D01*
X138388589Y-146190000D01*
X138121011Y-146243225D01*
X137868957Y-146347629D01*
X137642114Y-146499201D01*
X137449201Y-146692114D01*
X137297629Y-146918957D01*
X137193225Y-147171011D01*
X137140000Y-147438589D01*
X95110000Y-147438589D01*
X95110000Y-124432279D01*
X95129437Y-124234042D01*
X95215000Y-124234042D01*
X95215000Y-124565958D01*
X95279754Y-124891496D01*
X95406772Y-125198147D01*
X95591175Y-125474125D01*
X95825875Y-125708825D01*
X96101853Y-125893228D01*
X96408504Y-126020246D01*
X96734042Y-126085000D01*
X97065958Y-126085000D01*
X97391496Y-126020246D01*
X97698147Y-125893228D01*
X97974125Y-125708825D01*
X98057950Y-125625000D01*
X112511928Y-125625000D01*
X112511928Y-127075000D01*
X112528992Y-127248254D01*
X112579528Y-127414850D01*
X112661595Y-127568386D01*
X112772038Y-127702962D01*
X112906614Y-127813405D01*
X113060150Y-127895472D01*
X113226746Y-127946008D01*
X113400000Y-127963072D01*
X114600000Y-127963072D01*
X114773254Y-127946008D01*
X114939850Y-127895472D01*
X115093386Y-127813405D01*
X115227962Y-127702962D01*
X115338405Y-127568386D01*
X115392777Y-127466663D01*
X115444866Y-127530134D01*
X115670987Y-127715706D01*
X115928967Y-127853599D01*
X116208890Y-127938513D01*
X116500000Y-127967185D01*
X116791111Y-127938513D01*
X117071034Y-127853599D01*
X117329014Y-127715706D01*
X117555134Y-127530134D01*
X117740706Y-127304014D01*
X117750000Y-127286626D01*
X117759294Y-127304014D01*
X117944866Y-127530134D01*
X118170987Y-127715706D01*
X118428967Y-127853599D01*
X118708890Y-127938513D01*
X119000000Y-127967185D01*
X119291111Y-127938513D01*
X119571034Y-127853599D01*
X119829014Y-127715706D01*
X120055134Y-127530134D01*
X120240706Y-127304014D01*
X120250000Y-127286626D01*
X120259294Y-127304014D01*
X120444866Y-127530134D01*
X120670987Y-127715706D01*
X120928967Y-127853599D01*
X121208890Y-127938513D01*
X121500000Y-127967185D01*
X121791111Y-127938513D01*
X122071034Y-127853599D01*
X122329014Y-127715706D01*
X122555134Y-127530134D01*
X122740706Y-127304014D01*
X122750000Y-127286626D01*
X122759294Y-127304014D01*
X122944866Y-127530134D01*
X123170987Y-127715706D01*
X123428967Y-127853599D01*
X123708890Y-127938513D01*
X124000000Y-127967185D01*
X124291111Y-127938513D01*
X124571034Y-127853599D01*
X124829014Y-127715706D01*
X125055134Y-127530134D01*
X125240706Y-127304014D01*
X125250000Y-127286626D01*
X125259294Y-127304014D01*
X125444866Y-127530134D01*
X125670987Y-127715706D01*
X125928967Y-127853599D01*
X126208890Y-127938513D01*
X126500000Y-127967185D01*
X126791111Y-127938513D01*
X127071034Y-127853599D01*
X127329014Y-127715706D01*
X127555134Y-127530134D01*
X127740706Y-127304014D01*
X127750000Y-127286626D01*
X127759294Y-127304014D01*
X127944866Y-127530134D01*
X128170987Y-127715706D01*
X128428967Y-127853599D01*
X128708890Y-127938513D01*
X129000000Y-127967185D01*
X129291111Y-127938513D01*
X129571034Y-127853599D01*
X129829014Y-127715706D01*
X130055134Y-127530134D01*
X130240706Y-127304014D01*
X130250000Y-127286626D01*
X130259294Y-127304014D01*
X130444866Y-127530134D01*
X130670987Y-127715706D01*
X130928967Y-127853599D01*
X131208890Y-127938513D01*
X131500000Y-127967185D01*
X131791111Y-127938513D01*
X132071034Y-127853599D01*
X132329014Y-127715706D01*
X132555134Y-127530134D01*
X132740706Y-127304014D01*
X132750000Y-127286626D01*
X132759294Y-127304014D01*
X132944866Y-127530134D01*
X133170987Y-127715706D01*
X133428967Y-127853599D01*
X133708890Y-127938513D01*
X134000000Y-127967185D01*
X134291111Y-127938513D01*
X134571034Y-127853599D01*
X134829014Y-127715706D01*
X135055134Y-127530134D01*
X135240706Y-127304014D01*
X135250000Y-127286626D01*
X135259294Y-127304014D01*
X135444866Y-127530134D01*
X135670987Y-127715706D01*
X135928967Y-127853599D01*
X136208890Y-127938513D01*
X136500000Y-127967185D01*
X136791111Y-127938513D01*
X137071034Y-127853599D01*
X137329014Y-127715706D01*
X137555134Y-127530134D01*
X137740706Y-127304014D01*
X137878599Y-127046033D01*
X137963513Y-126766110D01*
X137985000Y-126547949D01*
X137985000Y-126152050D01*
X137963513Y-125933889D01*
X137878599Y-125653966D01*
X137863117Y-125625000D01*
X168161928Y-125625000D01*
X168161928Y-127075000D01*
X168178992Y-127248254D01*
X168229528Y-127414850D01*
X168311595Y-127568386D01*
X168422038Y-127702962D01*
X168556614Y-127813405D01*
X168710150Y-127895472D01*
X168876746Y-127946008D01*
X169050000Y-127963072D01*
X170250000Y-127963072D01*
X170423254Y-127946008D01*
X170589850Y-127895472D01*
X170743386Y-127813405D01*
X170877962Y-127702962D01*
X170988405Y-127568386D01*
X171042777Y-127466663D01*
X171094866Y-127530134D01*
X171320987Y-127715706D01*
X171578967Y-127853599D01*
X171858890Y-127938513D01*
X172150000Y-127967185D01*
X172441111Y-127938513D01*
X172721034Y-127853599D01*
X172979014Y-127715706D01*
X173205134Y-127530134D01*
X173390706Y-127304014D01*
X173400000Y-127286626D01*
X173409294Y-127304014D01*
X173594866Y-127530134D01*
X173820987Y-127715706D01*
X174078967Y-127853599D01*
X174358890Y-127938513D01*
X174650000Y-127967185D01*
X174941111Y-127938513D01*
X175221034Y-127853599D01*
X175479014Y-127715706D01*
X175705134Y-127530134D01*
X175890706Y-127304014D01*
X175900000Y-127286626D01*
X175909294Y-127304014D01*
X176094866Y-127530134D01*
X176320987Y-127715706D01*
X176578967Y-127853599D01*
X176858890Y-127938513D01*
X177150000Y-127967185D01*
X177441111Y-127938513D01*
X177721034Y-127853599D01*
X177979014Y-127715706D01*
X178205134Y-127530134D01*
X178390706Y-127304014D01*
X178400000Y-127286626D01*
X178409294Y-127304014D01*
X178594866Y-127530134D01*
X178820987Y-127715706D01*
X179078967Y-127853599D01*
X179358890Y-127938513D01*
X179650000Y-127967185D01*
X179941111Y-127938513D01*
X180221034Y-127853599D01*
X180479014Y-127715706D01*
X180705134Y-127530134D01*
X180890706Y-127304014D01*
X180900000Y-127286626D01*
X180909294Y-127304014D01*
X181094866Y-127530134D01*
X181320987Y-127715706D01*
X181578967Y-127853599D01*
X181858890Y-127938513D01*
X182150000Y-127967185D01*
X182441111Y-127938513D01*
X182721034Y-127853599D01*
X182979014Y-127715706D01*
X183205134Y-127530134D01*
X183390706Y-127304014D01*
X183400000Y-127286626D01*
X183409294Y-127304014D01*
X183594866Y-127530134D01*
X183820987Y-127715706D01*
X184078967Y-127853599D01*
X184358890Y-127938513D01*
X184650000Y-127967185D01*
X184941111Y-127938513D01*
X185221034Y-127853599D01*
X185479014Y-127715706D01*
X185705134Y-127530134D01*
X185890706Y-127304014D01*
X185900000Y-127286626D01*
X185909294Y-127304014D01*
X186094866Y-127530134D01*
X186320987Y-127715706D01*
X186578967Y-127853599D01*
X186858890Y-127938513D01*
X187150000Y-127967185D01*
X187441111Y-127938513D01*
X187721034Y-127853599D01*
X187979014Y-127715706D01*
X188205134Y-127530134D01*
X188390706Y-127304014D01*
X188400000Y-127286626D01*
X188409294Y-127304014D01*
X188594866Y-127530134D01*
X188820987Y-127715706D01*
X189078967Y-127853599D01*
X189358890Y-127938513D01*
X189650000Y-127967185D01*
X189941111Y-127938513D01*
X190221034Y-127853599D01*
X190479014Y-127715706D01*
X190705134Y-127530134D01*
X190890706Y-127304014D01*
X190900000Y-127286626D01*
X190909294Y-127304014D01*
X191094866Y-127530134D01*
X191320987Y-127715706D01*
X191578967Y-127853599D01*
X191858890Y-127938513D01*
X192150000Y-127967185D01*
X192441111Y-127938513D01*
X192721034Y-127853599D01*
X192979014Y-127715706D01*
X193205134Y-127530134D01*
X193390706Y-127304014D01*
X193528599Y-127046033D01*
X193613513Y-126766110D01*
X193635000Y-126547949D01*
X193635000Y-126152050D01*
X193613513Y-125933889D01*
X193528599Y-125653966D01*
X193513117Y-125625000D01*
X223711928Y-125625000D01*
X223711928Y-127075000D01*
X223728992Y-127248254D01*
X223779528Y-127414850D01*
X223861595Y-127568386D01*
X223972038Y-127702962D01*
X224106614Y-127813405D01*
X224260150Y-127895472D01*
X224426746Y-127946008D01*
X224600000Y-127963072D01*
X225800000Y-127963072D01*
X225973254Y-127946008D01*
X226139850Y-127895472D01*
X226293386Y-127813405D01*
X226427962Y-127702962D01*
X226538405Y-127568386D01*
X226592777Y-127466663D01*
X226644866Y-127530134D01*
X226870987Y-127715706D01*
X227128967Y-127853599D01*
X227408890Y-127938513D01*
X227700000Y-127967185D01*
X227991111Y-127938513D01*
X228271034Y-127853599D01*
X228529014Y-127715706D01*
X228755134Y-127530134D01*
X228940706Y-127304014D01*
X228950000Y-127286626D01*
X228959294Y-127304014D01*
X229144866Y-127530134D01*
X229370987Y-127715706D01*
X229628967Y-127853599D01*
X229908890Y-127938513D01*
X230200000Y-127967185D01*
X230491111Y-127938513D01*
X230771034Y-127853599D01*
X231029014Y-127715706D01*
X231255134Y-127530134D01*
X231440706Y-127304014D01*
X231450000Y-127286626D01*
X231459294Y-127304014D01*
X231644866Y-127530134D01*
X231870987Y-127715706D01*
X232128967Y-127853599D01*
X232408890Y-127938513D01*
X232700000Y-127967185D01*
X232991111Y-127938513D01*
X233271034Y-127853599D01*
X233529014Y-127715706D01*
X233755134Y-127530134D01*
X233940706Y-127304014D01*
X233950000Y-127286626D01*
X233959294Y-127304014D01*
X234144866Y-127530134D01*
X234370987Y-127715706D01*
X234628967Y-127853599D01*
X234908890Y-127938513D01*
X235200000Y-127967185D01*
X235491111Y-127938513D01*
X235771034Y-127853599D01*
X236029014Y-127715706D01*
X236255134Y-127530134D01*
X236440706Y-127304014D01*
X236450000Y-127286626D01*
X236459294Y-127304014D01*
X236644866Y-127530134D01*
X236870987Y-127715706D01*
X237128967Y-127853599D01*
X237408890Y-127938513D01*
X237700000Y-127967185D01*
X237991111Y-127938513D01*
X238271034Y-127853599D01*
X238529014Y-127715706D01*
X238755134Y-127530134D01*
X238940706Y-127304014D01*
X238950000Y-127286626D01*
X238959294Y-127304014D01*
X239144866Y-127530134D01*
X239370987Y-127715706D01*
X239628967Y-127853599D01*
X239908890Y-127938513D01*
X240200000Y-127967185D01*
X240491111Y-127938513D01*
X240771034Y-127853599D01*
X241029014Y-127715706D01*
X241255134Y-127530134D01*
X241440706Y-127304014D01*
X241450000Y-127286626D01*
X241459294Y-127304014D01*
X241644866Y-127530134D01*
X241870987Y-127715706D01*
X242128967Y-127853599D01*
X242408890Y-127938513D01*
X242700000Y-127967185D01*
X242991111Y-127938513D01*
X243271034Y-127853599D01*
X243529014Y-127715706D01*
X243755134Y-127530134D01*
X243940706Y-127304014D01*
X243950000Y-127286626D01*
X243959294Y-127304014D01*
X244144866Y-127530134D01*
X244370987Y-127715706D01*
X244628967Y-127853599D01*
X244908890Y-127938513D01*
X245200000Y-127967185D01*
X245491111Y-127938513D01*
X245771034Y-127853599D01*
X246029014Y-127715706D01*
X246255134Y-127530134D01*
X246440706Y-127304014D01*
X246450000Y-127286626D01*
X246459294Y-127304014D01*
X246644866Y-127530134D01*
X246870987Y-127715706D01*
X247128967Y-127853599D01*
X247408890Y-127938513D01*
X247700000Y-127967185D01*
X247991111Y-127938513D01*
X248271034Y-127853599D01*
X248529014Y-127715706D01*
X248755134Y-127530134D01*
X248940706Y-127304014D01*
X249078599Y-127046033D01*
X249163513Y-126766110D01*
X249185000Y-126547949D01*
X249185000Y-126152050D01*
X249163513Y-125933889D01*
X249078599Y-125653966D01*
X249063117Y-125625000D01*
X279111928Y-125625000D01*
X279111928Y-127075000D01*
X279128992Y-127248254D01*
X279179528Y-127414850D01*
X279261595Y-127568386D01*
X279372038Y-127702962D01*
X279506614Y-127813405D01*
X279660150Y-127895472D01*
X279826746Y-127946008D01*
X280000000Y-127963072D01*
X281200000Y-127963072D01*
X281373254Y-127946008D01*
X281539850Y-127895472D01*
X281693386Y-127813405D01*
X281827962Y-127702962D01*
X281938405Y-127568386D01*
X281992777Y-127466663D01*
X282044866Y-127530134D01*
X282270987Y-127715706D01*
X282528967Y-127853599D01*
X282808890Y-127938513D01*
X283100000Y-127967185D01*
X283391111Y-127938513D01*
X283671034Y-127853599D01*
X283929014Y-127715706D01*
X284155134Y-127530134D01*
X284340706Y-127304014D01*
X284350000Y-127286626D01*
X284359294Y-127304014D01*
X284544866Y-127530134D01*
X284770987Y-127715706D01*
X285028967Y-127853599D01*
X285308890Y-127938513D01*
X285600000Y-127967185D01*
X285891111Y-127938513D01*
X286171034Y-127853599D01*
X286429014Y-127715706D01*
X286655134Y-127530134D01*
X286840706Y-127304014D01*
X286850000Y-127286626D01*
X286859294Y-127304014D01*
X287044866Y-127530134D01*
X287270987Y-127715706D01*
X287528967Y-127853599D01*
X287808890Y-127938513D01*
X288100000Y-127967185D01*
X288391111Y-127938513D01*
X288671034Y-127853599D01*
X288929014Y-127715706D01*
X289155134Y-127530134D01*
X289340706Y-127304014D01*
X289350000Y-127286626D01*
X289359294Y-127304014D01*
X289544866Y-127530134D01*
X289770987Y-127715706D01*
X290028967Y-127853599D01*
X290308890Y-127938513D01*
X290600000Y-127967185D01*
X290891111Y-127938513D01*
X291171034Y-127853599D01*
X291429014Y-127715706D01*
X291655134Y-127530134D01*
X291840706Y-127304014D01*
X291850000Y-127286626D01*
X291859294Y-127304014D01*
X292044866Y-127530134D01*
X292270987Y-127715706D01*
X292528967Y-127853599D01*
X292808890Y-127938513D01*
X293100000Y-127967185D01*
X293391111Y-127938513D01*
X293671034Y-127853599D01*
X293929014Y-127715706D01*
X294155134Y-127530134D01*
X294340706Y-127304014D01*
X294350000Y-127286626D01*
X294359294Y-127304014D01*
X294544866Y-127530134D01*
X294770987Y-127715706D01*
X295028967Y-127853599D01*
X295308890Y-127938513D01*
X295600000Y-127967185D01*
X295891111Y-127938513D01*
X296171034Y-127853599D01*
X296429014Y-127715706D01*
X296655134Y-127530134D01*
X296840706Y-127304014D01*
X296850000Y-127286626D01*
X296859294Y-127304014D01*
X297044866Y-127530134D01*
X297270987Y-127715706D01*
X297528967Y-127853599D01*
X297808890Y-127938513D01*
X298100000Y-127967185D01*
X298391111Y-127938513D01*
X298671034Y-127853599D01*
X298929014Y-127715706D01*
X299155134Y-127530134D01*
X299340706Y-127304014D01*
X299350000Y-127286626D01*
X299359294Y-127304014D01*
X299544866Y-127530134D01*
X299770987Y-127715706D01*
X300028967Y-127853599D01*
X300308890Y-127938513D01*
X300600000Y-127967185D01*
X300891111Y-127938513D01*
X301171034Y-127853599D01*
X301429014Y-127715706D01*
X301655134Y-127530134D01*
X301840706Y-127304014D01*
X301850000Y-127286626D01*
X301859294Y-127304014D01*
X302044866Y-127530134D01*
X302270987Y-127715706D01*
X302528967Y-127853599D01*
X302808890Y-127938513D01*
X303100000Y-127967185D01*
X303391111Y-127938513D01*
X303671034Y-127853599D01*
X303929014Y-127715706D01*
X304155134Y-127530134D01*
X304340706Y-127304014D01*
X304478599Y-127046033D01*
X304563513Y-126766110D01*
X304585000Y-126547949D01*
X304585000Y-126152050D01*
X304563513Y-125933889D01*
X304478599Y-125653966D01*
X304340706Y-125395986D01*
X304155134Y-125169866D01*
X303929013Y-124984294D01*
X303671033Y-124846401D01*
X303391110Y-124761487D01*
X303100000Y-124732815D01*
X302808889Y-124761487D01*
X302528966Y-124846401D01*
X302270986Y-124984294D01*
X302044866Y-125169866D01*
X301859294Y-125395987D01*
X301850000Y-125413374D01*
X301840706Y-125395986D01*
X301655134Y-125169866D01*
X301429013Y-124984294D01*
X301171033Y-124846401D01*
X300891110Y-124761487D01*
X300600000Y-124732815D01*
X300308889Y-124761487D01*
X300028966Y-124846401D01*
X299770986Y-124984294D01*
X299544866Y-125169866D01*
X299359294Y-125395987D01*
X299350000Y-125413374D01*
X299340706Y-125395986D01*
X299155134Y-125169866D01*
X298929013Y-124984294D01*
X298671033Y-124846401D01*
X298391110Y-124761487D01*
X298100000Y-124732815D01*
X297808889Y-124761487D01*
X297528966Y-124846401D01*
X297270986Y-124984294D01*
X297044866Y-125169866D01*
X296859294Y-125395987D01*
X296850000Y-125413374D01*
X296840706Y-125395986D01*
X296655134Y-125169866D01*
X296429013Y-124984294D01*
X296171033Y-124846401D01*
X295891110Y-124761487D01*
X295600000Y-124732815D01*
X295308889Y-124761487D01*
X295028966Y-124846401D01*
X294770986Y-124984294D01*
X294544866Y-125169866D01*
X294359294Y-125395987D01*
X294350000Y-125413374D01*
X294340706Y-125395986D01*
X294155134Y-125169866D01*
X293929013Y-124984294D01*
X293671033Y-124846401D01*
X293391110Y-124761487D01*
X293100000Y-124732815D01*
X292808889Y-124761487D01*
X292528966Y-124846401D01*
X292270986Y-124984294D01*
X292044866Y-125169866D01*
X291859294Y-125395987D01*
X291850000Y-125413374D01*
X291840706Y-125395986D01*
X291655134Y-125169866D01*
X291429013Y-124984294D01*
X291171033Y-124846401D01*
X290891110Y-124761487D01*
X290600000Y-124732815D01*
X290308889Y-124761487D01*
X290028966Y-124846401D01*
X289770986Y-124984294D01*
X289544866Y-125169866D01*
X289359294Y-125395987D01*
X289350000Y-125413374D01*
X289340706Y-125395986D01*
X289155134Y-125169866D01*
X288929013Y-124984294D01*
X288671033Y-124846401D01*
X288391110Y-124761487D01*
X288100000Y-124732815D01*
X287808889Y-124761487D01*
X287528966Y-124846401D01*
X287270986Y-124984294D01*
X287044866Y-125169866D01*
X286859294Y-125395987D01*
X286850000Y-125413374D01*
X286840706Y-125395986D01*
X286655134Y-125169866D01*
X286429013Y-124984294D01*
X286171033Y-124846401D01*
X285891110Y-124761487D01*
X285600000Y-124732815D01*
X285308889Y-124761487D01*
X285028966Y-124846401D01*
X284770986Y-124984294D01*
X284544866Y-125169866D01*
X284359294Y-125395987D01*
X284350000Y-125413374D01*
X284340706Y-125395986D01*
X284155134Y-125169866D01*
X283929013Y-124984294D01*
X283671033Y-124846401D01*
X283391110Y-124761487D01*
X283100000Y-124732815D01*
X282808889Y-124761487D01*
X282528966Y-124846401D01*
X282270986Y-124984294D01*
X282044866Y-125169866D01*
X281992777Y-125233337D01*
X281938405Y-125131614D01*
X281827962Y-124997038D01*
X281693386Y-124886595D01*
X281539850Y-124804528D01*
X281373254Y-124753992D01*
X281200000Y-124736928D01*
X280000000Y-124736928D01*
X279826746Y-124753992D01*
X279660150Y-124804528D01*
X279506614Y-124886595D01*
X279372038Y-124997038D01*
X279261595Y-125131614D01*
X279179528Y-125285150D01*
X279128992Y-125451746D01*
X279111928Y-125625000D01*
X249063117Y-125625000D01*
X248940706Y-125395986D01*
X248755134Y-125169866D01*
X248529013Y-124984294D01*
X248271033Y-124846401D01*
X247991110Y-124761487D01*
X247700000Y-124732815D01*
X247408889Y-124761487D01*
X247128966Y-124846401D01*
X246870986Y-124984294D01*
X246644866Y-125169866D01*
X246459294Y-125395987D01*
X246450000Y-125413374D01*
X246440706Y-125395986D01*
X246255134Y-125169866D01*
X246029013Y-124984294D01*
X245771033Y-124846401D01*
X245491110Y-124761487D01*
X245200000Y-124732815D01*
X244908889Y-124761487D01*
X244628966Y-124846401D01*
X244370986Y-124984294D01*
X244144866Y-125169866D01*
X243959294Y-125395987D01*
X243950000Y-125413374D01*
X243940706Y-125395986D01*
X243755134Y-125169866D01*
X243529013Y-124984294D01*
X243271033Y-124846401D01*
X242991110Y-124761487D01*
X242700000Y-124732815D01*
X242408889Y-124761487D01*
X242128966Y-124846401D01*
X241870986Y-124984294D01*
X241644866Y-125169866D01*
X241459294Y-125395987D01*
X241450000Y-125413374D01*
X241440706Y-125395986D01*
X241255134Y-125169866D01*
X241029013Y-124984294D01*
X240771033Y-124846401D01*
X240491110Y-124761487D01*
X240200000Y-124732815D01*
X239908889Y-124761487D01*
X239628966Y-124846401D01*
X239370986Y-124984294D01*
X239144866Y-125169866D01*
X238959294Y-125395987D01*
X238950000Y-125413374D01*
X238940706Y-125395986D01*
X238755134Y-125169866D01*
X238529013Y-124984294D01*
X238271033Y-124846401D01*
X237991110Y-124761487D01*
X237700000Y-124732815D01*
X237408889Y-124761487D01*
X237128966Y-124846401D01*
X236870986Y-124984294D01*
X236644866Y-125169866D01*
X236459294Y-125395987D01*
X236450000Y-125413374D01*
X236440706Y-125395986D01*
X236255134Y-125169866D01*
X236029013Y-124984294D01*
X235771033Y-124846401D01*
X235491110Y-124761487D01*
X235200000Y-124732815D01*
X234908889Y-124761487D01*
X234628966Y-124846401D01*
X234370986Y-124984294D01*
X234144866Y-125169866D01*
X233959294Y-125395987D01*
X233950000Y-125413374D01*
X233940706Y-125395986D01*
X233755134Y-125169866D01*
X233529013Y-124984294D01*
X233271033Y-124846401D01*
X232991110Y-124761487D01*
X232700000Y-124732815D01*
X232408889Y-124761487D01*
X232128966Y-124846401D01*
X231870986Y-124984294D01*
X231644866Y-125169866D01*
X231459294Y-125395987D01*
X231450000Y-125413374D01*
X231440706Y-125395986D01*
X231255134Y-125169866D01*
X231029013Y-124984294D01*
X230771033Y-124846401D01*
X230491110Y-124761487D01*
X230200000Y-124732815D01*
X229908889Y-124761487D01*
X229628966Y-124846401D01*
X229370986Y-124984294D01*
X229144866Y-125169866D01*
X228959294Y-125395987D01*
X228950000Y-125413374D01*
X228940706Y-125395986D01*
X228755134Y-125169866D01*
X228529013Y-124984294D01*
X228271033Y-124846401D01*
X227991110Y-124761487D01*
X227700000Y-124732815D01*
X227408889Y-124761487D01*
X227128966Y-124846401D01*
X226870986Y-124984294D01*
X226644866Y-125169866D01*
X226592777Y-125233337D01*
X226538405Y-125131614D01*
X226427962Y-124997038D01*
X226293386Y-124886595D01*
X226139850Y-124804528D01*
X225973254Y-124753992D01*
X225800000Y-124736928D01*
X224600000Y-124736928D01*
X224426746Y-124753992D01*
X224260150Y-124804528D01*
X224106614Y-124886595D01*
X223972038Y-124997038D01*
X223861595Y-125131614D01*
X223779528Y-125285150D01*
X223728992Y-125451746D01*
X223711928Y-125625000D01*
X193513117Y-125625000D01*
X193390706Y-125395986D01*
X193205134Y-125169866D01*
X192979013Y-124984294D01*
X192721033Y-124846401D01*
X192441110Y-124761487D01*
X192150000Y-124732815D01*
X191858889Y-124761487D01*
X191578966Y-124846401D01*
X191320986Y-124984294D01*
X191094866Y-125169866D01*
X190909294Y-125395987D01*
X190900000Y-125413374D01*
X190890706Y-125395986D01*
X190705134Y-125169866D01*
X190479013Y-124984294D01*
X190221033Y-124846401D01*
X189941110Y-124761487D01*
X189650000Y-124732815D01*
X189358889Y-124761487D01*
X189078966Y-124846401D01*
X188820986Y-124984294D01*
X188594866Y-125169866D01*
X188409294Y-125395987D01*
X188400000Y-125413374D01*
X188390706Y-125395986D01*
X188205134Y-125169866D01*
X187979013Y-124984294D01*
X187721033Y-124846401D01*
X187441110Y-124761487D01*
X187150000Y-124732815D01*
X186858889Y-124761487D01*
X186578966Y-124846401D01*
X186320986Y-124984294D01*
X186094866Y-125169866D01*
X185909294Y-125395987D01*
X185900000Y-125413374D01*
X185890706Y-125395986D01*
X185705134Y-125169866D01*
X185479013Y-124984294D01*
X185221033Y-124846401D01*
X184941110Y-124761487D01*
X184650000Y-124732815D01*
X184358889Y-124761487D01*
X184078966Y-124846401D01*
X183820986Y-124984294D01*
X183594866Y-125169866D01*
X183409294Y-125395987D01*
X183400000Y-125413374D01*
X183390706Y-125395986D01*
X183205134Y-125169866D01*
X182979013Y-124984294D01*
X182721033Y-124846401D01*
X182441110Y-124761487D01*
X182150000Y-124732815D01*
X181858889Y-124761487D01*
X181578966Y-124846401D01*
X181320986Y-124984294D01*
X181094866Y-125169866D01*
X180909294Y-125395987D01*
X180900000Y-125413374D01*
X180890706Y-125395986D01*
X180705134Y-125169866D01*
X180479013Y-124984294D01*
X180221033Y-124846401D01*
X179941110Y-124761487D01*
X179650000Y-124732815D01*
X179358889Y-124761487D01*
X179078966Y-124846401D01*
X178820986Y-124984294D01*
X178594866Y-125169866D01*
X178409294Y-125395987D01*
X178400000Y-125413374D01*
X178390706Y-125395986D01*
X178205134Y-125169866D01*
X177979013Y-124984294D01*
X177721033Y-124846401D01*
X177441110Y-124761487D01*
X177150000Y-124732815D01*
X176858889Y-124761487D01*
X176578966Y-124846401D01*
X176320986Y-124984294D01*
X176094866Y-125169866D01*
X175909294Y-125395987D01*
X175900000Y-125413374D01*
X175890706Y-125395986D01*
X175705134Y-125169866D01*
X175479013Y-124984294D01*
X175221033Y-124846401D01*
X174941110Y-124761487D01*
X174650000Y-124732815D01*
X174358889Y-124761487D01*
X174078966Y-124846401D01*
X173820986Y-124984294D01*
X173594866Y-125169866D01*
X173409294Y-125395987D01*
X173400000Y-125413374D01*
X173390706Y-125395986D01*
X173205134Y-125169866D01*
X172979013Y-124984294D01*
X172721033Y-124846401D01*
X172441110Y-124761487D01*
X172150000Y-124732815D01*
X171858889Y-124761487D01*
X171578966Y-124846401D01*
X171320986Y-124984294D01*
X171094866Y-125169866D01*
X171042777Y-125233337D01*
X170988405Y-125131614D01*
X170877962Y-124997038D01*
X170743386Y-124886595D01*
X170589850Y-124804528D01*
X170423254Y-124753992D01*
X170250000Y-124736928D01*
X169050000Y-124736928D01*
X168876746Y-124753992D01*
X168710150Y-124804528D01*
X168556614Y-124886595D01*
X168422038Y-124997038D01*
X168311595Y-125131614D01*
X168229528Y-125285150D01*
X168178992Y-125451746D01*
X168161928Y-125625000D01*
X137863117Y-125625000D01*
X137740706Y-125395986D01*
X137555134Y-125169866D01*
X137329013Y-124984294D01*
X137071033Y-124846401D01*
X136791110Y-124761487D01*
X136500000Y-124732815D01*
X136208889Y-124761487D01*
X135928966Y-124846401D01*
X135670986Y-124984294D01*
X135444866Y-125169866D01*
X135259294Y-125395987D01*
X135250000Y-125413374D01*
X135240706Y-125395986D01*
X135055134Y-125169866D01*
X134829013Y-124984294D01*
X134571033Y-124846401D01*
X134291110Y-124761487D01*
X134000000Y-124732815D01*
X133708889Y-124761487D01*
X133428966Y-124846401D01*
X133170986Y-124984294D01*
X132944866Y-125169866D01*
X132759294Y-125395987D01*
X132750000Y-125413374D01*
X132740706Y-125395986D01*
X132555134Y-125169866D01*
X132329013Y-124984294D01*
X132071033Y-124846401D01*
X131791110Y-124761487D01*
X131500000Y-124732815D01*
X131208889Y-124761487D01*
X130928966Y-124846401D01*
X130670986Y-124984294D01*
X130444866Y-125169866D01*
X130259294Y-125395987D01*
X130250000Y-125413374D01*
X130240706Y-125395986D01*
X130055134Y-125169866D01*
X129829013Y-124984294D01*
X129571033Y-124846401D01*
X129291110Y-124761487D01*
X129000000Y-124732815D01*
X128708889Y-124761487D01*
X128428966Y-124846401D01*
X128170986Y-124984294D01*
X127944866Y-125169866D01*
X127759294Y-125395987D01*
X127750000Y-125413374D01*
X127740706Y-125395986D01*
X127555134Y-125169866D01*
X127329013Y-124984294D01*
X127071033Y-124846401D01*
X126791110Y-124761487D01*
X126500000Y-124732815D01*
X126208889Y-124761487D01*
X125928966Y-124846401D01*
X125670986Y-124984294D01*
X125444866Y-125169866D01*
X125259294Y-125395987D01*
X125250000Y-125413374D01*
X125240706Y-125395986D01*
X125055134Y-125169866D01*
X124829013Y-124984294D01*
X124571033Y-124846401D01*
X124291110Y-124761487D01*
X124000000Y-124732815D01*
X123708889Y-124761487D01*
X123428966Y-124846401D01*
X123170986Y-124984294D01*
X122944866Y-125169866D01*
X122759294Y-125395987D01*
X122750000Y-125413374D01*
X122740706Y-125395986D01*
X122555134Y-125169866D01*
X122329013Y-124984294D01*
X122071033Y-124846401D01*
X121791110Y-124761487D01*
X121500000Y-124732815D01*
X121208889Y-124761487D01*
X120928966Y-124846401D01*
X120670986Y-124984294D01*
X120444866Y-125169866D01*
X120259294Y-125395987D01*
X120250000Y-125413374D01*
X120240706Y-125395986D01*
X120055134Y-125169866D01*
X119829013Y-124984294D01*
X119571033Y-124846401D01*
X119291110Y-124761487D01*
X119000000Y-124732815D01*
X118708889Y-124761487D01*
X118428966Y-124846401D01*
X118170986Y-124984294D01*
X117944866Y-125169866D01*
X117759294Y-125395987D01*
X117750000Y-125413374D01*
X117740706Y-125395986D01*
X117555134Y-125169866D01*
X117329013Y-124984294D01*
X117071033Y-124846401D01*
X116791110Y-124761487D01*
X116500000Y-124732815D01*
X116208889Y-124761487D01*
X115928966Y-124846401D01*
X115670986Y-124984294D01*
X115444866Y-125169866D01*
X115392777Y-125233337D01*
X115338405Y-125131614D01*
X115227962Y-124997038D01*
X115093386Y-124886595D01*
X114939850Y-124804528D01*
X114773254Y-124753992D01*
X114600000Y-124736928D01*
X113400000Y-124736928D01*
X113226746Y-124753992D01*
X113060150Y-124804528D01*
X112906614Y-124886595D01*
X112772038Y-124997038D01*
X112661595Y-125131614D01*
X112579528Y-125285150D01*
X112528992Y-125451746D01*
X112511928Y-125625000D01*
X98057950Y-125625000D01*
X98208825Y-125474125D01*
X98393228Y-125198147D01*
X98520246Y-124891496D01*
X98585000Y-124565958D01*
X98585000Y-124234042D01*
X320215000Y-124234042D01*
X320215000Y-124565958D01*
X320279754Y-124891496D01*
X320406772Y-125198147D01*
X320591175Y-125474125D01*
X320825875Y-125708825D01*
X321101853Y-125893228D01*
X321408504Y-126020246D01*
X321734042Y-126085000D01*
X322065958Y-126085000D01*
X322391496Y-126020246D01*
X322698147Y-125893228D01*
X322974125Y-125708825D01*
X323208825Y-125474125D01*
X323393228Y-125198147D01*
X323520246Y-124891496D01*
X323585000Y-124565958D01*
X323585000Y-124234042D01*
X323520246Y-123908504D01*
X323393228Y-123601853D01*
X323208825Y-123325875D01*
X322974125Y-123091175D01*
X322698147Y-122906772D01*
X322391496Y-122779754D01*
X322065958Y-122715000D01*
X321734042Y-122715000D01*
X321408504Y-122779754D01*
X321101853Y-122906772D01*
X320825875Y-123091175D01*
X320591175Y-123325875D01*
X320406772Y-123601853D01*
X320279754Y-123908504D01*
X320215000Y-124234042D01*
X98585000Y-124234042D01*
X98520246Y-123908504D01*
X98393228Y-123601853D01*
X98208825Y-123325875D01*
X97974125Y-123091175D01*
X97698147Y-122906772D01*
X97391496Y-122779754D01*
X97065958Y-122715000D01*
X96734042Y-122715000D01*
X96408504Y-122779754D01*
X96101853Y-122906772D01*
X95825875Y-123091175D01*
X95591175Y-123325875D01*
X95406772Y-123601853D01*
X95279754Y-123908504D01*
X95215000Y-124234042D01*
X95129437Y-124234042D01*
X95147195Y-124052936D01*
X95247990Y-123719088D01*
X95411708Y-123411179D01*
X95632115Y-123140935D01*
X95900813Y-122918647D01*
X96207572Y-122752783D01*
X96540710Y-122649660D01*
X96918051Y-122610000D01*
X321867721Y-122610000D01*
X322247064Y-122647195D01*
%TA.AperFunction,Conductor*%
D24*
G36*
X322247064Y-122647195D02*
G01*
X322580912Y-122747990D01*
X322888821Y-122911708D01*
X323159065Y-123132115D01*
X323381353Y-123400813D01*
X323547217Y-123707572D01*
X323650340Y-124040710D01*
X323690000Y-124418051D01*
X323690001Y-184317711D01*
X323652805Y-184697064D01*
X323552011Y-185030909D01*
X323388293Y-185338820D01*
X323167888Y-185609063D01*
X322899184Y-185831354D01*
X322592426Y-185997218D01*
X322259291Y-186100340D01*
X321881948Y-186140000D01*
X96932279Y-186140000D01*
X96552936Y-186102805D01*
X96219091Y-186002011D01*
X95911180Y-185838293D01*
X95640937Y-185617888D01*
X95418646Y-185349184D01*
X95252782Y-185042426D01*
X95149660Y-184709291D01*
X95110000Y-184331948D01*
X95110000Y-184184042D01*
X95215000Y-184184042D01*
X95215000Y-184515958D01*
X95279754Y-184841496D01*
X95406772Y-185148147D01*
X95591175Y-185424125D01*
X95825875Y-185658825D01*
X96101853Y-185843228D01*
X96408504Y-185970246D01*
X96734042Y-186035000D01*
X97065958Y-186035000D01*
X97391496Y-185970246D01*
X97698147Y-185843228D01*
X97974125Y-185658825D01*
X98208825Y-185424125D01*
X98393228Y-185148147D01*
X98520246Y-184841496D01*
X98585000Y-184515958D01*
X98585000Y-184184042D01*
X320215000Y-184184042D01*
X320215000Y-184515958D01*
X320279754Y-184841496D01*
X320406772Y-185148147D01*
X320591175Y-185424125D01*
X320825875Y-185658825D01*
X321101853Y-185843228D01*
X321408504Y-185970246D01*
X321734042Y-186035000D01*
X322065958Y-186035000D01*
X322391496Y-185970246D01*
X322698147Y-185843228D01*
X322974125Y-185658825D01*
X323208825Y-185424125D01*
X323393228Y-185148147D01*
X323520246Y-184841496D01*
X323585000Y-184515958D01*
X323585000Y-184184042D01*
X323520246Y-183858504D01*
X323393228Y-183551853D01*
X323208825Y-183275875D01*
X322974125Y-183041175D01*
X322698147Y-182856772D01*
X322391496Y-182729754D01*
X322065958Y-182665000D01*
X321734042Y-182665000D01*
X321408504Y-182729754D01*
X321101853Y-182856772D01*
X320825875Y-183041175D01*
X320591175Y-183275875D01*
X320406772Y-183551853D01*
X320279754Y-183858504D01*
X320215000Y-184184042D01*
X98585000Y-184184042D01*
X98520246Y-183858504D01*
X98393228Y-183551853D01*
X98208825Y-183275875D01*
X97974125Y-183041175D01*
X97698147Y-182856772D01*
X97391496Y-182729754D01*
X97065958Y-182665000D01*
X96734042Y-182665000D01*
X96408504Y-182729754D01*
X96101853Y-182856772D01*
X95825875Y-183041175D01*
X95591175Y-183275875D01*
X95406772Y-183551853D01*
X95279754Y-183858504D01*
X95215000Y-184184042D01*
X95110000Y-184184042D01*
X95110000Y-168450000D01*
X96982815Y-168450000D01*
X97011487Y-168741111D01*
X97096401Y-169021034D01*
X97234294Y-169279014D01*
X97419866Y-169505134D01*
X97483337Y-169557223D01*
X97381614Y-169611595D01*
X97247038Y-169722038D01*
X97136595Y-169856614D01*
X97054528Y-170010150D01*
X97003992Y-170176746D01*
X96986928Y-170350000D01*
X96986928Y-171550000D01*
X97003992Y-171723254D01*
X97054528Y-171889850D01*
X97136595Y-172043386D01*
X97247038Y-172177962D01*
X97381614Y-172288405D01*
X97535150Y-172370472D01*
X97701746Y-172421008D01*
X97875000Y-172438072D01*
X99013271Y-172438072D01*
X108161202Y-181586004D01*
X108185000Y-181615002D01*
X108300725Y-181709975D01*
X108432754Y-181780547D01*
X108576015Y-181824004D01*
X108687668Y-181835001D01*
X108687676Y-181835001D01*
X108725001Y-181838677D01*
X108762326Y-181835001D01*
X208207677Y-181835001D01*
X208244999Y-181838677D01*
X208282321Y-181835001D01*
X208282332Y-181835001D01*
X208393985Y-181824004D01*
X208537246Y-181780547D01*
X208669275Y-181709975D01*
X208785000Y-181615002D01*
X208808803Y-181585999D01*
X209031156Y-181363645D01*
X209138514Y-181385000D01*
X209401486Y-181385000D01*
X209659405Y-181333696D01*
X209902359Y-181233061D01*
X210121013Y-181086962D01*
X210306962Y-180901013D01*
X210453061Y-180682359D01*
X210553696Y-180439405D01*
X210605000Y-180181486D01*
X210605000Y-179918514D01*
X210553696Y-179660595D01*
X210453061Y-179417641D01*
X210306962Y-179198987D01*
X210121013Y-179013038D01*
X209902359Y-178866939D01*
X209659405Y-178766304D01*
X209401486Y-178715000D01*
X209138514Y-178715000D01*
X208880595Y-178766304D01*
X208637641Y-178866939D01*
X208418987Y-179013038D01*
X208233038Y-179198987D01*
X208086939Y-179417641D01*
X207986304Y-179660595D01*
X207935000Y-179918514D01*
X207935000Y-180181486D01*
X207956355Y-180288844D01*
X207930198Y-180315001D01*
X202958442Y-180315001D01*
X202985000Y-180181486D01*
X202985000Y-179918514D01*
X202933696Y-179660595D01*
X202833061Y-179417641D01*
X202686962Y-179198987D01*
X202501013Y-179013038D01*
X202282359Y-178866939D01*
X202039405Y-178766304D01*
X201781486Y-178715000D01*
X201518514Y-178715000D01*
X201260595Y-178766304D01*
X201017641Y-178866939D01*
X200798987Y-179013038D01*
X200613038Y-179198987D01*
X200466939Y-179417641D01*
X200366304Y-179660595D01*
X200315000Y-179918514D01*
X200315000Y-180181486D01*
X200341558Y-180315001D01*
X194729208Y-180315001D01*
X194738072Y-180225000D01*
X194735000Y-179985750D01*
X194576250Y-179827000D01*
X193477000Y-179827000D01*
X193477000Y-179847000D01*
X193223000Y-179847000D01*
X193223000Y-179827000D01*
X192123750Y-179827000D01*
X191965000Y-179985750D01*
X191961928Y-180225000D01*
X191970792Y-180315001D01*
X109039803Y-180315001D01*
X105884802Y-177160000D01*
X191959388Y-177160000D01*
X191981785Y-177387400D01*
X192048115Y-177606060D01*
X192149105Y-177795000D01*
X192048115Y-177983940D01*
X191981785Y-178202600D01*
X191959388Y-178430000D01*
X191981785Y-178657400D01*
X192045093Y-178866098D01*
X192010498Y-178930820D01*
X191974188Y-179050518D01*
X191961928Y-179175000D01*
X191965000Y-179414250D01*
X192123750Y-179573000D01*
X192896891Y-179573000D01*
X192897600Y-179573215D01*
X193068021Y-179590000D01*
X193631979Y-179590000D01*
X193802400Y-179573215D01*
X193803109Y-179573000D01*
X194576250Y-179573000D01*
X194735000Y-179414250D01*
X194738072Y-179175000D01*
X194725812Y-179050518D01*
X194689502Y-178930820D01*
X194654907Y-178866098D01*
X194718215Y-178657400D01*
X194740612Y-178430000D01*
X194718215Y-178202600D01*
X194651885Y-177983940D01*
X194550895Y-177795000D01*
X194651885Y-177606060D01*
X194718215Y-177387400D01*
X194740612Y-177160000D01*
X194718215Y-176932600D01*
X194651885Y-176713940D01*
X194648045Y-176706756D01*
X195336287Y-176018514D01*
X200345000Y-176018514D01*
X200345000Y-176281486D01*
X200396304Y-176539405D01*
X200496939Y-176782359D01*
X200643038Y-177001013D01*
X200828987Y-177186962D01*
X201047641Y-177333061D01*
X201290595Y-177433696D01*
X201548514Y-177485000D01*
X201811486Y-177485000D01*
X202069405Y-177433696D01*
X202312359Y-177333061D01*
X202531013Y-177186962D01*
X202716962Y-177001013D01*
X202863061Y-176782359D01*
X202963696Y-176539405D01*
X203015000Y-176281486D01*
X203015000Y-176018514D01*
X207965000Y-176018514D01*
X207965000Y-176281486D01*
X208016304Y-176539405D01*
X208116939Y-176782359D01*
X208263038Y-177001013D01*
X208448987Y-177186962D01*
X208667641Y-177333061D01*
X208910595Y-177433696D01*
X209168514Y-177485000D01*
X209431486Y-177485000D01*
X209689405Y-177433696D01*
X209932359Y-177333061D01*
X210151013Y-177186962D01*
X210336962Y-177001013D01*
X210483061Y-176782359D01*
X210583696Y-176539405D01*
X210635000Y-176281486D01*
X210635000Y-176018514D01*
X210583696Y-175760595D01*
X210483061Y-175517641D01*
X210336962Y-175298987D01*
X210151013Y-175113038D01*
X209932359Y-174966939D01*
X209689405Y-174866304D01*
X209431486Y-174815000D01*
X209168514Y-174815000D01*
X208910595Y-174866304D01*
X208667641Y-174966939D01*
X208448987Y-175113038D01*
X208263038Y-175298987D01*
X208116939Y-175517641D01*
X208016304Y-175760595D01*
X207965000Y-176018514D01*
X203015000Y-176018514D01*
X202963696Y-175760595D01*
X202863061Y-175517641D01*
X202716962Y-175298987D01*
X202531013Y-175113038D01*
X202312359Y-174966939D01*
X202069405Y-174866304D01*
X201811486Y-174815000D01*
X201548514Y-174815000D01*
X201290595Y-174866304D01*
X201047641Y-174966939D01*
X200828987Y-175113038D01*
X200643038Y-175298987D01*
X200496939Y-175517641D01*
X200396304Y-175760595D01*
X200345000Y-176018514D01*
X195336287Y-176018514D01*
X199236287Y-172118514D01*
X200345000Y-172118514D01*
X200345000Y-172381486D01*
X200396304Y-172639405D01*
X200496939Y-172882359D01*
X200643038Y-173101013D01*
X200828987Y-173286962D01*
X201047641Y-173433061D01*
X201290595Y-173533696D01*
X201548514Y-173585000D01*
X201811486Y-173585000D01*
X202069405Y-173533696D01*
X202312359Y-173433061D01*
X202531013Y-173286962D01*
X202716962Y-173101013D01*
X202863061Y-172882359D01*
X202963696Y-172639405D01*
X203015000Y-172381486D01*
X203015000Y-172118514D01*
X207965000Y-172118514D01*
X207965000Y-172381486D01*
X208016304Y-172639405D01*
X208116939Y-172882359D01*
X208263038Y-173101013D01*
X208448987Y-173286962D01*
X208667641Y-173433061D01*
X208910595Y-173533696D01*
X209168514Y-173585000D01*
X209431486Y-173585000D01*
X209689405Y-173533696D01*
X209932359Y-173433061D01*
X210151013Y-173286962D01*
X210336962Y-173101013D01*
X210483061Y-172882359D01*
X210537885Y-172750000D01*
X213661928Y-172750000D01*
X213674188Y-172874482D01*
X213710498Y-172994180D01*
X213769463Y-173104494D01*
X213848815Y-173201185D01*
X213945506Y-173280537D01*
X214055820Y-173339502D01*
X214175518Y-173375812D01*
X214183961Y-173376643D01*
X213985363Y-173575241D01*
X213828320Y-173810273D01*
X213720147Y-174071426D01*
X213665000Y-174348665D01*
X213665000Y-174631335D01*
X213720147Y-174908574D01*
X213828320Y-175169727D01*
X213985363Y-175404759D01*
X214185241Y-175604637D01*
X214417759Y-175760000D01*
X214185241Y-175915363D01*
X213985363Y-176115241D01*
X213828320Y-176350273D01*
X213720147Y-176611426D01*
X213665000Y-176888665D01*
X213665000Y-177171335D01*
X213720147Y-177448574D01*
X213828320Y-177709727D01*
X213985363Y-177944759D01*
X214185241Y-178144637D01*
X214417759Y-178300000D01*
X214185241Y-178455363D01*
X213985363Y-178655241D01*
X213828320Y-178890273D01*
X213720147Y-179151426D01*
X213665000Y-179428665D01*
X213665000Y-179711335D01*
X213720147Y-179988574D01*
X213828320Y-180249727D01*
X213985363Y-180484759D01*
X214185241Y-180684637D01*
X214420273Y-180841680D01*
X214681426Y-180949853D01*
X214958665Y-181005000D01*
X215241335Y-181005000D01*
X215518574Y-180949853D01*
X215779727Y-180841680D01*
X216014759Y-180684637D01*
X216214637Y-180484759D01*
X216371680Y-180249727D01*
X216479853Y-179988574D01*
X216535000Y-179711335D01*
X216535000Y-179428665D01*
X216498688Y-179246113D01*
X221285000Y-174459802D01*
X221285000Y-174631335D01*
X221340147Y-174908574D01*
X221448320Y-175169727D01*
X221605363Y-175404759D01*
X221805241Y-175604637D01*
X222037759Y-175760000D01*
X221805241Y-175915363D01*
X221605363Y-176115241D01*
X221448320Y-176350273D01*
X221340147Y-176611426D01*
X221285000Y-176888665D01*
X221285000Y-177171335D01*
X221340147Y-177448574D01*
X221448320Y-177709727D01*
X221605363Y-177944759D01*
X221805241Y-178144637D01*
X222037759Y-178300000D01*
X221805241Y-178455363D01*
X221605363Y-178655241D01*
X221448320Y-178890273D01*
X221340147Y-179151426D01*
X221285000Y-179428665D01*
X221285000Y-179711335D01*
X221340147Y-179988574D01*
X221448320Y-180249727D01*
X221605363Y-180484759D01*
X221805241Y-180684637D01*
X222040273Y-180841680D01*
X222301426Y-180949853D01*
X222578665Y-181005000D01*
X222861335Y-181005000D01*
X223138574Y-180949853D01*
X223399727Y-180841680D01*
X223634759Y-180684637D01*
X223834637Y-180484759D01*
X223991680Y-180249727D01*
X224099853Y-179988574D01*
X224155000Y-179711335D01*
X224155000Y-179428665D01*
X224099853Y-179151426D01*
X223991680Y-178890273D01*
X223834637Y-178655241D01*
X223634759Y-178455363D01*
X223402241Y-178300000D01*
X223634759Y-178144637D01*
X223834637Y-177944759D01*
X223991680Y-177709727D01*
X224099853Y-177448574D01*
X224155000Y-177171335D01*
X224155000Y-176888665D01*
X224099853Y-176611426D01*
X223991680Y-176350273D01*
X223834637Y-176115241D01*
X223634759Y-175915363D01*
X223402241Y-175760000D01*
X223634759Y-175604637D01*
X223834637Y-175404759D01*
X223991680Y-175169727D01*
X224099853Y-174908574D01*
X224155000Y-174631335D01*
X224155000Y-174348665D01*
X224099853Y-174071426D01*
X223991680Y-173810273D01*
X223834637Y-173575241D01*
X223634759Y-173375363D01*
X223402241Y-173220000D01*
X223634759Y-173064637D01*
X223834637Y-172864759D01*
X223991680Y-172629727D01*
X224099853Y-172368574D01*
X224155000Y-172091335D01*
X224155000Y-171808665D01*
X224099853Y-171531426D01*
X223991680Y-171270273D01*
X223834637Y-171035241D01*
X223634759Y-170835363D01*
X223399727Y-170678320D01*
X223138574Y-170570147D01*
X222861335Y-170515000D01*
X222578665Y-170515000D01*
X222301426Y-170570147D01*
X222040273Y-170678320D01*
X221805241Y-170835363D01*
X221605363Y-171035241D01*
X221448320Y-171270273D01*
X221340147Y-171531426D01*
X221285000Y-171808665D01*
X221285000Y-172091335D01*
X221321312Y-172273886D01*
X216535000Y-177060199D01*
X216535000Y-176888665D01*
X216479853Y-176611426D01*
X216371680Y-176350273D01*
X216214637Y-176115241D01*
X216014759Y-175915363D01*
X215782241Y-175760000D01*
X216014759Y-175604637D01*
X216214637Y-175404759D01*
X216371680Y-175169727D01*
X216479853Y-174908574D01*
X216535000Y-174631335D01*
X216535000Y-174348665D01*
X216479853Y-174071426D01*
X216371680Y-173810273D01*
X216214637Y-173575241D01*
X216016039Y-173376643D01*
X216024482Y-173375812D01*
X216144180Y-173339502D01*
X216254494Y-173280537D01*
X216351185Y-173201185D01*
X216430537Y-173104494D01*
X216489502Y-172994180D01*
X216525812Y-172874482D01*
X216538072Y-172750000D01*
X216535000Y-172235750D01*
X216376250Y-172077000D01*
X215227000Y-172077000D01*
X215227000Y-172097000D01*
X214973000Y-172097000D01*
X214973000Y-172077000D01*
X213823750Y-172077000D01*
X213665000Y-172235750D01*
X213661928Y-172750000D01*
X210537885Y-172750000D01*
X210583696Y-172639405D01*
X210635000Y-172381486D01*
X210635000Y-172118514D01*
X210583696Y-171860595D01*
X210483061Y-171617641D01*
X210336962Y-171398987D01*
X210151013Y-171213038D01*
X210056670Y-171150000D01*
X213661928Y-171150000D01*
X213665000Y-171664250D01*
X213823750Y-171823000D01*
X214973000Y-171823000D01*
X214973000Y-170673750D01*
X215227000Y-170673750D01*
X215227000Y-171823000D01*
X216376250Y-171823000D01*
X216535000Y-171664250D01*
X216538072Y-171150000D01*
X216525812Y-171025518D01*
X216489502Y-170905820D01*
X216430537Y-170795506D01*
X216351185Y-170698815D01*
X216254494Y-170619463D01*
X216144180Y-170560498D01*
X216024482Y-170524188D01*
X215900000Y-170511928D01*
X215385750Y-170515000D01*
X215227000Y-170673750D01*
X214973000Y-170673750D01*
X214814250Y-170515000D01*
X214300000Y-170511928D01*
X214175518Y-170524188D01*
X214055820Y-170560498D01*
X213945506Y-170619463D01*
X213848815Y-170698815D01*
X213769463Y-170795506D01*
X213710498Y-170905820D01*
X213674188Y-171025518D01*
X213661928Y-171150000D01*
X210056670Y-171150000D01*
X209932359Y-171066939D01*
X209689405Y-170966304D01*
X209431486Y-170915000D01*
X209168514Y-170915000D01*
X208910595Y-170966304D01*
X208667641Y-171066939D01*
X208448987Y-171213038D01*
X208263038Y-171398987D01*
X208116939Y-171617641D01*
X208016304Y-171860595D01*
X207965000Y-172118514D01*
X203015000Y-172118514D01*
X202963696Y-171860595D01*
X202863061Y-171617641D01*
X202716962Y-171398987D01*
X202531013Y-171213038D01*
X202312359Y-171066939D01*
X202069405Y-170966304D01*
X201811486Y-170915000D01*
X201548514Y-170915000D01*
X201290595Y-170966304D01*
X201047641Y-171066939D01*
X200828987Y-171213038D01*
X200643038Y-171398987D01*
X200496939Y-171617641D01*
X200396304Y-171860595D01*
X200345000Y-172118514D01*
X199236287Y-172118514D01*
X201441157Y-169913645D01*
X201548514Y-169935000D01*
X201811486Y-169935000D01*
X202069405Y-169883696D01*
X202312359Y-169783061D01*
X202531013Y-169636962D01*
X202716962Y-169451013D01*
X202863061Y-169232359D01*
X202963696Y-168989405D01*
X203015000Y-168731486D01*
X203015000Y-168468514D01*
X202963696Y-168210595D01*
X202863061Y-167967641D01*
X202716962Y-167748987D01*
X202531013Y-167563038D01*
X202312359Y-167416939D01*
X202069405Y-167316304D01*
X201811486Y-167265000D01*
X201548514Y-167265000D01*
X201290595Y-167316304D01*
X201047641Y-167416939D01*
X200828987Y-167563038D01*
X200643038Y-167748987D01*
X200496939Y-167967641D01*
X200396304Y-168210595D01*
X200345000Y-168468514D01*
X200345000Y-168731486D01*
X200366355Y-168838843D01*
X193205199Y-176000000D01*
X193068021Y-176000000D01*
X192897600Y-176016785D01*
X192678940Y-176083115D01*
X192477421Y-176190829D01*
X192300788Y-176335788D01*
X192155829Y-176512421D01*
X192048115Y-176713940D01*
X191981785Y-176932600D01*
X191959388Y-177160000D01*
X105884802Y-177160000D01*
X100213072Y-171488271D01*
X100213072Y-170350000D01*
X100212354Y-170342702D01*
X191086903Y-170342702D01*
X191158486Y-170586671D01*
X191413996Y-170707571D01*
X191688184Y-170776300D01*
X191970512Y-170790217D01*
X192250130Y-170748787D01*
X192516292Y-170653603D01*
X192641514Y-170586671D01*
X192713097Y-170342702D01*
X191900000Y-169529605D01*
X191086903Y-170342702D01*
X100212354Y-170342702D01*
X100196008Y-170176746D01*
X100145472Y-170010150D01*
X100063405Y-169856614D01*
X99952962Y-169722038D01*
X99818386Y-169611595D01*
X99716663Y-169557223D01*
X99780134Y-169505134D01*
X99849581Y-169420512D01*
X190459783Y-169420512D01*
X190501213Y-169700130D01*
X190596397Y-169966292D01*
X190663329Y-170091514D01*
X190907298Y-170163097D01*
X191720395Y-169350000D01*
X192079605Y-169350000D01*
X192892702Y-170163097D01*
X192961928Y-170142785D01*
X192961928Y-170150000D01*
X192974188Y-170274482D01*
X193010498Y-170394180D01*
X193069463Y-170504494D01*
X193148815Y-170601185D01*
X193245506Y-170680537D01*
X193355820Y-170739502D01*
X193475518Y-170775812D01*
X193600000Y-170788072D01*
X195200000Y-170788072D01*
X195324482Y-170775812D01*
X195444180Y-170739502D01*
X195554494Y-170680537D01*
X195651185Y-170601185D01*
X195730537Y-170504494D01*
X195789502Y-170394180D01*
X195825812Y-170274482D01*
X195838072Y-170150000D01*
X195838072Y-168550000D01*
X195825812Y-168425518D01*
X195789502Y-168305820D01*
X195730537Y-168195506D01*
X195651185Y-168098815D01*
X195554494Y-168019463D01*
X195444180Y-167960498D01*
X195324482Y-167924188D01*
X195200000Y-167911928D01*
X193600000Y-167911928D01*
X193475518Y-167924188D01*
X193355820Y-167960498D01*
X193245506Y-168019463D01*
X193148815Y-168098815D01*
X193069463Y-168195506D01*
X193010498Y-168305820D01*
X192974188Y-168425518D01*
X192961928Y-168550000D01*
X192961928Y-168557215D01*
X192892702Y-168536903D01*
X192079605Y-169350000D01*
X191720395Y-169350000D01*
X190907298Y-168536903D01*
X190663329Y-168608486D01*
X190542429Y-168863996D01*
X190473700Y-169138184D01*
X190459783Y-169420512D01*
X99849581Y-169420512D01*
X99965706Y-169279014D01*
X100103599Y-169021034D01*
X100188513Y-168741111D01*
X100217185Y-168450000D01*
X100208055Y-168357298D01*
X191086903Y-168357298D01*
X191900000Y-169170395D01*
X192713097Y-168357298D01*
X192641514Y-168113329D01*
X192386004Y-167992429D01*
X192111816Y-167923700D01*
X191829488Y-167909783D01*
X191549870Y-167951213D01*
X191283708Y-168046397D01*
X191158486Y-168113329D01*
X191086903Y-168357298D01*
X100208055Y-168357298D01*
X100188513Y-168158889D01*
X100103599Y-167878966D01*
X99965706Y-167620986D01*
X99780134Y-167394866D01*
X99554014Y-167209294D01*
X99528278Y-167195538D01*
X99734429Y-167039049D01*
X99927496Y-166821193D01*
X100074352Y-166569858D01*
X100166476Y-166306890D01*
X100045155Y-166077000D01*
X98727000Y-166077000D01*
X98727000Y-166097000D01*
X98473000Y-166097000D01*
X98473000Y-166077000D01*
X97154845Y-166077000D01*
X97033524Y-166306890D01*
X97125648Y-166569858D01*
X97272504Y-166821193D01*
X97465571Y-167039049D01*
X97671722Y-167195538D01*
X97645986Y-167209294D01*
X97419866Y-167394866D01*
X97234294Y-167620986D01*
X97096401Y-167878966D01*
X97011487Y-168158889D01*
X96982815Y-168450000D01*
X95110000Y-168450000D01*
X95110000Y-165593110D01*
X97033524Y-165593110D01*
X97154845Y-165823000D01*
X98473000Y-165823000D01*
X98473000Y-164623835D01*
X98727000Y-164623835D01*
X98727000Y-165823000D01*
X100045155Y-165823000D01*
X100166476Y-165593110D01*
X100074352Y-165330142D01*
X99927496Y-165078807D01*
X99734429Y-164860951D01*
X99502570Y-164684947D01*
X99240830Y-164557558D01*
X98959267Y-164483680D01*
X98727000Y-164623835D01*
X98473000Y-164623835D01*
X98240733Y-164483680D01*
X97959170Y-164557558D01*
X97697430Y-164684947D01*
X97465571Y-164860951D01*
X97272504Y-165078807D01*
X97125648Y-165330142D01*
X97033524Y-165593110D01*
X95110000Y-165593110D01*
X95110000Y-160938589D01*
X137140000Y-160938589D01*
X137140000Y-161211411D01*
X137193225Y-161478989D01*
X137297629Y-161731043D01*
X137449201Y-161957886D01*
X137642114Y-162150799D01*
X137868957Y-162302371D01*
X138121011Y-162406775D01*
X138388589Y-162460000D01*
X138661411Y-162460000D01*
X138928989Y-162406775D01*
X139181043Y-162302371D01*
X139407886Y-162150799D01*
X139600799Y-161957886D01*
X139752371Y-161731043D01*
X139856775Y-161478989D01*
X139910000Y-161211411D01*
X139910000Y-160938589D01*
X143940000Y-160938589D01*
X143940000Y-161211411D01*
X143993225Y-161478989D01*
X144097629Y-161731043D01*
X144249201Y-161957886D01*
X144442114Y-162150799D01*
X144668957Y-162302371D01*
X144921011Y-162406775D01*
X145188589Y-162460000D01*
X145461411Y-162460000D01*
X145728989Y-162406775D01*
X145981043Y-162302371D01*
X146207886Y-162150799D01*
X146400799Y-161957886D01*
X146552371Y-161731043D01*
X146656775Y-161478989D01*
X146710000Y-161211411D01*
X146710000Y-160938589D01*
X171615000Y-160938589D01*
X171615000Y-161211411D01*
X171668225Y-161478989D01*
X171772629Y-161731043D01*
X171924201Y-161957886D01*
X172117114Y-162150799D01*
X172343957Y-162302371D01*
X172596011Y-162406775D01*
X172863589Y-162460000D01*
X173136411Y-162460000D01*
X173403989Y-162406775D01*
X173656043Y-162302371D01*
X173882886Y-162150799D01*
X174075799Y-161957886D01*
X174227371Y-161731043D01*
X174331775Y-161478989D01*
X174385000Y-161211411D01*
X174385000Y-160938589D01*
X178415000Y-160938589D01*
X178415000Y-161211411D01*
X178468225Y-161478989D01*
X178572629Y-161731043D01*
X178724201Y-161957886D01*
X178917114Y-162150799D01*
X179143957Y-162302371D01*
X179396011Y-162406775D01*
X179663589Y-162460000D01*
X179936411Y-162460000D01*
X180203989Y-162406775D01*
X180456043Y-162302371D01*
X180682886Y-162150799D01*
X180875799Y-161957886D01*
X181027371Y-161731043D01*
X181131775Y-161478989D01*
X181185000Y-161211411D01*
X181185000Y-160938589D01*
X181131775Y-160671011D01*
X181027371Y-160418957D01*
X180875799Y-160192114D01*
X180682886Y-159999201D01*
X180456043Y-159847629D01*
X180203989Y-159743225D01*
X179936411Y-159690000D01*
X179663589Y-159690000D01*
X179396011Y-159743225D01*
X179143957Y-159847629D01*
X178917114Y-159999201D01*
X178724201Y-160192114D01*
X178572629Y-160418957D01*
X178468225Y-160671011D01*
X178415000Y-160938589D01*
X174385000Y-160938589D01*
X174331775Y-160671011D01*
X174227371Y-160418957D01*
X174075799Y-160192114D01*
X173882886Y-159999201D01*
X173656043Y-159847629D01*
X173403989Y-159743225D01*
X173136411Y-159690000D01*
X172863589Y-159690000D01*
X172596011Y-159743225D01*
X172343957Y-159847629D01*
X172117114Y-159999201D01*
X171924201Y-160192114D01*
X171772629Y-160418957D01*
X171668225Y-160671011D01*
X171615000Y-160938589D01*
X146710000Y-160938589D01*
X146656775Y-160671011D01*
X146552371Y-160418957D01*
X146400799Y-160192114D01*
X146207886Y-159999201D01*
X145981043Y-159847629D01*
X145728989Y-159743225D01*
X145461411Y-159690000D01*
X145188589Y-159690000D01*
X144921011Y-159743225D01*
X144668957Y-159847629D01*
X144442114Y-159999201D01*
X144249201Y-160192114D01*
X144097629Y-160418957D01*
X143993225Y-160671011D01*
X143940000Y-160938589D01*
X139910000Y-160938589D01*
X139856775Y-160671011D01*
X139752371Y-160418957D01*
X139600799Y-160192114D01*
X139407886Y-159999201D01*
X139181043Y-159847629D01*
X138928989Y-159743225D01*
X138661411Y-159690000D01*
X138388589Y-159690000D01*
X138121011Y-159743225D01*
X137868957Y-159847629D01*
X137642114Y-159999201D01*
X137449201Y-160192114D01*
X137297629Y-160418957D01*
X137193225Y-160671011D01*
X137140000Y-160938589D01*
X95110000Y-160938589D01*
X95110000Y-157838589D01*
X135240000Y-157838589D01*
X135240000Y-158111411D01*
X135293225Y-158378989D01*
X135397629Y-158631043D01*
X135549201Y-158857886D01*
X135742114Y-159050799D01*
X135968957Y-159202371D01*
X136221011Y-159306775D01*
X136488589Y-159360000D01*
X136761411Y-159360000D01*
X137028989Y-159306775D01*
X137281043Y-159202371D01*
X137507886Y-159050799D01*
X137700799Y-158857886D01*
X137852371Y-158631043D01*
X137956775Y-158378989D01*
X138010000Y-158111411D01*
X138010000Y-157838589D01*
X145840000Y-157838589D01*
X145840000Y-158111411D01*
X145893225Y-158378989D01*
X145997629Y-158631043D01*
X146149201Y-158857886D01*
X146342114Y-159050799D01*
X146568957Y-159202371D01*
X146821011Y-159306775D01*
X147088589Y-159360000D01*
X147361411Y-159360000D01*
X147628989Y-159306775D01*
X147881043Y-159202371D01*
X148107886Y-159050799D01*
X148300799Y-158857886D01*
X148452371Y-158631043D01*
X148556775Y-158378989D01*
X148610000Y-158111411D01*
X148610000Y-157838589D01*
X169715000Y-157838589D01*
X169715000Y-158111411D01*
X169768225Y-158378989D01*
X169872629Y-158631043D01*
X170024201Y-158857886D01*
X170217114Y-159050799D01*
X170443957Y-159202371D01*
X170696011Y-159306775D01*
X170963589Y-159360000D01*
X171236411Y-159360000D01*
X171503989Y-159306775D01*
X171756043Y-159202371D01*
X171982886Y-159050799D01*
X172175799Y-158857886D01*
X172327371Y-158631043D01*
X172431775Y-158378989D01*
X172485000Y-158111411D01*
X172485000Y-157838589D01*
X180315000Y-157838589D01*
X180315000Y-158111411D01*
X180368225Y-158378989D01*
X180472629Y-158631043D01*
X180624201Y-158857886D01*
X180817114Y-159050799D01*
X181043957Y-159202371D01*
X181296011Y-159306775D01*
X181563589Y-159360000D01*
X181836411Y-159360000D01*
X182103989Y-159306775D01*
X182356043Y-159202371D01*
X182582886Y-159050799D01*
X182775799Y-158857886D01*
X182927371Y-158631043D01*
X183031775Y-158378989D01*
X183085000Y-158111411D01*
X183085000Y-157838589D01*
X183031775Y-157571011D01*
X182927371Y-157318957D01*
X182775799Y-157092114D01*
X182582886Y-156899201D01*
X182356043Y-156747629D01*
X182103989Y-156643225D01*
X181836411Y-156590000D01*
X181563589Y-156590000D01*
X181296011Y-156643225D01*
X181043957Y-156747629D01*
X180817114Y-156899201D01*
X180624201Y-157092114D01*
X180472629Y-157318957D01*
X180368225Y-157571011D01*
X180315000Y-157838589D01*
X172485000Y-157838589D01*
X172431775Y-157571011D01*
X172327371Y-157318957D01*
X172175799Y-157092114D01*
X171982886Y-156899201D01*
X171756043Y-156747629D01*
X171503989Y-156643225D01*
X171236411Y-156590000D01*
X170963589Y-156590000D01*
X170696011Y-156643225D01*
X170443957Y-156747629D01*
X170217114Y-156899201D01*
X170024201Y-157092114D01*
X169872629Y-157318957D01*
X169768225Y-157571011D01*
X169715000Y-157838589D01*
X148610000Y-157838589D01*
X148556775Y-157571011D01*
X148452371Y-157318957D01*
X148300799Y-157092114D01*
X148107886Y-156899201D01*
X147881043Y-156747629D01*
X147628989Y-156643225D01*
X147361411Y-156590000D01*
X147088589Y-156590000D01*
X146821011Y-156643225D01*
X146568957Y-156747629D01*
X146342114Y-156899201D01*
X146149201Y-157092114D01*
X145997629Y-157318957D01*
X145893225Y-157571011D01*
X145840000Y-157838589D01*
X138010000Y-157838589D01*
X137956775Y-157571011D01*
X137852371Y-157318957D01*
X137700799Y-157092114D01*
X137507886Y-156899201D01*
X137281043Y-156747629D01*
X137028989Y-156643225D01*
X136761411Y-156590000D01*
X136488589Y-156590000D01*
X136221011Y-156643225D01*
X135968957Y-156747629D01*
X135742114Y-156899201D01*
X135549201Y-157092114D01*
X135397629Y-157318957D01*
X135293225Y-157571011D01*
X135240000Y-157838589D01*
X95110000Y-157838589D01*
X95110000Y-154238589D01*
X135040000Y-154238589D01*
X135040000Y-154511411D01*
X135093225Y-154778989D01*
X135197629Y-155031043D01*
X135349201Y-155257886D01*
X135542114Y-155450799D01*
X135768957Y-155602371D01*
X136021011Y-155706775D01*
X136288589Y-155760000D01*
X136561411Y-155760000D01*
X136828989Y-155706775D01*
X137081043Y-155602371D01*
X137307886Y-155450799D01*
X137500799Y-155257886D01*
X137652371Y-155031043D01*
X137756775Y-154778989D01*
X137810000Y-154511411D01*
X137810000Y-154238589D01*
X137785511Y-154115475D01*
X139290000Y-154115475D01*
X139290000Y-154634525D01*
X139391261Y-155143601D01*
X139589893Y-155623141D01*
X139878262Y-156054715D01*
X140245285Y-156421738D01*
X140676859Y-156710107D01*
X141156399Y-156908739D01*
X141665475Y-157010000D01*
X142184525Y-157010000D01*
X142693601Y-156908739D01*
X143173141Y-156710107D01*
X143604715Y-156421738D01*
X143971738Y-156054715D01*
X144260107Y-155623141D01*
X144458739Y-155143601D01*
X144560000Y-154634525D01*
X144560000Y-154238589D01*
X146040000Y-154238589D01*
X146040000Y-154511411D01*
X146093225Y-154778989D01*
X146197629Y-155031043D01*
X146349201Y-155257886D01*
X146542114Y-155450799D01*
X146768957Y-155602371D01*
X147021011Y-155706775D01*
X147288589Y-155760000D01*
X147561411Y-155760000D01*
X147828989Y-155706775D01*
X148081043Y-155602371D01*
X148307886Y-155450799D01*
X148500799Y-155257886D01*
X148652371Y-155031043D01*
X148756775Y-154778989D01*
X148810000Y-154511411D01*
X148810000Y-154238589D01*
X169515000Y-154238589D01*
X169515000Y-154511411D01*
X169568225Y-154778989D01*
X169672629Y-155031043D01*
X169824201Y-155257886D01*
X170017114Y-155450799D01*
X170243957Y-155602371D01*
X170496011Y-155706775D01*
X170763589Y-155760000D01*
X171036411Y-155760000D01*
X171303989Y-155706775D01*
X171556043Y-155602371D01*
X171782886Y-155450799D01*
X171975799Y-155257886D01*
X172127371Y-155031043D01*
X172231775Y-154778989D01*
X172285000Y-154511411D01*
X172285000Y-154238589D01*
X172260511Y-154115475D01*
X173765000Y-154115475D01*
X173765000Y-154634525D01*
X173866261Y-155143601D01*
X174064893Y-155623141D01*
X174353262Y-156054715D01*
X174720285Y-156421738D01*
X175151859Y-156710107D01*
X175631399Y-156908739D01*
X176140475Y-157010000D01*
X176659525Y-157010000D01*
X177168601Y-156908739D01*
X177648141Y-156710107D01*
X178079715Y-156421738D01*
X178446738Y-156054715D01*
X178735107Y-155623141D01*
X178933739Y-155143601D01*
X179035000Y-154634525D01*
X179035000Y-154238589D01*
X180515000Y-154238589D01*
X180515000Y-154511411D01*
X180568225Y-154778989D01*
X180672629Y-155031043D01*
X180824201Y-155257886D01*
X181017114Y-155450799D01*
X181243957Y-155602371D01*
X181496011Y-155706775D01*
X181763589Y-155760000D01*
X182036411Y-155760000D01*
X182303989Y-155706775D01*
X182556043Y-155602371D01*
X182782886Y-155450799D01*
X182975799Y-155257886D01*
X183127371Y-155031043D01*
X183231775Y-154778989D01*
X183285000Y-154511411D01*
X183285000Y-154238589D01*
X183231775Y-153971011D01*
X183127371Y-153718957D01*
X182975799Y-153492114D01*
X182782886Y-153299201D01*
X182556043Y-153147629D01*
X182303989Y-153043225D01*
X182136963Y-153010001D01*
X207461323Y-153010001D01*
X207465000Y-153047333D01*
X207464999Y-167487677D01*
X207461323Y-167524999D01*
X207464999Y-167562321D01*
X207464999Y-167562331D01*
X207475996Y-167673984D01*
X207498748Y-167748987D01*
X207519453Y-167817245D01*
X207590025Y-167949275D01*
X207599236Y-167960498D01*
X207684998Y-168065000D01*
X207714001Y-168088803D01*
X207986355Y-168361156D01*
X207965000Y-168468514D01*
X207965000Y-168731486D01*
X208016304Y-168989405D01*
X208116939Y-169232359D01*
X208263038Y-169451013D01*
X208448987Y-169636962D01*
X208667641Y-169783061D01*
X208910595Y-169883696D01*
X209168514Y-169935000D01*
X209431486Y-169935000D01*
X209689405Y-169883696D01*
X209932359Y-169783061D01*
X210151013Y-169636962D01*
X210336962Y-169451013D01*
X210483061Y-169232359D01*
X210583696Y-168989405D01*
X210635000Y-168731486D01*
X210635000Y-168468514D01*
X210583696Y-168210595D01*
X210483061Y-167967641D01*
X210336962Y-167748987D01*
X210151013Y-167563038D01*
X209932359Y-167416939D01*
X209689405Y-167316304D01*
X209431486Y-167265000D01*
X209168514Y-167265000D01*
X209061156Y-167286355D01*
X208984999Y-167210198D01*
X208984999Y-160938589D01*
X237615000Y-160938589D01*
X237615000Y-161211411D01*
X237668225Y-161478989D01*
X237772629Y-161731043D01*
X237924201Y-161957886D01*
X238117114Y-162150799D01*
X238343957Y-162302371D01*
X238596011Y-162406775D01*
X238863589Y-162460000D01*
X239136411Y-162460000D01*
X239403989Y-162406775D01*
X239656043Y-162302371D01*
X239882886Y-162150799D01*
X240075799Y-161957886D01*
X240227371Y-161731043D01*
X240331775Y-161478989D01*
X240385000Y-161211411D01*
X240385000Y-160938589D01*
X244415000Y-160938589D01*
X244415000Y-161211411D01*
X244468225Y-161478989D01*
X244572629Y-161731043D01*
X244724201Y-161957886D01*
X244917114Y-162150799D01*
X245143957Y-162302371D01*
X245396011Y-162406775D01*
X245663589Y-162460000D01*
X245936411Y-162460000D01*
X246203989Y-162406775D01*
X246456043Y-162302371D01*
X246682886Y-162150799D01*
X246875799Y-161957886D01*
X247027371Y-161731043D01*
X247131775Y-161478989D01*
X247185000Y-161211411D01*
X247185000Y-160938589D01*
X272090000Y-160938589D01*
X272090000Y-161211411D01*
X272143225Y-161478989D01*
X272247629Y-161731043D01*
X272399201Y-161957886D01*
X272592114Y-162150799D01*
X272818957Y-162302371D01*
X273071011Y-162406775D01*
X273338589Y-162460000D01*
X273611411Y-162460000D01*
X273878989Y-162406775D01*
X274131043Y-162302371D01*
X274357886Y-162150799D01*
X274550799Y-161957886D01*
X274702371Y-161731043D01*
X274806775Y-161478989D01*
X274860000Y-161211411D01*
X274860000Y-160938589D01*
X278890000Y-160938589D01*
X278890000Y-161211411D01*
X278943225Y-161478989D01*
X279047629Y-161731043D01*
X279199201Y-161957886D01*
X279392114Y-162150799D01*
X279618957Y-162302371D01*
X279871011Y-162406775D01*
X280138589Y-162460000D01*
X280411411Y-162460000D01*
X280678989Y-162406775D01*
X280931043Y-162302371D01*
X281157886Y-162150799D01*
X281350799Y-161957886D01*
X281502371Y-161731043D01*
X281606775Y-161478989D01*
X281660000Y-161211411D01*
X281660000Y-160938589D01*
X281606775Y-160671011D01*
X281502371Y-160418957D01*
X281350799Y-160192114D01*
X281157886Y-159999201D01*
X280931043Y-159847629D01*
X280678989Y-159743225D01*
X280411411Y-159690000D01*
X280138589Y-159690000D01*
X279871011Y-159743225D01*
X279618957Y-159847629D01*
X279392114Y-159999201D01*
X279199201Y-160192114D01*
X279047629Y-160418957D01*
X278943225Y-160671011D01*
X278890000Y-160938589D01*
X274860000Y-160938589D01*
X274806775Y-160671011D01*
X274702371Y-160418957D01*
X274550799Y-160192114D01*
X274357886Y-159999201D01*
X274131043Y-159847629D01*
X273878989Y-159743225D01*
X273611411Y-159690000D01*
X273338589Y-159690000D01*
X273071011Y-159743225D01*
X272818957Y-159847629D01*
X272592114Y-159999201D01*
X272399201Y-160192114D01*
X272247629Y-160418957D01*
X272143225Y-160671011D01*
X272090000Y-160938589D01*
X247185000Y-160938589D01*
X247131775Y-160671011D01*
X247027371Y-160418957D01*
X246875799Y-160192114D01*
X246682886Y-159999201D01*
X246456043Y-159847629D01*
X246203989Y-159743225D01*
X245936411Y-159690000D01*
X245663589Y-159690000D01*
X245396011Y-159743225D01*
X245143957Y-159847629D01*
X244917114Y-159999201D01*
X244724201Y-160192114D01*
X244572629Y-160418957D01*
X244468225Y-160671011D01*
X244415000Y-160938589D01*
X240385000Y-160938589D01*
X240331775Y-160671011D01*
X240227371Y-160418957D01*
X240075799Y-160192114D01*
X239882886Y-159999201D01*
X239656043Y-159847629D01*
X239403989Y-159743225D01*
X239136411Y-159690000D01*
X238863589Y-159690000D01*
X238596011Y-159743225D01*
X238343957Y-159847629D01*
X238117114Y-159999201D01*
X237924201Y-160192114D01*
X237772629Y-160418957D01*
X237668225Y-160671011D01*
X237615000Y-160938589D01*
X208984999Y-160938589D01*
X208984999Y-157838589D01*
X235715000Y-157838589D01*
X235715000Y-158111411D01*
X235768225Y-158378989D01*
X235872629Y-158631043D01*
X236024201Y-158857886D01*
X236217114Y-159050799D01*
X236443957Y-159202371D01*
X236696011Y-159306775D01*
X236963589Y-159360000D01*
X237236411Y-159360000D01*
X237503989Y-159306775D01*
X237756043Y-159202371D01*
X237982886Y-159050799D01*
X238175799Y-158857886D01*
X238327371Y-158631043D01*
X238431775Y-158378989D01*
X238485000Y-158111411D01*
X238485000Y-157838589D01*
X246315000Y-157838589D01*
X246315000Y-158111411D01*
X246368225Y-158378989D01*
X246472629Y-158631043D01*
X246624201Y-158857886D01*
X246817114Y-159050799D01*
X247043957Y-159202371D01*
X247296011Y-159306775D01*
X247563589Y-159360000D01*
X247836411Y-159360000D01*
X248103989Y-159306775D01*
X248356043Y-159202371D01*
X248582886Y-159050799D01*
X248775799Y-158857886D01*
X248927371Y-158631043D01*
X249031775Y-158378989D01*
X249085000Y-158111411D01*
X249085000Y-157838589D01*
X270190000Y-157838589D01*
X270190000Y-158111411D01*
X270243225Y-158378989D01*
X270347629Y-158631043D01*
X270499201Y-158857886D01*
X270692114Y-159050799D01*
X270918957Y-159202371D01*
X271171011Y-159306775D01*
X271438589Y-159360000D01*
X271711411Y-159360000D01*
X271978989Y-159306775D01*
X272231043Y-159202371D01*
X272457886Y-159050799D01*
X272650799Y-158857886D01*
X272802371Y-158631043D01*
X272906775Y-158378989D01*
X272960000Y-158111411D01*
X272960000Y-157838589D01*
X280790000Y-157838589D01*
X280790000Y-158111411D01*
X280843225Y-158378989D01*
X280947629Y-158631043D01*
X281099201Y-158857886D01*
X281292114Y-159050799D01*
X281518957Y-159202371D01*
X281771011Y-159306775D01*
X282038589Y-159360000D01*
X282311411Y-159360000D01*
X282578989Y-159306775D01*
X282831043Y-159202371D01*
X283057886Y-159050799D01*
X283250799Y-158857886D01*
X283402371Y-158631043D01*
X283506775Y-158378989D01*
X283560000Y-158111411D01*
X283560000Y-157838589D01*
X283506775Y-157571011D01*
X283402371Y-157318957D01*
X283250799Y-157092114D01*
X283057886Y-156899201D01*
X282831043Y-156747629D01*
X282578989Y-156643225D01*
X282311411Y-156590000D01*
X282038589Y-156590000D01*
X281771011Y-156643225D01*
X281518957Y-156747629D01*
X281292114Y-156899201D01*
X281099201Y-157092114D01*
X280947629Y-157318957D01*
X280843225Y-157571011D01*
X280790000Y-157838589D01*
X272960000Y-157838589D01*
X272906775Y-157571011D01*
X272802371Y-157318957D01*
X272650799Y-157092114D01*
X272457886Y-156899201D01*
X272231043Y-156747629D01*
X271978989Y-156643225D01*
X271711411Y-156590000D01*
X271438589Y-156590000D01*
X271171011Y-156643225D01*
X270918957Y-156747629D01*
X270692114Y-156899201D01*
X270499201Y-157092114D01*
X270347629Y-157318957D01*
X270243225Y-157571011D01*
X270190000Y-157838589D01*
X249085000Y-157838589D01*
X249031775Y-157571011D01*
X248927371Y-157318957D01*
X248775799Y-157092114D01*
X248582886Y-156899201D01*
X248356043Y-156747629D01*
X248103989Y-156643225D01*
X247836411Y-156590000D01*
X247563589Y-156590000D01*
X247296011Y-156643225D01*
X247043957Y-156747629D01*
X246817114Y-156899201D01*
X246624201Y-157092114D01*
X246472629Y-157318957D01*
X246368225Y-157571011D01*
X246315000Y-157838589D01*
X238485000Y-157838589D01*
X238431775Y-157571011D01*
X238327371Y-157318957D01*
X238175799Y-157092114D01*
X237982886Y-156899201D01*
X237756043Y-156747629D01*
X237503989Y-156643225D01*
X237236411Y-156590000D01*
X236963589Y-156590000D01*
X236696011Y-156643225D01*
X236443957Y-156747629D01*
X236217114Y-156899201D01*
X236024201Y-157092114D01*
X235872629Y-157318957D01*
X235768225Y-157571011D01*
X235715000Y-157838589D01*
X208984999Y-157838589D01*
X208984999Y-155863072D01*
X210250000Y-155863072D01*
X210374482Y-155850812D01*
X210494180Y-155814502D01*
X210604494Y-155755537D01*
X210701185Y-155676185D01*
X210780537Y-155579494D01*
X210839502Y-155469180D01*
X210875812Y-155349482D01*
X210888072Y-155225000D01*
X210888072Y-154238589D01*
X235515000Y-154238589D01*
X235515000Y-154511411D01*
X235568225Y-154778989D01*
X235672629Y-155031043D01*
X235824201Y-155257886D01*
X236017114Y-155450799D01*
X236243957Y-155602371D01*
X236496011Y-155706775D01*
X236763589Y-155760000D01*
X237036411Y-155760000D01*
X237303989Y-155706775D01*
X237556043Y-155602371D01*
X237782886Y-155450799D01*
X237975799Y-155257886D01*
X238127371Y-155031043D01*
X238231775Y-154778989D01*
X238285000Y-154511411D01*
X238285000Y-154238589D01*
X238260511Y-154115475D01*
X239765000Y-154115475D01*
X239765000Y-154634525D01*
X239866261Y-155143601D01*
X240064893Y-155623141D01*
X240353262Y-156054715D01*
X240720285Y-156421738D01*
X241151859Y-156710107D01*
X241631399Y-156908739D01*
X242140475Y-157010000D01*
X242659525Y-157010000D01*
X243168601Y-156908739D01*
X243648141Y-156710107D01*
X244079715Y-156421738D01*
X244446738Y-156054715D01*
X244735107Y-155623141D01*
X244933739Y-155143601D01*
X245035000Y-154634525D01*
X245035000Y-154238589D01*
X246515000Y-154238589D01*
X246515000Y-154511411D01*
X246568225Y-154778989D01*
X246672629Y-155031043D01*
X246824201Y-155257886D01*
X247017114Y-155450799D01*
X247243957Y-155602371D01*
X247496011Y-155706775D01*
X247763589Y-155760000D01*
X248036411Y-155760000D01*
X248303989Y-155706775D01*
X248556043Y-155602371D01*
X248782886Y-155450799D01*
X248975799Y-155257886D01*
X249127371Y-155031043D01*
X249231775Y-154778989D01*
X249285000Y-154511411D01*
X249285000Y-154238589D01*
X269990000Y-154238589D01*
X269990000Y-154511411D01*
X270043225Y-154778989D01*
X270147629Y-155031043D01*
X270299201Y-155257886D01*
X270492114Y-155450799D01*
X270718957Y-155602371D01*
X270971011Y-155706775D01*
X271238589Y-155760000D01*
X271511411Y-155760000D01*
X271778989Y-155706775D01*
X272031043Y-155602371D01*
X272257886Y-155450799D01*
X272450799Y-155257886D01*
X272602371Y-155031043D01*
X272706775Y-154778989D01*
X272760000Y-154511411D01*
X272760000Y-154238589D01*
X272735511Y-154115475D01*
X274240000Y-154115475D01*
X274240000Y-154634525D01*
X274341261Y-155143601D01*
X274539893Y-155623141D01*
X274828262Y-156054715D01*
X275195285Y-156421738D01*
X275626859Y-156710107D01*
X276106399Y-156908739D01*
X276615475Y-157010000D01*
X277134525Y-157010000D01*
X277643601Y-156908739D01*
X278123141Y-156710107D01*
X278554715Y-156421738D01*
X278921738Y-156054715D01*
X279210107Y-155623141D01*
X279408739Y-155143601D01*
X279510000Y-154634525D01*
X279510000Y-154238589D01*
X280990000Y-154238589D01*
X280990000Y-154511411D01*
X281043225Y-154778989D01*
X281147629Y-155031043D01*
X281299201Y-155257886D01*
X281492114Y-155450799D01*
X281718957Y-155602371D01*
X281971011Y-155706775D01*
X282238589Y-155760000D01*
X282511411Y-155760000D01*
X282778989Y-155706775D01*
X283031043Y-155602371D01*
X283257886Y-155450799D01*
X283450799Y-155257886D01*
X283602371Y-155031043D01*
X283706775Y-154778989D01*
X283760000Y-154511411D01*
X283760000Y-154238589D01*
X283706775Y-153971011D01*
X283602371Y-153718957D01*
X283450799Y-153492114D01*
X283257886Y-153299201D01*
X283031043Y-153147629D01*
X282778989Y-153043225D01*
X282511411Y-152990000D01*
X282238589Y-152990000D01*
X281971011Y-153043225D01*
X281718957Y-153147629D01*
X281492114Y-153299201D01*
X281299201Y-153492114D01*
X281147629Y-153718957D01*
X281043225Y-153971011D01*
X280990000Y-154238589D01*
X279510000Y-154238589D01*
X279510000Y-154115475D01*
X279408739Y-153606399D01*
X279210107Y-153126859D01*
X278921738Y-152695285D01*
X278554715Y-152328262D01*
X278123141Y-152039893D01*
X277643601Y-151841261D01*
X277134525Y-151740000D01*
X276615475Y-151740000D01*
X276106399Y-151841261D01*
X275626859Y-152039893D01*
X275195285Y-152328262D01*
X274828262Y-152695285D01*
X274539893Y-153126859D01*
X274341261Y-153606399D01*
X274240000Y-154115475D01*
X272735511Y-154115475D01*
X272706775Y-153971011D01*
X272602371Y-153718957D01*
X272450799Y-153492114D01*
X272257886Y-153299201D01*
X272031043Y-153147629D01*
X271778989Y-153043225D01*
X271511411Y-152990000D01*
X271238589Y-152990000D01*
X270971011Y-153043225D01*
X270718957Y-153147629D01*
X270492114Y-153299201D01*
X270299201Y-153492114D01*
X270147629Y-153718957D01*
X270043225Y-153971011D01*
X269990000Y-154238589D01*
X249285000Y-154238589D01*
X249231775Y-153971011D01*
X249127371Y-153718957D01*
X248975799Y-153492114D01*
X248782886Y-153299201D01*
X248556043Y-153147629D01*
X248303989Y-153043225D01*
X248036411Y-152990000D01*
X247763589Y-152990000D01*
X247496011Y-153043225D01*
X247243957Y-153147629D01*
X247017114Y-153299201D01*
X246824201Y-153492114D01*
X246672629Y-153718957D01*
X246568225Y-153971011D01*
X246515000Y-154238589D01*
X245035000Y-154238589D01*
X245035000Y-154115475D01*
X244933739Y-153606399D01*
X244735107Y-153126859D01*
X244446738Y-152695285D01*
X244079715Y-152328262D01*
X243648141Y-152039893D01*
X243168601Y-151841261D01*
X242659525Y-151740000D01*
X242140475Y-151740000D01*
X241631399Y-151841261D01*
X241151859Y-152039893D01*
X240720285Y-152328262D01*
X240353262Y-152695285D01*
X240064893Y-153126859D01*
X239866261Y-153606399D01*
X239765000Y-154115475D01*
X238260511Y-154115475D01*
X238231775Y-153971011D01*
X238127371Y-153718957D01*
X237975799Y-153492114D01*
X237782886Y-153299201D01*
X237556043Y-153147629D01*
X237303989Y-153043225D01*
X237036411Y-152990000D01*
X236763589Y-152990000D01*
X236496011Y-153043225D01*
X236243957Y-153147629D01*
X236017114Y-153299201D01*
X235824201Y-153492114D01*
X235672629Y-153718957D01*
X235568225Y-153971011D01*
X235515000Y-154238589D01*
X210888072Y-154238589D01*
X210888072Y-153525000D01*
X210875812Y-153400518D01*
X210839502Y-153280820D01*
X210780537Y-153170506D01*
X210701185Y-153073815D01*
X210604494Y-152994463D01*
X210494180Y-152935498D01*
X210421620Y-152913487D01*
X210553475Y-152781632D01*
X210715990Y-152538411D01*
X210827932Y-152268158D01*
X210885000Y-151981260D01*
X210885000Y-151688740D01*
X210827932Y-151401842D01*
X210715990Y-151131589D01*
X210553475Y-150888368D01*
X210346632Y-150681525D01*
X210282374Y-150638589D01*
X235715000Y-150638589D01*
X235715000Y-150911411D01*
X235768225Y-151178989D01*
X235872629Y-151431043D01*
X236024201Y-151657886D01*
X236217114Y-151850799D01*
X236443957Y-152002371D01*
X236696011Y-152106775D01*
X236963589Y-152160000D01*
X237236411Y-152160000D01*
X237503989Y-152106775D01*
X237756043Y-152002371D01*
X237982886Y-151850799D01*
X238175799Y-151657886D01*
X238327371Y-151431043D01*
X238431775Y-151178989D01*
X238485000Y-150911411D01*
X238485000Y-150638589D01*
X246315000Y-150638589D01*
X246315000Y-150911411D01*
X246368225Y-151178989D01*
X246472629Y-151431043D01*
X246624201Y-151657886D01*
X246817114Y-151850799D01*
X247043957Y-152002371D01*
X247296011Y-152106775D01*
X247563589Y-152160000D01*
X247836411Y-152160000D01*
X248103989Y-152106775D01*
X248356043Y-152002371D01*
X248582886Y-151850799D01*
X248775799Y-151657886D01*
X248927371Y-151431043D01*
X249031775Y-151178989D01*
X249085000Y-150911411D01*
X249085000Y-150638589D01*
X270190000Y-150638589D01*
X270190000Y-150911411D01*
X270243225Y-151178989D01*
X270347629Y-151431043D01*
X270499201Y-151657886D01*
X270692114Y-151850799D01*
X270918957Y-152002371D01*
X271171011Y-152106775D01*
X271438589Y-152160000D01*
X271711411Y-152160000D01*
X271978989Y-152106775D01*
X272231043Y-152002371D01*
X272457886Y-151850799D01*
X272650799Y-151657886D01*
X272802371Y-151431043D01*
X272906775Y-151178989D01*
X272960000Y-150911411D01*
X272960000Y-150638589D01*
X280790000Y-150638589D01*
X280790000Y-150911411D01*
X280843225Y-151178989D01*
X280947629Y-151431043D01*
X281099201Y-151657886D01*
X281292114Y-151850799D01*
X281518957Y-152002371D01*
X281771011Y-152106775D01*
X282038589Y-152160000D01*
X282311411Y-152160000D01*
X282578989Y-152106775D01*
X282831043Y-152002371D01*
X283057886Y-151850799D01*
X283250799Y-151657886D01*
X283402371Y-151431043D01*
X283506775Y-151178989D01*
X283560000Y-150911411D01*
X283560000Y-150638589D01*
X283506775Y-150371011D01*
X283402371Y-150118957D01*
X283250799Y-149892114D01*
X283057886Y-149699201D01*
X282831043Y-149547629D01*
X282578989Y-149443225D01*
X282311411Y-149390000D01*
X282038589Y-149390000D01*
X281771011Y-149443225D01*
X281518957Y-149547629D01*
X281292114Y-149699201D01*
X281099201Y-149892114D01*
X280947629Y-150118957D01*
X280843225Y-150371011D01*
X280790000Y-150638589D01*
X272960000Y-150638589D01*
X272906775Y-150371011D01*
X272802371Y-150118957D01*
X272650799Y-149892114D01*
X272457886Y-149699201D01*
X272231043Y-149547629D01*
X271978989Y-149443225D01*
X271711411Y-149390000D01*
X271438589Y-149390000D01*
X271171011Y-149443225D01*
X270918957Y-149547629D01*
X270692114Y-149699201D01*
X270499201Y-149892114D01*
X270347629Y-150118957D01*
X270243225Y-150371011D01*
X270190000Y-150638589D01*
X249085000Y-150638589D01*
X249031775Y-150371011D01*
X248927371Y-150118957D01*
X248775799Y-149892114D01*
X248582886Y-149699201D01*
X248356043Y-149547629D01*
X248103989Y-149443225D01*
X247836411Y-149390000D01*
X247563589Y-149390000D01*
X247296011Y-149443225D01*
X247043957Y-149547629D01*
X246817114Y-149699201D01*
X246624201Y-149892114D01*
X246472629Y-150118957D01*
X246368225Y-150371011D01*
X246315000Y-150638589D01*
X238485000Y-150638589D01*
X238431775Y-150371011D01*
X238327371Y-150118957D01*
X238175799Y-149892114D01*
X237982886Y-149699201D01*
X237756043Y-149547629D01*
X237503989Y-149443225D01*
X237236411Y-149390000D01*
X236963589Y-149390000D01*
X236696011Y-149443225D01*
X236443957Y-149547629D01*
X236217114Y-149699201D01*
X236024201Y-149892114D01*
X235872629Y-150118957D01*
X235768225Y-150371011D01*
X235715000Y-150638589D01*
X210282374Y-150638589D01*
X210103411Y-150519010D01*
X209833158Y-150407068D01*
X209546260Y-150350000D01*
X209253740Y-150350000D01*
X208966842Y-150407068D01*
X208696589Y-150519010D01*
X208453368Y-150681525D01*
X208246525Y-150888368D01*
X208084010Y-151131589D01*
X207972068Y-151401842D01*
X207915000Y-151688740D01*
X207915000Y-151981260D01*
X207958791Y-152201408D01*
X207713997Y-152446202D01*
X207684999Y-152470000D01*
X207661201Y-152498998D01*
X207661200Y-152498999D01*
X207590025Y-152585725D01*
X207519453Y-152717755D01*
X207475997Y-152861016D01*
X207461323Y-153010001D01*
X182136963Y-153010001D01*
X182036411Y-152990000D01*
X181763589Y-152990000D01*
X181496011Y-153043225D01*
X181243957Y-153147629D01*
X181017114Y-153299201D01*
X180824201Y-153492114D01*
X180672629Y-153718957D01*
X180568225Y-153971011D01*
X180515000Y-154238589D01*
X179035000Y-154238589D01*
X179035000Y-154115475D01*
X178933739Y-153606399D01*
X178735107Y-153126859D01*
X178446738Y-152695285D01*
X178079715Y-152328262D01*
X177648141Y-152039893D01*
X177168601Y-151841261D01*
X176659525Y-151740000D01*
X176140475Y-151740000D01*
X175631399Y-151841261D01*
X175151859Y-152039893D01*
X174720285Y-152328262D01*
X174353262Y-152695285D01*
X174064893Y-153126859D01*
X173866261Y-153606399D01*
X173765000Y-154115475D01*
X172260511Y-154115475D01*
X172231775Y-153971011D01*
X172127371Y-153718957D01*
X171975799Y-153492114D01*
X171782886Y-153299201D01*
X171556043Y-153147629D01*
X171303989Y-153043225D01*
X171036411Y-152990000D01*
X170763589Y-152990000D01*
X170496011Y-153043225D01*
X170243957Y-153147629D01*
X170017114Y-153299201D01*
X169824201Y-153492114D01*
X169672629Y-153718957D01*
X169568225Y-153971011D01*
X169515000Y-154238589D01*
X148810000Y-154238589D01*
X148756775Y-153971011D01*
X148652371Y-153718957D01*
X148500799Y-153492114D01*
X148307886Y-153299201D01*
X148081043Y-153147629D01*
X147828989Y-153043225D01*
X147561411Y-152990000D01*
X147288589Y-152990000D01*
X147021011Y-153043225D01*
X146768957Y-153147629D01*
X146542114Y-153299201D01*
X146349201Y-153492114D01*
X146197629Y-153718957D01*
X146093225Y-153971011D01*
X146040000Y-154238589D01*
X144560000Y-154238589D01*
X144560000Y-154115475D01*
X144458739Y-153606399D01*
X144260107Y-153126859D01*
X143971738Y-152695285D01*
X143604715Y-152328262D01*
X143173141Y-152039893D01*
X142693601Y-151841261D01*
X142184525Y-151740000D01*
X141665475Y-151740000D01*
X141156399Y-151841261D01*
X140676859Y-152039893D01*
X140245285Y-152328262D01*
X139878262Y-152695285D01*
X139589893Y-153126859D01*
X139391261Y-153606399D01*
X139290000Y-154115475D01*
X137785511Y-154115475D01*
X137756775Y-153971011D01*
X137652371Y-153718957D01*
X137500799Y-153492114D01*
X137307886Y-153299201D01*
X137081043Y-153147629D01*
X136828989Y-153043225D01*
X136561411Y-152990000D01*
X136288589Y-152990000D01*
X136021011Y-153043225D01*
X135768957Y-153147629D01*
X135542114Y-153299201D01*
X135349201Y-153492114D01*
X135197629Y-153718957D01*
X135093225Y-153971011D01*
X135040000Y-154238589D01*
X95110000Y-154238589D01*
X95110000Y-150638589D01*
X135240000Y-150638589D01*
X135240000Y-150911411D01*
X135293225Y-151178989D01*
X135397629Y-151431043D01*
X135549201Y-151657886D01*
X135742114Y-151850799D01*
X135968957Y-152002371D01*
X136221011Y-152106775D01*
X136488589Y-152160000D01*
X136761411Y-152160000D01*
X137028989Y-152106775D01*
X137281043Y-152002371D01*
X137507886Y-151850799D01*
X137700799Y-151657886D01*
X137852371Y-151431043D01*
X137956775Y-151178989D01*
X138010000Y-150911411D01*
X138010000Y-150638589D01*
X145840000Y-150638589D01*
X145840000Y-150911411D01*
X145893225Y-151178989D01*
X145997629Y-151431043D01*
X146149201Y-151657886D01*
X146342114Y-151850799D01*
X146568957Y-152002371D01*
X146821011Y-152106775D01*
X147088589Y-152160000D01*
X147361411Y-152160000D01*
X147628989Y-152106775D01*
X147881043Y-152002371D01*
X148107886Y-151850799D01*
X148300799Y-151657886D01*
X148452371Y-151431043D01*
X148556775Y-151178989D01*
X148610000Y-150911411D01*
X148610000Y-150638589D01*
X169715000Y-150638589D01*
X169715000Y-150911411D01*
X169768225Y-151178989D01*
X169872629Y-151431043D01*
X170024201Y-151657886D01*
X170217114Y-151850799D01*
X170443957Y-152002371D01*
X170696011Y-152106775D01*
X170963589Y-152160000D01*
X171236411Y-152160000D01*
X171503989Y-152106775D01*
X171756043Y-152002371D01*
X171982886Y-151850799D01*
X172175799Y-151657886D01*
X172327371Y-151431043D01*
X172431775Y-151178989D01*
X172485000Y-150911411D01*
X172485000Y-150638589D01*
X180315000Y-150638589D01*
X180315000Y-150911411D01*
X180368225Y-151178989D01*
X180472629Y-151431043D01*
X180624201Y-151657886D01*
X180817114Y-151850799D01*
X181043957Y-152002371D01*
X181296011Y-152106775D01*
X181563589Y-152160000D01*
X181836411Y-152160000D01*
X182103989Y-152106775D01*
X182356043Y-152002371D01*
X182582886Y-151850799D01*
X182775799Y-151657886D01*
X182927371Y-151431043D01*
X183031775Y-151178989D01*
X183085000Y-150911411D01*
X183085000Y-150638589D01*
X183031775Y-150371011D01*
X182927371Y-150118957D01*
X182775799Y-149892114D01*
X182582886Y-149699201D01*
X182356043Y-149547629D01*
X182103989Y-149443225D01*
X181836411Y-149390000D01*
X181563589Y-149390000D01*
X181296011Y-149443225D01*
X181043957Y-149547629D01*
X180817114Y-149699201D01*
X180624201Y-149892114D01*
X180472629Y-150118957D01*
X180368225Y-150371011D01*
X180315000Y-150638589D01*
X172485000Y-150638589D01*
X172431775Y-150371011D01*
X172327371Y-150118957D01*
X172175799Y-149892114D01*
X171982886Y-149699201D01*
X171756043Y-149547629D01*
X171503989Y-149443225D01*
X171236411Y-149390000D01*
X170963589Y-149390000D01*
X170696011Y-149443225D01*
X170443957Y-149547629D01*
X170217114Y-149699201D01*
X170024201Y-149892114D01*
X169872629Y-150118957D01*
X169768225Y-150371011D01*
X169715000Y-150638589D01*
X148610000Y-150638589D01*
X148556775Y-150371011D01*
X148452371Y-150118957D01*
X148300799Y-149892114D01*
X148107886Y-149699201D01*
X147881043Y-149547629D01*
X147628989Y-149443225D01*
X147361411Y-149390000D01*
X147088589Y-149390000D01*
X146821011Y-149443225D01*
X146568957Y-149547629D01*
X146342114Y-149699201D01*
X146149201Y-149892114D01*
X145997629Y-150118957D01*
X145893225Y-150371011D01*
X145840000Y-150638589D01*
X138010000Y-150638589D01*
X137956775Y-150371011D01*
X137852371Y-150118957D01*
X137700799Y-149892114D01*
X137507886Y-149699201D01*
X137281043Y-149547629D01*
X137028989Y-149443225D01*
X136761411Y-149390000D01*
X136488589Y-149390000D01*
X136221011Y-149443225D01*
X135968957Y-149547629D01*
X135742114Y-149699201D01*
X135549201Y-149892114D01*
X135397629Y-150118957D01*
X135293225Y-150371011D01*
X135240000Y-150638589D01*
X95110000Y-150638589D01*
X95110000Y-147438589D01*
X137140000Y-147438589D01*
X137140000Y-147711411D01*
X137193225Y-147978989D01*
X137297629Y-148231043D01*
X137449201Y-148457886D01*
X137642114Y-148650799D01*
X137868957Y-148802371D01*
X138121011Y-148906775D01*
X138388589Y-148960000D01*
X138661411Y-148960000D01*
X138928989Y-148906775D01*
X139181043Y-148802371D01*
X139407886Y-148650799D01*
X139600799Y-148457886D01*
X139752371Y-148231043D01*
X139856775Y-147978989D01*
X139910000Y-147711411D01*
X139910000Y-147438589D01*
X139856775Y-147171011D01*
X139752371Y-146918957D01*
X139600799Y-146692114D01*
X139407886Y-146499201D01*
X139181043Y-146347629D01*
X138928989Y-146243225D01*
X138905683Y-146238589D01*
X140540000Y-146238589D01*
X140540000Y-146511411D01*
X140593225Y-146778989D01*
X140697629Y-147031043D01*
X140849201Y-147257886D01*
X141042114Y-147450799D01*
X141268957Y-147602371D01*
X141521011Y-147706775D01*
X141788589Y-147760000D01*
X142061411Y-147760000D01*
X142328989Y-147706775D01*
X142581043Y-147602371D01*
X142807886Y-147450799D01*
X142820096Y-147438589D01*
X143940000Y-147438589D01*
X143940000Y-147711411D01*
X143993225Y-147978989D01*
X144097629Y-148231043D01*
X144249201Y-148457886D01*
X144442114Y-148650799D01*
X144668957Y-148802371D01*
X144921011Y-148906775D01*
X145188589Y-148960000D01*
X145461411Y-148960000D01*
X145728989Y-148906775D01*
X145981043Y-148802371D01*
X146207886Y-148650799D01*
X146400799Y-148457886D01*
X146552371Y-148231043D01*
X146656775Y-147978989D01*
X146710000Y-147711411D01*
X146710000Y-147438589D01*
X171615000Y-147438589D01*
X171615000Y-147711411D01*
X171668225Y-147978989D01*
X171772629Y-148231043D01*
X171924201Y-148457886D01*
X172117114Y-148650799D01*
X172343957Y-148802371D01*
X172596011Y-148906775D01*
X172863589Y-148960000D01*
X173136411Y-148960000D01*
X173403989Y-148906775D01*
X173656043Y-148802371D01*
X173882886Y-148650799D01*
X174075799Y-148457886D01*
X174227371Y-148231043D01*
X174331775Y-147978989D01*
X174385000Y-147711411D01*
X174385000Y-147438589D01*
X174331775Y-147171011D01*
X174227371Y-146918957D01*
X174075799Y-146692114D01*
X173882886Y-146499201D01*
X173656043Y-146347629D01*
X173403989Y-146243225D01*
X173380683Y-146238589D01*
X175015000Y-146238589D01*
X175015000Y-146511411D01*
X175068225Y-146778989D01*
X175172629Y-147031043D01*
X175324201Y-147257886D01*
X175517114Y-147450799D01*
X175743957Y-147602371D01*
X175996011Y-147706775D01*
X176263589Y-147760000D01*
X176536411Y-147760000D01*
X176803989Y-147706775D01*
X177056043Y-147602371D01*
X177282886Y-147450799D01*
X177295096Y-147438589D01*
X178415000Y-147438589D01*
X178415000Y-147711411D01*
X178468225Y-147978989D01*
X178572629Y-148231043D01*
X178724201Y-148457886D01*
X178917114Y-148650799D01*
X179143957Y-148802371D01*
X179396011Y-148906775D01*
X179663589Y-148960000D01*
X179936411Y-148960000D01*
X180203989Y-148906775D01*
X180456043Y-148802371D01*
X180682886Y-148650799D01*
X180875799Y-148457886D01*
X181027371Y-148231043D01*
X181131775Y-147978989D01*
X181185000Y-147711411D01*
X181185000Y-147438589D01*
X237615000Y-147438589D01*
X237615000Y-147711411D01*
X237668225Y-147978989D01*
X237772629Y-148231043D01*
X237924201Y-148457886D01*
X238117114Y-148650799D01*
X238343957Y-148802371D01*
X238596011Y-148906775D01*
X238863589Y-148960000D01*
X239136411Y-148960000D01*
X239403989Y-148906775D01*
X239656043Y-148802371D01*
X239882886Y-148650799D01*
X240075799Y-148457886D01*
X240227371Y-148231043D01*
X240331775Y-147978989D01*
X240385000Y-147711411D01*
X240385000Y-147438589D01*
X240331775Y-147171011D01*
X240227371Y-146918957D01*
X240075799Y-146692114D01*
X239882886Y-146499201D01*
X239656043Y-146347629D01*
X239403989Y-146243225D01*
X239380683Y-146238589D01*
X241015000Y-146238589D01*
X241015000Y-146511411D01*
X241068225Y-146778989D01*
X241172629Y-147031043D01*
X241324201Y-147257886D01*
X241517114Y-147450799D01*
X241743957Y-147602371D01*
X241996011Y-147706775D01*
X242263589Y-147760000D01*
X242536411Y-147760000D01*
X242803989Y-147706775D01*
X243056043Y-147602371D01*
X243282886Y-147450799D01*
X243295096Y-147438589D01*
X244415000Y-147438589D01*
X244415000Y-147711411D01*
X244468225Y-147978989D01*
X244572629Y-148231043D01*
X244724201Y-148457886D01*
X244917114Y-148650799D01*
X245143957Y-148802371D01*
X245396011Y-148906775D01*
X245663589Y-148960000D01*
X245936411Y-148960000D01*
X246203989Y-148906775D01*
X246456043Y-148802371D01*
X246682886Y-148650799D01*
X246875799Y-148457886D01*
X247027371Y-148231043D01*
X247131775Y-147978989D01*
X247185000Y-147711411D01*
X247185000Y-147438589D01*
X272090000Y-147438589D01*
X272090000Y-147711411D01*
X272143225Y-147978989D01*
X272247629Y-148231043D01*
X272399201Y-148457886D01*
X272592114Y-148650799D01*
X272818957Y-148802371D01*
X273071011Y-148906775D01*
X273338589Y-148960000D01*
X273611411Y-148960000D01*
X273878989Y-148906775D01*
X274131043Y-148802371D01*
X274357886Y-148650799D01*
X274550799Y-148457886D01*
X274702371Y-148231043D01*
X274806775Y-147978989D01*
X274860000Y-147711411D01*
X274860000Y-147438589D01*
X274806775Y-147171011D01*
X274702371Y-146918957D01*
X274550799Y-146692114D01*
X274357886Y-146499201D01*
X274131043Y-146347629D01*
X273878989Y-146243225D01*
X273855683Y-146238589D01*
X275490000Y-146238589D01*
X275490000Y-146511411D01*
X275543225Y-146778989D01*
X275647629Y-147031043D01*
X275799201Y-147257886D01*
X275992114Y-147450799D01*
X276218957Y-147602371D01*
X276471011Y-147706775D01*
X276738589Y-147760000D01*
X277011411Y-147760000D01*
X277278989Y-147706775D01*
X277531043Y-147602371D01*
X277757886Y-147450799D01*
X277770096Y-147438589D01*
X278890000Y-147438589D01*
X278890000Y-147711411D01*
X278943225Y-147978989D01*
X279047629Y-148231043D01*
X279199201Y-148457886D01*
X279392114Y-148650799D01*
X279618957Y-148802371D01*
X279871011Y-148906775D01*
X280138589Y-148960000D01*
X280411411Y-148960000D01*
X280678989Y-148906775D01*
X280931043Y-148802371D01*
X281157886Y-148650799D01*
X281350799Y-148457886D01*
X281502371Y-148231043D01*
X281606775Y-147978989D01*
X281660000Y-147711411D01*
X281660000Y-147438589D01*
X281606775Y-147171011D01*
X281502371Y-146918957D01*
X281350799Y-146692114D01*
X281157886Y-146499201D01*
X280931043Y-146347629D01*
X280678989Y-146243225D01*
X280411411Y-146190000D01*
X280138589Y-146190000D01*
X279871011Y-146243225D01*
X279618957Y-146347629D01*
X279392114Y-146499201D01*
X279199201Y-146692114D01*
X279047629Y-146918957D01*
X278943225Y-147171011D01*
X278890000Y-147438589D01*
X277770096Y-147438589D01*
X277950799Y-147257886D01*
X278102371Y-147031043D01*
X278206775Y-146778989D01*
X278260000Y-146511411D01*
X278260000Y-146238589D01*
X278206775Y-145971011D01*
X278102371Y-145718957D01*
X277950799Y-145492114D01*
X277757886Y-145299201D01*
X277531043Y-145147629D01*
X277278989Y-145043225D01*
X277011411Y-144990000D01*
X276738589Y-144990000D01*
X276471011Y-145043225D01*
X276218957Y-145147629D01*
X275992114Y-145299201D01*
X275799201Y-145492114D01*
X275647629Y-145718957D01*
X275543225Y-145971011D01*
X275490000Y-146238589D01*
X273855683Y-146238589D01*
X273611411Y-146190000D01*
X273338589Y-146190000D01*
X273071011Y-146243225D01*
X272818957Y-146347629D01*
X272592114Y-146499201D01*
X272399201Y-146692114D01*
X272247629Y-146918957D01*
X272143225Y-147171011D01*
X272090000Y-147438589D01*
X247185000Y-147438589D01*
X247131775Y-147171011D01*
X247027371Y-146918957D01*
X246875799Y-146692114D01*
X246682886Y-146499201D01*
X246456043Y-146347629D01*
X246203989Y-146243225D01*
X245936411Y-146190000D01*
X245663589Y-146190000D01*
X245396011Y-146243225D01*
X245143957Y-146347629D01*
X244917114Y-146499201D01*
X244724201Y-146692114D01*
X244572629Y-146918957D01*
X244468225Y-147171011D01*
X244415000Y-147438589D01*
X243295096Y-147438589D01*
X243475799Y-147257886D01*
X243627371Y-147031043D01*
X243731775Y-146778989D01*
X243785000Y-146511411D01*
X243785000Y-146238589D01*
X243731775Y-145971011D01*
X243627371Y-145718957D01*
X243475799Y-145492114D01*
X243282886Y-145299201D01*
X243056043Y-145147629D01*
X242803989Y-145043225D01*
X242536411Y-144990000D01*
X242263589Y-144990000D01*
X241996011Y-145043225D01*
X241743957Y-145147629D01*
X241517114Y-145299201D01*
X241324201Y-145492114D01*
X241172629Y-145718957D01*
X241068225Y-145971011D01*
X241015000Y-146238589D01*
X239380683Y-146238589D01*
X239136411Y-146190000D01*
X238863589Y-146190000D01*
X238596011Y-146243225D01*
X238343957Y-146347629D01*
X238117114Y-146499201D01*
X237924201Y-146692114D01*
X237772629Y-146918957D01*
X237668225Y-147171011D01*
X237615000Y-147438589D01*
X181185000Y-147438589D01*
X181131775Y-147171011D01*
X181027371Y-146918957D01*
X180875799Y-146692114D01*
X180682886Y-146499201D01*
X180456043Y-146347629D01*
X180203989Y-146243225D01*
X179936411Y-146190000D01*
X179663589Y-146190000D01*
X179396011Y-146243225D01*
X179143957Y-146347629D01*
X178917114Y-146499201D01*
X178724201Y-146692114D01*
X178572629Y-146918957D01*
X178468225Y-147171011D01*
X178415000Y-147438589D01*
X177295096Y-147438589D01*
X177475799Y-147257886D01*
X177627371Y-147031043D01*
X177731775Y-146778989D01*
X177785000Y-146511411D01*
X177785000Y-146238589D01*
X177731775Y-145971011D01*
X177627371Y-145718957D01*
X177475799Y-145492114D01*
X177282886Y-145299201D01*
X177056043Y-145147629D01*
X176803989Y-145043225D01*
X176536411Y-144990000D01*
X176263589Y-144990000D01*
X175996011Y-145043225D01*
X175743957Y-145147629D01*
X175517114Y-145299201D01*
X175324201Y-145492114D01*
X175172629Y-145718957D01*
X175068225Y-145971011D01*
X175015000Y-146238589D01*
X173380683Y-146238589D01*
X173136411Y-146190000D01*
X172863589Y-146190000D01*
X172596011Y-146243225D01*
X172343957Y-146347629D01*
X172117114Y-146499201D01*
X171924201Y-146692114D01*
X171772629Y-146918957D01*
X171668225Y-147171011D01*
X171615000Y-147438589D01*
X146710000Y-147438589D01*
X146656775Y-147171011D01*
X146552371Y-146918957D01*
X146400799Y-146692114D01*
X146207886Y-146499201D01*
X145981043Y-146347629D01*
X145728989Y-146243225D01*
X145461411Y-146190000D01*
X145188589Y-146190000D01*
X144921011Y-146243225D01*
X144668957Y-146347629D01*
X144442114Y-146499201D01*
X144249201Y-146692114D01*
X144097629Y-146918957D01*
X143993225Y-147171011D01*
X143940000Y-147438589D01*
X142820096Y-147438589D01*
X143000799Y-147257886D01*
X143152371Y-147031043D01*
X143256775Y-146778989D01*
X143310000Y-146511411D01*
X143310000Y-146238589D01*
X143256775Y-145971011D01*
X143152371Y-145718957D01*
X143000799Y-145492114D01*
X142807886Y-145299201D01*
X142581043Y-145147629D01*
X142328989Y-145043225D01*
X142061411Y-144990000D01*
X141788589Y-144990000D01*
X141521011Y-145043225D01*
X141268957Y-145147629D01*
X141042114Y-145299201D01*
X140849201Y-145492114D01*
X140697629Y-145718957D01*
X140593225Y-145971011D01*
X140540000Y-146238589D01*
X138905683Y-146238589D01*
X138661411Y-146190000D01*
X138388589Y-146190000D01*
X138121011Y-146243225D01*
X137868957Y-146347629D01*
X137642114Y-146499201D01*
X137449201Y-146692114D01*
X137297629Y-146918957D01*
X137193225Y-147171011D01*
X137140000Y-147438589D01*
X95110000Y-147438589D01*
X95110000Y-124432279D01*
X95129437Y-124234042D01*
X95215000Y-124234042D01*
X95215000Y-124565958D01*
X95279754Y-124891496D01*
X95406772Y-125198147D01*
X95591175Y-125474125D01*
X95825875Y-125708825D01*
X96101853Y-125893228D01*
X96408504Y-126020246D01*
X96734042Y-126085000D01*
X97065958Y-126085000D01*
X97391496Y-126020246D01*
X97698147Y-125893228D01*
X97974125Y-125708825D01*
X98057950Y-125625000D01*
X112511928Y-125625000D01*
X112511928Y-127075000D01*
X112528992Y-127248254D01*
X112579528Y-127414850D01*
X112661595Y-127568386D01*
X112772038Y-127702962D01*
X112906614Y-127813405D01*
X113060150Y-127895472D01*
X113226746Y-127946008D01*
X113400000Y-127963072D01*
X114600000Y-127963072D01*
X114773254Y-127946008D01*
X114939850Y-127895472D01*
X115093386Y-127813405D01*
X115227962Y-127702962D01*
X115338405Y-127568386D01*
X115392777Y-127466663D01*
X115444866Y-127530134D01*
X115670987Y-127715706D01*
X115928967Y-127853599D01*
X116208890Y-127938513D01*
X116500000Y-127967185D01*
X116791111Y-127938513D01*
X117071034Y-127853599D01*
X117329014Y-127715706D01*
X117555134Y-127530134D01*
X117740706Y-127304014D01*
X117750000Y-127286626D01*
X117759294Y-127304014D01*
X117944866Y-127530134D01*
X118170987Y-127715706D01*
X118428967Y-127853599D01*
X118708890Y-127938513D01*
X119000000Y-127967185D01*
X119291111Y-127938513D01*
X119571034Y-127853599D01*
X119829014Y-127715706D01*
X120055134Y-127530134D01*
X120240706Y-127304014D01*
X120250000Y-127286626D01*
X120259294Y-127304014D01*
X120444866Y-127530134D01*
X120670987Y-127715706D01*
X120928967Y-127853599D01*
X121208890Y-127938513D01*
X121500000Y-127967185D01*
X121791111Y-127938513D01*
X122071034Y-127853599D01*
X122329014Y-127715706D01*
X122555134Y-127530134D01*
X122740706Y-127304014D01*
X122750000Y-127286626D01*
X122759294Y-127304014D01*
X122944866Y-127530134D01*
X123170987Y-127715706D01*
X123428967Y-127853599D01*
X123708890Y-127938513D01*
X124000000Y-127967185D01*
X124291111Y-127938513D01*
X124571034Y-127853599D01*
X124829014Y-127715706D01*
X125055134Y-127530134D01*
X125240706Y-127304014D01*
X125250000Y-127286626D01*
X125259294Y-127304014D01*
X125444866Y-127530134D01*
X125670987Y-127715706D01*
X125928967Y-127853599D01*
X126208890Y-127938513D01*
X126500000Y-127967185D01*
X126791111Y-127938513D01*
X127071034Y-127853599D01*
X127329014Y-127715706D01*
X127555134Y-127530134D01*
X127740706Y-127304014D01*
X127750000Y-127286626D01*
X127759294Y-127304014D01*
X127944866Y-127530134D01*
X128170987Y-127715706D01*
X128428967Y-127853599D01*
X128708890Y-127938513D01*
X129000000Y-127967185D01*
X129291111Y-127938513D01*
X129571034Y-127853599D01*
X129829014Y-127715706D01*
X130055134Y-127530134D01*
X130240706Y-127304014D01*
X130250000Y-127286626D01*
X130259294Y-127304014D01*
X130444866Y-127530134D01*
X130670987Y-127715706D01*
X130928967Y-127853599D01*
X131208890Y-127938513D01*
X131500000Y-127967185D01*
X131791111Y-127938513D01*
X132071034Y-127853599D01*
X132329014Y-127715706D01*
X132555134Y-127530134D01*
X132740706Y-127304014D01*
X132750000Y-127286626D01*
X132759294Y-127304014D01*
X132944866Y-127530134D01*
X133170987Y-127715706D01*
X133428967Y-127853599D01*
X133708890Y-127938513D01*
X134000000Y-127967185D01*
X134291111Y-127938513D01*
X134571034Y-127853599D01*
X134829014Y-127715706D01*
X135055134Y-127530134D01*
X135240706Y-127304014D01*
X135250000Y-127286626D01*
X135259294Y-127304014D01*
X135444866Y-127530134D01*
X135670987Y-127715706D01*
X135928967Y-127853599D01*
X136208890Y-127938513D01*
X136500000Y-127967185D01*
X136791111Y-127938513D01*
X137071034Y-127853599D01*
X137329014Y-127715706D01*
X137555134Y-127530134D01*
X137740706Y-127304014D01*
X137878599Y-127046033D01*
X137963513Y-126766110D01*
X137985000Y-126547949D01*
X137985000Y-126152050D01*
X137963513Y-125933889D01*
X137878599Y-125653966D01*
X137863117Y-125625000D01*
X168161928Y-125625000D01*
X168161928Y-127075000D01*
X168178992Y-127248254D01*
X168229528Y-127414850D01*
X168311595Y-127568386D01*
X168422038Y-127702962D01*
X168556614Y-127813405D01*
X168710150Y-127895472D01*
X168876746Y-127946008D01*
X169050000Y-127963072D01*
X170250000Y-127963072D01*
X170423254Y-127946008D01*
X170589850Y-127895472D01*
X170743386Y-127813405D01*
X170877962Y-127702962D01*
X170988405Y-127568386D01*
X171042777Y-127466663D01*
X171094866Y-127530134D01*
X171320987Y-127715706D01*
X171578967Y-127853599D01*
X171858890Y-127938513D01*
X172150000Y-127967185D01*
X172441111Y-127938513D01*
X172721034Y-127853599D01*
X172979014Y-127715706D01*
X173205134Y-127530134D01*
X173390706Y-127304014D01*
X173400000Y-127286626D01*
X173409294Y-127304014D01*
X173594866Y-127530134D01*
X173820987Y-127715706D01*
X174078967Y-127853599D01*
X174358890Y-127938513D01*
X174650000Y-127967185D01*
X174941111Y-127938513D01*
X175221034Y-127853599D01*
X175479014Y-127715706D01*
X175705134Y-127530134D01*
X175890706Y-127304014D01*
X175900000Y-127286626D01*
X175909294Y-127304014D01*
X176094866Y-127530134D01*
X176320987Y-127715706D01*
X176578967Y-127853599D01*
X176858890Y-127938513D01*
X177150000Y-127967185D01*
X177441111Y-127938513D01*
X177721034Y-127853599D01*
X177979014Y-127715706D01*
X178205134Y-127530134D01*
X178390706Y-127304014D01*
X178400000Y-127286626D01*
X178409294Y-127304014D01*
X178594866Y-127530134D01*
X178820987Y-127715706D01*
X179078967Y-127853599D01*
X179358890Y-127938513D01*
X179650000Y-127967185D01*
X179941111Y-127938513D01*
X180221034Y-127853599D01*
X180479014Y-127715706D01*
X180705134Y-127530134D01*
X180890706Y-127304014D01*
X180900000Y-127286626D01*
X180909294Y-127304014D01*
X181094866Y-127530134D01*
X181320987Y-127715706D01*
X181578967Y-127853599D01*
X181858890Y-127938513D01*
X182150000Y-127967185D01*
X182441111Y-127938513D01*
X182721034Y-127853599D01*
X182979014Y-127715706D01*
X183205134Y-127530134D01*
X183390706Y-127304014D01*
X183400000Y-127286626D01*
X183409294Y-127304014D01*
X183594866Y-127530134D01*
X183820987Y-127715706D01*
X184078967Y-127853599D01*
X184358890Y-127938513D01*
X184650000Y-127967185D01*
X184941111Y-127938513D01*
X185221034Y-127853599D01*
X185479014Y-127715706D01*
X185705134Y-127530134D01*
X185890706Y-127304014D01*
X185900000Y-127286626D01*
X185909294Y-127304014D01*
X186094866Y-127530134D01*
X186320987Y-127715706D01*
X186578967Y-127853599D01*
X186858890Y-127938513D01*
X187150000Y-127967185D01*
X187441111Y-127938513D01*
X187721034Y-127853599D01*
X187979014Y-127715706D01*
X188205134Y-127530134D01*
X188390706Y-127304014D01*
X188400000Y-127286626D01*
X188409294Y-127304014D01*
X188594866Y-127530134D01*
X188820987Y-127715706D01*
X189078967Y-127853599D01*
X189358890Y-127938513D01*
X189650000Y-127967185D01*
X189941111Y-127938513D01*
X190221034Y-127853599D01*
X190479014Y-127715706D01*
X190705134Y-127530134D01*
X190890706Y-127304014D01*
X190900000Y-127286626D01*
X190909294Y-127304014D01*
X191094866Y-127530134D01*
X191320987Y-127715706D01*
X191578967Y-127853599D01*
X191858890Y-127938513D01*
X192150000Y-127967185D01*
X192441111Y-127938513D01*
X192721034Y-127853599D01*
X192979014Y-127715706D01*
X193205134Y-127530134D01*
X193390706Y-127304014D01*
X193528599Y-127046033D01*
X193613513Y-126766110D01*
X193635000Y-126547949D01*
X193635000Y-126152050D01*
X193613513Y-125933889D01*
X193528599Y-125653966D01*
X193513117Y-125625000D01*
X223711928Y-125625000D01*
X223711928Y-127075000D01*
X223728992Y-127248254D01*
X223779528Y-127414850D01*
X223861595Y-127568386D01*
X223972038Y-127702962D01*
X224106614Y-127813405D01*
X224260150Y-127895472D01*
X224426746Y-127946008D01*
X224600000Y-127963072D01*
X225800000Y-127963072D01*
X225973254Y-127946008D01*
X226139850Y-127895472D01*
X226293386Y-127813405D01*
X226427962Y-127702962D01*
X226538405Y-127568386D01*
X226592777Y-127466663D01*
X226644866Y-127530134D01*
X226870987Y-127715706D01*
X227128967Y-127853599D01*
X227408890Y-127938513D01*
X227700000Y-127967185D01*
X227991111Y-127938513D01*
X228271034Y-127853599D01*
X228529014Y-127715706D01*
X228755134Y-127530134D01*
X228940706Y-127304014D01*
X228950000Y-127286626D01*
X228959294Y-127304014D01*
X229144866Y-127530134D01*
X229370987Y-127715706D01*
X229628967Y-127853599D01*
X229908890Y-127938513D01*
X230200000Y-127967185D01*
X230491111Y-127938513D01*
X230771034Y-127853599D01*
X231029014Y-127715706D01*
X231255134Y-127530134D01*
X231440706Y-127304014D01*
X231450000Y-127286626D01*
X231459294Y-127304014D01*
X231644866Y-127530134D01*
X231870987Y-127715706D01*
X232128967Y-127853599D01*
X232408890Y-127938513D01*
X232700000Y-127967185D01*
X232991111Y-127938513D01*
X233271034Y-127853599D01*
X233529014Y-127715706D01*
X233755134Y-127530134D01*
X233940706Y-127304014D01*
X233950000Y-127286626D01*
X233959294Y-127304014D01*
X234144866Y-127530134D01*
X234370987Y-127715706D01*
X234628967Y-127853599D01*
X234908890Y-127938513D01*
X235200000Y-127967185D01*
X235491111Y-127938513D01*
X235771034Y-127853599D01*
X236029014Y-127715706D01*
X236255134Y-127530134D01*
X236440706Y-127304014D01*
X236450000Y-127286626D01*
X236459294Y-127304014D01*
X236644866Y-127530134D01*
X236870987Y-127715706D01*
X237128967Y-127853599D01*
X237408890Y-127938513D01*
X237700000Y-127967185D01*
X237991111Y-127938513D01*
X238271034Y-127853599D01*
X238529014Y-127715706D01*
X238755134Y-127530134D01*
X238940706Y-127304014D01*
X238950000Y-127286626D01*
X238959294Y-127304014D01*
X239144866Y-127530134D01*
X239370987Y-127715706D01*
X239628967Y-127853599D01*
X239908890Y-127938513D01*
X240200000Y-127967185D01*
X240491111Y-127938513D01*
X240771034Y-127853599D01*
X241029014Y-127715706D01*
X241255134Y-127530134D01*
X241440706Y-127304014D01*
X241450000Y-127286626D01*
X241459294Y-127304014D01*
X241644866Y-127530134D01*
X241870987Y-127715706D01*
X242128967Y-127853599D01*
X242408890Y-127938513D01*
X242700000Y-127967185D01*
X242991111Y-127938513D01*
X243271034Y-127853599D01*
X243529014Y-127715706D01*
X243755134Y-127530134D01*
X243940706Y-127304014D01*
X243950000Y-127286626D01*
X243959294Y-127304014D01*
X244144866Y-127530134D01*
X244370987Y-127715706D01*
X244628967Y-127853599D01*
X244908890Y-127938513D01*
X245200000Y-127967185D01*
X245491111Y-127938513D01*
X245771034Y-127853599D01*
X246029014Y-127715706D01*
X246255134Y-127530134D01*
X246440706Y-127304014D01*
X246450000Y-127286626D01*
X246459294Y-127304014D01*
X246644866Y-127530134D01*
X246870987Y-127715706D01*
X247128967Y-127853599D01*
X247408890Y-127938513D01*
X247700000Y-127967185D01*
X247991111Y-127938513D01*
X248271034Y-127853599D01*
X248529014Y-127715706D01*
X248755134Y-127530134D01*
X248940706Y-127304014D01*
X249078599Y-127046033D01*
X249163513Y-126766110D01*
X249185000Y-126547949D01*
X249185000Y-126152050D01*
X249163513Y-125933889D01*
X249078599Y-125653966D01*
X249063117Y-125625000D01*
X279111928Y-125625000D01*
X279111928Y-127075000D01*
X279128992Y-127248254D01*
X279179528Y-127414850D01*
X279261595Y-127568386D01*
X279372038Y-127702962D01*
X279506614Y-127813405D01*
X279660150Y-127895472D01*
X279826746Y-127946008D01*
X280000000Y-127963072D01*
X281200000Y-127963072D01*
X281373254Y-127946008D01*
X281539850Y-127895472D01*
X281693386Y-127813405D01*
X281827962Y-127702962D01*
X281938405Y-127568386D01*
X281992777Y-127466663D01*
X282044866Y-127530134D01*
X282270987Y-127715706D01*
X282528967Y-127853599D01*
X282808890Y-127938513D01*
X283100000Y-127967185D01*
X283391111Y-127938513D01*
X283671034Y-127853599D01*
X283929014Y-127715706D01*
X284155134Y-127530134D01*
X284340706Y-127304014D01*
X284350000Y-127286626D01*
X284359294Y-127304014D01*
X284544866Y-127530134D01*
X284770987Y-127715706D01*
X285028967Y-127853599D01*
X285308890Y-127938513D01*
X285600000Y-127967185D01*
X285891111Y-127938513D01*
X286171034Y-127853599D01*
X286429014Y-127715706D01*
X286655134Y-127530134D01*
X286840706Y-127304014D01*
X286850000Y-127286626D01*
X286859294Y-127304014D01*
X287044866Y-127530134D01*
X287270987Y-127715706D01*
X287528967Y-127853599D01*
X287808890Y-127938513D01*
X288100000Y-127967185D01*
X288391111Y-127938513D01*
X288671034Y-127853599D01*
X288929014Y-127715706D01*
X289155134Y-127530134D01*
X289340706Y-127304014D01*
X289350000Y-127286626D01*
X289359294Y-127304014D01*
X289544866Y-127530134D01*
X289770987Y-127715706D01*
X290028967Y-127853599D01*
X290308890Y-127938513D01*
X290600000Y-127967185D01*
X290891111Y-127938513D01*
X291171034Y-127853599D01*
X291429014Y-127715706D01*
X291655134Y-127530134D01*
X291840706Y-127304014D01*
X291850000Y-127286626D01*
X291859294Y-127304014D01*
X292044866Y-127530134D01*
X292270987Y-127715706D01*
X292528967Y-127853599D01*
X292808890Y-127938513D01*
X293100000Y-127967185D01*
X293391111Y-127938513D01*
X293671034Y-127853599D01*
X293929014Y-127715706D01*
X294155134Y-127530134D01*
X294340706Y-127304014D01*
X294350000Y-127286626D01*
X294359294Y-127304014D01*
X294544866Y-127530134D01*
X294770987Y-127715706D01*
X295028967Y-127853599D01*
X295308890Y-127938513D01*
X295600000Y-127967185D01*
X295891111Y-127938513D01*
X296171034Y-127853599D01*
X296429014Y-127715706D01*
X296655134Y-127530134D01*
X296840706Y-127304014D01*
X296850000Y-127286626D01*
X296859294Y-127304014D01*
X297044866Y-127530134D01*
X297270987Y-127715706D01*
X297528967Y-127853599D01*
X297808890Y-127938513D01*
X298100000Y-127967185D01*
X298391111Y-127938513D01*
X298671034Y-127853599D01*
X298929014Y-127715706D01*
X299155134Y-127530134D01*
X299340706Y-127304014D01*
X299350000Y-127286626D01*
X299359294Y-127304014D01*
X299544866Y-127530134D01*
X299770987Y-127715706D01*
X300028967Y-127853599D01*
X300308890Y-127938513D01*
X300600000Y-127967185D01*
X300891111Y-127938513D01*
X301171034Y-127853599D01*
X301429014Y-127715706D01*
X301655134Y-127530134D01*
X301840706Y-127304014D01*
X301850000Y-127286626D01*
X301859294Y-127304014D01*
X302044866Y-127530134D01*
X302270987Y-127715706D01*
X302528967Y-127853599D01*
X302808890Y-127938513D01*
X303100000Y-127967185D01*
X303391111Y-127938513D01*
X303671034Y-127853599D01*
X303929014Y-127715706D01*
X304155134Y-127530134D01*
X304340706Y-127304014D01*
X304478599Y-127046033D01*
X304563513Y-126766110D01*
X304585000Y-126547949D01*
X304585000Y-126152050D01*
X304563513Y-125933889D01*
X304478599Y-125653966D01*
X304340706Y-125395986D01*
X304155134Y-125169866D01*
X303929013Y-124984294D01*
X303671033Y-124846401D01*
X303391110Y-124761487D01*
X303100000Y-124732815D01*
X302808889Y-124761487D01*
X302528966Y-124846401D01*
X302270986Y-124984294D01*
X302044866Y-125169866D01*
X301859294Y-125395987D01*
X301850000Y-125413374D01*
X301840706Y-125395986D01*
X301655134Y-125169866D01*
X301429013Y-124984294D01*
X301171033Y-124846401D01*
X300891110Y-124761487D01*
X300600000Y-124732815D01*
X300308889Y-124761487D01*
X300028966Y-124846401D01*
X299770986Y-124984294D01*
X299544866Y-125169866D01*
X299359294Y-125395987D01*
X299350000Y-125413374D01*
X299340706Y-125395986D01*
X299155134Y-125169866D01*
X298929013Y-124984294D01*
X298671033Y-124846401D01*
X298391110Y-124761487D01*
X298100000Y-124732815D01*
X297808889Y-124761487D01*
X297528966Y-124846401D01*
X297270986Y-124984294D01*
X297044866Y-125169866D01*
X296859294Y-125395987D01*
X296850000Y-125413374D01*
X296840706Y-125395986D01*
X296655134Y-125169866D01*
X296429013Y-124984294D01*
X296171033Y-124846401D01*
X295891110Y-124761487D01*
X295600000Y-124732815D01*
X295308889Y-124761487D01*
X295028966Y-124846401D01*
X294770986Y-124984294D01*
X294544866Y-125169866D01*
X294359294Y-125395987D01*
X294350000Y-125413374D01*
X294340706Y-125395986D01*
X294155134Y-125169866D01*
X293929013Y-124984294D01*
X293671033Y-124846401D01*
X293391110Y-124761487D01*
X293100000Y-124732815D01*
X292808889Y-124761487D01*
X292528966Y-124846401D01*
X292270986Y-124984294D01*
X292044866Y-125169866D01*
X291859294Y-125395987D01*
X291850000Y-125413374D01*
X291840706Y-125395986D01*
X291655134Y-125169866D01*
X291429013Y-124984294D01*
X291171033Y-124846401D01*
X290891110Y-124761487D01*
X290600000Y-124732815D01*
X290308889Y-124761487D01*
X290028966Y-124846401D01*
X289770986Y-124984294D01*
X289544866Y-125169866D01*
X289359294Y-125395987D01*
X289350000Y-125413374D01*
X289340706Y-125395986D01*
X289155134Y-125169866D01*
X288929013Y-124984294D01*
X288671033Y-124846401D01*
X288391110Y-124761487D01*
X288100000Y-124732815D01*
X287808889Y-124761487D01*
X287528966Y-124846401D01*
X287270986Y-124984294D01*
X287044866Y-125169866D01*
X286859294Y-125395987D01*
X286850000Y-125413374D01*
X286840706Y-125395986D01*
X286655134Y-125169866D01*
X286429013Y-124984294D01*
X286171033Y-124846401D01*
X285891110Y-124761487D01*
X285600000Y-124732815D01*
X285308889Y-124761487D01*
X285028966Y-124846401D01*
X284770986Y-124984294D01*
X284544866Y-125169866D01*
X284359294Y-125395987D01*
X284350000Y-125413374D01*
X284340706Y-125395986D01*
X284155134Y-125169866D01*
X283929013Y-124984294D01*
X283671033Y-124846401D01*
X283391110Y-124761487D01*
X283100000Y-124732815D01*
X282808889Y-124761487D01*
X282528966Y-124846401D01*
X282270986Y-124984294D01*
X282044866Y-125169866D01*
X281992777Y-125233337D01*
X281938405Y-125131614D01*
X281827962Y-124997038D01*
X281693386Y-124886595D01*
X281539850Y-124804528D01*
X281373254Y-124753992D01*
X281200000Y-124736928D01*
X280000000Y-124736928D01*
X279826746Y-124753992D01*
X279660150Y-124804528D01*
X279506614Y-124886595D01*
X279372038Y-124997038D01*
X279261595Y-125131614D01*
X279179528Y-125285150D01*
X279128992Y-125451746D01*
X279111928Y-125625000D01*
X249063117Y-125625000D01*
X248940706Y-125395986D01*
X248755134Y-125169866D01*
X248529013Y-124984294D01*
X248271033Y-124846401D01*
X247991110Y-124761487D01*
X247700000Y-124732815D01*
X247408889Y-124761487D01*
X247128966Y-124846401D01*
X246870986Y-124984294D01*
X246644866Y-125169866D01*
X246459294Y-125395987D01*
X246450000Y-125413374D01*
X246440706Y-125395986D01*
X246255134Y-125169866D01*
X246029013Y-124984294D01*
X245771033Y-124846401D01*
X245491110Y-124761487D01*
X245200000Y-124732815D01*
X244908889Y-124761487D01*
X244628966Y-124846401D01*
X244370986Y-124984294D01*
X244144866Y-125169866D01*
X243959294Y-125395987D01*
X243950000Y-125413374D01*
X243940706Y-125395986D01*
X243755134Y-125169866D01*
X243529013Y-124984294D01*
X243271033Y-124846401D01*
X242991110Y-124761487D01*
X242700000Y-124732815D01*
X242408889Y-124761487D01*
X242128966Y-124846401D01*
X241870986Y-124984294D01*
X241644866Y-125169866D01*
X241459294Y-125395987D01*
X241450000Y-125413374D01*
X241440706Y-125395986D01*
X241255134Y-125169866D01*
X241029013Y-124984294D01*
X240771033Y-124846401D01*
X240491110Y-124761487D01*
X240200000Y-124732815D01*
X239908889Y-124761487D01*
X239628966Y-124846401D01*
X239370986Y-124984294D01*
X239144866Y-125169866D01*
X238959294Y-125395987D01*
X238950000Y-125413374D01*
X238940706Y-125395986D01*
X238755134Y-125169866D01*
X238529013Y-124984294D01*
X238271033Y-124846401D01*
X237991110Y-124761487D01*
X237700000Y-124732815D01*
X237408889Y-124761487D01*
X237128966Y-124846401D01*
X236870986Y-124984294D01*
X236644866Y-125169866D01*
X236459294Y-125395987D01*
X236450000Y-125413374D01*
X236440706Y-125395986D01*
X236255134Y-125169866D01*
X236029013Y-124984294D01*
X235771033Y-124846401D01*
X235491110Y-124761487D01*
X235200000Y-124732815D01*
X234908889Y-124761487D01*
X234628966Y-124846401D01*
X234370986Y-124984294D01*
X234144866Y-125169866D01*
X233959294Y-125395987D01*
X233950000Y-125413374D01*
X233940706Y-125395986D01*
X233755134Y-125169866D01*
X233529013Y-124984294D01*
X233271033Y-124846401D01*
X232991110Y-124761487D01*
X232700000Y-124732815D01*
X232408889Y-124761487D01*
X232128966Y-124846401D01*
X231870986Y-124984294D01*
X231644866Y-125169866D01*
X231459294Y-125395987D01*
X231450000Y-125413374D01*
X231440706Y-125395986D01*
X231255134Y-125169866D01*
X231029013Y-124984294D01*
X230771033Y-124846401D01*
X230491110Y-124761487D01*
X230200000Y-124732815D01*
X229908889Y-124761487D01*
X229628966Y-124846401D01*
X229370986Y-124984294D01*
X229144866Y-125169866D01*
X228959294Y-125395987D01*
X228950000Y-125413374D01*
X228940706Y-125395986D01*
X228755134Y-125169866D01*
X228529013Y-124984294D01*
X228271033Y-124846401D01*
X227991110Y-124761487D01*
X227700000Y-124732815D01*
X227408889Y-124761487D01*
X227128966Y-124846401D01*
X226870986Y-124984294D01*
X226644866Y-125169866D01*
X226592777Y-125233337D01*
X226538405Y-125131614D01*
X226427962Y-124997038D01*
X226293386Y-124886595D01*
X226139850Y-124804528D01*
X225973254Y-124753992D01*
X225800000Y-124736928D01*
X224600000Y-124736928D01*
X224426746Y-124753992D01*
X224260150Y-124804528D01*
X224106614Y-124886595D01*
X223972038Y-124997038D01*
X223861595Y-125131614D01*
X223779528Y-125285150D01*
X223728992Y-125451746D01*
X223711928Y-125625000D01*
X193513117Y-125625000D01*
X193390706Y-125395986D01*
X193205134Y-125169866D01*
X192979013Y-124984294D01*
X192721033Y-124846401D01*
X192441110Y-124761487D01*
X192150000Y-124732815D01*
X191858889Y-124761487D01*
X191578966Y-124846401D01*
X191320986Y-124984294D01*
X191094866Y-125169866D01*
X190909294Y-125395987D01*
X190900000Y-125413374D01*
X190890706Y-125395986D01*
X190705134Y-125169866D01*
X190479013Y-124984294D01*
X190221033Y-124846401D01*
X189941110Y-124761487D01*
X189650000Y-124732815D01*
X189358889Y-124761487D01*
X189078966Y-124846401D01*
X188820986Y-124984294D01*
X188594866Y-125169866D01*
X188409294Y-125395987D01*
X188400000Y-125413374D01*
X188390706Y-125395986D01*
X188205134Y-125169866D01*
X187979013Y-124984294D01*
X187721033Y-124846401D01*
X187441110Y-124761487D01*
X187150000Y-124732815D01*
X186858889Y-124761487D01*
X186578966Y-124846401D01*
X186320986Y-124984294D01*
X186094866Y-125169866D01*
X185909294Y-125395987D01*
X185900000Y-125413374D01*
X185890706Y-125395986D01*
X185705134Y-125169866D01*
X185479013Y-124984294D01*
X185221033Y-124846401D01*
X184941110Y-124761487D01*
X184650000Y-124732815D01*
X184358889Y-124761487D01*
X184078966Y-124846401D01*
X183820986Y-124984294D01*
X183594866Y-125169866D01*
X183409294Y-125395987D01*
X183400000Y-125413374D01*
X183390706Y-125395986D01*
X183205134Y-125169866D01*
X182979013Y-124984294D01*
X182721033Y-124846401D01*
X182441110Y-124761487D01*
X182150000Y-124732815D01*
X181858889Y-124761487D01*
X181578966Y-124846401D01*
X181320986Y-124984294D01*
X181094866Y-125169866D01*
X180909294Y-125395987D01*
X180900000Y-125413374D01*
X180890706Y-125395986D01*
X180705134Y-125169866D01*
X180479013Y-124984294D01*
X180221033Y-124846401D01*
X179941110Y-124761487D01*
X179650000Y-124732815D01*
X179358889Y-124761487D01*
X179078966Y-124846401D01*
X178820986Y-124984294D01*
X178594866Y-125169866D01*
X178409294Y-125395987D01*
X178400000Y-125413374D01*
X178390706Y-125395986D01*
X178205134Y-125169866D01*
X177979013Y-124984294D01*
X177721033Y-124846401D01*
X177441110Y-124761487D01*
X177150000Y-124732815D01*
X176858889Y-124761487D01*
X176578966Y-124846401D01*
X176320986Y-124984294D01*
X176094866Y-125169866D01*
X175909294Y-125395987D01*
X175900000Y-125413374D01*
X175890706Y-125395986D01*
X175705134Y-125169866D01*
X175479013Y-124984294D01*
X175221033Y-124846401D01*
X174941110Y-124761487D01*
X174650000Y-124732815D01*
X174358889Y-124761487D01*
X174078966Y-124846401D01*
X173820986Y-124984294D01*
X173594866Y-125169866D01*
X173409294Y-125395987D01*
X173400000Y-125413374D01*
X173390706Y-125395986D01*
X173205134Y-125169866D01*
X172979013Y-124984294D01*
X172721033Y-124846401D01*
X172441110Y-124761487D01*
X172150000Y-124732815D01*
X171858889Y-124761487D01*
X171578966Y-124846401D01*
X171320986Y-124984294D01*
X171094866Y-125169866D01*
X171042777Y-125233337D01*
X170988405Y-125131614D01*
X170877962Y-124997038D01*
X170743386Y-124886595D01*
X170589850Y-124804528D01*
X170423254Y-124753992D01*
X170250000Y-124736928D01*
X169050000Y-124736928D01*
X168876746Y-124753992D01*
X168710150Y-124804528D01*
X168556614Y-124886595D01*
X168422038Y-124997038D01*
X168311595Y-125131614D01*
X168229528Y-125285150D01*
X168178992Y-125451746D01*
X168161928Y-125625000D01*
X137863117Y-125625000D01*
X137740706Y-125395986D01*
X137555134Y-125169866D01*
X137329013Y-124984294D01*
X137071033Y-124846401D01*
X136791110Y-124761487D01*
X136500000Y-124732815D01*
X136208889Y-124761487D01*
X135928966Y-124846401D01*
X135670986Y-124984294D01*
X135444866Y-125169866D01*
X135259294Y-125395987D01*
X135250000Y-125413374D01*
X135240706Y-125395986D01*
X135055134Y-125169866D01*
X134829013Y-124984294D01*
X134571033Y-124846401D01*
X134291110Y-124761487D01*
X134000000Y-124732815D01*
X133708889Y-124761487D01*
X133428966Y-124846401D01*
X133170986Y-124984294D01*
X132944866Y-125169866D01*
X132759294Y-125395987D01*
X132750000Y-125413374D01*
X132740706Y-125395986D01*
X132555134Y-125169866D01*
X132329013Y-124984294D01*
X132071033Y-124846401D01*
X131791110Y-124761487D01*
X131500000Y-124732815D01*
X131208889Y-124761487D01*
X130928966Y-124846401D01*
X130670986Y-124984294D01*
X130444866Y-125169866D01*
X130259294Y-125395987D01*
X130250000Y-125413374D01*
X130240706Y-125395986D01*
X130055134Y-125169866D01*
X129829013Y-124984294D01*
X129571033Y-124846401D01*
X129291110Y-124761487D01*
X129000000Y-124732815D01*
X128708889Y-124761487D01*
X128428966Y-124846401D01*
X128170986Y-124984294D01*
X127944866Y-125169866D01*
X127759294Y-125395987D01*
X127750000Y-125413374D01*
X127740706Y-125395986D01*
X127555134Y-125169866D01*
X127329013Y-124984294D01*
X127071033Y-124846401D01*
X126791110Y-124761487D01*
X126500000Y-124732815D01*
X126208889Y-124761487D01*
X125928966Y-124846401D01*
X125670986Y-124984294D01*
X125444866Y-125169866D01*
X125259294Y-125395987D01*
X125250000Y-125413374D01*
X125240706Y-125395986D01*
X125055134Y-125169866D01*
X124829013Y-124984294D01*
X124571033Y-124846401D01*
X124291110Y-124761487D01*
X124000000Y-124732815D01*
X123708889Y-124761487D01*
X123428966Y-124846401D01*
X123170986Y-124984294D01*
X122944866Y-125169866D01*
X122759294Y-125395987D01*
X122750000Y-125413374D01*
X122740706Y-125395986D01*
X122555134Y-125169866D01*
X122329013Y-124984294D01*
X122071033Y-124846401D01*
X121791110Y-124761487D01*
X121500000Y-124732815D01*
X121208889Y-124761487D01*
X120928966Y-124846401D01*
X120670986Y-124984294D01*
X120444866Y-125169866D01*
X120259294Y-125395987D01*
X120250000Y-125413374D01*
X120240706Y-125395986D01*
X120055134Y-125169866D01*
X119829013Y-124984294D01*
X119571033Y-124846401D01*
X119291110Y-124761487D01*
X119000000Y-124732815D01*
X118708889Y-124761487D01*
X118428966Y-124846401D01*
X118170986Y-124984294D01*
X117944866Y-125169866D01*
X117759294Y-125395987D01*
X117750000Y-125413374D01*
X117740706Y-125395986D01*
X117555134Y-125169866D01*
X117329013Y-124984294D01*
X117071033Y-124846401D01*
X116791110Y-124761487D01*
X116500000Y-124732815D01*
X116208889Y-124761487D01*
X115928966Y-124846401D01*
X115670986Y-124984294D01*
X115444866Y-125169866D01*
X115392777Y-125233337D01*
X115338405Y-125131614D01*
X115227962Y-124997038D01*
X115093386Y-124886595D01*
X114939850Y-124804528D01*
X114773254Y-124753992D01*
X114600000Y-124736928D01*
X113400000Y-124736928D01*
X113226746Y-124753992D01*
X113060150Y-124804528D01*
X112906614Y-124886595D01*
X112772038Y-124997038D01*
X112661595Y-125131614D01*
X112579528Y-125285150D01*
X112528992Y-125451746D01*
X112511928Y-125625000D01*
X98057950Y-125625000D01*
X98208825Y-125474125D01*
X98393228Y-125198147D01*
X98520246Y-124891496D01*
X98585000Y-124565958D01*
X98585000Y-124234042D01*
X320215000Y-124234042D01*
X320215000Y-124565958D01*
X320279754Y-124891496D01*
X320406772Y-125198147D01*
X320591175Y-125474125D01*
X320825875Y-125708825D01*
X321101853Y-125893228D01*
X321408504Y-126020246D01*
X321734042Y-126085000D01*
X322065958Y-126085000D01*
X322391496Y-126020246D01*
X322698147Y-125893228D01*
X322974125Y-125708825D01*
X323208825Y-125474125D01*
X323393228Y-125198147D01*
X323520246Y-124891496D01*
X323585000Y-124565958D01*
X323585000Y-124234042D01*
X323520246Y-123908504D01*
X323393228Y-123601853D01*
X323208825Y-123325875D01*
X322974125Y-123091175D01*
X322698147Y-122906772D01*
X322391496Y-122779754D01*
X322065958Y-122715000D01*
X321734042Y-122715000D01*
X321408504Y-122779754D01*
X321101853Y-122906772D01*
X320825875Y-123091175D01*
X320591175Y-123325875D01*
X320406772Y-123601853D01*
X320279754Y-123908504D01*
X320215000Y-124234042D01*
X98585000Y-124234042D01*
X98520246Y-123908504D01*
X98393228Y-123601853D01*
X98208825Y-123325875D01*
X97974125Y-123091175D01*
X97698147Y-122906772D01*
X97391496Y-122779754D01*
X97065958Y-122715000D01*
X96734042Y-122715000D01*
X96408504Y-122779754D01*
X96101853Y-122906772D01*
X95825875Y-123091175D01*
X95591175Y-123325875D01*
X95406772Y-123601853D01*
X95279754Y-123908504D01*
X95215000Y-124234042D01*
X95129437Y-124234042D01*
X95147195Y-124052936D01*
X95247990Y-123719088D01*
X95411708Y-123411179D01*
X95632115Y-123140935D01*
X95900813Y-122918647D01*
X96207572Y-122752783D01*
X96540710Y-122649660D01*
X96918051Y-122610000D01*
X321867721Y-122610000D01*
X322247064Y-122647195D01*
G37*
%TD.AperFunction*%
%TD*%
M02*
