%TF.GenerationSoftware,KiCad,Pcbnew,5.1.9+dfsg1-1+deb11u1*%
%TF.CreationDate,2023-02-07T21:12:32+08:00*%
%TF.ProjectId,QS27_1,51533237-5f31-42e6-9b69-6361645f7063,v1.0*%
%TF.SameCoordinates,Original*%
%TF.FileFunction,Soldermask,Top*%
%TF.FilePolarity,Negative*%
%FSLAX46Y46*%
G04 Gerber Fmt 4.6, Leading zero omitted, Abs format (unit mm)*
G04 Created by KiCad (PCBNEW 5.1.9+dfsg1-1+deb11u1) date 2023-02-07 21:12:32*
%MOMM*%
%LPD*%
G01*
G04 APERTURE LIST*
%ADD10C,2.100000*%
%ADD11R,1.600000X1.600000*%
%ADD12O,1.600000X1.600000*%
%ADD13C,1.400000*%
%ADD14O,1.400000X1.400000*%
%ADD15R,1.500000X1.050000*%
%ADD16O,1.500000X1.050000*%
%ADD17C,4.000000*%
%ADD18C,1.500000*%
%ADD19O,1.700000X1.700000*%
%ADD20R,1.700000X1.700000*%
%ADD21O,1.950000X1.700000*%
%ADD22O,1.700000X1.950000*%
%ADD23C,1.600000*%
G04 APERTURE END LIST*
D10*
%TO.C,REF\u002A\u002A*%
X321900000Y-124400000D03*
%TD*%
%TO.C,REF\u002A\u002A*%
X321900000Y-184350000D03*
%TD*%
%TO.C,REF\u002A\u002A*%
X96900000Y-184350000D03*
%TD*%
%TO.C,REF\u002A\u002A*%
X96900000Y-124400000D03*
%TD*%
D11*
%TO.C,U1*%
X215100000Y-171950000D03*
D12*
X222720000Y-179570000D03*
X215100000Y-174490000D03*
X222720000Y-177030000D03*
X215100000Y-177030000D03*
X222720000Y-174490000D03*
X215100000Y-179570000D03*
X222720000Y-171950000D03*
%TD*%
D13*
%TO.C,R4*%
X209300000Y-168600000D03*
D14*
X201680000Y-168600000D03*
%TD*%
%TO.C,R3*%
X201680000Y-172250000D03*
D13*
X209300000Y-172250000D03*
%TD*%
D14*
%TO.C,R2*%
X201680000Y-176150000D03*
D13*
X209300000Y-176150000D03*
%TD*%
D14*
%TO.C,R1*%
X201650000Y-180050000D03*
D13*
X209270000Y-180050000D03*
%TD*%
D15*
%TO.C,Q1*%
X193350000Y-179700000D03*
D16*
X193350000Y-177160000D03*
X193350000Y-178430000D03*
%TD*%
D17*
%TO.C,NX4*%
X276875000Y-154375000D03*
D18*
X282175000Y-157975000D03*
X280275000Y-161075000D03*
X273475000Y-161075000D03*
X271575000Y-157975000D03*
X271375000Y-154375000D03*
X271575000Y-150775000D03*
X280275000Y-147575000D03*
X282175000Y-150775000D03*
X282375000Y-154375000D03*
X273475000Y-147575000D03*
X276875000Y-146375000D03*
%TD*%
D17*
%TO.C,NX3*%
X242400000Y-154375000D03*
D18*
X247700000Y-157975000D03*
X245800000Y-161075000D03*
X239000000Y-161075000D03*
X237100000Y-157975000D03*
X236900000Y-154375000D03*
X237100000Y-150775000D03*
X245800000Y-147575000D03*
X247700000Y-150775000D03*
X247900000Y-154375000D03*
X239000000Y-147575000D03*
X242400000Y-146375000D03*
%TD*%
D17*
%TO.C,NX2*%
X176400000Y-154375000D03*
D18*
X181700000Y-157975000D03*
X179800000Y-161075000D03*
X173000000Y-161075000D03*
X171100000Y-157975000D03*
X170900000Y-154375000D03*
X171100000Y-150775000D03*
X179800000Y-147575000D03*
X181700000Y-150775000D03*
X181900000Y-154375000D03*
X173000000Y-147575000D03*
X176400000Y-146375000D03*
%TD*%
D17*
%TO.C,NX1*%
X141925000Y-154375000D03*
D18*
X147225000Y-157975000D03*
X145325000Y-161075000D03*
X138525000Y-161075000D03*
X136625000Y-157975000D03*
X136425000Y-154375000D03*
X136625000Y-150775000D03*
X145325000Y-147575000D03*
X147225000Y-150775000D03*
X147425000Y-154375000D03*
X138525000Y-147575000D03*
X141925000Y-146375000D03*
%TD*%
D19*
%TO.C,NE1*%
X209400000Y-151835000D03*
D20*
X209400000Y-154375000D03*
%TD*%
D21*
%TO.C,J5*%
X98600000Y-165950000D03*
X98600000Y-168450000D03*
G36*
G01*
X99325000Y-171800000D02*
X97875000Y-171800000D01*
G75*
G02*
X97625000Y-171550000I0J250000D01*
G01*
X97625000Y-170350000D01*
G75*
G02*
X97875000Y-170100000I250000J0D01*
G01*
X99325000Y-170100000D01*
G75*
G02*
X99575000Y-170350000I0J-250000D01*
G01*
X99575000Y-171550000D01*
G75*
G02*
X99325000Y-171800000I-250000J0D01*
G01*
G37*
%TD*%
D22*
%TO.C,J4*%
X303100000Y-126350000D03*
X300600000Y-126350000D03*
X298100000Y-126350000D03*
X295600000Y-126350000D03*
X293100000Y-126350000D03*
X290600000Y-126350000D03*
X288100000Y-126350000D03*
X285600000Y-126350000D03*
X283100000Y-126350000D03*
G36*
G01*
X279750000Y-127075000D02*
X279750000Y-125625000D01*
G75*
G02*
X280000000Y-125375000I250000J0D01*
G01*
X281200000Y-125375000D01*
G75*
G02*
X281450000Y-125625000I0J-250000D01*
G01*
X281450000Y-127075000D01*
G75*
G02*
X281200000Y-127325000I-250000J0D01*
G01*
X280000000Y-127325000D01*
G75*
G02*
X279750000Y-127075000I0J250000D01*
G01*
G37*
%TD*%
%TO.C,J3*%
X247700000Y-126350000D03*
X245200000Y-126350000D03*
X242700000Y-126350000D03*
X240200000Y-126350000D03*
X237700000Y-126350000D03*
X235200000Y-126350000D03*
X232700000Y-126350000D03*
X230200000Y-126350000D03*
X227700000Y-126350000D03*
G36*
G01*
X224350000Y-127075000D02*
X224350000Y-125625000D01*
G75*
G02*
X224600000Y-125375000I250000J0D01*
G01*
X225800000Y-125375000D01*
G75*
G02*
X226050000Y-125625000I0J-250000D01*
G01*
X226050000Y-127075000D01*
G75*
G02*
X225800000Y-127325000I-250000J0D01*
G01*
X224600000Y-127325000D01*
G75*
G02*
X224350000Y-127075000I0J250000D01*
G01*
G37*
%TD*%
%TO.C,J2*%
X192150000Y-126350000D03*
X189650000Y-126350000D03*
X187150000Y-126350000D03*
X184650000Y-126350000D03*
X182150000Y-126350000D03*
X179650000Y-126350000D03*
X177150000Y-126350000D03*
X174650000Y-126350000D03*
X172150000Y-126350000D03*
G36*
G01*
X168800000Y-127075000D02*
X168800000Y-125625000D01*
G75*
G02*
X169050000Y-125375000I250000J0D01*
G01*
X170250000Y-125375000D01*
G75*
G02*
X170500000Y-125625000I0J-250000D01*
G01*
X170500000Y-127075000D01*
G75*
G02*
X170250000Y-127325000I-250000J0D01*
G01*
X169050000Y-127325000D01*
G75*
G02*
X168800000Y-127075000I0J250000D01*
G01*
G37*
%TD*%
%TO.C,J1*%
X136500000Y-126350000D03*
X134000000Y-126350000D03*
X131500000Y-126350000D03*
X129000000Y-126350000D03*
X126500000Y-126350000D03*
X124000000Y-126350000D03*
X121500000Y-126350000D03*
X119000000Y-126350000D03*
X116500000Y-126350000D03*
G36*
G01*
X113150000Y-127075000D02*
X113150000Y-125625000D01*
G75*
G02*
X113400000Y-125375000I250000J0D01*
G01*
X114600000Y-125375000D01*
G75*
G02*
X114850000Y-125625000I0J-250000D01*
G01*
X114850000Y-127075000D01*
G75*
G02*
X114600000Y-127325000I-250000J0D01*
G01*
X113400000Y-127325000D01*
G75*
G02*
X113150000Y-127075000I0J250000D01*
G01*
G37*
%TD*%
D23*
%TO.C,C1*%
X191900000Y-169350000D03*
D11*
X194400000Y-169350000D03*
%TD*%
M02*
