  0
SECTION
  2
HEADER
  9
$ANGBASE
  50
0.0
  9
$ANGDIR
  70
1
  9
$MEASUREMENT
  70
0
  0
ENDSEC
  0
SECTION
  2
TABLES
  0
TABLE
  2
LTYPE
  70
4
  0
LTYPE
  5
40F
  2
CONTINUOUS
  70
0
  3
Solid line
  72
65
  73
0
  40
0.0
  0
LTYPE
  5
410
  2
DASHDOT
 70
0
  3
Dash Dot ____ _ ____ _
 72
65
 73
4
 40
2.0
 49
1.25
 49
-0.25
 49
0.25
 49
-0.25
  0
LTYPE
  5
411
  2
DASHED
 70
0
  3
Dashed __ __ __ __ __
 72
65
 73
2
 40
0.75
 49
0.5
 49
-0.25
  0
LTYPE
  5
43B
  2
DOTTED
 70
0
  3
Dotted .  .  .  .
 72
65
 73
2
 40
0.2
 49
0.0
 49
-0.2
  0
ENDTAB
  0
TABLE
  2
STYLE
  70
4
  0
STYLE
  2
KICAD
  70
0
  40
0
  41
1
  42
1
  50
0
  71
0
  3
isocp.shx
  0
STYLE
  2
KICADB
  70
0
  40
0
  41
1
  42
1
  50
0
  71
0
  3
isocp.shx
  0
STYLE
  2
KICADI
  70
0
  40
0
  41
1
  42
1
  50
15
  71
0
  3
isocp.shx
  0
STYLE
  2
KICADBI
  70
0
  40
0
  41
1
  42
1
  50
15
  71
0
  3
isocp.shx
  0
ENDTAB
  0
TABLE
  2
LAYER
  70
1
  0
LAYER
  2
BLACK
  70
0
  62
7
  6
CONTINUOUS
  0
ENDTAB
  0
ENDSEC
  0
SECTION
  2
ENTITIES
0
LINE
8
BLACK
6
CONTINUOUS
10
5.71
20
-3.96
11
6.53
21
-3.96
0
LINE
8
BLACK
6
CONTINUOUS
10
6.53
20
-3.96
11
6.53
21
-4.77
0
LINE
8
BLACK
6
CONTINUOUS
10
6.53
20
-4.77
11
5.71
21
-4.77
0
LINE
8
BLACK
6
CONTINUOUS
10
5.71
20
-4.77
11
5.71
21
-3.96
0
LINE
8
BLACK
6
CONTINUOUS
10
5.89
20
-4.3522
11
5.91756
21
-4.37976
0
LINE
8
BLACK
6
CONTINUOUS
10
5.91756
20
-4.3522
11
5.89
21
-4.37976
0
LINE
8
BLACK
6
CONTINUOUS
10
5.89787
20
-4.21047
11
5.92543
21
-4.23803
0
LINE
8
BLACK
6
CONTINUOUS
10
5.92543
20
-4.21047
11
5.89787
21
-4.23803
0
LINE
8
BLACK
6
CONTINUOUS
10
5.89787
20
-4.49394
11
5.92543
21
-4.5215
0
LINE
8
BLACK
6
CONTINUOUS
10
5.92543
20
-4.49394
11
5.89787
21
-4.5215
0
LINE
8
BLACK
6
CONTINUOUS
10
5.97268
20
-4.08449
11
6.00024
21
-4.11205
0
LINE
8
BLACK
6
CONTINUOUS
10
6.00024
20
-4.08449
11
5.97268
21
-4.11205
0
LINE
8
BLACK
6
CONTINUOUS
10
5.97268
20
-4.61598
11
6.00024
21
-4.64354
0
LINE
8
BLACK
6
CONTINUOUS
10
6.00024
20
-4.61598
11
5.97268
21
-4.64354
0
LINE
8
BLACK
6
CONTINUOUS
10
6.10654
20
-4.03724
11
6.13409
21
-4.0648
0
LINE
8
BLACK
6
CONTINUOUS
10
6.13409
20
-4.03724
11
6.10654
21
-4.0648
0
LINE
8
BLACK
6
CONTINUOUS
10
6.24039
20
-4.08449
11
6.26795
21
-4.11205
0
LINE
8
BLACK
6
CONTINUOUS
10
6.26795
20
-4.08449
11
6.24039
21
-4.11205
0
LINE
8
BLACK
6
CONTINUOUS
10
6.24039
20
-4.61598
11
6.26795
21
-4.64354
0
LINE
8
BLACK
6
CONTINUOUS
10
6.26795
20
-4.61598
11
6.24039
21
-4.64354
0
LINE
8
BLACK
6
CONTINUOUS
10
6.3152
20
-4.21047
11
6.34276
21
-4.23803
0
LINE
8
BLACK
6
CONTINUOUS
10
6.34276
20
-4.21047
11
6.3152
21
-4.23803
0
LINE
8
BLACK
6
CONTINUOUS
10
6.3152
20
-4.49394
11
6.34276
21
-4.5215
0
LINE
8
BLACK
6
CONTINUOUS
10
6.34276
20
-4.49394
11
6.3152
21
-4.5215
0
LINE
8
BLACK
6
CONTINUOUS
10
6.32307
20
-4.3522
11
6.35063
21
-4.37976
0
LINE
8
BLACK
6
CONTINUOUS
10
6.35063
20
-4.3522
11
6.32307
21
-4.37976
0
CIRCLE
8
BLACK
10
5.96283
20
-4.26598
40
0.015
0
CIRCLE
8
BLACK
10
5.96283
20
-4.36598
40
0.015
0
CIRCLE
8
BLACK
10
5.96283
20
-4.46598
40
0.015
0
CIRCLE
8
BLACK
10
6.02031
20
-4.16913
40
0.015
0
CIRCLE
8
BLACK
10
6.02031
20
-4.56283
40
0.015
0
CIRCLE
8
BLACK
10
6.12031
20
-4.16913
40
0.015
0
CIRCLE
8
BLACK
10
6.12031
20
-4.56283
40
0.015
0
CIRCLE
8
BLACK
10
6.22031
20
-4.16913
40
0.015
0
CIRCLE
8
BLACK
10
6.22031
20
-4.56283
40
0.015
0
CIRCLE
8
BLACK
10
6.2778
20
-4.26598
40
0.015
0
CIRCLE
8
BLACK
10
6.2778
20
-4.36598
40
0.015
0
CIRCLE
8
BLACK
10
6.2778
20
-4.46598
40
0.015
0
LINE
8
BLACK
6
CONTINUOUS
10
5.80552
20
-4.88751
11
5.80552
21
-4.80877
0
LINE
8
BLACK
6
CONTINUOUS
10
5.80552
20
-4.80877
11
5.82427
21
-4.80877
0
LINE
8
BLACK
6
CONTINUOUS
10
5.82427
20
-4.80877
11
5.83552
21
-4.81252
0
LINE
8
BLACK
6
CONTINUOUS
10
5.83552
20
-4.81252
11
5.84301
21
-4.82002
0
LINE
8
BLACK
6
CONTINUOUS
10
5.84301
20
-4.82002
11
5.84676
21
-4.82752
0
LINE
8
BLACK
6
CONTINUOUS
10
5.84676
20
-4.82752
11
5.85051
21
-4.84252
0
LINE
8
BLACK
6
CONTINUOUS
10
5.85051
20
-4.84252
11
5.85051
21
-4.85376
0
LINE
8
BLACK
6
CONTINUOUS
10
5.85051
20
-4.85376
11
5.84676
21
-4.86876
0
LINE
8
BLACK
6
CONTINUOUS
10
5.84676
20
-4.86876
11
5.84301
21
-4.87626
0
LINE
8
BLACK
6
CONTINUOUS
10
5.84301
20
-4.87626
11
5.83552
21
-4.88376
0
LINE
8
BLACK
6
CONTINUOUS
10
5.83552
20
-4.88376
11
5.82427
21
-4.88751
0
LINE
8
BLACK
6
CONTINUOUS
10
5.82427
20
-4.88751
11
5.80552
21
-4.88751
0
LINE
8
BLACK
6
CONTINUOUS
10
5.88426
20
-4.88751
11
5.88426
21
-4.83502
0
LINE
8
BLACK
6
CONTINUOUS
10
5.88426
20
-4.85001
11
5.88801
21
-4.84252
0
LINE
8
BLACK
6
CONTINUOUS
10
5.88801
20
-4.84252
11
5.89176
21
-4.83877
0
LINE
8
BLACK
6
CONTINUOUS
10
5.89176
20
-4.83877
11
5.89926
21
-4.83502
0
LINE
8
BLACK
6
CONTINUOUS
10
5.89926
20
-4.83502
11
5.90676
21
-4.83502
0
LINE
8
BLACK
6
CONTINUOUS
10
5.933
20
-4.88751
11
5.933
21
-4.83502
0
LINE
8
BLACK
6
CONTINUOUS
10
5.933
20
-4.80877
11
5.92925
21
-4.81252
0
LINE
8
BLACK
6
CONTINUOUS
10
5.92925
20
-4.81252
11
5.933
21
-4.81627
0
LINE
8
BLACK
6
CONTINUOUS
10
5.933
20
-4.81627
11
5.93675
21
-4.81252
0
LINE
8
BLACK
6
CONTINUOUS
10
5.93675
20
-4.81252
11
5.933
21
-4.80877
0
LINE
8
BLACK
6
CONTINUOUS
10
5.933
20
-4.80877
11
5.933
21
-4.81627
0
LINE
8
BLACK
6
CONTINUOUS
10
5.98175
20
-4.88751
11
5.97425
21
-4.88376
0
LINE
8
BLACK
6
CONTINUOUS
10
5.97425
20
-4.88376
11
5.9705
21
-4.87626
0
LINE
8
BLACK
6
CONTINUOUS
10
5.9705
20
-4.87626
11
5.9705
21
-4.80877
0
LINE
8
BLACK
6
CONTINUOUS
10
6.02299
20
-4.88751
11
6.01549
21
-4.88376
0
LINE
8
BLACK
6
CONTINUOUS
10
6.01549
20
-4.88376
11
6.01174
21
-4.87626
0
LINE
8
BLACK
6
CONTINUOUS
10
6.01174
20
-4.87626
11
6.01174
21
-4.80877
0
LINE
8
BLACK
6
CONTINUOUS
10
6.10023
20
-4.88751
11
6.10023
21
-4.80877
0
LINE
8
BLACK
6
CONTINUOUS
10
6.10023
20
-4.80877
11
6.12648
21
-4.86501
0
LINE
8
BLACK
6
CONTINUOUS
10
6.12648
20
-4.86501
11
6.15273
21
-4.80877
0
LINE
8
BLACK
6
CONTINUOUS
10
6.15273
20
-4.80877
11
6.15273
21
-4.88751
0
LINE
8
BLACK
6
CONTINUOUS
10
6.22397
20
-4.88751
11
6.22397
21
-4.84627
0
LINE
8
BLACK
6
CONTINUOUS
10
6.22397
20
-4.84627
11
6.22022
21
-4.83877
0
LINE
8
BLACK
6
CONTINUOUS
10
6.22022
20
-4.83877
11
6.21272
21
-4.83502
0
LINE
8
BLACK
6
CONTINUOUS
10
6.21272
20
-4.83502
11
6.19772
21
-4.83502
0
LINE
8
BLACK
6
CONTINUOUS
10
6.19772
20
-4.83502
11
6.19022
21
-4.83877
0
LINE
8
BLACK
6
CONTINUOUS
10
6.22397
20
-4.88376
11
6.21647
21
-4.88751
0
LINE
8
BLACK
6
CONTINUOUS
10
6.21647
20
-4.88751
11
6.19772
21
-4.88751
0
LINE
8
BLACK
6
CONTINUOUS
10
6.19772
20
-4.88751
11
6.19022
21
-4.88376
0
LINE
8
BLACK
6
CONTINUOUS
10
6.19022
20
-4.88376
11
6.18647
21
-4.87626
0
LINE
8
BLACK
6
CONTINUOUS
10
6.18647
20
-4.87626
11
6.18647
21
-4.86876
0
LINE
8
BLACK
6
CONTINUOUS
10
6.18647
20
-4.86876
11
6.19022
21
-4.86126
0
LINE
8
BLACK
6
CONTINUOUS
10
6.19022
20
-4.86126
11
6.19772
21
-4.85751
0
LINE
8
BLACK
6
CONTINUOUS
10
6.19772
20
-4.85751
11
6.21647
21
-4.85751
0
LINE
8
BLACK
6
CONTINUOUS
10
6.21647
20
-4.85751
11
6.22397
21
-4.85376
0
LINE
8
BLACK
6
CONTINUOUS
10
6.26146
20
-4.83502
11
6.26146
21
-4.91376
0
LINE
8
BLACK
6
CONTINUOUS
10
6.26146
20
-4.83877
11
6.26896
21
-4.83502
0
LINE
8
BLACK
6
CONTINUOUS
10
6.26896
20
-4.83502
11
6.28396
21
-4.83502
0
LINE
8
BLACK
6
CONTINUOUS
10
6.28396
20
-4.83502
11
6.29146
21
-4.83877
0
LINE
8
BLACK
6
CONTINUOUS
10
6.29146
20
-4.83877
11
6.29521
21
-4.84252
0
LINE
8
BLACK
6
CONTINUOUS
10
6.29521
20
-4.84252
11
6.29896
21
-4.85001
0
LINE
8
BLACK
6
CONTINUOUS
10
6.29896
20
-4.85001
11
6.29896
21
-4.87251
0
LINE
8
BLACK
6
CONTINUOUS
10
6.29896
20
-4.87251
11
6.29521
21
-4.88001
0
LINE
8
BLACK
6
CONTINUOUS
10
6.29521
20
-4.88001
11
6.29146
21
-4.88376
0
LINE
8
BLACK
6
CONTINUOUS
10
6.29146
20
-4.88376
11
6.28396
21
-4.88751
0
LINE
8
BLACK
6
CONTINUOUS
10
6.28396
20
-4.88751
11
6.26896
21
-4.88751
0
LINE
8
BLACK
6
CONTINUOUS
10
6.26896
20
-4.88751
11
6.26146
21
-4.88376
0
LINE
8
BLACK
6
CONTINUOUS
10
6.3327
20
-4.88001
11
6.33645
21
-4.88376
0
LINE
8
BLACK
6
CONTINUOUS
10
6.33645
20
-4.88376
11
6.3327
21
-4.88751
0
LINE
8
BLACK
6
CONTINUOUS
10
6.3327
20
-4.88751
11
6.32895
21
-4.88376
0
LINE
8
BLACK
6
CONTINUOUS
10
6.32895
20
-4.88376
11
6.3327
21
-4.88001
0
LINE
8
BLACK
6
CONTINUOUS
10
6.3327
20
-4.88001
11
6.3327
21
-4.88751
0
LINE
8
BLACK
6
CONTINUOUS
10
6.3327
20
-4.83877
11
6.33645
21
-4.84252
0
LINE
8
BLACK
6
CONTINUOUS
10
6.33645
20
-4.84252
11
6.3327
21
-4.84627
0
LINE
8
BLACK
6
CONTINUOUS
10
6.3327
20
-4.84627
11
6.32895
21
-4.84252
0
LINE
8
BLACK
6
CONTINUOUS
10
6.32895
20
-4.84252
11
6.3327
21
-4.83877
0
LINE
8
BLACK
6
CONTINUOUS
10
6.3327
20
-4.83877
11
6.3327
21
-4.84627
0
LINE
8
BLACK
6
CONTINUOUS
10
5.68047
20
-5.01016
11
5.70803
21
-5.03772
0
LINE
8
BLACK
6
CONTINUOUS
10
5.70803
20
-5.01016
11
5.68047
21
-5.03772
0
LINE
8
BLACK
6
CONTINUOUS
10
5.82052
20
-4.97412
11
5.82802
21
-4.97412
0
LINE
8
BLACK
6
CONTINUOUS
10
5.82802
20
-4.97412
11
5.83552
21
-4.97787
0
LINE
8
BLACK
6
CONTINUOUS
10
5.83552
20
-4.97787
11
5.83927
21
-4.98162
0
LINE
8
BLACK
6
CONTINUOUS
10
5.83927
20
-4.98162
11
5.84301
21
-4.98912
0
LINE
8
BLACK
6
CONTINUOUS
10
5.84301
20
-4.98912
11
5.84676
21
-5.00412
0
LINE
8
BLACK
6
CONTINUOUS
10
5.84676
20
-5.00412
11
5.84676
21
-5.02287
0
LINE
8
BLACK
6
CONTINUOUS
10
5.84676
20
-5.02287
11
5.84301
21
-5.03787
0
LINE
8
BLACK
6
CONTINUOUS
10
5.84301
20
-5.03787
11
5.83927
21
-5.04537
0
LINE
8
BLACK
6
CONTINUOUS
10
5.83927
20
-5.04537
11
5.83552
21
-5.04912
0
LINE
8
BLACK
6
CONTINUOUS
10
5.83552
20
-5.04912
11
5.82802
21
-5.05286
0
LINE
8
BLACK
6
CONTINUOUS
10
5.82802
20
-5.05286
11
5.82052
21
-5.05286
0
LINE
8
BLACK
6
CONTINUOUS
10
5.82052
20
-5.05286
11
5.81302
21
-5.04912
0
LINE
8
BLACK
6
CONTINUOUS
10
5.81302
20
-5.04912
11
5.80927
21
-5.04537
0
LINE
8
BLACK
6
CONTINUOUS
10
5.80927
20
-5.04537
11
5.80552
21
-5.03787
0
LINE
8
BLACK
6
CONTINUOUS
10
5.80552
20
-5.03787
11
5.80177
21
-5.02287
0
LINE
8
BLACK
6
CONTINUOUS
10
5.80177
20
-5.02287
11
5.80177
21
-5.00412
0
LINE
8
BLACK
6
CONTINUOUS
10
5.80177
20
-5.00412
11
5.80552
21
-4.98912
0
LINE
8
BLACK
6
CONTINUOUS
10
5.80552
20
-4.98912
11
5.80927
21
-4.98162
0
LINE
8
BLACK
6
CONTINUOUS
10
5.80927
20
-4.98162
11
5.81302
21
-4.97787
0
LINE
8
BLACK
6
CONTINUOUS
10
5.81302
20
-4.97787
11
5.82052
21
-4.97412
0
LINE
8
BLACK
6
CONTINUOUS
10
5.88051
20
-5.04537
11
5.88426
21
-5.04912
0
LINE
8
BLACK
6
CONTINUOUS
10
5.88426
20
-5.04912
11
5.88051
21
-5.05286
0
LINE
8
BLACK
6
CONTINUOUS
10
5.88051
20
-5.05286
11
5.87676
21
-5.04912
0
LINE
8
BLACK
6
CONTINUOUS
10
5.87676
20
-5.04912
11
5.88051
21
-5.04537
0
LINE
8
BLACK
6
CONTINUOUS
10
5.88051
20
-5.04537
11
5.88051
21
-5.05286
0
LINE
8
BLACK
6
CONTINUOUS
10
5.91051
20
-4.97412
11
5.963
21
-4.97412
0
LINE
8
BLACK
6
CONTINUOUS
10
5.963
20
-4.97412
11
5.92925
21
-5.05286
0
LINE
8
BLACK
6
CONTINUOUS
10
6.00799
20
-4.97412
11
6.01549
21
-4.97412
0
LINE
8
BLACK
6
CONTINUOUS
10
6.01549
20
-4.97412
11
6.02299
21
-4.97787
0
LINE
8
BLACK
6
CONTINUOUS
10
6.02299
20
-4.97787
11
6.02674
21
-4.98162
0
LINE
8
BLACK
6
CONTINUOUS
10
6.02674
20
-4.98162
11
6.03049
21
-4.98912
0
LINE
8
BLACK
6
CONTINUOUS
10
6.03049
20
-4.98912
11
6.03424
21
-5.00412
0
LINE
8
BLACK
6
CONTINUOUS
10
6.03424
20
-5.00412
11
6.03424
21
-5.02287
0
LINE
8
BLACK
6
CONTINUOUS
10
6.03424
20
-5.02287
11
6.03049
21
-5.03787
0
LINE
8
BLACK
6
CONTINUOUS
10
6.03049
20
-5.03787
11
6.02674
21
-5.04537
0
LINE
8
BLACK
6
CONTINUOUS
10
6.02674
20
-5.04537
11
6.02299
21
-5.04912
0
LINE
8
BLACK
6
CONTINUOUS
10
6.02299
20
-5.04912
11
6.01549
21
-5.05286
0
LINE
8
BLACK
6
CONTINUOUS
10
6.01549
20
-5.05286
11
6.00799
21
-5.05286
0
LINE
8
BLACK
6
CONTINUOUS
10
6.00799
20
-5.05286
11
6.00049
21
-5.04912
0
LINE
8
BLACK
6
CONTINUOUS
10
6.00049
20
-5.04912
11
5.99675
21
-5.04537
0
LINE
8
BLACK
6
CONTINUOUS
10
5.99675
20
-5.04537
11
5.993
21
-5.03787
0
LINE
8
BLACK
6
CONTINUOUS
10
5.993
20
-5.03787
11
5.98925
21
-5.02287
0
LINE
8
BLACK
6
CONTINUOUS
10
5.98925
20
-5.02287
11
5.98925
21
-5.00412
0
LINE
8
BLACK
6
CONTINUOUS
10
5.98925
20
-5.00412
11
5.993
21
-4.98912
0
LINE
8
BLACK
6
CONTINUOUS
10
5.993
20
-4.98912
11
5.99675
21
-4.98162
0
LINE
8
BLACK
6
CONTINUOUS
10
5.99675
20
-4.98162
11
6.00049
21
-4.97787
0
LINE
8
BLACK
6
CONTINUOUS
10
6.00049
20
-4.97787
11
6.00799
21
-4.97412
0
LINE
8
BLACK
6
CONTINUOUS
10
6.08298
20
-4.97412
11
6.09048
21
-4.97412
0
LINE
8
BLACK
6
CONTINUOUS
10
6.09048
20
-4.97412
11
6.09798
21
-4.97787
0
LINE
8
BLACK
6
CONTINUOUS
10
6.09798
20
-4.97787
11
6.10173
21
-4.98162
0
LINE
8
BLACK
6
CONTINUOUS
10
6.10173
20
-4.98162
11
6.10548
21
-4.98912
0
LINE
8
BLACK
6
CONTINUOUS
10
6.10548
20
-4.98912
11
6.10923
21
-5.00412
0
LINE
8
BLACK
6
CONTINUOUS
10
6.10923
20
-5.00412
11
6.10923
21
-5.02287
0
LINE
8
BLACK
6
CONTINUOUS
10
6.10923
20
-5.02287
11
6.10548
21
-5.03787
0
LINE
8
BLACK
6
CONTINUOUS
10
6.10548
20
-5.03787
11
6.10173
21
-5.04537
0
LINE
8
BLACK
6
CONTINUOUS
10
6.10173
20
-5.04537
11
6.09798
21
-5.04912
0
LINE
8
BLACK
6
CONTINUOUS
10
6.09798
20
-5.04912
11
6.09048
21
-5.05286
0
LINE
8
BLACK
6
CONTINUOUS
10
6.09048
20
-5.05286
11
6.08298
21
-5.05286
0
LINE
8
BLACK
6
CONTINUOUS
10
6.08298
20
-5.05286
11
6.07549
21
-5.04912
0
LINE
8
BLACK
6
CONTINUOUS
10
6.07549
20
-5.04912
11
6.07174
21
-5.04537
0
LINE
8
BLACK
6
CONTINUOUS
10
6.07174
20
-5.04537
11
6.06799
21
-5.03787
0
LINE
8
BLACK
6
CONTINUOUS
10
6.06799
20
-5.03787
11
6.06424
21
-5.02287
0
LINE
8
BLACK
6
CONTINUOUS
10
6.06424
20
-5.02287
11
6.06424
21
-5.00412
0
LINE
8
BLACK
6
CONTINUOUS
10
6.06424
20
-5.00412
11
6.06799
21
-4.98912
0
LINE
8
BLACK
6
CONTINUOUS
10
6.06799
20
-4.98912
11
6.07174
21
-4.98162
0
LINE
8
BLACK
6
CONTINUOUS
10
6.07174
20
-4.98162
11
6.07549
21
-4.97787
0
LINE
8
BLACK
6
CONTINUOUS
10
6.07549
20
-4.97787
11
6.08298
21
-4.97412
0
LINE
8
BLACK
6
CONTINUOUS
10
6.14298
20
-5.05286
11
6.14298
21
-5.00037
0
LINE
8
BLACK
6
CONTINUOUS
10
6.14298
20
-5.00787
11
6.14673
21
-5.00412
0
LINE
8
BLACK
6
CONTINUOUS
10
6.14673
20
-5.00412
11
6.15423
21
-5.00037
0
LINE
8
BLACK
6
CONTINUOUS
10
6.15423
20
-5.00037
11
6.16547
21
-5.00037
0
LINE
8
BLACK
6
CONTINUOUS
10
6.16547
20
-5.00037
11
6.17297
21
-5.00412
0
LINE
8
BLACK
6
CONTINUOUS
10
6.17297
20
-5.00412
11
6.17672
21
-5.01162
0
LINE
8
BLACK
6
CONTINUOUS
10
6.17672
20
-5.01162
11
6.17672
21
-5.05286
0
LINE
8
BLACK
6
CONTINUOUS
10
6.17672
20
-5.01162
11
6.18047
21
-5.00412
0
LINE
8
BLACK
6
CONTINUOUS
10
6.18047
20
-5.00412
11
6.18797
21
-5.00037
0
LINE
8
BLACK
6
CONTINUOUS
10
6.18797
20
-5.00037
11
6.19922
21
-5.00037
0
LINE
8
BLACK
6
CONTINUOUS
10
6.19922
20
-5.00037
11
6.20672
21
-5.00412
0
LINE
8
BLACK
6
CONTINUOUS
10
6.20672
20
-5.00412
11
6.21047
21
-5.01162
0
LINE
8
BLACK
6
CONTINUOUS
10
6.21047
20
-5.01162
11
6.21047
21
-5.05286
0
LINE
8
BLACK
6
CONTINUOUS
10
6.24796
20
-5.05286
11
6.24796
21
-5.00037
0
LINE
8
BLACK
6
CONTINUOUS
10
6.24796
20
-5.00787
11
6.25171
21
-5.00412
0
LINE
8
BLACK
6
CONTINUOUS
10
6.25171
20
-5.00412
11
6.25921
21
-5.00037
0
LINE
8
BLACK
6
CONTINUOUS
10
6.25921
20
-5.00037
11
6.27046
21
-5.00037
0
LINE
8
BLACK
6
CONTINUOUS
10
6.27046
20
-5.00037
11
6.27796
21
-5.00412
0
LINE
8
BLACK
6
CONTINUOUS
10
6.27796
20
-5.00412
11
6.28171
21
-5.01162
0
LINE
8
BLACK
6
CONTINUOUS
10
6.28171
20
-5.01162
11
6.28171
21
-5.05286
0
LINE
8
BLACK
6
CONTINUOUS
10
6.28171
20
-5.01162
11
6.28546
21
-5.00412
0
LINE
8
BLACK
6
CONTINUOUS
10
6.28546
20
-5.00412
11
6.29296
21
-5.00037
0
LINE
8
BLACK
6
CONTINUOUS
10
6.29296
20
-5.00037
11
6.30421
21
-5.00037
0
LINE
8
BLACK
6
CONTINUOUS
10
6.30421
20
-5.00037
11
6.31171
21
-5.00412
0
LINE
8
BLACK
6
CONTINUOUS
10
6.31171
20
-5.00412
11
6.31546
21
-5.01162
0
LINE
8
BLACK
6
CONTINUOUS
10
6.31546
20
-5.01162
11
6.31546
21
-5.05286
0
LINE
8
BLACK
6
CONTINUOUS
10
6.45644
20
-4.97037
11
6.38895
21
-5.07161
0
LINE
8
BLACK
6
CONTINUOUS
10
6.54493
20
-4.97412
11
6.55243
21
-4.97412
0
LINE
8
BLACK
6
CONTINUOUS
10
6.55243
20
-4.97412
11
6.55993
21
-4.97787
0
LINE
8
BLACK
6
CONTINUOUS
10
6.55993
20
-4.97787
11
6.56367
21
-4.98162
0
LINE
8
BLACK
6
CONTINUOUS
10
6.56367
20
-4.98162
11
6.56742
21
-4.98912
0
LINE
8
BLACK
6
CONTINUOUS
10
6.56742
20
-4.98912
11
6.57117
21
-5.00412
0
LINE
8
BLACK
6
CONTINUOUS
10
6.57117
20
-5.00412
11
6.57117
21
-5.02287
0
LINE
8
BLACK
6
CONTINUOUS
10
6.57117
20
-5.02287
11
6.56742
21
-5.03787
0
LINE
8
BLACK
6
CONTINUOUS
10
6.56742
20
-5.03787
11
6.56367
21
-5.04537
0
LINE
8
BLACK
6
CONTINUOUS
10
6.56367
20
-5.04537
11
6.55993
21
-5.04912
0
LINE
8
BLACK
6
CONTINUOUS
10
6.55993
20
-5.04912
11
6.55243
21
-5.05286
0
LINE
8
BLACK
6
CONTINUOUS
10
6.55243
20
-5.05286
11
6.54493
21
-5.05286
0
LINE
8
BLACK
6
CONTINUOUS
10
6.54493
20
-5.05286
11
6.53743
21
-5.04912
0
LINE
8
BLACK
6
CONTINUOUS
10
6.53743
20
-5.04912
11
6.53368
21
-5.04537
0
LINE
8
BLACK
6
CONTINUOUS
10
6.53368
20
-5.04537
11
6.52993
21
-5.03787
0
LINE
8
BLACK
6
CONTINUOUS
10
6.52993
20
-5.03787
11
6.52618
21
-5.02287
0
LINE
8
BLACK
6
CONTINUOUS
10
6.52618
20
-5.02287
11
6.52618
21
-5.00412
0
LINE
8
BLACK
6
CONTINUOUS
10
6.52618
20
-5.00412
11
6.52993
21
-4.98912
0
LINE
8
BLACK
6
CONTINUOUS
10
6.52993
20
-4.98912
11
6.53368
21
-4.98162
0
LINE
8
BLACK
6
CONTINUOUS
10
6.53368
20
-4.98162
11
6.53743
21
-4.97787
0
LINE
8
BLACK
6
CONTINUOUS
10
6.53743
20
-4.97787
11
6.54493
21
-4.97412
0
LINE
8
BLACK
6
CONTINUOUS
10
6.60492
20
-5.04537
11
6.60867
21
-5.04912
0
LINE
8
BLACK
6
CONTINUOUS
10
6.60867
20
-5.04912
11
6.60492
21
-5.05286
0
LINE
8
BLACK
6
CONTINUOUS
10
6.60492
20
-5.05286
11
6.60117
21
-5.04912
0
LINE
8
BLACK
6
CONTINUOUS
10
6.60117
20
-5.04912
11
6.60492
21
-5.04537
0
LINE
8
BLACK
6
CONTINUOUS
10
6.60492
20
-5.04537
11
6.60492
21
-5.05286
0
LINE
8
BLACK
6
CONTINUOUS
10
6.65741
20
-4.97412
11
6.66491
21
-4.97412
0
LINE
8
BLACK
6
CONTINUOUS
10
6.66491
20
-4.97412
11
6.67241
21
-4.97787
0
LINE
8
BLACK
6
CONTINUOUS
10
6.67241
20
-4.97787
11
6.67616
21
-4.98162
0
LINE
8
BLACK
6
CONTINUOUS
10
6.67616
20
-4.98162
11
6.67991
21
-4.98912
0
LINE
8
BLACK
6
CONTINUOUS
10
6.67991
20
-4.98912
11
6.68366
21
-5.00412
0
LINE
8
BLACK
6
CONTINUOUS
10
6.68366
20
-5.00412
11
6.68366
21
-5.02287
0
LINE
8
BLACK
6
CONTINUOUS
10
6.68366
20
-5.02287
11
6.67991
21
-5.03787
0
LINE
8
BLACK
6
CONTINUOUS
10
6.67991
20
-5.03787
11
6.67616
21
-5.04537
0
LINE
8
BLACK
6
CONTINUOUS
10
6.67616
20
-5.04537
11
6.67241
21
-5.04912
0
LINE
8
BLACK
6
CONTINUOUS
10
6.67241
20
-5.04912
11
6.66491
21
-5.05286
0
LINE
8
BLACK
6
CONTINUOUS
10
6.66491
20
-5.05286
11
6.65741
21
-5.05286
0
LINE
8
BLACK
6
CONTINUOUS
10
6.65741
20
-5.05286
11
6.64991
21
-5.04912
0
LINE
8
BLACK
6
CONTINUOUS
10
6.64991
20
-5.04912
11
6.64616
21
-5.04537
0
LINE
8
BLACK
6
CONTINUOUS
10
6.64616
20
-5.04537
11
6.64241
21
-5.03787
0
LINE
8
BLACK
6
CONTINUOUS
10
6.64241
20
-5.03787
11
6.63867
21
-5.02287
0
LINE
8
BLACK
6
CONTINUOUS
10
6.63867
20
-5.02287
11
6.63867
21
-5.00412
0
LINE
8
BLACK
6
CONTINUOUS
10
6.63867
20
-5.00412
11
6.64241
21
-4.98912
0
LINE
8
BLACK
6
CONTINUOUS
10
6.64241
20
-4.98912
11
6.64616
21
-4.98162
0
LINE
8
BLACK
6
CONTINUOUS
10
6.64616
20
-4.98162
11
6.64991
21
-4.97787
0
LINE
8
BLACK
6
CONTINUOUS
10
6.64991
20
-4.97787
11
6.65741
21
-4.97412
0
LINE
8
BLACK
6
CONTINUOUS
10
6.71366
20
-4.98162
11
6.71741
21
-4.97787
0
LINE
8
BLACK
6
CONTINUOUS
10
6.71741
20
-4.97787
11
6.7249
21
-4.97412
0
LINE
8
BLACK
6
CONTINUOUS
10
6.7249
20
-4.97412
11
6.74365
21
-4.97412
0
LINE
8
BLACK
6
CONTINUOUS
10
6.74365
20
-4.97412
11
6.75115
21
-4.97787
0
LINE
8
BLACK
6
CONTINUOUS
10
6.75115
20
-4.97787
11
6.7549
21
-4.98162
0
LINE
8
BLACK
6
CONTINUOUS
10
6.7549
20
-4.98162
11
6.75865
21
-4.98912
0
LINE
8
BLACK
6
CONTINUOUS
10
6.75865
20
-4.98912
11
6.75865
21
-4.99662
0
LINE
8
BLACK
6
CONTINUOUS
10
6.75865
20
-4.99662
11
6.7549
21
-5.00787
0
LINE
8
BLACK
6
CONTINUOUS
10
6.7549
20
-5.00787
11
6.70991
21
-5.05286
0
LINE
8
BLACK
6
CONTINUOUS
10
6.70991
20
-5.05286
11
6.75865
21
-5.05286
0
LINE
8
BLACK
6
CONTINUOUS
10
6.7849
20
-4.97412
11
6.83739
21
-4.97412
0
LINE
8
BLACK
6
CONTINUOUS
10
6.83739
20
-4.97412
11
6.80364
21
-5.05286
0
LINE
8
BLACK
6
CONTINUOUS
10
6.90113
20
-4.97412
11
6.88613
21
-4.97412
0
LINE
8
BLACK
6
CONTINUOUS
10
6.88613
20
-4.97412
11
6.87864
21
-4.97787
0
LINE
8
BLACK
6
CONTINUOUS
10
6.87864
20
-4.97787
11
6.87489
21
-4.98162
0
LINE
8
BLACK
6
CONTINUOUS
10
6.87489
20
-4.98162
11
6.86739
21
-4.99287
0
LINE
8
BLACK
6
CONTINUOUS
10
6.86739
20
-4.99287
11
6.86364
21
-5.00787
0
LINE
8
BLACK
6
CONTINUOUS
10
6.86364
20
-5.00787
11
6.86364
21
-5.03787
0
LINE
8
BLACK
6
CONTINUOUS
10
6.86364
20
-5.03787
11
6.86739
21
-5.04537
0
LINE
8
BLACK
6
CONTINUOUS
10
6.86739
20
-5.04537
11
6.87114
21
-5.04912
0
LINE
8
BLACK
6
CONTINUOUS
10
6.87114
20
-5.04912
11
6.87864
21
-5.05286
0
LINE
8
BLACK
6
CONTINUOUS
10
6.87864
20
-5.05286
11
6.89363
21
-5.05286
0
LINE
8
BLACK
6
CONTINUOUS
10
6.89363
20
-5.05286
11
6.90113
21
-5.04912
0
LINE
8
BLACK
6
CONTINUOUS
10
6.90113
20
-5.04912
11
6.90488
21
-5.04537
0
LINE
8
BLACK
6
CONTINUOUS
10
6.90488
20
-5.04537
11
6.90863
21
-5.03787
0
LINE
8
BLACK
6
CONTINUOUS
10
6.90863
20
-5.03787
11
6.90863
21
-5.01912
0
LINE
8
BLACK
6
CONTINUOUS
10
6.90863
20
-5.01912
11
6.90488
21
-5.01162
0
LINE
8
BLACK
6
CONTINUOUS
10
6.90488
20
-5.01162
11
6.90113
21
-5.00787
0
LINE
8
BLACK
6
CONTINUOUS
10
6.90113
20
-5.00787
11
6.89363
21
-5.00412
0
LINE
8
BLACK
6
CONTINUOUS
10
6.89363
20
-5.00412
11
6.87864
21
-5.00412
0
LINE
8
BLACK
6
CONTINUOUS
10
6.87864
20
-5.00412
11
6.87114
21
-5.00787
0
LINE
8
BLACK
6
CONTINUOUS
10
6.87114
20
-5.00787
11
6.86739
21
-5.01162
0
LINE
8
BLACK
6
CONTINUOUS
10
6.86739
20
-5.01162
11
6.86364
21
-5.01912
0
LINE
8
BLACK
6
CONTINUOUS
10
6.93863
20
-4.97412
11
6.93863
21
-4.98912
0
LINE
8
BLACK
6
CONTINUOUS
10
6.96862
20
-4.97412
11
6.96862
21
-4.98912
0
LINE
8
BLACK
6
CONTINUOUS
10
7.07211
20
-5.08286
11
7.06836
21
-5.07911
0
LINE
8
BLACK
6
CONTINUOUS
10
7.06836
20
-5.07911
11
7.06086
21
-5.06786
0
LINE
8
BLACK
6
CONTINUOUS
10
7.06086
20
-5.06786
11
7.05711
21
-5.06036
0
LINE
8
BLACK
6
CONTINUOUS
10
7.05711
20
-5.06036
11
7.05336
21
-5.04912
0
LINE
8
BLACK
6
CONTINUOUS
10
7.05336
20
-5.04912
11
7.04961
21
-5.03037
0
LINE
8
BLACK
6
CONTINUOUS
10
7.04961
20
-5.03037
11
7.04961
21
-5.01537
0
LINE
8
BLACK
6
CONTINUOUS
10
7.04961
20
-5.01537
11
7.05336
21
-4.99662
0
LINE
8
BLACK
6
CONTINUOUS
10
7.05336
20
-4.99662
11
7.05711
21
-4.98537
0
LINE
8
BLACK
6
CONTINUOUS
10
7.05711
20
-4.98537
11
7.06086
21
-4.97787
0
LINE
8
BLACK
6
CONTINUOUS
10
7.06086
20
-4.97787
11
7.06836
21
-4.96663
0
LINE
8
BLACK
6
CONTINUOUS
10
7.06836
20
-4.96663
11
7.07211
21
-4.96288
0
LINE
8
BLACK
6
CONTINUOUS
10
7.14335
20
-5.05286
11
7.09836
21
-5.05286
0
LINE
8
BLACK
6
CONTINUOUS
10
7.12085
20
-5.05286
11
7.12085
21
-4.97412
0
LINE
8
BLACK
6
CONTINUOUS
10
7.12085
20
-4.97412
11
7.11336
21
-4.98537
0
LINE
8
BLACK
6
CONTINUOUS
10
7.11336
20
-4.98537
11
7.10586
21
-4.99287
0
LINE
8
BLACK
6
CONTINUOUS
10
7.10586
20
-4.99287
11
7.09836
21
-4.99662
0
LINE
8
BLACK
6
CONTINUOUS
10
7.21834
20
-5.05286
11
7.17335
21
-5.05286
0
LINE
8
BLACK
6
CONTINUOUS
10
7.19585
20
-5.05286
11
7.19585
21
-4.97412
0
LINE
8
BLACK
6
CONTINUOUS
10
7.19585
20
-4.97412
11
7.18835
21
-4.98537
0
LINE
8
BLACK
6
CONTINUOUS
10
7.18835
20
-4.98537
11
7.18085
21
-4.99287
0
LINE
8
BLACK
6
CONTINUOUS
10
7.18085
20
-4.99287
11
7.17335
21
-4.99662
0
LINE
8
BLACK
6
CONTINUOUS
10
7.29933
20
-5.05286
11
7.29933
21
-4.97412
0
LINE
8
BLACK
6
CONTINUOUS
10
7.33308
20
-5.05286
11
7.33308
21
-5.01162
0
LINE
8
BLACK
6
CONTINUOUS
10
7.33308
20
-5.01162
11
7.32933
21
-5.00412
0
LINE
8
BLACK
6
CONTINUOUS
10
7.32933
20
-5.00412
11
7.32183
21
-5.00037
0
LINE
8
BLACK
6
CONTINUOUS
10
7.32183
20
-5.00037
11
7.31058
21
-5.00037
0
LINE
8
BLACK
6
CONTINUOUS
10
7.31058
20
-5.00037
11
7.30308
21
-5.00412
0
LINE
8
BLACK
6
CONTINUOUS
10
7.30308
20
-5.00412
11
7.29933
21
-5.00787
0
LINE
8
BLACK
6
CONTINUOUS
10
7.38182
20
-5.05286
11
7.37432
21
-5.04912
0
LINE
8
BLACK
6
CONTINUOUS
10
7.37432
20
-5.04912
11
7.37057
21
-5.04537
0
LINE
8
BLACK
6
CONTINUOUS
10
7.37057
20
-5.04537
11
7.36682
21
-5.03787
0
LINE
8
BLACK
6
CONTINUOUS
10
7.36682
20
-5.03787
11
7.36682
21
-5.01537
0
LINE
8
BLACK
6
CONTINUOUS
10
7.36682
20
-5.01537
11
7.37057
21
-5.00787
0
LINE
8
BLACK
6
CONTINUOUS
10
7.37057
20
-5.00787
11
7.37432
21
-5.00412
0
LINE
8
BLACK
6
CONTINUOUS
10
7.37432
20
-5.00412
11
7.38182
21
-5.00037
0
LINE
8
BLACK
6
CONTINUOUS
10
7.38182
20
-5.00037
11
7.39307
21
-5.00037
0
LINE
8
BLACK
6
CONTINUOUS
10
7.39307
20
-5.00037
11
7.40057
21
-5.00412
0
LINE
8
BLACK
6
CONTINUOUS
10
7.40057
20
-5.00412
11
7.40432
21
-5.00787
0
LINE
8
BLACK
6
CONTINUOUS
10
7.40432
20
-5.00787
11
7.40807
21
-5.01537
0
LINE
8
BLACK
6
CONTINUOUS
10
7.40807
20
-5.01537
11
7.40807
21
-5.03787
0
LINE
8
BLACK
6
CONTINUOUS
10
7.40807
20
-5.03787
11
7.40432
21
-5.04537
0
LINE
8
BLACK
6
CONTINUOUS
10
7.40432
20
-5.04537
11
7.40057
21
-5.04912
0
LINE
8
BLACK
6
CONTINUOUS
10
7.40057
20
-5.04912
11
7.39307
21
-5.05286
0
LINE
8
BLACK
6
CONTINUOUS
10
7.39307
20
-5.05286
11
7.38182
21
-5.05286
0
LINE
8
BLACK
6
CONTINUOUS
10
7.45306
20
-5.05286
11
7.44556
21
-5.04912
0
LINE
8
BLACK
6
CONTINUOUS
10
7.44556
20
-5.04912
11
7.44181
21
-5.04162
0
LINE
8
BLACK
6
CONTINUOUS
10
7.44181
20
-5.04162
11
7.44181
21
-4.97412
0
LINE
8
BLACK
6
CONTINUOUS
10
7.51306
20
-5.04912
11
7.50556
21
-5.05286
0
LINE
8
BLACK
6
CONTINUOUS
10
7.50556
20
-5.05286
11
7.49056
21
-5.05286
0
LINE
8
BLACK
6
CONTINUOUS
10
7.49056
20
-5.05286
11
7.48306
21
-5.04912
0
LINE
8
BLACK
6
CONTINUOUS
10
7.48306
20
-5.04912
11
7.47931
21
-5.04162
0
LINE
8
BLACK
6
CONTINUOUS
10
7.47931
20
-5.04162
11
7.47931
21
-5.01162
0
LINE
8
BLACK
6
CONTINUOUS
10
7.47931
20
-5.01162
11
7.48306
21
-5.00412
0
LINE
8
BLACK
6
CONTINUOUS
10
7.48306
20
-5.00412
11
7.49056
21
-5.00037
0
LINE
8
BLACK
6
CONTINUOUS
10
7.49056
20
-5.00037
11
7.50556
21
-5.00037
0
LINE
8
BLACK
6
CONTINUOUS
10
7.50556
20
-5.00037
11
7.51306
21
-5.00412
0
LINE
8
BLACK
6
CONTINUOUS
10
7.51306
20
-5.00412
11
7.51681
21
-5.01162
0
LINE
8
BLACK
6
CONTINUOUS
10
7.51681
20
-5.01162
11
7.51681
21
-5.01912
0
LINE
8
BLACK
6
CONTINUOUS
10
7.51681
20
-5.01912
11
7.47931
21
-5.02662
0
LINE
8
BLACK
6
CONTINUOUS
10
7.5468
20
-5.04912
11
7.5543
21
-5.05286
0
LINE
8
BLACK
6
CONTINUOUS
10
7.5543
20
-5.05286
11
7.5693
21
-5.05286
0
LINE
8
BLACK
6
CONTINUOUS
10
7.5693
20
-5.05286
11
7.5768
21
-5.04912
0
LINE
8
BLACK
6
CONTINUOUS
10
7.5768
20
-5.04912
11
7.58055
21
-5.04162
0
LINE
8
BLACK
6
CONTINUOUS
10
7.58055
20
-5.04162
11
7.58055
21
-5.03787
0
LINE
8
BLACK
6
CONTINUOUS
10
7.58055
20
-5.03787
11
7.5768
21
-5.03037
0
LINE
8
BLACK
6
CONTINUOUS
10
7.5768
20
-5.03037
11
7.5693
21
-5.02662
0
LINE
8
BLACK
6
CONTINUOUS
10
7.5693
20
-5.02662
11
7.55805
21
-5.02662
0
LINE
8
BLACK
6
CONTINUOUS
10
7.55805
20
-5.02662
11
7.55055
21
-5.02287
0
LINE
8
BLACK
6
CONTINUOUS
10
7.55055
20
-5.02287
11
7.5468
21
-5.01537
0
LINE
8
BLACK
6
CONTINUOUS
10
7.5468
20
-5.01537
11
7.5468
21
-5.01162
0
LINE
8
BLACK
6
CONTINUOUS
10
7.5468
20
-5.01162
11
7.55055
21
-5.00412
0
LINE
8
BLACK
6
CONTINUOUS
10
7.55055
20
-5.00412
11
7.55805
21
-5.00037
0
LINE
8
BLACK
6
CONTINUOUS
10
7.55805
20
-5.00037
11
7.5693
21
-5.00037
0
LINE
8
BLACK
6
CONTINUOUS
10
7.5693
20
-5.00037
11
7.5768
21
-5.00412
0
LINE
8
BLACK
6
CONTINUOUS
10
7.60679
20
-5.08286
11
7.61054
21
-5.07911
0
LINE
8
BLACK
6
CONTINUOUS
10
7.61054
20
-5.07911
11
7.61804
21
-5.06786
0
LINE
8
BLACK
6
CONTINUOUS
10
7.61804
20
-5.06786
11
7.62179
21
-5.06036
0
LINE
8
BLACK
6
CONTINUOUS
10
7.62179
20
-5.06036
11
7.62554
21
-5.04912
0
LINE
8
BLACK
6
CONTINUOUS
10
7.62554
20
-5.04912
11
7.62929
21
-5.03037
0
LINE
8
BLACK
6
CONTINUOUS
10
7.62929
20
-5.03037
11
7.62929
21
-5.01537
0
LINE
8
BLACK
6
CONTINUOUS
10
7.62929
20
-5.01537
11
7.62554
21
-4.99662
0
LINE
8
BLACK
6
CONTINUOUS
10
7.62554
20
-4.99662
11
7.62179
21
-4.98537
0
LINE
8
BLACK
6
CONTINUOUS
10
7.62179
20
-4.98537
11
7.61804
21
-4.97787
0
LINE
8
BLACK
6
CONTINUOUS
10
7.61804
20
-4.97787
11
7.61054
21
-4.96663
0
LINE
8
BLACK
6
CONTINUOUS
10
7.61054
20
-4.96663
11
7.60679
21
-4.96288
0
CIRCLE
8
BLACK
10
5.69303
20
-5.12787
40
0.015
0
LINE
8
BLACK
6
CONTINUOUS
10
5.82052
20
-5.07806
11
5.82802
21
-5.07806
0
LINE
8
BLACK
6
CONTINUOUS
10
5.82802
20
-5.07806
11
5.83552
21
-5.08181
0
LINE
8
BLACK
6
CONTINUOUS
10
5.83552
20
-5.08181
11
5.83927
21
-5.08556
0
LINE
8
BLACK
6
CONTINUOUS
10
5.83927
20
-5.08556
11
5.84301
21
-5.09306
0
LINE
8
BLACK
6
CONTINUOUS
10
5.84301
20
-5.09306
11
5.84676
21
-5.10806
0
LINE
8
BLACK
6
CONTINUOUS
10
5.84676
20
-5.10806
11
5.84676
21
-5.12681
0
LINE
8
BLACK
6
CONTINUOUS
10
5.84676
20
-5.12681
11
5.84301
21
-5.1418
0
LINE
8
BLACK
6
CONTINUOUS
10
5.84301
20
-5.1418
11
5.83927
21
-5.1493
0
LINE
8
BLACK
6
CONTINUOUS
10
5.83927
20
-5.1493
11
5.83552
21
-5.15305
0
LINE
8
BLACK
6
CONTINUOUS
10
5.83552
20
-5.15305
11
5.82802
21
-5.1568
0
LINE
8
BLACK
6
CONTINUOUS
10
5.82802
20
-5.1568
11
5.82052
21
-5.1568
0
LINE
8
BLACK
6
CONTINUOUS
10
5.82052
20
-5.1568
11
5.81302
21
-5.15305
0
LINE
8
BLACK
6
CONTINUOUS
10
5.81302
20
-5.15305
11
5.80927
21
-5.1493
0
LINE
8
BLACK
6
CONTINUOUS
10
5.80927
20
-5.1493
11
5.80552
21
-5.1418
0
LINE
8
BLACK
6
CONTINUOUS
10
5.80552
20
-5.1418
11
5.80177
21
-5.12681
0
LINE
8
BLACK
6
CONTINUOUS
10
5.80177
20
-5.12681
11
5.80177
21
-5.10806
0
LINE
8
BLACK
6
CONTINUOUS
10
5.80177
20
-5.10806
11
5.80552
21
-5.09306
0
LINE
8
BLACK
6
CONTINUOUS
10
5.80552
20
-5.09306
11
5.80927
21
-5.08556
0
LINE
8
BLACK
6
CONTINUOUS
10
5.80927
20
-5.08556
11
5.81302
21
-5.08181
0
LINE
8
BLACK
6
CONTINUOUS
10
5.81302
20
-5.08181
11
5.82052
21
-5.07806
0
LINE
8
BLACK
6
CONTINUOUS
10
5.88051
20
-5.1493
11
5.88426
21
-5.15305
0
LINE
8
BLACK
6
CONTINUOUS
10
5.88426
20
-5.15305
11
5.88051
21
-5.1568
0
LINE
8
BLACK
6
CONTINUOUS
10
5.88051
20
-5.1568
11
5.87676
21
-5.15305
0
LINE
8
BLACK
6
CONTINUOUS
10
5.87676
20
-5.15305
11
5.88051
21
-5.1493
0
LINE
8
BLACK
6
CONTINUOUS
10
5.88051
20
-5.1493
11
5.88051
21
-5.1568
0
LINE
8
BLACK
6
CONTINUOUS
10
5.91051
20
-5.07806
11
5.963
21
-5.07806
0
LINE
8
BLACK
6
CONTINUOUS
10
5.963
20
-5.07806
11
5.92925
21
-5.1568
0
LINE
8
BLACK
6
CONTINUOUS
10
6.02674
20
-5.07806
11
6.01174
21
-5.07806
0
LINE
8
BLACK
6
CONTINUOUS
10
6.01174
20
-5.07806
11
6.00424
21
-5.08181
0
LINE
8
BLACK
6
CONTINUOUS
10
6.00424
20
-5.08181
11
6.00049
21
-5.08556
0
LINE
8
BLACK
6
CONTINUOUS
10
6.00049
20
-5.08556
11
5.993
21
-5.09681
0
LINE
8
BLACK
6
CONTINUOUS
10
5.993
20
-5.09681
11
5.98925
21
-5.11181
0
LINE
8
BLACK
6
CONTINUOUS
10
5.98925
20
-5.11181
11
5.98925
21
-5.1418
0
LINE
8
BLACK
6
CONTINUOUS
10
5.98925
20
-5.1418
11
5.993
21
-5.1493
0
LINE
8
BLACK
6
CONTINUOUS
10
5.993
20
-5.1493
11
5.99675
21
-5.15305
0
LINE
8
BLACK
6
CONTINUOUS
10
5.99675
20
-5.15305
11
6.00424
21
-5.1568
0
LINE
8
BLACK
6
CONTINUOUS
10
6.00424
20
-5.1568
11
6.01924
21
-5.1568
0
LINE
8
BLACK
6
CONTINUOUS
10
6.01924
20
-5.1568
11
6.02674
21
-5.15305
0
LINE
8
BLACK
6
CONTINUOUS
10
6.02674
20
-5.15305
11
6.03049
21
-5.1493
0
LINE
8
BLACK
6
CONTINUOUS
10
6.03049
20
-5.1493
11
6.03424
21
-5.1418
0
LINE
8
BLACK
6
CONTINUOUS
10
6.03424
20
-5.1418
11
6.03424
21
-5.12306
0
LINE
8
BLACK
6
CONTINUOUS
10
6.03424
20
-5.12306
11
6.03049
21
-5.11556
0
LINE
8
BLACK
6
CONTINUOUS
10
6.03049
20
-5.11556
11
6.02674
21
-5.11181
0
LINE
8
BLACK
6
CONTINUOUS
10
6.02674
20
-5.11181
11
6.01924
21
-5.10806
0
LINE
8
BLACK
6
CONTINUOUS
10
6.01924
20
-5.10806
11
6.00424
21
-5.10806
0
LINE
8
BLACK
6
CONTINUOUS
10
6.00424
20
-5.10806
11
5.99675
21
-5.11181
0
LINE
8
BLACK
6
CONTINUOUS
10
5.99675
20
-5.11181
11
5.993
21
-5.11556
0
LINE
8
BLACK
6
CONTINUOUS
10
5.993
20
-5.11556
11
5.98925
21
-5.12306
0
LINE
8
BLACK
6
CONTINUOUS
10
6.06424
20
-5.08556
11
6.06799
21
-5.08181
0
LINE
8
BLACK
6
CONTINUOUS
10
6.06799
20
-5.08181
11
6.07549
21
-5.07806
0
LINE
8
BLACK
6
CONTINUOUS
10
6.07549
20
-5.07806
11
6.09423
21
-5.07806
0
LINE
8
BLACK
6
CONTINUOUS
10
6.09423
20
-5.07806
11
6.10173
21
-5.08181
0
LINE
8
BLACK
6
CONTINUOUS
10
6.10173
20
-5.08181
11
6.10548
21
-5.08556
0
LINE
8
BLACK
6
CONTINUOUS
10
6.10548
20
-5.08556
11
6.10923
21
-5.09306
0
LINE
8
BLACK
6
CONTINUOUS
10
6.10923
20
-5.09306
11
6.10923
21
-5.10056
0
LINE
8
BLACK
6
CONTINUOUS
10
6.10923
20
-5.10056
11
6.10548
21
-5.11181
0
LINE
8
BLACK
6
CONTINUOUS
10
6.10548
20
-5.11181
11
6.06049
21
-5.1568
0
LINE
8
BLACK
6
CONTINUOUS
10
6.06049
20
-5.1568
11
6.10923
21
-5.1568
0
LINE
8
BLACK
6
CONTINUOUS
10
6.14298
20
-5.1568
11
6.14298
21
-5.10431
0
LINE
8
BLACK
6
CONTINUOUS
10
6.14298
20
-5.11181
11
6.14673
21
-5.10806
0
LINE
8
BLACK
6
CONTINUOUS
10
6.14673
20
-5.10806
11
6.15423
21
-5.10431
0
LINE
8
BLACK
6
CONTINUOUS
10
6.15423
20
-5.10431
11
6.16547
21
-5.10431
0
LINE
8
BLACK
6
CONTINUOUS
10
6.16547
20
-5.10431
11
6.17297
21
-5.10806
0
LINE
8
BLACK
6
CONTINUOUS
10
6.17297
20
-5.10806
11
6.17672
21
-5.11556
0
LINE
8
BLACK
6
CONTINUOUS
10
6.17672
20
-5.11556
11
6.17672
21
-5.1568
0
LINE
8
BLACK
6
CONTINUOUS
10
6.17672
20
-5.11556
11
6.18047
21
-5.10806
0
LINE
8
BLACK
6
CONTINUOUS
10
6.18047
20
-5.10806
11
6.18797
21
-5.10431
0
LINE
8
BLACK
6
CONTINUOUS
10
6.18797
20
-5.10431
11
6.19922
21
-5.10431
0
LINE
8
BLACK
6
CONTINUOUS
10
6.19922
20
-5.10431
11
6.20672
21
-5.10806
0
LINE
8
BLACK
6
CONTINUOUS
10
6.20672
20
-5.10806
11
6.21047
21
-5.11556
0
LINE
8
BLACK
6
CONTINUOUS
10
6.21047
20
-5.11556
11
6.21047
21
-5.1568
0
LINE
8
BLACK
6
CONTINUOUS
10
6.24796
20
-5.1568
11
6.24796
21
-5.10431
0
LINE
8
BLACK
6
CONTINUOUS
10
6.24796
20
-5.11181
11
6.25171
21
-5.10806
0
LINE
8
BLACK
6
CONTINUOUS
10
6.25171
20
-5.10806
11
6.25921
21
-5.10431
0
LINE
8
BLACK
6
CONTINUOUS
10
6.25921
20
-5.10431
11
6.27046
21
-5.10431
0
LINE
8
BLACK
6
CONTINUOUS
10
6.27046
20
-5.10431
11
6.27796
21
-5.10806
0
LINE
8
BLACK
6
CONTINUOUS
10
6.27796
20
-5.10806
11
6.28171
21
-5.11556
0
LINE
8
BLACK
6
CONTINUOUS
10
6.28171
20
-5.11556
11
6.28171
21
-5.1568
0
LINE
8
BLACK
6
CONTINUOUS
10
6.28171
20
-5.11556
11
6.28546
21
-5.10806
0
LINE
8
BLACK
6
CONTINUOUS
10
6.28546
20
-5.10806
11
6.29296
21
-5.10431
0
LINE
8
BLACK
6
CONTINUOUS
10
6.29296
20
-5.10431
11
6.30421
21
-5.10431
0
LINE
8
BLACK
6
CONTINUOUS
10
6.30421
20
-5.10431
11
6.31171
21
-5.10806
0
LINE
8
BLACK
6
CONTINUOUS
10
6.31171
20
-5.10806
11
6.31546
21
-5.11556
0
LINE
8
BLACK
6
CONTINUOUS
10
6.31546
20
-5.11556
11
6.31546
21
-5.1568
0
LINE
8
BLACK
6
CONTINUOUS
10
6.45644
20
-5.07431
11
6.38895
21
-5.17555
0
LINE
8
BLACK
6
CONTINUOUS
10
6.54493
20
-5.07806
11
6.55243
21
-5.07806
0
LINE
8
BLACK
6
CONTINUOUS
10
6.55243
20
-5.07806
11
6.55993
21
-5.08181
0
LINE
8
BLACK
6
CONTINUOUS
10
6.55993
20
-5.08181
11
6.56367
21
-5.08556
0
LINE
8
BLACK
6
CONTINUOUS
10
6.56367
20
-5.08556
11
6.56742
21
-5.09306
0
LINE
8
BLACK
6
CONTINUOUS
10
6.56742
20
-5.09306
11
6.57117
21
-5.10806
0
LINE
8
BLACK
6
CONTINUOUS
10
6.57117
20
-5.10806
11
6.57117
21
-5.12681
0
LINE
8
BLACK
6
CONTINUOUS
10
6.57117
20
-5.12681
11
6.56742
21
-5.1418
0
LINE
8
BLACK
6
CONTINUOUS
10
6.56742
20
-5.1418
11
6.56367
21
-5.1493
0
LINE
8
BLACK
6
CONTINUOUS
10
6.56367
20
-5.1493
11
6.55993
21
-5.15305
0
LINE
8
BLACK
6
CONTINUOUS
10
6.55993
20
-5.15305
11
6.55243
21
-5.1568
0
LINE
8
BLACK
6
CONTINUOUS
10
6.55243
20
-5.1568
11
6.54493
21
-5.1568
0
LINE
8
BLACK
6
CONTINUOUS
10
6.54493
20
-5.1568
11
6.53743
21
-5.15305
0
LINE
8
BLACK
6
CONTINUOUS
10
6.53743
20
-5.15305
11
6.53368
21
-5.1493
0
LINE
8
BLACK
6
CONTINUOUS
10
6.53368
20
-5.1493
11
6.52993
21
-5.1418
0
LINE
8
BLACK
6
CONTINUOUS
10
6.52993
20
-5.1418
11
6.52618
21
-5.12681
0
LINE
8
BLACK
6
CONTINUOUS
10
6.52618
20
-5.12681
11
6.52618
21
-5.10806
0
LINE
8
BLACK
6
CONTINUOUS
10
6.52618
20
-5.10806
11
6.52993
21
-5.09306
0
LINE
8
BLACK
6
CONTINUOUS
10
6.52993
20
-5.09306
11
6.53368
21
-5.08556
0
LINE
8
BLACK
6
CONTINUOUS
10
6.53368
20
-5.08556
11
6.53743
21
-5.08181
0
LINE
8
BLACK
6
CONTINUOUS
10
6.53743
20
-5.08181
11
6.54493
21
-5.07806
0
LINE
8
BLACK
6
CONTINUOUS
10
6.60492
20
-5.1493
11
6.60867
21
-5.15305
0
LINE
8
BLACK
6
CONTINUOUS
10
6.60867
20
-5.15305
11
6.60492
21
-5.1568
0
LINE
8
BLACK
6
CONTINUOUS
10
6.60492
20
-5.1568
11
6.60117
21
-5.15305
0
LINE
8
BLACK
6
CONTINUOUS
10
6.60117
20
-5.15305
11
6.60492
21
-5.1493
0
LINE
8
BLACK
6
CONTINUOUS
10
6.60492
20
-5.1493
11
6.60492
21
-5.1568
0
LINE
8
BLACK
6
CONTINUOUS
10
6.65741
20
-5.07806
11
6.66491
21
-5.07806
0
LINE
8
BLACK
6
CONTINUOUS
10
6.66491
20
-5.07806
11
6.67241
21
-5.08181
0
LINE
8
BLACK
6
CONTINUOUS
10
6.67241
20
-5.08181
11
6.67616
21
-5.08556
0
LINE
8
BLACK
6
CONTINUOUS
10
6.67616
20
-5.08556
11
6.67991
21
-5.09306
0
LINE
8
BLACK
6
CONTINUOUS
10
6.67991
20
-5.09306
11
6.68366
21
-5.10806
0
LINE
8
BLACK
6
CONTINUOUS
10
6.68366
20
-5.10806
11
6.68366
21
-5.12681
0
LINE
8
BLACK
6
CONTINUOUS
10
6.68366
20
-5.12681
11
6.67991
21
-5.1418
0
LINE
8
BLACK
6
CONTINUOUS
10
6.67991
20
-5.1418
11
6.67616
21
-5.1493
0
LINE
8
BLACK
6
CONTINUOUS
10
6.67616
20
-5.1493
11
6.67241
21
-5.15305
0
LINE
8
BLACK
6
CONTINUOUS
10
6.67241
20
-5.15305
11
6.66491
21
-5.1568
0
LINE
8
BLACK
6
CONTINUOUS
10
6.66491
20
-5.1568
11
6.65741
21
-5.1568
0
LINE
8
BLACK
6
CONTINUOUS
10
6.65741
20
-5.1568
11
6.64991
21
-5.15305
0
LINE
8
BLACK
6
CONTINUOUS
10
6.64991
20
-5.15305
11
6.64616
21
-5.1493
0
LINE
8
BLACK
6
CONTINUOUS
10
6.64616
20
-5.1493
11
6.64241
21
-5.1418
0
LINE
8
BLACK
6
CONTINUOUS
10
6.64241
20
-5.1418
11
6.63867
21
-5.12681
0
LINE
8
BLACK
6
CONTINUOUS
10
6.63867
20
-5.12681
11
6.63867
21
-5.10806
0
LINE
8
BLACK
6
CONTINUOUS
10
6.63867
20
-5.10806
11
6.64241
21
-5.09306
0
LINE
8
BLACK
6
CONTINUOUS
10
6.64241
20
-5.09306
11
6.64616
21
-5.08556
0
LINE
8
BLACK
6
CONTINUOUS
10
6.64616
20
-5.08556
11
6.64991
21
-5.08181
0
LINE
8
BLACK
6
CONTINUOUS
10
6.64991
20
-5.08181
11
6.65741
21
-5.07806
0
LINE
8
BLACK
6
CONTINUOUS
10
6.70991
20
-5.07806
11
6.75865
21
-5.07806
0
LINE
8
BLACK
6
CONTINUOUS
10
6.75865
20
-5.07806
11
6.7324
21
-5.10806
0
LINE
8
BLACK
6
CONTINUOUS
10
6.7324
20
-5.10806
11
6.74365
21
-5.10806
0
LINE
8
BLACK
6
CONTINUOUS
10
6.74365
20
-5.10806
11
6.75115
21
-5.11181
0
LINE
8
BLACK
6
CONTINUOUS
10
6.75115
20
-5.11181
11
6.7549
21
-5.11556
0
LINE
8
BLACK
6
CONTINUOUS
10
6.7549
20
-5.11556
11
6.75865
21
-5.12306
0
LINE
8
BLACK
6
CONTINUOUS
10
6.75865
20
-5.12306
11
6.75865
21
-5.1418
0
LINE
8
BLACK
6
CONTINUOUS
10
6.75865
20
-5.1418
11
6.7549
21
-5.1493
0
LINE
8
BLACK
6
CONTINUOUS
10
6.7549
20
-5.1493
11
6.75115
21
-5.15305
0
LINE
8
BLACK
6
CONTINUOUS
10
6.75115
20
-5.15305
11
6.74365
21
-5.1568
0
LINE
8
BLACK
6
CONTINUOUS
10
6.74365
20
-5.1568
11
6.72115
21
-5.1568
0
LINE
8
BLACK
6
CONTINUOUS
10
6.72115
20
-5.1568
11
6.71366
21
-5.15305
0
LINE
8
BLACK
6
CONTINUOUS
10
6.71366
20
-5.15305
11
6.70991
21
-5.1493
0
LINE
8
BLACK
6
CONTINUOUS
10
6.80739
20
-5.07806
11
6.81489
21
-5.07806
0
LINE
8
BLACK
6
CONTINUOUS
10
6.81489
20
-5.07806
11
6.82239
21
-5.08181
0
LINE
8
BLACK
6
CONTINUOUS
10
6.82239
20
-5.08181
11
6.82614
21
-5.08556
0
LINE
8
BLACK
6
CONTINUOUS
10
6.82614
20
-5.08556
11
6.82989
21
-5.09306
0
LINE
8
BLACK
6
CONTINUOUS
10
6.82989
20
-5.09306
11
6.83364
21
-5.10806
0
LINE
8
BLACK
6
CONTINUOUS
10
6.83364
20
-5.10806
11
6.83364
21
-5.12681
0
LINE
8
BLACK
6
CONTINUOUS
10
6.83364
20
-5.12681
11
6.82989
21
-5.1418
0
LINE
8
BLACK
6
CONTINUOUS
10
6.82989
20
-5.1418
11
6.82614
21
-5.1493
0
LINE
8
BLACK
6
CONTINUOUS
10
6.82614
20
-5.1493
11
6.82239
21
-5.15305
0
LINE
8
BLACK
6
CONTINUOUS
10
6.82239
20
-5.15305
11
6.81489
21
-5.1568
0
LINE
8
BLACK
6
CONTINUOUS
10
6.81489
20
-5.1568
11
6.80739
21
-5.1568
0
LINE
8
BLACK
6
CONTINUOUS
10
6.80739
20
-5.1568
11
6.7999
21
-5.15305
0
LINE
8
BLACK
6
CONTINUOUS
10
6.7999
20
-5.15305
11
6.79615
21
-5.1493
0
LINE
8
BLACK
6
CONTINUOUS
10
6.79615
20
-5.1493
11
6.7924
21
-5.1418
0
LINE
8
BLACK
6
CONTINUOUS
10
6.7924
20
-5.1418
11
6.78865
21
-5.12681
0
LINE
8
BLACK
6
CONTINUOUS
10
6.78865
20
-5.12681
11
6.78865
21
-5.10806
0
LINE
8
BLACK
6
CONTINUOUS
10
6.78865
20
-5.10806
11
6.7924
21
-5.09306
0
LINE
8
BLACK
6
CONTINUOUS
10
6.7924
20
-5.09306
11
6.79615
21
-5.08556
0
LINE
8
BLACK
6
CONTINUOUS
10
6.79615
20
-5.08556
11
6.7999
21
-5.08181
0
LINE
8
BLACK
6
CONTINUOUS
10
6.7999
20
-5.08181
11
6.80739
21
-5.07806
0
LINE
8
BLACK
6
CONTINUOUS
10
6.88238
20
-5.07806
11
6.88988
21
-5.07806
0
LINE
8
BLACK
6
CONTINUOUS
10
6.88988
20
-5.07806
11
6.89738
21
-5.08181
0
LINE
8
BLACK
6
CONTINUOUS
10
6.89738
20
-5.08181
11
6.90113
21
-5.08556
0
LINE
8
BLACK
6
CONTINUOUS
10
6.90113
20
-5.08556
11
6.90488
21
-5.09306
0
LINE
8
BLACK
6
CONTINUOUS
10
6.90488
20
-5.09306
11
6.90863
21
-5.10806
0
LINE
8
BLACK
6
CONTINUOUS
10
6.90863
20
-5.10806
11
6.90863
21
-5.12681
0
LINE
8
BLACK
6
CONTINUOUS
10
6.90863
20
-5.12681
11
6.90488
21
-5.1418
0
LINE
8
BLACK
6
CONTINUOUS
10
6.90488
20
-5.1418
11
6.90113
21
-5.1493
0
LINE
8
BLACK
6
CONTINUOUS
10
6.90113
20
-5.1493
11
6.89738
21
-5.15305
0
LINE
8
BLACK
6
CONTINUOUS
10
6.89738
20
-5.15305
11
6.88988
21
-5.1568
0
LINE
8
BLACK
6
CONTINUOUS
10
6.88988
20
-5.1568
11
6.88238
21
-5.1568
0
LINE
8
BLACK
6
CONTINUOUS
10
6.88238
20
-5.1568
11
6.87489
21
-5.15305
0
LINE
8
BLACK
6
CONTINUOUS
10
6.87489
20
-5.15305
11
6.87114
21
-5.1493
0
LINE
8
BLACK
6
CONTINUOUS
10
6.87114
20
-5.1493
11
6.86739
21
-5.1418
0
LINE
8
BLACK
6
CONTINUOUS
10
6.86739
20
-5.1418
11
6.86364
21
-5.12681
0
LINE
8
BLACK
6
CONTINUOUS
10
6.86364
20
-5.12681
11
6.86364
21
-5.10806
0
LINE
8
BLACK
6
CONTINUOUS
10
6.86364
20
-5.10806
11
6.86739
21
-5.09306
0
LINE
8
BLACK
6
CONTINUOUS
10
6.86739
20
-5.09306
11
6.87114
21
-5.08556
0
LINE
8
BLACK
6
CONTINUOUS
10
6.87114
20
-5.08556
11
6.87489
21
-5.08181
0
LINE
8
BLACK
6
CONTINUOUS
10
6.87489
20
-5.08181
11
6.88238
21
-5.07806
0
LINE
8
BLACK
6
CONTINUOUS
10
6.93863
20
-5.07806
11
6.93863
21
-5.09306
0
LINE
8
BLACK
6
CONTINUOUS
10
6.96862
20
-5.07806
11
6.96862
21
-5.09306
0
LINE
8
BLACK
6
CONTINUOUS
10
7.07211
20
-5.1868
11
7.06836
21
-5.18305
0
LINE
8
BLACK
6
CONTINUOUS
10
7.06836
20
-5.18305
11
7.06086
21
-5.1718
0
LINE
8
BLACK
6
CONTINUOUS
10
7.06086
20
-5.1718
11
7.05711
21
-5.1643
0
LINE
8
BLACK
6
CONTINUOUS
10
7.05711
20
-5.1643
11
7.05336
21
-5.15305
0
LINE
8
BLACK
6
CONTINUOUS
10
7.05336
20
-5.15305
11
7.04961
21
-5.1343
0
LINE
8
BLACK
6
CONTINUOUS
10
7.04961
20
-5.1343
11
7.04961
21
-5.11931
0
LINE
8
BLACK
6
CONTINUOUS
10
7.04961
20
-5.11931
11
7.05336
21
-5.10056
0
LINE
8
BLACK
6
CONTINUOUS
10
7.05336
20
-5.10056
11
7.05711
21
-5.08931
0
LINE
8
BLACK
6
CONTINUOUS
10
7.05711
20
-5.08931
11
7.06086
21
-5.08181
0
LINE
8
BLACK
6
CONTINUOUS
10
7.06086
20
-5.08181
11
7.06836
21
-5.07056
0
LINE
8
BLACK
6
CONTINUOUS
10
7.06836
20
-5.07056
11
7.07211
21
-5.06681
0
LINE
8
BLACK
6
CONTINUOUS
10
7.14335
20
-5.1568
11
7.09836
21
-5.1568
0
LINE
8
BLACK
6
CONTINUOUS
10
7.12085
20
-5.1568
11
7.12085
21
-5.07806
0
LINE
8
BLACK
6
CONTINUOUS
10
7.12085
20
-5.07806
11
7.11336
21
-5.08931
0
LINE
8
BLACK
6
CONTINUOUS
10
7.11336
20
-5.08931
11
7.10586
21
-5.09681
0
LINE
8
BLACK
6
CONTINUOUS
10
7.10586
20
-5.09681
11
7.09836
21
-5.10056
0
LINE
8
BLACK
6
CONTINUOUS
10
7.17335
20
-5.08556
11
7.1771
21
-5.08181
0
LINE
8
BLACK
6
CONTINUOUS
10
7.1771
20
-5.08181
11
7.1846
21
-5.07806
0
LINE
8
BLACK
6
CONTINUOUS
10
7.1846
20
-5.07806
11
7.20334
21
-5.07806
0
LINE
8
BLACK
6
CONTINUOUS
10
7.20334
20
-5.07806
11
7.21084
21
-5.08181
0
LINE
8
BLACK
6
CONTINUOUS
10
7.21084
20
-5.08181
11
7.21459
21
-5.08556
0
LINE
8
BLACK
6
CONTINUOUS
10
7.21459
20
-5.08556
11
7.21834
21
-5.09306
0
LINE
8
BLACK
6
CONTINUOUS
10
7.21834
20
-5.09306
11
7.21834
21
-5.10056
0
LINE
8
BLACK
6
CONTINUOUS
10
7.21834
20
-5.10056
11
7.21459
21
-5.11181
0
LINE
8
BLACK
6
CONTINUOUS
10
7.21459
20
-5.11181
11
7.1696
21
-5.1568
0
LINE
8
BLACK
6
CONTINUOUS
10
7.1696
20
-5.1568
11
7.21834
21
-5.1568
0
LINE
8
BLACK
6
CONTINUOUS
10
7.29933
20
-5.1568
11
7.29933
21
-5.07806
0
LINE
8
BLACK
6
CONTINUOUS
10
7.33308
20
-5.1568
11
7.33308
21
-5.11556
0
LINE
8
BLACK
6
CONTINUOUS
10
7.33308
20
-5.11556
11
7.32933
21
-5.10806
0
LINE
8
BLACK
6
CONTINUOUS
10
7.32933
20
-5.10806
11
7.32183
21
-5.10431
0
LINE
8
BLACK
6
CONTINUOUS
10
7.32183
20
-5.10431
11
7.31058
21
-5.10431
0
LINE
8
BLACK
6
CONTINUOUS
10
7.31058
20
-5.10431
11
7.30308
21
-5.10806
0
LINE
8
BLACK
6
CONTINUOUS
10
7.30308
20
-5.10806
11
7.29933
21
-5.11181
0
LINE
8
BLACK
6
CONTINUOUS
10
7.38182
20
-5.1568
11
7.37432
21
-5.15305
0
LINE
8
BLACK
6
CONTINUOUS
10
7.37432
20
-5.15305
11
7.37057
21
-5.1493
0
LINE
8
BLACK
6
CONTINUOUS
10
7.37057
20
-5.1493
11
7.36682
21
-5.1418
0
LINE
8
BLACK
6
CONTINUOUS
10
7.36682
20
-5.1418
11
7.36682
21
-5.11931
0
LINE
8
BLACK
6
CONTINUOUS
10
7.36682
20
-5.11931
11
7.37057
21
-5.11181
0
LINE
8
BLACK
6
CONTINUOUS
10
7.37057
20
-5.11181
11
7.37432
21
-5.10806
0
LINE
8
BLACK
6
CONTINUOUS
10
7.37432
20
-5.10806
11
7.38182
21
-5.10431
0
LINE
8
BLACK
6
CONTINUOUS
10
7.38182
20
-5.10431
11
7.39307
21
-5.10431
0
LINE
8
BLACK
6
CONTINUOUS
10
7.39307
20
-5.10431
11
7.40057
21
-5.10806
0
LINE
8
BLACK
6
CONTINUOUS
10
7.40057
20
-5.10806
11
7.40432
21
-5.11181
0
LINE
8
BLACK
6
CONTINUOUS
10
7.40432
20
-5.11181
11
7.40807
21
-5.11931
0
LINE
8
BLACK
6
CONTINUOUS
10
7.40807
20
-5.11931
11
7.40807
21
-5.1418
0
LINE
8
BLACK
6
CONTINUOUS
10
7.40807
20
-5.1418
11
7.40432
21
-5.1493
0
LINE
8
BLACK
6
CONTINUOUS
10
7.40432
20
-5.1493
11
7.40057
21
-5.15305
0
LINE
8
BLACK
6
CONTINUOUS
10
7.40057
20
-5.15305
11
7.39307
21
-5.1568
0
LINE
8
BLACK
6
CONTINUOUS
10
7.39307
20
-5.1568
11
7.38182
21
-5.1568
0
LINE
8
BLACK
6
CONTINUOUS
10
7.45306
20
-5.1568
11
7.44556
21
-5.15305
0
LINE
8
BLACK
6
CONTINUOUS
10
7.44556
20
-5.15305
11
7.44181
21
-5.14555
0
LINE
8
BLACK
6
CONTINUOUS
10
7.44181
20
-5.14555
11
7.44181
21
-5.07806
0
LINE
8
BLACK
6
CONTINUOUS
10
7.51306
20
-5.15305
11
7.50556
21
-5.1568
0
LINE
8
BLACK
6
CONTINUOUS
10
7.50556
20
-5.1568
11
7.49056
21
-5.1568
0
LINE
8
BLACK
6
CONTINUOUS
10
7.49056
20
-5.1568
11
7.48306
21
-5.15305
0
LINE
8
BLACK
6
CONTINUOUS
10
7.48306
20
-5.15305
11
7.47931
21
-5.14555
0
LINE
8
BLACK
6
CONTINUOUS
10
7.47931
20
-5.14555
11
7.47931
21
-5.11556
0
LINE
8
BLACK
6
CONTINUOUS
10
7.47931
20
-5.11556
11
7.48306
21
-5.10806
0
LINE
8
BLACK
6
CONTINUOUS
10
7.48306
20
-5.10806
11
7.49056
21
-5.10431
0
LINE
8
BLACK
6
CONTINUOUS
10
7.49056
20
-5.10431
11
7.50556
21
-5.10431
0
LINE
8
BLACK
6
CONTINUOUS
10
7.50556
20
-5.10431
11
7.51306
21
-5.10806
0
LINE
8
BLACK
6
CONTINUOUS
10
7.51306
20
-5.10806
11
7.51681
21
-5.11556
0
LINE
8
BLACK
6
CONTINUOUS
10
7.51681
20
-5.11556
11
7.51681
21
-5.12306
0
LINE
8
BLACK
6
CONTINUOUS
10
7.51681
20
-5.12306
11
7.47931
21
-5.13055
0
LINE
8
BLACK
6
CONTINUOUS
10
7.5468
20
-5.15305
11
7.5543
21
-5.1568
0
LINE
8
BLACK
6
CONTINUOUS
10
7.5543
20
-5.1568
11
7.5693
21
-5.1568
0
LINE
8
BLACK
6
CONTINUOUS
10
7.5693
20
-5.1568
11
7.5768
21
-5.15305
0
LINE
8
BLACK
6
CONTINUOUS
10
7.5768
20
-5.15305
11
7.58055
21
-5.14555
0
LINE
8
BLACK
6
CONTINUOUS
10
7.58055
20
-5.14555
11
7.58055
21
-5.1418
0
LINE
8
BLACK
6
CONTINUOUS
10
7.58055
20
-5.1418
11
7.5768
21
-5.1343
0
LINE
8
BLACK
6
CONTINUOUS
10
7.5768
20
-5.1343
11
7.5693
21
-5.13055
0
LINE
8
BLACK
6
CONTINUOUS
10
7.5693
20
-5.13055
11
7.55805
21
-5.13055
0
LINE
8
BLACK
6
CONTINUOUS
10
7.55805
20
-5.13055
11
7.55055
21
-5.12681
0
LINE
8
BLACK
6
CONTINUOUS
10
7.55055
20
-5.12681
11
7.5468
21
-5.11931
0
LINE
8
BLACK
6
CONTINUOUS
10
7.5468
20
-5.11931
11
7.5468
21
-5.11556
0
LINE
8
BLACK
6
CONTINUOUS
10
7.5468
20
-5.11556
11
7.55055
21
-5.10806
0
LINE
8
BLACK
6
CONTINUOUS
10
7.55055
20
-5.10806
11
7.55805
21
-5.10431
0
LINE
8
BLACK
6
CONTINUOUS
10
7.55805
20
-5.10431
11
7.5693
21
-5.10431
0
LINE
8
BLACK
6
CONTINUOUS
10
7.5693
20
-5.10431
11
7.5768
21
-5.10806
0
LINE
8
BLACK
6
CONTINUOUS
10
7.60679
20
-5.1868
11
7.61054
21
-5.18305
0
LINE
8
BLACK
6
CONTINUOUS
10
7.61054
20
-5.18305
11
7.61804
21
-5.1718
0
LINE
8
BLACK
6
CONTINUOUS
10
7.61804
20
-5.1718
11
7.62179
21
-5.1643
0
LINE
8
BLACK
6
CONTINUOUS
10
7.62179
20
-5.1643
11
7.62554
21
-5.15305
0
LINE
8
BLACK
6
CONTINUOUS
10
7.62554
20
-5.15305
11
7.62929
21
-5.1343
0
LINE
8
BLACK
6
CONTINUOUS
10
7.62929
20
-5.1343
11
7.62929
21
-5.11931
0
LINE
8
BLACK
6
CONTINUOUS
10
7.62929
20
-5.11931
11
7.62554
21
-5.10056
0
LINE
8
BLACK
6
CONTINUOUS
10
7.62554
20
-5.10056
11
7.62179
21
-5.08931
0
LINE
8
BLACK
6
CONTINUOUS
10
7.62179
20
-5.08931
11
7.61804
21
-5.08181
0
LINE
8
BLACK
6
CONTINUOUS
10
7.61804
20
-5.08181
11
7.61054
21
-5.07056
0
LINE
8
BLACK
6
CONTINUOUS
10
7.61054
20
-5.07056
11
7.60679
21
-5.06681
  0
ENDSEC
  0
EOF
