M48
; DRILL file {KiCad 7.0.0} date 西元2023年09月15日 (週五) 14時50分33秒
; FORMAT={-:-/ absolute / inch / decimal}
; #@! TF.CreationDate,2023-09-15T14:50:33+08:00
; #@! TF.GenerationSoftware,Kicad,Pcbnew,7.0.0
; #@! TF.FileFunction,Plated,1,2,PTH
FMAT,2
INCH
; #@! TA.AperFunction,Plated,PTH,ComponentDrill
T1C0.0276
; #@! TA.AperFunction,Plated,PTH,ComponentDrill
T2C0.0300
%
G90
G05
T1
X5.9038Y-4.366
X5.9117Y-4.2243
X5.9117Y-4.5077
X5.9865Y-4.0983
X5.9865Y-4.6298
X6.1203Y-4.051
X6.2542Y-4.0983
X6.2542Y-4.6298
X6.329Y-4.2243
X6.329Y-4.5077
X6.3369Y-4.366
T2
X5.9628Y-4.266
X5.9628Y-4.366
X5.9628Y-4.466
X6.0203Y-4.1691
X6.0203Y-4.5628
X6.1203Y-4.1691
X6.1203Y-4.5628
X6.2203Y-4.1691
X6.2203Y-4.5628
X6.2778Y-4.266
X6.2778Y-4.366
X6.2778Y-4.466
T0
M30
