%TF.GenerationSoftware,KiCad,Pcbnew,7.0.0*%
%TF.CreationDate,2023-02-15T18:29:24+08:00*%
%TF.ProjectId,OpenNixie,4f70656e-4e69-4786-9965-2e6b69636164,v2.0*%
%TF.SameCoordinates,Original*%
%TF.FileFunction,Soldermask,Top*%
%TF.FilePolarity,Negative*%
%FSLAX46Y46*%
G04 Gerber Fmt 4.6, Leading zero omitted, Abs format (unit mm)*
G04 Created by KiCad (PCBNEW 7.0.0) date 2023-02-15 18:29:24*
%MOMM*%
%LPD*%
G01*
G04 APERTURE LIST*
G04 Aperture macros list*
%AMRoundRect*
0 Rectangle with rounded corners*
0 $1 Rounding radius*
0 $2 $3 $4 $5 $6 $7 $8 $9 X,Y pos of 4 corners*
0 Add a 4 corners polygon primitive as box body*
4,1,4,$2,$3,$4,$5,$6,$7,$8,$9,$2,$3,0*
0 Add four circle primitives for the rounded corners*
1,1,$1+$1,$2,$3*
1,1,$1+$1,$4,$5*
1,1,$1+$1,$6,$7*
1,1,$1+$1,$8,$9*
0 Add four rect primitives between the rounded corners*
20,1,$1+$1,$2,$3,$4,$5,0*
20,1,$1+$1,$4,$5,$6,$7,0*
20,1,$1+$1,$6,$7,$8,$9,0*
20,1,$1+$1,$8,$9,$2,$3,0*%
G04 Aperture macros list end*
%ADD10C,2.200000*%
%ADD11RoundRect,0.250000X0.750000X-0.600000X0.750000X0.600000X-0.750000X0.600000X-0.750000X-0.600000X0*%
%ADD12O,2.000000X1.700000*%
%ADD13C,1.600000*%
%ADD14R,1.600000X1.600000*%
%ADD15O,1.600000X1.600000*%
%ADD16RoundRect,0.250000X1.000000X0.650000X-1.000000X0.650000X-1.000000X-0.650000X1.000000X-0.650000X0*%
%ADD17C,1.524000*%
%ADD18RoundRect,0.250000X-0.725000X0.600000X-0.725000X-0.600000X0.725000X-0.600000X0.725000X0.600000X0*%
%ADD19O,1.950000X1.700000*%
%ADD20C,2.600000*%
%ADD21R,1.050000X1.500000*%
%ADD22O,1.050000X1.500000*%
%ADD23RoundRect,0.250000X-0.850000X-0.350000X0.850000X-0.350000X0.850000X0.350000X-0.850000X0.350000X0*%
%ADD24RoundRect,0.249997X-2.950003X-2.650003X2.950003X-2.650003X2.950003X2.650003X-2.950003X2.650003X0*%
%ADD25R,1.500000X1.050000*%
%ADD26O,1.500000X1.050000*%
%ADD27C,1.400000*%
%ADD28O,1.400000X1.400000*%
%ADD29R,1.905000X2.000000*%
%ADD30O,1.905000X2.000000*%
%ADD31RoundRect,0.150000X0.875000X0.150000X-0.875000X0.150000X-0.875000X-0.150000X0.875000X-0.150000X0*%
%ADD32RoundRect,0.150000X-0.150000X0.725000X-0.150000X-0.725000X0.150000X-0.725000X0.150000X0.725000X0*%
%ADD33RoundRect,0.250000X-0.600000X-0.725000X0.600000X-0.725000X0.600000X0.725000X-0.600000X0.725000X0*%
%ADD34O,1.700000X1.950000*%
%ADD35C,1.440000*%
%ADD36R,3.500000X3.500000*%
%ADD37RoundRect,0.750000X-1.000000X0.750000X-1.000000X-0.750000X1.000000X-0.750000X1.000000X0.750000X0*%
%ADD38RoundRect,0.875000X-0.875000X0.875000X-0.875000X-0.875000X0.875000X-0.875000X0.875000X0.875000X0*%
%ADD39R,1.800000X1.800000*%
%ADD40C,1.800000*%
G04 APERTURE END LIST*
D10*
%TO.C,REF2*%
X77368400Y-121818400D03*
%TD*%
%TO.C,REF3*%
X224434400Y-121818400D03*
%TD*%
%TO.C,REF1*%
X77368400Y-71780400D03*
%TD*%
D11*
%TO.C,BT1*%
X90350000Y-76050000D03*
D12*
X90349999Y-73549999D03*
%TD*%
D13*
%TO.C,C5*%
X135783000Y-87503000D03*
X138283000Y-87503000D03*
%TD*%
D14*
%TO.C,D1*%
X123449999Y-75764314D03*
D15*
X123449999Y-73224314D03*
%TD*%
D16*
%TO.C,D2*%
X166650000Y-100900000D03*
X162650000Y-100900000D03*
%TD*%
D11*
%TO.C,J2*%
X126000000Y-85850000D03*
D12*
X125999999Y-83349999D03*
%TD*%
D17*
%TO.C,J4*%
X152170000Y-92500000D03*
X152170000Y-99900000D03*
X149630000Y-92500000D03*
X149630000Y-99900000D03*
%TD*%
D18*
%TO.C,J5*%
X140600000Y-73000000D03*
D19*
X140599999Y-75499999D03*
X140599999Y-77999999D03*
X140599999Y-80499999D03*
%TD*%
D20*
%TO.C,L1*%
X193040000Y-76581000D03*
X190040000Y-76581000D03*
%TD*%
D21*
%TO.C,Q1*%
X197849999Y-92799999D03*
D22*
X196579999Y-92799999D03*
X195309999Y-92799999D03*
%TD*%
D23*
%TO.C,Q3*%
X160138000Y-91573000D03*
D24*
X166438000Y-93853000D03*
D23*
X160138000Y-96133000D03*
%TD*%
D25*
%TO.C,Q4*%
X105889999Y-91179999D03*
D26*
X105889999Y-92449999D03*
X105889999Y-93719999D03*
%TD*%
D25*
%TO.C,Q5*%
X133399999Y-91179999D03*
D26*
X133399999Y-92449999D03*
X133399999Y-93719999D03*
%TD*%
D25*
%TO.C,Q6*%
X188549999Y-91179999D03*
D26*
X188549999Y-92449999D03*
X188549999Y-93719999D03*
%TD*%
D25*
%TO.C,Q7*%
X215849999Y-91179999D03*
D26*
X215849999Y-92449999D03*
X215849999Y-93719999D03*
%TD*%
D25*
%TO.C,Q8*%
X124939999Y-108839999D03*
D26*
X124939999Y-107569999D03*
X124939999Y-106299999D03*
%TD*%
D25*
%TO.C,Q9*%
X131299999Y-108839999D03*
D26*
X131299999Y-107569999D03*
X131299999Y-106299999D03*
%TD*%
D25*
%TO.C,Q10*%
X137649999Y-108839999D03*
D26*
X137649999Y-107569999D03*
X137649999Y-106299999D03*
%TD*%
D25*
%TO.C,Q11*%
X143999999Y-108839999D03*
D26*
X143999999Y-107569999D03*
X143999999Y-106299999D03*
%TD*%
D25*
%TO.C,Q12*%
X150349999Y-108839999D03*
D26*
X150349999Y-107569999D03*
X150349999Y-106299999D03*
%TD*%
D25*
%TO.C,Q13*%
X112249999Y-108839999D03*
D26*
X112249999Y-107569999D03*
X112249999Y-106299999D03*
%TD*%
D25*
%TO.C,Q14*%
X105899999Y-108839999D03*
D26*
X105899999Y-107569999D03*
X105899999Y-106299999D03*
%TD*%
D25*
%TO.C,Q15*%
X118589999Y-108839999D03*
D26*
X118589999Y-107569999D03*
X118589999Y-106299999D03*
%TD*%
D25*
%TO.C,Q16*%
X99539999Y-108839999D03*
D26*
X99539999Y-107569999D03*
X99539999Y-106299999D03*
%TD*%
D25*
%TO.C,Q17*%
X93179999Y-108839999D03*
D26*
X93179999Y-107569999D03*
X93179999Y-106299999D03*
%TD*%
D27*
%TO.C,R1*%
X132680000Y-73200000D03*
D28*
X135219999Y-73199999D03*
%TD*%
D27*
%TO.C,R2*%
X177737000Y-81548000D03*
D28*
X180276999Y-81547999D03*
%TD*%
D27*
%TO.C,R3*%
X183007000Y-85598000D03*
D28*
X185546999Y-85597999D03*
%TD*%
D27*
%TO.C,R4*%
X177737000Y-85598000D03*
D28*
X180276999Y-85597999D03*
%TD*%
D27*
%TO.C,R5*%
X127110000Y-73200000D03*
D28*
X129649999Y-73199999D03*
%TD*%
D27*
%TO.C,R6*%
X127080000Y-77100000D03*
D28*
X129619999Y-77099999D03*
%TD*%
D27*
%TO.C,R7*%
X159258000Y-79128000D03*
D28*
X159257999Y-81667999D03*
%TD*%
D27*
%TO.C,R8*%
X159258000Y-84328000D03*
D28*
X159257999Y-86867999D03*
%TD*%
D27*
%TO.C,R9*%
X90400000Y-80710000D03*
D28*
X90399999Y-83249999D03*
%TD*%
D27*
%TO.C,R10*%
X90400000Y-85730000D03*
D28*
X90399999Y-88269999D03*
%TD*%
D27*
%TO.C,R11*%
X132680000Y-77100000D03*
D28*
X135219999Y-77099999D03*
%TD*%
D27*
%TO.C,R12*%
X183007000Y-81548000D03*
D28*
X185546999Y-81547999D03*
%TD*%
D27*
%TO.C,R13*%
X141401000Y-87503000D03*
D28*
X143940999Y-87502999D03*
%TD*%
D13*
%TO.C,R14*%
X172847000Y-74168000D03*
D15*
X183006999Y-74167999D03*
%TD*%
D27*
%TO.C,R16*%
X135120000Y-97350000D03*
D28*
X132579999Y-97349999D03*
%TD*%
D27*
%TO.C,R17*%
X217320000Y-97350000D03*
D28*
X214779999Y-97349999D03*
%TD*%
D27*
%TO.C,R18*%
X107400000Y-97350000D03*
D28*
X104859999Y-97349999D03*
%TD*%
D27*
%TO.C,R19*%
X190070000Y-97350000D03*
D28*
X187529999Y-97349999D03*
%TD*%
D27*
%TO.C,R20*%
X107420000Y-101200000D03*
D28*
X104879999Y-101199999D03*
%TD*%
D27*
%TO.C,R21*%
X135120000Y-101200000D03*
D28*
X132579999Y-101199999D03*
%TD*%
D27*
%TO.C,R22*%
X190070000Y-101200000D03*
D28*
X187529999Y-101199999D03*
%TD*%
D27*
%TO.C,R23*%
X217320000Y-101200000D03*
D28*
X214779999Y-101199999D03*
%TD*%
D29*
%TO.C,U1*%
X160869999Y-74802999D03*
D30*
X163409999Y-74802999D03*
X165949999Y-74802999D03*
%TD*%
D14*
%TO.C,U2*%
X172846999Y-79628999D03*
D15*
X170306999Y-79628999D03*
X167766999Y-79628999D03*
X165226999Y-79628999D03*
X165226999Y-87248999D03*
X167766999Y-87248999D03*
X170306999Y-87248999D03*
X172846999Y-87248999D03*
%TD*%
D14*
%TO.C,U3*%
X121399999Y-87349999D03*
D15*
X121399999Y-84809999D03*
X121399999Y-82269999D03*
X121399999Y-79729999D03*
X113779999Y-79729999D03*
X113779999Y-82269999D03*
X113779999Y-84809999D03*
X113779999Y-87349999D03*
%TD*%
D31*
%TO.C,U5*%
X104521000Y-88138000D03*
X104521000Y-86868000D03*
X104521000Y-85598000D03*
X104521000Y-84328000D03*
X104521000Y-83058000D03*
X104521000Y-81788000D03*
X104521000Y-80518000D03*
X104521000Y-79248000D03*
X95221000Y-79248000D03*
X95221000Y-80518000D03*
X95221000Y-81788000D03*
X95221000Y-83058000D03*
X95221000Y-84328000D03*
X95221000Y-85598000D03*
X95221000Y-86868000D03*
X95221000Y-88138000D03*
%TD*%
D32*
%TO.C,U4*%
X143891000Y-93183000D03*
X142621000Y-93183000D03*
X141351000Y-93183000D03*
X140081000Y-93183000D03*
X140081000Y-98333000D03*
X141351000Y-98333000D03*
X142621000Y-98333000D03*
X143891000Y-98333000D03*
%TD*%
D14*
%TO.C,U6*%
X110439999Y-113429999D03*
D15*
X107899999Y-113429999D03*
X105359999Y-113429999D03*
X102819999Y-113429999D03*
X100279999Y-113429999D03*
X97739999Y-113429999D03*
X95199999Y-113429999D03*
X92659999Y-113429999D03*
X92659999Y-121049999D03*
X95199999Y-121049999D03*
X97739999Y-121049999D03*
X100279999Y-121049999D03*
X102819999Y-121049999D03*
X105359999Y-121049999D03*
X107899999Y-121049999D03*
X110439999Y-121049999D03*
%TD*%
D14*
%TO.C,U7*%
X152829999Y-113449999D03*
D15*
X150289999Y-113449999D03*
X147749999Y-113449999D03*
X145209999Y-113449999D03*
X142669999Y-113449999D03*
X140129999Y-113449999D03*
X137589999Y-113449999D03*
X135049999Y-113449999D03*
X135049999Y-121069999D03*
X137589999Y-121069999D03*
X140129999Y-121069999D03*
X142669999Y-121069999D03*
X145209999Y-121069999D03*
X147749999Y-121069999D03*
X150289999Y-121069999D03*
X152829999Y-121069999D03*
%TD*%
D14*
%TO.C,U8*%
X78612999Y-77710999D03*
D15*
X78612999Y-80250999D03*
X78612999Y-82790999D03*
X78612999Y-85330999D03*
X78612999Y-87870999D03*
X78612999Y-90410999D03*
X78612999Y-92950999D03*
X78612999Y-95490999D03*
X86232999Y-95490999D03*
X86232999Y-92950999D03*
X86232999Y-90410999D03*
X86232999Y-87870999D03*
X86232999Y-85330999D03*
X86232999Y-82790999D03*
X86232999Y-80250999D03*
X86232999Y-77710999D03*
%TD*%
D14*
%TO.C,C3*%
X200715999Y-76580999D03*
D13*
X204216000Y-76581000D03*
%TD*%
D17*
%TO.C,J10*%
X174400000Y-96200000D03*
X174400000Y-98740000D03*
X175860000Y-100700000D03*
X178400000Y-100700000D03*
X180940000Y-100700000D03*
X182400000Y-98740000D03*
X182400000Y-96200000D03*
X182400000Y-93660000D03*
X180940000Y-91700000D03*
X178400000Y-91700000D03*
X175860000Y-91700000D03*
X174400000Y-93660000D03*
%TD*%
D14*
%TO.C,C2*%
X131978399Y-83108799D03*
D13*
X133978400Y-83108800D03*
%TD*%
D27*
%TO.C,R15*%
X181407000Y-118914000D03*
D28*
X183946999Y-118913999D03*
%TD*%
D17*
%TO.C,J11*%
X201900000Y-96200000D03*
X201900000Y-98740000D03*
X203360000Y-100700000D03*
X205900000Y-100700000D03*
X208440000Y-100700000D03*
X209900000Y-98740000D03*
X209900000Y-96200000D03*
X209900000Y-93660000D03*
X208440000Y-91700000D03*
X205900000Y-91700000D03*
X203360000Y-91700000D03*
X201900000Y-93660000D03*
%TD*%
D14*
%TO.C,U10*%
X78612999Y-100710999D03*
D15*
X78612999Y-103250999D03*
X78612999Y-105790999D03*
X78612999Y-108330999D03*
X78612999Y-110870999D03*
X78612999Y-113410999D03*
X78612999Y-115950999D03*
X86232999Y-115950999D03*
X86232999Y-113410999D03*
X86232999Y-110870999D03*
X86232999Y-108330999D03*
X86232999Y-105790999D03*
X86232999Y-103250999D03*
X86232999Y-100710999D03*
%TD*%
D21*
%TO.C,Q2*%
X115609999Y-74999999D03*
D22*
X116879999Y-74999999D03*
X118149999Y-74999999D03*
%TD*%
D17*
%TO.C,J9*%
X119400000Y-96200000D03*
X119400000Y-98740000D03*
X120860000Y-100700000D03*
X123400000Y-100700000D03*
X125940000Y-100700000D03*
X127400000Y-98740000D03*
X127400000Y-96200000D03*
X127400000Y-93660000D03*
X125940000Y-91700000D03*
X123400000Y-91700000D03*
X120860000Y-91700000D03*
X119400000Y-93660000D03*
%TD*%
%TO.C,J8*%
X91900000Y-96200000D03*
X91900000Y-98740000D03*
X93360000Y-100700000D03*
X95900000Y-100700000D03*
X98440000Y-100700000D03*
X99900000Y-98740000D03*
X99900000Y-96200000D03*
X99900000Y-93660000D03*
X98440000Y-91700000D03*
X95900000Y-91700000D03*
X93360000Y-91700000D03*
X91900000Y-93660000D03*
%TD*%
D33*
%TO.C,J7*%
X201761000Y-119375000D03*
D34*
X204260999Y-119374999D03*
X206760999Y-119374999D03*
%TD*%
D14*
%TO.C,U9*%
X130439999Y-113429999D03*
D15*
X127899999Y-113429999D03*
X125359999Y-113429999D03*
X122819999Y-113429999D03*
X120279999Y-113429999D03*
X117739999Y-113429999D03*
X115199999Y-113429999D03*
X115199999Y-121049999D03*
X117739999Y-121049999D03*
X120279999Y-121049999D03*
X122819999Y-121049999D03*
X125359999Y-121049999D03*
X127899999Y-121049999D03*
X130439999Y-121049999D03*
%TD*%
D11*
%TO.C,J1*%
X108900000Y-85900000D03*
D12*
X108899999Y-83399999D03*
%TD*%
D14*
%TO.C,C1*%
X107349999Y-74299999D03*
D13*
X110850000Y-74300000D03*
%TD*%
D35*
%TO.C,RV1*%
X97050000Y-73790000D03*
X99590000Y-76330000D03*
X102130000Y-73790000D03*
%TD*%
D36*
%TO.C,J6*%
X150899999Y-83299999D03*
D37*
X150900000Y-77300000D03*
D38*
X146200000Y-80300000D03*
%TD*%
D33*
%TO.C,J3*%
X159250000Y-119450000D03*
D34*
X161749999Y-119449999D03*
X164249999Y-119449999D03*
%TD*%
D10*
%TO.C,REF2*%
X224434400Y-71780400D03*
%TD*%
D39*
%TO.C,D3*%
X189116999Y-118913999D03*
D40*
X191276000Y-118914000D03*
X193435000Y-118914000D03*
X195594000Y-118914000D03*
%TD*%
D14*
%TO.C,C4*%
X212319348Y-76580999D03*
D13*
X216119349Y-76581000D03*
%TD*%
M02*
