%TF.GenerationSoftware,KiCad,Pcbnew,7.0.0*%
%TF.CreationDate,2023-02-28T14:47:30+08:00*%
%TF.ProjectId,OpenNixie,4f70656e-4e69-4786-9965-2e6b69636164,v3.0*%
%TF.SameCoordinates,Original*%
%TF.FileFunction,Soldermask,Top*%
%TF.FilePolarity,Negative*%
%FSLAX46Y46*%
G04 Gerber Fmt 4.6, Leading zero omitted, Abs format (unit mm)*
G04 Created by KiCad (PCBNEW 7.0.0) date 2023-02-28 14:47:30*
%MOMM*%
%LPD*%
G01*
G04 APERTURE LIST*
G04 Aperture macros list*
%AMRoundRect*
0 Rectangle with rounded corners*
0 $1 Rounding radius*
0 $2 $3 $4 $5 $6 $7 $8 $9 X,Y pos of 4 corners*
0 Add a 4 corners polygon primitive as box body*
4,1,4,$2,$3,$4,$5,$6,$7,$8,$9,$2,$3,0*
0 Add four circle primitives for the rounded corners*
1,1,$1+$1,$2,$3*
1,1,$1+$1,$4,$5*
1,1,$1+$1,$6,$7*
1,1,$1+$1,$8,$9*
0 Add four rect primitives between the rounded corners*
20,1,$1+$1,$2,$3,$4,$5,0*
20,1,$1+$1,$4,$5,$6,$7,0*
20,1,$1+$1,$6,$7,$8,$9,0*
20,1,$1+$1,$8,$9,$2,$3,0*%
G04 Aperture macros list end*
%ADD10C,2.200000*%
%ADD11C,1.600000*%
%ADD12R,1.600000X1.600000*%
%ADD13O,1.600000X1.600000*%
%ADD14RoundRect,0.250000X0.650000X-1.000000X0.650000X1.000000X-0.650000X1.000000X-0.650000X-1.000000X0*%
%ADD15RoundRect,0.250000X-0.600000X-0.750000X0.600000X-0.750000X0.600000X0.750000X-0.600000X0.750000X0*%
%ADD16O,1.700000X2.000000*%
%ADD17C,1.524000*%
%ADD18RoundRect,0.250000X-0.600000X-0.725000X0.600000X-0.725000X0.600000X0.725000X-0.600000X0.725000X0*%
%ADD19O,1.700000X1.950000*%
%ADD20C,2.600000*%
%ADD21R,1.050000X1.500000*%
%ADD22O,1.050000X1.500000*%
%ADD23RoundRect,0.250000X-0.850000X-0.350000X0.850000X-0.350000X0.850000X0.350000X-0.850000X0.350000X0*%
%ADD24RoundRect,0.249997X-2.950003X-2.650003X2.950003X-2.650003X2.950003X2.650003X-2.950003X2.650003X0*%
%ADD25R,1.500000X1.050000*%
%ADD26O,1.500000X1.050000*%
%ADD27C,1.400000*%
%ADD28O,1.400000X1.400000*%
%ADD29R,1.905000X2.000000*%
%ADD30O,1.905000X2.000000*%
%ADD31RoundRect,0.150000X-0.725000X-0.150000X0.725000X-0.150000X0.725000X0.150000X-0.725000X0.150000X0*%
%ADD32RoundRect,0.250000X-0.725000X0.600000X-0.725000X-0.600000X0.725000X-0.600000X0.725000X0.600000X0*%
%ADD33O,1.950000X1.700000*%
%ADD34C,1.440000*%
%ADD35R,3.500000X3.500000*%
%ADD36RoundRect,0.750000X-1.000000X0.750000X-1.000000X-0.750000X1.000000X-0.750000X1.000000X0.750000X0*%
%ADD37RoundRect,0.875000X-0.875000X0.875000X-0.875000X-0.875000X0.875000X-0.875000X0.875000X0.875000X0*%
%ADD38R,1.800000X1.800000*%
%ADD39C,1.800000*%
G04 APERTURE END LIST*
D10*
%TO.C,REF4*%
X77368400Y-121818400D03*
%TD*%
%TO.C,REF3*%
X224434400Y-121818400D03*
%TD*%
%TO.C,REF2*%
X224434400Y-71780400D03*
%TD*%
%TO.C,REF1*%
X77368400Y-71780400D03*
%TD*%
D11*
%TO.C,C5*%
X137038400Y-88138000D03*
X134538400Y-88138000D03*
%TD*%
D12*
%TO.C,D1*%
X100228399Y-79908399D03*
D13*
X102768399Y-79908399D03*
%TD*%
D14*
%TO.C,D2*%
X194868800Y-81705200D03*
X194868800Y-77705200D03*
%TD*%
D15*
%TO.C,J1*%
X103013600Y-72644000D03*
D16*
X105513599Y-72643999D03*
%TD*%
D17*
%TO.C,J3*%
X152170000Y-92500000D03*
X152170000Y-99900000D03*
X149630000Y-92500000D03*
X149630000Y-99900000D03*
%TD*%
D18*
%TO.C,J4*%
X114013600Y-72644000D03*
D19*
X116513599Y-72643999D03*
X119013599Y-72643999D03*
X121513599Y-72643999D03*
%TD*%
D20*
%TO.C,L1*%
X203836400Y-75336400D03*
X200836400Y-75336400D03*
%TD*%
D21*
%TO.C,Q1*%
X138582399Y-74828399D03*
D22*
X139852399Y-74828399D03*
X141122399Y-74828399D03*
%TD*%
D23*
%TO.C,Q3*%
X172008800Y-72300400D03*
D24*
X178308800Y-74580400D03*
D23*
X172008800Y-76860400D03*
%TD*%
D21*
%TO.C,Q4*%
X104099999Y-94399999D03*
D22*
X105369999Y-94399999D03*
X106639999Y-94399999D03*
%TD*%
D21*
%TO.C,Q5*%
X132232399Y-94399999D03*
D22*
X133502399Y-94399999D03*
X134772399Y-94399999D03*
%TD*%
D21*
%TO.C,Q6*%
X158902399Y-94399999D03*
D22*
X160172399Y-94399999D03*
X161442399Y-94399999D03*
%TD*%
D21*
%TO.C,Q7*%
X186740799Y-94399999D03*
D22*
X188010799Y-94399999D03*
X189280799Y-94399999D03*
%TD*%
D25*
%TO.C,Q12*%
X126994399Y-108839999D03*
D26*
X126994399Y-107569999D03*
X126994399Y-106299999D03*
%TD*%
D25*
%TO.C,Q13*%
X133354399Y-108839999D03*
D26*
X133354399Y-107569999D03*
X133354399Y-106299999D03*
%TD*%
D25*
%TO.C,Q14*%
X139704399Y-108839999D03*
D26*
X139704399Y-107569999D03*
X139704399Y-106299999D03*
%TD*%
D25*
%TO.C,Q15*%
X146054399Y-108839999D03*
D26*
X146054399Y-107569999D03*
X146054399Y-106299999D03*
%TD*%
D25*
%TO.C,Q16*%
X152404399Y-108839999D03*
D26*
X152404399Y-107569999D03*
X152404399Y-106299999D03*
%TD*%
D25*
%TO.C,Q17*%
X114304399Y-108839999D03*
D26*
X114304399Y-107569999D03*
X114304399Y-106299999D03*
%TD*%
D25*
%TO.C,Q18*%
X107954399Y-108839999D03*
D26*
X107954399Y-107569999D03*
X107954399Y-106299999D03*
%TD*%
D25*
%TO.C,Q19*%
X120644399Y-108839999D03*
D26*
X120644399Y-107569999D03*
X120644399Y-106299999D03*
%TD*%
D25*
%TO.C,Q20*%
X101594399Y-108839999D03*
D26*
X101594399Y-107569999D03*
X101594399Y-106299999D03*
%TD*%
D25*
%TO.C,Q21*%
X95234399Y-108839999D03*
D26*
X95234399Y-107569999D03*
X95234399Y-106299999D03*
%TD*%
D27*
%TO.C,R1*%
X106984800Y-85344000D03*
D28*
X112064799Y-85343999D03*
%TD*%
D27*
%TO.C,R2*%
X172466000Y-85648800D03*
D28*
X177545999Y-85648799D03*
%TD*%
D27*
%TO.C,R3*%
X137160000Y-79908400D03*
D28*
X142239999Y-79908399D03*
%TD*%
D27*
%TO.C,R4*%
X137160000Y-83362800D03*
D28*
X142239999Y-83362799D03*
%TD*%
D27*
%TO.C,R5*%
X107035600Y-88950800D03*
D28*
X112115599Y-88950799D03*
%TD*%
D27*
%TO.C,R6*%
X106984800Y-81737200D03*
D28*
X112064799Y-81737199D03*
%TD*%
D27*
%TO.C,R7*%
X172466000Y-81991200D03*
D28*
X177545999Y-81991199D03*
%TD*%
D27*
%TO.C,R8*%
X129082800Y-83362800D03*
D28*
X134162799Y-83362799D03*
%TD*%
D27*
%TO.C,R9*%
X106984800Y-78181200D03*
D28*
X112064799Y-78181199D03*
%TD*%
D11*
%TO.C,R10*%
X195834000Y-86868000D03*
D13*
X183133999Y-86867999D03*
%TD*%
D27*
%TO.C,R11*%
X129082800Y-79908400D03*
D28*
X134162799Y-79908399D03*
%TD*%
D11*
%TO.C,R13*%
X185562312Y-73050400D03*
D13*
X195722311Y-73050399D03*
%TD*%
D11*
%TO.C,R14*%
X144000000Y-99900000D03*
D13*
X131299999Y-99899999D03*
%TD*%
D11*
%TO.C,R15*%
X185826400Y-99900000D03*
D13*
X198526399Y-99899999D03*
%TD*%
D11*
%TO.C,R16*%
X116000000Y-99900000D03*
D13*
X103299999Y-99899999D03*
%TD*%
D11*
%TO.C,R17*%
X170586400Y-99900000D03*
D13*
X157886399Y-99899999D03*
%TD*%
D29*
%TO.C,U1*%
X160781999Y-74472799D03*
D30*
X163321999Y-74472799D03*
X165861999Y-74472799D03*
%TD*%
D12*
%TO.C,U2*%
X167233599Y-80111599D03*
D13*
X164693599Y-80111599D03*
X162153599Y-80111599D03*
X159613599Y-80111599D03*
X159613599Y-87731599D03*
X162153599Y-87731599D03*
X164693599Y-87731599D03*
X167233599Y-87731599D03*
%TD*%
D12*
%TO.C,U3*%
X124409199Y-79705199D03*
D13*
X121869199Y-79705199D03*
X119329199Y-79705199D03*
X116789199Y-79705199D03*
X116789199Y-87325199D03*
X119329199Y-87325199D03*
X121869199Y-87325199D03*
X124409199Y-87325199D03*
%TD*%
D31*
%TO.C,U4*%
X128285800Y-72567800D03*
X128285800Y-73837800D03*
X128285800Y-75107800D03*
X128285800Y-76377800D03*
X133435800Y-76377800D03*
X133435800Y-75107800D03*
X133435800Y-73837800D03*
X133435800Y-72567800D03*
%TD*%
D12*
%TO.C,U5*%
X110439999Y-113429999D03*
D13*
X107899999Y-113429999D03*
X105359999Y-113429999D03*
X102819999Y-113429999D03*
X100279999Y-113429999D03*
X97739999Y-113429999D03*
X95199999Y-113429999D03*
X92659999Y-113429999D03*
X92659999Y-121049999D03*
X95199999Y-121049999D03*
X97739999Y-121049999D03*
X100279999Y-121049999D03*
X102819999Y-121049999D03*
X105359999Y-121049999D03*
X107899999Y-121049999D03*
X110439999Y-121049999D03*
%TD*%
D12*
%TO.C,U6*%
X175361599Y-113429999D03*
D13*
X172821599Y-113429999D03*
X170281599Y-113429999D03*
X167741599Y-113429999D03*
X165201599Y-113429999D03*
X162661599Y-113429999D03*
X160121599Y-113429999D03*
X157581599Y-113429999D03*
X157581599Y-121049999D03*
X160121599Y-121049999D03*
X162661599Y-121049999D03*
X165201599Y-121049999D03*
X167741599Y-121049999D03*
X170281599Y-121049999D03*
X172821599Y-121049999D03*
X175361599Y-121049999D03*
%TD*%
D12*
%TO.C,U7*%
X78612999Y-77710999D03*
D13*
X78612999Y-80250999D03*
X78612999Y-82790999D03*
X78612999Y-85330999D03*
X78612999Y-87870999D03*
X78612999Y-90410999D03*
X78612999Y-92950999D03*
X78612999Y-95490999D03*
X86232999Y-95490999D03*
X86232999Y-92950999D03*
X86232999Y-90410999D03*
X86232999Y-87870999D03*
X86232999Y-85330999D03*
X86232999Y-82790999D03*
X86232999Y-80250999D03*
X86232999Y-77710999D03*
%TD*%
D21*
%TO.C,Q2*%
X100177599Y-85750399D03*
D22*
X101447599Y-85750399D03*
X102717599Y-85750399D03*
%TD*%
D12*
%TO.C,C3*%
X219733748Y-87680799D03*
D11*
X223233749Y-87680800D03*
%TD*%
D17*
%TO.C,J9*%
X174400000Y-96200000D03*
X174400000Y-98740000D03*
X175860000Y-101200000D03*
X178400000Y-101200000D03*
X180940000Y-101200000D03*
X182400000Y-98740000D03*
X182400000Y-96200000D03*
X182400000Y-93660000D03*
X180940000Y-91200000D03*
X178400000Y-91200000D03*
X175860000Y-91200000D03*
X174400000Y-93660000D03*
%TD*%
D27*
%TO.C,R19*%
X192836800Y-94400000D03*
D28*
X197916799Y-94399999D03*
%TD*%
D12*
%TO.C,C2*%
X185165999Y-79755999D03*
D11*
X187166000Y-79756000D03*
%TD*%
D27*
%TO.C,R21*%
X165150800Y-94400000D03*
D28*
X170230799Y-94399999D03*
%TD*%
D27*
%TO.C,R12*%
X196392800Y-118668800D03*
D28*
X201472799Y-118668799D03*
%TD*%
D17*
%TO.C,J10*%
X201900000Y-96200000D03*
X201900000Y-98740000D03*
X203360000Y-101200000D03*
X205900000Y-101200000D03*
X208440000Y-101200000D03*
X209900000Y-98740000D03*
X209900000Y-96200000D03*
X209900000Y-93660000D03*
X208440000Y-91200000D03*
X205900000Y-91200000D03*
X203360000Y-91200000D03*
X201900000Y-93660000D03*
%TD*%
D12*
%TO.C,U9*%
X78612999Y-100710999D03*
D13*
X78612999Y-103250999D03*
X78612999Y-105790999D03*
X78612999Y-108330999D03*
X78612999Y-110870999D03*
X78612999Y-113410999D03*
X78612999Y-115950999D03*
X86232999Y-115950999D03*
X86232999Y-113410999D03*
X86232999Y-110870999D03*
X86232999Y-108330999D03*
X86232999Y-105790999D03*
X86232999Y-103250999D03*
X86232999Y-100710999D03*
%TD*%
D17*
%TO.C,J8*%
X119400000Y-96200000D03*
X119400000Y-98740000D03*
X120860000Y-101200000D03*
X123400000Y-101200000D03*
X125940000Y-101200000D03*
X127400000Y-98740000D03*
X127400000Y-96200000D03*
X127400000Y-93660000D03*
X125940000Y-91200000D03*
X123400000Y-91200000D03*
X120860000Y-91200000D03*
X119400000Y-93660000D03*
%TD*%
D25*
%TO.C,Q8*%
X177241199Y-108762799D03*
D26*
X177241199Y-107492799D03*
X177241199Y-106222799D03*
%TD*%
D25*
%TO.C,Q11*%
X158648399Y-108813599D03*
D26*
X158648399Y-107543599D03*
X158648399Y-106273599D03*
%TD*%
D17*
%TO.C,J7*%
X91900000Y-96200000D03*
X91900000Y-98740000D03*
X93360000Y-101200000D03*
X95900000Y-101200000D03*
X98440000Y-101200000D03*
X99900000Y-98740000D03*
X99900000Y-96200000D03*
X99900000Y-93660000D03*
X98440000Y-91200000D03*
X95900000Y-91200000D03*
X93360000Y-91200000D03*
X91900000Y-93660000D03*
%TD*%
D32*
%TO.C,J5*%
X222000000Y-98000000D03*
D33*
X221999999Y-100499999D03*
X221999999Y-102999999D03*
%TD*%
D12*
%TO.C,C1*%
X91389199Y-75387199D03*
D11*
X94889200Y-75387200D03*
%TD*%
D34*
%TO.C,RV1*%
X93065600Y-82905600D03*
X90525600Y-85445600D03*
X93065600Y-87985600D03*
%TD*%
D35*
%TO.C,J6*%
X150899999Y-83299999D03*
D36*
X150900000Y-77300000D03*
D37*
X146200000Y-80300000D03*
%TD*%
D25*
%TO.C,Q9*%
X171043599Y-108864399D03*
D26*
X171043599Y-107594399D03*
X171043599Y-106324399D03*
%TD*%
D25*
%TO.C,Q10*%
X164896799Y-108915199D03*
D26*
X164896799Y-107645199D03*
X164896799Y-106375199D03*
%TD*%
D27*
%TO.C,R20*%
X110642400Y-94400000D03*
D28*
X115722399Y-94399999D03*
%TD*%
D12*
%TO.C,U8*%
X130439999Y-113429999D03*
D13*
X127899999Y-113429999D03*
X125359999Y-113429999D03*
X122819999Y-113429999D03*
X120279999Y-113429999D03*
X117739999Y-113429999D03*
X115199999Y-113429999D03*
X115199999Y-121049999D03*
X117739999Y-121049999D03*
X120279999Y-121049999D03*
X122819999Y-121049999D03*
X125359999Y-121049999D03*
X127899999Y-121049999D03*
X130439999Y-121049999D03*
%TD*%
D32*
%TO.C,J2*%
X222000000Y-110000000D03*
D33*
X221999999Y-112499999D03*
X221999999Y-114999999D03*
%TD*%
D27*
%TO.C,R18*%
X138582400Y-94400000D03*
D28*
X143662399Y-94399999D03*
%TD*%
D38*
%TO.C,D3*%
X205333599Y-118668799D03*
D39*
X207492600Y-118668800D03*
X209651600Y-118668800D03*
X211810600Y-118668800D03*
%TD*%
D12*
%TO.C,C4*%
X210565999Y-75437999D03*
D11*
X214366000Y-75438000D03*
%TD*%
M02*
