%TF.GenerationSoftware,KiCad,Pcbnew,7.0.0*%
%TF.CreationDate,2023-02-28T14:47:30+08:00*%
%TF.ProjectId,OpenNixie,4f70656e-4e69-4786-9965-2e6b69636164,v3.0*%
%TF.SameCoordinates,Original*%
%TF.FileFunction,Legend,Top*%
%TF.FilePolarity,Positive*%
%FSLAX46Y46*%
G04 Gerber Fmt 4.6, Leading zero omitted, Abs format (unit mm)*
G04 Created by KiCad (PCBNEW 7.0.0) date 2023-02-28 14:47:30*
%MOMM*%
%LPD*%
G01*
G04 APERTURE LIST*
%ADD10C,0.200000*%
%ADD11C,0.150000*%
%ADD12C,0.120000*%
G04 APERTURE END LIST*
D10*
X189687923Y-109301380D02*
X189878400Y-109301380D01*
X189878400Y-109301380D02*
X189967685Y-109349000D01*
X189967685Y-109349000D02*
X190051019Y-109444238D01*
X190051019Y-109444238D02*
X190074828Y-109634714D01*
X190074828Y-109634714D02*
X190033161Y-109968047D01*
X190033161Y-109968047D02*
X189961733Y-110158523D01*
X189961733Y-110158523D02*
X189854590Y-110253761D01*
X189854590Y-110253761D02*
X189753400Y-110301380D01*
X189753400Y-110301380D02*
X189562923Y-110301380D01*
X189562923Y-110301380D02*
X189473638Y-110253761D01*
X189473638Y-110253761D02*
X189390304Y-110158523D01*
X189390304Y-110158523D02*
X189366495Y-109968047D01*
X189366495Y-109968047D02*
X189408161Y-109634714D01*
X189408161Y-109634714D02*
X189479590Y-109444238D01*
X189479590Y-109444238D02*
X189586733Y-109349000D01*
X189586733Y-109349000D02*
X189687923Y-109301380D01*
X190503399Y-109634714D02*
X190378399Y-110634714D01*
X190497447Y-109682333D02*
X190598638Y-109634714D01*
X190598638Y-109634714D02*
X190789114Y-109634714D01*
X190789114Y-109634714D02*
X190878399Y-109682333D01*
X190878399Y-109682333D02*
X190920066Y-109729952D01*
X190920066Y-109729952D02*
X190955780Y-109825190D01*
X190955780Y-109825190D02*
X190920066Y-110110904D01*
X190920066Y-110110904D02*
X190860542Y-110206142D01*
X190860542Y-110206142D02*
X190806971Y-110253761D01*
X190806971Y-110253761D02*
X190705780Y-110301380D01*
X190705780Y-110301380D02*
X190515304Y-110301380D01*
X190515304Y-110301380D02*
X190426019Y-110253761D01*
X191676019Y-110253761D02*
X191574828Y-110301380D01*
X191574828Y-110301380D02*
X191384352Y-110301380D01*
X191384352Y-110301380D02*
X191295067Y-110253761D01*
X191295067Y-110253761D02*
X191259352Y-110158523D01*
X191259352Y-110158523D02*
X191306971Y-109777571D01*
X191306971Y-109777571D02*
X191366495Y-109682333D01*
X191366495Y-109682333D02*
X191467686Y-109634714D01*
X191467686Y-109634714D02*
X191658162Y-109634714D01*
X191658162Y-109634714D02*
X191747447Y-109682333D01*
X191747447Y-109682333D02*
X191783162Y-109777571D01*
X191783162Y-109777571D02*
X191771257Y-109872809D01*
X191771257Y-109872809D02*
X191283162Y-109968047D01*
X192229590Y-109634714D02*
X192146257Y-110301380D01*
X192217686Y-109729952D02*
X192271257Y-109682333D01*
X192271257Y-109682333D02*
X192372448Y-109634714D01*
X192372448Y-109634714D02*
X192515305Y-109634714D01*
X192515305Y-109634714D02*
X192604590Y-109682333D01*
X192604590Y-109682333D02*
X192640305Y-109777571D01*
X192640305Y-109777571D02*
X192574829Y-110301380D01*
X193051019Y-110301380D02*
X193176019Y-109301380D01*
X193176019Y-109301380D02*
X193622448Y-110301380D01*
X193622448Y-110301380D02*
X193747448Y-109301380D01*
X194098638Y-110301380D02*
X194181971Y-109634714D01*
X194223638Y-109301380D02*
X194170067Y-109349000D01*
X194170067Y-109349000D02*
X194211733Y-109396619D01*
X194211733Y-109396619D02*
X194265305Y-109349000D01*
X194265305Y-109349000D02*
X194223638Y-109301380D01*
X194223638Y-109301380D02*
X194211733Y-109396619D01*
X194479590Y-110301380D02*
X195086733Y-109634714D01*
X194562923Y-109634714D02*
X195003400Y-110301380D01*
X195384352Y-110301380D02*
X195467685Y-109634714D01*
X195509352Y-109301380D02*
X195455781Y-109349000D01*
X195455781Y-109349000D02*
X195497447Y-109396619D01*
X195497447Y-109396619D02*
X195551019Y-109349000D01*
X195551019Y-109349000D02*
X195509352Y-109301380D01*
X195509352Y-109301380D02*
X195497447Y-109396619D01*
X196247447Y-110253761D02*
X196146256Y-110301380D01*
X196146256Y-110301380D02*
X195955780Y-110301380D01*
X195955780Y-110301380D02*
X195866495Y-110253761D01*
X195866495Y-110253761D02*
X195830780Y-110158523D01*
X195830780Y-110158523D02*
X195878399Y-109777571D01*
X195878399Y-109777571D02*
X195937923Y-109682333D01*
X195937923Y-109682333D02*
X196039114Y-109634714D01*
X196039114Y-109634714D02*
X196229590Y-109634714D01*
X196229590Y-109634714D02*
X196318875Y-109682333D01*
X196318875Y-109682333D02*
X196354590Y-109777571D01*
X196354590Y-109777571D02*
X196342685Y-109872809D01*
X196342685Y-109872809D02*
X195854590Y-109968047D01*
X197396257Y-109825190D02*
X197354590Y-109777571D01*
X197354590Y-109777571D02*
X197265304Y-109729952D01*
X197265304Y-109729952D02*
X197170066Y-109729952D01*
X197170066Y-109729952D02*
X197068876Y-109777571D01*
X197068876Y-109777571D02*
X197015304Y-109825190D01*
X197015304Y-109825190D02*
X196955780Y-109920428D01*
X196955780Y-109920428D02*
X196943876Y-110015666D01*
X196943876Y-110015666D02*
X196979590Y-110110904D01*
X196979590Y-110110904D02*
X197021257Y-110158523D01*
X197021257Y-110158523D02*
X197110542Y-110206142D01*
X197110542Y-110206142D02*
X197205780Y-110206142D01*
X197205780Y-110206142D02*
X197306971Y-110158523D01*
X197306971Y-110158523D02*
X197360542Y-110110904D01*
X197408161Y-109729952D02*
X197360542Y-110110904D01*
X197360542Y-110110904D02*
X197402209Y-110158523D01*
X197402209Y-110158523D02*
X197449828Y-110158523D01*
X197449828Y-110158523D02*
X197551018Y-110110904D01*
X197551018Y-110110904D02*
X197610542Y-110015666D01*
X197610542Y-110015666D02*
X197640304Y-109777571D01*
X197640304Y-109777571D02*
X197562923Y-109634714D01*
X197562923Y-109634714D02*
X197431971Y-109539476D01*
X197431971Y-109539476D02*
X197247447Y-109491857D01*
X197247447Y-109491857D02*
X197051018Y-109539476D01*
X197051018Y-109539476D02*
X196896257Y-109634714D01*
X196896257Y-109634714D02*
X196783161Y-109777571D01*
X196783161Y-109777571D02*
X196711733Y-109968047D01*
X196711733Y-109968047D02*
X196735542Y-110158523D01*
X196735542Y-110158523D02*
X196812923Y-110301380D01*
X196812923Y-110301380D02*
X196943876Y-110396619D01*
X196943876Y-110396619D02*
X197128399Y-110444238D01*
X197128399Y-110444238D02*
X197324828Y-110396619D01*
X197324828Y-110396619D02*
X197479590Y-110301380D01*
X197991495Y-110301380D02*
X198074828Y-109634714D01*
X198116495Y-109301380D02*
X198062924Y-109349000D01*
X198062924Y-109349000D02*
X198104590Y-109396619D01*
X198104590Y-109396619D02*
X198158162Y-109349000D01*
X198158162Y-109349000D02*
X198116495Y-109301380D01*
X198116495Y-109301380D02*
X198104590Y-109396619D01*
X198467685Y-110301380D02*
X198592685Y-109301380D01*
X198545066Y-109682333D02*
X198646257Y-109634714D01*
X198646257Y-109634714D02*
X198836733Y-109634714D01*
X198836733Y-109634714D02*
X198926018Y-109682333D01*
X198926018Y-109682333D02*
X198967685Y-109729952D01*
X198967685Y-109729952D02*
X199003399Y-109825190D01*
X199003399Y-109825190D02*
X198967685Y-110110904D01*
X198967685Y-110110904D02*
X198908161Y-110206142D01*
X198908161Y-110206142D02*
X198854590Y-110253761D01*
X198854590Y-110253761D02*
X198753399Y-110301380D01*
X198753399Y-110301380D02*
X198562923Y-110301380D01*
X198562923Y-110301380D02*
X198473638Y-110253761D01*
X199806971Y-110253761D02*
X199705780Y-110301380D01*
X199705780Y-110301380D02*
X199515304Y-110301380D01*
X199515304Y-110301380D02*
X199426019Y-110253761D01*
X199426019Y-110253761D02*
X199384352Y-110206142D01*
X199384352Y-110206142D02*
X199348638Y-110110904D01*
X199348638Y-110110904D02*
X199384352Y-109825190D01*
X199384352Y-109825190D02*
X199443876Y-109729952D01*
X199443876Y-109729952D02*
X199497447Y-109682333D01*
X199497447Y-109682333D02*
X199598638Y-109634714D01*
X199598638Y-109634714D02*
X199789114Y-109634714D01*
X199789114Y-109634714D02*
X199878400Y-109682333D01*
X200372447Y-110301380D02*
X200283162Y-110253761D01*
X200283162Y-110253761D02*
X200247447Y-110158523D01*
X200247447Y-110158523D02*
X200354590Y-109301380D01*
X200765305Y-110206142D02*
X200806972Y-110253761D01*
X200806972Y-110253761D02*
X200753400Y-110301380D01*
X200753400Y-110301380D02*
X200711733Y-110253761D01*
X200711733Y-110253761D02*
X200765305Y-110206142D01*
X200765305Y-110206142D02*
X200753400Y-110301380D01*
X201741495Y-109634714D02*
X201658162Y-110301380D01*
X201312923Y-109634714D02*
X201247447Y-110158523D01*
X201247447Y-110158523D02*
X201283162Y-110253761D01*
X201283162Y-110253761D02*
X201372447Y-110301380D01*
X201372447Y-110301380D02*
X201515304Y-110301380D01*
X201515304Y-110301380D02*
X201616495Y-110253761D01*
X201616495Y-110253761D02*
X201670066Y-110206142D01*
X202092685Y-110253761D02*
X202181971Y-110301380D01*
X202181971Y-110301380D02*
X202372447Y-110301380D01*
X202372447Y-110301380D02*
X202473638Y-110253761D01*
X202473638Y-110253761D02*
X202533162Y-110158523D01*
X202533162Y-110158523D02*
X202539114Y-110110904D01*
X202539114Y-110110904D02*
X202503400Y-110015666D01*
X202503400Y-110015666D02*
X202414114Y-109968047D01*
X202414114Y-109968047D02*
X202271257Y-109968047D01*
X202271257Y-109968047D02*
X202181971Y-109920428D01*
X202181971Y-109920428D02*
X202146257Y-109825190D01*
X202146257Y-109825190D02*
X202152209Y-109777571D01*
X202152209Y-109777571D02*
X202211733Y-109682333D01*
X202211733Y-109682333D02*
X202312924Y-109634714D01*
X202312924Y-109634714D02*
X202455781Y-109634714D01*
X202455781Y-109634714D02*
X202545066Y-109682333D01*
X189884352Y-111254714D02*
X189783161Y-112064238D01*
X189783161Y-112064238D02*
X189723638Y-112159476D01*
X189723638Y-112159476D02*
X189670066Y-112207095D01*
X189670066Y-112207095D02*
X189568876Y-112254714D01*
X189568876Y-112254714D02*
X189426019Y-112254714D01*
X189426019Y-112254714D02*
X189336733Y-112207095D01*
X189806971Y-111873761D02*
X189705780Y-111921380D01*
X189705780Y-111921380D02*
X189515304Y-111921380D01*
X189515304Y-111921380D02*
X189426019Y-111873761D01*
X189426019Y-111873761D02*
X189384352Y-111826142D01*
X189384352Y-111826142D02*
X189348638Y-111730904D01*
X189348638Y-111730904D02*
X189384352Y-111445190D01*
X189384352Y-111445190D02*
X189443876Y-111349952D01*
X189443876Y-111349952D02*
X189497447Y-111302333D01*
X189497447Y-111302333D02*
X189598638Y-111254714D01*
X189598638Y-111254714D02*
X189789114Y-111254714D01*
X189789114Y-111254714D02*
X189878400Y-111302333D01*
X190241495Y-111921380D02*
X190324828Y-111254714D01*
X190366495Y-110921380D02*
X190312924Y-110969000D01*
X190312924Y-110969000D02*
X190354590Y-111016619D01*
X190354590Y-111016619D02*
X190408162Y-110969000D01*
X190408162Y-110969000D02*
X190366495Y-110921380D01*
X190366495Y-110921380D02*
X190354590Y-111016619D01*
X190658161Y-111254714D02*
X191039114Y-111254714D01*
X190842685Y-110921380D02*
X190735542Y-111778523D01*
X190735542Y-111778523D02*
X190771257Y-111873761D01*
X190771257Y-111873761D02*
X190860542Y-111921380D01*
X190860542Y-111921380D02*
X190955780Y-111921380D01*
X191289114Y-111921380D02*
X191414114Y-110921380D01*
X191717686Y-111921380D02*
X191783162Y-111397571D01*
X191783162Y-111397571D02*
X191747447Y-111302333D01*
X191747447Y-111302333D02*
X191658162Y-111254714D01*
X191658162Y-111254714D02*
X191515305Y-111254714D01*
X191515305Y-111254714D02*
X191414114Y-111302333D01*
X191414114Y-111302333D02*
X191360543Y-111349952D01*
X192705781Y-111254714D02*
X192622448Y-111921380D01*
X192277209Y-111254714D02*
X192211733Y-111778523D01*
X192211733Y-111778523D02*
X192247448Y-111873761D01*
X192247448Y-111873761D02*
X192336733Y-111921380D01*
X192336733Y-111921380D02*
X192479590Y-111921380D01*
X192479590Y-111921380D02*
X192580781Y-111873761D01*
X192580781Y-111873761D02*
X192634352Y-111826142D01*
X193098638Y-111921380D02*
X193223638Y-110921380D01*
X193176019Y-111302333D02*
X193277210Y-111254714D01*
X193277210Y-111254714D02*
X193467686Y-111254714D01*
X193467686Y-111254714D02*
X193556971Y-111302333D01*
X193556971Y-111302333D02*
X193598638Y-111349952D01*
X193598638Y-111349952D02*
X193634352Y-111445190D01*
X193634352Y-111445190D02*
X193598638Y-111730904D01*
X193598638Y-111730904D02*
X193539114Y-111826142D01*
X193539114Y-111826142D02*
X193485543Y-111873761D01*
X193485543Y-111873761D02*
X193384352Y-111921380D01*
X193384352Y-111921380D02*
X193193876Y-111921380D01*
X193193876Y-111921380D02*
X193104591Y-111873761D01*
X194015305Y-111826142D02*
X194056972Y-111873761D01*
X194056972Y-111873761D02*
X194003400Y-111921380D01*
X194003400Y-111921380D02*
X193961733Y-111873761D01*
X193961733Y-111873761D02*
X194015305Y-111826142D01*
X194015305Y-111826142D02*
X194003400Y-111921380D01*
X194914114Y-111873761D02*
X194812923Y-111921380D01*
X194812923Y-111921380D02*
X194622447Y-111921380D01*
X194622447Y-111921380D02*
X194533162Y-111873761D01*
X194533162Y-111873761D02*
X194491495Y-111826142D01*
X194491495Y-111826142D02*
X194455781Y-111730904D01*
X194455781Y-111730904D02*
X194491495Y-111445190D01*
X194491495Y-111445190D02*
X194551019Y-111349952D01*
X194551019Y-111349952D02*
X194604590Y-111302333D01*
X194604590Y-111302333D02*
X194705781Y-111254714D01*
X194705781Y-111254714D02*
X194896257Y-111254714D01*
X194896257Y-111254714D02*
X194985543Y-111302333D01*
X195479590Y-111921380D02*
X195390305Y-111873761D01*
X195390305Y-111873761D02*
X195348638Y-111826142D01*
X195348638Y-111826142D02*
X195312924Y-111730904D01*
X195312924Y-111730904D02*
X195348638Y-111445190D01*
X195348638Y-111445190D02*
X195408162Y-111349952D01*
X195408162Y-111349952D02*
X195461733Y-111302333D01*
X195461733Y-111302333D02*
X195562924Y-111254714D01*
X195562924Y-111254714D02*
X195705781Y-111254714D01*
X195705781Y-111254714D02*
X195795066Y-111302333D01*
X195795066Y-111302333D02*
X195836733Y-111349952D01*
X195836733Y-111349952D02*
X195872447Y-111445190D01*
X195872447Y-111445190D02*
X195836733Y-111730904D01*
X195836733Y-111730904D02*
X195777209Y-111826142D01*
X195777209Y-111826142D02*
X195723638Y-111873761D01*
X195723638Y-111873761D02*
X195622447Y-111921380D01*
X195622447Y-111921380D02*
X195479590Y-111921380D01*
X196241495Y-111921380D02*
X196324828Y-111254714D01*
X196312924Y-111349952D02*
X196366495Y-111302333D01*
X196366495Y-111302333D02*
X196467686Y-111254714D01*
X196467686Y-111254714D02*
X196610543Y-111254714D01*
X196610543Y-111254714D02*
X196699828Y-111302333D01*
X196699828Y-111302333D02*
X196735543Y-111397571D01*
X196735543Y-111397571D02*
X196670067Y-111921380D01*
X196735543Y-111397571D02*
X196795067Y-111302333D01*
X196795067Y-111302333D02*
X196896257Y-111254714D01*
X196896257Y-111254714D02*
X197039114Y-111254714D01*
X197039114Y-111254714D02*
X197128400Y-111302333D01*
X197128400Y-111302333D02*
X197164114Y-111397571D01*
X197164114Y-111397571D02*
X197098638Y-111921380D01*
X198420066Y-110873761D02*
X197402209Y-112159476D01*
X198598638Y-111921380D02*
X198723638Y-110921380D01*
X198676019Y-111302333D02*
X198777210Y-111254714D01*
X198777210Y-111254714D02*
X198967686Y-111254714D01*
X198967686Y-111254714D02*
X199056971Y-111302333D01*
X199056971Y-111302333D02*
X199098638Y-111349952D01*
X199098638Y-111349952D02*
X199134352Y-111445190D01*
X199134352Y-111445190D02*
X199098638Y-111730904D01*
X199098638Y-111730904D02*
X199039114Y-111826142D01*
X199039114Y-111826142D02*
X198985543Y-111873761D01*
X198985543Y-111873761D02*
X198884352Y-111921380D01*
X198884352Y-111921380D02*
X198693876Y-111921380D01*
X198693876Y-111921380D02*
X198604591Y-111873761D01*
X199937924Y-111873761D02*
X199836733Y-111921380D01*
X199836733Y-111921380D02*
X199646257Y-111921380D01*
X199646257Y-111921380D02*
X199556972Y-111873761D01*
X199556972Y-111873761D02*
X199515305Y-111826142D01*
X199515305Y-111826142D02*
X199479591Y-111730904D01*
X199479591Y-111730904D02*
X199515305Y-111445190D01*
X199515305Y-111445190D02*
X199574829Y-111349952D01*
X199574829Y-111349952D02*
X199628400Y-111302333D01*
X199628400Y-111302333D02*
X199729591Y-111254714D01*
X199729591Y-111254714D02*
X199920067Y-111254714D01*
X199920067Y-111254714D02*
X200009353Y-111302333D01*
X200503400Y-111921380D02*
X200414115Y-111873761D01*
X200414115Y-111873761D02*
X200378400Y-111778523D01*
X200378400Y-111778523D02*
X200485543Y-110921380D01*
X200842686Y-111873761D02*
X200931972Y-111921380D01*
X200931972Y-111921380D02*
X201122448Y-111921380D01*
X201122448Y-111921380D02*
X201223639Y-111873761D01*
X201223639Y-111873761D02*
X201283163Y-111778523D01*
X201283163Y-111778523D02*
X201289115Y-111730904D01*
X201289115Y-111730904D02*
X201253401Y-111635666D01*
X201253401Y-111635666D02*
X201164115Y-111588047D01*
X201164115Y-111588047D02*
X201021258Y-111588047D01*
X201021258Y-111588047D02*
X200931972Y-111540428D01*
X200931972Y-111540428D02*
X200896258Y-111445190D01*
X200896258Y-111445190D02*
X200902210Y-111397571D01*
X200902210Y-111397571D02*
X200961734Y-111302333D01*
X200961734Y-111302333D02*
X201062925Y-111254714D01*
X201062925Y-111254714D02*
X201205782Y-111254714D01*
X201205782Y-111254714D02*
X201295067Y-111302333D01*
X201681972Y-111254714D02*
X201789115Y-111921380D01*
X201789115Y-111921380D02*
X202039115Y-111445190D01*
X202039115Y-111445190D02*
X202170068Y-111921380D01*
X202170068Y-111921380D02*
X202443877Y-111254714D01*
X202884353Y-111921380D02*
X202795068Y-111873761D01*
X202795068Y-111873761D02*
X202759353Y-111778523D01*
X202759353Y-111778523D02*
X202866496Y-110921380D01*
X203580782Y-110921380D02*
X203676020Y-110921380D01*
X203676020Y-110921380D02*
X203765306Y-110969000D01*
X203765306Y-110969000D02*
X203806973Y-111016619D01*
X203806973Y-111016619D02*
X203842687Y-111111857D01*
X203842687Y-111111857D02*
X203866497Y-111302333D01*
X203866497Y-111302333D02*
X203836735Y-111540428D01*
X203836735Y-111540428D02*
X203765306Y-111730904D01*
X203765306Y-111730904D02*
X203705782Y-111826142D01*
X203705782Y-111826142D02*
X203652211Y-111873761D01*
X203652211Y-111873761D02*
X203551020Y-111921380D01*
X203551020Y-111921380D02*
X203455782Y-111921380D01*
X203455782Y-111921380D02*
X203366497Y-111873761D01*
X203366497Y-111873761D02*
X203324830Y-111826142D01*
X203324830Y-111826142D02*
X203289116Y-111730904D01*
X203289116Y-111730904D02*
X203265306Y-111540428D01*
X203265306Y-111540428D02*
X203295068Y-111302333D01*
X203295068Y-111302333D02*
X203366497Y-111111857D01*
X203366497Y-111111857D02*
X203426020Y-111016619D01*
X203426020Y-111016619D02*
X203479592Y-110969000D01*
X203479592Y-110969000D02*
X203580782Y-110921380D01*
X204431973Y-111349952D02*
X204342687Y-111302333D01*
X204342687Y-111302333D02*
X204301020Y-111254714D01*
X204301020Y-111254714D02*
X204265306Y-111159476D01*
X204265306Y-111159476D02*
X204271259Y-111111857D01*
X204271259Y-111111857D02*
X204330782Y-111016619D01*
X204330782Y-111016619D02*
X204384354Y-110969000D01*
X204384354Y-110969000D02*
X204485544Y-110921380D01*
X204485544Y-110921380D02*
X204676020Y-110921380D01*
X204676020Y-110921380D02*
X204765306Y-110969000D01*
X204765306Y-110969000D02*
X204806973Y-111016619D01*
X204806973Y-111016619D02*
X204842687Y-111111857D01*
X204842687Y-111111857D02*
X204836735Y-111159476D01*
X204836735Y-111159476D02*
X204777211Y-111254714D01*
X204777211Y-111254714D02*
X204723640Y-111302333D01*
X204723640Y-111302333D02*
X204622449Y-111349952D01*
X204622449Y-111349952D02*
X204431973Y-111349952D01*
X204431973Y-111349952D02*
X204330782Y-111397571D01*
X204330782Y-111397571D02*
X204277211Y-111445190D01*
X204277211Y-111445190D02*
X204217687Y-111540428D01*
X204217687Y-111540428D02*
X204193878Y-111730904D01*
X204193878Y-111730904D02*
X204229592Y-111826142D01*
X204229592Y-111826142D02*
X204271259Y-111873761D01*
X204271259Y-111873761D02*
X204360544Y-111921380D01*
X204360544Y-111921380D02*
X204551020Y-111921380D01*
X204551020Y-111921380D02*
X204652211Y-111873761D01*
X204652211Y-111873761D02*
X204705782Y-111826142D01*
X204705782Y-111826142D02*
X204765306Y-111730904D01*
X204765306Y-111730904D02*
X204789116Y-111540428D01*
X204789116Y-111540428D02*
X204753401Y-111445190D01*
X204753401Y-111445190D02*
X204711735Y-111397571D01*
X204711735Y-111397571D02*
X204622449Y-111349952D01*
X205235544Y-111016619D02*
X205289116Y-110969000D01*
X205289116Y-110969000D02*
X205390306Y-110921380D01*
X205390306Y-110921380D02*
X205628401Y-110921380D01*
X205628401Y-110921380D02*
X205717687Y-110969000D01*
X205717687Y-110969000D02*
X205759354Y-111016619D01*
X205759354Y-111016619D02*
X205795068Y-111111857D01*
X205795068Y-111111857D02*
X205783163Y-111207095D01*
X205783163Y-111207095D02*
X205717687Y-111349952D01*
X205717687Y-111349952D02*
X205074830Y-111921380D01*
X205074830Y-111921380D02*
X205693878Y-111921380D01*
X206152211Y-110921380D02*
X206818878Y-110921380D01*
X206818878Y-110921380D02*
X206265306Y-111921380D01*
X207920068Y-110873761D02*
X206902211Y-112159476D01*
X208414116Y-110921380D02*
X208604593Y-110921380D01*
X208604593Y-110921380D02*
X208693878Y-110969000D01*
X208693878Y-110969000D02*
X208777212Y-111064238D01*
X208777212Y-111064238D02*
X208801021Y-111254714D01*
X208801021Y-111254714D02*
X208759354Y-111588047D01*
X208759354Y-111588047D02*
X208687926Y-111778523D01*
X208687926Y-111778523D02*
X208580783Y-111873761D01*
X208580783Y-111873761D02*
X208479593Y-111921380D01*
X208479593Y-111921380D02*
X208289116Y-111921380D01*
X208289116Y-111921380D02*
X208199831Y-111873761D01*
X208199831Y-111873761D02*
X208116497Y-111778523D01*
X208116497Y-111778523D02*
X208092688Y-111588047D01*
X208092688Y-111588047D02*
X208134354Y-111254714D01*
X208134354Y-111254714D02*
X208205783Y-111064238D01*
X208205783Y-111064238D02*
X208312926Y-110969000D01*
X208312926Y-110969000D02*
X208414116Y-110921380D01*
X209229592Y-111254714D02*
X209104592Y-112254714D01*
X209223640Y-111302333D02*
X209324831Y-111254714D01*
X209324831Y-111254714D02*
X209515307Y-111254714D01*
X209515307Y-111254714D02*
X209604592Y-111302333D01*
X209604592Y-111302333D02*
X209646259Y-111349952D01*
X209646259Y-111349952D02*
X209681973Y-111445190D01*
X209681973Y-111445190D02*
X209646259Y-111730904D01*
X209646259Y-111730904D02*
X209586735Y-111826142D01*
X209586735Y-111826142D02*
X209533164Y-111873761D01*
X209533164Y-111873761D02*
X209431973Y-111921380D01*
X209431973Y-111921380D02*
X209241497Y-111921380D01*
X209241497Y-111921380D02*
X209152212Y-111873761D01*
X210402212Y-111873761D02*
X210301021Y-111921380D01*
X210301021Y-111921380D02*
X210110545Y-111921380D01*
X210110545Y-111921380D02*
X210021260Y-111873761D01*
X210021260Y-111873761D02*
X209985545Y-111778523D01*
X209985545Y-111778523D02*
X210033164Y-111397571D01*
X210033164Y-111397571D02*
X210092688Y-111302333D01*
X210092688Y-111302333D02*
X210193879Y-111254714D01*
X210193879Y-111254714D02*
X210384355Y-111254714D01*
X210384355Y-111254714D02*
X210473640Y-111302333D01*
X210473640Y-111302333D02*
X210509355Y-111397571D01*
X210509355Y-111397571D02*
X210497450Y-111492809D01*
X210497450Y-111492809D02*
X210009355Y-111588047D01*
X210955783Y-111254714D02*
X210872450Y-111921380D01*
X210943879Y-111349952D02*
X210997450Y-111302333D01*
X210997450Y-111302333D02*
X211098641Y-111254714D01*
X211098641Y-111254714D02*
X211241498Y-111254714D01*
X211241498Y-111254714D02*
X211330783Y-111302333D01*
X211330783Y-111302333D02*
X211366498Y-111397571D01*
X211366498Y-111397571D02*
X211301022Y-111921380D01*
X211777212Y-111921380D02*
X211902212Y-110921380D01*
X211902212Y-110921380D02*
X212348641Y-111921380D01*
X212348641Y-111921380D02*
X212473641Y-110921380D01*
X212824831Y-111921380D02*
X212908164Y-111254714D01*
X212949831Y-110921380D02*
X212896260Y-110969000D01*
X212896260Y-110969000D02*
X212937926Y-111016619D01*
X212937926Y-111016619D02*
X212991498Y-110969000D01*
X212991498Y-110969000D02*
X212949831Y-110921380D01*
X212949831Y-110921380D02*
X212937926Y-111016619D01*
X213205783Y-111921380D02*
X213812926Y-111254714D01*
X213289116Y-111254714D02*
X213729593Y-111921380D01*
X214110545Y-111921380D02*
X214193878Y-111254714D01*
X214235545Y-110921380D02*
X214181974Y-110969000D01*
X214181974Y-110969000D02*
X214223640Y-111016619D01*
X214223640Y-111016619D02*
X214277212Y-110969000D01*
X214277212Y-110969000D02*
X214235545Y-110921380D01*
X214235545Y-110921380D02*
X214223640Y-111016619D01*
X214973640Y-111873761D02*
X214872449Y-111921380D01*
X214872449Y-111921380D02*
X214681973Y-111921380D01*
X214681973Y-111921380D02*
X214592688Y-111873761D01*
X214592688Y-111873761D02*
X214556973Y-111778523D01*
X214556973Y-111778523D02*
X214604592Y-111397571D01*
X214604592Y-111397571D02*
X214664116Y-111302333D01*
X214664116Y-111302333D02*
X214765307Y-111254714D01*
X214765307Y-111254714D02*
X214955783Y-111254714D01*
X214955783Y-111254714D02*
X215045068Y-111302333D01*
X215045068Y-111302333D02*
X215080783Y-111397571D01*
X215080783Y-111397571D02*
X215068878Y-111492809D01*
X215068878Y-111492809D02*
X214580783Y-111588047D01*
D11*
%TO.C,C5*%
X135646733Y-86485142D02*
X135599114Y-86532761D01*
X135599114Y-86532761D02*
X135456257Y-86580380D01*
X135456257Y-86580380D02*
X135361019Y-86580380D01*
X135361019Y-86580380D02*
X135218162Y-86532761D01*
X135218162Y-86532761D02*
X135122924Y-86437523D01*
X135122924Y-86437523D02*
X135075305Y-86342285D01*
X135075305Y-86342285D02*
X135027686Y-86151809D01*
X135027686Y-86151809D02*
X135027686Y-86008952D01*
X135027686Y-86008952D02*
X135075305Y-85818476D01*
X135075305Y-85818476D02*
X135122924Y-85723238D01*
X135122924Y-85723238D02*
X135218162Y-85628000D01*
X135218162Y-85628000D02*
X135361019Y-85580380D01*
X135361019Y-85580380D02*
X135456257Y-85580380D01*
X135456257Y-85580380D02*
X135599114Y-85628000D01*
X135599114Y-85628000D02*
X135646733Y-85675619D01*
X136551495Y-85580380D02*
X136075305Y-85580380D01*
X136075305Y-85580380D02*
X136027686Y-86056571D01*
X136027686Y-86056571D02*
X136075305Y-86008952D01*
X136075305Y-86008952D02*
X136170543Y-85961333D01*
X136170543Y-85961333D02*
X136408638Y-85961333D01*
X136408638Y-85961333D02*
X136503876Y-86008952D01*
X136503876Y-86008952D02*
X136551495Y-86056571D01*
X136551495Y-86056571D02*
X136599114Y-86151809D01*
X136599114Y-86151809D02*
X136599114Y-86389904D01*
X136599114Y-86389904D02*
X136551495Y-86485142D01*
X136551495Y-86485142D02*
X136503876Y-86532761D01*
X136503876Y-86532761D02*
X136408638Y-86580380D01*
X136408638Y-86580380D02*
X136170543Y-86580380D01*
X136170543Y-86580380D02*
X136075305Y-86532761D01*
X136075305Y-86532761D02*
X136027686Y-86485142D01*
%TO.C,D1*%
X100760305Y-77949409D02*
X100760305Y-76949409D01*
X100760305Y-76949409D02*
X100998400Y-76949409D01*
X100998400Y-76949409D02*
X101141257Y-76997029D01*
X101141257Y-76997029D02*
X101236495Y-77092267D01*
X101236495Y-77092267D02*
X101284114Y-77187505D01*
X101284114Y-77187505D02*
X101331733Y-77377981D01*
X101331733Y-77377981D02*
X101331733Y-77520838D01*
X101331733Y-77520838D02*
X101284114Y-77711314D01*
X101284114Y-77711314D02*
X101236495Y-77806552D01*
X101236495Y-77806552D02*
X101141257Y-77901790D01*
X101141257Y-77901790D02*
X100998400Y-77949409D01*
X100998400Y-77949409D02*
X100760305Y-77949409D01*
X102284114Y-77949409D02*
X101712686Y-77949409D01*
X101998400Y-77949409D02*
X101998400Y-76949409D01*
X101998400Y-76949409D02*
X101903162Y-77092267D01*
X101903162Y-77092267D02*
X101807924Y-77187505D01*
X101807924Y-77187505D02*
X101712686Y-77235124D01*
X104330305Y-79990066D02*
X104806495Y-79990066D01*
X104235067Y-80275780D02*
X104568400Y-79275780D01*
X104568400Y-79275780D02*
X104901733Y-80275780D01*
%TO.C,D2*%
X192746980Y-80411294D02*
X191746980Y-80411294D01*
X191746980Y-80411294D02*
X191746980Y-80173199D01*
X191746980Y-80173199D02*
X191794600Y-80030342D01*
X191794600Y-80030342D02*
X191889838Y-79935104D01*
X191889838Y-79935104D02*
X191985076Y-79887485D01*
X191985076Y-79887485D02*
X192175552Y-79839866D01*
X192175552Y-79839866D02*
X192318409Y-79839866D01*
X192318409Y-79839866D02*
X192508885Y-79887485D01*
X192508885Y-79887485D02*
X192604123Y-79935104D01*
X192604123Y-79935104D02*
X192699361Y-80030342D01*
X192699361Y-80030342D02*
X192746980Y-80173199D01*
X192746980Y-80173199D02*
X192746980Y-80411294D01*
X191842219Y-79458913D02*
X191794600Y-79411294D01*
X191794600Y-79411294D02*
X191746980Y-79316056D01*
X191746980Y-79316056D02*
X191746980Y-79077961D01*
X191746980Y-79077961D02*
X191794600Y-78982723D01*
X191794600Y-78982723D02*
X191842219Y-78935104D01*
X191842219Y-78935104D02*
X191937457Y-78887485D01*
X191937457Y-78887485D02*
X192032695Y-78887485D01*
X192032695Y-78887485D02*
X192175552Y-78935104D01*
X192175552Y-78935104D02*
X192746980Y-79506532D01*
X192746980Y-79506532D02*
X192746980Y-78887485D01*
%TO.C,J1*%
X103930266Y-73761380D02*
X103930266Y-74475666D01*
X103930266Y-74475666D02*
X103882647Y-74618523D01*
X103882647Y-74618523D02*
X103787409Y-74713761D01*
X103787409Y-74713761D02*
X103644552Y-74761380D01*
X103644552Y-74761380D02*
X103549314Y-74761380D01*
X104930266Y-74761380D02*
X104358838Y-74761380D01*
X104644552Y-74761380D02*
X104644552Y-73761380D01*
X104644552Y-73761380D02*
X104549314Y-73904238D01*
X104549314Y-73904238D02*
X104454076Y-73999476D01*
X104454076Y-73999476D02*
X104358838Y-74047095D01*
%TO.C,J3*%
X150566666Y-96067380D02*
X150566666Y-96781666D01*
X150566666Y-96781666D02*
X150519047Y-96924523D01*
X150519047Y-96924523D02*
X150423809Y-97019761D01*
X150423809Y-97019761D02*
X150280952Y-97067380D01*
X150280952Y-97067380D02*
X150185714Y-97067380D01*
X150947619Y-96067380D02*
X151566666Y-96067380D01*
X151566666Y-96067380D02*
X151233333Y-96448333D01*
X151233333Y-96448333D02*
X151376190Y-96448333D01*
X151376190Y-96448333D02*
X151471428Y-96495952D01*
X151471428Y-96495952D02*
X151519047Y-96543571D01*
X151519047Y-96543571D02*
X151566666Y-96638809D01*
X151566666Y-96638809D02*
X151566666Y-96876904D01*
X151566666Y-96876904D02*
X151519047Y-96972142D01*
X151519047Y-96972142D02*
X151471428Y-97019761D01*
X151471428Y-97019761D02*
X151376190Y-97067380D01*
X151376190Y-97067380D02*
X151090476Y-97067380D01*
X151090476Y-97067380D02*
X150995238Y-97019761D01*
X150995238Y-97019761D02*
X150947619Y-96972142D01*
%TO.C,J4*%
X117439466Y-73646180D02*
X117439466Y-74360466D01*
X117439466Y-74360466D02*
X117391847Y-74503323D01*
X117391847Y-74503323D02*
X117296609Y-74598561D01*
X117296609Y-74598561D02*
X117153752Y-74646180D01*
X117153752Y-74646180D02*
X117058514Y-74646180D01*
X118344228Y-73979514D02*
X118344228Y-74646180D01*
X118106133Y-73598561D02*
X117868038Y-74312847D01*
X117868038Y-74312847D02*
X118487085Y-74312847D01*
%TO.C,L1*%
X202169733Y-73478780D02*
X201693543Y-73478780D01*
X201693543Y-73478780D02*
X201693543Y-72478780D01*
X203026876Y-73478780D02*
X202455448Y-73478780D01*
X202741162Y-73478780D02*
X202741162Y-72478780D01*
X202741162Y-72478780D02*
X202645924Y-72621638D01*
X202645924Y-72621638D02*
X202550686Y-72716876D01*
X202550686Y-72716876D02*
X202455448Y-72764495D01*
%TO.C,Q1*%
X139757161Y-73716219D02*
X139661923Y-73668600D01*
X139661923Y-73668600D02*
X139566685Y-73573361D01*
X139566685Y-73573361D02*
X139423828Y-73430504D01*
X139423828Y-73430504D02*
X139328590Y-73382885D01*
X139328590Y-73382885D02*
X139233352Y-73382885D01*
X139280971Y-73620980D02*
X139185733Y-73573361D01*
X139185733Y-73573361D02*
X139090495Y-73478123D01*
X139090495Y-73478123D02*
X139042876Y-73287647D01*
X139042876Y-73287647D02*
X139042876Y-72954314D01*
X139042876Y-72954314D02*
X139090495Y-72763838D01*
X139090495Y-72763838D02*
X139185733Y-72668600D01*
X139185733Y-72668600D02*
X139280971Y-72620980D01*
X139280971Y-72620980D02*
X139471447Y-72620980D01*
X139471447Y-72620980D02*
X139566685Y-72668600D01*
X139566685Y-72668600D02*
X139661923Y-72763838D01*
X139661923Y-72763838D02*
X139709542Y-72954314D01*
X139709542Y-72954314D02*
X139709542Y-73287647D01*
X139709542Y-73287647D02*
X139661923Y-73478123D01*
X139661923Y-73478123D02*
X139566685Y-73573361D01*
X139566685Y-73573361D02*
X139471447Y-73620980D01*
X139471447Y-73620980D02*
X139280971Y-73620980D01*
X140661923Y-73620980D02*
X140090495Y-73620980D01*
X140376209Y-73620980D02*
X140376209Y-72620980D01*
X140376209Y-72620980D02*
X140280971Y-72763838D01*
X140280971Y-72763838D02*
X140185733Y-72859076D01*
X140185733Y-72859076D02*
X140090495Y-72906695D01*
%TO.C,Q3*%
X172038561Y-74948019D02*
X171943323Y-74900400D01*
X171943323Y-74900400D02*
X171848085Y-74805161D01*
X171848085Y-74805161D02*
X171705228Y-74662304D01*
X171705228Y-74662304D02*
X171609990Y-74614685D01*
X171609990Y-74614685D02*
X171514752Y-74614685D01*
X171562371Y-74852780D02*
X171467133Y-74805161D01*
X171467133Y-74805161D02*
X171371895Y-74709923D01*
X171371895Y-74709923D02*
X171324276Y-74519447D01*
X171324276Y-74519447D02*
X171324276Y-74186114D01*
X171324276Y-74186114D02*
X171371895Y-73995638D01*
X171371895Y-73995638D02*
X171467133Y-73900400D01*
X171467133Y-73900400D02*
X171562371Y-73852780D01*
X171562371Y-73852780D02*
X171752847Y-73852780D01*
X171752847Y-73852780D02*
X171848085Y-73900400D01*
X171848085Y-73900400D02*
X171943323Y-73995638D01*
X171943323Y-73995638D02*
X171990942Y-74186114D01*
X171990942Y-74186114D02*
X171990942Y-74519447D01*
X171990942Y-74519447D02*
X171943323Y-74709923D01*
X171943323Y-74709923D02*
X171848085Y-74805161D01*
X171848085Y-74805161D02*
X171752847Y-74852780D01*
X171752847Y-74852780D02*
X171562371Y-74852780D01*
X172324276Y-73852780D02*
X172943323Y-73852780D01*
X172943323Y-73852780D02*
X172609990Y-74233733D01*
X172609990Y-74233733D02*
X172752847Y-74233733D01*
X172752847Y-74233733D02*
X172848085Y-74281352D01*
X172848085Y-74281352D02*
X172895704Y-74328971D01*
X172895704Y-74328971D02*
X172943323Y-74424209D01*
X172943323Y-74424209D02*
X172943323Y-74662304D01*
X172943323Y-74662304D02*
X172895704Y-74757542D01*
X172895704Y-74757542D02*
X172848085Y-74805161D01*
X172848085Y-74805161D02*
X172752847Y-74852780D01*
X172752847Y-74852780D02*
X172467133Y-74852780D01*
X172467133Y-74852780D02*
X172371895Y-74805161D01*
X172371895Y-74805161D02*
X172324276Y-74757542D01*
%TO.C,Q4*%
X105274761Y-93325019D02*
X105179523Y-93277400D01*
X105179523Y-93277400D02*
X105084285Y-93182161D01*
X105084285Y-93182161D02*
X104941428Y-93039304D01*
X104941428Y-93039304D02*
X104846190Y-92991685D01*
X104846190Y-92991685D02*
X104750952Y-92991685D01*
X104798571Y-93229780D02*
X104703333Y-93182161D01*
X104703333Y-93182161D02*
X104608095Y-93086923D01*
X104608095Y-93086923D02*
X104560476Y-92896447D01*
X104560476Y-92896447D02*
X104560476Y-92563114D01*
X104560476Y-92563114D02*
X104608095Y-92372638D01*
X104608095Y-92372638D02*
X104703333Y-92277400D01*
X104703333Y-92277400D02*
X104798571Y-92229780D01*
X104798571Y-92229780D02*
X104989047Y-92229780D01*
X104989047Y-92229780D02*
X105084285Y-92277400D01*
X105084285Y-92277400D02*
X105179523Y-92372638D01*
X105179523Y-92372638D02*
X105227142Y-92563114D01*
X105227142Y-92563114D02*
X105227142Y-92896447D01*
X105227142Y-92896447D02*
X105179523Y-93086923D01*
X105179523Y-93086923D02*
X105084285Y-93182161D01*
X105084285Y-93182161D02*
X104989047Y-93229780D01*
X104989047Y-93229780D02*
X104798571Y-93229780D01*
X106084285Y-92563114D02*
X106084285Y-93229780D01*
X105846190Y-92182161D02*
X105608095Y-92896447D01*
X105608095Y-92896447D02*
X106227142Y-92896447D01*
%TO.C,Q5*%
X133407161Y-93325019D02*
X133311923Y-93277400D01*
X133311923Y-93277400D02*
X133216685Y-93182161D01*
X133216685Y-93182161D02*
X133073828Y-93039304D01*
X133073828Y-93039304D02*
X132978590Y-92991685D01*
X132978590Y-92991685D02*
X132883352Y-92991685D01*
X132930971Y-93229780D02*
X132835733Y-93182161D01*
X132835733Y-93182161D02*
X132740495Y-93086923D01*
X132740495Y-93086923D02*
X132692876Y-92896447D01*
X132692876Y-92896447D02*
X132692876Y-92563114D01*
X132692876Y-92563114D02*
X132740495Y-92372638D01*
X132740495Y-92372638D02*
X132835733Y-92277400D01*
X132835733Y-92277400D02*
X132930971Y-92229780D01*
X132930971Y-92229780D02*
X133121447Y-92229780D01*
X133121447Y-92229780D02*
X133216685Y-92277400D01*
X133216685Y-92277400D02*
X133311923Y-92372638D01*
X133311923Y-92372638D02*
X133359542Y-92563114D01*
X133359542Y-92563114D02*
X133359542Y-92896447D01*
X133359542Y-92896447D02*
X133311923Y-93086923D01*
X133311923Y-93086923D02*
X133216685Y-93182161D01*
X133216685Y-93182161D02*
X133121447Y-93229780D01*
X133121447Y-93229780D02*
X132930971Y-93229780D01*
X134264304Y-92229780D02*
X133788114Y-92229780D01*
X133788114Y-92229780D02*
X133740495Y-92705971D01*
X133740495Y-92705971D02*
X133788114Y-92658352D01*
X133788114Y-92658352D02*
X133883352Y-92610733D01*
X133883352Y-92610733D02*
X134121447Y-92610733D01*
X134121447Y-92610733D02*
X134216685Y-92658352D01*
X134216685Y-92658352D02*
X134264304Y-92705971D01*
X134264304Y-92705971D02*
X134311923Y-92801209D01*
X134311923Y-92801209D02*
X134311923Y-93039304D01*
X134311923Y-93039304D02*
X134264304Y-93134542D01*
X134264304Y-93134542D02*
X134216685Y-93182161D01*
X134216685Y-93182161D02*
X134121447Y-93229780D01*
X134121447Y-93229780D02*
X133883352Y-93229780D01*
X133883352Y-93229780D02*
X133788114Y-93182161D01*
X133788114Y-93182161D02*
X133740495Y-93134542D01*
%TO.C,Q6*%
X160077161Y-93325019D02*
X159981923Y-93277400D01*
X159981923Y-93277400D02*
X159886685Y-93182161D01*
X159886685Y-93182161D02*
X159743828Y-93039304D01*
X159743828Y-93039304D02*
X159648590Y-92991685D01*
X159648590Y-92991685D02*
X159553352Y-92991685D01*
X159600971Y-93229780D02*
X159505733Y-93182161D01*
X159505733Y-93182161D02*
X159410495Y-93086923D01*
X159410495Y-93086923D02*
X159362876Y-92896447D01*
X159362876Y-92896447D02*
X159362876Y-92563114D01*
X159362876Y-92563114D02*
X159410495Y-92372638D01*
X159410495Y-92372638D02*
X159505733Y-92277400D01*
X159505733Y-92277400D02*
X159600971Y-92229780D01*
X159600971Y-92229780D02*
X159791447Y-92229780D01*
X159791447Y-92229780D02*
X159886685Y-92277400D01*
X159886685Y-92277400D02*
X159981923Y-92372638D01*
X159981923Y-92372638D02*
X160029542Y-92563114D01*
X160029542Y-92563114D02*
X160029542Y-92896447D01*
X160029542Y-92896447D02*
X159981923Y-93086923D01*
X159981923Y-93086923D02*
X159886685Y-93182161D01*
X159886685Y-93182161D02*
X159791447Y-93229780D01*
X159791447Y-93229780D02*
X159600971Y-93229780D01*
X160886685Y-92229780D02*
X160696209Y-92229780D01*
X160696209Y-92229780D02*
X160600971Y-92277400D01*
X160600971Y-92277400D02*
X160553352Y-92325019D01*
X160553352Y-92325019D02*
X160458114Y-92467876D01*
X160458114Y-92467876D02*
X160410495Y-92658352D01*
X160410495Y-92658352D02*
X160410495Y-93039304D01*
X160410495Y-93039304D02*
X160458114Y-93134542D01*
X160458114Y-93134542D02*
X160505733Y-93182161D01*
X160505733Y-93182161D02*
X160600971Y-93229780D01*
X160600971Y-93229780D02*
X160791447Y-93229780D01*
X160791447Y-93229780D02*
X160886685Y-93182161D01*
X160886685Y-93182161D02*
X160934304Y-93134542D01*
X160934304Y-93134542D02*
X160981923Y-93039304D01*
X160981923Y-93039304D02*
X160981923Y-92801209D01*
X160981923Y-92801209D02*
X160934304Y-92705971D01*
X160934304Y-92705971D02*
X160886685Y-92658352D01*
X160886685Y-92658352D02*
X160791447Y-92610733D01*
X160791447Y-92610733D02*
X160600971Y-92610733D01*
X160600971Y-92610733D02*
X160505733Y-92658352D01*
X160505733Y-92658352D02*
X160458114Y-92705971D01*
X160458114Y-92705971D02*
X160410495Y-92801209D01*
%TO.C,Q7*%
X187915561Y-93325019D02*
X187820323Y-93277400D01*
X187820323Y-93277400D02*
X187725085Y-93182161D01*
X187725085Y-93182161D02*
X187582228Y-93039304D01*
X187582228Y-93039304D02*
X187486990Y-92991685D01*
X187486990Y-92991685D02*
X187391752Y-92991685D01*
X187439371Y-93229780D02*
X187344133Y-93182161D01*
X187344133Y-93182161D02*
X187248895Y-93086923D01*
X187248895Y-93086923D02*
X187201276Y-92896447D01*
X187201276Y-92896447D02*
X187201276Y-92563114D01*
X187201276Y-92563114D02*
X187248895Y-92372638D01*
X187248895Y-92372638D02*
X187344133Y-92277400D01*
X187344133Y-92277400D02*
X187439371Y-92229780D01*
X187439371Y-92229780D02*
X187629847Y-92229780D01*
X187629847Y-92229780D02*
X187725085Y-92277400D01*
X187725085Y-92277400D02*
X187820323Y-92372638D01*
X187820323Y-92372638D02*
X187867942Y-92563114D01*
X187867942Y-92563114D02*
X187867942Y-92896447D01*
X187867942Y-92896447D02*
X187820323Y-93086923D01*
X187820323Y-93086923D02*
X187725085Y-93182161D01*
X187725085Y-93182161D02*
X187629847Y-93229780D01*
X187629847Y-93229780D02*
X187439371Y-93229780D01*
X188201276Y-92229780D02*
X188867942Y-92229780D01*
X188867942Y-92229780D02*
X188439371Y-93229780D01*
%TO.C,Q12*%
X125938619Y-108141428D02*
X125891000Y-108236666D01*
X125891000Y-108236666D02*
X125795761Y-108331904D01*
X125795761Y-108331904D02*
X125652904Y-108474761D01*
X125652904Y-108474761D02*
X125605285Y-108569999D01*
X125605285Y-108569999D02*
X125605285Y-108665237D01*
X125843380Y-108617618D02*
X125795761Y-108712856D01*
X125795761Y-108712856D02*
X125700523Y-108808094D01*
X125700523Y-108808094D02*
X125510047Y-108855713D01*
X125510047Y-108855713D02*
X125176714Y-108855713D01*
X125176714Y-108855713D02*
X124986238Y-108808094D01*
X124986238Y-108808094D02*
X124891000Y-108712856D01*
X124891000Y-108712856D02*
X124843380Y-108617618D01*
X124843380Y-108617618D02*
X124843380Y-108427142D01*
X124843380Y-108427142D02*
X124891000Y-108331904D01*
X124891000Y-108331904D02*
X124986238Y-108236666D01*
X124986238Y-108236666D02*
X125176714Y-108189047D01*
X125176714Y-108189047D02*
X125510047Y-108189047D01*
X125510047Y-108189047D02*
X125700523Y-108236666D01*
X125700523Y-108236666D02*
X125795761Y-108331904D01*
X125795761Y-108331904D02*
X125843380Y-108427142D01*
X125843380Y-108427142D02*
X125843380Y-108617618D01*
X125843380Y-107236666D02*
X125843380Y-107808094D01*
X125843380Y-107522380D02*
X124843380Y-107522380D01*
X124843380Y-107522380D02*
X124986238Y-107617618D01*
X124986238Y-107617618D02*
X125081476Y-107712856D01*
X125081476Y-107712856D02*
X125129095Y-107808094D01*
X124938619Y-106855713D02*
X124891000Y-106808094D01*
X124891000Y-106808094D02*
X124843380Y-106712856D01*
X124843380Y-106712856D02*
X124843380Y-106474761D01*
X124843380Y-106474761D02*
X124891000Y-106379523D01*
X124891000Y-106379523D02*
X124938619Y-106331904D01*
X124938619Y-106331904D02*
X125033857Y-106284285D01*
X125033857Y-106284285D02*
X125129095Y-106284285D01*
X125129095Y-106284285D02*
X125271952Y-106331904D01*
X125271952Y-106331904D02*
X125843380Y-106903332D01*
X125843380Y-106903332D02*
X125843380Y-106284285D01*
%TO.C,Q13*%
X132390219Y-108141428D02*
X132342600Y-108236666D01*
X132342600Y-108236666D02*
X132247361Y-108331904D01*
X132247361Y-108331904D02*
X132104504Y-108474761D01*
X132104504Y-108474761D02*
X132056885Y-108569999D01*
X132056885Y-108569999D02*
X132056885Y-108665237D01*
X132294980Y-108617618D02*
X132247361Y-108712856D01*
X132247361Y-108712856D02*
X132152123Y-108808094D01*
X132152123Y-108808094D02*
X131961647Y-108855713D01*
X131961647Y-108855713D02*
X131628314Y-108855713D01*
X131628314Y-108855713D02*
X131437838Y-108808094D01*
X131437838Y-108808094D02*
X131342600Y-108712856D01*
X131342600Y-108712856D02*
X131294980Y-108617618D01*
X131294980Y-108617618D02*
X131294980Y-108427142D01*
X131294980Y-108427142D02*
X131342600Y-108331904D01*
X131342600Y-108331904D02*
X131437838Y-108236666D01*
X131437838Y-108236666D02*
X131628314Y-108189047D01*
X131628314Y-108189047D02*
X131961647Y-108189047D01*
X131961647Y-108189047D02*
X132152123Y-108236666D01*
X132152123Y-108236666D02*
X132247361Y-108331904D01*
X132247361Y-108331904D02*
X132294980Y-108427142D01*
X132294980Y-108427142D02*
X132294980Y-108617618D01*
X132294980Y-107236666D02*
X132294980Y-107808094D01*
X132294980Y-107522380D02*
X131294980Y-107522380D01*
X131294980Y-107522380D02*
X131437838Y-107617618D01*
X131437838Y-107617618D02*
X131533076Y-107712856D01*
X131533076Y-107712856D02*
X131580695Y-107808094D01*
X131294980Y-106903332D02*
X131294980Y-106284285D01*
X131294980Y-106284285D02*
X131675933Y-106617618D01*
X131675933Y-106617618D02*
X131675933Y-106474761D01*
X131675933Y-106474761D02*
X131723552Y-106379523D01*
X131723552Y-106379523D02*
X131771171Y-106331904D01*
X131771171Y-106331904D02*
X131866409Y-106284285D01*
X131866409Y-106284285D02*
X132104504Y-106284285D01*
X132104504Y-106284285D02*
X132199742Y-106331904D01*
X132199742Y-106331904D02*
X132247361Y-106379523D01*
X132247361Y-106379523D02*
X132294980Y-106474761D01*
X132294980Y-106474761D02*
X132294980Y-106760475D01*
X132294980Y-106760475D02*
X132247361Y-106855713D01*
X132247361Y-106855713D02*
X132199742Y-106903332D01*
%TO.C,Q14*%
X138689419Y-108141428D02*
X138641800Y-108236666D01*
X138641800Y-108236666D02*
X138546561Y-108331904D01*
X138546561Y-108331904D02*
X138403704Y-108474761D01*
X138403704Y-108474761D02*
X138356085Y-108569999D01*
X138356085Y-108569999D02*
X138356085Y-108665237D01*
X138594180Y-108617618D02*
X138546561Y-108712856D01*
X138546561Y-108712856D02*
X138451323Y-108808094D01*
X138451323Y-108808094D02*
X138260847Y-108855713D01*
X138260847Y-108855713D02*
X137927514Y-108855713D01*
X137927514Y-108855713D02*
X137737038Y-108808094D01*
X137737038Y-108808094D02*
X137641800Y-108712856D01*
X137641800Y-108712856D02*
X137594180Y-108617618D01*
X137594180Y-108617618D02*
X137594180Y-108427142D01*
X137594180Y-108427142D02*
X137641800Y-108331904D01*
X137641800Y-108331904D02*
X137737038Y-108236666D01*
X137737038Y-108236666D02*
X137927514Y-108189047D01*
X137927514Y-108189047D02*
X138260847Y-108189047D01*
X138260847Y-108189047D02*
X138451323Y-108236666D01*
X138451323Y-108236666D02*
X138546561Y-108331904D01*
X138546561Y-108331904D02*
X138594180Y-108427142D01*
X138594180Y-108427142D02*
X138594180Y-108617618D01*
X138594180Y-107236666D02*
X138594180Y-107808094D01*
X138594180Y-107522380D02*
X137594180Y-107522380D01*
X137594180Y-107522380D02*
X137737038Y-107617618D01*
X137737038Y-107617618D02*
X137832276Y-107712856D01*
X137832276Y-107712856D02*
X137879895Y-107808094D01*
X137927514Y-106379523D02*
X138594180Y-106379523D01*
X137546561Y-106617618D02*
X138260847Y-106855713D01*
X138260847Y-106855713D02*
X138260847Y-106236666D01*
%TO.C,Q15*%
X145090219Y-108141428D02*
X145042600Y-108236666D01*
X145042600Y-108236666D02*
X144947361Y-108331904D01*
X144947361Y-108331904D02*
X144804504Y-108474761D01*
X144804504Y-108474761D02*
X144756885Y-108569999D01*
X144756885Y-108569999D02*
X144756885Y-108665237D01*
X144994980Y-108617618D02*
X144947361Y-108712856D01*
X144947361Y-108712856D02*
X144852123Y-108808094D01*
X144852123Y-108808094D02*
X144661647Y-108855713D01*
X144661647Y-108855713D02*
X144328314Y-108855713D01*
X144328314Y-108855713D02*
X144137838Y-108808094D01*
X144137838Y-108808094D02*
X144042600Y-108712856D01*
X144042600Y-108712856D02*
X143994980Y-108617618D01*
X143994980Y-108617618D02*
X143994980Y-108427142D01*
X143994980Y-108427142D02*
X144042600Y-108331904D01*
X144042600Y-108331904D02*
X144137838Y-108236666D01*
X144137838Y-108236666D02*
X144328314Y-108189047D01*
X144328314Y-108189047D02*
X144661647Y-108189047D01*
X144661647Y-108189047D02*
X144852123Y-108236666D01*
X144852123Y-108236666D02*
X144947361Y-108331904D01*
X144947361Y-108331904D02*
X144994980Y-108427142D01*
X144994980Y-108427142D02*
X144994980Y-108617618D01*
X144994980Y-107236666D02*
X144994980Y-107808094D01*
X144994980Y-107522380D02*
X143994980Y-107522380D01*
X143994980Y-107522380D02*
X144137838Y-107617618D01*
X144137838Y-107617618D02*
X144233076Y-107712856D01*
X144233076Y-107712856D02*
X144280695Y-107808094D01*
X143994980Y-106331904D02*
X143994980Y-106808094D01*
X143994980Y-106808094D02*
X144471171Y-106855713D01*
X144471171Y-106855713D02*
X144423552Y-106808094D01*
X144423552Y-106808094D02*
X144375933Y-106712856D01*
X144375933Y-106712856D02*
X144375933Y-106474761D01*
X144375933Y-106474761D02*
X144423552Y-106379523D01*
X144423552Y-106379523D02*
X144471171Y-106331904D01*
X144471171Y-106331904D02*
X144566409Y-106284285D01*
X144566409Y-106284285D02*
X144804504Y-106284285D01*
X144804504Y-106284285D02*
X144899742Y-106331904D01*
X144899742Y-106331904D02*
X144947361Y-106379523D01*
X144947361Y-106379523D02*
X144994980Y-106474761D01*
X144994980Y-106474761D02*
X144994980Y-106712856D01*
X144994980Y-106712856D02*
X144947361Y-106808094D01*
X144947361Y-106808094D02*
X144899742Y-106855713D01*
%TO.C,Q16*%
X151389419Y-108141428D02*
X151341800Y-108236666D01*
X151341800Y-108236666D02*
X151246561Y-108331904D01*
X151246561Y-108331904D02*
X151103704Y-108474761D01*
X151103704Y-108474761D02*
X151056085Y-108569999D01*
X151056085Y-108569999D02*
X151056085Y-108665237D01*
X151294180Y-108617618D02*
X151246561Y-108712856D01*
X151246561Y-108712856D02*
X151151323Y-108808094D01*
X151151323Y-108808094D02*
X150960847Y-108855713D01*
X150960847Y-108855713D02*
X150627514Y-108855713D01*
X150627514Y-108855713D02*
X150437038Y-108808094D01*
X150437038Y-108808094D02*
X150341800Y-108712856D01*
X150341800Y-108712856D02*
X150294180Y-108617618D01*
X150294180Y-108617618D02*
X150294180Y-108427142D01*
X150294180Y-108427142D02*
X150341800Y-108331904D01*
X150341800Y-108331904D02*
X150437038Y-108236666D01*
X150437038Y-108236666D02*
X150627514Y-108189047D01*
X150627514Y-108189047D02*
X150960847Y-108189047D01*
X150960847Y-108189047D02*
X151151323Y-108236666D01*
X151151323Y-108236666D02*
X151246561Y-108331904D01*
X151246561Y-108331904D02*
X151294180Y-108427142D01*
X151294180Y-108427142D02*
X151294180Y-108617618D01*
X151294180Y-107236666D02*
X151294180Y-107808094D01*
X151294180Y-107522380D02*
X150294180Y-107522380D01*
X150294180Y-107522380D02*
X150437038Y-107617618D01*
X150437038Y-107617618D02*
X150532276Y-107712856D01*
X150532276Y-107712856D02*
X150579895Y-107808094D01*
X150294180Y-106379523D02*
X150294180Y-106569999D01*
X150294180Y-106569999D02*
X150341800Y-106665237D01*
X150341800Y-106665237D02*
X150389419Y-106712856D01*
X150389419Y-106712856D02*
X150532276Y-106808094D01*
X150532276Y-106808094D02*
X150722752Y-106855713D01*
X150722752Y-106855713D02*
X151103704Y-106855713D01*
X151103704Y-106855713D02*
X151198942Y-106808094D01*
X151198942Y-106808094D02*
X151246561Y-106760475D01*
X151246561Y-106760475D02*
X151294180Y-106665237D01*
X151294180Y-106665237D02*
X151294180Y-106474761D01*
X151294180Y-106474761D02*
X151246561Y-106379523D01*
X151246561Y-106379523D02*
X151198942Y-106331904D01*
X151198942Y-106331904D02*
X151103704Y-106284285D01*
X151103704Y-106284285D02*
X150865609Y-106284285D01*
X150865609Y-106284285D02*
X150770371Y-106331904D01*
X150770371Y-106331904D02*
X150722752Y-106379523D01*
X150722752Y-106379523D02*
X150675133Y-106474761D01*
X150675133Y-106474761D02*
X150675133Y-106665237D01*
X150675133Y-106665237D02*
X150722752Y-106760475D01*
X150722752Y-106760475D02*
X150770371Y-106808094D01*
X150770371Y-106808094D02*
X150865609Y-106855713D01*
%TO.C,Q17*%
X113391019Y-108141428D02*
X113343400Y-108236666D01*
X113343400Y-108236666D02*
X113248161Y-108331904D01*
X113248161Y-108331904D02*
X113105304Y-108474761D01*
X113105304Y-108474761D02*
X113057685Y-108569999D01*
X113057685Y-108569999D02*
X113057685Y-108665237D01*
X113295780Y-108617618D02*
X113248161Y-108712856D01*
X113248161Y-108712856D02*
X113152923Y-108808094D01*
X113152923Y-108808094D02*
X112962447Y-108855713D01*
X112962447Y-108855713D02*
X112629114Y-108855713D01*
X112629114Y-108855713D02*
X112438638Y-108808094D01*
X112438638Y-108808094D02*
X112343400Y-108712856D01*
X112343400Y-108712856D02*
X112295780Y-108617618D01*
X112295780Y-108617618D02*
X112295780Y-108427142D01*
X112295780Y-108427142D02*
X112343400Y-108331904D01*
X112343400Y-108331904D02*
X112438638Y-108236666D01*
X112438638Y-108236666D02*
X112629114Y-108189047D01*
X112629114Y-108189047D02*
X112962447Y-108189047D01*
X112962447Y-108189047D02*
X113152923Y-108236666D01*
X113152923Y-108236666D02*
X113248161Y-108331904D01*
X113248161Y-108331904D02*
X113295780Y-108427142D01*
X113295780Y-108427142D02*
X113295780Y-108617618D01*
X113295780Y-107236666D02*
X113295780Y-107808094D01*
X113295780Y-107522380D02*
X112295780Y-107522380D01*
X112295780Y-107522380D02*
X112438638Y-107617618D01*
X112438638Y-107617618D02*
X112533876Y-107712856D01*
X112533876Y-107712856D02*
X112581495Y-107808094D01*
X112295780Y-106903332D02*
X112295780Y-106236666D01*
X112295780Y-106236666D02*
X113295780Y-106665237D01*
%TO.C,Q18*%
X106939419Y-108141428D02*
X106891800Y-108236666D01*
X106891800Y-108236666D02*
X106796561Y-108331904D01*
X106796561Y-108331904D02*
X106653704Y-108474761D01*
X106653704Y-108474761D02*
X106606085Y-108569999D01*
X106606085Y-108569999D02*
X106606085Y-108665237D01*
X106844180Y-108617618D02*
X106796561Y-108712856D01*
X106796561Y-108712856D02*
X106701323Y-108808094D01*
X106701323Y-108808094D02*
X106510847Y-108855713D01*
X106510847Y-108855713D02*
X106177514Y-108855713D01*
X106177514Y-108855713D02*
X105987038Y-108808094D01*
X105987038Y-108808094D02*
X105891800Y-108712856D01*
X105891800Y-108712856D02*
X105844180Y-108617618D01*
X105844180Y-108617618D02*
X105844180Y-108427142D01*
X105844180Y-108427142D02*
X105891800Y-108331904D01*
X105891800Y-108331904D02*
X105987038Y-108236666D01*
X105987038Y-108236666D02*
X106177514Y-108189047D01*
X106177514Y-108189047D02*
X106510847Y-108189047D01*
X106510847Y-108189047D02*
X106701323Y-108236666D01*
X106701323Y-108236666D02*
X106796561Y-108331904D01*
X106796561Y-108331904D02*
X106844180Y-108427142D01*
X106844180Y-108427142D02*
X106844180Y-108617618D01*
X106844180Y-107236666D02*
X106844180Y-107808094D01*
X106844180Y-107522380D02*
X105844180Y-107522380D01*
X105844180Y-107522380D02*
X105987038Y-107617618D01*
X105987038Y-107617618D02*
X106082276Y-107712856D01*
X106082276Y-107712856D02*
X106129895Y-107808094D01*
X106272752Y-106665237D02*
X106225133Y-106760475D01*
X106225133Y-106760475D02*
X106177514Y-106808094D01*
X106177514Y-106808094D02*
X106082276Y-106855713D01*
X106082276Y-106855713D02*
X106034657Y-106855713D01*
X106034657Y-106855713D02*
X105939419Y-106808094D01*
X105939419Y-106808094D02*
X105891800Y-106760475D01*
X105891800Y-106760475D02*
X105844180Y-106665237D01*
X105844180Y-106665237D02*
X105844180Y-106474761D01*
X105844180Y-106474761D02*
X105891800Y-106379523D01*
X105891800Y-106379523D02*
X105939419Y-106331904D01*
X105939419Y-106331904D02*
X106034657Y-106284285D01*
X106034657Y-106284285D02*
X106082276Y-106284285D01*
X106082276Y-106284285D02*
X106177514Y-106331904D01*
X106177514Y-106331904D02*
X106225133Y-106379523D01*
X106225133Y-106379523D02*
X106272752Y-106474761D01*
X106272752Y-106474761D02*
X106272752Y-106665237D01*
X106272752Y-106665237D02*
X106320371Y-106760475D01*
X106320371Y-106760475D02*
X106367990Y-106808094D01*
X106367990Y-106808094D02*
X106463228Y-106855713D01*
X106463228Y-106855713D02*
X106653704Y-106855713D01*
X106653704Y-106855713D02*
X106748942Y-106808094D01*
X106748942Y-106808094D02*
X106796561Y-106760475D01*
X106796561Y-106760475D02*
X106844180Y-106665237D01*
X106844180Y-106665237D02*
X106844180Y-106474761D01*
X106844180Y-106474761D02*
X106796561Y-106379523D01*
X106796561Y-106379523D02*
X106748942Y-106331904D01*
X106748942Y-106331904D02*
X106653704Y-106284285D01*
X106653704Y-106284285D02*
X106463228Y-106284285D01*
X106463228Y-106284285D02*
X106367990Y-106331904D01*
X106367990Y-106331904D02*
X106320371Y-106379523D01*
X106320371Y-106379523D02*
X106272752Y-106474761D01*
%TO.C,Q19*%
X119639419Y-108141428D02*
X119591800Y-108236666D01*
X119591800Y-108236666D02*
X119496561Y-108331904D01*
X119496561Y-108331904D02*
X119353704Y-108474761D01*
X119353704Y-108474761D02*
X119306085Y-108569999D01*
X119306085Y-108569999D02*
X119306085Y-108665237D01*
X119544180Y-108617618D02*
X119496561Y-108712856D01*
X119496561Y-108712856D02*
X119401323Y-108808094D01*
X119401323Y-108808094D02*
X119210847Y-108855713D01*
X119210847Y-108855713D02*
X118877514Y-108855713D01*
X118877514Y-108855713D02*
X118687038Y-108808094D01*
X118687038Y-108808094D02*
X118591800Y-108712856D01*
X118591800Y-108712856D02*
X118544180Y-108617618D01*
X118544180Y-108617618D02*
X118544180Y-108427142D01*
X118544180Y-108427142D02*
X118591800Y-108331904D01*
X118591800Y-108331904D02*
X118687038Y-108236666D01*
X118687038Y-108236666D02*
X118877514Y-108189047D01*
X118877514Y-108189047D02*
X119210847Y-108189047D01*
X119210847Y-108189047D02*
X119401323Y-108236666D01*
X119401323Y-108236666D02*
X119496561Y-108331904D01*
X119496561Y-108331904D02*
X119544180Y-108427142D01*
X119544180Y-108427142D02*
X119544180Y-108617618D01*
X119544180Y-107236666D02*
X119544180Y-107808094D01*
X119544180Y-107522380D02*
X118544180Y-107522380D01*
X118544180Y-107522380D02*
X118687038Y-107617618D01*
X118687038Y-107617618D02*
X118782276Y-107712856D01*
X118782276Y-107712856D02*
X118829895Y-107808094D01*
X119544180Y-106760475D02*
X119544180Y-106569999D01*
X119544180Y-106569999D02*
X119496561Y-106474761D01*
X119496561Y-106474761D02*
X119448942Y-106427142D01*
X119448942Y-106427142D02*
X119306085Y-106331904D01*
X119306085Y-106331904D02*
X119115609Y-106284285D01*
X119115609Y-106284285D02*
X118734657Y-106284285D01*
X118734657Y-106284285D02*
X118639419Y-106331904D01*
X118639419Y-106331904D02*
X118591800Y-106379523D01*
X118591800Y-106379523D02*
X118544180Y-106474761D01*
X118544180Y-106474761D02*
X118544180Y-106665237D01*
X118544180Y-106665237D02*
X118591800Y-106760475D01*
X118591800Y-106760475D02*
X118639419Y-106808094D01*
X118639419Y-106808094D02*
X118734657Y-106855713D01*
X118734657Y-106855713D02*
X118972752Y-106855713D01*
X118972752Y-106855713D02*
X119067990Y-106808094D01*
X119067990Y-106808094D02*
X119115609Y-106760475D01*
X119115609Y-106760475D02*
X119163228Y-106665237D01*
X119163228Y-106665237D02*
X119163228Y-106474761D01*
X119163228Y-106474761D02*
X119115609Y-106379523D01*
X119115609Y-106379523D02*
X119067990Y-106331904D01*
X119067990Y-106331904D02*
X118972752Y-106284285D01*
%TO.C,Q20*%
X100589419Y-108141428D02*
X100541800Y-108236666D01*
X100541800Y-108236666D02*
X100446561Y-108331904D01*
X100446561Y-108331904D02*
X100303704Y-108474761D01*
X100303704Y-108474761D02*
X100256085Y-108569999D01*
X100256085Y-108569999D02*
X100256085Y-108665237D01*
X100494180Y-108617618D02*
X100446561Y-108712856D01*
X100446561Y-108712856D02*
X100351323Y-108808094D01*
X100351323Y-108808094D02*
X100160847Y-108855713D01*
X100160847Y-108855713D02*
X99827514Y-108855713D01*
X99827514Y-108855713D02*
X99637038Y-108808094D01*
X99637038Y-108808094D02*
X99541800Y-108712856D01*
X99541800Y-108712856D02*
X99494180Y-108617618D01*
X99494180Y-108617618D02*
X99494180Y-108427142D01*
X99494180Y-108427142D02*
X99541800Y-108331904D01*
X99541800Y-108331904D02*
X99637038Y-108236666D01*
X99637038Y-108236666D02*
X99827514Y-108189047D01*
X99827514Y-108189047D02*
X100160847Y-108189047D01*
X100160847Y-108189047D02*
X100351323Y-108236666D01*
X100351323Y-108236666D02*
X100446561Y-108331904D01*
X100446561Y-108331904D02*
X100494180Y-108427142D01*
X100494180Y-108427142D02*
X100494180Y-108617618D01*
X99589419Y-107808094D02*
X99541800Y-107760475D01*
X99541800Y-107760475D02*
X99494180Y-107665237D01*
X99494180Y-107665237D02*
X99494180Y-107427142D01*
X99494180Y-107427142D02*
X99541800Y-107331904D01*
X99541800Y-107331904D02*
X99589419Y-107284285D01*
X99589419Y-107284285D02*
X99684657Y-107236666D01*
X99684657Y-107236666D02*
X99779895Y-107236666D01*
X99779895Y-107236666D02*
X99922752Y-107284285D01*
X99922752Y-107284285D02*
X100494180Y-107855713D01*
X100494180Y-107855713D02*
X100494180Y-107236666D01*
X99494180Y-106617618D02*
X99494180Y-106522380D01*
X99494180Y-106522380D02*
X99541800Y-106427142D01*
X99541800Y-106427142D02*
X99589419Y-106379523D01*
X99589419Y-106379523D02*
X99684657Y-106331904D01*
X99684657Y-106331904D02*
X99875133Y-106284285D01*
X99875133Y-106284285D02*
X100113228Y-106284285D01*
X100113228Y-106284285D02*
X100303704Y-106331904D01*
X100303704Y-106331904D02*
X100398942Y-106379523D01*
X100398942Y-106379523D02*
X100446561Y-106427142D01*
X100446561Y-106427142D02*
X100494180Y-106522380D01*
X100494180Y-106522380D02*
X100494180Y-106617618D01*
X100494180Y-106617618D02*
X100446561Y-106712856D01*
X100446561Y-106712856D02*
X100398942Y-106760475D01*
X100398942Y-106760475D02*
X100303704Y-106808094D01*
X100303704Y-106808094D02*
X100113228Y-106855713D01*
X100113228Y-106855713D02*
X99875133Y-106855713D01*
X99875133Y-106855713D02*
X99684657Y-106808094D01*
X99684657Y-106808094D02*
X99589419Y-106760475D01*
X99589419Y-106760475D02*
X99541800Y-106712856D01*
X99541800Y-106712856D02*
X99494180Y-106617618D01*
%TO.C,Q21*%
X94239419Y-108115028D02*
X94191800Y-108210266D01*
X94191800Y-108210266D02*
X94096561Y-108305504D01*
X94096561Y-108305504D02*
X93953704Y-108448361D01*
X93953704Y-108448361D02*
X93906085Y-108543599D01*
X93906085Y-108543599D02*
X93906085Y-108638837D01*
X94144180Y-108591218D02*
X94096561Y-108686456D01*
X94096561Y-108686456D02*
X94001323Y-108781694D01*
X94001323Y-108781694D02*
X93810847Y-108829313D01*
X93810847Y-108829313D02*
X93477514Y-108829313D01*
X93477514Y-108829313D02*
X93287038Y-108781694D01*
X93287038Y-108781694D02*
X93191800Y-108686456D01*
X93191800Y-108686456D02*
X93144180Y-108591218D01*
X93144180Y-108591218D02*
X93144180Y-108400742D01*
X93144180Y-108400742D02*
X93191800Y-108305504D01*
X93191800Y-108305504D02*
X93287038Y-108210266D01*
X93287038Y-108210266D02*
X93477514Y-108162647D01*
X93477514Y-108162647D02*
X93810847Y-108162647D01*
X93810847Y-108162647D02*
X94001323Y-108210266D01*
X94001323Y-108210266D02*
X94096561Y-108305504D01*
X94096561Y-108305504D02*
X94144180Y-108400742D01*
X94144180Y-108400742D02*
X94144180Y-108591218D01*
X93239419Y-107781694D02*
X93191800Y-107734075D01*
X93191800Y-107734075D02*
X93144180Y-107638837D01*
X93144180Y-107638837D02*
X93144180Y-107400742D01*
X93144180Y-107400742D02*
X93191800Y-107305504D01*
X93191800Y-107305504D02*
X93239419Y-107257885D01*
X93239419Y-107257885D02*
X93334657Y-107210266D01*
X93334657Y-107210266D02*
X93429895Y-107210266D01*
X93429895Y-107210266D02*
X93572752Y-107257885D01*
X93572752Y-107257885D02*
X94144180Y-107829313D01*
X94144180Y-107829313D02*
X94144180Y-107210266D01*
X94144180Y-106257885D02*
X94144180Y-106829313D01*
X94144180Y-106543599D02*
X93144180Y-106543599D01*
X93144180Y-106543599D02*
X93287038Y-106638837D01*
X93287038Y-106638837D02*
X93382276Y-106734075D01*
X93382276Y-106734075D02*
X93429895Y-106829313D01*
%TO.C,R1*%
X109358133Y-85812980D02*
X109024800Y-85336790D01*
X108786705Y-85812980D02*
X108786705Y-84812980D01*
X108786705Y-84812980D02*
X109167657Y-84812980D01*
X109167657Y-84812980D02*
X109262895Y-84860600D01*
X109262895Y-84860600D02*
X109310514Y-84908219D01*
X109310514Y-84908219D02*
X109358133Y-85003457D01*
X109358133Y-85003457D02*
X109358133Y-85146314D01*
X109358133Y-85146314D02*
X109310514Y-85241552D01*
X109310514Y-85241552D02*
X109262895Y-85289171D01*
X109262895Y-85289171D02*
X109167657Y-85336790D01*
X109167657Y-85336790D02*
X108786705Y-85336790D01*
X110310514Y-85812980D02*
X109739086Y-85812980D01*
X110024800Y-85812980D02*
X110024800Y-84812980D01*
X110024800Y-84812980D02*
X109929562Y-84955838D01*
X109929562Y-84955838D02*
X109834324Y-85051076D01*
X109834324Y-85051076D02*
X109739086Y-85098695D01*
%TO.C,R2*%
X174839333Y-86117780D02*
X174506000Y-85641590D01*
X174267905Y-86117780D02*
X174267905Y-85117780D01*
X174267905Y-85117780D02*
X174648857Y-85117780D01*
X174648857Y-85117780D02*
X174744095Y-85165400D01*
X174744095Y-85165400D02*
X174791714Y-85213019D01*
X174791714Y-85213019D02*
X174839333Y-85308257D01*
X174839333Y-85308257D02*
X174839333Y-85451114D01*
X174839333Y-85451114D02*
X174791714Y-85546352D01*
X174791714Y-85546352D02*
X174744095Y-85593971D01*
X174744095Y-85593971D02*
X174648857Y-85641590D01*
X174648857Y-85641590D02*
X174267905Y-85641590D01*
X175220286Y-85213019D02*
X175267905Y-85165400D01*
X175267905Y-85165400D02*
X175363143Y-85117780D01*
X175363143Y-85117780D02*
X175601238Y-85117780D01*
X175601238Y-85117780D02*
X175696476Y-85165400D01*
X175696476Y-85165400D02*
X175744095Y-85213019D01*
X175744095Y-85213019D02*
X175791714Y-85308257D01*
X175791714Y-85308257D02*
X175791714Y-85403495D01*
X175791714Y-85403495D02*
X175744095Y-85546352D01*
X175744095Y-85546352D02*
X175172667Y-86117780D01*
X175172667Y-86117780D02*
X175791714Y-86117780D01*
%TO.C,R3*%
X139482533Y-80428180D02*
X139149200Y-79951990D01*
X138911105Y-80428180D02*
X138911105Y-79428180D01*
X138911105Y-79428180D02*
X139292057Y-79428180D01*
X139292057Y-79428180D02*
X139387295Y-79475800D01*
X139387295Y-79475800D02*
X139434914Y-79523419D01*
X139434914Y-79523419D02*
X139482533Y-79618657D01*
X139482533Y-79618657D02*
X139482533Y-79761514D01*
X139482533Y-79761514D02*
X139434914Y-79856752D01*
X139434914Y-79856752D02*
X139387295Y-79904371D01*
X139387295Y-79904371D02*
X139292057Y-79951990D01*
X139292057Y-79951990D02*
X138911105Y-79951990D01*
X139815867Y-79428180D02*
X140434914Y-79428180D01*
X140434914Y-79428180D02*
X140101581Y-79809133D01*
X140101581Y-79809133D02*
X140244438Y-79809133D01*
X140244438Y-79809133D02*
X140339676Y-79856752D01*
X140339676Y-79856752D02*
X140387295Y-79904371D01*
X140387295Y-79904371D02*
X140434914Y-79999609D01*
X140434914Y-79999609D02*
X140434914Y-80237704D01*
X140434914Y-80237704D02*
X140387295Y-80332942D01*
X140387295Y-80332942D02*
X140339676Y-80380561D01*
X140339676Y-80380561D02*
X140244438Y-80428180D01*
X140244438Y-80428180D02*
X139958724Y-80428180D01*
X139958724Y-80428180D02*
X139863486Y-80380561D01*
X139863486Y-80380561D02*
X139815867Y-80332942D01*
%TO.C,R4*%
X139533333Y-83831780D02*
X139200000Y-83355590D01*
X138961905Y-83831780D02*
X138961905Y-82831780D01*
X138961905Y-82831780D02*
X139342857Y-82831780D01*
X139342857Y-82831780D02*
X139438095Y-82879400D01*
X139438095Y-82879400D02*
X139485714Y-82927019D01*
X139485714Y-82927019D02*
X139533333Y-83022257D01*
X139533333Y-83022257D02*
X139533333Y-83165114D01*
X139533333Y-83165114D02*
X139485714Y-83260352D01*
X139485714Y-83260352D02*
X139438095Y-83307971D01*
X139438095Y-83307971D02*
X139342857Y-83355590D01*
X139342857Y-83355590D02*
X138961905Y-83355590D01*
X140390476Y-83165114D02*
X140390476Y-83831780D01*
X140152381Y-82784161D02*
X139914286Y-83498447D01*
X139914286Y-83498447D02*
X140533333Y-83498447D01*
%TO.C,R5*%
X109408933Y-89419780D02*
X109075600Y-88943590D01*
X108837505Y-89419780D02*
X108837505Y-88419780D01*
X108837505Y-88419780D02*
X109218457Y-88419780D01*
X109218457Y-88419780D02*
X109313695Y-88467400D01*
X109313695Y-88467400D02*
X109361314Y-88515019D01*
X109361314Y-88515019D02*
X109408933Y-88610257D01*
X109408933Y-88610257D02*
X109408933Y-88753114D01*
X109408933Y-88753114D02*
X109361314Y-88848352D01*
X109361314Y-88848352D02*
X109313695Y-88895971D01*
X109313695Y-88895971D02*
X109218457Y-88943590D01*
X109218457Y-88943590D02*
X108837505Y-88943590D01*
X110313695Y-88419780D02*
X109837505Y-88419780D01*
X109837505Y-88419780D02*
X109789886Y-88895971D01*
X109789886Y-88895971D02*
X109837505Y-88848352D01*
X109837505Y-88848352D02*
X109932743Y-88800733D01*
X109932743Y-88800733D02*
X110170838Y-88800733D01*
X110170838Y-88800733D02*
X110266076Y-88848352D01*
X110266076Y-88848352D02*
X110313695Y-88895971D01*
X110313695Y-88895971D02*
X110361314Y-88991209D01*
X110361314Y-88991209D02*
X110361314Y-89229304D01*
X110361314Y-89229304D02*
X110313695Y-89324542D01*
X110313695Y-89324542D02*
X110266076Y-89372161D01*
X110266076Y-89372161D02*
X110170838Y-89419780D01*
X110170838Y-89419780D02*
X109932743Y-89419780D01*
X109932743Y-89419780D02*
X109837505Y-89372161D01*
X109837505Y-89372161D02*
X109789886Y-89324542D01*
%TO.C,R6*%
X109358133Y-82206180D02*
X109024800Y-81729990D01*
X108786705Y-82206180D02*
X108786705Y-81206180D01*
X108786705Y-81206180D02*
X109167657Y-81206180D01*
X109167657Y-81206180D02*
X109262895Y-81253800D01*
X109262895Y-81253800D02*
X109310514Y-81301419D01*
X109310514Y-81301419D02*
X109358133Y-81396657D01*
X109358133Y-81396657D02*
X109358133Y-81539514D01*
X109358133Y-81539514D02*
X109310514Y-81634752D01*
X109310514Y-81634752D02*
X109262895Y-81682371D01*
X109262895Y-81682371D02*
X109167657Y-81729990D01*
X109167657Y-81729990D02*
X108786705Y-81729990D01*
X110215276Y-81206180D02*
X110024800Y-81206180D01*
X110024800Y-81206180D02*
X109929562Y-81253800D01*
X109929562Y-81253800D02*
X109881943Y-81301419D01*
X109881943Y-81301419D02*
X109786705Y-81444276D01*
X109786705Y-81444276D02*
X109739086Y-81634752D01*
X109739086Y-81634752D02*
X109739086Y-82015704D01*
X109739086Y-82015704D02*
X109786705Y-82110942D01*
X109786705Y-82110942D02*
X109834324Y-82158561D01*
X109834324Y-82158561D02*
X109929562Y-82206180D01*
X109929562Y-82206180D02*
X110120038Y-82206180D01*
X110120038Y-82206180D02*
X110215276Y-82158561D01*
X110215276Y-82158561D02*
X110262895Y-82110942D01*
X110262895Y-82110942D02*
X110310514Y-82015704D01*
X110310514Y-82015704D02*
X110310514Y-81777609D01*
X110310514Y-81777609D02*
X110262895Y-81682371D01*
X110262895Y-81682371D02*
X110215276Y-81634752D01*
X110215276Y-81634752D02*
X110120038Y-81587133D01*
X110120038Y-81587133D02*
X109929562Y-81587133D01*
X109929562Y-81587133D02*
X109834324Y-81634752D01*
X109834324Y-81634752D02*
X109786705Y-81682371D01*
X109786705Y-81682371D02*
X109739086Y-81777609D01*
%TO.C,R7*%
X174788533Y-82409380D02*
X174455200Y-81933190D01*
X174217105Y-82409380D02*
X174217105Y-81409380D01*
X174217105Y-81409380D02*
X174598057Y-81409380D01*
X174598057Y-81409380D02*
X174693295Y-81457000D01*
X174693295Y-81457000D02*
X174740914Y-81504619D01*
X174740914Y-81504619D02*
X174788533Y-81599857D01*
X174788533Y-81599857D02*
X174788533Y-81742714D01*
X174788533Y-81742714D02*
X174740914Y-81837952D01*
X174740914Y-81837952D02*
X174693295Y-81885571D01*
X174693295Y-81885571D02*
X174598057Y-81933190D01*
X174598057Y-81933190D02*
X174217105Y-81933190D01*
X175121867Y-81409380D02*
X175788533Y-81409380D01*
X175788533Y-81409380D02*
X175359962Y-82409380D01*
%TO.C,R8*%
X131456133Y-83831780D02*
X131122800Y-83355590D01*
X130884705Y-83831780D02*
X130884705Y-82831780D01*
X130884705Y-82831780D02*
X131265657Y-82831780D01*
X131265657Y-82831780D02*
X131360895Y-82879400D01*
X131360895Y-82879400D02*
X131408514Y-82927019D01*
X131408514Y-82927019D02*
X131456133Y-83022257D01*
X131456133Y-83022257D02*
X131456133Y-83165114D01*
X131456133Y-83165114D02*
X131408514Y-83260352D01*
X131408514Y-83260352D02*
X131360895Y-83307971D01*
X131360895Y-83307971D02*
X131265657Y-83355590D01*
X131265657Y-83355590D02*
X130884705Y-83355590D01*
X132027562Y-83260352D02*
X131932324Y-83212733D01*
X131932324Y-83212733D02*
X131884705Y-83165114D01*
X131884705Y-83165114D02*
X131837086Y-83069876D01*
X131837086Y-83069876D02*
X131837086Y-83022257D01*
X131837086Y-83022257D02*
X131884705Y-82927019D01*
X131884705Y-82927019D02*
X131932324Y-82879400D01*
X131932324Y-82879400D02*
X132027562Y-82831780D01*
X132027562Y-82831780D02*
X132218038Y-82831780D01*
X132218038Y-82831780D02*
X132313276Y-82879400D01*
X132313276Y-82879400D02*
X132360895Y-82927019D01*
X132360895Y-82927019D02*
X132408514Y-83022257D01*
X132408514Y-83022257D02*
X132408514Y-83069876D01*
X132408514Y-83069876D02*
X132360895Y-83165114D01*
X132360895Y-83165114D02*
X132313276Y-83212733D01*
X132313276Y-83212733D02*
X132218038Y-83260352D01*
X132218038Y-83260352D02*
X132027562Y-83260352D01*
X132027562Y-83260352D02*
X131932324Y-83307971D01*
X131932324Y-83307971D02*
X131884705Y-83355590D01*
X131884705Y-83355590D02*
X131837086Y-83450828D01*
X131837086Y-83450828D02*
X131837086Y-83641304D01*
X131837086Y-83641304D02*
X131884705Y-83736542D01*
X131884705Y-83736542D02*
X131932324Y-83784161D01*
X131932324Y-83784161D02*
X132027562Y-83831780D01*
X132027562Y-83831780D02*
X132218038Y-83831780D01*
X132218038Y-83831780D02*
X132313276Y-83784161D01*
X132313276Y-83784161D02*
X132360895Y-83736542D01*
X132360895Y-83736542D02*
X132408514Y-83641304D01*
X132408514Y-83641304D02*
X132408514Y-83450828D01*
X132408514Y-83450828D02*
X132360895Y-83355590D01*
X132360895Y-83355590D02*
X132313276Y-83307971D01*
X132313276Y-83307971D02*
X132218038Y-83260352D01*
%TO.C,R9*%
X109358133Y-78650180D02*
X109024800Y-78173990D01*
X108786705Y-78650180D02*
X108786705Y-77650180D01*
X108786705Y-77650180D02*
X109167657Y-77650180D01*
X109167657Y-77650180D02*
X109262895Y-77697800D01*
X109262895Y-77697800D02*
X109310514Y-77745419D01*
X109310514Y-77745419D02*
X109358133Y-77840657D01*
X109358133Y-77840657D02*
X109358133Y-77983514D01*
X109358133Y-77983514D02*
X109310514Y-78078752D01*
X109310514Y-78078752D02*
X109262895Y-78126371D01*
X109262895Y-78126371D02*
X109167657Y-78173990D01*
X109167657Y-78173990D02*
X108786705Y-78173990D01*
X109834324Y-78650180D02*
X110024800Y-78650180D01*
X110024800Y-78650180D02*
X110120038Y-78602561D01*
X110120038Y-78602561D02*
X110167657Y-78554942D01*
X110167657Y-78554942D02*
X110262895Y-78412085D01*
X110262895Y-78412085D02*
X110310514Y-78221609D01*
X110310514Y-78221609D02*
X110310514Y-77840657D01*
X110310514Y-77840657D02*
X110262895Y-77745419D01*
X110262895Y-77745419D02*
X110215276Y-77697800D01*
X110215276Y-77697800D02*
X110120038Y-77650180D01*
X110120038Y-77650180D02*
X109929562Y-77650180D01*
X109929562Y-77650180D02*
X109834324Y-77697800D01*
X109834324Y-77697800D02*
X109786705Y-77745419D01*
X109786705Y-77745419D02*
X109739086Y-77840657D01*
X109739086Y-77840657D02*
X109739086Y-78078752D01*
X109739086Y-78078752D02*
X109786705Y-78173990D01*
X109786705Y-78173990D02*
X109834324Y-78221609D01*
X109834324Y-78221609D02*
X109929562Y-78269228D01*
X109929562Y-78269228D02*
X110120038Y-78269228D01*
X110120038Y-78269228D02*
X110215276Y-78221609D01*
X110215276Y-78221609D02*
X110262895Y-78173990D01*
X110262895Y-78173990D02*
X110310514Y-78078752D01*
%TO.C,R10*%
X188841142Y-87235380D02*
X188507809Y-86759190D01*
X188269714Y-87235380D02*
X188269714Y-86235380D01*
X188269714Y-86235380D02*
X188650666Y-86235380D01*
X188650666Y-86235380D02*
X188745904Y-86283000D01*
X188745904Y-86283000D02*
X188793523Y-86330619D01*
X188793523Y-86330619D02*
X188841142Y-86425857D01*
X188841142Y-86425857D02*
X188841142Y-86568714D01*
X188841142Y-86568714D02*
X188793523Y-86663952D01*
X188793523Y-86663952D02*
X188745904Y-86711571D01*
X188745904Y-86711571D02*
X188650666Y-86759190D01*
X188650666Y-86759190D02*
X188269714Y-86759190D01*
X189793523Y-87235380D02*
X189222095Y-87235380D01*
X189507809Y-87235380D02*
X189507809Y-86235380D01*
X189507809Y-86235380D02*
X189412571Y-86378238D01*
X189412571Y-86378238D02*
X189317333Y-86473476D01*
X189317333Y-86473476D02*
X189222095Y-86521095D01*
X190412571Y-86235380D02*
X190507809Y-86235380D01*
X190507809Y-86235380D02*
X190603047Y-86283000D01*
X190603047Y-86283000D02*
X190650666Y-86330619D01*
X190650666Y-86330619D02*
X190698285Y-86425857D01*
X190698285Y-86425857D02*
X190745904Y-86616333D01*
X190745904Y-86616333D02*
X190745904Y-86854428D01*
X190745904Y-86854428D02*
X190698285Y-87044904D01*
X190698285Y-87044904D02*
X190650666Y-87140142D01*
X190650666Y-87140142D02*
X190603047Y-87187761D01*
X190603047Y-87187761D02*
X190507809Y-87235380D01*
X190507809Y-87235380D02*
X190412571Y-87235380D01*
X190412571Y-87235380D02*
X190317333Y-87187761D01*
X190317333Y-87187761D02*
X190269714Y-87140142D01*
X190269714Y-87140142D02*
X190222095Y-87044904D01*
X190222095Y-87044904D02*
X190174476Y-86854428D01*
X190174476Y-86854428D02*
X190174476Y-86616333D01*
X190174476Y-86616333D02*
X190222095Y-86425857D01*
X190222095Y-86425857D02*
X190269714Y-86330619D01*
X190269714Y-86330619D02*
X190317333Y-86283000D01*
X190317333Y-86283000D02*
X190412571Y-86235380D01*
%TO.C,R11*%
X130979942Y-80326580D02*
X130646609Y-79850390D01*
X130408514Y-80326580D02*
X130408514Y-79326580D01*
X130408514Y-79326580D02*
X130789466Y-79326580D01*
X130789466Y-79326580D02*
X130884704Y-79374200D01*
X130884704Y-79374200D02*
X130932323Y-79421819D01*
X130932323Y-79421819D02*
X130979942Y-79517057D01*
X130979942Y-79517057D02*
X130979942Y-79659914D01*
X130979942Y-79659914D02*
X130932323Y-79755152D01*
X130932323Y-79755152D02*
X130884704Y-79802771D01*
X130884704Y-79802771D02*
X130789466Y-79850390D01*
X130789466Y-79850390D02*
X130408514Y-79850390D01*
X131932323Y-80326580D02*
X131360895Y-80326580D01*
X131646609Y-80326580D02*
X131646609Y-79326580D01*
X131646609Y-79326580D02*
X131551371Y-79469438D01*
X131551371Y-79469438D02*
X131456133Y-79564676D01*
X131456133Y-79564676D02*
X131360895Y-79612295D01*
X132884704Y-80326580D02*
X132313276Y-80326580D01*
X132598990Y-80326580D02*
X132598990Y-79326580D01*
X132598990Y-79326580D02*
X132503752Y-79469438D01*
X132503752Y-79469438D02*
X132408514Y-79564676D01*
X132408514Y-79564676D02*
X132313276Y-79612295D01*
%TO.C,R13*%
X189999454Y-73417780D02*
X189666121Y-72941590D01*
X189428026Y-73417780D02*
X189428026Y-72417780D01*
X189428026Y-72417780D02*
X189808978Y-72417780D01*
X189808978Y-72417780D02*
X189904216Y-72465400D01*
X189904216Y-72465400D02*
X189951835Y-72513019D01*
X189951835Y-72513019D02*
X189999454Y-72608257D01*
X189999454Y-72608257D02*
X189999454Y-72751114D01*
X189999454Y-72751114D02*
X189951835Y-72846352D01*
X189951835Y-72846352D02*
X189904216Y-72893971D01*
X189904216Y-72893971D02*
X189808978Y-72941590D01*
X189808978Y-72941590D02*
X189428026Y-72941590D01*
X190951835Y-73417780D02*
X190380407Y-73417780D01*
X190666121Y-73417780D02*
X190666121Y-72417780D01*
X190666121Y-72417780D02*
X190570883Y-72560638D01*
X190570883Y-72560638D02*
X190475645Y-72655876D01*
X190475645Y-72655876D02*
X190380407Y-72703495D01*
X191285169Y-72417780D02*
X191904216Y-72417780D01*
X191904216Y-72417780D02*
X191570883Y-72798733D01*
X191570883Y-72798733D02*
X191713740Y-72798733D01*
X191713740Y-72798733D02*
X191808978Y-72846352D01*
X191808978Y-72846352D02*
X191856597Y-72893971D01*
X191856597Y-72893971D02*
X191904216Y-72989209D01*
X191904216Y-72989209D02*
X191904216Y-73227304D01*
X191904216Y-73227304D02*
X191856597Y-73322542D01*
X191856597Y-73322542D02*
X191808978Y-73370161D01*
X191808978Y-73370161D02*
X191713740Y-73417780D01*
X191713740Y-73417780D02*
X191428026Y-73417780D01*
X191428026Y-73417780D02*
X191332788Y-73370161D01*
X191332788Y-73370161D02*
X191285169Y-73322542D01*
%TO.C,R14*%
X137007142Y-100267380D02*
X136673809Y-99791190D01*
X136435714Y-100267380D02*
X136435714Y-99267380D01*
X136435714Y-99267380D02*
X136816666Y-99267380D01*
X136816666Y-99267380D02*
X136911904Y-99315000D01*
X136911904Y-99315000D02*
X136959523Y-99362619D01*
X136959523Y-99362619D02*
X137007142Y-99457857D01*
X137007142Y-99457857D02*
X137007142Y-99600714D01*
X137007142Y-99600714D02*
X136959523Y-99695952D01*
X136959523Y-99695952D02*
X136911904Y-99743571D01*
X136911904Y-99743571D02*
X136816666Y-99791190D01*
X136816666Y-99791190D02*
X136435714Y-99791190D01*
X137959523Y-100267380D02*
X137388095Y-100267380D01*
X137673809Y-100267380D02*
X137673809Y-99267380D01*
X137673809Y-99267380D02*
X137578571Y-99410238D01*
X137578571Y-99410238D02*
X137483333Y-99505476D01*
X137483333Y-99505476D02*
X137388095Y-99553095D01*
X138816666Y-99600714D02*
X138816666Y-100267380D01*
X138578571Y-99219761D02*
X138340476Y-99934047D01*
X138340476Y-99934047D02*
X138959523Y-99934047D01*
%TO.C,R15*%
X191533542Y-100267380D02*
X191200209Y-99791190D01*
X190962114Y-100267380D02*
X190962114Y-99267380D01*
X190962114Y-99267380D02*
X191343066Y-99267380D01*
X191343066Y-99267380D02*
X191438304Y-99315000D01*
X191438304Y-99315000D02*
X191485923Y-99362619D01*
X191485923Y-99362619D02*
X191533542Y-99457857D01*
X191533542Y-99457857D02*
X191533542Y-99600714D01*
X191533542Y-99600714D02*
X191485923Y-99695952D01*
X191485923Y-99695952D02*
X191438304Y-99743571D01*
X191438304Y-99743571D02*
X191343066Y-99791190D01*
X191343066Y-99791190D02*
X190962114Y-99791190D01*
X192485923Y-100267380D02*
X191914495Y-100267380D01*
X192200209Y-100267380D02*
X192200209Y-99267380D01*
X192200209Y-99267380D02*
X192104971Y-99410238D01*
X192104971Y-99410238D02*
X192009733Y-99505476D01*
X192009733Y-99505476D02*
X191914495Y-99553095D01*
X193390685Y-99267380D02*
X192914495Y-99267380D01*
X192914495Y-99267380D02*
X192866876Y-99743571D01*
X192866876Y-99743571D02*
X192914495Y-99695952D01*
X192914495Y-99695952D02*
X193009733Y-99648333D01*
X193009733Y-99648333D02*
X193247828Y-99648333D01*
X193247828Y-99648333D02*
X193343066Y-99695952D01*
X193343066Y-99695952D02*
X193390685Y-99743571D01*
X193390685Y-99743571D02*
X193438304Y-99838809D01*
X193438304Y-99838809D02*
X193438304Y-100076904D01*
X193438304Y-100076904D02*
X193390685Y-100172142D01*
X193390685Y-100172142D02*
X193343066Y-100219761D01*
X193343066Y-100219761D02*
X193247828Y-100267380D01*
X193247828Y-100267380D02*
X193009733Y-100267380D01*
X193009733Y-100267380D02*
X192914495Y-100219761D01*
X192914495Y-100219761D02*
X192866876Y-100172142D01*
%TO.C,R16*%
X109007142Y-100267380D02*
X108673809Y-99791190D01*
X108435714Y-100267380D02*
X108435714Y-99267380D01*
X108435714Y-99267380D02*
X108816666Y-99267380D01*
X108816666Y-99267380D02*
X108911904Y-99315000D01*
X108911904Y-99315000D02*
X108959523Y-99362619D01*
X108959523Y-99362619D02*
X109007142Y-99457857D01*
X109007142Y-99457857D02*
X109007142Y-99600714D01*
X109007142Y-99600714D02*
X108959523Y-99695952D01*
X108959523Y-99695952D02*
X108911904Y-99743571D01*
X108911904Y-99743571D02*
X108816666Y-99791190D01*
X108816666Y-99791190D02*
X108435714Y-99791190D01*
X109959523Y-100267380D02*
X109388095Y-100267380D01*
X109673809Y-100267380D02*
X109673809Y-99267380D01*
X109673809Y-99267380D02*
X109578571Y-99410238D01*
X109578571Y-99410238D02*
X109483333Y-99505476D01*
X109483333Y-99505476D02*
X109388095Y-99553095D01*
X110816666Y-99267380D02*
X110626190Y-99267380D01*
X110626190Y-99267380D02*
X110530952Y-99315000D01*
X110530952Y-99315000D02*
X110483333Y-99362619D01*
X110483333Y-99362619D02*
X110388095Y-99505476D01*
X110388095Y-99505476D02*
X110340476Y-99695952D01*
X110340476Y-99695952D02*
X110340476Y-100076904D01*
X110340476Y-100076904D02*
X110388095Y-100172142D01*
X110388095Y-100172142D02*
X110435714Y-100219761D01*
X110435714Y-100219761D02*
X110530952Y-100267380D01*
X110530952Y-100267380D02*
X110721428Y-100267380D01*
X110721428Y-100267380D02*
X110816666Y-100219761D01*
X110816666Y-100219761D02*
X110864285Y-100172142D01*
X110864285Y-100172142D02*
X110911904Y-100076904D01*
X110911904Y-100076904D02*
X110911904Y-99838809D01*
X110911904Y-99838809D02*
X110864285Y-99743571D01*
X110864285Y-99743571D02*
X110816666Y-99695952D01*
X110816666Y-99695952D02*
X110721428Y-99648333D01*
X110721428Y-99648333D02*
X110530952Y-99648333D01*
X110530952Y-99648333D02*
X110435714Y-99695952D01*
X110435714Y-99695952D02*
X110388095Y-99743571D01*
X110388095Y-99743571D02*
X110340476Y-99838809D01*
%TO.C,R17*%
X163593542Y-100267380D02*
X163260209Y-99791190D01*
X163022114Y-100267380D02*
X163022114Y-99267380D01*
X163022114Y-99267380D02*
X163403066Y-99267380D01*
X163403066Y-99267380D02*
X163498304Y-99315000D01*
X163498304Y-99315000D02*
X163545923Y-99362619D01*
X163545923Y-99362619D02*
X163593542Y-99457857D01*
X163593542Y-99457857D02*
X163593542Y-99600714D01*
X163593542Y-99600714D02*
X163545923Y-99695952D01*
X163545923Y-99695952D02*
X163498304Y-99743571D01*
X163498304Y-99743571D02*
X163403066Y-99791190D01*
X163403066Y-99791190D02*
X163022114Y-99791190D01*
X164545923Y-100267380D02*
X163974495Y-100267380D01*
X164260209Y-100267380D02*
X164260209Y-99267380D01*
X164260209Y-99267380D02*
X164164971Y-99410238D01*
X164164971Y-99410238D02*
X164069733Y-99505476D01*
X164069733Y-99505476D02*
X163974495Y-99553095D01*
X164879257Y-99267380D02*
X165545923Y-99267380D01*
X165545923Y-99267380D02*
X165117352Y-100267380D01*
%TO.C,U1*%
X162550095Y-71440180D02*
X162550095Y-72249704D01*
X162550095Y-72249704D02*
X162597714Y-72344942D01*
X162597714Y-72344942D02*
X162645333Y-72392561D01*
X162645333Y-72392561D02*
X162740571Y-72440180D01*
X162740571Y-72440180D02*
X162931047Y-72440180D01*
X162931047Y-72440180D02*
X163026285Y-72392561D01*
X163026285Y-72392561D02*
X163073904Y-72344942D01*
X163073904Y-72344942D02*
X163121523Y-72249704D01*
X163121523Y-72249704D02*
X163121523Y-71440180D01*
X164121523Y-72440180D02*
X163550095Y-72440180D01*
X163835809Y-72440180D02*
X163835809Y-71440180D01*
X163835809Y-71440180D02*
X163740571Y-71583038D01*
X163740571Y-71583038D02*
X163645333Y-71678276D01*
X163645333Y-71678276D02*
X163550095Y-71725895D01*
%TO.C,U2*%
X162800980Y-84673504D02*
X163610504Y-84673504D01*
X163610504Y-84673504D02*
X163705742Y-84625885D01*
X163705742Y-84625885D02*
X163753361Y-84578266D01*
X163753361Y-84578266D02*
X163800980Y-84483028D01*
X163800980Y-84483028D02*
X163800980Y-84292552D01*
X163800980Y-84292552D02*
X163753361Y-84197314D01*
X163753361Y-84197314D02*
X163705742Y-84149695D01*
X163705742Y-84149695D02*
X163610504Y-84102076D01*
X163610504Y-84102076D02*
X162800980Y-84102076D01*
X162896219Y-83673504D02*
X162848600Y-83625885D01*
X162848600Y-83625885D02*
X162800980Y-83530647D01*
X162800980Y-83530647D02*
X162800980Y-83292552D01*
X162800980Y-83292552D02*
X162848600Y-83197314D01*
X162848600Y-83197314D02*
X162896219Y-83149695D01*
X162896219Y-83149695D02*
X162991457Y-83102076D01*
X162991457Y-83102076D02*
X163086695Y-83102076D01*
X163086695Y-83102076D02*
X163229552Y-83149695D01*
X163229552Y-83149695D02*
X163800980Y-83721123D01*
X163800980Y-83721123D02*
X163800980Y-83102076D01*
%TO.C,U3*%
X119972580Y-84267104D02*
X120782104Y-84267104D01*
X120782104Y-84267104D02*
X120877342Y-84219485D01*
X120877342Y-84219485D02*
X120924961Y-84171866D01*
X120924961Y-84171866D02*
X120972580Y-84076628D01*
X120972580Y-84076628D02*
X120972580Y-83886152D01*
X120972580Y-83886152D02*
X120924961Y-83790914D01*
X120924961Y-83790914D02*
X120877342Y-83743295D01*
X120877342Y-83743295D02*
X120782104Y-83695676D01*
X120782104Y-83695676D02*
X119972580Y-83695676D01*
X119972580Y-83314723D02*
X119972580Y-82695676D01*
X119972580Y-82695676D02*
X120353533Y-83029009D01*
X120353533Y-83029009D02*
X120353533Y-82886152D01*
X120353533Y-82886152D02*
X120401152Y-82790914D01*
X120401152Y-82790914D02*
X120448771Y-82743295D01*
X120448771Y-82743295D02*
X120544009Y-82695676D01*
X120544009Y-82695676D02*
X120782104Y-82695676D01*
X120782104Y-82695676D02*
X120877342Y-82743295D01*
X120877342Y-82743295D02*
X120924961Y-82790914D01*
X120924961Y-82790914D02*
X120972580Y-82886152D01*
X120972580Y-82886152D02*
X120972580Y-83171866D01*
X120972580Y-83171866D02*
X120924961Y-83267104D01*
X120924961Y-83267104D02*
X120877342Y-83314723D01*
%TO.C,U4*%
X130123895Y-73865180D02*
X130123895Y-74674704D01*
X130123895Y-74674704D02*
X130171514Y-74769942D01*
X130171514Y-74769942D02*
X130219133Y-74817561D01*
X130219133Y-74817561D02*
X130314371Y-74865180D01*
X130314371Y-74865180D02*
X130504847Y-74865180D01*
X130504847Y-74865180D02*
X130600085Y-74817561D01*
X130600085Y-74817561D02*
X130647704Y-74769942D01*
X130647704Y-74769942D02*
X130695323Y-74674704D01*
X130695323Y-74674704D02*
X130695323Y-73865180D01*
X131600085Y-74198514D02*
X131600085Y-74865180D01*
X131361990Y-73817561D02*
X131123895Y-74531847D01*
X131123895Y-74531847D02*
X131742942Y-74531847D01*
%TO.C,U5*%
X100902380Y-118001904D02*
X101711904Y-118001904D01*
X101711904Y-118001904D02*
X101807142Y-117954285D01*
X101807142Y-117954285D02*
X101854761Y-117906666D01*
X101854761Y-117906666D02*
X101902380Y-117811428D01*
X101902380Y-117811428D02*
X101902380Y-117620952D01*
X101902380Y-117620952D02*
X101854761Y-117525714D01*
X101854761Y-117525714D02*
X101807142Y-117478095D01*
X101807142Y-117478095D02*
X101711904Y-117430476D01*
X101711904Y-117430476D02*
X100902380Y-117430476D01*
X100902380Y-116478095D02*
X100902380Y-116954285D01*
X100902380Y-116954285D02*
X101378571Y-117001904D01*
X101378571Y-117001904D02*
X101330952Y-116954285D01*
X101330952Y-116954285D02*
X101283333Y-116859047D01*
X101283333Y-116859047D02*
X101283333Y-116620952D01*
X101283333Y-116620952D02*
X101330952Y-116525714D01*
X101330952Y-116525714D02*
X101378571Y-116478095D01*
X101378571Y-116478095D02*
X101473809Y-116430476D01*
X101473809Y-116430476D02*
X101711904Y-116430476D01*
X101711904Y-116430476D02*
X101807142Y-116478095D01*
X101807142Y-116478095D02*
X101854761Y-116525714D01*
X101854761Y-116525714D02*
X101902380Y-116620952D01*
X101902380Y-116620952D02*
X101902380Y-116859047D01*
X101902380Y-116859047D02*
X101854761Y-116954285D01*
X101854761Y-116954285D02*
X101807142Y-117001904D01*
%TO.C,U6*%
X165813980Y-117991904D02*
X166623504Y-117991904D01*
X166623504Y-117991904D02*
X166718742Y-117944285D01*
X166718742Y-117944285D02*
X166766361Y-117896666D01*
X166766361Y-117896666D02*
X166813980Y-117801428D01*
X166813980Y-117801428D02*
X166813980Y-117610952D01*
X166813980Y-117610952D02*
X166766361Y-117515714D01*
X166766361Y-117515714D02*
X166718742Y-117468095D01*
X166718742Y-117468095D02*
X166623504Y-117420476D01*
X166623504Y-117420476D02*
X165813980Y-117420476D01*
X165813980Y-116515714D02*
X165813980Y-116706190D01*
X165813980Y-116706190D02*
X165861600Y-116801428D01*
X165861600Y-116801428D02*
X165909219Y-116849047D01*
X165909219Y-116849047D02*
X166052076Y-116944285D01*
X166052076Y-116944285D02*
X166242552Y-116991904D01*
X166242552Y-116991904D02*
X166623504Y-116991904D01*
X166623504Y-116991904D02*
X166718742Y-116944285D01*
X166718742Y-116944285D02*
X166766361Y-116896666D01*
X166766361Y-116896666D02*
X166813980Y-116801428D01*
X166813980Y-116801428D02*
X166813980Y-116610952D01*
X166813980Y-116610952D02*
X166766361Y-116515714D01*
X166766361Y-116515714D02*
X166718742Y-116468095D01*
X166718742Y-116468095D02*
X166623504Y-116420476D01*
X166623504Y-116420476D02*
X166385409Y-116420476D01*
X166385409Y-116420476D02*
X166290171Y-116468095D01*
X166290171Y-116468095D02*
X166242552Y-116515714D01*
X166242552Y-116515714D02*
X166194933Y-116610952D01*
X166194933Y-116610952D02*
X166194933Y-116801428D01*
X166194933Y-116801428D02*
X166242552Y-116896666D01*
X166242552Y-116896666D02*
X166290171Y-116944285D01*
X166290171Y-116944285D02*
X166385409Y-116991904D01*
%TO.C,U7*%
X81661095Y-85973380D02*
X81661095Y-86782904D01*
X81661095Y-86782904D02*
X81708714Y-86878142D01*
X81708714Y-86878142D02*
X81756333Y-86925761D01*
X81756333Y-86925761D02*
X81851571Y-86973380D01*
X81851571Y-86973380D02*
X82042047Y-86973380D01*
X82042047Y-86973380D02*
X82137285Y-86925761D01*
X82137285Y-86925761D02*
X82184904Y-86878142D01*
X82184904Y-86878142D02*
X82232523Y-86782904D01*
X82232523Y-86782904D02*
X82232523Y-85973380D01*
X82613476Y-85973380D02*
X83280142Y-85973380D01*
X83280142Y-85973380D02*
X82851571Y-86973380D01*
%TO.C,Q2*%
X101352361Y-84633819D02*
X101257123Y-84586200D01*
X101257123Y-84586200D02*
X101161885Y-84490961D01*
X101161885Y-84490961D02*
X101019028Y-84348104D01*
X101019028Y-84348104D02*
X100923790Y-84300485D01*
X100923790Y-84300485D02*
X100828552Y-84300485D01*
X100876171Y-84538580D02*
X100780933Y-84490961D01*
X100780933Y-84490961D02*
X100685695Y-84395723D01*
X100685695Y-84395723D02*
X100638076Y-84205247D01*
X100638076Y-84205247D02*
X100638076Y-83871914D01*
X100638076Y-83871914D02*
X100685695Y-83681438D01*
X100685695Y-83681438D02*
X100780933Y-83586200D01*
X100780933Y-83586200D02*
X100876171Y-83538580D01*
X100876171Y-83538580D02*
X101066647Y-83538580D01*
X101066647Y-83538580D02*
X101161885Y-83586200D01*
X101161885Y-83586200D02*
X101257123Y-83681438D01*
X101257123Y-83681438D02*
X101304742Y-83871914D01*
X101304742Y-83871914D02*
X101304742Y-84205247D01*
X101304742Y-84205247D02*
X101257123Y-84395723D01*
X101257123Y-84395723D02*
X101161885Y-84490961D01*
X101161885Y-84490961D02*
X101066647Y-84538580D01*
X101066647Y-84538580D02*
X100876171Y-84538580D01*
X101685695Y-83633819D02*
X101733314Y-83586200D01*
X101733314Y-83586200D02*
X101828552Y-83538580D01*
X101828552Y-83538580D02*
X102066647Y-83538580D01*
X102066647Y-83538580D02*
X102161885Y-83586200D01*
X102161885Y-83586200D02*
X102209504Y-83633819D01*
X102209504Y-83633819D02*
X102257123Y-83729057D01*
X102257123Y-83729057D02*
X102257123Y-83824295D01*
X102257123Y-83824295D02*
X102209504Y-83967152D01*
X102209504Y-83967152D02*
X101638076Y-84538580D01*
X101638076Y-84538580D02*
X102257123Y-84538580D01*
%TO.C,C3*%
X219542082Y-86052942D02*
X219494463Y-86100561D01*
X219494463Y-86100561D02*
X219351606Y-86148180D01*
X219351606Y-86148180D02*
X219256368Y-86148180D01*
X219256368Y-86148180D02*
X219113511Y-86100561D01*
X219113511Y-86100561D02*
X219018273Y-86005323D01*
X219018273Y-86005323D02*
X218970654Y-85910085D01*
X218970654Y-85910085D02*
X218923035Y-85719609D01*
X218923035Y-85719609D02*
X218923035Y-85576752D01*
X218923035Y-85576752D02*
X218970654Y-85386276D01*
X218970654Y-85386276D02*
X219018273Y-85291038D01*
X219018273Y-85291038D02*
X219113511Y-85195800D01*
X219113511Y-85195800D02*
X219256368Y-85148180D01*
X219256368Y-85148180D02*
X219351606Y-85148180D01*
X219351606Y-85148180D02*
X219494463Y-85195800D01*
X219494463Y-85195800D02*
X219542082Y-85243419D01*
X219875416Y-85148180D02*
X220494463Y-85148180D01*
X220494463Y-85148180D02*
X220161130Y-85529133D01*
X220161130Y-85529133D02*
X220303987Y-85529133D01*
X220303987Y-85529133D02*
X220399225Y-85576752D01*
X220399225Y-85576752D02*
X220446844Y-85624371D01*
X220446844Y-85624371D02*
X220494463Y-85719609D01*
X220494463Y-85719609D02*
X220494463Y-85957704D01*
X220494463Y-85957704D02*
X220446844Y-86052942D01*
X220446844Y-86052942D02*
X220399225Y-86100561D01*
X220399225Y-86100561D02*
X220303987Y-86148180D01*
X220303987Y-86148180D02*
X220018273Y-86148180D01*
X220018273Y-86148180D02*
X219923035Y-86100561D01*
X219923035Y-86100561D02*
X219875416Y-86052942D01*
%TO.C,J9*%
X178066666Y-96067380D02*
X178066666Y-96781666D01*
X178066666Y-96781666D02*
X178019047Y-96924523D01*
X178019047Y-96924523D02*
X177923809Y-97019761D01*
X177923809Y-97019761D02*
X177780952Y-97067380D01*
X177780952Y-97067380D02*
X177685714Y-97067380D01*
X178590476Y-97067380D02*
X178780952Y-97067380D01*
X178780952Y-97067380D02*
X178876190Y-97019761D01*
X178876190Y-97019761D02*
X178923809Y-96972142D01*
X178923809Y-96972142D02*
X179019047Y-96829285D01*
X179019047Y-96829285D02*
X179066666Y-96638809D01*
X179066666Y-96638809D02*
X179066666Y-96257857D01*
X179066666Y-96257857D02*
X179019047Y-96162619D01*
X179019047Y-96162619D02*
X178971428Y-96115000D01*
X178971428Y-96115000D02*
X178876190Y-96067380D01*
X178876190Y-96067380D02*
X178685714Y-96067380D01*
X178685714Y-96067380D02*
X178590476Y-96115000D01*
X178590476Y-96115000D02*
X178542857Y-96162619D01*
X178542857Y-96162619D02*
X178495238Y-96257857D01*
X178495238Y-96257857D02*
X178495238Y-96495952D01*
X178495238Y-96495952D02*
X178542857Y-96591190D01*
X178542857Y-96591190D02*
X178590476Y-96638809D01*
X178590476Y-96638809D02*
X178685714Y-96686428D01*
X178685714Y-96686428D02*
X178876190Y-96686428D01*
X178876190Y-96686428D02*
X178971428Y-96638809D01*
X178971428Y-96638809D02*
X179019047Y-96591190D01*
X179019047Y-96591190D02*
X179066666Y-96495952D01*
%TO.C,R19*%
X194733942Y-94855380D02*
X194400609Y-94379190D01*
X194162514Y-94855380D02*
X194162514Y-93855380D01*
X194162514Y-93855380D02*
X194543466Y-93855380D01*
X194543466Y-93855380D02*
X194638704Y-93903000D01*
X194638704Y-93903000D02*
X194686323Y-93950619D01*
X194686323Y-93950619D02*
X194733942Y-94045857D01*
X194733942Y-94045857D02*
X194733942Y-94188714D01*
X194733942Y-94188714D02*
X194686323Y-94283952D01*
X194686323Y-94283952D02*
X194638704Y-94331571D01*
X194638704Y-94331571D02*
X194543466Y-94379190D01*
X194543466Y-94379190D02*
X194162514Y-94379190D01*
X195686323Y-94855380D02*
X195114895Y-94855380D01*
X195400609Y-94855380D02*
X195400609Y-93855380D01*
X195400609Y-93855380D02*
X195305371Y-93998238D01*
X195305371Y-93998238D02*
X195210133Y-94093476D01*
X195210133Y-94093476D02*
X195114895Y-94141095D01*
X196162514Y-94855380D02*
X196352990Y-94855380D01*
X196352990Y-94855380D02*
X196448228Y-94807761D01*
X196448228Y-94807761D02*
X196495847Y-94760142D01*
X196495847Y-94760142D02*
X196591085Y-94617285D01*
X196591085Y-94617285D02*
X196638704Y-94426809D01*
X196638704Y-94426809D02*
X196638704Y-94045857D01*
X196638704Y-94045857D02*
X196591085Y-93950619D01*
X196591085Y-93950619D02*
X196543466Y-93903000D01*
X196543466Y-93903000D02*
X196448228Y-93855380D01*
X196448228Y-93855380D02*
X196257752Y-93855380D01*
X196257752Y-93855380D02*
X196162514Y-93903000D01*
X196162514Y-93903000D02*
X196114895Y-93950619D01*
X196114895Y-93950619D02*
X196067276Y-94045857D01*
X196067276Y-94045857D02*
X196067276Y-94283952D01*
X196067276Y-94283952D02*
X196114895Y-94379190D01*
X196114895Y-94379190D02*
X196162514Y-94426809D01*
X196162514Y-94426809D02*
X196257752Y-94474428D01*
X196257752Y-94474428D02*
X196448228Y-94474428D01*
X196448228Y-94474428D02*
X196543466Y-94426809D01*
X196543466Y-94426809D02*
X196591085Y-94379190D01*
X196591085Y-94379190D02*
X196638704Y-94283952D01*
%TO.C,C2*%
X185999333Y-76278142D02*
X185951714Y-76325761D01*
X185951714Y-76325761D02*
X185808857Y-76373380D01*
X185808857Y-76373380D02*
X185713619Y-76373380D01*
X185713619Y-76373380D02*
X185570762Y-76325761D01*
X185570762Y-76325761D02*
X185475524Y-76230523D01*
X185475524Y-76230523D02*
X185427905Y-76135285D01*
X185427905Y-76135285D02*
X185380286Y-75944809D01*
X185380286Y-75944809D02*
X185380286Y-75801952D01*
X185380286Y-75801952D02*
X185427905Y-75611476D01*
X185427905Y-75611476D02*
X185475524Y-75516238D01*
X185475524Y-75516238D02*
X185570762Y-75421000D01*
X185570762Y-75421000D02*
X185713619Y-75373380D01*
X185713619Y-75373380D02*
X185808857Y-75373380D01*
X185808857Y-75373380D02*
X185951714Y-75421000D01*
X185951714Y-75421000D02*
X185999333Y-75468619D01*
X186380286Y-75468619D02*
X186427905Y-75421000D01*
X186427905Y-75421000D02*
X186523143Y-75373380D01*
X186523143Y-75373380D02*
X186761238Y-75373380D01*
X186761238Y-75373380D02*
X186856476Y-75421000D01*
X186856476Y-75421000D02*
X186904095Y-75468619D01*
X186904095Y-75468619D02*
X186951714Y-75563857D01*
X186951714Y-75563857D02*
X186951714Y-75659095D01*
X186951714Y-75659095D02*
X186904095Y-75801952D01*
X186904095Y-75801952D02*
X186332667Y-76373380D01*
X186332667Y-76373380D02*
X186951714Y-76373380D01*
%TO.C,R21*%
X167047942Y-94855380D02*
X166714609Y-94379190D01*
X166476514Y-94855380D02*
X166476514Y-93855380D01*
X166476514Y-93855380D02*
X166857466Y-93855380D01*
X166857466Y-93855380D02*
X166952704Y-93903000D01*
X166952704Y-93903000D02*
X167000323Y-93950619D01*
X167000323Y-93950619D02*
X167047942Y-94045857D01*
X167047942Y-94045857D02*
X167047942Y-94188714D01*
X167047942Y-94188714D02*
X167000323Y-94283952D01*
X167000323Y-94283952D02*
X166952704Y-94331571D01*
X166952704Y-94331571D02*
X166857466Y-94379190D01*
X166857466Y-94379190D02*
X166476514Y-94379190D01*
X167428895Y-93950619D02*
X167476514Y-93903000D01*
X167476514Y-93903000D02*
X167571752Y-93855380D01*
X167571752Y-93855380D02*
X167809847Y-93855380D01*
X167809847Y-93855380D02*
X167905085Y-93903000D01*
X167905085Y-93903000D02*
X167952704Y-93950619D01*
X167952704Y-93950619D02*
X168000323Y-94045857D01*
X168000323Y-94045857D02*
X168000323Y-94141095D01*
X168000323Y-94141095D02*
X167952704Y-94283952D01*
X167952704Y-94283952D02*
X167381276Y-94855380D01*
X167381276Y-94855380D02*
X168000323Y-94855380D01*
X168952704Y-94855380D02*
X168381276Y-94855380D01*
X168666990Y-94855380D02*
X168666990Y-93855380D01*
X168666990Y-93855380D02*
X168571752Y-93998238D01*
X168571752Y-93998238D02*
X168476514Y-94093476D01*
X168476514Y-94093476D02*
X168381276Y-94141095D01*
%TO.C,R12*%
X198289942Y-119086980D02*
X197956609Y-118610790D01*
X197718514Y-119086980D02*
X197718514Y-118086980D01*
X197718514Y-118086980D02*
X198099466Y-118086980D01*
X198099466Y-118086980D02*
X198194704Y-118134600D01*
X198194704Y-118134600D02*
X198242323Y-118182219D01*
X198242323Y-118182219D02*
X198289942Y-118277457D01*
X198289942Y-118277457D02*
X198289942Y-118420314D01*
X198289942Y-118420314D02*
X198242323Y-118515552D01*
X198242323Y-118515552D02*
X198194704Y-118563171D01*
X198194704Y-118563171D02*
X198099466Y-118610790D01*
X198099466Y-118610790D02*
X197718514Y-118610790D01*
X199242323Y-119086980D02*
X198670895Y-119086980D01*
X198956609Y-119086980D02*
X198956609Y-118086980D01*
X198956609Y-118086980D02*
X198861371Y-118229838D01*
X198861371Y-118229838D02*
X198766133Y-118325076D01*
X198766133Y-118325076D02*
X198670895Y-118372695D01*
X199623276Y-118182219D02*
X199670895Y-118134600D01*
X199670895Y-118134600D02*
X199766133Y-118086980D01*
X199766133Y-118086980D02*
X200004228Y-118086980D01*
X200004228Y-118086980D02*
X200099466Y-118134600D01*
X200099466Y-118134600D02*
X200147085Y-118182219D01*
X200147085Y-118182219D02*
X200194704Y-118277457D01*
X200194704Y-118277457D02*
X200194704Y-118372695D01*
X200194704Y-118372695D02*
X200147085Y-118515552D01*
X200147085Y-118515552D02*
X199575657Y-119086980D01*
X199575657Y-119086980D02*
X200194704Y-119086980D01*
%TO.C,J10*%
X205090476Y-96067380D02*
X205090476Y-96781666D01*
X205090476Y-96781666D02*
X205042857Y-96924523D01*
X205042857Y-96924523D02*
X204947619Y-97019761D01*
X204947619Y-97019761D02*
X204804762Y-97067380D01*
X204804762Y-97067380D02*
X204709524Y-97067380D01*
X206090476Y-97067380D02*
X205519048Y-97067380D01*
X205804762Y-97067380D02*
X205804762Y-96067380D01*
X205804762Y-96067380D02*
X205709524Y-96210238D01*
X205709524Y-96210238D02*
X205614286Y-96305476D01*
X205614286Y-96305476D02*
X205519048Y-96353095D01*
X206709524Y-96067380D02*
X206804762Y-96067380D01*
X206804762Y-96067380D02*
X206900000Y-96115000D01*
X206900000Y-96115000D02*
X206947619Y-96162619D01*
X206947619Y-96162619D02*
X206995238Y-96257857D01*
X206995238Y-96257857D02*
X207042857Y-96448333D01*
X207042857Y-96448333D02*
X207042857Y-96686428D01*
X207042857Y-96686428D02*
X206995238Y-96876904D01*
X206995238Y-96876904D02*
X206947619Y-96972142D01*
X206947619Y-96972142D02*
X206900000Y-97019761D01*
X206900000Y-97019761D02*
X206804762Y-97067380D01*
X206804762Y-97067380D02*
X206709524Y-97067380D01*
X206709524Y-97067380D02*
X206614286Y-97019761D01*
X206614286Y-97019761D02*
X206566667Y-96972142D01*
X206566667Y-96972142D02*
X206519048Y-96876904D01*
X206519048Y-96876904D02*
X206471429Y-96686428D01*
X206471429Y-96686428D02*
X206471429Y-96448333D01*
X206471429Y-96448333D02*
X206519048Y-96257857D01*
X206519048Y-96257857D02*
X206566667Y-96162619D01*
X206566667Y-96162619D02*
X206614286Y-96115000D01*
X206614286Y-96115000D02*
X206709524Y-96067380D01*
%TO.C,U9*%
X81661095Y-107693380D02*
X81661095Y-108502904D01*
X81661095Y-108502904D02*
X81708714Y-108598142D01*
X81708714Y-108598142D02*
X81756333Y-108645761D01*
X81756333Y-108645761D02*
X81851571Y-108693380D01*
X81851571Y-108693380D02*
X82042047Y-108693380D01*
X82042047Y-108693380D02*
X82137285Y-108645761D01*
X82137285Y-108645761D02*
X82184904Y-108598142D01*
X82184904Y-108598142D02*
X82232523Y-108502904D01*
X82232523Y-108502904D02*
X82232523Y-107693380D01*
X82756333Y-108693380D02*
X82946809Y-108693380D01*
X82946809Y-108693380D02*
X83042047Y-108645761D01*
X83042047Y-108645761D02*
X83089666Y-108598142D01*
X83089666Y-108598142D02*
X83184904Y-108455285D01*
X83184904Y-108455285D02*
X83232523Y-108264809D01*
X83232523Y-108264809D02*
X83232523Y-107883857D01*
X83232523Y-107883857D02*
X83184904Y-107788619D01*
X83184904Y-107788619D02*
X83137285Y-107741000D01*
X83137285Y-107741000D02*
X83042047Y-107693380D01*
X83042047Y-107693380D02*
X82851571Y-107693380D01*
X82851571Y-107693380D02*
X82756333Y-107741000D01*
X82756333Y-107741000D02*
X82708714Y-107788619D01*
X82708714Y-107788619D02*
X82661095Y-107883857D01*
X82661095Y-107883857D02*
X82661095Y-108121952D01*
X82661095Y-108121952D02*
X82708714Y-108217190D01*
X82708714Y-108217190D02*
X82756333Y-108264809D01*
X82756333Y-108264809D02*
X82851571Y-108312428D01*
X82851571Y-108312428D02*
X83042047Y-108312428D01*
X83042047Y-108312428D02*
X83137285Y-108264809D01*
X83137285Y-108264809D02*
X83184904Y-108217190D01*
X83184904Y-108217190D02*
X83232523Y-108121952D01*
%TO.C,J8*%
X123066666Y-96067380D02*
X123066666Y-96781666D01*
X123066666Y-96781666D02*
X123019047Y-96924523D01*
X123019047Y-96924523D02*
X122923809Y-97019761D01*
X122923809Y-97019761D02*
X122780952Y-97067380D01*
X122780952Y-97067380D02*
X122685714Y-97067380D01*
X123685714Y-96495952D02*
X123590476Y-96448333D01*
X123590476Y-96448333D02*
X123542857Y-96400714D01*
X123542857Y-96400714D02*
X123495238Y-96305476D01*
X123495238Y-96305476D02*
X123495238Y-96257857D01*
X123495238Y-96257857D02*
X123542857Y-96162619D01*
X123542857Y-96162619D02*
X123590476Y-96115000D01*
X123590476Y-96115000D02*
X123685714Y-96067380D01*
X123685714Y-96067380D02*
X123876190Y-96067380D01*
X123876190Y-96067380D02*
X123971428Y-96115000D01*
X123971428Y-96115000D02*
X124019047Y-96162619D01*
X124019047Y-96162619D02*
X124066666Y-96257857D01*
X124066666Y-96257857D02*
X124066666Y-96305476D01*
X124066666Y-96305476D02*
X124019047Y-96400714D01*
X124019047Y-96400714D02*
X123971428Y-96448333D01*
X123971428Y-96448333D02*
X123876190Y-96495952D01*
X123876190Y-96495952D02*
X123685714Y-96495952D01*
X123685714Y-96495952D02*
X123590476Y-96543571D01*
X123590476Y-96543571D02*
X123542857Y-96591190D01*
X123542857Y-96591190D02*
X123495238Y-96686428D01*
X123495238Y-96686428D02*
X123495238Y-96876904D01*
X123495238Y-96876904D02*
X123542857Y-96972142D01*
X123542857Y-96972142D02*
X123590476Y-97019761D01*
X123590476Y-97019761D02*
X123685714Y-97067380D01*
X123685714Y-97067380D02*
X123876190Y-97067380D01*
X123876190Y-97067380D02*
X123971428Y-97019761D01*
X123971428Y-97019761D02*
X124019047Y-96972142D01*
X124019047Y-96972142D02*
X124066666Y-96876904D01*
X124066666Y-96876904D02*
X124066666Y-96686428D01*
X124066666Y-96686428D02*
X124019047Y-96591190D01*
X124019047Y-96591190D02*
X123971428Y-96543571D01*
X123971428Y-96543571D02*
X123876190Y-96495952D01*
%TO.C,Q8*%
X176078219Y-107588038D02*
X176030600Y-107683276D01*
X176030600Y-107683276D02*
X175935361Y-107778514D01*
X175935361Y-107778514D02*
X175792504Y-107921371D01*
X175792504Y-107921371D02*
X175744885Y-108016609D01*
X175744885Y-108016609D02*
X175744885Y-108111847D01*
X175982980Y-108064228D02*
X175935361Y-108159466D01*
X175935361Y-108159466D02*
X175840123Y-108254704D01*
X175840123Y-108254704D02*
X175649647Y-108302323D01*
X175649647Y-108302323D02*
X175316314Y-108302323D01*
X175316314Y-108302323D02*
X175125838Y-108254704D01*
X175125838Y-108254704D02*
X175030600Y-108159466D01*
X175030600Y-108159466D02*
X174982980Y-108064228D01*
X174982980Y-108064228D02*
X174982980Y-107873752D01*
X174982980Y-107873752D02*
X175030600Y-107778514D01*
X175030600Y-107778514D02*
X175125838Y-107683276D01*
X175125838Y-107683276D02*
X175316314Y-107635657D01*
X175316314Y-107635657D02*
X175649647Y-107635657D01*
X175649647Y-107635657D02*
X175840123Y-107683276D01*
X175840123Y-107683276D02*
X175935361Y-107778514D01*
X175935361Y-107778514D02*
X175982980Y-107873752D01*
X175982980Y-107873752D02*
X175982980Y-108064228D01*
X175411552Y-107064228D02*
X175363933Y-107159466D01*
X175363933Y-107159466D02*
X175316314Y-107207085D01*
X175316314Y-107207085D02*
X175221076Y-107254704D01*
X175221076Y-107254704D02*
X175173457Y-107254704D01*
X175173457Y-107254704D02*
X175078219Y-107207085D01*
X175078219Y-107207085D02*
X175030600Y-107159466D01*
X175030600Y-107159466D02*
X174982980Y-107064228D01*
X174982980Y-107064228D02*
X174982980Y-106873752D01*
X174982980Y-106873752D02*
X175030600Y-106778514D01*
X175030600Y-106778514D02*
X175078219Y-106730895D01*
X175078219Y-106730895D02*
X175173457Y-106683276D01*
X175173457Y-106683276D02*
X175221076Y-106683276D01*
X175221076Y-106683276D02*
X175316314Y-106730895D01*
X175316314Y-106730895D02*
X175363933Y-106778514D01*
X175363933Y-106778514D02*
X175411552Y-106873752D01*
X175411552Y-106873752D02*
X175411552Y-107064228D01*
X175411552Y-107064228D02*
X175459171Y-107159466D01*
X175459171Y-107159466D02*
X175506790Y-107207085D01*
X175506790Y-107207085D02*
X175602028Y-107254704D01*
X175602028Y-107254704D02*
X175792504Y-107254704D01*
X175792504Y-107254704D02*
X175887742Y-107207085D01*
X175887742Y-107207085D02*
X175935361Y-107159466D01*
X175935361Y-107159466D02*
X175982980Y-107064228D01*
X175982980Y-107064228D02*
X175982980Y-106873752D01*
X175982980Y-106873752D02*
X175935361Y-106778514D01*
X175935361Y-106778514D02*
X175887742Y-106730895D01*
X175887742Y-106730895D02*
X175792504Y-106683276D01*
X175792504Y-106683276D02*
X175602028Y-106683276D01*
X175602028Y-106683276D02*
X175506790Y-106730895D01*
X175506790Y-106730895D02*
X175459171Y-106778514D01*
X175459171Y-106778514D02*
X175411552Y-106873752D01*
%TO.C,Q11*%
X157591419Y-108115028D02*
X157543800Y-108210266D01*
X157543800Y-108210266D02*
X157448561Y-108305504D01*
X157448561Y-108305504D02*
X157305704Y-108448361D01*
X157305704Y-108448361D02*
X157258085Y-108543599D01*
X157258085Y-108543599D02*
X157258085Y-108638837D01*
X157496180Y-108591218D02*
X157448561Y-108686456D01*
X157448561Y-108686456D02*
X157353323Y-108781694D01*
X157353323Y-108781694D02*
X157162847Y-108829313D01*
X157162847Y-108829313D02*
X156829514Y-108829313D01*
X156829514Y-108829313D02*
X156639038Y-108781694D01*
X156639038Y-108781694D02*
X156543800Y-108686456D01*
X156543800Y-108686456D02*
X156496180Y-108591218D01*
X156496180Y-108591218D02*
X156496180Y-108400742D01*
X156496180Y-108400742D02*
X156543800Y-108305504D01*
X156543800Y-108305504D02*
X156639038Y-108210266D01*
X156639038Y-108210266D02*
X156829514Y-108162647D01*
X156829514Y-108162647D02*
X157162847Y-108162647D01*
X157162847Y-108162647D02*
X157353323Y-108210266D01*
X157353323Y-108210266D02*
X157448561Y-108305504D01*
X157448561Y-108305504D02*
X157496180Y-108400742D01*
X157496180Y-108400742D02*
X157496180Y-108591218D01*
X157496180Y-107210266D02*
X157496180Y-107781694D01*
X157496180Y-107495980D02*
X156496180Y-107495980D01*
X156496180Y-107495980D02*
X156639038Y-107591218D01*
X156639038Y-107591218D02*
X156734276Y-107686456D01*
X156734276Y-107686456D02*
X156781895Y-107781694D01*
X157496180Y-106257885D02*
X157496180Y-106829313D01*
X157496180Y-106543599D02*
X156496180Y-106543599D01*
X156496180Y-106543599D02*
X156639038Y-106638837D01*
X156639038Y-106638837D02*
X156734276Y-106734075D01*
X156734276Y-106734075D02*
X156781895Y-106829313D01*
%TO.C,J7*%
X95566666Y-96067380D02*
X95566666Y-96781666D01*
X95566666Y-96781666D02*
X95519047Y-96924523D01*
X95519047Y-96924523D02*
X95423809Y-97019761D01*
X95423809Y-97019761D02*
X95280952Y-97067380D01*
X95280952Y-97067380D02*
X95185714Y-97067380D01*
X95947619Y-96067380D02*
X96614285Y-96067380D01*
X96614285Y-96067380D02*
X96185714Y-97067380D01*
%TO.C,J5*%
X219843380Y-100833333D02*
X220557666Y-100833333D01*
X220557666Y-100833333D02*
X220700523Y-100880952D01*
X220700523Y-100880952D02*
X220795761Y-100976190D01*
X220795761Y-100976190D02*
X220843380Y-101119047D01*
X220843380Y-101119047D02*
X220843380Y-101214285D01*
X219843380Y-99880952D02*
X219843380Y-100357142D01*
X219843380Y-100357142D02*
X220319571Y-100404761D01*
X220319571Y-100404761D02*
X220271952Y-100357142D01*
X220271952Y-100357142D02*
X220224333Y-100261904D01*
X220224333Y-100261904D02*
X220224333Y-100023809D01*
X220224333Y-100023809D02*
X220271952Y-99928571D01*
X220271952Y-99928571D02*
X220319571Y-99880952D01*
X220319571Y-99880952D02*
X220414809Y-99833333D01*
X220414809Y-99833333D02*
X220652904Y-99833333D01*
X220652904Y-99833333D02*
X220748142Y-99880952D01*
X220748142Y-99880952D02*
X220795761Y-99928571D01*
X220795761Y-99928571D02*
X220843380Y-100023809D01*
X220843380Y-100023809D02*
X220843380Y-100261904D01*
X220843380Y-100261904D02*
X220795761Y-100357142D01*
X220795761Y-100357142D02*
X220748142Y-100404761D01*
%TO.C,C1*%
X91272533Y-73809342D02*
X91224914Y-73856961D01*
X91224914Y-73856961D02*
X91082057Y-73904580D01*
X91082057Y-73904580D02*
X90986819Y-73904580D01*
X90986819Y-73904580D02*
X90843962Y-73856961D01*
X90843962Y-73856961D02*
X90748724Y-73761723D01*
X90748724Y-73761723D02*
X90701105Y-73666485D01*
X90701105Y-73666485D02*
X90653486Y-73476009D01*
X90653486Y-73476009D02*
X90653486Y-73333152D01*
X90653486Y-73333152D02*
X90701105Y-73142676D01*
X90701105Y-73142676D02*
X90748724Y-73047438D01*
X90748724Y-73047438D02*
X90843962Y-72952200D01*
X90843962Y-72952200D02*
X90986819Y-72904580D01*
X90986819Y-72904580D02*
X91082057Y-72904580D01*
X91082057Y-72904580D02*
X91224914Y-72952200D01*
X91224914Y-72952200D02*
X91272533Y-72999819D01*
X92224914Y-73904580D02*
X91653486Y-73904580D01*
X91939200Y-73904580D02*
X91939200Y-72904580D01*
X91939200Y-72904580D02*
X91843962Y-73047438D01*
X91843962Y-73047438D02*
X91748724Y-73142676D01*
X91748724Y-73142676D02*
X91653486Y-73190295D01*
%TO.C,RV1*%
X95967980Y-86040838D02*
X95491790Y-86374171D01*
X95967980Y-86612266D02*
X94967980Y-86612266D01*
X94967980Y-86612266D02*
X94967980Y-86231314D01*
X94967980Y-86231314D02*
X95015600Y-86136076D01*
X95015600Y-86136076D02*
X95063219Y-86088457D01*
X95063219Y-86088457D02*
X95158457Y-86040838D01*
X95158457Y-86040838D02*
X95301314Y-86040838D01*
X95301314Y-86040838D02*
X95396552Y-86088457D01*
X95396552Y-86088457D02*
X95444171Y-86136076D01*
X95444171Y-86136076D02*
X95491790Y-86231314D01*
X95491790Y-86231314D02*
X95491790Y-86612266D01*
X94967980Y-85755123D02*
X95967980Y-85421790D01*
X95967980Y-85421790D02*
X94967980Y-85088457D01*
X95967980Y-84231314D02*
X95967980Y-84802742D01*
X95967980Y-84517028D02*
X94967980Y-84517028D01*
X94967980Y-84517028D02*
X95110838Y-84612266D01*
X95110838Y-84612266D02*
X95206076Y-84707504D01*
X95206076Y-84707504D02*
X95253695Y-84802742D01*
%TO.C,J6*%
X153217380Y-80633333D02*
X153931666Y-80633333D01*
X153931666Y-80633333D02*
X154074523Y-80680952D01*
X154074523Y-80680952D02*
X154169761Y-80776190D01*
X154169761Y-80776190D02*
X154217380Y-80919047D01*
X154217380Y-80919047D02*
X154217380Y-81014285D01*
X153217380Y-79728571D02*
X153217380Y-79919047D01*
X153217380Y-79919047D02*
X153265000Y-80014285D01*
X153265000Y-80014285D02*
X153312619Y-80061904D01*
X153312619Y-80061904D02*
X153455476Y-80157142D01*
X153455476Y-80157142D02*
X153645952Y-80204761D01*
X153645952Y-80204761D02*
X154026904Y-80204761D01*
X154026904Y-80204761D02*
X154122142Y-80157142D01*
X154122142Y-80157142D02*
X154169761Y-80109523D01*
X154169761Y-80109523D02*
X154217380Y-80014285D01*
X154217380Y-80014285D02*
X154217380Y-79823809D01*
X154217380Y-79823809D02*
X154169761Y-79728571D01*
X154169761Y-79728571D02*
X154122142Y-79680952D01*
X154122142Y-79680952D02*
X154026904Y-79633333D01*
X154026904Y-79633333D02*
X153788809Y-79633333D01*
X153788809Y-79633333D02*
X153693571Y-79680952D01*
X153693571Y-79680952D02*
X153645952Y-79728571D01*
X153645952Y-79728571D02*
X153598333Y-79823809D01*
X153598333Y-79823809D02*
X153598333Y-80014285D01*
X153598333Y-80014285D02*
X153645952Y-80109523D01*
X153645952Y-80109523D02*
X153693571Y-80157142D01*
X153693571Y-80157142D02*
X153788809Y-80204761D01*
%TO.C,Q9*%
X169931419Y-107689638D02*
X169883800Y-107784876D01*
X169883800Y-107784876D02*
X169788561Y-107880114D01*
X169788561Y-107880114D02*
X169645704Y-108022971D01*
X169645704Y-108022971D02*
X169598085Y-108118209D01*
X169598085Y-108118209D02*
X169598085Y-108213447D01*
X169836180Y-108165828D02*
X169788561Y-108261066D01*
X169788561Y-108261066D02*
X169693323Y-108356304D01*
X169693323Y-108356304D02*
X169502847Y-108403923D01*
X169502847Y-108403923D02*
X169169514Y-108403923D01*
X169169514Y-108403923D02*
X168979038Y-108356304D01*
X168979038Y-108356304D02*
X168883800Y-108261066D01*
X168883800Y-108261066D02*
X168836180Y-108165828D01*
X168836180Y-108165828D02*
X168836180Y-107975352D01*
X168836180Y-107975352D02*
X168883800Y-107880114D01*
X168883800Y-107880114D02*
X168979038Y-107784876D01*
X168979038Y-107784876D02*
X169169514Y-107737257D01*
X169169514Y-107737257D02*
X169502847Y-107737257D01*
X169502847Y-107737257D02*
X169693323Y-107784876D01*
X169693323Y-107784876D02*
X169788561Y-107880114D01*
X169788561Y-107880114D02*
X169836180Y-107975352D01*
X169836180Y-107975352D02*
X169836180Y-108165828D01*
X169836180Y-107261066D02*
X169836180Y-107070590D01*
X169836180Y-107070590D02*
X169788561Y-106975352D01*
X169788561Y-106975352D02*
X169740942Y-106927733D01*
X169740942Y-106927733D02*
X169598085Y-106832495D01*
X169598085Y-106832495D02*
X169407609Y-106784876D01*
X169407609Y-106784876D02*
X169026657Y-106784876D01*
X169026657Y-106784876D02*
X168931419Y-106832495D01*
X168931419Y-106832495D02*
X168883800Y-106880114D01*
X168883800Y-106880114D02*
X168836180Y-106975352D01*
X168836180Y-106975352D02*
X168836180Y-107165828D01*
X168836180Y-107165828D02*
X168883800Y-107261066D01*
X168883800Y-107261066D02*
X168931419Y-107308685D01*
X168931419Y-107308685D02*
X169026657Y-107356304D01*
X169026657Y-107356304D02*
X169264752Y-107356304D01*
X169264752Y-107356304D02*
X169359990Y-107308685D01*
X169359990Y-107308685D02*
X169407609Y-107261066D01*
X169407609Y-107261066D02*
X169455228Y-107165828D01*
X169455228Y-107165828D02*
X169455228Y-106975352D01*
X169455228Y-106975352D02*
X169407609Y-106880114D01*
X169407609Y-106880114D02*
X169359990Y-106832495D01*
X169359990Y-106832495D02*
X169264752Y-106784876D01*
%TO.C,Q10*%
X163835419Y-108267428D02*
X163787800Y-108362666D01*
X163787800Y-108362666D02*
X163692561Y-108457904D01*
X163692561Y-108457904D02*
X163549704Y-108600761D01*
X163549704Y-108600761D02*
X163502085Y-108695999D01*
X163502085Y-108695999D02*
X163502085Y-108791237D01*
X163740180Y-108743618D02*
X163692561Y-108838856D01*
X163692561Y-108838856D02*
X163597323Y-108934094D01*
X163597323Y-108934094D02*
X163406847Y-108981713D01*
X163406847Y-108981713D02*
X163073514Y-108981713D01*
X163073514Y-108981713D02*
X162883038Y-108934094D01*
X162883038Y-108934094D02*
X162787800Y-108838856D01*
X162787800Y-108838856D02*
X162740180Y-108743618D01*
X162740180Y-108743618D02*
X162740180Y-108553142D01*
X162740180Y-108553142D02*
X162787800Y-108457904D01*
X162787800Y-108457904D02*
X162883038Y-108362666D01*
X162883038Y-108362666D02*
X163073514Y-108315047D01*
X163073514Y-108315047D02*
X163406847Y-108315047D01*
X163406847Y-108315047D02*
X163597323Y-108362666D01*
X163597323Y-108362666D02*
X163692561Y-108457904D01*
X163692561Y-108457904D02*
X163740180Y-108553142D01*
X163740180Y-108553142D02*
X163740180Y-108743618D01*
X163740180Y-107362666D02*
X163740180Y-107934094D01*
X163740180Y-107648380D02*
X162740180Y-107648380D01*
X162740180Y-107648380D02*
X162883038Y-107743618D01*
X162883038Y-107743618D02*
X162978276Y-107838856D01*
X162978276Y-107838856D02*
X163025895Y-107934094D01*
X162740180Y-106743618D02*
X162740180Y-106648380D01*
X162740180Y-106648380D02*
X162787800Y-106553142D01*
X162787800Y-106553142D02*
X162835419Y-106505523D01*
X162835419Y-106505523D02*
X162930657Y-106457904D01*
X162930657Y-106457904D02*
X163121133Y-106410285D01*
X163121133Y-106410285D02*
X163359228Y-106410285D01*
X163359228Y-106410285D02*
X163549704Y-106457904D01*
X163549704Y-106457904D02*
X163644942Y-106505523D01*
X163644942Y-106505523D02*
X163692561Y-106553142D01*
X163692561Y-106553142D02*
X163740180Y-106648380D01*
X163740180Y-106648380D02*
X163740180Y-106743618D01*
X163740180Y-106743618D02*
X163692561Y-106838856D01*
X163692561Y-106838856D02*
X163644942Y-106886475D01*
X163644942Y-106886475D02*
X163549704Y-106934094D01*
X163549704Y-106934094D02*
X163359228Y-106981713D01*
X163359228Y-106981713D02*
X163121133Y-106981713D01*
X163121133Y-106981713D02*
X162930657Y-106934094D01*
X162930657Y-106934094D02*
X162835419Y-106886475D01*
X162835419Y-106886475D02*
X162787800Y-106838856D01*
X162787800Y-106838856D02*
X162740180Y-106743618D01*
%TO.C,R20*%
X112488742Y-94855380D02*
X112155409Y-94379190D01*
X111917314Y-94855380D02*
X111917314Y-93855380D01*
X111917314Y-93855380D02*
X112298266Y-93855380D01*
X112298266Y-93855380D02*
X112393504Y-93903000D01*
X112393504Y-93903000D02*
X112441123Y-93950619D01*
X112441123Y-93950619D02*
X112488742Y-94045857D01*
X112488742Y-94045857D02*
X112488742Y-94188714D01*
X112488742Y-94188714D02*
X112441123Y-94283952D01*
X112441123Y-94283952D02*
X112393504Y-94331571D01*
X112393504Y-94331571D02*
X112298266Y-94379190D01*
X112298266Y-94379190D02*
X111917314Y-94379190D01*
X112869695Y-93950619D02*
X112917314Y-93903000D01*
X112917314Y-93903000D02*
X113012552Y-93855380D01*
X113012552Y-93855380D02*
X113250647Y-93855380D01*
X113250647Y-93855380D02*
X113345885Y-93903000D01*
X113345885Y-93903000D02*
X113393504Y-93950619D01*
X113393504Y-93950619D02*
X113441123Y-94045857D01*
X113441123Y-94045857D02*
X113441123Y-94141095D01*
X113441123Y-94141095D02*
X113393504Y-94283952D01*
X113393504Y-94283952D02*
X112822076Y-94855380D01*
X112822076Y-94855380D02*
X113441123Y-94855380D01*
X114060171Y-93855380D02*
X114155409Y-93855380D01*
X114155409Y-93855380D02*
X114250647Y-93903000D01*
X114250647Y-93903000D02*
X114298266Y-93950619D01*
X114298266Y-93950619D02*
X114345885Y-94045857D01*
X114345885Y-94045857D02*
X114393504Y-94236333D01*
X114393504Y-94236333D02*
X114393504Y-94474428D01*
X114393504Y-94474428D02*
X114345885Y-94664904D01*
X114345885Y-94664904D02*
X114298266Y-94760142D01*
X114298266Y-94760142D02*
X114250647Y-94807761D01*
X114250647Y-94807761D02*
X114155409Y-94855380D01*
X114155409Y-94855380D02*
X114060171Y-94855380D01*
X114060171Y-94855380D02*
X113964933Y-94807761D01*
X113964933Y-94807761D02*
X113917314Y-94760142D01*
X113917314Y-94760142D02*
X113869695Y-94664904D01*
X113869695Y-94664904D02*
X113822076Y-94474428D01*
X113822076Y-94474428D02*
X113822076Y-94236333D01*
X113822076Y-94236333D02*
X113869695Y-94045857D01*
X113869695Y-94045857D02*
X113917314Y-93950619D01*
X113917314Y-93950619D02*
X113964933Y-93903000D01*
X113964933Y-93903000D02*
X114060171Y-93855380D01*
%TO.C,U8*%
X122187380Y-118001904D02*
X122996904Y-118001904D01*
X122996904Y-118001904D02*
X123092142Y-117954285D01*
X123092142Y-117954285D02*
X123139761Y-117906666D01*
X123139761Y-117906666D02*
X123187380Y-117811428D01*
X123187380Y-117811428D02*
X123187380Y-117620952D01*
X123187380Y-117620952D02*
X123139761Y-117525714D01*
X123139761Y-117525714D02*
X123092142Y-117478095D01*
X123092142Y-117478095D02*
X122996904Y-117430476D01*
X122996904Y-117430476D02*
X122187380Y-117430476D01*
X122615952Y-116811428D02*
X122568333Y-116906666D01*
X122568333Y-116906666D02*
X122520714Y-116954285D01*
X122520714Y-116954285D02*
X122425476Y-117001904D01*
X122425476Y-117001904D02*
X122377857Y-117001904D01*
X122377857Y-117001904D02*
X122282619Y-116954285D01*
X122282619Y-116954285D02*
X122235000Y-116906666D01*
X122235000Y-116906666D02*
X122187380Y-116811428D01*
X122187380Y-116811428D02*
X122187380Y-116620952D01*
X122187380Y-116620952D02*
X122235000Y-116525714D01*
X122235000Y-116525714D02*
X122282619Y-116478095D01*
X122282619Y-116478095D02*
X122377857Y-116430476D01*
X122377857Y-116430476D02*
X122425476Y-116430476D01*
X122425476Y-116430476D02*
X122520714Y-116478095D01*
X122520714Y-116478095D02*
X122568333Y-116525714D01*
X122568333Y-116525714D02*
X122615952Y-116620952D01*
X122615952Y-116620952D02*
X122615952Y-116811428D01*
X122615952Y-116811428D02*
X122663571Y-116906666D01*
X122663571Y-116906666D02*
X122711190Y-116954285D01*
X122711190Y-116954285D02*
X122806428Y-117001904D01*
X122806428Y-117001904D02*
X122996904Y-117001904D01*
X122996904Y-117001904D02*
X123092142Y-116954285D01*
X123092142Y-116954285D02*
X123139761Y-116906666D01*
X123139761Y-116906666D02*
X123187380Y-116811428D01*
X123187380Y-116811428D02*
X123187380Y-116620952D01*
X123187380Y-116620952D02*
X123139761Y-116525714D01*
X123139761Y-116525714D02*
X123092142Y-116478095D01*
X123092142Y-116478095D02*
X122996904Y-116430476D01*
X122996904Y-116430476D02*
X122806428Y-116430476D01*
X122806428Y-116430476D02*
X122711190Y-116478095D01*
X122711190Y-116478095D02*
X122663571Y-116525714D01*
X122663571Y-116525714D02*
X122615952Y-116620952D01*
%TO.C,J2*%
X219843380Y-112844133D02*
X220557666Y-112844133D01*
X220557666Y-112844133D02*
X220700523Y-112891752D01*
X220700523Y-112891752D02*
X220795761Y-112986990D01*
X220795761Y-112986990D02*
X220843380Y-113129847D01*
X220843380Y-113129847D02*
X220843380Y-113225085D01*
X219938619Y-112415561D02*
X219891000Y-112367942D01*
X219891000Y-112367942D02*
X219843380Y-112272704D01*
X219843380Y-112272704D02*
X219843380Y-112034609D01*
X219843380Y-112034609D02*
X219891000Y-111939371D01*
X219891000Y-111939371D02*
X219938619Y-111891752D01*
X219938619Y-111891752D02*
X220033857Y-111844133D01*
X220033857Y-111844133D02*
X220129095Y-111844133D01*
X220129095Y-111844133D02*
X220271952Y-111891752D01*
X220271952Y-111891752D02*
X220843380Y-112463180D01*
X220843380Y-112463180D02*
X220843380Y-111844133D01*
%TO.C,R18*%
X140479542Y-94906180D02*
X140146209Y-94429990D01*
X139908114Y-94906180D02*
X139908114Y-93906180D01*
X139908114Y-93906180D02*
X140289066Y-93906180D01*
X140289066Y-93906180D02*
X140384304Y-93953800D01*
X140384304Y-93953800D02*
X140431923Y-94001419D01*
X140431923Y-94001419D02*
X140479542Y-94096657D01*
X140479542Y-94096657D02*
X140479542Y-94239514D01*
X140479542Y-94239514D02*
X140431923Y-94334752D01*
X140431923Y-94334752D02*
X140384304Y-94382371D01*
X140384304Y-94382371D02*
X140289066Y-94429990D01*
X140289066Y-94429990D02*
X139908114Y-94429990D01*
X141431923Y-94906180D02*
X140860495Y-94906180D01*
X141146209Y-94906180D02*
X141146209Y-93906180D01*
X141146209Y-93906180D02*
X141050971Y-94049038D01*
X141050971Y-94049038D02*
X140955733Y-94144276D01*
X140955733Y-94144276D02*
X140860495Y-94191895D01*
X142003352Y-94334752D02*
X141908114Y-94287133D01*
X141908114Y-94287133D02*
X141860495Y-94239514D01*
X141860495Y-94239514D02*
X141812876Y-94144276D01*
X141812876Y-94144276D02*
X141812876Y-94096657D01*
X141812876Y-94096657D02*
X141860495Y-94001419D01*
X141860495Y-94001419D02*
X141908114Y-93953800D01*
X141908114Y-93953800D02*
X142003352Y-93906180D01*
X142003352Y-93906180D02*
X142193828Y-93906180D01*
X142193828Y-93906180D02*
X142289066Y-93953800D01*
X142289066Y-93953800D02*
X142336685Y-94001419D01*
X142336685Y-94001419D02*
X142384304Y-94096657D01*
X142384304Y-94096657D02*
X142384304Y-94144276D01*
X142384304Y-94144276D02*
X142336685Y-94239514D01*
X142336685Y-94239514D02*
X142289066Y-94287133D01*
X142289066Y-94287133D02*
X142193828Y-94334752D01*
X142193828Y-94334752D02*
X142003352Y-94334752D01*
X142003352Y-94334752D02*
X141908114Y-94382371D01*
X141908114Y-94382371D02*
X141860495Y-94429990D01*
X141860495Y-94429990D02*
X141812876Y-94525228D01*
X141812876Y-94525228D02*
X141812876Y-94715704D01*
X141812876Y-94715704D02*
X141860495Y-94810942D01*
X141860495Y-94810942D02*
X141908114Y-94858561D01*
X141908114Y-94858561D02*
X142003352Y-94906180D01*
X142003352Y-94906180D02*
X142193828Y-94906180D01*
X142193828Y-94906180D02*
X142289066Y-94858561D01*
X142289066Y-94858561D02*
X142336685Y-94810942D01*
X142336685Y-94810942D02*
X142384304Y-94715704D01*
X142384304Y-94715704D02*
X142384304Y-94525228D01*
X142384304Y-94525228D02*
X142336685Y-94429990D01*
X142336685Y-94429990D02*
X142289066Y-94382371D01*
X142289066Y-94382371D02*
X142193828Y-94334752D01*
%TO.C,D3*%
X207834005Y-115076180D02*
X207834005Y-114076180D01*
X207834005Y-114076180D02*
X208072100Y-114076180D01*
X208072100Y-114076180D02*
X208214957Y-114123800D01*
X208214957Y-114123800D02*
X208310195Y-114219038D01*
X208310195Y-114219038D02*
X208357814Y-114314276D01*
X208357814Y-114314276D02*
X208405433Y-114504752D01*
X208405433Y-114504752D02*
X208405433Y-114647609D01*
X208405433Y-114647609D02*
X208357814Y-114838085D01*
X208357814Y-114838085D02*
X208310195Y-114933323D01*
X208310195Y-114933323D02*
X208214957Y-115028561D01*
X208214957Y-115028561D02*
X208072100Y-115076180D01*
X208072100Y-115076180D02*
X207834005Y-115076180D01*
X208738767Y-114076180D02*
X209357814Y-114076180D01*
X209357814Y-114076180D02*
X209024481Y-114457133D01*
X209024481Y-114457133D02*
X209167338Y-114457133D01*
X209167338Y-114457133D02*
X209262576Y-114504752D01*
X209262576Y-114504752D02*
X209310195Y-114552371D01*
X209310195Y-114552371D02*
X209357814Y-114647609D01*
X209357814Y-114647609D02*
X209357814Y-114885704D01*
X209357814Y-114885704D02*
X209310195Y-114980942D01*
X209310195Y-114980942D02*
X209262576Y-115028561D01*
X209262576Y-115028561D02*
X209167338Y-115076180D01*
X209167338Y-115076180D02*
X208881624Y-115076180D01*
X208881624Y-115076180D02*
X208786386Y-115028561D01*
X208786386Y-115028561D02*
X208738767Y-114980942D01*
%TO.C,C4*%
X210376984Y-73835142D02*
X210329365Y-73882761D01*
X210329365Y-73882761D02*
X210186508Y-73930380D01*
X210186508Y-73930380D02*
X210091270Y-73930380D01*
X210091270Y-73930380D02*
X209948413Y-73882761D01*
X209948413Y-73882761D02*
X209853175Y-73787523D01*
X209853175Y-73787523D02*
X209805556Y-73692285D01*
X209805556Y-73692285D02*
X209757937Y-73501809D01*
X209757937Y-73501809D02*
X209757937Y-73358952D01*
X209757937Y-73358952D02*
X209805556Y-73168476D01*
X209805556Y-73168476D02*
X209853175Y-73073238D01*
X209853175Y-73073238D02*
X209948413Y-72978000D01*
X209948413Y-72978000D02*
X210091270Y-72930380D01*
X210091270Y-72930380D02*
X210186508Y-72930380D01*
X210186508Y-72930380D02*
X210329365Y-72978000D01*
X210329365Y-72978000D02*
X210376984Y-73025619D01*
X211234127Y-73263714D02*
X211234127Y-73930380D01*
X210996032Y-72882761D02*
X210757937Y-73597047D01*
X210757937Y-73597047D02*
X211376984Y-73597047D01*
D12*
%TO.C,C5*%
X137408400Y-89193000D02*
X137408400Y-89258000D01*
X137408400Y-87018000D02*
X137408400Y-87083000D01*
X134168400Y-89258000D02*
X137408400Y-89258000D01*
X134168400Y-89193000D02*
X134168400Y-89258000D01*
X134168400Y-87018000D02*
X137408400Y-87018000D01*
X134168400Y-87018000D02*
X134168400Y-87083000D01*
%TO.C,D1*%
X101554771Y-79908400D02*
X101668400Y-79908400D01*
X101554771Y-79908400D02*
G75*
G03*
X101554771Y-79908400I-1326371J0D01*
G01*
%TO.C,D2*%
X193218800Y-83215200D02*
X196518800Y-83215200D01*
X193218800Y-83215200D02*
X193218800Y-77705200D01*
X196518800Y-83215200D02*
X196518800Y-77705200D01*
%TO.C,J1*%
X100103600Y-72754000D02*
X100103600Y-75254000D01*
X100103600Y-75254000D02*
X102603600Y-75254000D01*
X100403600Y-70934000D02*
X100403600Y-74954000D01*
X100403600Y-72644000D02*
X100903600Y-72644000D01*
X100403600Y-73454000D02*
X101403600Y-73454000D01*
X100403600Y-74954000D02*
X108123600Y-74954000D01*
X100903600Y-71434000D02*
X107623600Y-71434000D01*
X100903600Y-72644000D02*
X100903600Y-71434000D01*
X101403600Y-73454000D02*
X101403600Y-74954000D01*
X107123600Y-73454000D02*
X107123600Y-74954000D01*
X107623600Y-71434000D02*
X107623600Y-72644000D01*
X107623600Y-72644000D02*
X108123600Y-72644000D01*
X108123600Y-70934000D02*
X100403600Y-70934000D01*
X108123600Y-73454000D02*
X107123600Y-73454000D01*
X108123600Y-74954000D02*
X108123600Y-70934000D01*
%TO.C,J3*%
X145900000Y-102200000D02*
X145900000Y-90200000D01*
X145900000Y-102200000D02*
X155900000Y-102200000D01*
X155900000Y-90200000D02*
X145900000Y-90200000D01*
X155900000Y-102200000D02*
X155900000Y-90200000D01*
%TO.C,J4*%
X111103600Y-72754000D02*
X111103600Y-75254000D01*
X111103600Y-75254000D02*
X113603600Y-75254000D01*
X111403600Y-70934000D02*
X111403600Y-74954000D01*
X111403600Y-72644000D02*
X111903600Y-72644000D01*
X111403600Y-73454000D02*
X112403600Y-73454000D01*
X111403600Y-74954000D02*
X124123600Y-74954000D01*
X111903600Y-71434000D02*
X123623600Y-71434000D01*
X111903600Y-72644000D02*
X111903600Y-71434000D01*
X112403600Y-73454000D02*
X112403600Y-74954000D01*
X123123600Y-73454000D02*
X123123600Y-74954000D01*
X123623600Y-71434000D02*
X123623600Y-72644000D01*
X123623600Y-72644000D02*
X124123600Y-72644000D01*
X124123600Y-70934000D02*
X111403600Y-70934000D01*
X124123600Y-73454000D02*
X123123600Y-73454000D01*
X124123600Y-74954000D02*
X124123600Y-70934000D01*
%TO.C,L1*%
X205956400Y-75336400D02*
G75*
G03*
X205956400Y-75336400I-3620000J0D01*
G01*
%TO.C,Q1*%
X138052400Y-76678400D02*
X141652400Y-76678400D01*
X139852400Y-72228400D02*
G75*
G03*
X138013922Y-76666878I0J-2600000D01*
G01*
X141690878Y-76666878D02*
G75*
G03*
X139852400Y-72228400I-1838478J1838478D01*
G01*
%TO.C,Q3*%
X173738800Y-71130400D02*
X173738800Y-71400400D01*
X173738800Y-71400400D02*
X170908800Y-71400400D01*
X173738800Y-77760400D02*
X172638800Y-77760400D01*
X173738800Y-78030400D02*
X173738800Y-77760400D01*
X180158800Y-71130400D02*
X173738800Y-71130400D01*
X180158800Y-78030400D02*
X173738800Y-78030400D01*
%TO.C,Q4*%
X103570000Y-96250000D02*
X107170000Y-96250000D01*
X105370000Y-91800000D02*
G75*
G03*
X103531522Y-96238478I0J-2600000D01*
G01*
X107208478Y-96238478D02*
G75*
G03*
X105370000Y-91800000I-1838478J1838478D01*
G01*
%TO.C,Q5*%
X131702400Y-96250000D02*
X135302400Y-96250000D01*
X133502400Y-91800000D02*
G75*
G03*
X131663922Y-96238478I0J-2600000D01*
G01*
X135340878Y-96238478D02*
G75*
G03*
X133502400Y-91800000I-1838478J1838478D01*
G01*
%TO.C,Q6*%
X158372400Y-96250000D02*
X161972400Y-96250000D01*
X160172400Y-91800000D02*
G75*
G03*
X158333922Y-96238478I0J-2600000D01*
G01*
X162010878Y-96238478D02*
G75*
G03*
X160172400Y-91800000I-1838478J1838478D01*
G01*
%TO.C,Q7*%
X186210800Y-96250000D02*
X189810800Y-96250000D01*
X188010800Y-91800000D02*
G75*
G03*
X186172322Y-96238478I0J-2600000D01*
G01*
X189849278Y-96238478D02*
G75*
G03*
X188010800Y-91800000I-1838478J1838478D01*
G01*
%TO.C,Q12*%
X128844400Y-109370000D02*
X128844400Y-105770000D01*
X124394400Y-107570000D02*
G75*
G03*
X128832878Y-109408478I2600000J0D01*
G01*
X128832878Y-105731522D02*
G75*
G03*
X124394400Y-107570000I-1838478J-1838478D01*
G01*
%TO.C,Q13*%
X135204400Y-109370000D02*
X135204400Y-105770000D01*
X130754400Y-107570000D02*
G75*
G03*
X135192878Y-109408478I2600000J0D01*
G01*
X135192878Y-105731522D02*
G75*
G03*
X130754400Y-107570000I-1838478J-1838478D01*
G01*
%TO.C,Q14*%
X141554400Y-109370000D02*
X141554400Y-105770000D01*
X137104400Y-107570000D02*
G75*
G03*
X141542878Y-109408478I2600000J0D01*
G01*
X141542878Y-105731522D02*
G75*
G03*
X137104400Y-107570000I-1838478J-1838478D01*
G01*
%TO.C,Q15*%
X147904400Y-109370000D02*
X147904400Y-105770000D01*
X143454400Y-107570000D02*
G75*
G03*
X147892878Y-109408478I2600000J0D01*
G01*
X147892878Y-105731522D02*
G75*
G03*
X143454400Y-107570000I-1838478J-1838478D01*
G01*
%TO.C,Q16*%
X154254400Y-109370000D02*
X154254400Y-105770000D01*
X149804400Y-107570000D02*
G75*
G03*
X154242878Y-109408478I2600000J0D01*
G01*
X154242878Y-105731522D02*
G75*
G03*
X149804400Y-107570000I-1838478J-1838478D01*
G01*
%TO.C,Q17*%
X116154400Y-109370000D02*
X116154400Y-105770000D01*
X111704400Y-107570000D02*
G75*
G03*
X116142878Y-109408478I2600000J0D01*
G01*
X116142878Y-105731522D02*
G75*
G03*
X111704400Y-107570000I-1838478J-1838478D01*
G01*
%TO.C,Q18*%
X109804400Y-109370000D02*
X109804400Y-105770000D01*
X105354400Y-107570000D02*
G75*
G03*
X109792878Y-109408478I2600000J0D01*
G01*
X109792878Y-105731522D02*
G75*
G03*
X105354400Y-107570000I-1838478J-1838478D01*
G01*
%TO.C,Q19*%
X122494400Y-109370000D02*
X122494400Y-105770000D01*
X118044400Y-107570000D02*
G75*
G03*
X122482878Y-109408478I2600000J0D01*
G01*
X122482878Y-105731522D02*
G75*
G03*
X118044400Y-107570000I-1838478J-1838478D01*
G01*
%TO.C,Q20*%
X103444400Y-109370000D02*
X103444400Y-105770000D01*
X98994400Y-107570000D02*
G75*
G03*
X103432878Y-109408478I2600000J0D01*
G01*
X103432878Y-105731522D02*
G75*
G03*
X98994400Y-107570000I-1838478J-1838478D01*
G01*
%TO.C,Q21*%
X97084400Y-109370000D02*
X97084400Y-105770000D01*
X92634400Y-107570000D02*
G75*
G03*
X97072878Y-109408478I2600000J0D01*
G01*
X97072878Y-105731522D02*
G75*
G03*
X92634400Y-107570000I-1838478J-1838478D01*
G01*
%TO.C,R1*%
X107604800Y-84424000D02*
X111444800Y-84424000D01*
X107604800Y-86264000D02*
X111444800Y-86264000D01*
%TO.C,R2*%
X173086000Y-84728800D02*
X176926000Y-84728800D01*
X173086000Y-86568800D02*
X176926000Y-86568800D01*
%TO.C,R3*%
X137780000Y-78988400D02*
X141620000Y-78988400D01*
X137780000Y-80828400D02*
X141620000Y-80828400D01*
%TO.C,R4*%
X137780000Y-82442800D02*
X141620000Y-82442800D01*
X137780000Y-84282800D02*
X141620000Y-84282800D01*
%TO.C,R5*%
X107655600Y-88030800D02*
X111495600Y-88030800D01*
X107655600Y-89870800D02*
X111495600Y-89870800D01*
%TO.C,R6*%
X107604800Y-80817200D02*
X111444800Y-80817200D01*
X107604800Y-82657200D02*
X111444800Y-82657200D01*
%TO.C,R7*%
X173086000Y-81071200D02*
X176926000Y-81071200D01*
X173086000Y-82911200D02*
X176926000Y-82911200D01*
%TO.C,R8*%
X129702800Y-82442800D02*
X133542800Y-82442800D01*
X129702800Y-84282800D02*
X133542800Y-84282800D01*
%TO.C,R9*%
X107604800Y-77261200D02*
X111444800Y-77261200D01*
X107604800Y-79101200D02*
X111444800Y-79101200D01*
%TO.C,R10*%
X194794000Y-86868000D02*
X194104000Y-86868000D01*
X194104000Y-88588000D02*
X194104000Y-85148000D01*
X194104000Y-85148000D02*
X184864000Y-85148000D01*
X184864000Y-88588000D02*
X194104000Y-88588000D01*
X184864000Y-85148000D02*
X184864000Y-88588000D01*
X184174000Y-86868000D02*
X184864000Y-86868000D01*
%TO.C,R11*%
X129702800Y-78988400D02*
X133542800Y-78988400D01*
X129702800Y-80828400D02*
X133542800Y-80828400D01*
%TO.C,R13*%
X186602312Y-73050400D02*
X187372312Y-73050400D01*
X187372312Y-71680400D02*
X187372312Y-74420400D01*
X187372312Y-74420400D02*
X193912312Y-74420400D01*
X193912312Y-71680400D02*
X187372312Y-71680400D01*
X193912312Y-74420400D02*
X193912312Y-71680400D01*
X194682312Y-73050400D02*
X193912312Y-73050400D01*
%TO.C,R14*%
X142960000Y-99900000D02*
X142270000Y-99900000D01*
X142270000Y-101620000D02*
X142270000Y-98180000D01*
X142270000Y-98180000D02*
X133030000Y-98180000D01*
X133030000Y-101620000D02*
X142270000Y-101620000D01*
X133030000Y-98180000D02*
X133030000Y-101620000D01*
X132340000Y-99900000D02*
X133030000Y-99900000D01*
%TO.C,R15*%
X186866400Y-99900000D02*
X187556400Y-99900000D01*
X187556400Y-98180000D02*
X187556400Y-101620000D01*
X187556400Y-101620000D02*
X196796400Y-101620000D01*
X196796400Y-98180000D02*
X187556400Y-98180000D01*
X196796400Y-101620000D02*
X196796400Y-98180000D01*
X197486400Y-99900000D02*
X196796400Y-99900000D01*
%TO.C,R16*%
X114960000Y-99900000D02*
X114270000Y-99900000D01*
X114270000Y-101620000D02*
X114270000Y-98180000D01*
X114270000Y-98180000D02*
X105030000Y-98180000D01*
X105030000Y-101620000D02*
X114270000Y-101620000D01*
X105030000Y-98180000D02*
X105030000Y-101620000D01*
X104340000Y-99900000D02*
X105030000Y-99900000D01*
%TO.C,R17*%
X169546400Y-99900000D02*
X168856400Y-99900000D01*
X168856400Y-101620000D02*
X168856400Y-98180000D01*
X168856400Y-98180000D02*
X159616400Y-98180000D01*
X159616400Y-101620000D02*
X168856400Y-101620000D01*
X159616400Y-98180000D02*
X159616400Y-101620000D01*
X158926400Y-99900000D02*
X159616400Y-99900000D01*
%TO.C,U1*%
X158202000Y-71202800D02*
X158202000Y-75843800D01*
X158202000Y-71202800D02*
X168442000Y-71202800D01*
X158202000Y-72712800D02*
X168442000Y-72712800D01*
X158202000Y-75843800D02*
X168442000Y-75843800D01*
X161472000Y-71202800D02*
X161472000Y-72712800D01*
X165173000Y-71202800D02*
X165173000Y-72712800D01*
X168442000Y-71202800D02*
X168442000Y-75843800D01*
%TO.C,U2*%
X168563600Y-81271600D02*
X158283600Y-81271600D01*
X158283600Y-81271600D02*
X158283600Y-86571600D01*
X168563600Y-82921600D02*
X168563600Y-81271600D01*
X168563600Y-86571600D02*
X168563600Y-84921600D01*
X158283600Y-86571600D02*
X168563600Y-86571600D01*
X168563600Y-82921600D02*
G75*
G03*
X168563600Y-84921600I0J-1000000D01*
G01*
%TO.C,U3*%
X125739200Y-80865200D02*
X115459200Y-80865200D01*
X115459200Y-80865200D02*
X115459200Y-86165200D01*
X125739200Y-82515200D02*
X125739200Y-80865200D01*
X125739200Y-86165200D02*
X125739200Y-84515200D01*
X115459200Y-86165200D02*
X125739200Y-86165200D01*
X125739200Y-82515200D02*
G75*
G03*
X125739200Y-84515200I0J-1000000D01*
G01*
%TO.C,U4*%
X130860800Y-71912800D02*
X127410800Y-71912800D01*
X130860800Y-71912800D02*
X132810800Y-71912800D01*
X130860800Y-77032800D02*
X128910800Y-77032800D01*
X130860800Y-77032800D02*
X132810800Y-77032800D01*
%TO.C,U5*%
X111770000Y-114590000D02*
X91330000Y-114590000D01*
X91330000Y-114590000D02*
X91330000Y-119890000D01*
X111770000Y-116240000D02*
X111770000Y-114590000D01*
X111770000Y-119890000D02*
X111770000Y-118240000D01*
X91330000Y-119890000D02*
X111770000Y-119890000D01*
X111770000Y-116240000D02*
G75*
G03*
X111770000Y-118240000I0J-1000000D01*
G01*
%TO.C,U6*%
X176691600Y-114590000D02*
X156251600Y-114590000D01*
X156251600Y-114590000D02*
X156251600Y-119890000D01*
X176691600Y-116240000D02*
X176691600Y-114590000D01*
X176691600Y-119890000D02*
X176691600Y-118240000D01*
X156251600Y-119890000D02*
X176691600Y-119890000D01*
X176691600Y-116240000D02*
G75*
G03*
X176691600Y-118240000I0J-1000000D01*
G01*
%TO.C,U7*%
X79773000Y-76381000D02*
X79773000Y-96821000D01*
X79773000Y-96821000D02*
X85073000Y-96821000D01*
X81423000Y-76381000D02*
X79773000Y-76381000D01*
X85073000Y-76381000D02*
X83423000Y-76381000D01*
X85073000Y-96821000D02*
X85073000Y-76381000D01*
X81423000Y-76381000D02*
G75*
G03*
X83423000Y-76381000I1000000J0D01*
G01*
%TO.C,Q2*%
X99647600Y-87600400D02*
X103247600Y-87600400D01*
X101447600Y-83150400D02*
G75*
G03*
X99609122Y-87588878I0J-2600000D01*
G01*
X103286078Y-87588878D02*
G75*
G03*
X101447600Y-83150400I-1838478J1838478D01*
G01*
%TO.C,C3*%
X217074051Y-85365800D02*
X217874051Y-85365800D01*
X217474051Y-84965800D02*
X217474051Y-85765800D01*
X221483749Y-83600800D02*
X221483749Y-91760800D01*
X221523749Y-83600800D02*
X221523749Y-91760800D01*
X221563749Y-83600800D02*
X221563749Y-91760800D01*
X221603749Y-83601800D02*
X221603749Y-91759800D01*
X221643749Y-83603800D02*
X221643749Y-91757800D01*
X221683749Y-83604800D02*
X221683749Y-91756800D01*
X221723749Y-83606800D02*
X221723749Y-91754800D01*
X221763749Y-83609800D02*
X221763749Y-91751800D01*
X221803749Y-83612800D02*
X221803749Y-91748800D01*
X221843749Y-83615800D02*
X221843749Y-91745800D01*
X221883749Y-83619800D02*
X221883749Y-91741800D01*
X221923749Y-83623800D02*
X221923749Y-91737800D01*
X221963749Y-83628800D02*
X221963749Y-91732800D01*
X222003749Y-83632800D02*
X222003749Y-91728800D01*
X222043749Y-83638800D02*
X222043749Y-91722800D01*
X222083749Y-83643800D02*
X222083749Y-91717800D01*
X222123749Y-83650800D02*
X222123749Y-91710800D01*
X222163749Y-83656800D02*
X222163749Y-91704800D01*
X222204749Y-83663800D02*
X222204749Y-86640800D01*
X222204749Y-88720800D02*
X222204749Y-91697800D01*
X222244749Y-83670800D02*
X222244749Y-86640800D01*
X222244749Y-88720800D02*
X222244749Y-91690800D01*
X222284749Y-83678800D02*
X222284749Y-86640800D01*
X222284749Y-88720800D02*
X222284749Y-91682800D01*
X222324749Y-83686800D02*
X222324749Y-86640800D01*
X222324749Y-88720800D02*
X222324749Y-91674800D01*
X222364749Y-83695800D02*
X222364749Y-86640800D01*
X222364749Y-88720800D02*
X222364749Y-91665800D01*
X222404749Y-83704800D02*
X222404749Y-86640800D01*
X222404749Y-88720800D02*
X222404749Y-91656800D01*
X222444749Y-83713800D02*
X222444749Y-86640800D01*
X222444749Y-88720800D02*
X222444749Y-91647800D01*
X222484749Y-83723800D02*
X222484749Y-86640800D01*
X222484749Y-88720800D02*
X222484749Y-91637800D01*
X222524749Y-83733800D02*
X222524749Y-86640800D01*
X222524749Y-88720800D02*
X222524749Y-91627800D01*
X222564749Y-83744800D02*
X222564749Y-86640800D01*
X222564749Y-88720800D02*
X222564749Y-91616800D01*
X222604749Y-83755800D02*
X222604749Y-86640800D01*
X222604749Y-88720800D02*
X222604749Y-91605800D01*
X222644749Y-83766800D02*
X222644749Y-86640800D01*
X222644749Y-88720800D02*
X222644749Y-91594800D01*
X222684749Y-83778800D02*
X222684749Y-86640800D01*
X222684749Y-88720800D02*
X222684749Y-91582800D01*
X222724749Y-83791800D02*
X222724749Y-86640800D01*
X222724749Y-88720800D02*
X222724749Y-91569800D01*
X222764749Y-83803800D02*
X222764749Y-86640800D01*
X222764749Y-88720800D02*
X222764749Y-91557800D01*
X222804749Y-83817800D02*
X222804749Y-86640800D01*
X222804749Y-88720800D02*
X222804749Y-91543800D01*
X222844749Y-83830800D02*
X222844749Y-86640800D01*
X222844749Y-88720800D02*
X222844749Y-91530800D01*
X222884749Y-83845800D02*
X222884749Y-86640800D01*
X222884749Y-88720800D02*
X222884749Y-91515800D01*
X222924749Y-83859800D02*
X222924749Y-86640800D01*
X222924749Y-88720800D02*
X222924749Y-91501800D01*
X222964749Y-83875800D02*
X222964749Y-86640800D01*
X222964749Y-88720800D02*
X222964749Y-91485800D01*
X223004749Y-83890800D02*
X223004749Y-86640800D01*
X223004749Y-88720800D02*
X223004749Y-91470800D01*
X223044749Y-83906800D02*
X223044749Y-86640800D01*
X223044749Y-88720800D02*
X223044749Y-91454800D01*
X223084749Y-83923800D02*
X223084749Y-86640800D01*
X223084749Y-88720800D02*
X223084749Y-91437800D01*
X223124749Y-83940800D02*
X223124749Y-86640800D01*
X223124749Y-88720800D02*
X223124749Y-91420800D01*
X223164749Y-83958800D02*
X223164749Y-86640800D01*
X223164749Y-88720800D02*
X223164749Y-91402800D01*
X223204749Y-83976800D02*
X223204749Y-86640800D01*
X223204749Y-88720800D02*
X223204749Y-91384800D01*
X223244749Y-83994800D02*
X223244749Y-86640800D01*
X223244749Y-88720800D02*
X223244749Y-91366800D01*
X223284749Y-84014800D02*
X223284749Y-86640800D01*
X223284749Y-88720800D02*
X223284749Y-91346800D01*
X223324749Y-84033800D02*
X223324749Y-86640800D01*
X223324749Y-88720800D02*
X223324749Y-91327800D01*
X223364749Y-84053800D02*
X223364749Y-86640800D01*
X223364749Y-88720800D02*
X223364749Y-91307800D01*
X223404749Y-84074800D02*
X223404749Y-86640800D01*
X223404749Y-88720800D02*
X223404749Y-91286800D01*
X223444749Y-84096800D02*
X223444749Y-86640800D01*
X223444749Y-88720800D02*
X223444749Y-91264800D01*
X223484749Y-84118800D02*
X223484749Y-86640800D01*
X223484749Y-88720800D02*
X223484749Y-91242800D01*
X223524749Y-84140800D02*
X223524749Y-86640800D01*
X223524749Y-88720800D02*
X223524749Y-91220800D01*
X223564749Y-84163800D02*
X223564749Y-86640800D01*
X223564749Y-88720800D02*
X223564749Y-91197800D01*
X223604749Y-84187800D02*
X223604749Y-86640800D01*
X223604749Y-88720800D02*
X223604749Y-91173800D01*
X223644749Y-84211800D02*
X223644749Y-86640800D01*
X223644749Y-88720800D02*
X223644749Y-91149800D01*
X223684749Y-84236800D02*
X223684749Y-86640800D01*
X223684749Y-88720800D02*
X223684749Y-91124800D01*
X223724749Y-84262800D02*
X223724749Y-86640800D01*
X223724749Y-88720800D02*
X223724749Y-91098800D01*
X223764749Y-84288800D02*
X223764749Y-86640800D01*
X223764749Y-88720800D02*
X223764749Y-91072800D01*
X223804749Y-84315800D02*
X223804749Y-86640800D01*
X223804749Y-88720800D02*
X223804749Y-91045800D01*
X223844749Y-84342800D02*
X223844749Y-86640800D01*
X223844749Y-88720800D02*
X223844749Y-91018800D01*
X223884749Y-84371800D02*
X223884749Y-86640800D01*
X223884749Y-88720800D02*
X223884749Y-90989800D01*
X223924749Y-84400800D02*
X223924749Y-86640800D01*
X223924749Y-88720800D02*
X223924749Y-90960800D01*
X223964749Y-84430800D02*
X223964749Y-86640800D01*
X223964749Y-88720800D02*
X223964749Y-90930800D01*
X224004749Y-84460800D02*
X224004749Y-86640800D01*
X224004749Y-88720800D02*
X224004749Y-90900800D01*
X224044749Y-84491800D02*
X224044749Y-86640800D01*
X224044749Y-88720800D02*
X224044749Y-90869800D01*
X224084749Y-84524800D02*
X224084749Y-86640800D01*
X224084749Y-88720800D02*
X224084749Y-90836800D01*
X224124749Y-84556800D02*
X224124749Y-86640800D01*
X224124749Y-88720800D02*
X224124749Y-90804800D01*
X224164749Y-84590800D02*
X224164749Y-86640800D01*
X224164749Y-88720800D02*
X224164749Y-90770800D01*
X224204749Y-84625800D02*
X224204749Y-86640800D01*
X224204749Y-88720800D02*
X224204749Y-90735800D01*
X224244749Y-84661800D02*
X224244749Y-86640800D01*
X224244749Y-88720800D02*
X224244749Y-90699800D01*
X224284749Y-84697800D02*
X224284749Y-90663800D01*
X224324749Y-84735800D02*
X224324749Y-90625800D01*
X224364749Y-84773800D02*
X224364749Y-90587800D01*
X224404749Y-84813800D02*
X224404749Y-90547800D01*
X224444749Y-84854800D02*
X224444749Y-90506800D01*
X224484749Y-84896800D02*
X224484749Y-90464800D01*
X224524749Y-84939800D02*
X224524749Y-90421800D01*
X224564749Y-84983800D02*
X224564749Y-90377800D01*
X224604749Y-85029800D02*
X224604749Y-90331800D01*
X224644749Y-85076800D02*
X224644749Y-90284800D01*
X224684749Y-85124800D02*
X224684749Y-90236800D01*
X224724749Y-85175800D02*
X224724749Y-90185800D01*
X224764749Y-85226800D02*
X224764749Y-90134800D01*
X224804749Y-85280800D02*
X224804749Y-90080800D01*
X224844749Y-85335800D02*
X224844749Y-90025800D01*
X224884749Y-85393800D02*
X224884749Y-89967800D01*
X224924749Y-85452800D02*
X224924749Y-89908800D01*
X224964749Y-85514800D02*
X224964749Y-89846800D01*
X225004749Y-85578800D02*
X225004749Y-89782800D01*
X225044749Y-85646800D02*
X225044749Y-89714800D01*
X225084749Y-85716800D02*
X225084749Y-89644800D01*
X225124749Y-85790800D02*
X225124749Y-89570800D01*
X225164749Y-85867800D02*
X225164749Y-89493800D01*
X225204749Y-85949800D02*
X225204749Y-89411800D01*
X225244749Y-86035800D02*
X225244749Y-89325800D01*
X225284749Y-86128800D02*
X225284749Y-89232800D01*
X225324749Y-86227800D02*
X225324749Y-89133800D01*
X225364749Y-86334800D02*
X225364749Y-89026800D01*
X225404749Y-86451800D02*
X225404749Y-88909800D01*
X225444749Y-86582800D02*
X225444749Y-88778800D01*
X225484749Y-86732800D02*
X225484749Y-88628800D01*
X225524749Y-86912800D02*
X225524749Y-88448800D01*
X225564749Y-87147800D02*
X225564749Y-88213800D01*
X225603749Y-87680800D02*
G75*
G03*
X225603749Y-87680800I-4120000J0D01*
G01*
%TO.C,J9*%
X172400000Y-102200000D02*
X172400000Y-90200000D01*
X172400000Y-102200000D02*
X184400000Y-102200000D01*
X184400000Y-90200000D02*
X172400000Y-90200000D01*
X184400000Y-102200000D02*
X184400000Y-90200000D01*
%TO.C,R19*%
X193456800Y-93480000D02*
X197296800Y-93480000D01*
X193456800Y-95320000D02*
X197296800Y-95320000D01*
%TO.C,C2*%
X183361225Y-78281000D02*
X183861225Y-78281000D01*
X183611225Y-78031000D02*
X183611225Y-78531000D01*
X186166000Y-77176000D02*
X186166000Y-78716000D01*
X186166000Y-80796000D02*
X186166000Y-82336000D01*
X186206000Y-77176000D02*
X186206000Y-78716000D01*
X186206000Y-80796000D02*
X186206000Y-82336000D01*
X186246000Y-77177000D02*
X186246000Y-78716000D01*
X186246000Y-80796000D02*
X186246000Y-82335000D01*
X186286000Y-77178000D02*
X186286000Y-78716000D01*
X186286000Y-80796000D02*
X186286000Y-82334000D01*
X186326000Y-77180000D02*
X186326000Y-78716000D01*
X186326000Y-80796000D02*
X186326000Y-82332000D01*
X186366000Y-77183000D02*
X186366000Y-78716000D01*
X186366000Y-80796000D02*
X186366000Y-82329000D01*
X186406000Y-77187000D02*
X186406000Y-78716000D01*
X186406000Y-80796000D02*
X186406000Y-82325000D01*
X186446000Y-77191000D02*
X186446000Y-78716000D01*
X186446000Y-80796000D02*
X186446000Y-82321000D01*
X186486000Y-77195000D02*
X186486000Y-78716000D01*
X186486000Y-80796000D02*
X186486000Y-82317000D01*
X186526000Y-77200000D02*
X186526000Y-78716000D01*
X186526000Y-80796000D02*
X186526000Y-82312000D01*
X186566000Y-77206000D02*
X186566000Y-78716000D01*
X186566000Y-80796000D02*
X186566000Y-82306000D01*
X186606000Y-77213000D02*
X186606000Y-78716000D01*
X186606000Y-80796000D02*
X186606000Y-82299000D01*
X186646000Y-77220000D02*
X186646000Y-78716000D01*
X186646000Y-80796000D02*
X186646000Y-82292000D01*
X186686000Y-77228000D02*
X186686000Y-78716000D01*
X186686000Y-80796000D02*
X186686000Y-82284000D01*
X186726000Y-77236000D02*
X186726000Y-78716000D01*
X186726000Y-80796000D02*
X186726000Y-82276000D01*
X186766000Y-77245000D02*
X186766000Y-78716000D01*
X186766000Y-80796000D02*
X186766000Y-82267000D01*
X186806000Y-77255000D02*
X186806000Y-78716000D01*
X186806000Y-80796000D02*
X186806000Y-82257000D01*
X186846000Y-77265000D02*
X186846000Y-78716000D01*
X186846000Y-80796000D02*
X186846000Y-82247000D01*
X186887000Y-77276000D02*
X186887000Y-78716000D01*
X186887000Y-80796000D02*
X186887000Y-82236000D01*
X186927000Y-77288000D02*
X186927000Y-78716000D01*
X186927000Y-80796000D02*
X186927000Y-82224000D01*
X186967000Y-77301000D02*
X186967000Y-78716000D01*
X186967000Y-80796000D02*
X186967000Y-82211000D01*
X187007000Y-77314000D02*
X187007000Y-78716000D01*
X187007000Y-80796000D02*
X187007000Y-82198000D01*
X187047000Y-77328000D02*
X187047000Y-78716000D01*
X187047000Y-80796000D02*
X187047000Y-82184000D01*
X187087000Y-77342000D02*
X187087000Y-78716000D01*
X187087000Y-80796000D02*
X187087000Y-82170000D01*
X187127000Y-77358000D02*
X187127000Y-78716000D01*
X187127000Y-80796000D02*
X187127000Y-82154000D01*
X187167000Y-77374000D02*
X187167000Y-78716000D01*
X187167000Y-80796000D02*
X187167000Y-82138000D01*
X187207000Y-77391000D02*
X187207000Y-78716000D01*
X187207000Y-80796000D02*
X187207000Y-82121000D01*
X187247000Y-77408000D02*
X187247000Y-78716000D01*
X187247000Y-80796000D02*
X187247000Y-82104000D01*
X187287000Y-77427000D02*
X187287000Y-78716000D01*
X187287000Y-80796000D02*
X187287000Y-82085000D01*
X187327000Y-77446000D02*
X187327000Y-78716000D01*
X187327000Y-80796000D02*
X187327000Y-82066000D01*
X187367000Y-77466000D02*
X187367000Y-78716000D01*
X187367000Y-80796000D02*
X187367000Y-82046000D01*
X187407000Y-77488000D02*
X187407000Y-78716000D01*
X187407000Y-80796000D02*
X187407000Y-82024000D01*
X187447000Y-77509000D02*
X187447000Y-78716000D01*
X187447000Y-80796000D02*
X187447000Y-82003000D01*
X187487000Y-77532000D02*
X187487000Y-78716000D01*
X187487000Y-80796000D02*
X187487000Y-81980000D01*
X187527000Y-77556000D02*
X187527000Y-78716000D01*
X187527000Y-80796000D02*
X187527000Y-81956000D01*
X187567000Y-77581000D02*
X187567000Y-78716000D01*
X187567000Y-80796000D02*
X187567000Y-81931000D01*
X187607000Y-77607000D02*
X187607000Y-78716000D01*
X187607000Y-80796000D02*
X187607000Y-81905000D01*
X187647000Y-77634000D02*
X187647000Y-78716000D01*
X187647000Y-80796000D02*
X187647000Y-81878000D01*
X187687000Y-77661000D02*
X187687000Y-78716000D01*
X187687000Y-80796000D02*
X187687000Y-81851000D01*
X187727000Y-77691000D02*
X187727000Y-78716000D01*
X187727000Y-80796000D02*
X187727000Y-81821000D01*
X187767000Y-77721000D02*
X187767000Y-78716000D01*
X187767000Y-80796000D02*
X187767000Y-81791000D01*
X187807000Y-77752000D02*
X187807000Y-78716000D01*
X187807000Y-80796000D02*
X187807000Y-81760000D01*
X187847000Y-77785000D02*
X187847000Y-78716000D01*
X187847000Y-80796000D02*
X187847000Y-81727000D01*
X187887000Y-77819000D02*
X187887000Y-78716000D01*
X187887000Y-80796000D02*
X187887000Y-81693000D01*
X187927000Y-77855000D02*
X187927000Y-78716000D01*
X187927000Y-80796000D02*
X187927000Y-81657000D01*
X187967000Y-77892000D02*
X187967000Y-78716000D01*
X187967000Y-80796000D02*
X187967000Y-81620000D01*
X188007000Y-77930000D02*
X188007000Y-78716000D01*
X188007000Y-80796000D02*
X188007000Y-81582000D01*
X188047000Y-77971000D02*
X188047000Y-78716000D01*
X188047000Y-80796000D02*
X188047000Y-81541000D01*
X188087000Y-78013000D02*
X188087000Y-78716000D01*
X188087000Y-80796000D02*
X188087000Y-81499000D01*
X188127000Y-78057000D02*
X188127000Y-78716000D01*
X188127000Y-80796000D02*
X188127000Y-81455000D01*
X188167000Y-78103000D02*
X188167000Y-78716000D01*
X188167000Y-80796000D02*
X188167000Y-81409000D01*
X188207000Y-78151000D02*
X188207000Y-81361000D01*
X188247000Y-78202000D02*
X188247000Y-81310000D01*
X188287000Y-78256000D02*
X188287000Y-81256000D01*
X188327000Y-78313000D02*
X188327000Y-81199000D01*
X188367000Y-78373000D02*
X188367000Y-81139000D01*
X188407000Y-78437000D02*
X188407000Y-81075000D01*
X188447000Y-78505000D02*
X188447000Y-81007000D01*
X188487000Y-78578000D02*
X188487000Y-80934000D01*
X188527000Y-78658000D02*
X188527000Y-80854000D01*
X188567000Y-78745000D02*
X188567000Y-80767000D01*
X188607000Y-78841000D02*
X188607000Y-80671000D01*
X188647000Y-78951000D02*
X188647000Y-80561000D01*
X188687000Y-79079000D02*
X188687000Y-80433000D01*
X188727000Y-79238000D02*
X188727000Y-80274000D01*
X188767000Y-79472000D02*
X188767000Y-80040000D01*
X188786000Y-79756000D02*
G75*
G03*
X188786000Y-79756000I-2620000J0D01*
G01*
%TO.C,R21*%
X165770800Y-93480000D02*
X169610800Y-93480000D01*
X165770800Y-95320000D02*
X169610800Y-95320000D01*
%TO.C,R12*%
X197012800Y-117748800D02*
X200852800Y-117748800D01*
X197012800Y-119588800D02*
X200852800Y-119588800D01*
%TO.C,J10*%
X199900000Y-102200000D02*
X199900000Y-90200000D01*
X199900000Y-102200000D02*
X211900000Y-102200000D01*
X211900000Y-90200000D02*
X199900000Y-90200000D01*
X211900000Y-102200000D02*
X211900000Y-90200000D01*
%TO.C,U9*%
X79773000Y-99381000D02*
X79773000Y-117281000D01*
X79773000Y-117281000D02*
X85073000Y-117281000D01*
X81423000Y-99381000D02*
X79773000Y-99381000D01*
X85073000Y-99381000D02*
X83423000Y-99381000D01*
X85073000Y-117281000D02*
X85073000Y-99381000D01*
X81423000Y-99381000D02*
G75*
G03*
X83423000Y-99381000I1000000J0D01*
G01*
%TO.C,G1*%
G36*
X183124096Y-110841643D02*
G01*
X183437628Y-110841643D01*
X183443975Y-110978461D01*
X183470369Y-111187215D01*
X183514891Y-111389532D01*
X183577077Y-111584581D01*
X183656465Y-111771530D01*
X183752589Y-111949546D01*
X183864986Y-112117799D01*
X183993193Y-112275456D01*
X184136746Y-112421686D01*
X184295181Y-112555657D01*
X184343430Y-112591795D01*
X184384962Y-112620906D01*
X184432146Y-112652100D01*
X184482160Y-112683724D01*
X184532185Y-112714126D01*
X184579400Y-112741654D01*
X184620986Y-112764655D01*
X184654120Y-112781476D01*
X184675984Y-112790467D01*
X184683407Y-112790971D01*
X184686790Y-112781348D01*
X184695492Y-112754633D01*
X184709020Y-112712392D01*
X184726881Y-112656185D01*
X184748579Y-112587577D01*
X184773622Y-112508131D01*
X184801515Y-112419409D01*
X184831763Y-112322974D01*
X184863874Y-112220389D01*
X184875195Y-112184173D01*
X185063826Y-111580532D01*
X184981815Y-111502902D01*
X184891800Y-111404912D01*
X184817805Y-111297610D01*
X184760054Y-111182836D01*
X184718771Y-111062433D01*
X184694177Y-110938242D01*
X184686496Y-110812104D01*
X184695951Y-110685862D01*
X184722765Y-110561355D01*
X184767162Y-110440427D01*
X184829362Y-110324918D01*
X184837628Y-110312125D01*
X184881679Y-110252878D01*
X184936868Y-110190310D01*
X184997924Y-110129694D01*
X185059572Y-110076304D01*
X185110315Y-110039365D01*
X185211997Y-109983013D01*
X185323564Y-109937834D01*
X185439645Y-109905451D01*
X185554867Y-109887489D01*
X185623200Y-109884307D01*
X185735211Y-109892560D01*
X185851397Y-109916236D01*
X185966384Y-109953711D01*
X186074801Y-110003361D01*
X186136084Y-110039365D01*
X186193868Y-110081981D01*
X186255718Y-110136483D01*
X186316362Y-110197598D01*
X186370525Y-110260051D01*
X186408771Y-110312125D01*
X186473030Y-110426904D01*
X186519456Y-110547309D01*
X186548272Y-110671500D01*
X186559702Y-110797636D01*
X186553967Y-110923879D01*
X186531291Y-111048386D01*
X186491897Y-111169319D01*
X186436008Y-111284838D01*
X186363847Y-111393101D01*
X186275636Y-111492269D01*
X186264505Y-111502977D01*
X186182416Y-111580681D01*
X186352264Y-112122167D01*
X186383929Y-112223163D01*
X186414365Y-112320319D01*
X186442972Y-112411722D01*
X186469154Y-112495458D01*
X186492312Y-112569615D01*
X186511850Y-112632277D01*
X186527169Y-112681533D01*
X186537672Y-112715468D01*
X186541975Y-112729536D01*
X186561838Y-112795419D01*
X186622499Y-112765056D01*
X186775196Y-112678985D01*
X186924809Y-112575839D01*
X187068412Y-112458084D01*
X187203082Y-112328183D01*
X187325893Y-112188600D01*
X187363193Y-112141000D01*
X187478981Y-111973027D01*
X187577567Y-111797051D01*
X187658832Y-111614346D01*
X187722656Y-111426185D01*
X187768921Y-111233841D01*
X187797508Y-111038588D01*
X187808297Y-110841699D01*
X187801169Y-110644447D01*
X187776005Y-110448106D01*
X187732685Y-110253950D01*
X187671091Y-110063251D01*
X187591103Y-109877284D01*
X187577631Y-109850115D01*
X187474161Y-109665835D01*
X187356675Y-109495034D01*
X187225558Y-109338063D01*
X187081193Y-109195272D01*
X186923962Y-109067011D01*
X186754251Y-108953629D01*
X186572441Y-108855476D01*
X186410534Y-108785007D01*
X186228167Y-108722978D01*
X186042564Y-108678574D01*
X185851286Y-108651349D01*
X185651897Y-108640856D01*
X185623200Y-108640697D01*
X185415653Y-108649627D01*
X185215199Y-108676525D01*
X185020885Y-108721557D01*
X184870969Y-108770105D01*
X184741434Y-108823633D01*
X184606923Y-108890546D01*
X184472919Y-108967729D01*
X184344909Y-109052066D01*
X184250623Y-109122496D01*
X184103212Y-109251775D01*
X183968678Y-109394705D01*
X183847701Y-109549719D01*
X183740962Y-109715251D01*
X183649141Y-109889736D01*
X183572918Y-110071607D01*
X183512976Y-110259300D01*
X183469993Y-110451247D01*
X183444650Y-110645884D01*
X183437628Y-110841643D01*
X183124096Y-110841643D01*
X183129216Y-110646615D01*
X183154257Y-110425648D01*
X183181945Y-110276805D01*
X183228315Y-110100756D01*
X183291488Y-109922216D01*
X183369699Y-109744783D01*
X183461186Y-109572055D01*
X183564185Y-109407629D01*
X183676932Y-109255102D01*
X183691646Y-109237024D01*
X183797974Y-109117491D01*
X183918756Y-108998668D01*
X184049219Y-108884749D01*
X184184591Y-108779932D01*
X184304353Y-108698322D01*
X184354183Y-108668741D01*
X184417364Y-108634387D01*
X184489060Y-108597623D01*
X184564433Y-108560809D01*
X184638648Y-108526308D01*
X184706867Y-108496482D01*
X184764252Y-108473693D01*
X184764632Y-108473554D01*
X184858161Y-108442261D01*
X184964278Y-108411811D01*
X185076055Y-108383977D01*
X185186563Y-108360532D01*
X185251969Y-108348885D01*
X185339026Y-108337878D01*
X185440040Y-108330366D01*
X185549743Y-108326348D01*
X185662869Y-108325824D01*
X185774151Y-108328795D01*
X185878322Y-108335260D01*
X185970115Y-108345219D01*
X185994430Y-108348885D01*
X186178017Y-108384564D01*
X186349997Y-108430548D01*
X186516410Y-108488752D01*
X186683298Y-108561094D01*
X186722238Y-108579863D01*
X186894532Y-108672029D01*
X187053126Y-108773446D01*
X187202832Y-108887492D01*
X187348467Y-109017543D01*
X187354270Y-109023120D01*
X187508858Y-109185225D01*
X187646743Y-109357426D01*
X187767796Y-109539475D01*
X187871889Y-109731125D01*
X187958896Y-109932131D01*
X188028690Y-110142245D01*
X188081142Y-110361220D01*
X188099795Y-110467305D01*
X188108475Y-110537638D01*
X188115184Y-110621705D01*
X188119764Y-110713787D01*
X188122059Y-110808163D01*
X188121910Y-110899114D01*
X188119159Y-110980919D01*
X188115358Y-111032192D01*
X188084795Y-111254065D01*
X188037518Y-111466711D01*
X187973037Y-111671390D01*
X187890863Y-111869358D01*
X187790508Y-112061873D01*
X187671481Y-112250192D01*
X187606123Y-112341413D01*
X187525178Y-112441410D01*
X187429619Y-112544670D01*
X187323203Y-112647802D01*
X187209685Y-112747415D01*
X187092824Y-112840121D01*
X186976375Y-112922528D01*
X186927392Y-112953936D01*
X186867675Y-112989279D01*
X186802766Y-113024839D01*
X186735653Y-113059245D01*
X186669324Y-113091129D01*
X186606764Y-113119122D01*
X186550963Y-113141856D01*
X186504906Y-113157961D01*
X186471581Y-113166069D01*
X186462886Y-113166769D01*
X186417248Y-113158148D01*
X186373468Y-113134985D01*
X186341612Y-113104336D01*
X186335546Y-113090937D01*
X186324277Y-113060573D01*
X186308346Y-113014951D01*
X186288295Y-112955781D01*
X186264667Y-112884772D01*
X186238002Y-112803632D01*
X186208844Y-112714071D01*
X186177734Y-112617796D01*
X186145214Y-112516518D01*
X186111825Y-112411944D01*
X186078111Y-112305783D01*
X186044612Y-112199745D01*
X186011871Y-112095538D01*
X185980429Y-111994871D01*
X185950829Y-111899453D01*
X185923613Y-111810992D01*
X185899322Y-111731197D01*
X185878498Y-111661778D01*
X185861684Y-111604442D01*
X185849421Y-111560899D01*
X185842251Y-111532858D01*
X185840705Y-111524894D01*
X185842971Y-111477465D01*
X185863299Y-111432774D01*
X185902229Y-111389941D01*
X185942527Y-111359461D01*
X186032462Y-111288972D01*
X186107462Y-111208498D01*
X186166912Y-111119830D01*
X186210201Y-111024757D01*
X186236716Y-110925069D01*
X186245844Y-110822556D01*
X186236973Y-110719007D01*
X186209489Y-110616213D01*
X186202906Y-110598904D01*
X186153209Y-110498716D01*
X186089592Y-110411461D01*
X186013511Y-110338131D01*
X185926422Y-110279718D01*
X185829783Y-110237216D01*
X185725049Y-110211617D01*
X185623200Y-110203847D01*
X185515017Y-110212737D01*
X185414530Y-110238287D01*
X185322689Y-110278825D01*
X185240444Y-110332673D01*
X185168743Y-110398158D01*
X185108538Y-110473604D01*
X185060777Y-110557337D01*
X185026410Y-110647680D01*
X185006387Y-110742959D01*
X185001657Y-110841498D01*
X185013170Y-110941623D01*
X185041876Y-111041659D01*
X185088724Y-111139930D01*
X185090651Y-111143226D01*
X185139123Y-111211453D01*
X185202342Y-111278452D01*
X185275806Y-111339660D01*
X185303988Y-111359461D01*
X185356836Y-111401650D01*
X185390642Y-111445094D01*
X185405897Y-111490590D01*
X185405730Y-111524630D01*
X185401471Y-111543752D01*
X185391833Y-111579283D01*
X185377358Y-111629512D01*
X185358587Y-111692731D01*
X185336062Y-111767232D01*
X185310325Y-111851306D01*
X185281918Y-111943245D01*
X185251383Y-112041340D01*
X185219261Y-112143883D01*
X185186095Y-112249164D01*
X185152426Y-112355477D01*
X185118796Y-112461111D01*
X185085747Y-112564360D01*
X185053820Y-112663513D01*
X185023559Y-112756863D01*
X184995503Y-112842700D01*
X184970196Y-112919318D01*
X184948179Y-112985006D01*
X184929994Y-113038056D01*
X184916183Y-113076761D01*
X184907288Y-113099411D01*
X184904740Y-113104336D01*
X184868772Y-113137950D01*
X184823501Y-113159845D01*
X184781569Y-113166396D01*
X184759050Y-113162417D01*
X184724159Y-113151969D01*
X184682257Y-113136791D01*
X184651161Y-113124085D01*
X184484543Y-113046595D01*
X184332087Y-112962563D01*
X184189636Y-112869163D01*
X184053029Y-112763565D01*
X183918109Y-112642942D01*
X183859643Y-112585817D01*
X183729977Y-112447694D01*
X183616445Y-112308169D01*
X183515871Y-112162837D01*
X183425083Y-112007292D01*
X183380825Y-111921192D01*
X183291464Y-111718275D01*
X183220963Y-111510643D01*
X183169405Y-111298978D01*
X183136873Y-111083963D01*
X183123449Y-110866281D01*
X183124096Y-110841643D01*
G37*
%TO.C,J8*%
X117400000Y-102200000D02*
X117400000Y-90200000D01*
X117400000Y-102200000D02*
X129400000Y-102200000D01*
X129400000Y-90200000D02*
X117400000Y-90200000D01*
X129400000Y-102200000D02*
X129400000Y-90200000D01*
%TO.C,Q8*%
X179091200Y-109292800D02*
X179091200Y-105692800D01*
X174641200Y-107492800D02*
G75*
G03*
X179079678Y-109331278I2600000J0D01*
G01*
X179079678Y-105654322D02*
G75*
G03*
X174641200Y-107492800I-1838478J-1838478D01*
G01*
%TO.C,Q11*%
X160498400Y-109343600D02*
X160498400Y-105743600D01*
X156048400Y-107543600D02*
G75*
G03*
X160486878Y-109382078I2600000J0D01*
G01*
X160486878Y-105705122D02*
G75*
G03*
X156048400Y-107543600I-1838478J-1838478D01*
G01*
%TO.C,J7*%
X89900000Y-102200000D02*
X89900000Y-90200000D01*
X89900000Y-102200000D02*
X101900000Y-102200000D01*
X101900000Y-90200000D02*
X89900000Y-90200000D01*
X101900000Y-102200000D02*
X101900000Y-90200000D01*
%TO.C,J5*%
X221890000Y-95090000D02*
X219390000Y-95090000D01*
X219390000Y-95090000D02*
X219390000Y-97590000D01*
X223710000Y-95390000D02*
X219690000Y-95390000D01*
X222000000Y-95390000D02*
X222000000Y-95890000D01*
X221190000Y-95390000D02*
X221190000Y-96390000D01*
X219690000Y-95390000D02*
X219690000Y-105610000D01*
X223210000Y-95890000D02*
X223210000Y-105110000D01*
X222000000Y-95890000D02*
X223210000Y-95890000D01*
X221190000Y-96390000D02*
X219690000Y-96390000D01*
X221190000Y-104610000D02*
X219690000Y-104610000D01*
X223210000Y-105110000D02*
X222000000Y-105110000D01*
X222000000Y-105110000D02*
X222000000Y-105610000D01*
X223710000Y-105610000D02*
X223710000Y-95390000D01*
X221190000Y-105610000D02*
X221190000Y-104610000D01*
X219690000Y-105610000D02*
X223710000Y-105610000D01*
%TO.C,C1*%
X88729502Y-73072200D02*
X89529502Y-73072200D01*
X89129502Y-72672200D02*
X89129502Y-73472200D01*
X93139200Y-71307200D02*
X93139200Y-79467200D01*
X93179200Y-71307200D02*
X93179200Y-79467200D01*
X93219200Y-71307200D02*
X93219200Y-79467200D01*
X93259200Y-71308200D02*
X93259200Y-79466200D01*
X93299200Y-71310200D02*
X93299200Y-79464200D01*
X93339200Y-71311200D02*
X93339200Y-79463200D01*
X93379200Y-71313200D02*
X93379200Y-79461200D01*
X93419200Y-71316200D02*
X93419200Y-79458200D01*
X93459200Y-71319200D02*
X93459200Y-79455200D01*
X93499200Y-71322200D02*
X93499200Y-79452200D01*
X93539200Y-71326200D02*
X93539200Y-79448200D01*
X93579200Y-71330200D02*
X93579200Y-79444200D01*
X93619200Y-71335200D02*
X93619200Y-79439200D01*
X93659200Y-71339200D02*
X93659200Y-79435200D01*
X93699200Y-71345200D02*
X93699200Y-79429200D01*
X93739200Y-71350200D02*
X93739200Y-79424200D01*
X93779200Y-71357200D02*
X93779200Y-79417200D01*
X93819200Y-71363200D02*
X93819200Y-79411200D01*
X93860200Y-71370200D02*
X93860200Y-74347200D01*
X93860200Y-76427200D02*
X93860200Y-79404200D01*
X93900200Y-71377200D02*
X93900200Y-74347200D01*
X93900200Y-76427200D02*
X93900200Y-79397200D01*
X93940200Y-71385200D02*
X93940200Y-74347200D01*
X93940200Y-76427200D02*
X93940200Y-79389200D01*
X93980200Y-71393200D02*
X93980200Y-74347200D01*
X93980200Y-76427200D02*
X93980200Y-79381200D01*
X94020200Y-71402200D02*
X94020200Y-74347200D01*
X94020200Y-76427200D02*
X94020200Y-79372200D01*
X94060200Y-71411200D02*
X94060200Y-74347200D01*
X94060200Y-76427200D02*
X94060200Y-79363200D01*
X94100200Y-71420200D02*
X94100200Y-74347200D01*
X94100200Y-76427200D02*
X94100200Y-79354200D01*
X94140200Y-71430200D02*
X94140200Y-74347200D01*
X94140200Y-76427200D02*
X94140200Y-79344200D01*
X94180200Y-71440200D02*
X94180200Y-74347200D01*
X94180200Y-76427200D02*
X94180200Y-79334200D01*
X94220200Y-71451200D02*
X94220200Y-74347200D01*
X94220200Y-76427200D02*
X94220200Y-79323200D01*
X94260200Y-71462200D02*
X94260200Y-74347200D01*
X94260200Y-76427200D02*
X94260200Y-79312200D01*
X94300200Y-71473200D02*
X94300200Y-74347200D01*
X94300200Y-76427200D02*
X94300200Y-79301200D01*
X94340200Y-71485200D02*
X94340200Y-74347200D01*
X94340200Y-76427200D02*
X94340200Y-79289200D01*
X94380200Y-71498200D02*
X94380200Y-74347200D01*
X94380200Y-76427200D02*
X94380200Y-79276200D01*
X94420200Y-71510200D02*
X94420200Y-74347200D01*
X94420200Y-76427200D02*
X94420200Y-79264200D01*
X94460200Y-71524200D02*
X94460200Y-74347200D01*
X94460200Y-76427200D02*
X94460200Y-79250200D01*
X94500200Y-71537200D02*
X94500200Y-74347200D01*
X94500200Y-76427200D02*
X94500200Y-79237200D01*
X94540200Y-71552200D02*
X94540200Y-74347200D01*
X94540200Y-76427200D02*
X94540200Y-79222200D01*
X94580200Y-71566200D02*
X94580200Y-74347200D01*
X94580200Y-76427200D02*
X94580200Y-79208200D01*
X94620200Y-71582200D02*
X94620200Y-74347200D01*
X94620200Y-76427200D02*
X94620200Y-79192200D01*
X94660200Y-71597200D02*
X94660200Y-74347200D01*
X94660200Y-76427200D02*
X94660200Y-79177200D01*
X94700200Y-71613200D02*
X94700200Y-74347200D01*
X94700200Y-76427200D02*
X94700200Y-79161200D01*
X94740200Y-71630200D02*
X94740200Y-74347200D01*
X94740200Y-76427200D02*
X94740200Y-79144200D01*
X94780200Y-71647200D02*
X94780200Y-74347200D01*
X94780200Y-76427200D02*
X94780200Y-79127200D01*
X94820200Y-71665200D02*
X94820200Y-74347200D01*
X94820200Y-76427200D02*
X94820200Y-79109200D01*
X94860200Y-71683200D02*
X94860200Y-74347200D01*
X94860200Y-76427200D02*
X94860200Y-79091200D01*
X94900200Y-71701200D02*
X94900200Y-74347200D01*
X94900200Y-76427200D02*
X94900200Y-79073200D01*
X94940200Y-71721200D02*
X94940200Y-74347200D01*
X94940200Y-76427200D02*
X94940200Y-79053200D01*
X94980200Y-71740200D02*
X94980200Y-74347200D01*
X94980200Y-76427200D02*
X94980200Y-79034200D01*
X95020200Y-71760200D02*
X95020200Y-74347200D01*
X95020200Y-76427200D02*
X95020200Y-79014200D01*
X95060200Y-71781200D02*
X95060200Y-74347200D01*
X95060200Y-76427200D02*
X95060200Y-78993200D01*
X95100200Y-71803200D02*
X95100200Y-74347200D01*
X95100200Y-76427200D02*
X95100200Y-78971200D01*
X95140200Y-71825200D02*
X95140200Y-74347200D01*
X95140200Y-76427200D02*
X95140200Y-78949200D01*
X95180200Y-71847200D02*
X95180200Y-74347200D01*
X95180200Y-76427200D02*
X95180200Y-78927200D01*
X95220200Y-71870200D02*
X95220200Y-74347200D01*
X95220200Y-76427200D02*
X95220200Y-78904200D01*
X95260200Y-71894200D02*
X95260200Y-74347200D01*
X95260200Y-76427200D02*
X95260200Y-78880200D01*
X95300200Y-71918200D02*
X95300200Y-74347200D01*
X95300200Y-76427200D02*
X95300200Y-78856200D01*
X95340200Y-71943200D02*
X95340200Y-74347200D01*
X95340200Y-76427200D02*
X95340200Y-78831200D01*
X95380200Y-71969200D02*
X95380200Y-74347200D01*
X95380200Y-76427200D02*
X95380200Y-78805200D01*
X95420200Y-71995200D02*
X95420200Y-74347200D01*
X95420200Y-76427200D02*
X95420200Y-78779200D01*
X95460200Y-72022200D02*
X95460200Y-74347200D01*
X95460200Y-76427200D02*
X95460200Y-78752200D01*
X95500200Y-72049200D02*
X95500200Y-74347200D01*
X95500200Y-76427200D02*
X95500200Y-78725200D01*
X95540200Y-72078200D02*
X95540200Y-74347200D01*
X95540200Y-76427200D02*
X95540200Y-78696200D01*
X95580200Y-72107200D02*
X95580200Y-74347200D01*
X95580200Y-76427200D02*
X95580200Y-78667200D01*
X95620200Y-72137200D02*
X95620200Y-74347200D01*
X95620200Y-76427200D02*
X95620200Y-78637200D01*
X95660200Y-72167200D02*
X95660200Y-74347200D01*
X95660200Y-76427200D02*
X95660200Y-78607200D01*
X95700200Y-72198200D02*
X95700200Y-74347200D01*
X95700200Y-76427200D02*
X95700200Y-78576200D01*
X95740200Y-72231200D02*
X95740200Y-74347200D01*
X95740200Y-76427200D02*
X95740200Y-78543200D01*
X95780200Y-72263200D02*
X95780200Y-74347200D01*
X95780200Y-76427200D02*
X95780200Y-78511200D01*
X95820200Y-72297200D02*
X95820200Y-74347200D01*
X95820200Y-76427200D02*
X95820200Y-78477200D01*
X95860200Y-72332200D02*
X95860200Y-74347200D01*
X95860200Y-76427200D02*
X95860200Y-78442200D01*
X95900200Y-72368200D02*
X95900200Y-74347200D01*
X95900200Y-76427200D02*
X95900200Y-78406200D01*
X95940200Y-72404200D02*
X95940200Y-78370200D01*
X95980200Y-72442200D02*
X95980200Y-78332200D01*
X96020200Y-72480200D02*
X96020200Y-78294200D01*
X96060200Y-72520200D02*
X96060200Y-78254200D01*
X96100200Y-72561200D02*
X96100200Y-78213200D01*
X96140200Y-72603200D02*
X96140200Y-78171200D01*
X96180200Y-72646200D02*
X96180200Y-78128200D01*
X96220200Y-72690200D02*
X96220200Y-78084200D01*
X96260200Y-72736200D02*
X96260200Y-78038200D01*
X96300200Y-72783200D02*
X96300200Y-77991200D01*
X96340200Y-72831200D02*
X96340200Y-77943200D01*
X96380200Y-72882200D02*
X96380200Y-77892200D01*
X96420200Y-72933200D02*
X96420200Y-77841200D01*
X96460200Y-72987200D02*
X96460200Y-77787200D01*
X96500200Y-73042200D02*
X96500200Y-77732200D01*
X96540200Y-73100200D02*
X96540200Y-77674200D01*
X96580200Y-73159200D02*
X96580200Y-77615200D01*
X96620200Y-73221200D02*
X96620200Y-77553200D01*
X96660200Y-73285200D02*
X96660200Y-77489200D01*
X96700200Y-73353200D02*
X96700200Y-77421200D01*
X96740200Y-73423200D02*
X96740200Y-77351200D01*
X96780200Y-73497200D02*
X96780200Y-77277200D01*
X96820200Y-73574200D02*
X96820200Y-77200200D01*
X96860200Y-73656200D02*
X96860200Y-77118200D01*
X96900200Y-73742200D02*
X96900200Y-77032200D01*
X96940200Y-73835200D02*
X96940200Y-76939200D01*
X96980200Y-73934200D02*
X96980200Y-76840200D01*
X97020200Y-74041200D02*
X97020200Y-76733200D01*
X97060200Y-74158200D02*
X97060200Y-76616200D01*
X97100200Y-74289200D02*
X97100200Y-76485200D01*
X97140200Y-74439200D02*
X97140200Y-76335200D01*
X97180200Y-74619200D02*
X97180200Y-76155200D01*
X97220200Y-74854200D02*
X97220200Y-75920200D01*
X97259200Y-75387200D02*
G75*
G03*
X97259200Y-75387200I-4120000J0D01*
G01*
%TO.C,RV1*%
X96745600Y-88865600D02*
X96745600Y-82025600D01*
X96745600Y-88865600D02*
X93715600Y-88865600D01*
X96745600Y-82025600D02*
X93715600Y-82025600D01*
X92415600Y-88865600D02*
X89505600Y-88865600D01*
X92415600Y-82025600D02*
X89505600Y-82025600D01*
X89505600Y-88865600D02*
X89505600Y-82025600D01*
%TO.C,J6*%
X155500000Y-69500000D02*
X155500000Y-84200000D01*
X146300000Y-69500000D02*
X155500000Y-69500000D01*
X146300000Y-78300000D02*
X146300000Y-69500000D01*
X155700000Y-83350000D02*
X155700000Y-84400000D01*
X155500000Y-84200000D02*
X152900000Y-84200000D01*
X149000000Y-84200000D02*
X146300000Y-84200000D01*
X146300000Y-84200000D02*
X146300000Y-82300000D01*
X154650000Y-84400000D02*
X155700000Y-84400000D01*
%TO.C,Q9*%
X172893600Y-109394400D02*
X172893600Y-105794400D01*
X168443600Y-107594400D02*
G75*
G03*
X172882078Y-109432878I2600000J0D01*
G01*
X172882078Y-105755922D02*
G75*
G03*
X168443600Y-107594400I-1838478J-1838478D01*
G01*
%TO.C,Q10*%
X166746800Y-109445200D02*
X166746800Y-105845200D01*
X162296800Y-107645200D02*
G75*
G03*
X166735278Y-109483678I2600000J0D01*
G01*
X166735278Y-105806722D02*
G75*
G03*
X162296800Y-107645200I-1838478J-1838478D01*
G01*
%TO.C,R20*%
X111262400Y-93480000D02*
X115102400Y-93480000D01*
X111262400Y-95320000D02*
X115102400Y-95320000D01*
%TO.C,U8*%
X131770000Y-114590000D02*
X113870000Y-114590000D01*
X113870000Y-114590000D02*
X113870000Y-119890000D01*
X131770000Y-116240000D02*
X131770000Y-114590000D01*
X131770000Y-119890000D02*
X131770000Y-118240000D01*
X113870000Y-119890000D02*
X131770000Y-119890000D01*
X131770000Y-116240000D02*
G75*
G03*
X131770000Y-118240000I0J-1000000D01*
G01*
%TO.C,J2*%
X221890000Y-107090000D02*
X219390000Y-107090000D01*
X219390000Y-107090000D02*
X219390000Y-109590000D01*
X223710000Y-107390000D02*
X219690000Y-107390000D01*
X222000000Y-107390000D02*
X222000000Y-107890000D01*
X221190000Y-107390000D02*
X221190000Y-108390000D01*
X219690000Y-107390000D02*
X219690000Y-117610000D01*
X223210000Y-107890000D02*
X223210000Y-117110000D01*
X222000000Y-107890000D02*
X223210000Y-107890000D01*
X221190000Y-108390000D02*
X219690000Y-108390000D01*
X221190000Y-116610000D02*
X219690000Y-116610000D01*
X223210000Y-117110000D02*
X222000000Y-117110000D01*
X222000000Y-117110000D02*
X222000000Y-117610000D01*
X223710000Y-117610000D02*
X223710000Y-107390000D01*
X221190000Y-117610000D02*
X221190000Y-116610000D01*
X219690000Y-117610000D02*
X223710000Y-117610000D01*
%TO.C,R18*%
X139202400Y-93480000D02*
X143042400Y-93480000D01*
X139202400Y-95320000D02*
X143042400Y-95320000D01*
%TO.C,D3*%
X206012100Y-117123800D02*
X206012100Y-117588800D01*
X206012100Y-119748800D02*
X206012100Y-120213800D01*
X211359914Y-117587973D02*
G75*
G03*
X206012101Y-117123970I-2787814J-1080827D01*
G01*
X210826578Y-117588372D02*
G75*
G03*
X206317417Y-117588800I-2254478J-1080428D01*
G01*
X206317416Y-119748800D02*
G75*
G03*
X210826579Y-119749229I2254684J1080000D01*
G01*
X206012101Y-120213630D02*
G75*
G03*
X211359914Y-119749627I2559999J1544830D01*
G01*
%TO.C,C4*%
X208056302Y-73123000D02*
X208856302Y-73123000D01*
X208456302Y-72723000D02*
X208456302Y-73523000D01*
X212466000Y-71358000D02*
X212466000Y-79518000D01*
X212506000Y-71358000D02*
X212506000Y-79518000D01*
X212546000Y-71358000D02*
X212546000Y-79518000D01*
X212586000Y-71359000D02*
X212586000Y-79517000D01*
X212626000Y-71361000D02*
X212626000Y-79515000D01*
X212666000Y-71362000D02*
X212666000Y-79514000D01*
X212706000Y-71364000D02*
X212706000Y-79512000D01*
X212746000Y-71367000D02*
X212746000Y-79509000D01*
X212786000Y-71370000D02*
X212786000Y-79506000D01*
X212826000Y-71373000D02*
X212826000Y-79503000D01*
X212866000Y-71377000D02*
X212866000Y-79499000D01*
X212906000Y-71381000D02*
X212906000Y-79495000D01*
X212946000Y-71386000D02*
X212946000Y-79490000D01*
X212986000Y-71390000D02*
X212986000Y-79486000D01*
X213026000Y-71396000D02*
X213026000Y-79480000D01*
X213066000Y-71401000D02*
X213066000Y-79475000D01*
X213106000Y-71408000D02*
X213106000Y-79468000D01*
X213146000Y-71414000D02*
X213146000Y-79462000D01*
X213187000Y-71421000D02*
X213187000Y-79455000D01*
X213227000Y-71428000D02*
X213227000Y-79448000D01*
X213267000Y-71436000D02*
X213267000Y-79440000D01*
X213307000Y-71444000D02*
X213307000Y-79432000D01*
X213347000Y-71453000D02*
X213347000Y-74398000D01*
X213347000Y-76478000D02*
X213347000Y-79423000D01*
X213387000Y-71462000D02*
X213387000Y-74398000D01*
X213387000Y-76478000D02*
X213387000Y-79414000D01*
X213427000Y-71471000D02*
X213427000Y-74398000D01*
X213427000Y-76478000D02*
X213427000Y-79405000D01*
X213467000Y-71481000D02*
X213467000Y-74398000D01*
X213467000Y-76478000D02*
X213467000Y-79395000D01*
X213507000Y-71491000D02*
X213507000Y-74398000D01*
X213507000Y-76478000D02*
X213507000Y-79385000D01*
X213547000Y-71502000D02*
X213547000Y-74398000D01*
X213547000Y-76478000D02*
X213547000Y-79374000D01*
X213587000Y-71513000D02*
X213587000Y-74398000D01*
X213587000Y-76478000D02*
X213587000Y-79363000D01*
X213627000Y-71524000D02*
X213627000Y-74398000D01*
X213627000Y-76478000D02*
X213627000Y-79352000D01*
X213667000Y-71536000D02*
X213667000Y-74398000D01*
X213667000Y-76478000D02*
X213667000Y-79340000D01*
X213707000Y-71549000D02*
X213707000Y-74398000D01*
X213707000Y-76478000D02*
X213707000Y-79327000D01*
X213747000Y-71561000D02*
X213747000Y-74398000D01*
X213747000Y-76478000D02*
X213747000Y-79315000D01*
X213787000Y-71575000D02*
X213787000Y-74398000D01*
X213787000Y-76478000D02*
X213787000Y-79301000D01*
X213827000Y-71588000D02*
X213827000Y-74398000D01*
X213827000Y-76478000D02*
X213827000Y-79288000D01*
X213867000Y-71603000D02*
X213867000Y-74398000D01*
X213867000Y-76478000D02*
X213867000Y-79273000D01*
X213907000Y-71617000D02*
X213907000Y-74398000D01*
X213907000Y-76478000D02*
X213907000Y-79259000D01*
X213947000Y-71633000D02*
X213947000Y-74398000D01*
X213947000Y-76478000D02*
X213947000Y-79243000D01*
X213987000Y-71648000D02*
X213987000Y-74398000D01*
X213987000Y-76478000D02*
X213987000Y-79228000D01*
X214027000Y-71664000D02*
X214027000Y-74398000D01*
X214027000Y-76478000D02*
X214027000Y-79212000D01*
X214067000Y-71681000D02*
X214067000Y-74398000D01*
X214067000Y-76478000D02*
X214067000Y-79195000D01*
X214107000Y-71698000D02*
X214107000Y-74398000D01*
X214107000Y-76478000D02*
X214107000Y-79178000D01*
X214147000Y-71716000D02*
X214147000Y-74398000D01*
X214147000Y-76478000D02*
X214147000Y-79160000D01*
X214187000Y-71734000D02*
X214187000Y-74398000D01*
X214187000Y-76478000D02*
X214187000Y-79142000D01*
X214227000Y-71752000D02*
X214227000Y-74398000D01*
X214227000Y-76478000D02*
X214227000Y-79124000D01*
X214267000Y-71772000D02*
X214267000Y-74398000D01*
X214267000Y-76478000D02*
X214267000Y-79104000D01*
X214307000Y-71791000D02*
X214307000Y-74398000D01*
X214307000Y-76478000D02*
X214307000Y-79085000D01*
X214347000Y-71811000D02*
X214347000Y-74398000D01*
X214347000Y-76478000D02*
X214347000Y-79065000D01*
X214387000Y-71832000D02*
X214387000Y-74398000D01*
X214387000Y-76478000D02*
X214387000Y-79044000D01*
X214427000Y-71854000D02*
X214427000Y-74398000D01*
X214427000Y-76478000D02*
X214427000Y-79022000D01*
X214467000Y-71876000D02*
X214467000Y-74398000D01*
X214467000Y-76478000D02*
X214467000Y-79000000D01*
X214507000Y-71898000D02*
X214507000Y-74398000D01*
X214507000Y-76478000D02*
X214507000Y-78978000D01*
X214547000Y-71921000D02*
X214547000Y-74398000D01*
X214547000Y-76478000D02*
X214547000Y-78955000D01*
X214587000Y-71945000D02*
X214587000Y-74398000D01*
X214587000Y-76478000D02*
X214587000Y-78931000D01*
X214627000Y-71969000D02*
X214627000Y-74398000D01*
X214627000Y-76478000D02*
X214627000Y-78907000D01*
X214667000Y-71994000D02*
X214667000Y-74398000D01*
X214667000Y-76478000D02*
X214667000Y-78882000D01*
X214707000Y-72020000D02*
X214707000Y-74398000D01*
X214707000Y-76478000D02*
X214707000Y-78856000D01*
X214747000Y-72046000D02*
X214747000Y-74398000D01*
X214747000Y-76478000D02*
X214747000Y-78830000D01*
X214787000Y-72073000D02*
X214787000Y-74398000D01*
X214787000Y-76478000D02*
X214787000Y-78803000D01*
X214827000Y-72100000D02*
X214827000Y-74398000D01*
X214827000Y-76478000D02*
X214827000Y-78776000D01*
X214867000Y-72129000D02*
X214867000Y-74398000D01*
X214867000Y-76478000D02*
X214867000Y-78747000D01*
X214907000Y-72158000D02*
X214907000Y-74398000D01*
X214907000Y-76478000D02*
X214907000Y-78718000D01*
X214947000Y-72188000D02*
X214947000Y-74398000D01*
X214947000Y-76478000D02*
X214947000Y-78688000D01*
X214987000Y-72218000D02*
X214987000Y-74398000D01*
X214987000Y-76478000D02*
X214987000Y-78658000D01*
X215027000Y-72249000D02*
X215027000Y-74398000D01*
X215027000Y-76478000D02*
X215027000Y-78627000D01*
X215067000Y-72282000D02*
X215067000Y-74398000D01*
X215067000Y-76478000D02*
X215067000Y-78594000D01*
X215107000Y-72314000D02*
X215107000Y-74398000D01*
X215107000Y-76478000D02*
X215107000Y-78562000D01*
X215147000Y-72348000D02*
X215147000Y-74398000D01*
X215147000Y-76478000D02*
X215147000Y-78528000D01*
X215187000Y-72383000D02*
X215187000Y-74398000D01*
X215187000Y-76478000D02*
X215187000Y-78493000D01*
X215227000Y-72419000D02*
X215227000Y-74398000D01*
X215227000Y-76478000D02*
X215227000Y-78457000D01*
X215267000Y-72455000D02*
X215267000Y-74398000D01*
X215267000Y-76478000D02*
X215267000Y-78421000D01*
X215307000Y-72493000D02*
X215307000Y-74398000D01*
X215307000Y-76478000D02*
X215307000Y-78383000D01*
X215347000Y-72531000D02*
X215347000Y-74398000D01*
X215347000Y-76478000D02*
X215347000Y-78345000D01*
X215387000Y-72571000D02*
X215387000Y-74398000D01*
X215387000Y-76478000D02*
X215387000Y-78305000D01*
X215427000Y-72612000D02*
X215427000Y-78264000D01*
X215467000Y-72654000D02*
X215467000Y-78222000D01*
X215507000Y-72697000D02*
X215507000Y-78179000D01*
X215547000Y-72741000D02*
X215547000Y-78135000D01*
X215587000Y-72787000D02*
X215587000Y-78089000D01*
X215627000Y-72834000D02*
X215627000Y-78042000D01*
X215667000Y-72882000D02*
X215667000Y-77994000D01*
X215707000Y-72933000D02*
X215707000Y-77943000D01*
X215747000Y-72984000D02*
X215747000Y-77892000D01*
X215787000Y-73038000D02*
X215787000Y-77838000D01*
X215827000Y-73093000D02*
X215827000Y-77783000D01*
X215867000Y-73151000D02*
X215867000Y-77725000D01*
X215907000Y-73210000D02*
X215907000Y-77666000D01*
X215947000Y-73272000D02*
X215947000Y-77604000D01*
X215987000Y-73336000D02*
X215987000Y-77540000D01*
X216027000Y-73404000D02*
X216027000Y-77472000D01*
X216067000Y-73474000D02*
X216067000Y-77402000D01*
X216107000Y-73548000D02*
X216107000Y-77328000D01*
X216147000Y-73625000D02*
X216147000Y-77251000D01*
X216187000Y-73707000D02*
X216187000Y-77169000D01*
X216227000Y-73793000D02*
X216227000Y-77083000D01*
X216267000Y-73886000D02*
X216267000Y-76990000D01*
X216307000Y-73985000D02*
X216307000Y-76891000D01*
X216347000Y-74092000D02*
X216347000Y-76784000D01*
X216387000Y-74209000D02*
X216387000Y-76667000D01*
X216427000Y-74340000D02*
X216427000Y-76536000D01*
X216467000Y-74490000D02*
X216467000Y-76386000D01*
X216507000Y-74670000D02*
X216507000Y-76206000D01*
X216547000Y-74905000D02*
X216547000Y-75971000D01*
X216586000Y-75438000D02*
G75*
G03*
X216586000Y-75438000I-4120000J0D01*
G01*
%TD*%
M02*
