%FSLAX45Y45*%
G04 Gerber Fmt 4.5, Leading zero omitted, Abs format (unit mm)*
G04 Created by KiCad (PCBNEW 5.1.9+dfsg1-1+deb11u1) date 2023-01-26 22:17:55*
%MOMM*%
%LPD*%
G01*
G04 APERTURE LIST*
%TA.AperFunction,Profile*%
%ADD10C,0.050000*%
%TD*%
%ADD11C,0.200000*%
%ADD12C,0.300000*%
G04 APERTURE END LIST*
D10*
X9690000Y-12195000D02*
X32190000Y-12195000D01*
X9445000Y-18435000D02*
X9445000Y-12440000D01*
X32190000Y-18680000D02*
X9690000Y-18680000D01*
X32435000Y-12440000D02*
X32435000Y-18435000D01*
X32190000Y-12195000D02*
G75*
G02*
X32435000Y-12440000I0J-245000D01*
G01*
X32435000Y-18435000D02*
G75*
G02*
X32190000Y-18680000I-245000J0D01*
G01*
X9690000Y-18680000D02*
G75*
G02*
X9445000Y-18435000I0J245000D01*
G01*
X9445000Y-12440000D02*
G75*
G02*
X9690000Y-12195000I245000J0D01*
G01*
D11*
X9585000Y-12335000D02*
X9795000Y-12545000D01*
X9795000Y-12335000D02*
X9585000Y-12545000D01*
X9585000Y-18330000D02*
X9795000Y-18540000D01*
X9795000Y-18330000D02*
X9585000Y-18540000D01*
X32085000Y-12335000D02*
X32295000Y-12545000D01*
X32295000Y-12335000D02*
X32085000Y-12545000D01*
X32085000Y-18330000D02*
X32295000Y-18540000D01*
X32295000Y-18330000D02*
X32085000Y-18540000D01*
X19611000Y-17749000D02*
G75*
G03*
X19611000Y-17749000I-175000J0D01*
G01*
D12*
X9726429Y-19150714D02*
X9726429Y-18850714D01*
X9797857Y-18850714D01*
X9840714Y-18865000D01*
X9869286Y-18893571D01*
X9883571Y-18922143D01*
X9897857Y-18979286D01*
X9897857Y-19022143D01*
X9883571Y-19079286D01*
X9869286Y-19107857D01*
X9840714Y-19136429D01*
X9797857Y-19150714D01*
X9726429Y-19150714D01*
X10026429Y-19150714D02*
X10026429Y-18950714D01*
X10026429Y-19007857D02*
X10040714Y-18979286D01*
X10055000Y-18965000D01*
X10083571Y-18950714D01*
X10112143Y-18950714D01*
X10212143Y-19150714D02*
X10212143Y-18950714D01*
X10212143Y-18850714D02*
X10197857Y-18865000D01*
X10212143Y-18879286D01*
X10226429Y-18865000D01*
X10212143Y-18850714D01*
X10212143Y-18879286D01*
X10397857Y-19150714D02*
X10369286Y-19136429D01*
X10355000Y-19107857D01*
X10355000Y-18850714D01*
X10555000Y-19150714D02*
X10526429Y-19136429D01*
X10512143Y-19107857D01*
X10512143Y-18850714D01*
X10897857Y-19150714D02*
X10897857Y-18850714D01*
X10997857Y-19065000D01*
X11097857Y-18850714D01*
X11097857Y-19150714D01*
X11369286Y-19150714D02*
X11369286Y-18993571D01*
X11355000Y-18965000D01*
X11326428Y-18950714D01*
X11269286Y-18950714D01*
X11240714Y-18965000D01*
X11369286Y-19136429D02*
X11340714Y-19150714D01*
X11269286Y-19150714D01*
X11240714Y-19136429D01*
X11226428Y-19107857D01*
X11226428Y-19079286D01*
X11240714Y-19050714D01*
X11269286Y-19036429D01*
X11340714Y-19036429D01*
X11369286Y-19022143D01*
X11512143Y-18950714D02*
X11512143Y-19250714D01*
X11512143Y-18965000D02*
X11540714Y-18950714D01*
X11597857Y-18950714D01*
X11626428Y-18965000D01*
X11640714Y-18979286D01*
X11655000Y-19007857D01*
X11655000Y-19093571D01*
X11640714Y-19122143D01*
X11626428Y-19136429D01*
X11597857Y-19150714D01*
X11540714Y-19150714D01*
X11512143Y-19136429D01*
X11783571Y-19122143D02*
X11797857Y-19136429D01*
X11783571Y-19150714D01*
X11769286Y-19136429D01*
X11783571Y-19122143D01*
X11783571Y-19150714D01*
X11783571Y-18965000D02*
X11797857Y-18979286D01*
X11783571Y-18993571D01*
X11769286Y-18979286D01*
X11783571Y-18965000D01*
X11783571Y-18993571D01*
X9230000Y-19540000D02*
X9440000Y-19750000D01*
X9440000Y-19540000D02*
X9230000Y-19750000D01*
X9712143Y-19509286D02*
X9726429Y-19495000D01*
X9755000Y-19480714D01*
X9826429Y-19480714D01*
X9855000Y-19495000D01*
X9869286Y-19509286D01*
X9883571Y-19537857D01*
X9883571Y-19566429D01*
X9869286Y-19609286D01*
X9697857Y-19780714D01*
X9883571Y-19780714D01*
X10012143Y-19752143D02*
X10026429Y-19766429D01*
X10012143Y-19780714D01*
X9997857Y-19766429D01*
X10012143Y-19752143D01*
X10012143Y-19780714D01*
X10312143Y-19780714D02*
X10140714Y-19780714D01*
X10226429Y-19780714D02*
X10226429Y-19480714D01*
X10197857Y-19523571D01*
X10169286Y-19552143D01*
X10140714Y-19566429D01*
X10497857Y-19480714D02*
X10526429Y-19480714D01*
X10555000Y-19495000D01*
X10569286Y-19509286D01*
X10583571Y-19537857D01*
X10597857Y-19595000D01*
X10597857Y-19666429D01*
X10583571Y-19723571D01*
X10569286Y-19752143D01*
X10555000Y-19766429D01*
X10526429Y-19780714D01*
X10497857Y-19780714D01*
X10469286Y-19766429D01*
X10455000Y-19752143D01*
X10440714Y-19723571D01*
X10426429Y-19666429D01*
X10426429Y-19595000D01*
X10440714Y-19537857D01*
X10455000Y-19509286D01*
X10469286Y-19495000D01*
X10497857Y-19480714D01*
X10726429Y-19780714D02*
X10726429Y-19580714D01*
X10726429Y-19609286D02*
X10740714Y-19595000D01*
X10769286Y-19580714D01*
X10812143Y-19580714D01*
X10840714Y-19595000D01*
X10855000Y-19623571D01*
X10855000Y-19780714D01*
X10855000Y-19623571D02*
X10869286Y-19595000D01*
X10897857Y-19580714D01*
X10940714Y-19580714D01*
X10969286Y-19595000D01*
X10983571Y-19623571D01*
X10983571Y-19780714D01*
X11126429Y-19780714D02*
X11126429Y-19580714D01*
X11126429Y-19609286D02*
X11140714Y-19595000D01*
X11169286Y-19580714D01*
X11212143Y-19580714D01*
X11240714Y-19595000D01*
X11255000Y-19623571D01*
X11255000Y-19780714D01*
X11255000Y-19623571D02*
X11269286Y-19595000D01*
X11297857Y-19580714D01*
X11340714Y-19580714D01*
X11369286Y-19595000D01*
X11383571Y-19623571D01*
X11383571Y-19780714D01*
X11969286Y-19466429D02*
X11712143Y-19852143D01*
X12355000Y-19480714D02*
X12383571Y-19480714D01*
X12412143Y-19495000D01*
X12426428Y-19509286D01*
X12440714Y-19537857D01*
X12455000Y-19595000D01*
X12455000Y-19666429D01*
X12440714Y-19723571D01*
X12426428Y-19752143D01*
X12412143Y-19766429D01*
X12383571Y-19780714D01*
X12355000Y-19780714D01*
X12326428Y-19766429D01*
X12312143Y-19752143D01*
X12297857Y-19723571D01*
X12283571Y-19666429D01*
X12283571Y-19595000D01*
X12297857Y-19537857D01*
X12312143Y-19509286D01*
X12326428Y-19495000D01*
X12355000Y-19480714D01*
X12583571Y-19752143D02*
X12597857Y-19766429D01*
X12583571Y-19780714D01*
X12569286Y-19766429D01*
X12583571Y-19752143D01*
X12583571Y-19780714D01*
X12783571Y-19480714D02*
X12812143Y-19480714D01*
X12840714Y-19495000D01*
X12855000Y-19509286D01*
X12869286Y-19537857D01*
X12883571Y-19595000D01*
X12883571Y-19666429D01*
X12869286Y-19723571D01*
X12855000Y-19752143D01*
X12840714Y-19766429D01*
X12812143Y-19780714D01*
X12783571Y-19780714D01*
X12755000Y-19766429D01*
X12740714Y-19752143D01*
X12726428Y-19723571D01*
X12712143Y-19666429D01*
X12712143Y-19595000D01*
X12726428Y-19537857D01*
X12740714Y-19509286D01*
X12755000Y-19495000D01*
X12783571Y-19480714D01*
X13055000Y-19609286D02*
X13026428Y-19595000D01*
X13012143Y-19580714D01*
X12997857Y-19552143D01*
X12997857Y-19537857D01*
X13012143Y-19509286D01*
X13026428Y-19495000D01*
X13055000Y-19480714D01*
X13112143Y-19480714D01*
X13140714Y-19495000D01*
X13155000Y-19509286D01*
X13169286Y-19537857D01*
X13169286Y-19552143D01*
X13155000Y-19580714D01*
X13140714Y-19595000D01*
X13112143Y-19609286D01*
X13055000Y-19609286D01*
X13026428Y-19623571D01*
X13012143Y-19637857D01*
X12997857Y-19666429D01*
X12997857Y-19723571D01*
X13012143Y-19752143D01*
X13026428Y-19766429D01*
X13055000Y-19780714D01*
X13112143Y-19780714D01*
X13140714Y-19766429D01*
X13155000Y-19752143D01*
X13169286Y-19723571D01*
X13169286Y-19666429D01*
X13155000Y-19637857D01*
X13140714Y-19623571D01*
X13112143Y-19609286D01*
X13269286Y-19480714D02*
X13455000Y-19480714D01*
X13355000Y-19595000D01*
X13397857Y-19595000D01*
X13426428Y-19609286D01*
X13440714Y-19623571D01*
X13455000Y-19652143D01*
X13455000Y-19723571D01*
X13440714Y-19752143D01*
X13426428Y-19766429D01*
X13397857Y-19780714D01*
X13312143Y-19780714D01*
X13283571Y-19766429D01*
X13269286Y-19752143D01*
X13569286Y-19480714D02*
X13569286Y-19537857D01*
X13683571Y-19480714D02*
X13683571Y-19537857D01*
X14126428Y-19895000D02*
X14112143Y-19880714D01*
X14083571Y-19837857D01*
X14069286Y-19809286D01*
X14055000Y-19766429D01*
X14040714Y-19695000D01*
X14040714Y-19637857D01*
X14055000Y-19566429D01*
X14069286Y-19523571D01*
X14083571Y-19495000D01*
X14112143Y-19452143D01*
X14126428Y-19437857D01*
X14369286Y-19580714D02*
X14369286Y-19780714D01*
X14297857Y-19466429D02*
X14226428Y-19680714D01*
X14412143Y-19680714D01*
X14755000Y-19780714D02*
X14755000Y-19480714D01*
X14883571Y-19780714D02*
X14883571Y-19623571D01*
X14869286Y-19595000D01*
X14840714Y-19580714D01*
X14797857Y-19580714D01*
X14769286Y-19595000D01*
X14755000Y-19609286D01*
X15069286Y-19780714D02*
X15040714Y-19766429D01*
X15026428Y-19752143D01*
X15012143Y-19723571D01*
X15012143Y-19637857D01*
X15026428Y-19609286D01*
X15040714Y-19595000D01*
X15069286Y-19580714D01*
X15112143Y-19580714D01*
X15140714Y-19595000D01*
X15155000Y-19609286D01*
X15169286Y-19637857D01*
X15169286Y-19723571D01*
X15155000Y-19752143D01*
X15140714Y-19766429D01*
X15112143Y-19780714D01*
X15069286Y-19780714D01*
X15340714Y-19780714D02*
X15312143Y-19766429D01*
X15297857Y-19737857D01*
X15297857Y-19480714D01*
X15569286Y-19766429D02*
X15540714Y-19780714D01*
X15483571Y-19780714D01*
X15455000Y-19766429D01*
X15440714Y-19737857D01*
X15440714Y-19623571D01*
X15455000Y-19595000D01*
X15483571Y-19580714D01*
X15540714Y-19580714D01*
X15569286Y-19595000D01*
X15583571Y-19623571D01*
X15583571Y-19652143D01*
X15440714Y-19680714D01*
X15697857Y-19766429D02*
X15726428Y-19780714D01*
X15783571Y-19780714D01*
X15812143Y-19766429D01*
X15826428Y-19737857D01*
X15826428Y-19723571D01*
X15812143Y-19695000D01*
X15783571Y-19680714D01*
X15740714Y-19680714D01*
X15712143Y-19666429D01*
X15697857Y-19637857D01*
X15697857Y-19623571D01*
X15712143Y-19595000D01*
X15740714Y-19580714D01*
X15783571Y-19580714D01*
X15812143Y-19595000D01*
X15926428Y-19895000D02*
X15940714Y-19880714D01*
X15969286Y-19837857D01*
X15983571Y-19809286D01*
X15997857Y-19766429D01*
X16012143Y-19695000D01*
X16012143Y-19637857D01*
X15997857Y-19566429D01*
X15983571Y-19523571D01*
X15969286Y-19495000D01*
X15940714Y-19452143D01*
X15926428Y-19437857D01*
X16469286Y-19895000D02*
X16455000Y-19880714D01*
X16426428Y-19837857D01*
X16412143Y-19809286D01*
X16397857Y-19766429D01*
X16383571Y-19695000D01*
X16383571Y-19637857D01*
X16397857Y-19566429D01*
X16412143Y-19523571D01*
X16426428Y-19495000D01*
X16455000Y-19452143D01*
X16469286Y-19437857D01*
X16583571Y-19580714D02*
X16583571Y-19780714D01*
X16583571Y-19609286D02*
X16597857Y-19595000D01*
X16626428Y-19580714D01*
X16669286Y-19580714D01*
X16697857Y-19595000D01*
X16712143Y-19623571D01*
X16712143Y-19780714D01*
X16897857Y-19780714D02*
X16869286Y-19766429D01*
X16855000Y-19752143D01*
X16840714Y-19723571D01*
X16840714Y-19637857D01*
X16855000Y-19609286D01*
X16869286Y-19595000D01*
X16897857Y-19580714D01*
X16940714Y-19580714D01*
X16969286Y-19595000D01*
X16983571Y-19609286D01*
X16997857Y-19637857D01*
X16997857Y-19723571D01*
X16983571Y-19752143D01*
X16969286Y-19766429D01*
X16940714Y-19780714D01*
X16897857Y-19780714D01*
X17083571Y-19580714D02*
X17197857Y-19580714D01*
X17126429Y-19480714D02*
X17126429Y-19737857D01*
X17140714Y-19766429D01*
X17169286Y-19780714D01*
X17197857Y-19780714D01*
X17526429Y-19580714D02*
X17526429Y-19880714D01*
X17526429Y-19595000D02*
X17555000Y-19580714D01*
X17612143Y-19580714D01*
X17640714Y-19595000D01*
X17655000Y-19609286D01*
X17669286Y-19637857D01*
X17669286Y-19723571D01*
X17655000Y-19752143D01*
X17640714Y-19766429D01*
X17612143Y-19780714D01*
X17555000Y-19780714D01*
X17526429Y-19766429D01*
X17840714Y-19780714D02*
X17812143Y-19766429D01*
X17797857Y-19737857D01*
X17797857Y-19480714D01*
X18083571Y-19780714D02*
X18083571Y-19623571D01*
X18069286Y-19595000D01*
X18040714Y-19580714D01*
X17983571Y-19580714D01*
X17955000Y-19595000D01*
X18083571Y-19766429D02*
X18055000Y-19780714D01*
X17983571Y-19780714D01*
X17955000Y-19766429D01*
X17940714Y-19737857D01*
X17940714Y-19709286D01*
X17955000Y-19680714D01*
X17983571Y-19666429D01*
X18055000Y-19666429D01*
X18083571Y-19652143D01*
X18183571Y-19580714D02*
X18297857Y-19580714D01*
X18226429Y-19480714D02*
X18226429Y-19737857D01*
X18240714Y-19766429D01*
X18269286Y-19780714D01*
X18297857Y-19780714D01*
X18512143Y-19766429D02*
X18483571Y-19780714D01*
X18426429Y-19780714D01*
X18397857Y-19766429D01*
X18383571Y-19737857D01*
X18383571Y-19623571D01*
X18397857Y-19595000D01*
X18426429Y-19580714D01*
X18483571Y-19580714D01*
X18512143Y-19595000D01*
X18526429Y-19623571D01*
X18526429Y-19652143D01*
X18383571Y-19680714D01*
X18783571Y-19780714D02*
X18783571Y-19480714D01*
X18783571Y-19766429D02*
X18755000Y-19780714D01*
X18697857Y-19780714D01*
X18669286Y-19766429D01*
X18655000Y-19752143D01*
X18640714Y-19723571D01*
X18640714Y-19637857D01*
X18655000Y-19609286D01*
X18669286Y-19595000D01*
X18697857Y-19580714D01*
X18755000Y-19580714D01*
X18783571Y-19595000D01*
X18897857Y-19895000D02*
X18912143Y-19880714D01*
X18940714Y-19837857D01*
X18955000Y-19809286D01*
X18969286Y-19766429D01*
X18983571Y-19695000D01*
X18983571Y-19637857D01*
X18969286Y-19566429D01*
X18955000Y-19523571D01*
X18940714Y-19495000D01*
X18912143Y-19452143D01*
X18897857Y-19437857D01*
X9440000Y-20041000D02*
G75*
G03*
X9440000Y-20041000I-175000J0D01*
G01*
X9697857Y-19876714D02*
X9883571Y-19876714D01*
X9783571Y-19991000D01*
X9826429Y-19991000D01*
X9855000Y-20005286D01*
X9869286Y-20019571D01*
X9883571Y-20048143D01*
X9883571Y-20119571D01*
X9869286Y-20148143D01*
X9855000Y-20162429D01*
X9826429Y-20176714D01*
X9740714Y-20176714D01*
X9712143Y-20162429D01*
X9697857Y-20148143D01*
X10012143Y-20148143D02*
X10026429Y-20162429D01*
X10012143Y-20176714D01*
X9997857Y-20162429D01*
X10012143Y-20148143D01*
X10012143Y-20176714D01*
X10297857Y-19876714D02*
X10155000Y-19876714D01*
X10140714Y-20019571D01*
X10155000Y-20005286D01*
X10183571Y-19991000D01*
X10255000Y-19991000D01*
X10283571Y-20005286D01*
X10297857Y-20019571D01*
X10312143Y-20048143D01*
X10312143Y-20119571D01*
X10297857Y-20148143D01*
X10283571Y-20162429D01*
X10255000Y-20176714D01*
X10183571Y-20176714D01*
X10155000Y-20162429D01*
X10140714Y-20148143D01*
X10497857Y-19876714D02*
X10526429Y-19876714D01*
X10555000Y-19891000D01*
X10569286Y-19905286D01*
X10583571Y-19933857D01*
X10597857Y-19991000D01*
X10597857Y-20062429D01*
X10583571Y-20119571D01*
X10569286Y-20148143D01*
X10555000Y-20162429D01*
X10526429Y-20176714D01*
X10497857Y-20176714D01*
X10469286Y-20162429D01*
X10455000Y-20148143D01*
X10440714Y-20119571D01*
X10426429Y-20062429D01*
X10426429Y-19991000D01*
X10440714Y-19933857D01*
X10455000Y-19905286D01*
X10469286Y-19891000D01*
X10497857Y-19876714D01*
X10726429Y-20176714D02*
X10726429Y-19976714D01*
X10726429Y-20005286D02*
X10740714Y-19991000D01*
X10769286Y-19976714D01*
X10812143Y-19976714D01*
X10840714Y-19991000D01*
X10855000Y-20019571D01*
X10855000Y-20176714D01*
X10855000Y-20019571D02*
X10869286Y-19991000D01*
X10897857Y-19976714D01*
X10940714Y-19976714D01*
X10969286Y-19991000D01*
X10983571Y-20019571D01*
X10983571Y-20176714D01*
X11126429Y-20176714D02*
X11126429Y-19976714D01*
X11126429Y-20005286D02*
X11140714Y-19991000D01*
X11169286Y-19976714D01*
X11212143Y-19976714D01*
X11240714Y-19991000D01*
X11255000Y-20019571D01*
X11255000Y-20176714D01*
X11255000Y-20019571D02*
X11269286Y-19991000D01*
X11297857Y-19976714D01*
X11340714Y-19976714D01*
X11369286Y-19991000D01*
X11383571Y-20019571D01*
X11383571Y-20176714D01*
X11969286Y-19862429D02*
X11712143Y-20248143D01*
X12355000Y-19876714D02*
X12383571Y-19876714D01*
X12412143Y-19891000D01*
X12426428Y-19905286D01*
X12440714Y-19933857D01*
X12455000Y-19991000D01*
X12455000Y-20062429D01*
X12440714Y-20119571D01*
X12426428Y-20148143D01*
X12412143Y-20162429D01*
X12383571Y-20176714D01*
X12355000Y-20176714D01*
X12326428Y-20162429D01*
X12312143Y-20148143D01*
X12297857Y-20119571D01*
X12283571Y-20062429D01*
X12283571Y-19991000D01*
X12297857Y-19933857D01*
X12312143Y-19905286D01*
X12326428Y-19891000D01*
X12355000Y-19876714D01*
X12583571Y-20148143D02*
X12597857Y-20162429D01*
X12583571Y-20176714D01*
X12569286Y-20162429D01*
X12583571Y-20148143D01*
X12583571Y-20176714D01*
X12883571Y-20176714D02*
X12712143Y-20176714D01*
X12797857Y-20176714D02*
X12797857Y-19876714D01*
X12769286Y-19919571D01*
X12740714Y-19948143D01*
X12712143Y-19962429D01*
X12983571Y-19876714D02*
X13169286Y-19876714D01*
X13069286Y-19991000D01*
X13112143Y-19991000D01*
X13140714Y-20005286D01*
X13155000Y-20019571D01*
X13169286Y-20048143D01*
X13169286Y-20119571D01*
X13155000Y-20148143D01*
X13140714Y-20162429D01*
X13112143Y-20176714D01*
X13026428Y-20176714D01*
X12997857Y-20162429D01*
X12983571Y-20148143D01*
X13340714Y-20005286D02*
X13312143Y-19991000D01*
X13297857Y-19976714D01*
X13283571Y-19948143D01*
X13283571Y-19933857D01*
X13297857Y-19905286D01*
X13312143Y-19891000D01*
X13340714Y-19876714D01*
X13397857Y-19876714D01*
X13426428Y-19891000D01*
X13440714Y-19905286D01*
X13455000Y-19933857D01*
X13455000Y-19948143D01*
X13440714Y-19976714D01*
X13426428Y-19991000D01*
X13397857Y-20005286D01*
X13340714Y-20005286D01*
X13312143Y-20019571D01*
X13297857Y-20033857D01*
X13283571Y-20062429D01*
X13283571Y-20119571D01*
X13297857Y-20148143D01*
X13312143Y-20162429D01*
X13340714Y-20176714D01*
X13397857Y-20176714D01*
X13426428Y-20162429D01*
X13440714Y-20148143D01*
X13455000Y-20119571D01*
X13455000Y-20062429D01*
X13440714Y-20033857D01*
X13426428Y-20019571D01*
X13397857Y-20005286D01*
X13569286Y-19876714D02*
X13569286Y-19933857D01*
X13683571Y-19876714D02*
X13683571Y-19933857D01*
X14126428Y-20291000D02*
X14112143Y-20276714D01*
X14083571Y-20233857D01*
X14069286Y-20205286D01*
X14055000Y-20162429D01*
X14040714Y-20091000D01*
X14040714Y-20033857D01*
X14055000Y-19962429D01*
X14069286Y-19919571D01*
X14083571Y-19891000D01*
X14112143Y-19848143D01*
X14126428Y-19833857D01*
X14397857Y-20176714D02*
X14226428Y-20176714D01*
X14312143Y-20176714D02*
X14312143Y-19876714D01*
X14283571Y-19919571D01*
X14255000Y-19948143D01*
X14226428Y-19962429D01*
X14755000Y-20176714D02*
X14755000Y-19876714D01*
X14883571Y-20176714D02*
X14883571Y-20019571D01*
X14869286Y-19991000D01*
X14840714Y-19976714D01*
X14797857Y-19976714D01*
X14769286Y-19991000D01*
X14755000Y-20005286D01*
X15069286Y-20176714D02*
X15040714Y-20162429D01*
X15026428Y-20148143D01*
X15012143Y-20119571D01*
X15012143Y-20033857D01*
X15026428Y-20005286D01*
X15040714Y-19991000D01*
X15069286Y-19976714D01*
X15112143Y-19976714D01*
X15140714Y-19991000D01*
X15155000Y-20005286D01*
X15169286Y-20033857D01*
X15169286Y-20119571D01*
X15155000Y-20148143D01*
X15140714Y-20162429D01*
X15112143Y-20176714D01*
X15069286Y-20176714D01*
X15340714Y-20176714D02*
X15312143Y-20162429D01*
X15297857Y-20133857D01*
X15297857Y-19876714D01*
X15569286Y-20162429D02*
X15540714Y-20176714D01*
X15483571Y-20176714D01*
X15455000Y-20162429D01*
X15440714Y-20133857D01*
X15440714Y-20019571D01*
X15455000Y-19991000D01*
X15483571Y-19976714D01*
X15540714Y-19976714D01*
X15569286Y-19991000D01*
X15583571Y-20019571D01*
X15583571Y-20048143D01*
X15440714Y-20076714D01*
X15683571Y-20291000D02*
X15697857Y-20276714D01*
X15726428Y-20233857D01*
X15740714Y-20205286D01*
X15755000Y-20162429D01*
X15769286Y-20091000D01*
X15769286Y-20033857D01*
X15755000Y-19962429D01*
X15740714Y-19919571D01*
X15726428Y-19891000D01*
X15697857Y-19848143D01*
X15683571Y-19833857D01*
X16226428Y-20291000D02*
X16212143Y-20276714D01*
X16183571Y-20233857D01*
X16169286Y-20205286D01*
X16155000Y-20162429D01*
X16140714Y-20091000D01*
X16140714Y-20033857D01*
X16155000Y-19962429D01*
X16169286Y-19919571D01*
X16183571Y-19891000D01*
X16212143Y-19848143D01*
X16226428Y-19833857D01*
X16340714Y-19976714D02*
X16340714Y-20176714D01*
X16340714Y-20005286D02*
X16355000Y-19991000D01*
X16383571Y-19976714D01*
X16426428Y-19976714D01*
X16455000Y-19991000D01*
X16469286Y-20019571D01*
X16469286Y-20176714D01*
X16655000Y-20176714D02*
X16626428Y-20162429D01*
X16612143Y-20148143D01*
X16597857Y-20119571D01*
X16597857Y-20033857D01*
X16612143Y-20005286D01*
X16626428Y-19991000D01*
X16655000Y-19976714D01*
X16697857Y-19976714D01*
X16726428Y-19991000D01*
X16740714Y-20005286D01*
X16755000Y-20033857D01*
X16755000Y-20119571D01*
X16740714Y-20148143D01*
X16726428Y-20162429D01*
X16697857Y-20176714D01*
X16655000Y-20176714D01*
X16840714Y-19976714D02*
X16955000Y-19976714D01*
X16883571Y-19876714D02*
X16883571Y-20133857D01*
X16897857Y-20162429D01*
X16926429Y-20176714D01*
X16955000Y-20176714D01*
X17283571Y-19976714D02*
X17283571Y-20276714D01*
X17283571Y-19991000D02*
X17312143Y-19976714D01*
X17369286Y-19976714D01*
X17397857Y-19991000D01*
X17412143Y-20005286D01*
X17426429Y-20033857D01*
X17426429Y-20119571D01*
X17412143Y-20148143D01*
X17397857Y-20162429D01*
X17369286Y-20176714D01*
X17312143Y-20176714D01*
X17283571Y-20162429D01*
X17597857Y-20176714D02*
X17569286Y-20162429D01*
X17555000Y-20133857D01*
X17555000Y-19876714D01*
X17840714Y-20176714D02*
X17840714Y-20019571D01*
X17826429Y-19991000D01*
X17797857Y-19976714D01*
X17740714Y-19976714D01*
X17712143Y-19991000D01*
X17840714Y-20162429D02*
X17812143Y-20176714D01*
X17740714Y-20176714D01*
X17712143Y-20162429D01*
X17697857Y-20133857D01*
X17697857Y-20105286D01*
X17712143Y-20076714D01*
X17740714Y-20062429D01*
X17812143Y-20062429D01*
X17840714Y-20048143D01*
X17940714Y-19976714D02*
X18055000Y-19976714D01*
X17983571Y-19876714D02*
X17983571Y-20133857D01*
X17997857Y-20162429D01*
X18026429Y-20176714D01*
X18055000Y-20176714D01*
X18269286Y-20162429D02*
X18240714Y-20176714D01*
X18183571Y-20176714D01*
X18155000Y-20162429D01*
X18140714Y-20133857D01*
X18140714Y-20019571D01*
X18155000Y-19991000D01*
X18183571Y-19976714D01*
X18240714Y-19976714D01*
X18269286Y-19991000D01*
X18283571Y-20019571D01*
X18283571Y-20048143D01*
X18140714Y-20076714D01*
X18540714Y-20176714D02*
X18540714Y-19876714D01*
X18540714Y-20162429D02*
X18512143Y-20176714D01*
X18455000Y-20176714D01*
X18426429Y-20162429D01*
X18412143Y-20148143D01*
X18397857Y-20119571D01*
X18397857Y-20033857D01*
X18412143Y-20005286D01*
X18426429Y-19991000D01*
X18455000Y-19976714D01*
X18512143Y-19976714D01*
X18540714Y-19991000D01*
X18655000Y-20291000D02*
X18669286Y-20276714D01*
X18697857Y-20233857D01*
X18712143Y-20205286D01*
X18726429Y-20162429D01*
X18740714Y-20091000D01*
X18740714Y-20033857D01*
X18726429Y-19962429D01*
X18712143Y-19919571D01*
X18697857Y-19891000D01*
X18669286Y-19848143D01*
X18655000Y-19833857D01*
M02*
