M48
; DRILL file {KiCad 5.1.9+dfsg1-1+deb11u1} date Tue Feb  7 21:16:09 2023
; FORMAT={-:-/ absolute / inch / decimal}
; #@! TF.CreationDate,2023-02-07T21:16:09+08:00
; #@! TF.GenerationSoftware,Kicad,Pcbnew,5.1.9+dfsg1-1+deb11u1
; #@! TF.FileFunction,Plated,1,2,PTH
FMAT,2
INCH
T1C0.0157
T2C0.0276
T3C0.0295
T4C0.0315
T5C0.0354
T6C0.0374
T7C0.0394
T8C0.0433
T9C0.0512
%
G90
G05
T1
X5.8642Y-6.9154
X6.3012Y-6.8996
X6.3642Y-6.998
X6.4823Y-7.1476
X6.5394Y-6.7106
X6.937Y-6.4075
X9.4094Y-6.9823
X9.4094Y-7.1594
X10.748Y-6.5945
X11.2618Y-6.1929
X11.687Y-6.7618
X11.7657Y-7.2343
X11.811Y-6.7618
T2
X4.3476Y-7.1339
X4.3496Y-6.9882
X4.378Y-5.8819
X4.378Y-6.1819
X4.6476Y-7.1339
X4.6496Y-6.9882
X4.7953Y-5.4331
X4.7953Y-5.7331
X4.9449Y-5.4331
X4.9449Y-5.7331
X5.0945Y-5.4331
X5.0945Y-5.7331
X5.2461Y-5.4331
X5.2461Y-5.7331
X5.3957Y-5.4331
X5.3957Y-5.7331
X5.5453Y-5.4311
X5.5453Y-5.7311
X5.6929Y-5.4311
X5.6929Y-5.7311
X5.8425Y-5.4311
X5.8425Y-5.7311
X5.9902Y-5.4311
X5.9902Y-5.7311
X6.1398Y-5.4311
X6.1398Y-5.7311
X6.2717Y-6.998
X6.2717Y-7.1476
X6.448Y-6.5591
X6.5287Y-6.7854
X6.5717Y-6.998
X6.5717Y-7.1476
X6.748Y-6.5591
X6.7677Y-5.4291
X6.7677Y-5.7291
X6.8287Y-6.7854
X6.9154Y-5.4291
X6.9154Y-5.7291
X7.063Y-5.4291
X7.063Y-5.7291
X7.2126Y-5.4291
X7.2126Y-5.7291
X7.3622Y-5.4291
X7.3622Y-5.7291
X7.5098Y-5.4291
X7.5098Y-5.7291
X7.6594Y-5.4291
X7.6594Y-5.7291
X7.8091Y-5.4291
X7.8091Y-5.7291
X7.9114Y-6.8346
X7.9114Y-6.9862
X7.9114Y-7.1378
X7.9587Y-5.4291
X7.9587Y-5.7291
X8.1063Y-5.4291
X8.1063Y-5.7291
X8.2114Y-6.8346
X8.2114Y-6.9862
X8.2114Y-7.1378
X8.3543Y-6.8358
X8.3543Y-7.1358
X8.4921Y-7.1378
X8.7461Y-5.4291
X8.7461Y-5.7291
X8.7921Y-7.1378
X8.8957Y-5.4291
X8.8957Y-5.7291
X9.0453Y-5.4291
X9.0453Y-5.7291
X9.1949Y-5.4291
X9.1949Y-5.7291
X9.3445Y-5.4291
X9.3445Y-5.7291
X9.4941Y-5.4291
X9.4941Y-5.7291
X9.6437Y-5.4291
X9.6437Y-5.7291
X9.7933Y-5.4291
X9.7933Y-5.7291
X9.9587Y-5.4311
X9.9587Y-5.7311
X10.1122Y-6.8248
X10.1122Y-7.1248
X10.1161Y-5.4272
X10.1161Y-5.7272
X10.7618Y-5.4272
X10.7618Y-5.7272
X10.9134Y-5.4272
X10.9134Y-5.7272
X11.063Y-5.4272
X11.063Y-5.7272
X11.2126Y-5.4272
X11.2126Y-5.7272
X11.3622Y-5.4272
X11.3622Y-5.7272
X11.5098Y-5.4252
X11.5098Y-5.7252
X11.6594Y-5.4252
X11.6594Y-5.7252
X11.8091Y-5.4272
X11.8091Y-5.7272
X11.9587Y-5.4291
X11.9587Y-5.7291
X12.1063Y-5.4291
X12.1063Y-5.7291
T3
X3.9492Y-5.185
X3.9992Y-5.185
X4.0492Y-5.185
X4.1677Y-5.185
X4.2177Y-5.185
X4.2677Y-5.185
X4.3862Y-5.185
X4.4362Y-5.185
X4.4862Y-5.185
X4.6047Y-5.185
X4.6547Y-5.185
X4.7047Y-5.185
X4.8232Y-5.185
X4.8732Y-5.185
X4.9232Y-5.185
X5.0417Y-5.185
X5.0917Y-5.185
X5.1417Y-5.185
X5.2602Y-5.185
X5.3102Y-5.185
X5.3602Y-5.185
X5.4787Y-5.185
X5.5287Y-5.185
X5.5787Y-5.185
X5.648Y-6.8071
X5.6972Y-5.185
X5.698Y-6.8071
X5.7472Y-5.185
X5.748Y-6.8071
X5.7972Y-5.185
X5.9157Y-5.185
X5.9657Y-5.185
X6.0157Y-5.185
X6.1343Y-5.185
X6.1843Y-5.185
X6.2343Y-5.185
X6.3528Y-5.185
X6.4028Y-5.185
X6.4528Y-5.185
X6.5713Y-5.185
X6.6213Y-5.185
X6.6713Y-5.185
X6.7898Y-5.185
X6.8398Y-5.185
X6.8898Y-5.185
X7.0083Y-5.185
X7.0583Y-5.185
X7.1083Y-5.185
X7.2268Y-5.185
X7.2768Y-5.185
X7.3268Y-5.185
X7.4453Y-5.185
X7.4953Y-5.185
X7.5453Y-5.185
X7.6638Y-5.185
X7.7138Y-5.185
X7.7638Y-5.185
X7.8823Y-5.185
X7.9323Y-5.185
X7.9823Y-5.185
X8.1008Y-5.185
X8.1508Y-5.185
X8.2008Y-5.185
X8.3193Y-5.185
X8.3693Y-5.185
X8.4193Y-5.185
X8.5378Y-5.185
X8.5878Y-5.185
X8.6378Y-5.185
X8.7563Y-5.185
X8.8063Y-5.185
X8.8563Y-5.185
X8.9748Y-5.185
X9.0248Y-5.185
X9.0748Y-5.185
X9.1933Y-5.185
X9.2433Y-5.185
X9.2933Y-5.185
X9.4118Y-5.185
X9.4618Y-5.185
X9.5118Y-5.185
X9.6303Y-5.185
X9.6803Y-5.185
X9.7303Y-5.185
X9.8488Y-5.185
X9.8988Y-5.185
X9.9488Y-5.185
X10.0673Y-5.185
X10.1173Y-5.185
X10.1673Y-5.185
X10.2858Y-5.185
X10.3358Y-5.185
X10.3858Y-5.185
X10.5051Y-5.185
X10.5551Y-5.185
X10.6051Y-5.185
X10.7248Y-5.185
X10.7748Y-5.185
X10.8248Y-5.185
X10.9441Y-5.185
X10.9941Y-5.185
X11.0441Y-5.185
X11.1638Y-5.185
X11.2138Y-5.185
X11.2638Y-5.185
X11.3823Y-5.185
X11.4323Y-5.185
X11.4823Y-5.185
X11.6008Y-5.185
X11.6508Y-5.185
X11.7008Y-5.185
X11.8193Y-5.185
X11.8693Y-5.185
X11.9193Y-5.185
X12.0378Y-5.185
X12.0878Y-5.185
X12.1378Y-5.185
X12.2563Y-5.185
X12.3063Y-5.185
X12.3563Y-5.185
X12.4768Y-5.185
X12.5268Y-5.185
X12.5768Y-5.185
T4
X3.8083Y-5.998
X4.0984Y-6.998
X4.1083Y-5.998
X4.1969Y-6.998
X4.2067Y-6.4016
X4.2067Y-6.5016
X4.2067Y-6.6016
X4.2067Y-6.7016
X4.5039Y-5.6083
X4.5067Y-6.4016
X4.5067Y-6.5016
X4.5067Y-6.6016
X4.5067Y-6.7016
X4.6024Y-5.6083
X4.7484Y-6.4681
X4.8051Y-6.8465
X4.8248Y-5.9567
X4.8248Y-6.0945
X4.8484Y-6.3681
X4.8484Y-6.5681
X5.1051Y-6.8465
X5.3484Y-6.4016
X5.3484Y-6.5394
X5.6882Y-5.8886
X5.6882Y-5.9886
X5.6882Y-6.0886
X5.6882Y-6.1886
X5.6882Y-6.2886
X5.6882Y-6.3886
X5.6882Y-6.4886
X5.6882Y-6.5886
X5.9469Y-6.7874
X5.9882Y-5.8886
X5.9882Y-5.9886
X5.9882Y-6.0886
X5.9882Y-6.1886
X5.9882Y-6.2886
X5.9882Y-6.3886
X5.9882Y-6.4886
X5.9882Y-6.5886
X6.3004Y-5.4555
X6.3004Y-5.5555
X6.3004Y-5.6555
X6.3004Y-5.7555
X6.3004Y-5.8555
X6.3004Y-5.9555
X6.3004Y-6.0555
X6.3004Y-6.1555
X6.3469Y-6.7874
X6.5945Y-6.3189
X6.5945Y-6.4173
X6.6004Y-5.4555
X6.6004Y-5.5555
X6.6004Y-5.6555
X6.6004Y-5.7555
X6.6004Y-5.8555
X6.6004Y-5.9555
X6.6004Y-6.0555
X6.6004Y-6.1555
X6.7815Y-6.9173
X6.7815Y-7.0157
X7.0661Y-5.8906
X7.0661Y-5.9906
X7.0661Y-6.0906
X7.0661Y-6.1906
X7.0661Y-6.2906
X7.0661Y-6.3906
X7.0661Y-6.4906
X7.0661Y-6.5906
X7.3661Y-5.8906
X7.3661Y-5.9906
X7.3661Y-6.0906
X7.3661Y-6.1906
X7.3661Y-6.2906
X7.3661Y-6.3906
X7.3661Y-6.4906
X7.3661Y-6.5906
X7.6547Y-5.8906
X7.6547Y-5.9906
X7.6547Y-6.0906
X7.6547Y-6.1906
X7.6547Y-6.2906
X7.6547Y-6.3906
X7.6547Y-6.4906
X7.6547Y-6.5906
X7.9547Y-5.8906
X7.9547Y-5.9906
X7.9547Y-6.0906
X7.9547Y-6.1906
X7.9547Y-6.2906
X7.9547Y-6.3906
X7.9547Y-6.4906
X7.9547Y-6.5906
X8.3024Y-5.4516
X8.3024Y-5.5516
X8.3024Y-5.6516
X8.3024Y-5.7516
X8.3024Y-5.8516
X8.3024Y-5.9516
X8.3024Y-6.0516
X8.3024Y-6.1516
X8.6024Y-5.4516
X8.6024Y-5.5516
X8.6024Y-5.6516
X8.6024Y-5.7516
X8.6024Y-5.8516
X8.6024Y-5.9516
X8.6024Y-6.0516
X8.6024Y-6.1516
X9.4902Y-5.9685
X9.4902Y-6.0669
X9.6567Y-5.8965
X9.6567Y-5.9965
X9.6567Y-6.0965
X9.6567Y-6.1965
X9.6567Y-6.2965
X9.6567Y-6.3965
X9.6567Y-6.4965
X9.6567Y-6.5965
X9.9567Y-5.8965
X9.9567Y-5.9965
X9.9567Y-6.0965
X9.9567Y-6.1965
X9.9567Y-6.2965
X9.9567Y-6.3965
X9.9567Y-6.4965
X9.9567Y-6.5965
X10.3201Y-5.4496
X10.3201Y-5.5496
X10.3201Y-5.6496
X10.3201Y-5.7496
X10.3201Y-5.8496
X10.3201Y-5.9496
X10.3201Y-6.0496
X10.3201Y-6.1496
X10.3358Y-6.8307
X10.3358Y-7.1307
X10.4358Y-6.8307
X10.4358Y-7.1307
X10.5358Y-6.8307
X10.5358Y-7.1307
X10.6201Y-5.4496
X10.6201Y-5.5496
X10.6201Y-5.6496
X10.6201Y-5.7496
X10.6201Y-5.8496
X10.6201Y-5.9496
X10.6201Y-6.0496
X10.6201Y-6.1496
X10.6358Y-6.8307
X10.6358Y-7.1307
X11.0642Y-5.8984
X11.0642Y-5.9984
X11.0642Y-6.0984
X11.0642Y-6.1984
X11.0642Y-6.2984
X11.0642Y-6.3984
X11.0642Y-6.4984
X11.0642Y-6.5984
X11.3642Y-5.8984
X11.3642Y-5.9984
X11.3642Y-6.0984
X11.3642Y-6.1984
X11.3642Y-6.2984
X11.3642Y-6.3984
X11.3642Y-6.4984
X11.3642Y-6.5984
X11.6606Y-5.8984
X11.6606Y-5.9984
X11.6606Y-6.0984
X11.6606Y-6.1984
X11.6606Y-6.2984
X11.6606Y-6.3984
X11.6606Y-6.4984
X11.6606Y-6.5984
X11.9606Y-5.8984
X11.9606Y-5.9984
X11.9606Y-6.0984
X11.9606Y-6.1984
X11.9606Y-6.2984
X11.9606Y-6.3984
X11.9606Y-6.4984
X11.9606Y-6.5984
X12.2906Y-5.4535
X12.2906Y-5.5535
X12.2906Y-5.6535
X12.2906Y-5.7535
X12.2906Y-5.8535
X12.2906Y-5.9535
X12.2906Y-6.0535
X12.2906Y-6.1535
X12.5906Y-5.4535
X12.5906Y-5.5535
X12.5906Y-5.6535
X12.5906Y-5.7535
X12.5906Y-5.8535
X12.5906Y-5.9535
X12.5906Y-6.0535
X12.5906Y-6.1535
T5
X11.0571Y-7.0866
X11.1071Y-7.0866
X11.1571Y-7.0866
X11.2071Y-7.0866
X11.6476Y-7.0512
X11.7476Y-7.0512
X11.8476Y-7.0512
T6
X3.8819Y-6.7303
X3.8819Y-6.8287
X3.8819Y-6.9272
X3.8819Y-7.0256
X4.4882Y-4.9744
X4.5866Y-4.9744
X4.685Y-4.9744
X4.7835Y-4.9744
X4.8819Y-4.9744
X4.9803Y-4.9744
X5.0787Y-4.9744
X5.1772Y-4.9744
X5.2756Y-4.9744
X5.374Y-4.9744
X6.6791Y-4.9744
X6.7776Y-4.9744
X6.876Y-4.9744
X6.9744Y-4.9744
X7.0728Y-4.9744
X7.1713Y-4.9744
X7.2697Y-4.9744
X7.3681Y-4.9744
X7.4665Y-4.9744
X7.565Y-4.9744
X8.8661Y-4.9744
X8.9646Y-4.9744
X9.063Y-4.9744
X9.1614Y-4.9744
X9.2598Y-4.9744
X9.3583Y-4.9744
X9.4567Y-4.9744
X9.5551Y-4.9744
X9.6535Y-4.9744
X9.752Y-4.9744
X11.0472Y-4.9744
X11.1457Y-4.9744
X11.2441Y-4.9744
X11.3425Y-4.9744
X11.4409Y-4.9744
X11.5394Y-4.9744
X11.6378Y-4.9744
X11.7362Y-4.9744
X11.8346Y-4.9744
X11.9331Y-4.9744
X12.3976Y-6.5138
X12.3976Y-6.7657
X12.3976Y-7.0157
X12.4961Y-6.5138
X12.4961Y-6.7657
X12.4961Y-7.0157
X12.5945Y-6.5138
X12.5945Y-6.7657
X12.5945Y-7.0157
T7
X3.8819Y-6.3307
X3.8819Y-6.4291
T8
X5.2224Y-6.065
X5.3224Y-6.065
X5.4224Y-6.065
X6.9961Y-6.8878
X6.9961Y-6.9878
X6.9961Y-7.0878
T9
X5.3386Y-7.0374
X5.4567Y-7.0374
T7
G00X4.0394Y-5.5472
M15
G01X4.0394Y-5.626
M16
G05
G00X4.1181Y-5.7717
M15
G01X4.1969Y-5.7717
M16
G05
G00X4.2756Y-5.5472
M15
G01X4.2756Y-5.626
M16
G05
T0
M30
