M48
; DRILL file {KiCad 7.0.0} date 西元2023年03月26日 (週日) 13時26分49秒
; FORMAT={-:-/ absolute / inch / decimal}
; #@! TF.CreationDate,2023-03-26T13:26:49+08:00
; #@! TF.GenerationSoftware,Kicad,Pcbnew,7.0.0
; #@! TF.FileFunction,Plated,1,2,PTH
FMAT,2
INCH
; #@! TA.AperFunction,Plated,PTH,ViaDrill
T1C0.0157
; #@! TA.AperFunction,Plated,PTH,ComponentDrill
T2C0.0276
; #@! TA.AperFunction,Plated,PTH,ComponentDrill
T3C0.0295
; #@! TA.AperFunction,Plated,PTH,ComponentDrill
T4C0.0300
; #@! TA.AperFunction,Plated,PTH,ComponentDrill
T5C0.0315
; #@! TA.AperFunction,Plated,PTH,ComponentDrill
T6C0.0354
; #@! TA.AperFunction,Plated,PTH,ComponentDrill
T7C0.0374
; #@! TA.AperFunction,Plated,PTH,ComponentDrill
T8C0.0394
; #@! TA.AperFunction,Plated,PTH,ComponentDrill
T9C0.0433
; #@! TA.AperFunction,Plated,PTH,ComponentDrill
T10C0.0512
%
G90
G05
T1
X4.724Y-4.616
X4.764Y-4.648
X5.268Y-4.616
X5.366Y-4.648
X5.474Y-3.606
X6.32Y-3.822
X6.506Y-3.624
X6.64Y-3.822
X6.816Y-4.102
T2
X4.212Y-3.078
X4.212Y-3.218
X4.212Y-3.36
X4.214Y-3.502
X4.356Y-3.7165
X4.412Y-3.078
X4.412Y-3.218
X4.412Y-3.36
X4.414Y-3.502
X4.556Y-3.7165
X5.082Y-3.146
X5.082Y-3.282
X5.282Y-3.146
X5.282Y-3.282
X5.4Y-3.146
X5.4Y-3.282
X5.456Y-3.7165
X5.6Y-3.146
X5.6Y-3.282
X5.656Y-3.7165
X6.502Y-3.7165
X6.702Y-3.7165
X6.79Y-3.228
X6.79Y-3.372
X6.99Y-3.228
X6.99Y-3.372
X7.592Y-3.7165
X7.732Y-4.672
X7.792Y-3.7165
X7.932Y-4.672
T3
X3.7494Y-4.185
X3.7494Y-4.235
X3.7494Y-4.285
X3.944Y-3.376
X3.994Y-3.376
X3.9998Y-4.185
X3.9998Y-4.235
X3.9998Y-4.285
X4.044Y-3.376
X4.0984Y-3.7165
X4.1484Y-3.7165
X4.1984Y-3.7165
X4.2502Y-4.185
X4.2502Y-4.235
X4.2502Y-4.285
X4.5002Y-4.185
X4.5002Y-4.235
X4.5002Y-4.285
X4.7498Y-4.185
X4.7498Y-4.235
X4.7498Y-4.285
X4.9998Y-4.185
X4.9998Y-4.235
X4.9998Y-4.285
X5.206Y-3.7165
X5.2502Y-4.185
X5.2502Y-4.235
X5.2502Y-4.285
X5.256Y-3.7165
X5.306Y-3.7165
X5.456Y-2.946
X5.5002Y-4.185
X5.5002Y-4.235
X5.5002Y-4.285
X5.506Y-2.946
X5.556Y-2.946
X5.7502Y-4.185
X5.7502Y-4.235
X5.7502Y-4.285
X6.0002Y-4.185
X6.0002Y-4.235
X6.0002Y-4.285
X6.246Y-4.184
X6.246Y-4.234
X6.246Y-4.284
X6.256Y-3.7165
X6.306Y-3.7165
X6.356Y-3.7165
X6.492Y-4.188
X6.492Y-4.238
X6.492Y-4.288
X6.734Y-4.186
X6.734Y-4.236
X6.734Y-4.286
X6.978Y-4.182
X6.978Y-4.232
X6.978Y-4.282
X7.352Y-3.7165
X7.402Y-3.7165
X7.452Y-3.7165
T4
X3.6181Y-3.6874
X3.6181Y-3.7874
X3.6181Y-3.8874
X3.6756Y-3.5906
X3.6756Y-3.9843
X3.7756Y-3.5906
X3.7756Y-3.9843
X3.8756Y-3.5906
X3.8756Y-3.9843
X3.9331Y-3.6874
X3.9331Y-3.7874
X3.9331Y-3.8874
X4.7008Y-3.6874
X4.7008Y-3.7874
X4.7008Y-3.8874
X4.7583Y-3.5906
X4.7583Y-3.9843
X4.8583Y-3.5906
X4.8583Y-3.9843
X4.9583Y-3.5906
X4.9583Y-3.9843
X5.0157Y-3.6874
X5.0157Y-3.7874
X5.0157Y-3.8874
X5.8909Y-3.6417
X5.8909Y-3.9331
X5.9909Y-3.6417
X5.9909Y-3.9331
X6.8661Y-3.6874
X6.8661Y-3.7874
X6.8661Y-3.8874
X6.9236Y-3.5906
X6.9236Y-3.9843
X7.0236Y-3.5906
X7.0236Y-3.9843
X7.1236Y-3.5906
X7.1236Y-3.9843
X7.1811Y-3.6874
X7.1811Y-3.7874
X7.1811Y-3.8874
X7.9488Y-3.6874
X7.9488Y-3.7874
X7.9488Y-3.8874
X8.0063Y-3.5906
X8.0063Y-3.9843
X8.1063Y-3.5906
X8.1063Y-3.9843
X8.2063Y-3.5906
X8.2063Y-3.9843
X8.2638Y-3.6874
X8.2638Y-3.7874
X8.2638Y-3.8874
T5
X3.095Y-3.0595
X3.095Y-3.1595
X3.095Y-3.2595
X3.095Y-3.3595
X3.095Y-3.4595
X3.095Y-3.5595
X3.095Y-3.6595
X3.095Y-3.7595
X3.095Y-3.965
X3.095Y-4.065
X3.095Y-4.165
X3.095Y-4.265
X3.095Y-4.365
X3.095Y-4.465
X3.095Y-4.565
X3.395Y-3.0595
X3.395Y-3.1595
X3.395Y-3.2595
X3.395Y-3.3595
X3.395Y-3.4595
X3.395Y-3.5595
X3.395Y-3.6595
X3.395Y-3.7595
X3.395Y-3.965
X3.395Y-4.065
X3.395Y-4.165
X3.395Y-4.265
X3.395Y-4.365
X3.395Y-4.465
X3.395Y-4.565
X3.564Y-3.364
X3.598Y-2.968
X3.648Y-4.4657
X3.648Y-4.7657
X3.664Y-3.264
X3.664Y-3.464
X3.7358Y-2.968
X3.748Y-4.4657
X3.748Y-4.7657
X3.848Y-4.4657
X3.848Y-4.7657
X3.946Y-3.146
X3.948Y-4.4657
X3.948Y-4.7657
X4.046Y-3.146
X4.048Y-4.4657
X4.048Y-4.7657
X4.0669Y-3.9331
X4.148Y-4.4657
X4.148Y-4.7657
X4.248Y-4.4657
X4.248Y-4.7657
X4.348Y-4.4657
X4.348Y-4.7657
X4.5354Y-4.4657
X4.5354Y-4.7657
X4.5669Y-3.9331
X4.598Y-3.138
X4.598Y-3.438
X4.6354Y-4.4657
X4.6354Y-4.7657
X4.698Y-3.138
X4.698Y-3.438
X4.7354Y-4.4657
X4.7354Y-4.7657
X4.798Y-3.138
X4.798Y-3.438
X4.8354Y-4.4657
X4.8354Y-4.7657
X4.898Y-3.138
X4.898Y-3.438
X4.9354Y-4.4657
X4.9354Y-4.7657
X5.0354Y-4.4657
X5.0354Y-4.7657
X5.1354Y-4.4657
X5.1354Y-4.7657
X5.1693Y-3.9331
X5.2968Y-3.47
X5.3952Y-3.47
X5.6693Y-3.9331
X6.204Y-4.4657
X6.204Y-4.7657
X6.216Y-3.9331
X6.284Y-3.154
X6.284Y-3.454
X6.304Y-4.4657
X6.304Y-4.7657
X6.384Y-3.154
X6.384Y-3.454
X6.404Y-4.4657
X6.404Y-4.7657
X6.484Y-3.154
X6.484Y-3.454
X6.504Y-4.4657
X6.504Y-4.7657
X6.584Y-3.154
X6.584Y-3.454
X6.604Y-4.4657
X6.604Y-4.7657
X6.704Y-4.4657
X6.704Y-4.7657
X6.716Y-3.9331
X6.804Y-4.4657
X6.804Y-4.7657
X6.904Y-4.4657
X6.904Y-4.7657
X7.21Y-3.42
X7.29Y-3.14
X7.3056Y-2.876
X7.316Y-3.9331
X7.3687Y-3.14
X7.7056Y-2.876
X7.71Y-3.42
X7.816Y-3.9331
X8.29Y-2.97
X8.4396Y-2.97
X8.6509Y-3.452
X8.7887Y-3.452
T6
X8.084Y-4.672
X8.169Y-4.672
X8.254Y-4.672
X8.339Y-4.672
T7
X4.4887Y-2.86
X4.5871Y-2.86
X4.6856Y-2.86
X4.784Y-2.86
X8.7402Y-3.8583
X8.7402Y-3.9567
X8.7402Y-4.0551
X8.7402Y-4.3307
X8.7402Y-4.4291
X8.7402Y-4.5276
T8
X4.0557Y-2.86
X4.1541Y-2.86
T9
X6.33Y-2.932
X6.43Y-2.932
X6.53Y-2.932
T10
X7.9069Y-2.966
X8.0251Y-2.966
T8
G00X5.7559Y-3.122
M15
G01X5.7559Y-3.2008
M16
G05
G00X5.9803Y-3.0433
M15
G01X5.9016Y-3.0433
M16
G05
G00X5.9803Y-3.2795
M15
G01X5.9016Y-3.2795
M16
G05
T0
M30
