M48
; DRILL file {KiCad 7.0.0} date 西元2023年02月15日 (週三) 18時29分26秒
; FORMAT={-:-/ absolute / inch / decimal}
; #@! TF.CreationDate,2023-02-15T18:29:26+08:00
; #@! TF.GenerationSoftware,Kicad,Pcbnew,7.0.0
; #@! TF.FileFunction,Plated,1,2,PTH
FMAT,2
INCH
; #@! TA.AperFunction,Plated,PTH,ViaDrill
T1C0.0157
; #@! TA.AperFunction,Plated,PTH,ComponentDrill
T2C0.0276
; #@! TA.AperFunction,Plated,PTH,ComponentDrill
T3C0.0295
; #@! TA.AperFunction,Plated,PTH,ComponentDrill
T4C0.0300
; #@! TA.AperFunction,Plated,PTH,ComponentDrill
T5C0.0315
; #@! TA.AperFunction,Plated,PTH,ComponentDrill
T6C0.0354
; #@! TA.AperFunction,Plated,PTH,ComponentDrill
T7C0.0374
; #@! TA.AperFunction,Plated,PTH,ComponentDrill
T8C0.0394
; #@! TA.AperFunction,Plated,PTH,ComponentDrill
T9C0.0433
; #@! TA.AperFunction,Plated,PTH,ComponentDrill
T10C0.0512
%
G90
G05
T1
X3.165Y-4.065
X4.29Y-4.61
X4.325Y-4.575
X4.895Y-4.67
X5.39Y-3.6
X6.245Y-4.09
X6.62Y-3.32
X6.775Y-3.61
T2
X3.5591Y-3.1776
X3.5591Y-3.2776
X3.5591Y-3.3752
X3.5591Y-3.4752
X4.1283Y-3.8327
X4.1291Y-3.9843
X4.2283Y-3.8327
X4.2291Y-3.9843
X5.0031Y-3.0354
X5.0043Y-2.8819
X5.1031Y-3.0354
X5.1043Y-2.8819
X5.2197Y-3.8327
X5.2197Y-3.9843
X5.2236Y-2.8819
X5.2236Y-3.0354
X5.3197Y-3.8327
X5.3197Y-3.9843
X5.3236Y-2.8819
X5.3236Y-3.0354
X5.567Y-3.445
X5.667Y-3.445
X6.27Y-3.1153
X6.27Y-3.2153
X6.27Y-3.32
X6.27Y-3.42
X6.9975Y-3.2106
X6.9975Y-3.37
X7.0975Y-3.2106
X7.0975Y-3.37
X7.142Y-4.6817
X7.205Y-3.2106
X7.205Y-3.37
X7.242Y-4.6817
X7.305Y-3.2106
X7.305Y-3.37
X7.3831Y-3.8327
X7.3831Y-3.9843
X7.4831Y-3.8327
X7.4831Y-3.9843
X8.4559Y-3.8327
X8.4559Y-3.9843
X8.5559Y-3.8327
X8.5559Y-3.9843
T3
X3.6685Y-4.185
X3.6685Y-4.235
X3.6685Y-4.285
X3.9189Y-4.185
X3.9189Y-4.235
X3.9189Y-4.285
X4.1689Y-3.5898
X4.1689Y-3.6398
X4.1689Y-3.6898
X4.1693Y-4.185
X4.1693Y-4.235
X4.1693Y-4.285
X4.4193Y-4.185
X4.4193Y-4.235
X4.4193Y-4.285
X4.5516Y-2.9528
X4.6016Y-2.9528
X4.6516Y-2.9528
X4.6689Y-4.185
X4.6689Y-4.235
X4.6689Y-4.285
X4.9189Y-4.185
X4.9189Y-4.235
X4.9189Y-4.285
X5.1693Y-4.185
X5.1693Y-4.235
X5.1693Y-4.285
X5.252Y-3.5898
X5.252Y-3.6398
X5.252Y-3.6898
X5.4193Y-4.185
X5.4193Y-4.235
X5.4193Y-4.285
X5.6693Y-4.185
X5.6693Y-4.235
X5.6693Y-4.285
X5.9193Y-4.185
X5.9193Y-4.235
X5.9193Y-4.285
X7.4232Y-3.5898
X7.4232Y-3.6398
X7.4232Y-3.6898
X7.6894Y-3.6535
X7.7394Y-3.6535
X7.7894Y-3.6535
X8.498Y-3.5898
X8.498Y-3.6398
X8.498Y-3.6898
T4
X3.6181Y-3.6874
X3.6181Y-3.7874
X3.6181Y-3.8874
X3.6756Y-3.6102
X3.6756Y-3.9646
X3.7756Y-3.6102
X3.7756Y-3.9646
X3.8756Y-3.6102
X3.8756Y-3.9646
X3.9331Y-3.6874
X3.9331Y-3.7874
X3.9331Y-3.8874
X4.7008Y-3.6874
X4.7008Y-3.7874
X4.7008Y-3.8874
X4.7583Y-3.6102
X4.7583Y-3.9646
X4.8583Y-3.6102
X4.8583Y-3.9646
X4.9583Y-3.6102
X4.9583Y-3.9646
X5.0157Y-3.6874
X5.0157Y-3.7874
X5.0157Y-3.8874
X5.8909Y-3.6417
X5.8909Y-3.9331
X5.9909Y-3.6417
X5.9909Y-3.9331
X6.8661Y-3.6874
X6.8661Y-3.7874
X6.8661Y-3.8874
X6.9236Y-3.6102
X6.9236Y-3.9646
X7.0236Y-3.6102
X7.0236Y-3.9646
X7.1236Y-3.6102
X7.1236Y-3.9646
X7.1811Y-3.6874
X7.1811Y-3.7874
X7.1811Y-3.8874
X7.9488Y-3.6874
X7.9488Y-3.7874
X7.9488Y-3.8874
X8.0063Y-3.6102
X8.0063Y-3.9646
X8.1063Y-3.6102
X8.1063Y-3.9646
X8.2063Y-3.6102
X8.2063Y-3.9646
X8.2638Y-3.6874
X8.2638Y-3.7874
X8.2638Y-3.8874
T5
X3.095Y-3.0595
X3.095Y-3.1595
X3.095Y-3.2595
X3.095Y-3.3595
X3.095Y-3.4595
X3.095Y-3.5595
X3.095Y-3.6595
X3.095Y-3.7595
X3.095Y-3.965
X3.095Y-4.065
X3.095Y-4.165
X3.095Y-4.265
X3.095Y-4.365
X3.095Y-4.465
X3.095Y-4.565
X3.395Y-3.0595
X3.395Y-3.1595
X3.395Y-3.2595
X3.395Y-3.3595
X3.395Y-3.4595
X3.395Y-3.5595
X3.395Y-3.6595
X3.395Y-3.7595
X3.395Y-3.965
X3.395Y-4.065
X3.395Y-4.165
X3.395Y-4.265
X3.395Y-4.365
X3.395Y-4.465
X3.395Y-4.565
X3.648Y-4.4657
X3.648Y-4.7657
X3.748Y-4.4657
X3.748Y-4.7657
X3.8209Y-2.9051
X3.848Y-4.4657
X3.848Y-4.7657
X3.9209Y-3.0051
X3.948Y-4.4657
X3.948Y-4.7657
X4.0209Y-2.9051
X4.048Y-4.4657
X4.048Y-4.7657
X4.148Y-4.4657
X4.148Y-4.7657
X4.2264Y-2.9252
X4.248Y-4.4657
X4.248Y-4.7657
X4.348Y-4.4657
X4.348Y-4.7657
X4.3642Y-2.9252
X4.4795Y-3.139
X4.4795Y-3.239
X4.4795Y-3.339
X4.4795Y-3.439
X4.5354Y-4.4657
X4.5354Y-4.7657
X4.6354Y-4.4657
X4.6354Y-4.7657
X4.7354Y-4.4657
X4.7354Y-4.7657
X4.7795Y-3.139
X4.7795Y-3.239
X4.7795Y-3.339
X4.7795Y-3.439
X4.8354Y-4.4657
X4.8354Y-4.7657
X4.8602Y-2.8828
X4.8602Y-2.9828
X4.9354Y-4.4657
X4.9354Y-4.7657
X5.0354Y-4.4657
X5.0354Y-4.7657
X5.1354Y-4.4657
X5.1354Y-4.7657
X5.196Y-3.272
X5.2747Y-3.272
X5.3169Y-4.4665
X5.3169Y-4.7665
X5.3458Y-3.445
X5.4169Y-4.4665
X5.4169Y-4.7665
X5.4442Y-3.445
X5.5169Y-4.4665
X5.5169Y-4.7665
X5.6169Y-4.4665
X5.6169Y-4.7665
X5.7169Y-4.4665
X5.7169Y-4.7665
X5.8169Y-4.4665
X5.8169Y-4.7665
X5.9169Y-4.4665
X5.9169Y-4.7665
X6.0169Y-4.4665
X6.0169Y-4.7665
X6.505Y-3.135
X6.505Y-3.435
X6.605Y-3.135
X6.605Y-3.435
X6.705Y-3.135
X6.705Y-3.435
X6.805Y-2.92
X6.805Y-3.135
X6.805Y-3.435
X7.205Y-2.92
X7.9022Y-3.015
X8.04Y-3.015
X8.359Y-3.015
X8.5086Y-3.015
T6
X7.4456Y-4.6817
X7.5306Y-4.6817
X7.6156Y-4.6817
X7.7006Y-4.6817
T7
X5.5354Y-2.874
X5.5354Y-2.9724
X5.5354Y-3.0709
X5.5354Y-3.1693
X6.2697Y-4.7028
X6.3681Y-4.7028
X6.4665Y-4.7028
X7.9433Y-4.6998
X8.0418Y-4.6998
X8.1402Y-4.6998
T8
X3.5571Y-2.8957
X3.5571Y-2.9941
X4.2874Y-3.2835
X4.2874Y-3.3819
X4.9606Y-3.2815
X4.9606Y-3.3799
T9
X6.3335Y-2.945
X6.4335Y-2.945
X6.5335Y-2.945
T10
X7.4819Y-3.015
X7.6Y-3.015
T8
G00X5.7559Y-3.122
M15
G01X5.7559Y-3.2008
M16
G05
G00X5.9803Y-3.0433
M15
G01X5.9016Y-3.0433
M16
G05
G00X5.9803Y-3.2795
M15
G01X5.9016Y-3.2795
M16
G05
T0
M30
