%TF.GenerationSoftware,KiCad,Pcbnew,7.0.0*%
%TF.CreationDate,2023-07-03T18:36:44+08:00*%
%TF.ProjectId,OpenNixie,4f70656e-4e69-4786-9965-2e6b69636164,v3.0*%
%TF.SameCoordinates,Original*%
%TF.FileFunction,Soldermask,Bot*%
%TF.FilePolarity,Negative*%
%FSLAX46Y46*%
G04 Gerber Fmt 4.6, Leading zero omitted, Abs format (unit mm)*
G04 Created by KiCad (PCBNEW 7.0.0) date 2023-07-03 18:36:44*
%MOMM*%
%LPD*%
G01*
G04 APERTURE LIST*
G04 Aperture macros list*
%AMRoundRect*
0 Rectangle with rounded corners*
0 $1 Rounding radius*
0 $2 $3 $4 $5 $6 $7 $8 $9 X,Y pos of 4 corners*
0 Add a 4 corners polygon primitive as box body*
4,1,4,$2,$3,$4,$5,$6,$7,$8,$9,$2,$3,0*
0 Add four circle primitives for the rounded corners*
1,1,$1+$1,$2,$3*
1,1,$1+$1,$4,$5*
1,1,$1+$1,$6,$7*
1,1,$1+$1,$8,$9*
0 Add four rect primitives between the rounded corners*
20,1,$1+$1,$2,$3,$4,$5,0*
20,1,$1+$1,$4,$5,$6,$7,0*
20,1,$1+$1,$6,$7,$8,$9,0*
20,1,$1+$1,$8,$9,$2,$3,0*%
G04 Aperture macros list end*
%ADD10C,1.600000*%
%ADD11C,2.600000*%
%ADD12C,1.400000*%
%ADD13O,1.400000X1.400000*%
%ADD14O,1.600000X1.600000*%
%ADD15R,1.600000X1.600000*%
%ADD16R,1.050000X1.500000*%
%ADD17O,1.050000X1.500000*%
%ADD18R,1.700000X1.700000*%
%ADD19O,1.700000X1.700000*%
%ADD20C,3.200000*%
%ADD21C,1.524000*%
%ADD22R,3.500000X3.500000*%
%ADD23RoundRect,0.750000X-0.750000X-1.000000X0.750000X-1.000000X0.750000X1.000000X-0.750000X1.000000X0*%
%ADD24RoundRect,0.875000X-0.875000X-0.875000X0.875000X-0.875000X0.875000X0.875000X-0.875000X0.875000X0*%
G04 APERTURE END LIST*
D10*
%TO.C,C4*%
X120162000Y-83820000D03*
X122662000Y-83820000D03*
%TD*%
D11*
%TO.C,L1*%
X131064000Y-84328000D03*
X128064000Y-84328000D03*
%TD*%
D12*
%TO.C,R3*%
X103886000Y-81280000D03*
D13*
X108965999Y-81279999D03*
%TD*%
D12*
%TO.C,R4*%
X112014000Y-81280000D03*
D13*
X117093999Y-81279999D03*
%TD*%
D12*
%TO.C,R5*%
X99822000Y-77978000D03*
D13*
X94741999Y-77977999D03*
%TD*%
D10*
%TO.C,R6*%
X105918000Y-76708000D03*
D14*
X116077999Y-76707999D03*
%TD*%
D15*
%TO.C,U3*%
X92963999Y-116839999D03*
D14*
X95503999Y-116839999D03*
X98043999Y-116839999D03*
X100583999Y-116839999D03*
X103123999Y-116839999D03*
X105663999Y-116839999D03*
X108203999Y-116839999D03*
X110743999Y-116839999D03*
X110743999Y-109219999D03*
X108203999Y-109219999D03*
X105663999Y-109219999D03*
X103123999Y-109219999D03*
X100583999Y-109219999D03*
X98043999Y-109219999D03*
X95503999Y-109219999D03*
X92963999Y-109219999D03*
%TD*%
D12*
%TO.C,R9*%
X216000000Y-91350000D03*
D13*
X221079999Y-91349999D03*
%TD*%
D16*
%TO.C,Q8*%
X193248999Y-111115999D03*
D17*
X194518999Y-111115999D03*
X195788999Y-111115999D03*
%TD*%
D16*
%TO.C,Q9*%
X184389999Y-111115999D03*
D17*
X185659999Y-111115999D03*
X186929999Y-111115999D03*
%TD*%
D12*
%TO.C,R17*%
X142240000Y-100076000D03*
D13*
X142239999Y-94995999D03*
%TD*%
D12*
%TO.C,R24*%
X192024000Y-100076000D03*
D13*
X197103999Y-100075999D03*
%TD*%
D16*
%TO.C,Q14*%
X133603999Y-95249999D03*
D17*
X134873999Y-95249999D03*
X136143999Y-95249999D03*
%TD*%
D12*
%TO.C,R11*%
X200750000Y-116450000D03*
D13*
X205829999Y-116449999D03*
%TD*%
D18*
%TO.C,J6*%
X83413599Y-94233999D03*
D19*
X83413599Y-96773999D03*
X83413599Y-99313999D03*
X83413599Y-101853999D03*
X83413599Y-104393999D03*
%TD*%
D16*
%TO.C,Q16*%
X193451999Y-95299999D03*
D17*
X194721999Y-95299999D03*
X195991999Y-95299999D03*
%TD*%
D16*
%TO.C,Q5*%
X216999999Y-86059199D03*
D17*
X218269999Y-86059199D03*
X219539999Y-86059199D03*
%TD*%
D15*
%TO.C,C2*%
X125858650Y-76199999D03*
D10*
X122358651Y-76200000D03*
%TD*%
D20*
%TO.C,H1*%
X78384400Y-72796400D03*
%TD*%
D10*
%TO.C,C1*%
X105918000Y-87864000D03*
X105918000Y-85364000D03*
%TD*%
D12*
%TO.C,R1*%
X146050000Y-100076000D03*
D13*
X146049999Y-94995999D03*
%TD*%
D21*
%TO.C,J4*%
X174400000Y-96200000D03*
X174400000Y-98740000D03*
X175860000Y-101200000D03*
X178400000Y-101200000D03*
X180940000Y-101200000D03*
X182400000Y-98740000D03*
X182400000Y-96200000D03*
X182400000Y-93660000D03*
X180940000Y-91200000D03*
X178400000Y-91200000D03*
X175860000Y-91200000D03*
X174400000Y-93660000D03*
%TD*%
D12*
%TO.C,R8*%
X216000000Y-103333200D03*
D13*
X221079999Y-103333199D03*
%TD*%
D12*
%TO.C,R12*%
X191725000Y-116450000D03*
D13*
X196804999Y-116449999D03*
%TD*%
D20*
%TO.C,H3*%
X223469200Y-120853200D03*
%TD*%
D15*
%TO.C,U4*%
X117855999Y-116839999D03*
D14*
X120395999Y-116839999D03*
X122935999Y-116839999D03*
X125475999Y-116839999D03*
X128015999Y-116839999D03*
X130555999Y-116839999D03*
X133095999Y-116839999D03*
X135635999Y-116839999D03*
X135635999Y-109219999D03*
X133095999Y-109219999D03*
X130555999Y-109219999D03*
X128015999Y-109219999D03*
X125475999Y-109219999D03*
X122935999Y-109219999D03*
X120395999Y-109219999D03*
X117855999Y-109219999D03*
%TD*%
D16*
%TO.C,Q15*%
X165353999Y-95249999D03*
D17*
X166623999Y-95249999D03*
X167893999Y-95249999D03*
%TD*%
D21*
%TO.C,J5*%
X201900000Y-96200000D03*
X201900000Y-98740000D03*
X203360000Y-101200000D03*
X205900000Y-101200000D03*
X208440000Y-101200000D03*
X209900000Y-98740000D03*
X209900000Y-96200000D03*
X209900000Y-93660000D03*
X208440000Y-91200000D03*
X205900000Y-91200000D03*
X203360000Y-91200000D03*
X201900000Y-93660000D03*
%TD*%
%TO.C,J3*%
X119400000Y-96200000D03*
X119400000Y-98740000D03*
X120860000Y-101200000D03*
X123400000Y-101200000D03*
X125940000Y-101200000D03*
X127400000Y-98740000D03*
X127400000Y-96200000D03*
X127400000Y-93660000D03*
X125940000Y-91200000D03*
X123400000Y-91200000D03*
X120860000Y-91200000D03*
X119400000Y-93660000D03*
%TD*%
D18*
%TO.C,NE1*%
X150899999Y-96199999D03*
D19*
X150899999Y-98739999D03*
%TD*%
D21*
%TO.C,J2*%
X91900000Y-96200000D03*
X91900000Y-98740000D03*
X93360000Y-101200000D03*
X95900000Y-101200000D03*
X98440000Y-101200000D03*
X99900000Y-98740000D03*
X99900000Y-96200000D03*
X99900000Y-93660000D03*
X98440000Y-91200000D03*
X95900000Y-91200000D03*
X93360000Y-91200000D03*
X91900000Y-93660000D03*
%TD*%
D16*
%TO.C,Q11*%
X158804999Y-111215999D03*
D17*
X160074999Y-111215999D03*
X161344999Y-111215999D03*
%TD*%
D12*
%TO.C,R21*%
X83058000Y-116586000D03*
D13*
X88137999Y-116585999D03*
%TD*%
D12*
%TO.C,R16*%
X165910000Y-116525000D03*
D13*
X170989999Y-116524999D03*
%TD*%
D20*
%TO.C,H2*%
X223418400Y-72796400D03*
%TD*%
D16*
%TO.C,Q7*%
X202034999Y-111099999D03*
D17*
X203304999Y-111099999D03*
X204574999Y-111099999D03*
%TD*%
D16*
%TO.C,Q12*%
X167204999Y-111174999D03*
D17*
X168474999Y-111174999D03*
X169744999Y-111174999D03*
%TD*%
D12*
%TO.C,R19*%
X79502000Y-115062000D03*
D13*
X79501999Y-109981999D03*
%TD*%
D16*
%TO.C,Q3*%
X150269999Y-111349999D03*
D17*
X151539999Y-111349999D03*
X152809999Y-111349999D03*
%TD*%
D12*
%TO.C,R2*%
X140462000Y-116586000D03*
D13*
X145541999Y-116585999D03*
%TD*%
D12*
%TO.C,R18*%
X188722000Y-98552000D03*
D13*
X188721999Y-93471999D03*
%TD*%
D22*
%TO.C,J1*%
X89057999Y-83311999D03*
D23*
X83058000Y-83312000D03*
D24*
X86058000Y-88012000D03*
%TD*%
D16*
%TO.C,Q4*%
X216999999Y-98049999D03*
D17*
X218269999Y-98049999D03*
X219539999Y-98049999D03*
%TD*%
D12*
%TO.C,R15*%
X157535000Y-116550000D03*
D13*
X162614999Y-116549999D03*
%TD*%
D12*
%TO.C,R14*%
X174285000Y-116475000D03*
D13*
X179364999Y-116474999D03*
%TD*%
D20*
%TO.C,H4*%
X78384400Y-120853200D03*
%TD*%
D12*
%TO.C,R20*%
X161036000Y-98552000D03*
D13*
X161035999Y-93471999D03*
%TD*%
D16*
%TO.C,Q10*%
X175559999Y-111174999D03*
D17*
X176829999Y-111174999D03*
X178099999Y-111174999D03*
%TD*%
D12*
%TO.C,R22*%
X132334000Y-100076000D03*
D13*
X137413999Y-100075999D03*
%TD*%
D12*
%TO.C,R23*%
X163830000Y-100584000D03*
D13*
X168909999Y-100583999D03*
%TD*%
D16*
%TO.C,Q1*%
X141731999Y-111357999D03*
D17*
X143001999Y-111357999D03*
X144271999Y-111357999D03*
%TD*%
D16*
%TO.C,Q13*%
X84327999Y-111759999D03*
D17*
X85597999Y-111759999D03*
X86867999Y-111759999D03*
%TD*%
D16*
%TO.C,Q6*%
X210846399Y-111128799D03*
D17*
X212116399Y-111128799D03*
X213386399Y-111128799D03*
%TD*%
D12*
%TO.C,R7*%
X149000000Y-116575000D03*
D13*
X154079999Y-116574999D03*
%TD*%
D12*
%TO.C,R10*%
X209485000Y-116425000D03*
D13*
X214564999Y-116424999D03*
%TD*%
D12*
%TO.C,R13*%
X183120000Y-116450000D03*
D13*
X188199999Y-116449999D03*
%TD*%
D15*
%TO.C,C3*%
X136651999Y-76199999D03*
D10*
X132852000Y-76200000D03*
%TD*%
M02*
