%TF.GenerationSoftware,KiCad,Pcbnew,5.1.9+dfsg1-1+deb11u1*%
%TF.CreationDate,2023-02-08T22:39:45+08:00*%
%TF.ProjectId,OpenNixie,4f70656e-4e69-4786-9965-2e6b69636164,v1.3*%
%TF.SameCoordinates,Original*%
%TF.FileFunction,Soldermask,Top*%
%TF.FilePolarity,Negative*%
%FSLAX46Y46*%
G04 Gerber Fmt 4.6, Leading zero omitted, Abs format (unit mm)*
G04 Created by KiCad (PCBNEW 5.1.9+dfsg1-1+deb11u1) date 2023-02-08 22:39:45*
%MOMM*%
%LPD*%
G01*
G04 APERTURE LIST*
%ADD10C,2.100000*%
%ADD11R,6.400000X5.800000*%
%ADD12R,2.200000X1.200000*%
%ADD13C,1.600000*%
%ADD14R,1.600000X1.600000*%
%ADD15O,1.600000X1.600000*%
%ADD16O,1.700000X1.950000*%
%ADD17O,1.950000X1.700000*%
%ADD18O,2.000000X1.700000*%
%ADD19C,1.800000*%
%ADD20R,2.290000X3.000000*%
%ADD21R,1.905000X2.000000*%
%ADD22O,1.905000X2.000000*%
%ADD23C,1.440000*%
%ADD24O,1.400000X1.400000*%
%ADD25C,1.400000*%
%ADD26R,1.050000X1.500000*%
%ADD27O,1.050000X1.500000*%
%ADD28C,2.600000*%
%ADD29R,3.500000X3.500000*%
%ADD30O,1.070000X1.800000*%
%ADD31R,1.070000X1.800000*%
%ADD32R,2.500000X1.800000*%
%ADD33R,3.510000X2.540000*%
G04 APERTURE END LIST*
D10*
%TO.C,REF\u002A\u002A*%
X96900000Y-184350000D03*
%TD*%
%TO.C,REF\u002A\u002A*%
X321900000Y-184350000D03*
%TD*%
%TO.C,REF\u002A\u002A*%
X321900000Y-124400000D03*
%TD*%
%TO.C,REF\u002A\u002A*%
X96900000Y-124400000D03*
%TD*%
D11*
%TO.C,Q2*%
X189475000Y-177350000D03*
D12*
X183175000Y-179630000D03*
X183175000Y-175070000D03*
%TD*%
D13*
%TO.C,C7*%
X108350000Y-179000000D03*
D14*
X112150000Y-179000000D03*
%TD*%
%TO.C,U14*%
X288650000Y-167600000D03*
D15*
X281030000Y-149820000D03*
X288650000Y-165060000D03*
X281030000Y-152360000D03*
X288650000Y-162520000D03*
X281030000Y-154900000D03*
X288650000Y-159980000D03*
X281030000Y-157440000D03*
X288650000Y-157440000D03*
X281030000Y-159980000D03*
X288650000Y-154900000D03*
X281030000Y-162520000D03*
X288650000Y-152360000D03*
X281030000Y-165060000D03*
X288650000Y-149820000D03*
X281030000Y-167600000D03*
%TD*%
D16*
%TO.C,J10*%
X303100000Y-126350000D03*
X300600000Y-126350000D03*
X298100000Y-126350000D03*
X295600000Y-126350000D03*
X293100000Y-126350000D03*
X290600000Y-126350000D03*
X288100000Y-126350000D03*
X285600000Y-126350000D03*
X283100000Y-126350000D03*
G36*
G01*
X279750000Y-127075000D02*
X279750000Y-125625000D01*
G75*
G02*
X280000000Y-125375000I250000J0D01*
G01*
X281200000Y-125375000D01*
G75*
G02*
X281450000Y-125625000I0J-250000D01*
G01*
X281450000Y-127075000D01*
G75*
G02*
X281200000Y-127325000I-250000J0D01*
G01*
X280000000Y-127325000D01*
G75*
G02*
X279750000Y-127075000I0J250000D01*
G01*
G37*
%TD*%
%TO.C,J9*%
X247700000Y-126350000D03*
X245200000Y-126350000D03*
X242700000Y-126350000D03*
X240200000Y-126350000D03*
X237700000Y-126350000D03*
X235200000Y-126350000D03*
X232700000Y-126350000D03*
X230200000Y-126350000D03*
X227700000Y-126350000D03*
G36*
G01*
X224350000Y-127075000D02*
X224350000Y-125625000D01*
G75*
G02*
X224600000Y-125375000I250000J0D01*
G01*
X225800000Y-125375000D01*
G75*
G02*
X226050000Y-125625000I0J-250000D01*
G01*
X226050000Y-127075000D01*
G75*
G02*
X225800000Y-127325000I-250000J0D01*
G01*
X224600000Y-127325000D01*
G75*
G02*
X224350000Y-127075000I0J250000D01*
G01*
G37*
%TD*%
%TO.C,J8*%
X192150000Y-126350000D03*
X189650000Y-126350000D03*
X187150000Y-126350000D03*
X184650000Y-126350000D03*
X182150000Y-126350000D03*
X179650000Y-126350000D03*
X177150000Y-126350000D03*
X174650000Y-126350000D03*
X172150000Y-126350000D03*
G36*
G01*
X168800000Y-127075000D02*
X168800000Y-125625000D01*
G75*
G02*
X169050000Y-125375000I250000J0D01*
G01*
X170250000Y-125375000D01*
G75*
G02*
X170500000Y-125625000I0J-250000D01*
G01*
X170500000Y-127075000D01*
G75*
G02*
X170250000Y-127325000I-250000J0D01*
G01*
X169050000Y-127325000D01*
G75*
G02*
X168800000Y-127075000I0J250000D01*
G01*
G37*
%TD*%
%TO.C,J7*%
X136500000Y-126350000D03*
X134000000Y-126350000D03*
X131500000Y-126350000D03*
X129000000Y-126350000D03*
X126500000Y-126350000D03*
X124000000Y-126350000D03*
X121500000Y-126350000D03*
X119000000Y-126350000D03*
X116500000Y-126350000D03*
G36*
G01*
X113150000Y-127075000D02*
X113150000Y-125625000D01*
G75*
G02*
X113400000Y-125375000I250000J0D01*
G01*
X114600000Y-125375000D01*
G75*
G02*
X114850000Y-125625000I0J-250000D01*
G01*
X114850000Y-127075000D01*
G75*
G02*
X114600000Y-127325000I-250000J0D01*
G01*
X113400000Y-127325000D01*
G75*
G02*
X113150000Y-127075000I0J250000D01*
G01*
G37*
%TD*%
%TO.C,J6*%
X319900000Y-178200000D03*
X317400000Y-178200000D03*
G36*
G01*
X314050000Y-178925000D02*
X314050000Y-177475000D01*
G75*
G02*
X314300000Y-177225000I250000J0D01*
G01*
X315500000Y-177225000D01*
G75*
G02*
X315750000Y-177475000I0J-250000D01*
G01*
X315750000Y-178925000D01*
G75*
G02*
X315500000Y-179175000I-250000J0D01*
G01*
X314300000Y-179175000D01*
G75*
G02*
X314050000Y-178925000I0J250000D01*
G01*
G37*
%TD*%
D17*
%TO.C,J5*%
X98600000Y-178450000D03*
X98600000Y-175950000D03*
X98600000Y-173450000D03*
G36*
G01*
X97875000Y-170100000D02*
X99325000Y-170100000D01*
G75*
G02*
X99575000Y-170350000I0J-250000D01*
G01*
X99575000Y-171550000D01*
G75*
G02*
X99325000Y-171800000I-250000J0D01*
G01*
X97875000Y-171800000D01*
G75*
G02*
X97625000Y-171550000I0J250000D01*
G01*
X97625000Y-170350000D01*
G75*
G02*
X97875000Y-170100000I250000J0D01*
G01*
G37*
%TD*%
D16*
%TO.C,J3*%
X319900000Y-165450000D03*
X317400000Y-165450000D03*
G36*
G01*
X314050000Y-166175000D02*
X314050000Y-164725000D01*
G75*
G02*
X314300000Y-164475000I250000J0D01*
G01*
X315500000Y-164475000D01*
G75*
G02*
X315750000Y-164725000I0J-250000D01*
G01*
X315750000Y-166175000D01*
G75*
G02*
X315500000Y-166425000I-250000J0D01*
G01*
X314300000Y-166425000D01*
G75*
G02*
X314050000Y-166175000I0J250000D01*
G01*
G37*
%TD*%
%TO.C,J2*%
X319900000Y-171850000D03*
X317400000Y-171850000D03*
G36*
G01*
X314050000Y-172575000D02*
X314050000Y-171125000D01*
G75*
G02*
X314300000Y-170875000I250000J0D01*
G01*
X315500000Y-170875000D01*
G75*
G02*
X315750000Y-171125000I0J-250000D01*
G01*
X315750000Y-172575000D01*
G75*
G02*
X315500000Y-172825000I-250000J0D01*
G01*
X314300000Y-172825000D01*
G75*
G02*
X314050000Y-172575000I0J250000D01*
G01*
G37*
%TD*%
D18*
%TO.C,J1*%
X98600000Y-163300000D03*
G36*
G01*
X97850000Y-159950000D02*
X99350000Y-159950000D01*
G75*
G02*
X99600000Y-160200000I0J-250000D01*
G01*
X99600000Y-161400000D01*
G75*
G02*
X99350000Y-161650000I-250000J0D01*
G01*
X97850000Y-161650000D01*
G75*
G02*
X97600000Y-161400000I0J250000D01*
G01*
X97600000Y-160200000D01*
G75*
G02*
X97850000Y-159950000I250000J0D01*
G01*
G37*
%TD*%
D15*
%TO.C,U12*%
X262130000Y-156200000D03*
X269750000Y-138420000D03*
X262130000Y-153660000D03*
X269750000Y-140960000D03*
X262130000Y-151120000D03*
X269750000Y-143500000D03*
X262130000Y-148580000D03*
X269750000Y-146040000D03*
X262130000Y-146040000D03*
X269750000Y-148580000D03*
X262130000Y-143500000D03*
X269750000Y-151120000D03*
X262130000Y-140960000D03*
X269750000Y-153660000D03*
X262130000Y-138420000D03*
D14*
X269750000Y-156200000D03*
%TD*%
D15*
%TO.C,U7*%
X160030000Y-156350000D03*
X167650000Y-138570000D03*
X160030000Y-153810000D03*
X167650000Y-141110000D03*
X160030000Y-151270000D03*
X167650000Y-143650000D03*
X160030000Y-148730000D03*
X167650000Y-146190000D03*
X160030000Y-146190000D03*
X167650000Y-148730000D03*
X160030000Y-143650000D03*
X167650000Y-151270000D03*
X160030000Y-141110000D03*
X167650000Y-153810000D03*
X160030000Y-138570000D03*
D14*
X167650000Y-156350000D03*
%TD*%
%TO.C,U16*%
X303800000Y-167600000D03*
D15*
X296180000Y-149820000D03*
X303800000Y-165060000D03*
X296180000Y-152360000D03*
X303800000Y-162520000D03*
X296180000Y-154900000D03*
X303800000Y-159980000D03*
X296180000Y-157440000D03*
X303800000Y-157440000D03*
X296180000Y-159980000D03*
X303800000Y-154900000D03*
X296180000Y-162520000D03*
X303800000Y-152360000D03*
X296180000Y-165060000D03*
X303800000Y-149820000D03*
X296180000Y-167600000D03*
%TD*%
D14*
%TO.C,U15*%
X252900000Y-167550000D03*
D15*
X245280000Y-149770000D03*
X252900000Y-165010000D03*
X245280000Y-152310000D03*
X252900000Y-162470000D03*
X245280000Y-154850000D03*
X252900000Y-159930000D03*
X245280000Y-157390000D03*
X252900000Y-157390000D03*
X245280000Y-159930000D03*
X252900000Y-154850000D03*
X245280000Y-162470000D03*
X252900000Y-152310000D03*
X245280000Y-165010000D03*
X252900000Y-149770000D03*
X245280000Y-167550000D03*
%TD*%
%TO.C,U13*%
X312180000Y-156300000D03*
X319800000Y-138520000D03*
X312180000Y-153760000D03*
X319800000Y-141060000D03*
X312180000Y-151220000D03*
X319800000Y-143600000D03*
X312180000Y-148680000D03*
X319800000Y-146140000D03*
X312180000Y-146140000D03*
X319800000Y-148680000D03*
X312180000Y-143600000D03*
X319800000Y-151220000D03*
X312180000Y-141060000D03*
X319800000Y-153760000D03*
X312180000Y-138520000D03*
D14*
X319800000Y-156300000D03*
%TD*%
%TO.C,U11*%
X202050000Y-167400000D03*
D15*
X194430000Y-149620000D03*
X202050000Y-164860000D03*
X194430000Y-152160000D03*
X202050000Y-162320000D03*
X194430000Y-154700000D03*
X202050000Y-159780000D03*
X194430000Y-157240000D03*
X202050000Y-157240000D03*
X194430000Y-159780000D03*
X202050000Y-154700000D03*
X194430000Y-162320000D03*
X202050000Y-152160000D03*
X194430000Y-164860000D03*
X202050000Y-149620000D03*
X194430000Y-167400000D03*
%TD*%
D14*
%TO.C,U10*%
X152100000Y-167350000D03*
D15*
X144480000Y-149570000D03*
X152100000Y-164810000D03*
X144480000Y-152110000D03*
X152100000Y-162270000D03*
X144480000Y-154650000D03*
X152100000Y-159730000D03*
X144480000Y-157190000D03*
X152100000Y-157190000D03*
X144480000Y-159730000D03*
X152100000Y-154650000D03*
X144480000Y-162270000D03*
X152100000Y-152110000D03*
X144480000Y-164810000D03*
X152100000Y-149570000D03*
X144480000Y-167350000D03*
%TD*%
D14*
%TO.C,U9*%
X187100000Y-167400000D03*
D15*
X179480000Y-149620000D03*
X187100000Y-164860000D03*
X179480000Y-152160000D03*
X187100000Y-162320000D03*
X179480000Y-154700000D03*
X187100000Y-159780000D03*
X179480000Y-157240000D03*
X187100000Y-157240000D03*
X179480000Y-159780000D03*
X187100000Y-154700000D03*
X179480000Y-162320000D03*
X187100000Y-152160000D03*
X179480000Y-164860000D03*
X187100000Y-149620000D03*
X179480000Y-167400000D03*
%TD*%
%TO.C,U8*%
X210880000Y-156250000D03*
X218500000Y-138470000D03*
X210880000Y-153710000D03*
X218500000Y-141010000D03*
X210880000Y-151170000D03*
X218500000Y-143550000D03*
X210880000Y-148630000D03*
X218500000Y-146090000D03*
X210880000Y-146090000D03*
X218500000Y-148630000D03*
X210880000Y-143550000D03*
X218500000Y-151170000D03*
X210880000Y-141010000D03*
X218500000Y-153710000D03*
X210880000Y-138470000D03*
D14*
X218500000Y-156250000D03*
%TD*%
D19*
%TO.C,U6*%
X300930000Y-179100000D03*
X298390000Y-179100000D03*
G36*
G01*
X294950000Y-179751600D02*
X294950000Y-178448400D01*
G75*
G02*
X295198400Y-178200000I248400J0D01*
G01*
X296501600Y-178200000D01*
G75*
G02*
X296750000Y-178448400I0J-248400D01*
G01*
X296750000Y-179751600D01*
G75*
G02*
X296501600Y-180000000I-248400J0D01*
G01*
X295198400Y-180000000D01*
G75*
G02*
X294950000Y-179751600I0J248400D01*
G01*
G37*
%TD*%
D15*
%TO.C,U5*%
X270150000Y-181120000D03*
X262530000Y-173500000D03*
X267610000Y-181120000D03*
X265070000Y-173500000D03*
X265070000Y-181120000D03*
X267610000Y-173500000D03*
X262530000Y-181120000D03*
D14*
X270150000Y-173500000D03*
%TD*%
%TO.C,U4*%
G36*
G01*
X251745000Y-171525000D02*
X252045000Y-171525000D01*
G75*
G02*
X252195000Y-171675000I0J-150000D01*
G01*
X252195000Y-173425000D01*
G75*
G02*
X252045000Y-173575000I-150000J0D01*
G01*
X251745000Y-173575000D01*
G75*
G02*
X251595000Y-173425000I0J150000D01*
G01*
X251595000Y-171675000D01*
G75*
G02*
X251745000Y-171525000I150000J0D01*
G01*
G37*
G36*
G01*
X250475000Y-171525000D02*
X250775000Y-171525000D01*
G75*
G02*
X250925000Y-171675000I0J-150000D01*
G01*
X250925000Y-173425000D01*
G75*
G02*
X250775000Y-173575000I-150000J0D01*
G01*
X250475000Y-173575000D01*
G75*
G02*
X250325000Y-173425000I0J150000D01*
G01*
X250325000Y-171675000D01*
G75*
G02*
X250475000Y-171525000I150000J0D01*
G01*
G37*
G36*
G01*
X249205000Y-171525000D02*
X249505000Y-171525000D01*
G75*
G02*
X249655000Y-171675000I0J-150000D01*
G01*
X249655000Y-173425000D01*
G75*
G02*
X249505000Y-173575000I-150000J0D01*
G01*
X249205000Y-173575000D01*
G75*
G02*
X249055000Y-173425000I0J150000D01*
G01*
X249055000Y-171675000D01*
G75*
G02*
X249205000Y-171525000I150000J0D01*
G01*
G37*
G36*
G01*
X247935000Y-171525000D02*
X248235000Y-171525000D01*
G75*
G02*
X248385000Y-171675000I0J-150000D01*
G01*
X248385000Y-173425000D01*
G75*
G02*
X248235000Y-173575000I-150000J0D01*
G01*
X247935000Y-173575000D01*
G75*
G02*
X247785000Y-173425000I0J150000D01*
G01*
X247785000Y-171675000D01*
G75*
G02*
X247935000Y-171525000I150000J0D01*
G01*
G37*
G36*
G01*
X246665000Y-171525000D02*
X246965000Y-171525000D01*
G75*
G02*
X247115000Y-171675000I0J-150000D01*
G01*
X247115000Y-173425000D01*
G75*
G02*
X246965000Y-173575000I-150000J0D01*
G01*
X246665000Y-173575000D01*
G75*
G02*
X246515000Y-173425000I0J150000D01*
G01*
X246515000Y-171675000D01*
G75*
G02*
X246665000Y-171525000I150000J0D01*
G01*
G37*
G36*
G01*
X245395000Y-171525000D02*
X245695000Y-171525000D01*
G75*
G02*
X245845000Y-171675000I0J-150000D01*
G01*
X245845000Y-173425000D01*
G75*
G02*
X245695000Y-173575000I-150000J0D01*
G01*
X245395000Y-173575000D01*
G75*
G02*
X245245000Y-173425000I0J150000D01*
G01*
X245245000Y-171675000D01*
G75*
G02*
X245395000Y-171525000I150000J0D01*
G01*
G37*
G36*
G01*
X244125000Y-171525000D02*
X244425000Y-171525000D01*
G75*
G02*
X244575000Y-171675000I0J-150000D01*
G01*
X244575000Y-173425000D01*
G75*
G02*
X244425000Y-173575000I-150000J0D01*
G01*
X244125000Y-173575000D01*
G75*
G02*
X243975000Y-173425000I0J150000D01*
G01*
X243975000Y-171675000D01*
G75*
G02*
X244125000Y-171525000I150000J0D01*
G01*
G37*
G36*
G01*
X242855000Y-171525000D02*
X243155000Y-171525000D01*
G75*
G02*
X243305000Y-171675000I0J-150000D01*
G01*
X243305000Y-173425000D01*
G75*
G02*
X243155000Y-173575000I-150000J0D01*
G01*
X242855000Y-173575000D01*
G75*
G02*
X242705000Y-173425000I0J150000D01*
G01*
X242705000Y-171675000D01*
G75*
G02*
X242855000Y-171525000I150000J0D01*
G01*
G37*
G36*
G01*
X242855000Y-180825000D02*
X243155000Y-180825000D01*
G75*
G02*
X243305000Y-180975000I0J-150000D01*
G01*
X243305000Y-182725000D01*
G75*
G02*
X243155000Y-182875000I-150000J0D01*
G01*
X242855000Y-182875000D01*
G75*
G02*
X242705000Y-182725000I0J150000D01*
G01*
X242705000Y-180975000D01*
G75*
G02*
X242855000Y-180825000I150000J0D01*
G01*
G37*
G36*
G01*
X244125000Y-180825000D02*
X244425000Y-180825000D01*
G75*
G02*
X244575000Y-180975000I0J-150000D01*
G01*
X244575000Y-182725000D01*
G75*
G02*
X244425000Y-182875000I-150000J0D01*
G01*
X244125000Y-182875000D01*
G75*
G02*
X243975000Y-182725000I0J150000D01*
G01*
X243975000Y-180975000D01*
G75*
G02*
X244125000Y-180825000I150000J0D01*
G01*
G37*
G36*
G01*
X245395000Y-180825000D02*
X245695000Y-180825000D01*
G75*
G02*
X245845000Y-180975000I0J-150000D01*
G01*
X245845000Y-182725000D01*
G75*
G02*
X245695000Y-182875000I-150000J0D01*
G01*
X245395000Y-182875000D01*
G75*
G02*
X245245000Y-182725000I0J150000D01*
G01*
X245245000Y-180975000D01*
G75*
G02*
X245395000Y-180825000I150000J0D01*
G01*
G37*
G36*
G01*
X246665000Y-180825000D02*
X246965000Y-180825000D01*
G75*
G02*
X247115000Y-180975000I0J-150000D01*
G01*
X247115000Y-182725000D01*
G75*
G02*
X246965000Y-182875000I-150000J0D01*
G01*
X246665000Y-182875000D01*
G75*
G02*
X246515000Y-182725000I0J150000D01*
G01*
X246515000Y-180975000D01*
G75*
G02*
X246665000Y-180825000I150000J0D01*
G01*
G37*
G36*
G01*
X247935000Y-180825000D02*
X248235000Y-180825000D01*
G75*
G02*
X248385000Y-180975000I0J-150000D01*
G01*
X248385000Y-182725000D01*
G75*
G02*
X248235000Y-182875000I-150000J0D01*
G01*
X247935000Y-182875000D01*
G75*
G02*
X247785000Y-182725000I0J150000D01*
G01*
X247785000Y-180975000D01*
G75*
G02*
X247935000Y-180825000I150000J0D01*
G01*
G37*
G36*
G01*
X249205000Y-180825000D02*
X249505000Y-180825000D01*
G75*
G02*
X249655000Y-180975000I0J-150000D01*
G01*
X249655000Y-182725000D01*
G75*
G02*
X249505000Y-182875000I-150000J0D01*
G01*
X249205000Y-182875000D01*
G75*
G02*
X249055000Y-182725000I0J150000D01*
G01*
X249055000Y-180975000D01*
G75*
G02*
X249205000Y-180825000I150000J0D01*
G01*
G37*
G36*
G01*
X250475000Y-180825000D02*
X250775000Y-180825000D01*
G75*
G02*
X250925000Y-180975000I0J-150000D01*
G01*
X250925000Y-182725000D01*
G75*
G02*
X250775000Y-182875000I-150000J0D01*
G01*
X250475000Y-182875000D01*
G75*
G02*
X250325000Y-182725000I0J150000D01*
G01*
X250325000Y-180975000D01*
G75*
G02*
X250475000Y-180825000I150000J0D01*
G01*
G37*
G36*
G01*
X251745000Y-180825000D02*
X252045000Y-180825000D01*
G75*
G02*
X252195000Y-180975000I0J-150000D01*
G01*
X252195000Y-182725000D01*
G75*
G02*
X252045000Y-182875000I-150000J0D01*
G01*
X251745000Y-182875000D01*
G75*
G02*
X251595000Y-182725000I0J150000D01*
G01*
X251595000Y-180975000D01*
G75*
G02*
X251745000Y-180825000I150000J0D01*
G01*
G37*
%TD*%
%TO.C,U3*%
G36*
G01*
X147650000Y-178095000D02*
X147650000Y-177795000D01*
G75*
G02*
X147800000Y-177645000I150000J0D01*
G01*
X149450000Y-177645000D01*
G75*
G02*
X149600000Y-177795000I0J-150000D01*
G01*
X149600000Y-178095000D01*
G75*
G02*
X149450000Y-178245000I-150000J0D01*
G01*
X147800000Y-178245000D01*
G75*
G02*
X147650000Y-178095000I0J150000D01*
G01*
G37*
G36*
G01*
X147650000Y-179365000D02*
X147650000Y-179065000D01*
G75*
G02*
X147800000Y-178915000I150000J0D01*
G01*
X149450000Y-178915000D01*
G75*
G02*
X149600000Y-179065000I0J-150000D01*
G01*
X149600000Y-179365000D01*
G75*
G02*
X149450000Y-179515000I-150000J0D01*
G01*
X147800000Y-179515000D01*
G75*
G02*
X147650000Y-179365000I0J150000D01*
G01*
G37*
G36*
G01*
X147650000Y-180635000D02*
X147650000Y-180335000D01*
G75*
G02*
X147800000Y-180185000I150000J0D01*
G01*
X149450000Y-180185000D01*
G75*
G02*
X149600000Y-180335000I0J-150000D01*
G01*
X149600000Y-180635000D01*
G75*
G02*
X149450000Y-180785000I-150000J0D01*
G01*
X147800000Y-180785000D01*
G75*
G02*
X147650000Y-180635000I0J150000D01*
G01*
G37*
G36*
G01*
X147650000Y-181905000D02*
X147650000Y-181605000D01*
G75*
G02*
X147800000Y-181455000I150000J0D01*
G01*
X149450000Y-181455000D01*
G75*
G02*
X149600000Y-181605000I0J-150000D01*
G01*
X149600000Y-181905000D01*
G75*
G02*
X149450000Y-182055000I-150000J0D01*
G01*
X147800000Y-182055000D01*
G75*
G02*
X147650000Y-181905000I0J150000D01*
G01*
G37*
G36*
G01*
X152600000Y-181905000D02*
X152600000Y-181605000D01*
G75*
G02*
X152750000Y-181455000I150000J0D01*
G01*
X154400000Y-181455000D01*
G75*
G02*
X154550000Y-181605000I0J-150000D01*
G01*
X154550000Y-181905000D01*
G75*
G02*
X154400000Y-182055000I-150000J0D01*
G01*
X152750000Y-182055000D01*
G75*
G02*
X152600000Y-181905000I0J150000D01*
G01*
G37*
G36*
G01*
X152600000Y-180635000D02*
X152600000Y-180335000D01*
G75*
G02*
X152750000Y-180185000I150000J0D01*
G01*
X154400000Y-180185000D01*
G75*
G02*
X154550000Y-180335000I0J-150000D01*
G01*
X154550000Y-180635000D01*
G75*
G02*
X154400000Y-180785000I-150000J0D01*
G01*
X152750000Y-180785000D01*
G75*
G02*
X152600000Y-180635000I0J150000D01*
G01*
G37*
G36*
G01*
X152600000Y-179365000D02*
X152600000Y-179065000D01*
G75*
G02*
X152750000Y-178915000I150000J0D01*
G01*
X154400000Y-178915000D01*
G75*
G02*
X154550000Y-179065000I0J-150000D01*
G01*
X154550000Y-179365000D01*
G75*
G02*
X154400000Y-179515000I-150000J0D01*
G01*
X152750000Y-179515000D01*
G75*
G02*
X152600000Y-179365000I0J150000D01*
G01*
G37*
G36*
G01*
X152600000Y-178095000D02*
X152600000Y-177795000D01*
G75*
G02*
X152750000Y-177645000I150000J0D01*
G01*
X154400000Y-177645000D01*
G75*
G02*
X154550000Y-177795000I0J-150000D01*
G01*
X154550000Y-178095000D01*
G75*
G02*
X154400000Y-178245000I-150000J0D01*
G01*
X152750000Y-178245000D01*
G75*
G02*
X152600000Y-178095000I0J150000D01*
G01*
G37*
D20*
X151100000Y-179850000D03*
%TD*%
D14*
%TO.C,U2*%
X106850000Y-162600000D03*
D15*
X114470000Y-170220000D03*
X106850000Y-165140000D03*
X114470000Y-167680000D03*
X106850000Y-167680000D03*
X114470000Y-165140000D03*
X106850000Y-170220000D03*
X114470000Y-162600000D03*
%TD*%
D21*
%TO.C,U1*%
X132650000Y-154050000D03*
D22*
X135190000Y-154050000D03*
X137730000Y-154050000D03*
%TD*%
D15*
%TO.C,SW1*%
X96730000Y-152350000D03*
D14*
X104350000Y-152350000D03*
%TD*%
D23*
%TO.C,RV1*%
X123150000Y-161750000D03*
X120610000Y-164290000D03*
X123150000Y-166830000D03*
%TD*%
D24*
%TO.C,R54*%
X296150000Y-145420000D03*
D25*
X296150000Y-137800000D03*
%TD*%
D24*
%TO.C,R53*%
X244950000Y-145520000D03*
D25*
X244950000Y-137900000D03*
%TD*%
D24*
%TO.C,R52*%
X303750000Y-145520000D03*
D25*
X303750000Y-137900000D03*
%TD*%
D24*
%TO.C,R51*%
X307500000Y-145520000D03*
D25*
X307500000Y-137900000D03*
%TD*%
D24*
%TO.C,R50*%
X252950000Y-145570000D03*
D25*
X252950000Y-137950000D03*
%TD*%
D24*
%TO.C,R49*%
X256950000Y-145470000D03*
D25*
X256950000Y-137850000D03*
%TD*%
D24*
%TO.C,R48*%
X299950000Y-145470000D03*
D25*
X299950000Y-137850000D03*
%TD*%
D24*
%TO.C,R47*%
X248750000Y-145520000D03*
D25*
X248750000Y-137900000D03*
%TD*%
D24*
%TO.C,R46*%
X288600000Y-145470000D03*
D25*
X288600000Y-137850000D03*
%TD*%
D24*
%TO.C,R45*%
X237350000Y-145520000D03*
D25*
X237350000Y-137900000D03*
%TD*%
D24*
%TO.C,R44*%
X292350000Y-145420000D03*
D25*
X292350000Y-137800000D03*
%TD*%
D24*
%TO.C,R43*%
X241150000Y-145520000D03*
D25*
X241150000Y-137900000D03*
%TD*%
D24*
%TO.C,R42*%
X281000000Y-145470000D03*
D25*
X281000000Y-137850000D03*
%TD*%
D24*
%TO.C,R41*%
X229750000Y-145520000D03*
D25*
X229750000Y-137900000D03*
%TD*%
D24*
%TO.C,R40*%
X284800000Y-145470000D03*
D25*
X284800000Y-137850000D03*
%TD*%
D24*
%TO.C,R39*%
X233550000Y-145520000D03*
D25*
X233550000Y-137900000D03*
%TD*%
D24*
%TO.C,R38*%
X273350000Y-145470000D03*
D25*
X273350000Y-137850000D03*
%TD*%
D24*
%TO.C,R37*%
X222150000Y-145520000D03*
D25*
X222150000Y-137900000D03*
%TD*%
D24*
%TO.C,R36*%
X277200000Y-145470000D03*
D25*
X277200000Y-137850000D03*
%TD*%
D24*
%TO.C,R35*%
X225950000Y-145520000D03*
D25*
X225950000Y-137900000D03*
%TD*%
D24*
%TO.C,R34*%
X194550000Y-145520000D03*
D25*
X194550000Y-137900000D03*
%TD*%
D24*
%TO.C,R33*%
X144600000Y-145570000D03*
D25*
X144600000Y-137950000D03*
%TD*%
D24*
%TO.C,R32*%
X202150000Y-145520000D03*
D25*
X202150000Y-137900000D03*
%TD*%
D24*
%TO.C,R31*%
X205900000Y-145520000D03*
D25*
X205900000Y-137900000D03*
%TD*%
D24*
%TO.C,R30*%
X152150000Y-145570000D03*
D25*
X152150000Y-137950000D03*
%TD*%
D24*
%TO.C,R29*%
X155950000Y-145570000D03*
D25*
X155950000Y-137950000D03*
%TD*%
D24*
%TO.C,R28*%
X198350000Y-145520000D03*
D25*
X198350000Y-137900000D03*
%TD*%
D24*
%TO.C,R27*%
X148400000Y-145570000D03*
D25*
X148400000Y-137950000D03*
%TD*%
D24*
%TO.C,R26*%
X187000000Y-145520000D03*
D25*
X187000000Y-137900000D03*
%TD*%
D24*
%TO.C,R25*%
X137050000Y-145620000D03*
D25*
X137050000Y-138000000D03*
%TD*%
D24*
%TO.C,R24*%
X190750000Y-145520000D03*
D25*
X190750000Y-137900000D03*
%TD*%
D24*
%TO.C,R23*%
X140850000Y-145570000D03*
D25*
X140850000Y-137950000D03*
%TD*%
D24*
%TO.C,R22*%
X179400000Y-145520000D03*
D25*
X179400000Y-137900000D03*
%TD*%
D24*
%TO.C,R21*%
X129400000Y-145620000D03*
D25*
X129400000Y-138000000D03*
%TD*%
D24*
%TO.C,R20*%
X183200000Y-145520000D03*
D25*
X183200000Y-137900000D03*
%TD*%
D24*
%TO.C,R19*%
X133250000Y-145620000D03*
D25*
X133250000Y-138000000D03*
%TD*%
%TO.C,R18*%
X171900000Y-137900000D03*
D24*
X171900000Y-145520000D03*
%TD*%
%TO.C,R17*%
X121800000Y-145620000D03*
D25*
X121800000Y-138000000D03*
%TD*%
D24*
%TO.C,R16*%
X175650000Y-145520000D03*
D25*
X175650000Y-137900000D03*
%TD*%
D24*
%TO.C,R15*%
X125600000Y-145620000D03*
D25*
X125600000Y-138000000D03*
%TD*%
D15*
%TO.C,R14*%
X161210000Y-172400000D03*
D13*
X151050000Y-172400000D03*
%TD*%
D24*
%TO.C,R13*%
X256850000Y-180970000D03*
D25*
X256850000Y-173350000D03*
%TD*%
D24*
%TO.C,R12*%
X166920000Y-181550000D03*
D25*
X159300000Y-181550000D03*
%TD*%
D24*
%TO.C,R11*%
X166920000Y-177750000D03*
D25*
X159300000Y-177750000D03*
%TD*%
D24*
%TO.C,R10*%
X212200000Y-181250000D03*
D25*
X212200000Y-173630000D03*
%TD*%
D24*
%TO.C,R9*%
X208570000Y-173600000D03*
D25*
X200950000Y-173600000D03*
%TD*%
D24*
%TO.C,R8*%
X208570000Y-177450000D03*
D25*
X200950000Y-177450000D03*
%TD*%
D24*
%TO.C,R7*%
X208570000Y-181300000D03*
D25*
X200950000Y-181300000D03*
%TD*%
D24*
%TO.C,R6*%
X118830000Y-177850000D03*
D25*
X126450000Y-177850000D03*
%TD*%
D24*
%TO.C,R5*%
X118780000Y-181550000D03*
D25*
X126400000Y-181550000D03*
%TD*%
D24*
%TO.C,R4*%
X163780000Y-166600000D03*
D25*
X171400000Y-166600000D03*
%TD*%
%TO.C,R3*%
X173450000Y-172350000D03*
D24*
X165830000Y-172350000D03*
%TD*%
%TO.C,R2*%
X111200000Y-157020000D03*
D25*
X111200000Y-149400000D03*
%TD*%
D24*
%TO.C,R1*%
X223320000Y-181300000D03*
D25*
X215700000Y-181300000D03*
%TD*%
D26*
%TO.C,Q42*%
X319450000Y-131700000D03*
D27*
X316910000Y-131700000D03*
X318180000Y-131700000D03*
%TD*%
D26*
%TO.C,Q41*%
X263800000Y-131700000D03*
D27*
X261260000Y-131700000D03*
X262530000Y-131700000D03*
%TD*%
D26*
%TO.C,Q40*%
X313850000Y-131700000D03*
D27*
X311310000Y-131700000D03*
X312580000Y-131700000D03*
%TD*%
D26*
%TO.C,Q39*%
X258250000Y-131700000D03*
D27*
X255710000Y-131700000D03*
X256980000Y-131700000D03*
%TD*%
D26*
%TO.C,Q38*%
X302750000Y-131700000D03*
D27*
X300210000Y-131700000D03*
X301480000Y-131700000D03*
%TD*%
D26*
%TO.C,Q37*%
X247150000Y-131700000D03*
D27*
X244610000Y-131700000D03*
X245880000Y-131700000D03*
%TD*%
D26*
%TO.C,Q36*%
X308300000Y-131700000D03*
D27*
X305760000Y-131700000D03*
X307030000Y-131700000D03*
%TD*%
D26*
%TO.C,Q35*%
X252700000Y-131700000D03*
D27*
X250160000Y-131700000D03*
X251430000Y-131700000D03*
%TD*%
D26*
%TO.C,Q34*%
X291650000Y-131700000D03*
D27*
X289110000Y-131700000D03*
X290380000Y-131700000D03*
%TD*%
D26*
%TO.C,Q33*%
X236050000Y-131700000D03*
D27*
X233510000Y-131700000D03*
X234780000Y-131700000D03*
%TD*%
D26*
%TO.C,Q32*%
X297200000Y-131700000D03*
D27*
X294660000Y-131700000D03*
X295930000Y-131700000D03*
%TD*%
D26*
%TO.C,Q31*%
X241600000Y-131700000D03*
D27*
X239060000Y-131700000D03*
X240330000Y-131700000D03*
%TD*%
D26*
%TO.C,Q30*%
X280520000Y-131700000D03*
D27*
X277980000Y-131700000D03*
X279250000Y-131700000D03*
%TD*%
D26*
%TO.C,Q29*%
X224950000Y-131700000D03*
D27*
X222410000Y-131700000D03*
X223680000Y-131700000D03*
%TD*%
D26*
%TO.C,Q28*%
X286100000Y-131700000D03*
D27*
X283560000Y-131700000D03*
X284830000Y-131700000D03*
%TD*%
D26*
%TO.C,Q27*%
X230500000Y-131700000D03*
D27*
X227960000Y-131700000D03*
X229230000Y-131700000D03*
%TD*%
D26*
%TO.C,Q26*%
X269370000Y-131700000D03*
D27*
X266830000Y-131700000D03*
X268100000Y-131700000D03*
%TD*%
%TO.C,Q25*%
X212580000Y-131700000D03*
X211310000Y-131700000D03*
D26*
X213850000Y-131700000D03*
%TD*%
%TO.C,Q24*%
X274950000Y-131700000D03*
D27*
X272410000Y-131700000D03*
X273680000Y-131700000D03*
%TD*%
%TO.C,Q23*%
X218130000Y-131700000D03*
X216860000Y-131700000D03*
D26*
X219400000Y-131700000D03*
%TD*%
D27*
%TO.C,Q22*%
X207030000Y-131700000D03*
X205760000Y-131700000D03*
D26*
X208300000Y-131700000D03*
%TD*%
%TO.C,Q21*%
X152800000Y-131700000D03*
D27*
X150260000Y-131700000D03*
X151530000Y-131700000D03*
%TD*%
%TO.C,Q20*%
X201480000Y-131700000D03*
X200210000Y-131700000D03*
D26*
X202750000Y-131700000D03*
%TD*%
%TO.C,Q19*%
X147250000Y-131700000D03*
D27*
X144710000Y-131700000D03*
X145980000Y-131700000D03*
%TD*%
%TO.C,Q18*%
X190380000Y-131700000D03*
X189110000Y-131700000D03*
D26*
X191650000Y-131700000D03*
%TD*%
%TO.C,Q17*%
X136150000Y-131700000D03*
D27*
X133610000Y-131700000D03*
X134880000Y-131700000D03*
%TD*%
%TO.C,Q16*%
X195930000Y-131700000D03*
X194660000Y-131700000D03*
D26*
X197200000Y-131700000D03*
%TD*%
%TO.C,Q15*%
X141700000Y-131700000D03*
D27*
X139160000Y-131700000D03*
X140430000Y-131700000D03*
%TD*%
%TO.C,Q14*%
X179280000Y-131700000D03*
X178010000Y-131700000D03*
D26*
X180550000Y-131700000D03*
%TD*%
%TO.C,Q13*%
X125050000Y-131700000D03*
D27*
X122510000Y-131700000D03*
X123780000Y-131700000D03*
%TD*%
%TO.C,Q12*%
X184830000Y-131700000D03*
X183560000Y-131700000D03*
D26*
X186100000Y-131700000D03*
%TD*%
%TO.C,Q11*%
X130600000Y-131700000D03*
D27*
X128060000Y-131700000D03*
X129330000Y-131700000D03*
%TD*%
%TO.C,Q10*%
X168180000Y-131700000D03*
X166910000Y-131700000D03*
D26*
X169450000Y-131700000D03*
%TD*%
%TO.C,Q9*%
X113950000Y-131700000D03*
D27*
X111410000Y-131700000D03*
X112680000Y-131700000D03*
%TD*%
%TO.C,Q8*%
X173730000Y-131700000D03*
X172460000Y-131700000D03*
D26*
X175000000Y-131700000D03*
%TD*%
%TO.C,Q7*%
X119500000Y-131700000D03*
D27*
X116960000Y-131700000D03*
X118230000Y-131700000D03*
%TD*%
%TO.C,Q6*%
X157080000Y-131700000D03*
X155810000Y-131700000D03*
D26*
X158350000Y-131700000D03*
%TD*%
%TO.C,Q5*%
X102850000Y-131700000D03*
D27*
X100310000Y-131700000D03*
X101580000Y-131700000D03*
%TD*%
%TO.C,Q4*%
X162630000Y-131700000D03*
X161360000Y-131700000D03*
D26*
X163900000Y-131700000D03*
%TD*%
%TO.C,Q3*%
X108400000Y-131700000D03*
D27*
X105860000Y-131700000D03*
X107130000Y-131700000D03*
%TD*%
D26*
%TO.C,Q1*%
X143350000Y-172650000D03*
D27*
X140810000Y-172650000D03*
X142080000Y-172650000D03*
%TD*%
D28*
%TO.C,L1*%
X131650000Y-177650000D03*
X134650000Y-177650000D03*
%TD*%
D29*
%TO.C,J4*%
X108600000Y-141900000D03*
G36*
G01*
X101100000Y-142900000D02*
X101100000Y-140900000D01*
G75*
G02*
X101850000Y-140150000I750000J0D01*
G01*
X103350000Y-140150000D01*
G75*
G02*
X104100000Y-140900000I0J-750000D01*
G01*
X104100000Y-142900000D01*
G75*
G02*
X103350000Y-143650000I-750000J0D01*
G01*
X101850000Y-143650000D01*
G75*
G02*
X101100000Y-142900000I0J750000D01*
G01*
G37*
G36*
G01*
X103850000Y-147475000D02*
X103850000Y-145725000D01*
G75*
G02*
X104725000Y-144850000I875000J0D01*
G01*
X106475000Y-144850000D01*
G75*
G02*
X107350000Y-145725000I0J-875000D01*
G01*
X107350000Y-147475000D01*
G75*
G02*
X106475000Y-148350000I-875000J0D01*
G01*
X104725000Y-148350000D01*
G75*
G02*
X103850000Y-147475000I0J875000D01*
G01*
G37*
%TD*%
D30*
%TO.C,D3*%
X284660000Y-180000000D03*
X283390000Y-180000000D03*
X282120000Y-180000000D03*
D31*
X280850000Y-180000000D03*
%TD*%
D32*
%TO.C,D2*%
X140000000Y-178800000D03*
X144000000Y-178800000D03*
%TD*%
D14*
%TO.C,D1*%
X118700000Y-173850000D03*
D15*
X126320000Y-173850000D03*
%TD*%
D13*
%TO.C,C8*%
X172250000Y-178200000D03*
X172250000Y-175700000D03*
%TD*%
%TO.C,C5*%
X122550000Y-151300000D03*
D14*
X122550000Y-154800000D03*
%TD*%
D13*
%TO.C,C4*%
X241050000Y-151600000D03*
X241050000Y-154100000D03*
%TD*%
%TO.C,C3*%
X135850000Y-162600000D03*
D14*
X135850000Y-166100000D03*
%TD*%
D13*
%TO.C,C2*%
X116900000Y-142450000D03*
D14*
X114400000Y-142450000D03*
%TD*%
D13*
%TO.C,C1*%
X167500000Y-163000000D03*
D14*
X167500000Y-160500000D03*
%TD*%
D33*
%TO.C,BT1*%
X229300000Y-181330000D03*
X229300000Y-151970000D03*
%TD*%
M02*
