M48
; DRILL file {KiCad 7.0.0} date 西元2023年06月28日 (週三) 12時23分20秒
; FORMAT={-:-/ absolute / inch / decimal}
; #@! TF.CreationDate,2023-06-28T12:23:20+08:00
; #@! TF.GenerationSoftware,Kicad,Pcbnew,7.0.0
; #@! TF.FileFunction,Plated,1,2,PTH
FMAT,2
INCH
; #@! TA.AperFunction,Plated,PTH,ViaDrill
T1C0.0157
; #@! TA.AperFunction,Plated,PTH,ComponentDrill
T2C0.0276
; #@! TA.AperFunction,Plated,PTH,ComponentDrill
T3C0.0295
; #@! TA.AperFunction,Plated,PTH,ComponentDrill
T4C0.0300
; #@! TA.AperFunction,Plated,PTH,ComponentDrill
T5C0.0315
; #@! TA.AperFunction,Plated,PTH,ComponentDrill
T6C0.0394
; #@! TA.AperFunction,Plated,PTH,ComponentDrill
T7C0.0512
%
G90
G05
T1
X3.45Y-4.27
X3.56Y-4.234
X3.95Y-3.43
X4.1402Y-3.8759
X4.27Y-3.41
X4.46Y-3.64
X4.57Y-3.47
X4.762Y-4.426
X4.978Y-4.516
X5.036Y-4.538
X6.75Y-3.58
X6.96Y-3.8
X7.79Y-4.246
T2
X3.13Y-4.33
X3.13Y-4.53
X3.27Y-4.59
X3.47Y-4.59
X3.73Y-3.07
X3.93Y-3.07
X4.09Y-3.2
X4.29Y-3.2
X4.41Y-3.2
X4.61Y-3.2
X5.21Y-3.94
X5.41Y-3.94
X5.53Y-4.59
X5.6Y-3.74
X5.6Y-3.94
X5.73Y-4.59
X5.75Y-3.74
X5.75Y-3.94
X5.87Y-4.31
X5.87Y-4.51
X5.9255Y-2.956
X5.9255Y-3.156
X6.0Y-4.59
X6.042Y-3.234
X6.2Y-4.59
X6.242Y-3.234
X6.34Y-3.68
X6.34Y-3.88
X6.34Y-4.31
X6.34Y-4.51
X6.4416Y-2.9552
X6.4416Y-3.1552
X6.45Y-3.96
X6.46Y-4.59
X6.5664Y-3.2343
X6.65Y-3.96
X6.66Y-4.59
X6.7664Y-3.2343
X6.8Y-4.31
X6.8Y-4.51
X6.91Y-4.59
X7.11Y-4.59
X7.26Y-4.31
X7.26Y-4.51
X7.38Y-4.59
X7.43Y-3.68
X7.43Y-3.88
X7.488Y-3.148
X7.488Y-3.348
X7.56Y-3.94
X7.58Y-4.59
X7.618Y-3.428
X7.71Y-4.31
X7.71Y-4.51
X7.76Y-3.94
X7.818Y-3.428
X7.83Y-4.59
X7.954Y-3.148
X7.954Y-3.348
X8.03Y-4.59
X8.084Y-3.428
X8.16Y-4.31
X8.16Y-4.51
X8.27Y-4.59
X8.284Y-3.428
X8.47Y-4.59
T3
X3.32Y-4.4
X3.37Y-4.4
X3.42Y-4.4
X5.26Y-3.75
X5.31Y-3.75
X5.36Y-3.75
X5.58Y-4.3842
X5.63Y-4.3842
X5.68Y-4.3842
X6.05Y-4.38
X6.1Y-3.026
X6.1Y-4.38
X6.15Y-3.026
X6.15Y-4.38
X6.2Y-3.026
X6.51Y-3.75
X6.51Y-4.38
X6.56Y-3.75
X6.56Y-4.38
X6.61Y-3.75
X6.61Y-4.38
X6.612Y-3.026
X6.662Y-3.026
X6.712Y-3.026
X6.97Y-4.38
X7.02Y-4.38
X7.07Y-4.38
X7.43Y-4.38
X7.48Y-4.38
X7.53Y-4.38
X7.6162Y-3.752
X7.6662Y-3.752
X7.668Y-3.2182
X7.7162Y-3.752
X7.718Y-3.2182
X7.768Y-3.2182
X7.88Y-4.38
X7.93Y-4.38
X7.98Y-4.38
X8.134Y-3.218
X8.184Y-3.218
X8.234Y-3.218
X8.33Y-4.38
X8.38Y-4.38
X8.43Y-4.38
T4
X3.6181Y-3.6874
X3.6181Y-3.7874
X3.6181Y-3.8874
X3.6756Y-3.5906
X3.6756Y-3.9843
X3.7756Y-3.5906
X3.7756Y-3.9843
X3.8756Y-3.5906
X3.8756Y-3.9843
X3.9331Y-3.6874
X3.9331Y-3.7874
X3.9331Y-3.8874
X4.7008Y-3.6874
X4.7008Y-3.7874
X4.7008Y-3.8874
X4.7583Y-3.5906
X4.7583Y-3.9843
X4.8583Y-3.5906
X4.8583Y-3.9843
X4.9583Y-3.5906
X4.9583Y-3.9843
X5.0157Y-3.6874
X5.0157Y-3.7874
X5.0157Y-3.8874
X6.8661Y-3.6874
X6.8661Y-3.7874
X6.8661Y-3.8874
X6.9236Y-3.5906
X6.9236Y-3.9843
X7.0236Y-3.5906
X7.0236Y-3.9843
X7.1236Y-3.5906
X7.1236Y-3.9843
X7.1811Y-3.6874
X7.1811Y-3.7874
X7.1811Y-3.8874
X7.9488Y-3.6874
X7.9488Y-3.7874
X7.9488Y-3.8874
X8.0063Y-3.5906
X8.0063Y-3.9843
X8.1063Y-3.5906
X8.1063Y-3.9843
X8.2063Y-3.5906
X8.2063Y-3.9843
X8.2638Y-3.6874
X8.2638Y-3.7874
X8.2638Y-3.8874
T5
X3.66Y-4.3
X3.66Y-4.6
X3.76Y-4.3
X3.76Y-4.6
X3.86Y-4.3
X3.86Y-4.6
X3.96Y-4.3
X3.96Y-4.6
X4.06Y-4.3
X4.06Y-4.6
X4.16Y-4.3
X4.16Y-4.6
X4.17Y-3.02
X4.17Y-3.3608
X4.17Y-3.4592
X4.26Y-4.3
X4.26Y-4.6
X4.36Y-4.3
X4.36Y-4.6
X4.57Y-3.02
X4.64Y-4.3
X4.64Y-4.6
X4.7308Y-3.3
X4.74Y-4.3
X4.74Y-4.6
X4.8173Y-3.0
X4.8292Y-3.3
X4.84Y-4.3
X4.84Y-4.6
X4.94Y-4.3
X4.94Y-4.6
X4.9551Y-3.0
X5.04Y-4.3
X5.04Y-4.6
X5.14Y-4.3
X5.14Y-4.6
X5.2304Y-3.0
X5.24Y-4.3
X5.24Y-4.6
X5.34Y-4.3
X5.34Y-4.6
X5.38Y-3.0
T6
X3.284Y-3.71
X3.284Y-3.81
X3.284Y-3.91
X3.284Y-4.01
X3.284Y-4.11
X5.9409Y-3.7874
X5.9409Y-3.8874
T7
X5.0419Y-3.32
X5.16Y-3.32
T6
G00X3.27Y-3.2406
M15
G01X3.27Y-3.3194
M16
G05
G00X3.3487Y-3.465
M15
G01X3.4275Y-3.465
M16
G05
G00X3.5062Y-3.2406
M15
G01X3.5062Y-3.3194
M16
G05
T0
M30
