%FSLAX45Y45*%
G04 Gerber Fmt 4.5, Leading zero omitted, Abs format (unit mm)*
G04 Created by KiCad (PCBNEW 5.1.9+dfsg1-1+deb11u1) date 2023-02-08 13:18:24*
%MOMM*%
%LPD*%
G01*
G04 APERTURE LIST*
%TA.AperFunction,Profile*%
%ADD10C,0.050000*%
%TD*%
%ADD11C,0.200000*%
%ADD12C,0.300000*%
G04 APERTURE END LIST*
D10*
X9690000Y-12195000D02*
X32190000Y-12195000D01*
X9445000Y-18435000D02*
X9445000Y-12440000D01*
X32190000Y-18680000D02*
X9690000Y-18680000D01*
X32435000Y-12440000D02*
X32435000Y-18435000D01*
X32190000Y-12195000D02*
G75*
G02*
X32435000Y-12440000I0J-245000D01*
G01*
X32435000Y-18435000D02*
G75*
G02*
X32190000Y-18680000I-245000J0D01*
G01*
X9690000Y-18680000D02*
G75*
G02*
X9445000Y-18435000I0J245000D01*
G01*
X9445000Y-12440000D02*
G75*
G02*
X9690000Y-12195000I245000J0D01*
G01*
D11*
X14875000Y-17545000D02*
X14915000Y-17585000D01*
X14915000Y-17545000D02*
X14875000Y-17585000D01*
X15985000Y-17505000D02*
X16025000Y-17545000D01*
X16025000Y-17505000D02*
X15985000Y-17545000D01*
X16590000Y-17025000D02*
X16630000Y-17065000D01*
X16630000Y-17025000D02*
X16590000Y-17065000D01*
X17225000Y-18285000D02*
X17265000Y-18325000D01*
X17265000Y-18285000D02*
X17225000Y-18325000D01*
X17600000Y-16255000D02*
X17640000Y-16295000D01*
X17640000Y-16255000D02*
X17600000Y-16295000D01*
X23880000Y-17715000D02*
X23920000Y-17755000D01*
X23920000Y-17715000D02*
X23880000Y-17755000D01*
X23880000Y-18165000D02*
X23920000Y-18205000D01*
X23920000Y-18165000D02*
X23880000Y-18205000D01*
X27280000Y-16730000D02*
X27320000Y-16770000D01*
X27320000Y-16730000D02*
X27280000Y-16770000D01*
X28585000Y-15710000D02*
X28625000Y-15750000D01*
X28625000Y-15710000D02*
X28585000Y-15750000D01*
X29665000Y-17155000D02*
X29705000Y-17195000D01*
X29705000Y-17155000D02*
X29665000Y-17195000D01*
X29865000Y-18355000D02*
X29905000Y-18395000D01*
X29905000Y-18355000D02*
X29865000Y-18395000D01*
X29980000Y-17155000D02*
X30020000Y-17195000D01*
X30020000Y-17155000D02*
X29980000Y-17195000D01*
X11155000Y-14940000D02*
G75*
G03*
X11155000Y-14940000I-35000J0D01*
G01*
X11155000Y-15702000D02*
G75*
G03*
X11155000Y-15702000I-35000J0D01*
G01*
X11913000Y-18155000D02*
G75*
G03*
X11913000Y-18155000I-35000J0D01*
G01*
X11918000Y-17785000D02*
G75*
G03*
X11918000Y-17785000I-35000J0D01*
G01*
X12215000Y-13800000D02*
G75*
G03*
X12215000Y-13800000I-35000J0D01*
G01*
X12215000Y-14562000D02*
G75*
G03*
X12215000Y-14562000I-35000J0D01*
G01*
X12595000Y-13800000D02*
G75*
G03*
X12595000Y-13800000I-35000J0D01*
G01*
X12595000Y-14562000D02*
G75*
G03*
X12595000Y-14562000I-35000J0D01*
G01*
X12675000Y-18155000D02*
G75*
G03*
X12675000Y-18155000I-35000J0D01*
G01*
X12680000Y-17785000D02*
G75*
G03*
X12680000Y-17785000I-35000J0D01*
G01*
X12975000Y-13800000D02*
G75*
G03*
X12975000Y-13800000I-35000J0D01*
G01*
X12975000Y-14562000D02*
G75*
G03*
X12975000Y-14562000I-35000J0D01*
G01*
X13360000Y-13800000D02*
G75*
G03*
X13360000Y-13800000I-35000J0D01*
G01*
X13360000Y-14562000D02*
G75*
G03*
X13360000Y-14562000I-35000J0D01*
G01*
X13740000Y-13800000D02*
G75*
G03*
X13740000Y-13800000I-35000J0D01*
G01*
X13740000Y-14562000D02*
G75*
G03*
X13740000Y-14562000I-35000J0D01*
G01*
X14120000Y-13795000D02*
G75*
G03*
X14120000Y-13795000I-35000J0D01*
G01*
X14120000Y-14557000D02*
G75*
G03*
X14120000Y-14557000I-35000J0D01*
G01*
X14495000Y-13795000D02*
G75*
G03*
X14495000Y-13795000I-35000J0D01*
G01*
X14495000Y-14557000D02*
G75*
G03*
X14495000Y-14557000I-35000J0D01*
G01*
X14875000Y-13795000D02*
G75*
G03*
X14875000Y-13795000I-35000J0D01*
G01*
X14875000Y-14557000D02*
G75*
G03*
X14875000Y-14557000I-35000J0D01*
G01*
X15250000Y-13795000D02*
G75*
G03*
X15250000Y-13795000I-35000J0D01*
G01*
X15250000Y-14557000D02*
G75*
G03*
X15250000Y-14557000I-35000J0D01*
G01*
X15630000Y-13795000D02*
G75*
G03*
X15630000Y-13795000I-35000J0D01*
G01*
X15630000Y-14557000D02*
G75*
G03*
X15630000Y-14557000I-35000J0D01*
G01*
X15965000Y-17775000D02*
G75*
G03*
X15965000Y-17775000I-35000J0D01*
G01*
X15965000Y-18155000D02*
G75*
G03*
X15965000Y-18155000I-35000J0D01*
G01*
X16413000Y-16660000D02*
G75*
G03*
X16413000Y-16660000I-35000J0D01*
G01*
X16618000Y-17235000D02*
G75*
G03*
X16618000Y-17235000I-35000J0D01*
G01*
X16727000Y-17775000D02*
G75*
G03*
X16727000Y-17775000I-35000J0D01*
G01*
X16727000Y-18155000D02*
G75*
G03*
X16727000Y-18155000I-35000J0D01*
G01*
X17175000Y-16660000D02*
G75*
G03*
X17175000Y-16660000I-35000J0D01*
G01*
X17225000Y-13790000D02*
G75*
G03*
X17225000Y-13790000I-35000J0D01*
G01*
X17225000Y-14552000D02*
G75*
G03*
X17225000Y-14552000I-35000J0D01*
G01*
X17380000Y-17235000D02*
G75*
G03*
X17380000Y-17235000I-35000J0D01*
G01*
X17600000Y-13790000D02*
G75*
G03*
X17600000Y-13790000I-35000J0D01*
G01*
X17600000Y-14552000D02*
G75*
G03*
X17600000Y-14552000I-35000J0D01*
G01*
X17975000Y-13790000D02*
G75*
G03*
X17975000Y-13790000I-35000J0D01*
G01*
X17975000Y-14552000D02*
G75*
G03*
X17975000Y-14552000I-35000J0D01*
G01*
X18355000Y-13790000D02*
G75*
G03*
X18355000Y-13790000I-35000J0D01*
G01*
X18355000Y-14552000D02*
G75*
G03*
X18355000Y-14552000I-35000J0D01*
G01*
X18735000Y-13790000D02*
G75*
G03*
X18735000Y-13790000I-35000J0D01*
G01*
X18735000Y-14552000D02*
G75*
G03*
X18735000Y-14552000I-35000J0D01*
G01*
X19110000Y-13790000D02*
G75*
G03*
X19110000Y-13790000I-35000J0D01*
G01*
X19110000Y-14552000D02*
G75*
G03*
X19110000Y-14552000I-35000J0D01*
G01*
X19490000Y-13790000D02*
G75*
G03*
X19490000Y-13790000I-35000J0D01*
G01*
X19490000Y-14552000D02*
G75*
G03*
X19490000Y-14552000I-35000J0D01*
G01*
X19870000Y-13790000D02*
G75*
G03*
X19870000Y-13790000I-35000J0D01*
G01*
X19870000Y-14552000D02*
G75*
G03*
X19870000Y-14552000I-35000J0D01*
G01*
X20130000Y-17360000D02*
G75*
G03*
X20130000Y-17360000I-35000J0D01*
G01*
X20130000Y-17745000D02*
G75*
G03*
X20130000Y-17745000I-35000J0D01*
G01*
X20130000Y-18130000D02*
G75*
G03*
X20130000Y-18130000I-35000J0D01*
G01*
X20250000Y-13790000D02*
G75*
G03*
X20250000Y-13790000I-35000J0D01*
G01*
X20250000Y-14552000D02*
G75*
G03*
X20250000Y-14552000I-35000J0D01*
G01*
X20625000Y-13790000D02*
G75*
G03*
X20625000Y-13790000I-35000J0D01*
G01*
X20625000Y-14552000D02*
G75*
G03*
X20625000Y-14552000I-35000J0D01*
G01*
X20892000Y-17360000D02*
G75*
G03*
X20892000Y-17360000I-35000J0D01*
G01*
X20892000Y-17745000D02*
G75*
G03*
X20892000Y-17745000I-35000J0D01*
G01*
X20892000Y-18130000D02*
G75*
G03*
X20892000Y-18130000I-35000J0D01*
G01*
X21255000Y-17363000D02*
G75*
G03*
X21255000Y-17363000I-35000J0D01*
G01*
X21255000Y-18125000D02*
G75*
G03*
X21255000Y-18125000I-35000J0D01*
G01*
X21605000Y-18130000D02*
G75*
G03*
X21605000Y-18130000I-35000J0D01*
G01*
X22250000Y-13790000D02*
G75*
G03*
X22250000Y-13790000I-35000J0D01*
G01*
X22250000Y-14552000D02*
G75*
G03*
X22250000Y-14552000I-35000J0D01*
G01*
X22367000Y-18130000D02*
G75*
G03*
X22367000Y-18130000I-35000J0D01*
G01*
X22630000Y-13790000D02*
G75*
G03*
X22630000Y-13790000I-35000J0D01*
G01*
X22630000Y-14552000D02*
G75*
G03*
X22630000Y-14552000I-35000J0D01*
G01*
X23010000Y-13790000D02*
G75*
G03*
X23010000Y-13790000I-35000J0D01*
G01*
X23010000Y-14552000D02*
G75*
G03*
X23010000Y-14552000I-35000J0D01*
G01*
X23390000Y-13790000D02*
G75*
G03*
X23390000Y-13790000I-35000J0D01*
G01*
X23390000Y-14552000D02*
G75*
G03*
X23390000Y-14552000I-35000J0D01*
G01*
X23770000Y-13790000D02*
G75*
G03*
X23770000Y-13790000I-35000J0D01*
G01*
X23770000Y-14552000D02*
G75*
G03*
X23770000Y-14552000I-35000J0D01*
G01*
X24150000Y-13790000D02*
G75*
G03*
X24150000Y-13790000I-35000J0D01*
G01*
X24150000Y-14552000D02*
G75*
G03*
X24150000Y-14552000I-35000J0D01*
G01*
X24530000Y-13790000D02*
G75*
G03*
X24530000Y-13790000I-35000J0D01*
G01*
X24530000Y-14552000D02*
G75*
G03*
X24530000Y-14552000I-35000J0D01*
G01*
X24910000Y-13790000D02*
G75*
G03*
X24910000Y-13790000I-35000J0D01*
G01*
X24910000Y-14552000D02*
G75*
G03*
X24910000Y-14552000I-35000J0D01*
G01*
X25330000Y-13795000D02*
G75*
G03*
X25330000Y-13795000I-35000J0D01*
G01*
X25330000Y-14557000D02*
G75*
G03*
X25330000Y-14557000I-35000J0D01*
G01*
X25720000Y-17335000D02*
G75*
G03*
X25720000Y-17335000I-35000J0D01*
G01*
X25720000Y-18097000D02*
G75*
G03*
X25720000Y-18097000I-35000J0D01*
G01*
X25730000Y-13785000D02*
G75*
G03*
X25730000Y-13785000I-35000J0D01*
G01*
X25730000Y-14547000D02*
G75*
G03*
X25730000Y-14547000I-35000J0D01*
G01*
X27370000Y-13785000D02*
G75*
G03*
X27370000Y-13785000I-35000J0D01*
G01*
X27370000Y-14547000D02*
G75*
G03*
X27370000Y-14547000I-35000J0D01*
G01*
X27755000Y-13785000D02*
G75*
G03*
X27755000Y-13785000I-35000J0D01*
G01*
X27755000Y-14547000D02*
G75*
G03*
X27755000Y-14547000I-35000J0D01*
G01*
X28135000Y-13785000D02*
G75*
G03*
X28135000Y-13785000I-35000J0D01*
G01*
X28135000Y-14547000D02*
G75*
G03*
X28135000Y-14547000I-35000J0D01*
G01*
X28515000Y-13785000D02*
G75*
G03*
X28515000Y-13785000I-35000J0D01*
G01*
X28515000Y-14547000D02*
G75*
G03*
X28515000Y-14547000I-35000J0D01*
G01*
X28895000Y-13785000D02*
G75*
G03*
X28895000Y-13785000I-35000J0D01*
G01*
X28895000Y-14547000D02*
G75*
G03*
X28895000Y-14547000I-35000J0D01*
G01*
X29270000Y-13780000D02*
G75*
G03*
X29270000Y-13780000I-35000J0D01*
G01*
X29270000Y-14542000D02*
G75*
G03*
X29270000Y-14542000I-35000J0D01*
G01*
X29650000Y-13780000D02*
G75*
G03*
X29650000Y-13780000I-35000J0D01*
G01*
X29650000Y-14542000D02*
G75*
G03*
X29650000Y-14542000I-35000J0D01*
G01*
X30030000Y-13785000D02*
G75*
G03*
X30030000Y-13785000I-35000J0D01*
G01*
X30030000Y-14547000D02*
G75*
G03*
X30030000Y-14547000I-35000J0D01*
G01*
X30410000Y-13790000D02*
G75*
G03*
X30410000Y-13790000I-35000J0D01*
G01*
X30410000Y-14552000D02*
G75*
G03*
X30410000Y-14552000I-35000J0D01*
G01*
X30785000Y-13790000D02*
G75*
G03*
X30785000Y-13790000I-35000J0D01*
G01*
X30785000Y-14552000D02*
G75*
G03*
X30785000Y-14552000I-35000J0D01*
G01*
X10031000Y-13132500D02*
X10031000Y-13207500D01*
X9993500Y-13170000D02*
X10068500Y-13170000D01*
X10158000Y-13132500D02*
X10158000Y-13207500D01*
X10120500Y-13170000D02*
X10195500Y-13170000D01*
X10285000Y-13132500D02*
X10285000Y-13207500D01*
X10247500Y-13170000D02*
X10322500Y-13170000D01*
X10586000Y-13132500D02*
X10586000Y-13207500D01*
X10548500Y-13170000D02*
X10623500Y-13170000D01*
X10713000Y-13132500D02*
X10713000Y-13207500D01*
X10675500Y-13170000D02*
X10750500Y-13170000D01*
X10840000Y-13132500D02*
X10840000Y-13207500D01*
X10802500Y-13170000D02*
X10877500Y-13170000D01*
X11141000Y-13132500D02*
X11141000Y-13207500D01*
X11103500Y-13170000D02*
X11178500Y-13170000D01*
X11268000Y-13132500D02*
X11268000Y-13207500D01*
X11230500Y-13170000D02*
X11305500Y-13170000D01*
X11395000Y-13132500D02*
X11395000Y-13207500D01*
X11357500Y-13170000D02*
X11432500Y-13170000D01*
X11696000Y-13132500D02*
X11696000Y-13207500D01*
X11658500Y-13170000D02*
X11733500Y-13170000D01*
X11823000Y-13132500D02*
X11823000Y-13207500D01*
X11785500Y-13170000D02*
X11860500Y-13170000D01*
X11950000Y-13132500D02*
X11950000Y-13207500D01*
X11912500Y-13170000D02*
X11987500Y-13170000D01*
X12251000Y-13132500D02*
X12251000Y-13207500D01*
X12213500Y-13170000D02*
X12288500Y-13170000D01*
X12378000Y-13132500D02*
X12378000Y-13207500D01*
X12340500Y-13170000D02*
X12415500Y-13170000D01*
X12505000Y-13132500D02*
X12505000Y-13207500D01*
X12467500Y-13170000D02*
X12542500Y-13170000D01*
X12806000Y-13132500D02*
X12806000Y-13207500D01*
X12768500Y-13170000D02*
X12843500Y-13170000D01*
X12933000Y-13132500D02*
X12933000Y-13207500D01*
X12895500Y-13170000D02*
X12970500Y-13170000D01*
X13060000Y-13132500D02*
X13060000Y-13207500D01*
X13022500Y-13170000D02*
X13097500Y-13170000D01*
X13361000Y-13132500D02*
X13361000Y-13207500D01*
X13323500Y-13170000D02*
X13398500Y-13170000D01*
X13488000Y-13132500D02*
X13488000Y-13207500D01*
X13450500Y-13170000D02*
X13525500Y-13170000D01*
X13615000Y-13132500D02*
X13615000Y-13207500D01*
X13577500Y-13170000D02*
X13652500Y-13170000D01*
X13916000Y-13132500D02*
X13916000Y-13207500D01*
X13878500Y-13170000D02*
X13953500Y-13170000D01*
X14043000Y-13132500D02*
X14043000Y-13207500D01*
X14005500Y-13170000D02*
X14080500Y-13170000D01*
X14081000Y-17227500D02*
X14081000Y-17302500D01*
X14043500Y-17265000D02*
X14118500Y-17265000D01*
X14170000Y-13132500D02*
X14170000Y-13207500D01*
X14132500Y-13170000D02*
X14207500Y-13170000D01*
X14208000Y-17227500D02*
X14208000Y-17302500D01*
X14170500Y-17265000D02*
X14245500Y-17265000D01*
X14335000Y-17227500D02*
X14335000Y-17302500D01*
X14297500Y-17265000D02*
X14372500Y-17265000D01*
X14471000Y-13132500D02*
X14471000Y-13207500D01*
X14433500Y-13170000D02*
X14508500Y-13170000D01*
X14598000Y-13132500D02*
X14598000Y-13207500D01*
X14560500Y-13170000D02*
X14635500Y-13170000D01*
X14725000Y-13132500D02*
X14725000Y-13207500D01*
X14687500Y-13170000D02*
X14762500Y-13170000D01*
X15026000Y-13132500D02*
X15026000Y-13207500D01*
X14988500Y-13170000D02*
X15063500Y-13170000D01*
X15153000Y-13132500D02*
X15153000Y-13207500D01*
X15115500Y-13170000D02*
X15190500Y-13170000D01*
X15280000Y-13132500D02*
X15280000Y-13207500D01*
X15242500Y-13170000D02*
X15317500Y-13170000D01*
X15581000Y-13132500D02*
X15581000Y-13207500D01*
X15543500Y-13170000D02*
X15618500Y-13170000D01*
X15708000Y-13132500D02*
X15708000Y-13207500D01*
X15670500Y-13170000D02*
X15745500Y-13170000D01*
X15835000Y-13132500D02*
X15835000Y-13207500D01*
X15797500Y-13170000D02*
X15872500Y-13170000D01*
X16136000Y-13132500D02*
X16136000Y-13207500D01*
X16098500Y-13170000D02*
X16173500Y-13170000D01*
X16263000Y-13132500D02*
X16263000Y-13207500D01*
X16225500Y-13170000D02*
X16300500Y-13170000D01*
X16390000Y-13132500D02*
X16390000Y-13207500D01*
X16352500Y-13170000D02*
X16427500Y-13170000D01*
X16691000Y-13132500D02*
X16691000Y-13207500D01*
X16653500Y-13170000D02*
X16728500Y-13170000D01*
X16818000Y-13132500D02*
X16818000Y-13207500D01*
X16780500Y-13170000D02*
X16855500Y-13170000D01*
X16945000Y-13132500D02*
X16945000Y-13207500D01*
X16907500Y-13170000D02*
X16982500Y-13170000D01*
X17246000Y-13132500D02*
X17246000Y-13207500D01*
X17208500Y-13170000D02*
X17283500Y-13170000D01*
X17373000Y-13132500D02*
X17373000Y-13207500D01*
X17335500Y-13170000D02*
X17410500Y-13170000D01*
X17500000Y-13132500D02*
X17500000Y-13207500D01*
X17462500Y-13170000D02*
X17537500Y-13170000D01*
X17801000Y-13132500D02*
X17801000Y-13207500D01*
X17763500Y-13170000D02*
X17838500Y-13170000D01*
X17928000Y-13132500D02*
X17928000Y-13207500D01*
X17890500Y-13170000D02*
X17965500Y-13170000D01*
X18055000Y-13132500D02*
X18055000Y-13207500D01*
X18017500Y-13170000D02*
X18092500Y-13170000D01*
X18356000Y-13132500D02*
X18356000Y-13207500D01*
X18318500Y-13170000D02*
X18393500Y-13170000D01*
X18483000Y-13132500D02*
X18483000Y-13207500D01*
X18445500Y-13170000D02*
X18520500Y-13170000D01*
X18610000Y-13132500D02*
X18610000Y-13207500D01*
X18572500Y-13170000D02*
X18647500Y-13170000D01*
X18911000Y-13132500D02*
X18911000Y-13207500D01*
X18873500Y-13170000D02*
X18948500Y-13170000D01*
X19038000Y-13132500D02*
X19038000Y-13207500D01*
X19000500Y-13170000D02*
X19075500Y-13170000D01*
X19165000Y-13132500D02*
X19165000Y-13207500D01*
X19127500Y-13170000D02*
X19202500Y-13170000D01*
X19466000Y-13132500D02*
X19466000Y-13207500D01*
X19428500Y-13170000D02*
X19503500Y-13170000D01*
X19593000Y-13132500D02*
X19593000Y-13207500D01*
X19555500Y-13170000D02*
X19630500Y-13170000D01*
X19720000Y-13132500D02*
X19720000Y-13207500D01*
X19682500Y-13170000D02*
X19757500Y-13170000D01*
X20021000Y-13132500D02*
X20021000Y-13207500D01*
X19983500Y-13170000D02*
X20058500Y-13170000D01*
X20148000Y-13132500D02*
X20148000Y-13207500D01*
X20110500Y-13170000D02*
X20185500Y-13170000D01*
X20275000Y-13132500D02*
X20275000Y-13207500D01*
X20237500Y-13170000D02*
X20312500Y-13170000D01*
X20576000Y-13132500D02*
X20576000Y-13207500D01*
X20538500Y-13170000D02*
X20613500Y-13170000D01*
X20703000Y-13132500D02*
X20703000Y-13207500D01*
X20665500Y-13170000D02*
X20740500Y-13170000D01*
X20830000Y-13132500D02*
X20830000Y-13207500D01*
X20792500Y-13170000D02*
X20867500Y-13170000D01*
X21131000Y-13132500D02*
X21131000Y-13207500D01*
X21093500Y-13170000D02*
X21168500Y-13170000D01*
X21258000Y-13132500D02*
X21258000Y-13207500D01*
X21220500Y-13170000D02*
X21295500Y-13170000D01*
X21385000Y-13132500D02*
X21385000Y-13207500D01*
X21347500Y-13170000D02*
X21422500Y-13170000D01*
X21686000Y-13132500D02*
X21686000Y-13207500D01*
X21648500Y-13170000D02*
X21723500Y-13170000D01*
X21813000Y-13132500D02*
X21813000Y-13207500D01*
X21775500Y-13170000D02*
X21850500Y-13170000D01*
X21940000Y-13132500D02*
X21940000Y-13207500D01*
X21902500Y-13170000D02*
X21977500Y-13170000D01*
X22241000Y-13132500D02*
X22241000Y-13207500D01*
X22203500Y-13170000D02*
X22278500Y-13170000D01*
X22368000Y-13132500D02*
X22368000Y-13207500D01*
X22330500Y-13170000D02*
X22405500Y-13170000D01*
X22495000Y-13132500D02*
X22495000Y-13207500D01*
X22457500Y-13170000D02*
X22532500Y-13170000D01*
X22796000Y-13132500D02*
X22796000Y-13207500D01*
X22758500Y-13170000D02*
X22833500Y-13170000D01*
X22923000Y-13132500D02*
X22923000Y-13207500D01*
X22885500Y-13170000D02*
X22960500Y-13170000D01*
X23050000Y-13132500D02*
X23050000Y-13207500D01*
X23012500Y-13170000D02*
X23087500Y-13170000D01*
X23351000Y-13132500D02*
X23351000Y-13207500D01*
X23313500Y-13170000D02*
X23388500Y-13170000D01*
X23478000Y-13132500D02*
X23478000Y-13207500D01*
X23440500Y-13170000D02*
X23515500Y-13170000D01*
X23605000Y-13132500D02*
X23605000Y-13207500D01*
X23567500Y-13170000D02*
X23642500Y-13170000D01*
X23906000Y-13132500D02*
X23906000Y-13207500D01*
X23868500Y-13170000D02*
X23943500Y-13170000D01*
X24033000Y-13132500D02*
X24033000Y-13207500D01*
X23995500Y-13170000D02*
X24070500Y-13170000D01*
X24160000Y-13132500D02*
X24160000Y-13207500D01*
X24122500Y-13170000D02*
X24197500Y-13170000D01*
X24461000Y-13132500D02*
X24461000Y-13207500D01*
X24423500Y-13170000D02*
X24498500Y-13170000D01*
X24588000Y-13132500D02*
X24588000Y-13207500D01*
X24550500Y-13170000D02*
X24625500Y-13170000D01*
X24715000Y-13132500D02*
X24715000Y-13207500D01*
X24677500Y-13170000D02*
X24752500Y-13170000D01*
X25016000Y-13132500D02*
X25016000Y-13207500D01*
X24978500Y-13170000D02*
X25053500Y-13170000D01*
X25143000Y-13132500D02*
X25143000Y-13207500D01*
X25105500Y-13170000D02*
X25180500Y-13170000D01*
X25270000Y-13132500D02*
X25270000Y-13207500D01*
X25232500Y-13170000D02*
X25307500Y-13170000D01*
X25571000Y-13132500D02*
X25571000Y-13207500D01*
X25533500Y-13170000D02*
X25608500Y-13170000D01*
X25698000Y-13132500D02*
X25698000Y-13207500D01*
X25660500Y-13170000D02*
X25735500Y-13170000D01*
X25825000Y-13132500D02*
X25825000Y-13207500D01*
X25787500Y-13170000D02*
X25862500Y-13170000D01*
X26126000Y-13132500D02*
X26126000Y-13207500D01*
X26088500Y-13170000D02*
X26163500Y-13170000D01*
X26253000Y-13132500D02*
X26253000Y-13207500D01*
X26215500Y-13170000D02*
X26290500Y-13170000D01*
X26380000Y-13132500D02*
X26380000Y-13207500D01*
X26342500Y-13170000D02*
X26417500Y-13170000D01*
X26683000Y-13132500D02*
X26683000Y-13207500D01*
X26645500Y-13170000D02*
X26720500Y-13170000D01*
X26810000Y-13132500D02*
X26810000Y-13207500D01*
X26772500Y-13170000D02*
X26847500Y-13170000D01*
X26937000Y-13132500D02*
X26937000Y-13207500D01*
X26899500Y-13170000D02*
X26974500Y-13170000D01*
X27241000Y-13132500D02*
X27241000Y-13207500D01*
X27203500Y-13170000D02*
X27278500Y-13170000D01*
X27368000Y-13132500D02*
X27368000Y-13207500D01*
X27330500Y-13170000D02*
X27405500Y-13170000D01*
X27495000Y-13132500D02*
X27495000Y-13207500D01*
X27457500Y-13170000D02*
X27532500Y-13170000D01*
X27798000Y-13132500D02*
X27798000Y-13207500D01*
X27760500Y-13170000D02*
X27835500Y-13170000D01*
X27925000Y-13132500D02*
X27925000Y-13207500D01*
X27887500Y-13170000D02*
X27962500Y-13170000D01*
X28052000Y-13132500D02*
X28052000Y-13207500D01*
X28014500Y-13170000D02*
X28089500Y-13170000D01*
X28356000Y-13132500D02*
X28356000Y-13207500D01*
X28318500Y-13170000D02*
X28393500Y-13170000D01*
X28483000Y-13132500D02*
X28483000Y-13207500D01*
X28445500Y-13170000D02*
X28520500Y-13170000D01*
X28610000Y-13132500D02*
X28610000Y-13207500D01*
X28572500Y-13170000D02*
X28647500Y-13170000D01*
X28911000Y-13132500D02*
X28911000Y-13207500D01*
X28873500Y-13170000D02*
X28948500Y-13170000D01*
X29038000Y-13132500D02*
X29038000Y-13207500D01*
X29000500Y-13170000D02*
X29075500Y-13170000D01*
X29165000Y-13132500D02*
X29165000Y-13207500D01*
X29127500Y-13170000D02*
X29202500Y-13170000D01*
X29466000Y-13132500D02*
X29466000Y-13207500D01*
X29428500Y-13170000D02*
X29503500Y-13170000D01*
X29593000Y-13132500D02*
X29593000Y-13207500D01*
X29555500Y-13170000D02*
X29630500Y-13170000D01*
X29720000Y-13132500D02*
X29720000Y-13207500D01*
X29682500Y-13170000D02*
X29757500Y-13170000D01*
X30021000Y-13132500D02*
X30021000Y-13207500D01*
X29983500Y-13170000D02*
X30058500Y-13170000D01*
X30148000Y-13132500D02*
X30148000Y-13207500D01*
X30110500Y-13170000D02*
X30185500Y-13170000D01*
X30275000Y-13132500D02*
X30275000Y-13207500D01*
X30237500Y-13170000D02*
X30312500Y-13170000D01*
X30576000Y-13132500D02*
X30576000Y-13207500D01*
X30538500Y-13170000D02*
X30613500Y-13170000D01*
X30703000Y-13132500D02*
X30703000Y-13207500D01*
X30665500Y-13170000D02*
X30740500Y-13170000D01*
X30830000Y-13132500D02*
X30830000Y-13207500D01*
X30792500Y-13170000D02*
X30867500Y-13170000D01*
X31131000Y-13132500D02*
X31131000Y-13207500D01*
X31093500Y-13170000D02*
X31168500Y-13170000D01*
X31258000Y-13132500D02*
X31258000Y-13207500D01*
X31220500Y-13170000D02*
X31295500Y-13170000D01*
X31385000Y-13132500D02*
X31385000Y-13207500D01*
X31347500Y-13170000D02*
X31422500Y-13170000D01*
X31691000Y-13132500D02*
X31691000Y-13207500D01*
X31653500Y-13170000D02*
X31728500Y-13170000D01*
X31818000Y-13132500D02*
X31818000Y-13207500D01*
X31780500Y-13170000D02*
X31855500Y-13170000D01*
X31945000Y-13132500D02*
X31945000Y-13207500D01*
X31907500Y-13170000D02*
X31982500Y-13170000D01*
X9701285Y-15263284D02*
X9701285Y-15206715D01*
X9644716Y-15206715D01*
X9644716Y-15263284D01*
X9701285Y-15263284D01*
X10463285Y-15263284D02*
X10463285Y-15206715D01*
X10406716Y-15206715D01*
X10406716Y-15263284D01*
X10463285Y-15263284D01*
X10713285Y-16288284D02*
X10713285Y-16231715D01*
X10656716Y-16231715D01*
X10656716Y-16288284D01*
X10713285Y-16288284D01*
X10713285Y-16542284D02*
X10713285Y-16485715D01*
X10656716Y-16485715D01*
X10656716Y-16542284D01*
X10713285Y-16542284D01*
X10713285Y-16796285D02*
X10713285Y-16739715D01*
X10656716Y-16739715D01*
X10656716Y-16796285D01*
X10713285Y-16796285D01*
X10713285Y-17050285D02*
X10713285Y-16993716D01*
X10656716Y-16993716D01*
X10656716Y-17050285D01*
X10713285Y-17050285D01*
X10863285Y-17928285D02*
X10863285Y-17871716D01*
X10806716Y-17871716D01*
X10806716Y-17928285D01*
X10863285Y-17928285D01*
X11243284Y-17928285D02*
X11243284Y-17871716D01*
X11186715Y-17871716D01*
X11186715Y-17928285D01*
X11243284Y-17928285D01*
X11468284Y-14273284D02*
X11468284Y-14216715D01*
X11411715Y-14216715D01*
X11411715Y-14273284D01*
X11468284Y-14273284D01*
X11475284Y-16288284D02*
X11475284Y-16231715D01*
X11418715Y-16231715D01*
X11418715Y-16288284D01*
X11475284Y-16288284D01*
X11475284Y-16542284D02*
X11475284Y-16485715D01*
X11418715Y-16485715D01*
X11418715Y-16542284D01*
X11475284Y-16542284D01*
X11475284Y-16796285D02*
X11475284Y-16739715D01*
X11418715Y-16739715D01*
X11418715Y-16796285D01*
X11475284Y-16796285D01*
X11475284Y-17050285D02*
X11475284Y-16993716D01*
X11418715Y-16993716D01*
X11418715Y-17050285D01*
X11475284Y-17050285D01*
X11718284Y-14273284D02*
X11718284Y-14216715D01*
X11661715Y-14216715D01*
X11661715Y-14273284D01*
X11718284Y-14273284D01*
X11898284Y-17413285D02*
X11898284Y-17356716D01*
X11841715Y-17356716D01*
X11841715Y-17413285D01*
X11898284Y-17413285D01*
X12089284Y-16457284D02*
X12089284Y-16400715D01*
X12032715Y-16400715D01*
X12032715Y-16457284D01*
X12089284Y-16457284D01*
X12283284Y-15158284D02*
X12283284Y-15101715D01*
X12226715Y-15101715D01*
X12226715Y-15158284D01*
X12283284Y-15158284D01*
X12283284Y-15508284D02*
X12283284Y-15451715D01*
X12226715Y-15451715D01*
X12226715Y-15508284D01*
X12283284Y-15508284D01*
X12343284Y-16203284D02*
X12343284Y-16146715D01*
X12286715Y-16146715D01*
X12286715Y-16203284D01*
X12343284Y-16203284D01*
X12343284Y-16711284D02*
X12343284Y-16654715D01*
X12286715Y-16654715D01*
X12286715Y-16711284D01*
X12343284Y-16711284D01*
X12660284Y-17413285D02*
X12660284Y-17356716D01*
X12603715Y-17356716D01*
X12603715Y-17413285D01*
X12660284Y-17413285D01*
X13613284Y-16288284D02*
X13613284Y-16231715D01*
X13556715Y-16231715D01*
X13556715Y-16288284D01*
X13613284Y-16288284D01*
X13613284Y-16638284D02*
X13613284Y-16581715D01*
X13556715Y-16581715D01*
X13556715Y-16638284D01*
X13613284Y-16638284D01*
X14476284Y-14985284D02*
X14476284Y-14928715D01*
X14419715Y-14928715D01*
X14419715Y-14985284D01*
X14476284Y-14985284D01*
X14476284Y-15239284D02*
X14476284Y-15182715D01*
X14419715Y-15182715D01*
X14419715Y-15239284D01*
X14476284Y-15239284D01*
X14476284Y-15493284D02*
X14476284Y-15436715D01*
X14419715Y-15436715D01*
X14419715Y-15493284D01*
X14476284Y-15493284D01*
X14476284Y-15747284D02*
X14476284Y-15690715D01*
X14419715Y-15690715D01*
X14419715Y-15747284D01*
X14476284Y-15747284D01*
X14476284Y-16001284D02*
X14476284Y-15944715D01*
X14419715Y-15944715D01*
X14419715Y-16001284D01*
X14476284Y-16001284D01*
X14476284Y-16255284D02*
X14476284Y-16198715D01*
X14419715Y-16198715D01*
X14419715Y-16255284D01*
X14476284Y-16255284D01*
X14476284Y-16509284D02*
X14476284Y-16452715D01*
X14419715Y-16452715D01*
X14419715Y-16509284D01*
X14476284Y-16509284D01*
X14476284Y-16763284D02*
X14476284Y-16706715D01*
X14419715Y-16706715D01*
X14419715Y-16763284D01*
X14476284Y-16763284D01*
X15133284Y-17268285D02*
X15133284Y-17211716D01*
X15076715Y-17211716D01*
X15076715Y-17268285D01*
X15133284Y-17268285D01*
X15238284Y-14985284D02*
X15238284Y-14928715D01*
X15181715Y-14928715D01*
X15181715Y-14985284D01*
X15238284Y-14985284D01*
X15238284Y-15239284D02*
X15238284Y-15182715D01*
X15181715Y-15182715D01*
X15181715Y-15239284D01*
X15238284Y-15239284D01*
X15238284Y-15493284D02*
X15238284Y-15436715D01*
X15181715Y-15436715D01*
X15181715Y-15493284D01*
X15238284Y-15493284D01*
X15238284Y-15747284D02*
X15238284Y-15690715D01*
X15181715Y-15690715D01*
X15181715Y-15747284D01*
X15238284Y-15747284D01*
X15238284Y-16001284D02*
X15238284Y-15944715D01*
X15181715Y-15944715D01*
X15181715Y-16001284D01*
X15238284Y-16001284D01*
X15238284Y-16255284D02*
X15238284Y-16198715D01*
X15181715Y-16198715D01*
X15181715Y-16255284D01*
X15238284Y-16255284D01*
X15238284Y-16509284D02*
X15238284Y-16452715D01*
X15181715Y-16452715D01*
X15181715Y-16509284D01*
X15238284Y-16509284D01*
X15238284Y-16763284D02*
X15238284Y-16706715D01*
X15181715Y-16706715D01*
X15181715Y-16763284D01*
X15238284Y-16763284D01*
X16031284Y-13885284D02*
X16031284Y-13828715D01*
X15974715Y-13828715D01*
X15974715Y-13885284D01*
X16031284Y-13885284D01*
X16031284Y-14139284D02*
X16031284Y-14082715D01*
X15974715Y-14082715D01*
X15974715Y-14139284D01*
X16031284Y-14139284D01*
X16031284Y-14393284D02*
X16031284Y-14336715D01*
X15974715Y-14336715D01*
X15974715Y-14393284D01*
X16031284Y-14393284D01*
X16031284Y-14647284D02*
X16031284Y-14590715D01*
X15974715Y-14590715D01*
X15974715Y-14647284D01*
X16031284Y-14647284D01*
X16031284Y-14901284D02*
X16031284Y-14844715D01*
X15974715Y-14844715D01*
X15974715Y-14901284D01*
X16031284Y-14901284D01*
X16031284Y-15155284D02*
X16031284Y-15098715D01*
X15974715Y-15098715D01*
X15974715Y-15155284D01*
X16031284Y-15155284D01*
X16031284Y-15409284D02*
X16031284Y-15352715D01*
X15974715Y-15352715D01*
X15974715Y-15409284D01*
X16031284Y-15409284D01*
X16031284Y-15663284D02*
X16031284Y-15606715D01*
X15974715Y-15606715D01*
X15974715Y-15663284D01*
X16031284Y-15663284D01*
X16149284Y-17268285D02*
X16149284Y-17211716D01*
X16092715Y-17211716D01*
X16092715Y-17268285D01*
X16149284Y-17268285D01*
X16778285Y-16078284D02*
X16778285Y-16021715D01*
X16721715Y-16021715D01*
X16721715Y-16078284D01*
X16778285Y-16078284D01*
X16778285Y-16328284D02*
X16778285Y-16271715D01*
X16721715Y-16271715D01*
X16721715Y-16328284D01*
X16778285Y-16328284D01*
X16793285Y-13885284D02*
X16793285Y-13828715D01*
X16736715Y-13828715D01*
X16736715Y-13885284D01*
X16793285Y-13885284D01*
X16793285Y-14139284D02*
X16793285Y-14082715D01*
X16736715Y-14082715D01*
X16736715Y-14139284D01*
X16793285Y-14139284D01*
X16793285Y-14393284D02*
X16793285Y-14336715D01*
X16736715Y-14336715D01*
X16736715Y-14393284D01*
X16793285Y-14393284D01*
X16793285Y-14647284D02*
X16793285Y-14590715D01*
X16736715Y-14590715D01*
X16736715Y-14647284D01*
X16793285Y-14647284D01*
X16793285Y-14901284D02*
X16793285Y-14844715D01*
X16736715Y-14844715D01*
X16736715Y-14901284D01*
X16793285Y-14901284D01*
X16793285Y-15155284D02*
X16793285Y-15098715D01*
X16736715Y-15098715D01*
X16736715Y-15155284D01*
X16793285Y-15155284D01*
X16793285Y-15409284D02*
X16793285Y-15352715D01*
X16736715Y-15352715D01*
X16736715Y-15409284D01*
X16793285Y-15409284D01*
X16793285Y-15663284D02*
X16793285Y-15606715D01*
X16736715Y-15606715D01*
X16736715Y-15663284D01*
X16793285Y-15663284D01*
X17253285Y-17598285D02*
X17253285Y-17541716D01*
X17196716Y-17541716D01*
X17196716Y-17598285D01*
X17253285Y-17598285D01*
X17253285Y-17848285D02*
X17253285Y-17791716D01*
X17196716Y-17791716D01*
X17196716Y-17848285D01*
X17253285Y-17848285D01*
X17976285Y-14990284D02*
X17976285Y-14933715D01*
X17919716Y-14933715D01*
X17919716Y-14990284D01*
X17976285Y-14990284D01*
X17976285Y-15244284D02*
X17976285Y-15187715D01*
X17919716Y-15187715D01*
X17919716Y-15244284D01*
X17976285Y-15244284D01*
X17976285Y-15498284D02*
X17976285Y-15441715D01*
X17919716Y-15441715D01*
X17919716Y-15498284D01*
X17976285Y-15498284D01*
X17976285Y-15752284D02*
X17976285Y-15695715D01*
X17919716Y-15695715D01*
X17919716Y-15752284D01*
X17976285Y-15752284D01*
X17976285Y-16006284D02*
X17976285Y-15949715D01*
X17919716Y-15949715D01*
X17919716Y-16006284D01*
X17976285Y-16006284D01*
X17976285Y-16260284D02*
X17976285Y-16203715D01*
X17919716Y-16203715D01*
X17919716Y-16260284D01*
X17976285Y-16260284D01*
X17976285Y-16514284D02*
X17976285Y-16457715D01*
X17919716Y-16457715D01*
X17919716Y-16514284D01*
X17976285Y-16514284D01*
X17976285Y-16768284D02*
X17976285Y-16711715D01*
X17919716Y-16711715D01*
X17919716Y-16768284D01*
X17976285Y-16768284D01*
X18738285Y-14990284D02*
X18738285Y-14933715D01*
X18681716Y-14933715D01*
X18681716Y-14990284D01*
X18738285Y-14990284D01*
X18738285Y-15244284D02*
X18738285Y-15187715D01*
X18681716Y-15187715D01*
X18681716Y-15244284D01*
X18738285Y-15244284D01*
X18738285Y-15498284D02*
X18738285Y-15441715D01*
X18681716Y-15441715D01*
X18681716Y-15498284D01*
X18738285Y-15498284D01*
X18738285Y-15752284D02*
X18738285Y-15695715D01*
X18681716Y-15695715D01*
X18681716Y-15752284D01*
X18738285Y-15752284D01*
X18738285Y-16006284D02*
X18738285Y-15949715D01*
X18681716Y-15949715D01*
X18681716Y-16006284D01*
X18738285Y-16006284D01*
X18738285Y-16260284D02*
X18738285Y-16203715D01*
X18681716Y-16203715D01*
X18681716Y-16260284D01*
X18738285Y-16260284D01*
X18738285Y-16514284D02*
X18738285Y-16457715D01*
X18681716Y-16457715D01*
X18681716Y-16514284D01*
X18738285Y-16514284D01*
X18738285Y-16768284D02*
X18738285Y-16711715D01*
X18681716Y-16711715D01*
X18681716Y-16768284D01*
X18738285Y-16768284D01*
X19471285Y-14990284D02*
X19471285Y-14933715D01*
X19414716Y-14933715D01*
X19414716Y-14990284D01*
X19471285Y-14990284D01*
X19471285Y-15244284D02*
X19471285Y-15187715D01*
X19414716Y-15187715D01*
X19414716Y-15244284D01*
X19471285Y-15244284D01*
X19471285Y-15498284D02*
X19471285Y-15441715D01*
X19414716Y-15441715D01*
X19414716Y-15498284D01*
X19471285Y-15498284D01*
X19471285Y-15752284D02*
X19471285Y-15695715D01*
X19414716Y-15695715D01*
X19414716Y-15752284D01*
X19471285Y-15752284D01*
X19471285Y-16006284D02*
X19471285Y-15949715D01*
X19414716Y-15949715D01*
X19414716Y-16006284D01*
X19471285Y-16006284D01*
X19471285Y-16260284D02*
X19471285Y-16203715D01*
X19414716Y-16203715D01*
X19414716Y-16260284D01*
X19471285Y-16260284D01*
X19471285Y-16514284D02*
X19471285Y-16457715D01*
X19414716Y-16457715D01*
X19414716Y-16514284D01*
X19471285Y-16514284D01*
X19471285Y-16768284D02*
X19471285Y-16711715D01*
X19414716Y-16711715D01*
X19414716Y-16768284D01*
X19471285Y-16768284D01*
X20233285Y-14990284D02*
X20233285Y-14933715D01*
X20176716Y-14933715D01*
X20176716Y-14990284D01*
X20233285Y-14990284D01*
X20233285Y-15244284D02*
X20233285Y-15187715D01*
X20176716Y-15187715D01*
X20176716Y-15244284D01*
X20233285Y-15244284D01*
X20233285Y-15498284D02*
X20233285Y-15441715D01*
X20176716Y-15441715D01*
X20176716Y-15498284D01*
X20233285Y-15498284D01*
X20233285Y-15752284D02*
X20233285Y-15695715D01*
X20176716Y-15695715D01*
X20176716Y-15752284D01*
X20233285Y-15752284D01*
X20233285Y-16006284D02*
X20233285Y-15949715D01*
X20176716Y-15949715D01*
X20176716Y-16006284D01*
X20233285Y-16006284D01*
X20233285Y-16260284D02*
X20233285Y-16203715D01*
X20176716Y-16203715D01*
X20176716Y-16260284D01*
X20233285Y-16260284D01*
X20233285Y-16514284D02*
X20233285Y-16457715D01*
X20176716Y-16457715D01*
X20176716Y-16514284D01*
X20233285Y-16514284D01*
X20233285Y-16768284D02*
X20233285Y-16711715D01*
X20176716Y-16711715D01*
X20176716Y-16768284D01*
X20233285Y-16768284D01*
X21116285Y-13875284D02*
X21116285Y-13818715D01*
X21059716Y-13818715D01*
X21059716Y-13875284D01*
X21116285Y-13875284D01*
X21116285Y-14129284D02*
X21116285Y-14072715D01*
X21059716Y-14072715D01*
X21059716Y-14129284D01*
X21116285Y-14129284D01*
X21116285Y-14383284D02*
X21116285Y-14326715D01*
X21059716Y-14326715D01*
X21059716Y-14383284D01*
X21116285Y-14383284D01*
X21116285Y-14637284D02*
X21116285Y-14580715D01*
X21059716Y-14580715D01*
X21059716Y-14637284D01*
X21116285Y-14637284D01*
X21116285Y-14891284D02*
X21116285Y-14834715D01*
X21059716Y-14834715D01*
X21059716Y-14891284D01*
X21116285Y-14891284D01*
X21116285Y-15145284D02*
X21116285Y-15088715D01*
X21059716Y-15088715D01*
X21059716Y-15145284D01*
X21116285Y-15145284D01*
X21116285Y-15399284D02*
X21116285Y-15342715D01*
X21059716Y-15342715D01*
X21059716Y-15399284D01*
X21116285Y-15399284D01*
X21116285Y-15653284D02*
X21116285Y-15596715D01*
X21059716Y-15596715D01*
X21059716Y-15653284D01*
X21116285Y-15653284D01*
X21878285Y-13875284D02*
X21878285Y-13818715D01*
X21821716Y-13818715D01*
X21821716Y-13875284D01*
X21878285Y-13875284D01*
X21878285Y-14129284D02*
X21878285Y-14072715D01*
X21821716Y-14072715D01*
X21821716Y-14129284D01*
X21878285Y-14129284D01*
X21878285Y-14383284D02*
X21878285Y-14326715D01*
X21821716Y-14326715D01*
X21821716Y-14383284D01*
X21878285Y-14383284D01*
X21878285Y-14637284D02*
X21878285Y-14580715D01*
X21821716Y-14580715D01*
X21821716Y-14637284D01*
X21878285Y-14637284D01*
X21878285Y-14891284D02*
X21878285Y-14834715D01*
X21821716Y-14834715D01*
X21821716Y-14891284D01*
X21878285Y-14891284D01*
X21878285Y-15145284D02*
X21878285Y-15088715D01*
X21821716Y-15088715D01*
X21821716Y-15145284D01*
X21878285Y-15145284D01*
X21878285Y-15399284D02*
X21878285Y-15342715D01*
X21821716Y-15342715D01*
X21821716Y-15399284D01*
X21878285Y-15399284D01*
X21878285Y-15653284D02*
X21878285Y-15596715D01*
X21821716Y-15596715D01*
X21821716Y-15653284D01*
X21878285Y-15653284D01*
X24133284Y-15188284D02*
X24133284Y-15131715D01*
X24076715Y-15131715D01*
X24076715Y-15188284D01*
X24133284Y-15188284D01*
X24133284Y-15438284D02*
X24133284Y-15381715D01*
X24076715Y-15381715D01*
X24076715Y-15438284D01*
X24133284Y-15438284D01*
X24556284Y-15005284D02*
X24556284Y-14948715D01*
X24499715Y-14948715D01*
X24499715Y-15005284D01*
X24556284Y-15005284D01*
X24556284Y-15259284D02*
X24556284Y-15202715D01*
X24499715Y-15202715D01*
X24499715Y-15259284D01*
X24556284Y-15259284D01*
X24556284Y-15513284D02*
X24556284Y-15456715D01*
X24499715Y-15456715D01*
X24499715Y-15513284D01*
X24556284Y-15513284D01*
X24556284Y-15767284D02*
X24556284Y-15710715D01*
X24499715Y-15710715D01*
X24499715Y-15767284D01*
X24556284Y-15767284D01*
X24556284Y-16021284D02*
X24556284Y-15964715D01*
X24499715Y-15964715D01*
X24499715Y-16021284D01*
X24556284Y-16021284D01*
X24556284Y-16275284D02*
X24556284Y-16218715D01*
X24499715Y-16218715D01*
X24499715Y-16275284D01*
X24556284Y-16275284D01*
X24556284Y-16529284D02*
X24556284Y-16472715D01*
X24499715Y-16472715D01*
X24499715Y-16529284D01*
X24556284Y-16529284D01*
X24556284Y-16783285D02*
X24556284Y-16726715D01*
X24499715Y-16726715D01*
X24499715Y-16783285D01*
X24556284Y-16783285D01*
X25318284Y-15005284D02*
X25318284Y-14948715D01*
X25261715Y-14948715D01*
X25261715Y-15005284D01*
X25318284Y-15005284D01*
X25318284Y-15259284D02*
X25318284Y-15202715D01*
X25261715Y-15202715D01*
X25261715Y-15259284D01*
X25318284Y-15259284D01*
X25318284Y-15513284D02*
X25318284Y-15456715D01*
X25261715Y-15456715D01*
X25261715Y-15513284D01*
X25318284Y-15513284D01*
X25318284Y-15767284D02*
X25318284Y-15710715D01*
X25261715Y-15710715D01*
X25261715Y-15767284D01*
X25318284Y-15767284D01*
X25318284Y-16021284D02*
X25318284Y-15964715D01*
X25261715Y-15964715D01*
X25261715Y-16021284D01*
X25318284Y-16021284D01*
X25318284Y-16275284D02*
X25318284Y-16218715D01*
X25261715Y-16218715D01*
X25261715Y-16275284D01*
X25318284Y-16275284D01*
X25318284Y-16529284D02*
X25318284Y-16472715D01*
X25261715Y-16472715D01*
X25261715Y-16529284D01*
X25318284Y-16529284D01*
X25318284Y-16783285D02*
X25318284Y-16726715D01*
X25261715Y-16726715D01*
X25261715Y-16783285D01*
X25318284Y-16783285D01*
X26241284Y-13870284D02*
X26241284Y-13813715D01*
X26184715Y-13813715D01*
X26184715Y-13870284D01*
X26241284Y-13870284D01*
X26241284Y-14124284D02*
X26241284Y-14067715D01*
X26184715Y-14067715D01*
X26184715Y-14124284D01*
X26241284Y-14124284D01*
X26241284Y-14378284D02*
X26241284Y-14321715D01*
X26184715Y-14321715D01*
X26184715Y-14378284D01*
X26241284Y-14378284D01*
X26241284Y-14632284D02*
X26241284Y-14575715D01*
X26184715Y-14575715D01*
X26184715Y-14632284D01*
X26241284Y-14632284D01*
X26241284Y-14886284D02*
X26241284Y-14829715D01*
X26184715Y-14829715D01*
X26184715Y-14886284D01*
X26241284Y-14886284D01*
X26241284Y-15140284D02*
X26241284Y-15083715D01*
X26184715Y-15083715D01*
X26184715Y-15140284D01*
X26241284Y-15140284D01*
X26241284Y-15394284D02*
X26241284Y-15337715D01*
X26184715Y-15337715D01*
X26184715Y-15394284D01*
X26241284Y-15394284D01*
X26241284Y-15648284D02*
X26241284Y-15591715D01*
X26184715Y-15591715D01*
X26184715Y-15648284D01*
X26241284Y-15648284D01*
X26281284Y-17378285D02*
X26281284Y-17321716D01*
X26224715Y-17321716D01*
X26224715Y-17378285D01*
X26281284Y-17378285D01*
X26281284Y-18140285D02*
X26281284Y-18083716D01*
X26224715Y-18083716D01*
X26224715Y-18140285D01*
X26281284Y-18140285D01*
X26535284Y-17378285D02*
X26535284Y-17321716D01*
X26478715Y-17321716D01*
X26478715Y-17378285D01*
X26535284Y-17378285D01*
X26535284Y-18140285D02*
X26535284Y-18083716D01*
X26478715Y-18083716D01*
X26478715Y-18140285D01*
X26535284Y-18140285D01*
X26789284Y-17378285D02*
X26789284Y-17321716D01*
X26732715Y-17321716D01*
X26732715Y-17378285D01*
X26789284Y-17378285D01*
X26789284Y-18140285D02*
X26789284Y-18083716D01*
X26732715Y-18083716D01*
X26732715Y-18140285D01*
X26789284Y-18140285D01*
X27003284Y-13870284D02*
X27003284Y-13813715D01*
X26946715Y-13813715D01*
X26946715Y-13870284D01*
X27003284Y-13870284D01*
X27003284Y-14124284D02*
X27003284Y-14067715D01*
X26946715Y-14067715D01*
X26946715Y-14124284D01*
X27003284Y-14124284D01*
X27003284Y-14378284D02*
X27003284Y-14321715D01*
X26946715Y-14321715D01*
X26946715Y-14378284D01*
X27003284Y-14378284D01*
X27003284Y-14632284D02*
X27003284Y-14575715D01*
X26946715Y-14575715D01*
X26946715Y-14632284D01*
X27003284Y-14632284D01*
X27003284Y-14886284D02*
X27003284Y-14829715D01*
X26946715Y-14829715D01*
X26946715Y-14886284D01*
X27003284Y-14886284D01*
X27003284Y-15140284D02*
X27003284Y-15083715D01*
X26946715Y-15083715D01*
X26946715Y-15140284D01*
X27003284Y-15140284D01*
X27003284Y-15394284D02*
X27003284Y-15337715D01*
X26946715Y-15337715D01*
X26946715Y-15394284D01*
X27003284Y-15394284D01*
X27003284Y-15648284D02*
X27003284Y-15591715D01*
X26946715Y-15591715D01*
X26946715Y-15648284D01*
X27003284Y-15648284D01*
X27043284Y-17378285D02*
X27043284Y-17321716D01*
X26986715Y-17321716D01*
X26986715Y-17378285D01*
X27043284Y-17378285D01*
X27043284Y-18140285D02*
X27043284Y-18083716D01*
X26986715Y-18083716D01*
X26986715Y-18140285D01*
X27043284Y-18140285D01*
X28131284Y-15010284D02*
X28131284Y-14953715D01*
X28074715Y-14953715D01*
X28074715Y-15010284D01*
X28131284Y-15010284D01*
X28131284Y-15264284D02*
X28131284Y-15207715D01*
X28074715Y-15207715D01*
X28074715Y-15264284D01*
X28131284Y-15264284D01*
X28131284Y-15518284D02*
X28131284Y-15461715D01*
X28074715Y-15461715D01*
X28074715Y-15518284D01*
X28131284Y-15518284D01*
X28131284Y-15772284D02*
X28131284Y-15715715D01*
X28074715Y-15715715D01*
X28074715Y-15772284D01*
X28131284Y-15772284D01*
X28131284Y-16026284D02*
X28131284Y-15969715D01*
X28074715Y-15969715D01*
X28074715Y-16026284D01*
X28131284Y-16026284D01*
X28131284Y-16280284D02*
X28131284Y-16223715D01*
X28074715Y-16223715D01*
X28074715Y-16280284D01*
X28131284Y-16280284D01*
X28131284Y-16534284D02*
X28131284Y-16477715D01*
X28074715Y-16477715D01*
X28074715Y-16534284D01*
X28131284Y-16534284D01*
X28131284Y-16788285D02*
X28131284Y-16731715D01*
X28074715Y-16731715D01*
X28074715Y-16788285D01*
X28131284Y-16788285D01*
X28893284Y-15010284D02*
X28893284Y-14953715D01*
X28836715Y-14953715D01*
X28836715Y-15010284D01*
X28893284Y-15010284D01*
X28893284Y-15264284D02*
X28893284Y-15207715D01*
X28836715Y-15207715D01*
X28836715Y-15264284D01*
X28893284Y-15264284D01*
X28893284Y-15518284D02*
X28893284Y-15461715D01*
X28836715Y-15461715D01*
X28836715Y-15518284D01*
X28893284Y-15518284D01*
X28893284Y-15772284D02*
X28893284Y-15715715D01*
X28836715Y-15715715D01*
X28836715Y-15772284D01*
X28893284Y-15772284D01*
X28893284Y-16026284D02*
X28893284Y-15969715D01*
X28836715Y-15969715D01*
X28836715Y-16026284D01*
X28893284Y-16026284D01*
X28893284Y-16280284D02*
X28893284Y-16223715D01*
X28836715Y-16223715D01*
X28836715Y-16280284D01*
X28893284Y-16280284D01*
X28893284Y-16534284D02*
X28893284Y-16477715D01*
X28836715Y-16477715D01*
X28836715Y-16534284D01*
X28893284Y-16534284D01*
X28893284Y-16788285D02*
X28893284Y-16731715D01*
X28836715Y-16731715D01*
X28836715Y-16788285D01*
X28893284Y-16788285D01*
X29646284Y-15010284D02*
X29646284Y-14953715D01*
X29589715Y-14953715D01*
X29589715Y-15010284D01*
X29646284Y-15010284D01*
X29646284Y-15264284D02*
X29646284Y-15207715D01*
X29589715Y-15207715D01*
X29589715Y-15264284D01*
X29646284Y-15264284D01*
X29646284Y-15518284D02*
X29646284Y-15461715D01*
X29589715Y-15461715D01*
X29589715Y-15518284D01*
X29646284Y-15518284D01*
X29646284Y-15772284D02*
X29646284Y-15715715D01*
X29589715Y-15715715D01*
X29589715Y-15772284D01*
X29646284Y-15772284D01*
X29646284Y-16026284D02*
X29646284Y-15969715D01*
X29589715Y-15969715D01*
X29589715Y-16026284D01*
X29646284Y-16026284D01*
X29646284Y-16280284D02*
X29646284Y-16223715D01*
X29589715Y-16223715D01*
X29589715Y-16280284D01*
X29646284Y-16280284D01*
X29646284Y-16534284D02*
X29646284Y-16477715D01*
X29589715Y-16477715D01*
X29589715Y-16534284D01*
X29646284Y-16534284D01*
X29646284Y-16788285D02*
X29646284Y-16731715D01*
X29589715Y-16731715D01*
X29589715Y-16788285D01*
X29646284Y-16788285D01*
X30408284Y-15010284D02*
X30408284Y-14953715D01*
X30351715Y-14953715D01*
X30351715Y-15010284D01*
X30408284Y-15010284D01*
X30408284Y-15264284D02*
X30408284Y-15207715D01*
X30351715Y-15207715D01*
X30351715Y-15264284D01*
X30408284Y-15264284D01*
X30408284Y-15518284D02*
X30408284Y-15461715D01*
X30351715Y-15461715D01*
X30351715Y-15518284D01*
X30408284Y-15518284D01*
X30408284Y-15772284D02*
X30408284Y-15715715D01*
X30351715Y-15715715D01*
X30351715Y-15772284D01*
X30408284Y-15772284D01*
X30408284Y-16026284D02*
X30408284Y-15969715D01*
X30351715Y-15969715D01*
X30351715Y-16026284D01*
X30408284Y-16026284D01*
X30408284Y-16280284D02*
X30408284Y-16223715D01*
X30351715Y-16223715D01*
X30351715Y-16280284D01*
X30408284Y-16280284D01*
X30408284Y-16534284D02*
X30408284Y-16477715D01*
X30351715Y-16477715D01*
X30351715Y-16534284D01*
X30408284Y-16534284D01*
X30408284Y-16788285D02*
X30408284Y-16731715D01*
X30351715Y-16731715D01*
X30351715Y-16788285D01*
X30408284Y-16788285D01*
X31246284Y-13880284D02*
X31246284Y-13823715D01*
X31189715Y-13823715D01*
X31189715Y-13880284D01*
X31246284Y-13880284D01*
X31246284Y-14134284D02*
X31246284Y-14077715D01*
X31189715Y-14077715D01*
X31189715Y-14134284D01*
X31246284Y-14134284D01*
X31246284Y-14388284D02*
X31246284Y-14331715D01*
X31189715Y-14331715D01*
X31189715Y-14388284D01*
X31246284Y-14388284D01*
X31246284Y-14642284D02*
X31246284Y-14585715D01*
X31189715Y-14585715D01*
X31189715Y-14642284D01*
X31246284Y-14642284D01*
X31246284Y-14896284D02*
X31246284Y-14839715D01*
X31189715Y-14839715D01*
X31189715Y-14896284D01*
X31246284Y-14896284D01*
X31246284Y-15150284D02*
X31246284Y-15093715D01*
X31189715Y-15093715D01*
X31189715Y-15150284D01*
X31246284Y-15150284D01*
X31246284Y-15404284D02*
X31246284Y-15347715D01*
X31189715Y-15347715D01*
X31189715Y-15404284D01*
X31246284Y-15404284D01*
X31246284Y-15658284D02*
X31246284Y-15601715D01*
X31189715Y-15601715D01*
X31189715Y-15658284D01*
X31246284Y-15658284D01*
X32008284Y-13880284D02*
X32008284Y-13823715D01*
X31951715Y-13823715D01*
X31951715Y-13880284D01*
X32008284Y-13880284D01*
X32008284Y-14134284D02*
X32008284Y-14077715D01*
X31951715Y-14077715D01*
X31951715Y-14134284D01*
X32008284Y-14134284D01*
X32008284Y-14388284D02*
X32008284Y-14331715D01*
X31951715Y-14331715D01*
X31951715Y-14388284D01*
X32008284Y-14388284D01*
X32008284Y-14642284D02*
X32008284Y-14585715D01*
X31951715Y-14585715D01*
X31951715Y-14642284D01*
X32008284Y-14642284D01*
X32008284Y-14896284D02*
X32008284Y-14839715D01*
X31951715Y-14839715D01*
X31951715Y-14896284D01*
X32008284Y-14896284D01*
X32008284Y-15150284D02*
X32008284Y-15093715D01*
X31951715Y-15093715D01*
X31951715Y-15150284D01*
X32008284Y-15150284D01*
X32008284Y-15404284D02*
X32008284Y-15347715D01*
X31951715Y-15347715D01*
X31951715Y-15404284D01*
X32008284Y-15404284D01*
X32008284Y-15658284D02*
X32008284Y-15601715D01*
X31951715Y-15601715D01*
X31951715Y-15658284D01*
X32008284Y-15658284D01*
X28085000Y-18045000D02*
X28130000Y-18000000D01*
X28085000Y-17955000D01*
X28040000Y-18000000D01*
X28085000Y-18045000D01*
X28212000Y-18045000D02*
X28257000Y-18000000D01*
X28212000Y-17955000D01*
X28167000Y-18000000D01*
X28212000Y-18045000D01*
X28339000Y-18045000D02*
X28384000Y-18000000D01*
X28339000Y-17955000D01*
X28294000Y-18000000D01*
X28339000Y-18045000D01*
X28466000Y-18045000D02*
X28511000Y-18000000D01*
X28466000Y-17955000D01*
X28421000Y-18000000D01*
X28466000Y-18045000D01*
X29585000Y-17955000D02*
X29630000Y-17910000D01*
X29585000Y-17865000D01*
X29540000Y-17910000D01*
X29585000Y-17955000D01*
X29839000Y-17955000D02*
X29884000Y-17910000D01*
X29839000Y-17865000D01*
X29794000Y-17910000D01*
X29839000Y-17955000D01*
X30093000Y-17955000D02*
X30138000Y-17910000D01*
X30093000Y-17865000D01*
X30048000Y-17910000D01*
X30093000Y-17955000D01*
X9812500Y-17047500D02*
X9907500Y-17142500D01*
X9907500Y-17047500D02*
X9812500Y-17142500D01*
X9907500Y-17095000D02*
G75*
G03*
X9907500Y-17095000I-47500J0D01*
G01*
X9812500Y-17297500D02*
X9907500Y-17392500D01*
X9907500Y-17297500D02*
X9812500Y-17392500D01*
X9907500Y-17345000D02*
G75*
G03*
X9907500Y-17345000I-47500J0D01*
G01*
X9812500Y-17547500D02*
X9907500Y-17642500D01*
X9907500Y-17547500D02*
X9812500Y-17642500D01*
X9907500Y-17595000D02*
G75*
G03*
X9907500Y-17595000I-47500J0D01*
G01*
X9812500Y-17797500D02*
X9907500Y-17892500D01*
X9907500Y-17797500D02*
X9812500Y-17892500D01*
X9907500Y-17845000D02*
G75*
G03*
X9907500Y-17845000I-47500J0D01*
G01*
X11352500Y-12587500D02*
X11447500Y-12682500D01*
X11447500Y-12587500D02*
X11352500Y-12682500D01*
X11447500Y-12635000D02*
G75*
G03*
X11447500Y-12635000I-47500J0D01*
G01*
X11602500Y-12587500D02*
X11697500Y-12682500D01*
X11697500Y-12587500D02*
X11602500Y-12682500D01*
X11697500Y-12635000D02*
G75*
G03*
X11697500Y-12635000I-47500J0D01*
G01*
X11852500Y-12587500D02*
X11947500Y-12682500D01*
X11947500Y-12587500D02*
X11852500Y-12682500D01*
X11947500Y-12635000D02*
G75*
G03*
X11947500Y-12635000I-47500J0D01*
G01*
X12102500Y-12587500D02*
X12197500Y-12682500D01*
X12197500Y-12587500D02*
X12102500Y-12682500D01*
X12197500Y-12635000D02*
G75*
G03*
X12197500Y-12635000I-47500J0D01*
G01*
X12352500Y-12587500D02*
X12447500Y-12682500D01*
X12447500Y-12587500D02*
X12352500Y-12682500D01*
X12447500Y-12635000D02*
G75*
G03*
X12447500Y-12635000I-47500J0D01*
G01*
X12602500Y-12587500D02*
X12697500Y-12682500D01*
X12697500Y-12587500D02*
X12602500Y-12682500D01*
X12697500Y-12635000D02*
G75*
G03*
X12697500Y-12635000I-47500J0D01*
G01*
X12852500Y-12587500D02*
X12947500Y-12682500D01*
X12947500Y-12587500D02*
X12852500Y-12682500D01*
X12947500Y-12635000D02*
G75*
G03*
X12947500Y-12635000I-47500J0D01*
G01*
X13102500Y-12587500D02*
X13197500Y-12682500D01*
X13197500Y-12587500D02*
X13102500Y-12682500D01*
X13197500Y-12635000D02*
G75*
G03*
X13197500Y-12635000I-47500J0D01*
G01*
X13352500Y-12587500D02*
X13447500Y-12682500D01*
X13447500Y-12587500D02*
X13352500Y-12682500D01*
X13447500Y-12635000D02*
G75*
G03*
X13447500Y-12635000I-47500J0D01*
G01*
X13602500Y-12587500D02*
X13697500Y-12682500D01*
X13697500Y-12587500D02*
X13602500Y-12682500D01*
X13697500Y-12635000D02*
G75*
G03*
X13697500Y-12635000I-47500J0D01*
G01*
X16917500Y-12587500D02*
X17012500Y-12682500D01*
X17012500Y-12587500D02*
X16917500Y-12682500D01*
X17012500Y-12635000D02*
G75*
G03*
X17012500Y-12635000I-47500J0D01*
G01*
X17167500Y-12587500D02*
X17262500Y-12682500D01*
X17262500Y-12587500D02*
X17167500Y-12682500D01*
X17262500Y-12635000D02*
G75*
G03*
X17262500Y-12635000I-47500J0D01*
G01*
X17417500Y-12587500D02*
X17512500Y-12682500D01*
X17512500Y-12587500D02*
X17417500Y-12682500D01*
X17512500Y-12635000D02*
G75*
G03*
X17512500Y-12635000I-47500J0D01*
G01*
X17667500Y-12587500D02*
X17762500Y-12682500D01*
X17762500Y-12587500D02*
X17667500Y-12682500D01*
X17762500Y-12635000D02*
G75*
G03*
X17762500Y-12635000I-47500J0D01*
G01*
X17917500Y-12587500D02*
X18012500Y-12682500D01*
X18012500Y-12587500D02*
X17917500Y-12682500D01*
X18012500Y-12635000D02*
G75*
G03*
X18012500Y-12635000I-47500J0D01*
G01*
X18167500Y-12587500D02*
X18262500Y-12682500D01*
X18262500Y-12587500D02*
X18167500Y-12682500D01*
X18262500Y-12635000D02*
G75*
G03*
X18262500Y-12635000I-47500J0D01*
G01*
X18417500Y-12587500D02*
X18512500Y-12682500D01*
X18512500Y-12587500D02*
X18417500Y-12682500D01*
X18512500Y-12635000D02*
G75*
G03*
X18512500Y-12635000I-47500J0D01*
G01*
X18667500Y-12587500D02*
X18762500Y-12682500D01*
X18762500Y-12587500D02*
X18667500Y-12682500D01*
X18762500Y-12635000D02*
G75*
G03*
X18762500Y-12635000I-47500J0D01*
G01*
X18917500Y-12587500D02*
X19012500Y-12682500D01*
X19012500Y-12587500D02*
X18917500Y-12682500D01*
X19012500Y-12635000D02*
G75*
G03*
X19012500Y-12635000I-47500J0D01*
G01*
X19167500Y-12587500D02*
X19262500Y-12682500D01*
X19262500Y-12587500D02*
X19167500Y-12682500D01*
X19262500Y-12635000D02*
G75*
G03*
X19262500Y-12635000I-47500J0D01*
G01*
X22472500Y-12587500D02*
X22567500Y-12682500D01*
X22567500Y-12587500D02*
X22472500Y-12682500D01*
X22567500Y-12635000D02*
G75*
G03*
X22567500Y-12635000I-47500J0D01*
G01*
X22722500Y-12587500D02*
X22817500Y-12682500D01*
X22817500Y-12587500D02*
X22722500Y-12682500D01*
X22817500Y-12635000D02*
G75*
G03*
X22817500Y-12635000I-47500J0D01*
G01*
X22972500Y-12587500D02*
X23067500Y-12682500D01*
X23067500Y-12587500D02*
X22972500Y-12682500D01*
X23067500Y-12635000D02*
G75*
G03*
X23067500Y-12635000I-47500J0D01*
G01*
X23222500Y-12587500D02*
X23317500Y-12682500D01*
X23317500Y-12587500D02*
X23222500Y-12682500D01*
X23317500Y-12635000D02*
G75*
G03*
X23317500Y-12635000I-47500J0D01*
G01*
X23472500Y-12587500D02*
X23567500Y-12682500D01*
X23567500Y-12587500D02*
X23472500Y-12682500D01*
X23567500Y-12635000D02*
G75*
G03*
X23567500Y-12635000I-47500J0D01*
G01*
X23722500Y-12587500D02*
X23817500Y-12682500D01*
X23817500Y-12587500D02*
X23722500Y-12682500D01*
X23817500Y-12635000D02*
G75*
G03*
X23817500Y-12635000I-47500J0D01*
G01*
X23972500Y-12587500D02*
X24067500Y-12682500D01*
X24067500Y-12587500D02*
X23972500Y-12682500D01*
X24067500Y-12635000D02*
G75*
G03*
X24067500Y-12635000I-47500J0D01*
G01*
X24222500Y-12587500D02*
X24317500Y-12682500D01*
X24317500Y-12587500D02*
X24222500Y-12682500D01*
X24317500Y-12635000D02*
G75*
G03*
X24317500Y-12635000I-47500J0D01*
G01*
X24472500Y-12587500D02*
X24567500Y-12682500D01*
X24567500Y-12587500D02*
X24472500Y-12682500D01*
X24567500Y-12635000D02*
G75*
G03*
X24567500Y-12635000I-47500J0D01*
G01*
X24722500Y-12587500D02*
X24817500Y-12682500D01*
X24817500Y-12587500D02*
X24722500Y-12682500D01*
X24817500Y-12635000D02*
G75*
G03*
X24817500Y-12635000I-47500J0D01*
G01*
X28012500Y-12587500D02*
X28107500Y-12682500D01*
X28107500Y-12587500D02*
X28012500Y-12682500D01*
X28107500Y-12635000D02*
G75*
G03*
X28107500Y-12635000I-47500J0D01*
G01*
X28262500Y-12587500D02*
X28357500Y-12682500D01*
X28357500Y-12587500D02*
X28262500Y-12682500D01*
X28357500Y-12635000D02*
G75*
G03*
X28357500Y-12635000I-47500J0D01*
G01*
X28512500Y-12587500D02*
X28607500Y-12682500D01*
X28607500Y-12587500D02*
X28512500Y-12682500D01*
X28607500Y-12635000D02*
G75*
G03*
X28607500Y-12635000I-47500J0D01*
G01*
X28762500Y-12587500D02*
X28857500Y-12682500D01*
X28857500Y-12587500D02*
X28762500Y-12682500D01*
X28857500Y-12635000D02*
G75*
G03*
X28857500Y-12635000I-47500J0D01*
G01*
X29012500Y-12587500D02*
X29107500Y-12682500D01*
X29107500Y-12587500D02*
X29012500Y-12682500D01*
X29107500Y-12635000D02*
G75*
G03*
X29107500Y-12635000I-47500J0D01*
G01*
X29262500Y-12587500D02*
X29357500Y-12682500D01*
X29357500Y-12587500D02*
X29262500Y-12682500D01*
X29357500Y-12635000D02*
G75*
G03*
X29357500Y-12635000I-47500J0D01*
G01*
X29512500Y-12587500D02*
X29607500Y-12682500D01*
X29607500Y-12587500D02*
X29512500Y-12682500D01*
X29607500Y-12635000D02*
G75*
G03*
X29607500Y-12635000I-47500J0D01*
G01*
X29762500Y-12587500D02*
X29857500Y-12682500D01*
X29857500Y-12587500D02*
X29762500Y-12682500D01*
X29857500Y-12635000D02*
G75*
G03*
X29857500Y-12635000I-47500J0D01*
G01*
X30012500Y-12587500D02*
X30107500Y-12682500D01*
X30107500Y-12587500D02*
X30012500Y-12682500D01*
X30107500Y-12635000D02*
G75*
G03*
X30107500Y-12635000I-47500J0D01*
G01*
X30262500Y-12587500D02*
X30357500Y-12682500D01*
X30357500Y-12587500D02*
X30262500Y-12682500D01*
X30357500Y-12635000D02*
G75*
G03*
X30357500Y-12635000I-47500J0D01*
G01*
X31442500Y-16497500D02*
X31537500Y-16592500D01*
X31537500Y-16497500D02*
X31442500Y-16592500D01*
X31537500Y-16545000D02*
G75*
G03*
X31537500Y-16545000I-47500J0D01*
G01*
X31442500Y-17137500D02*
X31537500Y-17232500D01*
X31537500Y-17137500D02*
X31442500Y-17232500D01*
X31537500Y-17185000D02*
G75*
G03*
X31537500Y-17185000I-47500J0D01*
G01*
X31442500Y-17772500D02*
X31537500Y-17867500D01*
X31537500Y-17772500D02*
X31442500Y-17867500D01*
X31537500Y-17820000D02*
G75*
G03*
X31537500Y-17820000I-47500J0D01*
G01*
X31692500Y-16497500D02*
X31787500Y-16592500D01*
X31787500Y-16497500D02*
X31692500Y-16592500D01*
X31787500Y-16545000D02*
G75*
G03*
X31787500Y-16545000I-47500J0D01*
G01*
X31692500Y-17137500D02*
X31787500Y-17232500D01*
X31787500Y-17137500D02*
X31692500Y-17232500D01*
X31787500Y-17185000D02*
G75*
G03*
X31787500Y-17185000I-47500J0D01*
G01*
X31692500Y-17772500D02*
X31787500Y-17867500D01*
X31787500Y-17772500D02*
X31692500Y-17867500D01*
X31787500Y-17820000D02*
G75*
G03*
X31787500Y-17820000I-47500J0D01*
G01*
X31942500Y-16497500D02*
X32037500Y-16592500D01*
X32037500Y-16497500D02*
X31942500Y-16592500D01*
X32037500Y-16545000D02*
G75*
G03*
X32037500Y-16545000I-47500J0D01*
G01*
X31942500Y-17137500D02*
X32037500Y-17232500D01*
X32037500Y-17137500D02*
X31942500Y-17232500D01*
X32037500Y-17185000D02*
G75*
G03*
X32037500Y-17185000I-47500J0D01*
G01*
X31942500Y-17772500D02*
X32037500Y-17867500D01*
X32037500Y-17772500D02*
X31942500Y-17867500D01*
X32037500Y-17820000D02*
G75*
G03*
X32037500Y-17820000I-47500J0D01*
G01*
X9810000Y-16030000D02*
X9910000Y-16130000D01*
X9910000Y-16030000D02*
X9810000Y-16130000D01*
X9860000Y-16030000D02*
X9860000Y-16130000D01*
X9810000Y-16080000D02*
X9910000Y-16080000D01*
X9810000Y-16280000D02*
X9910000Y-16380000D01*
X9910000Y-16280000D02*
X9810000Y-16380000D01*
X9860000Y-16280000D02*
X9860000Y-16380000D01*
X9810000Y-16330000D02*
X9910000Y-16330000D01*
X10210000Y-14140000D02*
X10310000Y-14240000D01*
X10310000Y-14140000D02*
X10210000Y-14240000D01*
X10260000Y-14140000D02*
X10260000Y-14240000D01*
X10210000Y-14190000D02*
X10310000Y-14190000D01*
X10220000Y-14090000D02*
X10220000Y-14290000D01*
X10300000Y-14090000D02*
X10300000Y-14290000D01*
X10220000Y-14290000D02*
G75*
G03*
X10300000Y-14290000I40000J0D01*
G01*
X10300000Y-14090000D02*
G75*
G03*
X10220000Y-14090000I-40000J0D01*
G01*
X10510000Y-14610000D02*
X10610000Y-14710000D01*
X10610000Y-14610000D02*
X10510000Y-14710000D01*
X10560000Y-14610000D02*
X10560000Y-14710000D01*
X10510000Y-14660000D02*
X10610000Y-14660000D01*
X10460000Y-14700000D02*
X10660000Y-14700000D01*
X10460000Y-14620000D02*
X10660000Y-14620000D01*
X10660000Y-14700000D02*
G75*
G03*
X10660000Y-14620000I0J40000D01*
G01*
X10460000Y-14620000D02*
G75*
G03*
X10460000Y-14700000I0J-40000D01*
G01*
X10810000Y-14140000D02*
X10910000Y-14240000D01*
X10910000Y-14140000D02*
X10810000Y-14240000D01*
X10860000Y-14140000D02*
X10860000Y-14240000D01*
X10810000Y-14190000D02*
X10910000Y-14190000D01*
X10820000Y-14090000D02*
X10820000Y-14290000D01*
X10900000Y-14090000D02*
X10900000Y-14290000D01*
X10820000Y-14290000D02*
G75*
G03*
X10900000Y-14290000I40000J0D01*
G01*
X10900000Y-14090000D02*
G75*
G03*
X10820000Y-14090000I-40000J0D01*
G01*
X13210000Y-15350000D02*
X13320000Y-15460000D01*
X13320000Y-15350000D02*
X13210000Y-15460000D01*
X13303891Y-15443891D02*
X13303891Y-15366109D01*
X13226109Y-15366109D01*
X13226109Y-15443891D01*
X13303891Y-15443891D01*
X13464000Y-15350000D02*
X13574000Y-15460000D01*
X13574000Y-15350000D02*
X13464000Y-15460000D01*
X13557891Y-15443891D02*
X13557891Y-15366109D01*
X13480109Y-15366109D01*
X13480109Y-15443891D01*
X13557891Y-15443891D01*
X13718000Y-15350000D02*
X13828000Y-15460000D01*
X13828000Y-15350000D02*
X13718000Y-15460000D01*
X13811891Y-15443891D02*
X13811891Y-15366109D01*
X13734109Y-15366109D01*
X13734109Y-15443891D01*
X13811891Y-15443891D01*
X17715000Y-17440000D02*
X17825000Y-17550000D01*
X17825000Y-17440000D02*
X17715000Y-17550000D01*
X17808891Y-17533891D02*
X17808891Y-17456109D01*
X17731109Y-17456109D01*
X17731109Y-17533891D01*
X17808891Y-17533891D01*
X17715000Y-17694000D02*
X17825000Y-17804000D01*
X17825000Y-17694000D02*
X17715000Y-17804000D01*
X17808891Y-17787891D02*
X17808891Y-17710109D01*
X17731109Y-17710109D01*
X17731109Y-17787891D01*
X17808891Y-17787891D01*
X17715000Y-17948000D02*
X17825000Y-18058000D01*
X17825000Y-17948000D02*
X17715000Y-18058000D01*
X17808891Y-18041891D02*
X17808891Y-17964109D01*
X17731109Y-17964109D01*
X17731109Y-18041891D01*
X17808891Y-18041891D01*
X13100000Y-17700000D02*
X13230000Y-17830000D01*
X13230000Y-17700000D02*
X13100000Y-17830000D01*
X13165000Y-17830000D02*
X13230000Y-17765000D01*
X13165000Y-17700000D01*
X13100000Y-17765000D01*
X13165000Y-17830000D01*
X13400000Y-17700000D02*
X13530000Y-17830000D01*
X13530000Y-17700000D02*
X13400000Y-17830000D01*
X13465000Y-17830000D02*
X13530000Y-17765000D01*
X13465000Y-17700000D01*
X13400000Y-17765000D01*
X13465000Y-17830000D01*
D12*
X9726429Y-19150714D02*
X9726429Y-18850714D01*
X9797857Y-18850714D01*
X9840714Y-18865000D01*
X9869286Y-18893571D01*
X9883571Y-18922143D01*
X9897857Y-18979286D01*
X9897857Y-19022143D01*
X9883571Y-19079286D01*
X9869286Y-19107857D01*
X9840714Y-19136429D01*
X9797857Y-19150714D01*
X9726429Y-19150714D01*
X10026429Y-19150714D02*
X10026429Y-18950714D01*
X10026429Y-19007857D02*
X10040714Y-18979286D01*
X10055000Y-18965000D01*
X10083571Y-18950714D01*
X10112143Y-18950714D01*
X10212143Y-19150714D02*
X10212143Y-18950714D01*
X10212143Y-18850714D02*
X10197857Y-18865000D01*
X10212143Y-18879286D01*
X10226429Y-18865000D01*
X10212143Y-18850714D01*
X10212143Y-18879286D01*
X10397857Y-19150714D02*
X10369286Y-19136429D01*
X10355000Y-19107857D01*
X10355000Y-18850714D01*
X10555000Y-19150714D02*
X10526429Y-19136429D01*
X10512143Y-19107857D01*
X10512143Y-18850714D01*
X10897857Y-19150714D02*
X10897857Y-18850714D01*
X10997857Y-19065000D01*
X11097857Y-18850714D01*
X11097857Y-19150714D01*
X11369286Y-19150714D02*
X11369286Y-18993571D01*
X11355000Y-18965000D01*
X11326428Y-18950714D01*
X11269286Y-18950714D01*
X11240714Y-18965000D01*
X11369286Y-19136429D02*
X11340714Y-19150714D01*
X11269286Y-19150714D01*
X11240714Y-19136429D01*
X11226428Y-19107857D01*
X11226428Y-19079286D01*
X11240714Y-19050714D01*
X11269286Y-19036429D01*
X11340714Y-19036429D01*
X11369286Y-19022143D01*
X11512143Y-18950714D02*
X11512143Y-19250714D01*
X11512143Y-18965000D02*
X11540714Y-18950714D01*
X11597857Y-18950714D01*
X11626428Y-18965000D01*
X11640714Y-18979286D01*
X11655000Y-19007857D01*
X11655000Y-19093571D01*
X11640714Y-19122143D01*
X11626428Y-19136429D01*
X11597857Y-19150714D01*
X11540714Y-19150714D01*
X11512143Y-19136429D01*
X11783571Y-19122143D02*
X11797857Y-19136429D01*
X11783571Y-19150714D01*
X11769286Y-19136429D01*
X11783571Y-19122143D01*
X11783571Y-19150714D01*
X11783571Y-18965000D02*
X11797857Y-18979286D01*
X11783571Y-18993571D01*
X11769286Y-18979286D01*
X11783571Y-18965000D01*
X11783571Y-18993571D01*
X9400000Y-19625000D02*
X9440000Y-19665000D01*
X9440000Y-19625000D02*
X9400000Y-19665000D01*
X9783571Y-19480714D02*
X9812143Y-19480714D01*
X9840714Y-19495000D01*
X9855000Y-19509286D01*
X9869286Y-19537857D01*
X9883571Y-19595000D01*
X9883571Y-19666429D01*
X9869286Y-19723571D01*
X9855000Y-19752143D01*
X9840714Y-19766429D01*
X9812143Y-19780714D01*
X9783571Y-19780714D01*
X9755000Y-19766429D01*
X9740714Y-19752143D01*
X9726429Y-19723571D01*
X9712143Y-19666429D01*
X9712143Y-19595000D01*
X9726429Y-19537857D01*
X9740714Y-19509286D01*
X9755000Y-19495000D01*
X9783571Y-19480714D01*
X10012143Y-19752143D02*
X10026429Y-19766429D01*
X10012143Y-19780714D01*
X9997857Y-19766429D01*
X10012143Y-19752143D01*
X10012143Y-19780714D01*
X10283571Y-19580714D02*
X10283571Y-19780714D01*
X10212143Y-19466429D02*
X10140714Y-19680714D01*
X10326429Y-19680714D01*
X10497857Y-19480714D02*
X10526429Y-19480714D01*
X10555000Y-19495000D01*
X10569286Y-19509286D01*
X10583571Y-19537857D01*
X10597857Y-19595000D01*
X10597857Y-19666429D01*
X10583571Y-19723571D01*
X10569286Y-19752143D01*
X10555000Y-19766429D01*
X10526429Y-19780714D01*
X10497857Y-19780714D01*
X10469286Y-19766429D01*
X10455000Y-19752143D01*
X10440714Y-19723571D01*
X10426429Y-19666429D01*
X10426429Y-19595000D01*
X10440714Y-19537857D01*
X10455000Y-19509286D01*
X10469286Y-19495000D01*
X10497857Y-19480714D01*
X10726429Y-19780714D02*
X10726429Y-19580714D01*
X10726429Y-19609286D02*
X10740714Y-19595000D01*
X10769286Y-19580714D01*
X10812143Y-19580714D01*
X10840714Y-19595000D01*
X10855000Y-19623571D01*
X10855000Y-19780714D01*
X10855000Y-19623571D02*
X10869286Y-19595000D01*
X10897857Y-19580714D01*
X10940714Y-19580714D01*
X10969286Y-19595000D01*
X10983571Y-19623571D01*
X10983571Y-19780714D01*
X11126429Y-19780714D02*
X11126429Y-19580714D01*
X11126429Y-19609286D02*
X11140714Y-19595000D01*
X11169286Y-19580714D01*
X11212143Y-19580714D01*
X11240714Y-19595000D01*
X11255000Y-19623571D01*
X11255000Y-19780714D01*
X11255000Y-19623571D02*
X11269286Y-19595000D01*
X11297857Y-19580714D01*
X11340714Y-19580714D01*
X11369286Y-19595000D01*
X11383571Y-19623571D01*
X11383571Y-19780714D01*
X11969286Y-19466429D02*
X11712143Y-19852143D01*
X12355000Y-19480714D02*
X12383571Y-19480714D01*
X12412143Y-19495000D01*
X12426428Y-19509286D01*
X12440714Y-19537857D01*
X12455000Y-19595000D01*
X12455000Y-19666429D01*
X12440714Y-19723571D01*
X12426428Y-19752143D01*
X12412143Y-19766429D01*
X12383571Y-19780714D01*
X12355000Y-19780714D01*
X12326428Y-19766429D01*
X12312143Y-19752143D01*
X12297857Y-19723571D01*
X12283571Y-19666429D01*
X12283571Y-19595000D01*
X12297857Y-19537857D01*
X12312143Y-19509286D01*
X12326428Y-19495000D01*
X12355000Y-19480714D01*
X12583571Y-19752143D02*
X12597857Y-19766429D01*
X12583571Y-19780714D01*
X12569286Y-19766429D01*
X12583571Y-19752143D01*
X12583571Y-19780714D01*
X12783571Y-19480714D02*
X12812143Y-19480714D01*
X12840714Y-19495000D01*
X12855000Y-19509286D01*
X12869286Y-19537857D01*
X12883571Y-19595000D01*
X12883571Y-19666429D01*
X12869286Y-19723571D01*
X12855000Y-19752143D01*
X12840714Y-19766429D01*
X12812143Y-19780714D01*
X12783571Y-19780714D01*
X12755000Y-19766429D01*
X12740714Y-19752143D01*
X12726428Y-19723571D01*
X12712143Y-19666429D01*
X12712143Y-19595000D01*
X12726428Y-19537857D01*
X12740714Y-19509286D01*
X12755000Y-19495000D01*
X12783571Y-19480714D01*
X13169286Y-19780714D02*
X12997857Y-19780714D01*
X13083571Y-19780714D02*
X13083571Y-19480714D01*
X13055000Y-19523571D01*
X13026428Y-19552143D01*
X12997857Y-19566429D01*
X13426428Y-19480714D02*
X13369286Y-19480714D01*
X13340714Y-19495000D01*
X13326428Y-19509286D01*
X13297857Y-19552143D01*
X13283571Y-19609286D01*
X13283571Y-19723571D01*
X13297857Y-19752143D01*
X13312143Y-19766429D01*
X13340714Y-19780714D01*
X13397857Y-19780714D01*
X13426428Y-19766429D01*
X13440714Y-19752143D01*
X13455000Y-19723571D01*
X13455000Y-19652143D01*
X13440714Y-19623571D01*
X13426428Y-19609286D01*
X13397857Y-19595000D01*
X13340714Y-19595000D01*
X13312143Y-19609286D01*
X13297857Y-19623571D01*
X13283571Y-19652143D01*
X13569286Y-19480714D02*
X13569286Y-19537857D01*
X13683571Y-19480714D02*
X13683571Y-19537857D01*
X14126428Y-19895000D02*
X14112143Y-19880714D01*
X14083571Y-19837857D01*
X14069286Y-19809286D01*
X14055000Y-19766429D01*
X14040714Y-19695000D01*
X14040714Y-19637857D01*
X14055000Y-19566429D01*
X14069286Y-19523571D01*
X14083571Y-19495000D01*
X14112143Y-19452143D01*
X14126428Y-19437857D01*
X14397857Y-19780714D02*
X14226428Y-19780714D01*
X14312143Y-19780714D02*
X14312143Y-19480714D01*
X14283571Y-19523571D01*
X14255000Y-19552143D01*
X14226428Y-19566429D01*
X14512143Y-19509286D02*
X14526428Y-19495000D01*
X14555000Y-19480714D01*
X14626428Y-19480714D01*
X14655000Y-19495000D01*
X14669286Y-19509286D01*
X14683571Y-19537857D01*
X14683571Y-19566429D01*
X14669286Y-19609286D01*
X14497857Y-19780714D01*
X14683571Y-19780714D01*
X15040714Y-19780714D02*
X15040714Y-19480714D01*
X15169286Y-19780714D02*
X15169286Y-19623571D01*
X15155000Y-19595000D01*
X15126428Y-19580714D01*
X15083571Y-19580714D01*
X15055000Y-19595000D01*
X15040714Y-19609286D01*
X15355000Y-19780714D02*
X15326428Y-19766429D01*
X15312143Y-19752143D01*
X15297857Y-19723571D01*
X15297857Y-19637857D01*
X15312143Y-19609286D01*
X15326428Y-19595000D01*
X15355000Y-19580714D01*
X15397857Y-19580714D01*
X15426428Y-19595000D01*
X15440714Y-19609286D01*
X15455000Y-19637857D01*
X15455000Y-19723571D01*
X15440714Y-19752143D01*
X15426428Y-19766429D01*
X15397857Y-19780714D01*
X15355000Y-19780714D01*
X15626428Y-19780714D02*
X15597857Y-19766429D01*
X15583571Y-19737857D01*
X15583571Y-19480714D01*
X15855000Y-19766429D02*
X15826428Y-19780714D01*
X15769286Y-19780714D01*
X15740714Y-19766429D01*
X15726428Y-19737857D01*
X15726428Y-19623571D01*
X15740714Y-19595000D01*
X15769286Y-19580714D01*
X15826428Y-19580714D01*
X15855000Y-19595000D01*
X15869286Y-19623571D01*
X15869286Y-19652143D01*
X15726428Y-19680714D01*
X15983571Y-19766429D02*
X16012143Y-19780714D01*
X16069286Y-19780714D01*
X16097857Y-19766429D01*
X16112143Y-19737857D01*
X16112143Y-19723571D01*
X16097857Y-19695000D01*
X16069286Y-19680714D01*
X16026428Y-19680714D01*
X15997857Y-19666429D01*
X15983571Y-19637857D01*
X15983571Y-19623571D01*
X15997857Y-19595000D01*
X16026428Y-19580714D01*
X16069286Y-19580714D01*
X16097857Y-19595000D01*
X16212143Y-19895000D02*
X16226428Y-19880714D01*
X16255000Y-19837857D01*
X16269286Y-19809286D01*
X16283571Y-19766429D01*
X16297857Y-19695000D01*
X16297857Y-19637857D01*
X16283571Y-19566429D01*
X16269286Y-19523571D01*
X16255000Y-19495000D01*
X16226428Y-19452143D01*
X16212143Y-19437857D01*
X9440000Y-20041000D02*
G75*
G03*
X9440000Y-20041000I-35000J0D01*
G01*
X9783571Y-19876714D02*
X9812143Y-19876714D01*
X9840714Y-19891000D01*
X9855000Y-19905286D01*
X9869286Y-19933857D01*
X9883571Y-19991000D01*
X9883571Y-20062429D01*
X9869286Y-20119571D01*
X9855000Y-20148143D01*
X9840714Y-20162429D01*
X9812143Y-20176714D01*
X9783571Y-20176714D01*
X9755000Y-20162429D01*
X9740714Y-20148143D01*
X9726429Y-20119571D01*
X9712143Y-20062429D01*
X9712143Y-19991000D01*
X9726429Y-19933857D01*
X9740714Y-19905286D01*
X9755000Y-19891000D01*
X9783571Y-19876714D01*
X10012143Y-20148143D02*
X10026429Y-20162429D01*
X10012143Y-20176714D01*
X9997857Y-20162429D01*
X10012143Y-20148143D01*
X10012143Y-20176714D01*
X10126429Y-19876714D02*
X10326429Y-19876714D01*
X10197857Y-20176714D01*
X10497857Y-19876714D02*
X10526429Y-19876714D01*
X10555000Y-19891000D01*
X10569286Y-19905286D01*
X10583571Y-19933857D01*
X10597857Y-19991000D01*
X10597857Y-20062429D01*
X10583571Y-20119571D01*
X10569286Y-20148143D01*
X10555000Y-20162429D01*
X10526429Y-20176714D01*
X10497857Y-20176714D01*
X10469286Y-20162429D01*
X10455000Y-20148143D01*
X10440714Y-20119571D01*
X10426429Y-20062429D01*
X10426429Y-19991000D01*
X10440714Y-19933857D01*
X10455000Y-19905286D01*
X10469286Y-19891000D01*
X10497857Y-19876714D01*
X10726429Y-20176714D02*
X10726429Y-19976714D01*
X10726429Y-20005286D02*
X10740714Y-19991000D01*
X10769286Y-19976714D01*
X10812143Y-19976714D01*
X10840714Y-19991000D01*
X10855000Y-20019571D01*
X10855000Y-20176714D01*
X10855000Y-20019571D02*
X10869286Y-19991000D01*
X10897857Y-19976714D01*
X10940714Y-19976714D01*
X10969286Y-19991000D01*
X10983571Y-20019571D01*
X10983571Y-20176714D01*
X11126429Y-20176714D02*
X11126429Y-19976714D01*
X11126429Y-20005286D02*
X11140714Y-19991000D01*
X11169286Y-19976714D01*
X11212143Y-19976714D01*
X11240714Y-19991000D01*
X11255000Y-20019571D01*
X11255000Y-20176714D01*
X11255000Y-20019571D02*
X11269286Y-19991000D01*
X11297857Y-19976714D01*
X11340714Y-19976714D01*
X11369286Y-19991000D01*
X11383571Y-20019571D01*
X11383571Y-20176714D01*
X11969286Y-19862429D02*
X11712143Y-20248143D01*
X12355000Y-19876714D02*
X12383571Y-19876714D01*
X12412143Y-19891000D01*
X12426428Y-19905286D01*
X12440714Y-19933857D01*
X12455000Y-19991000D01*
X12455000Y-20062429D01*
X12440714Y-20119571D01*
X12426428Y-20148143D01*
X12412143Y-20162429D01*
X12383571Y-20176714D01*
X12355000Y-20176714D01*
X12326428Y-20162429D01*
X12312143Y-20148143D01*
X12297857Y-20119571D01*
X12283571Y-20062429D01*
X12283571Y-19991000D01*
X12297857Y-19933857D01*
X12312143Y-19905286D01*
X12326428Y-19891000D01*
X12355000Y-19876714D01*
X12583571Y-20148143D02*
X12597857Y-20162429D01*
X12583571Y-20176714D01*
X12569286Y-20162429D01*
X12583571Y-20148143D01*
X12583571Y-20176714D01*
X12783571Y-19876714D02*
X12812143Y-19876714D01*
X12840714Y-19891000D01*
X12855000Y-19905286D01*
X12869286Y-19933857D01*
X12883571Y-19991000D01*
X12883571Y-20062429D01*
X12869286Y-20119571D01*
X12855000Y-20148143D01*
X12840714Y-20162429D01*
X12812143Y-20176714D01*
X12783571Y-20176714D01*
X12755000Y-20162429D01*
X12740714Y-20148143D01*
X12726428Y-20119571D01*
X12712143Y-20062429D01*
X12712143Y-19991000D01*
X12726428Y-19933857D01*
X12740714Y-19905286D01*
X12755000Y-19891000D01*
X12783571Y-19876714D01*
X12997857Y-19905286D02*
X13012143Y-19891000D01*
X13040714Y-19876714D01*
X13112143Y-19876714D01*
X13140714Y-19891000D01*
X13155000Y-19905286D01*
X13169286Y-19933857D01*
X13169286Y-19962429D01*
X13155000Y-20005286D01*
X12983571Y-20176714D01*
X13169286Y-20176714D01*
X13340714Y-20005286D02*
X13312143Y-19991000D01*
X13297857Y-19976714D01*
X13283571Y-19948143D01*
X13283571Y-19933857D01*
X13297857Y-19905286D01*
X13312143Y-19891000D01*
X13340714Y-19876714D01*
X13397857Y-19876714D01*
X13426428Y-19891000D01*
X13440714Y-19905286D01*
X13455000Y-19933857D01*
X13455000Y-19948143D01*
X13440714Y-19976714D01*
X13426428Y-19991000D01*
X13397857Y-20005286D01*
X13340714Y-20005286D01*
X13312143Y-20019571D01*
X13297857Y-20033857D01*
X13283571Y-20062429D01*
X13283571Y-20119571D01*
X13297857Y-20148143D01*
X13312143Y-20162429D01*
X13340714Y-20176714D01*
X13397857Y-20176714D01*
X13426428Y-20162429D01*
X13440714Y-20148143D01*
X13455000Y-20119571D01*
X13455000Y-20062429D01*
X13440714Y-20033857D01*
X13426428Y-20019571D01*
X13397857Y-20005286D01*
X13569286Y-19876714D02*
X13569286Y-19933857D01*
X13683571Y-19876714D02*
X13683571Y-19933857D01*
X14126428Y-20291000D02*
X14112143Y-20276714D01*
X14083571Y-20233857D01*
X14069286Y-20205286D01*
X14055000Y-20162429D01*
X14040714Y-20091000D01*
X14040714Y-20033857D01*
X14055000Y-19962429D01*
X14069286Y-19919571D01*
X14083571Y-19891000D01*
X14112143Y-19848143D01*
X14126428Y-19833857D01*
X14397857Y-20176714D02*
X14226428Y-20176714D01*
X14312143Y-20176714D02*
X14312143Y-19876714D01*
X14283571Y-19919571D01*
X14255000Y-19948143D01*
X14226428Y-19962429D01*
X14583571Y-19876714D02*
X14612143Y-19876714D01*
X14640714Y-19891000D01*
X14655000Y-19905286D01*
X14669286Y-19933857D01*
X14683571Y-19991000D01*
X14683571Y-20062429D01*
X14669286Y-20119571D01*
X14655000Y-20148143D01*
X14640714Y-20162429D01*
X14612143Y-20176714D01*
X14583571Y-20176714D01*
X14555000Y-20162429D01*
X14540714Y-20148143D01*
X14526428Y-20119571D01*
X14512143Y-20062429D01*
X14512143Y-19991000D01*
X14526428Y-19933857D01*
X14540714Y-19905286D01*
X14555000Y-19891000D01*
X14583571Y-19876714D01*
X14940714Y-19876714D02*
X14883571Y-19876714D01*
X14855000Y-19891000D01*
X14840714Y-19905286D01*
X14812143Y-19948143D01*
X14797857Y-20005286D01*
X14797857Y-20119571D01*
X14812143Y-20148143D01*
X14826428Y-20162429D01*
X14855000Y-20176714D01*
X14912143Y-20176714D01*
X14940714Y-20162429D01*
X14955000Y-20148143D01*
X14969286Y-20119571D01*
X14969286Y-20048143D01*
X14955000Y-20019571D01*
X14940714Y-20005286D01*
X14912143Y-19991000D01*
X14855000Y-19991000D01*
X14826428Y-20005286D01*
X14812143Y-20019571D01*
X14797857Y-20048143D01*
X15326428Y-20176714D02*
X15326428Y-19876714D01*
X15455000Y-20176714D02*
X15455000Y-20019571D01*
X15440714Y-19991000D01*
X15412143Y-19976714D01*
X15369286Y-19976714D01*
X15340714Y-19991000D01*
X15326428Y-20005286D01*
X15640714Y-20176714D02*
X15612143Y-20162429D01*
X15597857Y-20148143D01*
X15583571Y-20119571D01*
X15583571Y-20033857D01*
X15597857Y-20005286D01*
X15612143Y-19991000D01*
X15640714Y-19976714D01*
X15683571Y-19976714D01*
X15712143Y-19991000D01*
X15726428Y-20005286D01*
X15740714Y-20033857D01*
X15740714Y-20119571D01*
X15726428Y-20148143D01*
X15712143Y-20162429D01*
X15683571Y-20176714D01*
X15640714Y-20176714D01*
X15912143Y-20176714D02*
X15883571Y-20162429D01*
X15869286Y-20133857D01*
X15869286Y-19876714D01*
X16140714Y-20162429D02*
X16112143Y-20176714D01*
X16055000Y-20176714D01*
X16026428Y-20162429D01*
X16012143Y-20133857D01*
X16012143Y-20019571D01*
X16026428Y-19991000D01*
X16055000Y-19976714D01*
X16112143Y-19976714D01*
X16140714Y-19991000D01*
X16155000Y-20019571D01*
X16155000Y-20048143D01*
X16012143Y-20076714D01*
X16269286Y-20162429D02*
X16297857Y-20176714D01*
X16355000Y-20176714D01*
X16383571Y-20162429D01*
X16397857Y-20133857D01*
X16397857Y-20119571D01*
X16383571Y-20091000D01*
X16355000Y-20076714D01*
X16312143Y-20076714D01*
X16283571Y-20062429D01*
X16269286Y-20033857D01*
X16269286Y-20019571D01*
X16283571Y-19991000D01*
X16312143Y-19976714D01*
X16355000Y-19976714D01*
X16383571Y-19991000D01*
X16497857Y-20291000D02*
X16512143Y-20276714D01*
X16540714Y-20233857D01*
X16555000Y-20205286D01*
X16569286Y-20162429D01*
X16583571Y-20091000D01*
X16583571Y-20033857D01*
X16569286Y-19962429D01*
X16555000Y-19919571D01*
X16540714Y-19891000D01*
X16512143Y-19848143D01*
X16497857Y-19833857D01*
X9402500Y-20399500D02*
X9402500Y-20474500D01*
X9365000Y-20437000D02*
X9440000Y-20437000D01*
X9783571Y-20272714D02*
X9812143Y-20272714D01*
X9840714Y-20287000D01*
X9855000Y-20301286D01*
X9869286Y-20329857D01*
X9883571Y-20387000D01*
X9883571Y-20458429D01*
X9869286Y-20515571D01*
X9855000Y-20544143D01*
X9840714Y-20558429D01*
X9812143Y-20572714D01*
X9783571Y-20572714D01*
X9755000Y-20558429D01*
X9740714Y-20544143D01*
X9726429Y-20515571D01*
X9712143Y-20458429D01*
X9712143Y-20387000D01*
X9726429Y-20329857D01*
X9740714Y-20301286D01*
X9755000Y-20287000D01*
X9783571Y-20272714D01*
X10012143Y-20544143D02*
X10026429Y-20558429D01*
X10012143Y-20572714D01*
X9997857Y-20558429D01*
X10012143Y-20544143D01*
X10012143Y-20572714D01*
X10126429Y-20272714D02*
X10326429Y-20272714D01*
X10197857Y-20572714D01*
X10583571Y-20272714D02*
X10440714Y-20272714D01*
X10426429Y-20415571D01*
X10440714Y-20401286D01*
X10469286Y-20387000D01*
X10540714Y-20387000D01*
X10569286Y-20401286D01*
X10583571Y-20415571D01*
X10597857Y-20444143D01*
X10597857Y-20515571D01*
X10583571Y-20544143D01*
X10569286Y-20558429D01*
X10540714Y-20572714D01*
X10469286Y-20572714D01*
X10440714Y-20558429D01*
X10426429Y-20544143D01*
X10726429Y-20572714D02*
X10726429Y-20372714D01*
X10726429Y-20401286D02*
X10740714Y-20387000D01*
X10769286Y-20372714D01*
X10812143Y-20372714D01*
X10840714Y-20387000D01*
X10855000Y-20415571D01*
X10855000Y-20572714D01*
X10855000Y-20415571D02*
X10869286Y-20387000D01*
X10897857Y-20372714D01*
X10940714Y-20372714D01*
X10969286Y-20387000D01*
X10983571Y-20415571D01*
X10983571Y-20572714D01*
X11126429Y-20572714D02*
X11126429Y-20372714D01*
X11126429Y-20401286D02*
X11140714Y-20387000D01*
X11169286Y-20372714D01*
X11212143Y-20372714D01*
X11240714Y-20387000D01*
X11255000Y-20415571D01*
X11255000Y-20572714D01*
X11255000Y-20415571D02*
X11269286Y-20387000D01*
X11297857Y-20372714D01*
X11340714Y-20372714D01*
X11369286Y-20387000D01*
X11383571Y-20415571D01*
X11383571Y-20572714D01*
X11969286Y-20258429D02*
X11712143Y-20644143D01*
X12355000Y-20272714D02*
X12383571Y-20272714D01*
X12412143Y-20287000D01*
X12426428Y-20301286D01*
X12440714Y-20329857D01*
X12455000Y-20387000D01*
X12455000Y-20458429D01*
X12440714Y-20515571D01*
X12426428Y-20544143D01*
X12412143Y-20558429D01*
X12383571Y-20572714D01*
X12355000Y-20572714D01*
X12326428Y-20558429D01*
X12312143Y-20544143D01*
X12297857Y-20515571D01*
X12283571Y-20458429D01*
X12283571Y-20387000D01*
X12297857Y-20329857D01*
X12312143Y-20301286D01*
X12326428Y-20287000D01*
X12355000Y-20272714D01*
X12583571Y-20544143D02*
X12597857Y-20558429D01*
X12583571Y-20572714D01*
X12569286Y-20558429D01*
X12583571Y-20544143D01*
X12583571Y-20572714D01*
X12783571Y-20272714D02*
X12812143Y-20272714D01*
X12840714Y-20287000D01*
X12855000Y-20301286D01*
X12869286Y-20329857D01*
X12883571Y-20387000D01*
X12883571Y-20458429D01*
X12869286Y-20515571D01*
X12855000Y-20544143D01*
X12840714Y-20558429D01*
X12812143Y-20572714D01*
X12783571Y-20572714D01*
X12755000Y-20558429D01*
X12740714Y-20544143D01*
X12726428Y-20515571D01*
X12712143Y-20458429D01*
X12712143Y-20387000D01*
X12726428Y-20329857D01*
X12740714Y-20301286D01*
X12755000Y-20287000D01*
X12783571Y-20272714D01*
X12983571Y-20272714D02*
X13169286Y-20272714D01*
X13069286Y-20387000D01*
X13112143Y-20387000D01*
X13140714Y-20401286D01*
X13155000Y-20415571D01*
X13169286Y-20444143D01*
X13169286Y-20515571D01*
X13155000Y-20544143D01*
X13140714Y-20558429D01*
X13112143Y-20572714D01*
X13026428Y-20572714D01*
X12997857Y-20558429D01*
X12983571Y-20544143D01*
X13355000Y-20272714D02*
X13383571Y-20272714D01*
X13412143Y-20287000D01*
X13426428Y-20301286D01*
X13440714Y-20329857D01*
X13455000Y-20387000D01*
X13455000Y-20458429D01*
X13440714Y-20515571D01*
X13426428Y-20544143D01*
X13412143Y-20558429D01*
X13383571Y-20572714D01*
X13355000Y-20572714D01*
X13326428Y-20558429D01*
X13312143Y-20544143D01*
X13297857Y-20515571D01*
X13283571Y-20458429D01*
X13283571Y-20387000D01*
X13297857Y-20329857D01*
X13312143Y-20301286D01*
X13326428Y-20287000D01*
X13355000Y-20272714D01*
X13569286Y-20272714D02*
X13569286Y-20329857D01*
X13683571Y-20272714D02*
X13683571Y-20329857D01*
X14126428Y-20687000D02*
X14112143Y-20672714D01*
X14083571Y-20629857D01*
X14069286Y-20601286D01*
X14055000Y-20558429D01*
X14040714Y-20487000D01*
X14040714Y-20429857D01*
X14055000Y-20358429D01*
X14069286Y-20315571D01*
X14083571Y-20287000D01*
X14112143Y-20244143D01*
X14126428Y-20229857D01*
X14397857Y-20572714D02*
X14226428Y-20572714D01*
X14312143Y-20572714D02*
X14312143Y-20272714D01*
X14283571Y-20315571D01*
X14255000Y-20344143D01*
X14226428Y-20358429D01*
X14512143Y-20301286D02*
X14526428Y-20287000D01*
X14555000Y-20272714D01*
X14626428Y-20272714D01*
X14655000Y-20287000D01*
X14669286Y-20301286D01*
X14683571Y-20329857D01*
X14683571Y-20358429D01*
X14669286Y-20401286D01*
X14497857Y-20572714D01*
X14683571Y-20572714D01*
X14783571Y-20272714D02*
X14969286Y-20272714D01*
X14869286Y-20387000D01*
X14912143Y-20387000D01*
X14940714Y-20401286D01*
X14955000Y-20415571D01*
X14969286Y-20444143D01*
X14969286Y-20515571D01*
X14955000Y-20544143D01*
X14940714Y-20558429D01*
X14912143Y-20572714D01*
X14826428Y-20572714D01*
X14797857Y-20558429D01*
X14783571Y-20544143D01*
X15326428Y-20572714D02*
X15326428Y-20272714D01*
X15455000Y-20572714D02*
X15455000Y-20415571D01*
X15440714Y-20387000D01*
X15412143Y-20372714D01*
X15369286Y-20372714D01*
X15340714Y-20387000D01*
X15326428Y-20401286D01*
X15640714Y-20572714D02*
X15612143Y-20558429D01*
X15597857Y-20544143D01*
X15583571Y-20515571D01*
X15583571Y-20429857D01*
X15597857Y-20401286D01*
X15612143Y-20387000D01*
X15640714Y-20372714D01*
X15683571Y-20372714D01*
X15712143Y-20387000D01*
X15726428Y-20401286D01*
X15740714Y-20429857D01*
X15740714Y-20515571D01*
X15726428Y-20544143D01*
X15712143Y-20558429D01*
X15683571Y-20572714D01*
X15640714Y-20572714D01*
X15912143Y-20572714D02*
X15883571Y-20558429D01*
X15869286Y-20529857D01*
X15869286Y-20272714D01*
X16140714Y-20558429D02*
X16112143Y-20572714D01*
X16055000Y-20572714D01*
X16026428Y-20558429D01*
X16012143Y-20529857D01*
X16012143Y-20415571D01*
X16026428Y-20387000D01*
X16055000Y-20372714D01*
X16112143Y-20372714D01*
X16140714Y-20387000D01*
X16155000Y-20415571D01*
X16155000Y-20444143D01*
X16012143Y-20472714D01*
X16269286Y-20558429D02*
X16297857Y-20572714D01*
X16355000Y-20572714D01*
X16383571Y-20558429D01*
X16397857Y-20529857D01*
X16397857Y-20515571D01*
X16383571Y-20487000D01*
X16355000Y-20472714D01*
X16312143Y-20472714D01*
X16283571Y-20458429D01*
X16269286Y-20429857D01*
X16269286Y-20415571D01*
X16283571Y-20387000D01*
X16312143Y-20372714D01*
X16355000Y-20372714D01*
X16383571Y-20387000D01*
X16497857Y-20687000D02*
X16512143Y-20672714D01*
X16540714Y-20629857D01*
X16555000Y-20601286D01*
X16569286Y-20558429D01*
X16583571Y-20487000D01*
X16583571Y-20429857D01*
X16569286Y-20358429D01*
X16555000Y-20315571D01*
X16540714Y-20287000D01*
X16512143Y-20244143D01*
X16497857Y-20229857D01*
X9428285Y-20861285D02*
X9428285Y-20804716D01*
X9371716Y-20804716D01*
X9371716Y-20861285D01*
X9428285Y-20861285D01*
X9783571Y-20668714D02*
X9812143Y-20668714D01*
X9840714Y-20683000D01*
X9855000Y-20697286D01*
X9869286Y-20725857D01*
X9883571Y-20783000D01*
X9883571Y-20854429D01*
X9869286Y-20911571D01*
X9855000Y-20940143D01*
X9840714Y-20954429D01*
X9812143Y-20968714D01*
X9783571Y-20968714D01*
X9755000Y-20954429D01*
X9740714Y-20940143D01*
X9726429Y-20911571D01*
X9712143Y-20854429D01*
X9712143Y-20783000D01*
X9726429Y-20725857D01*
X9740714Y-20697286D01*
X9755000Y-20683000D01*
X9783571Y-20668714D01*
X10012143Y-20940143D02*
X10026429Y-20954429D01*
X10012143Y-20968714D01*
X9997857Y-20954429D01*
X10012143Y-20940143D01*
X10012143Y-20968714D01*
X10197857Y-20797286D02*
X10169286Y-20783000D01*
X10155000Y-20768714D01*
X10140714Y-20740143D01*
X10140714Y-20725857D01*
X10155000Y-20697286D01*
X10169286Y-20683000D01*
X10197857Y-20668714D01*
X10255000Y-20668714D01*
X10283571Y-20683000D01*
X10297857Y-20697286D01*
X10312143Y-20725857D01*
X10312143Y-20740143D01*
X10297857Y-20768714D01*
X10283571Y-20783000D01*
X10255000Y-20797286D01*
X10197857Y-20797286D01*
X10169286Y-20811571D01*
X10155000Y-20825857D01*
X10140714Y-20854429D01*
X10140714Y-20911571D01*
X10155000Y-20940143D01*
X10169286Y-20954429D01*
X10197857Y-20968714D01*
X10255000Y-20968714D01*
X10283571Y-20954429D01*
X10297857Y-20940143D01*
X10312143Y-20911571D01*
X10312143Y-20854429D01*
X10297857Y-20825857D01*
X10283571Y-20811571D01*
X10255000Y-20797286D01*
X10497857Y-20668714D02*
X10526429Y-20668714D01*
X10555000Y-20683000D01*
X10569286Y-20697286D01*
X10583571Y-20725857D01*
X10597857Y-20783000D01*
X10597857Y-20854429D01*
X10583571Y-20911571D01*
X10569286Y-20940143D01*
X10555000Y-20954429D01*
X10526429Y-20968714D01*
X10497857Y-20968714D01*
X10469286Y-20954429D01*
X10455000Y-20940143D01*
X10440714Y-20911571D01*
X10426429Y-20854429D01*
X10426429Y-20783000D01*
X10440714Y-20725857D01*
X10455000Y-20697286D01*
X10469286Y-20683000D01*
X10497857Y-20668714D01*
X10726429Y-20968714D02*
X10726429Y-20768714D01*
X10726429Y-20797286D02*
X10740714Y-20783000D01*
X10769286Y-20768714D01*
X10812143Y-20768714D01*
X10840714Y-20783000D01*
X10855000Y-20811571D01*
X10855000Y-20968714D01*
X10855000Y-20811571D02*
X10869286Y-20783000D01*
X10897857Y-20768714D01*
X10940714Y-20768714D01*
X10969286Y-20783000D01*
X10983571Y-20811571D01*
X10983571Y-20968714D01*
X11126429Y-20968714D02*
X11126429Y-20768714D01*
X11126429Y-20797286D02*
X11140714Y-20783000D01*
X11169286Y-20768714D01*
X11212143Y-20768714D01*
X11240714Y-20783000D01*
X11255000Y-20811571D01*
X11255000Y-20968714D01*
X11255000Y-20811571D02*
X11269286Y-20783000D01*
X11297857Y-20768714D01*
X11340714Y-20768714D01*
X11369286Y-20783000D01*
X11383571Y-20811571D01*
X11383571Y-20968714D01*
X11969286Y-20654429D02*
X11712143Y-21040143D01*
X12355000Y-20668714D02*
X12383571Y-20668714D01*
X12412143Y-20683000D01*
X12426428Y-20697286D01*
X12440714Y-20725857D01*
X12455000Y-20783000D01*
X12455000Y-20854429D01*
X12440714Y-20911571D01*
X12426428Y-20940143D01*
X12412143Y-20954429D01*
X12383571Y-20968714D01*
X12355000Y-20968714D01*
X12326428Y-20954429D01*
X12312143Y-20940143D01*
X12297857Y-20911571D01*
X12283571Y-20854429D01*
X12283571Y-20783000D01*
X12297857Y-20725857D01*
X12312143Y-20697286D01*
X12326428Y-20683000D01*
X12355000Y-20668714D01*
X12583571Y-20940143D02*
X12597857Y-20954429D01*
X12583571Y-20968714D01*
X12569286Y-20954429D01*
X12583571Y-20940143D01*
X12583571Y-20968714D01*
X12783571Y-20668714D02*
X12812143Y-20668714D01*
X12840714Y-20683000D01*
X12855000Y-20697286D01*
X12869286Y-20725857D01*
X12883571Y-20783000D01*
X12883571Y-20854429D01*
X12869286Y-20911571D01*
X12855000Y-20940143D01*
X12840714Y-20954429D01*
X12812143Y-20968714D01*
X12783571Y-20968714D01*
X12755000Y-20954429D01*
X12740714Y-20940143D01*
X12726428Y-20911571D01*
X12712143Y-20854429D01*
X12712143Y-20783000D01*
X12726428Y-20725857D01*
X12740714Y-20697286D01*
X12755000Y-20683000D01*
X12783571Y-20668714D01*
X12983571Y-20668714D02*
X13169286Y-20668714D01*
X13069286Y-20783000D01*
X13112143Y-20783000D01*
X13140714Y-20797286D01*
X13155000Y-20811571D01*
X13169286Y-20840143D01*
X13169286Y-20911571D01*
X13155000Y-20940143D01*
X13140714Y-20954429D01*
X13112143Y-20968714D01*
X13026428Y-20968714D01*
X12997857Y-20954429D01*
X12983571Y-20940143D01*
X13455000Y-20968714D02*
X13283571Y-20968714D01*
X13369286Y-20968714D02*
X13369286Y-20668714D01*
X13340714Y-20711571D01*
X13312143Y-20740143D01*
X13283571Y-20754429D01*
X13569286Y-20668714D02*
X13569286Y-20725857D01*
X13683571Y-20668714D02*
X13683571Y-20725857D01*
X14126428Y-21083000D02*
X14112143Y-21068714D01*
X14083571Y-21025857D01*
X14069286Y-20997286D01*
X14055000Y-20954429D01*
X14040714Y-20883000D01*
X14040714Y-20825857D01*
X14055000Y-20754429D01*
X14069286Y-20711571D01*
X14083571Y-20683000D01*
X14112143Y-20640143D01*
X14126428Y-20625857D01*
X14397857Y-20968714D02*
X14226428Y-20968714D01*
X14312143Y-20968714D02*
X14312143Y-20668714D01*
X14283571Y-20711571D01*
X14255000Y-20740143D01*
X14226428Y-20754429D01*
X14540714Y-20968714D02*
X14597857Y-20968714D01*
X14626428Y-20954429D01*
X14640714Y-20940143D01*
X14669286Y-20897286D01*
X14683571Y-20840143D01*
X14683571Y-20725857D01*
X14669286Y-20697286D01*
X14655000Y-20683000D01*
X14626428Y-20668714D01*
X14569286Y-20668714D01*
X14540714Y-20683000D01*
X14526428Y-20697286D01*
X14512143Y-20725857D01*
X14512143Y-20797286D01*
X14526428Y-20825857D01*
X14540714Y-20840143D01*
X14569286Y-20854429D01*
X14626428Y-20854429D01*
X14655000Y-20840143D01*
X14669286Y-20825857D01*
X14683571Y-20797286D01*
X14826428Y-20968714D02*
X14883571Y-20968714D01*
X14912143Y-20954429D01*
X14926428Y-20940143D01*
X14955000Y-20897286D01*
X14969286Y-20840143D01*
X14969286Y-20725857D01*
X14955000Y-20697286D01*
X14940714Y-20683000D01*
X14912143Y-20668714D01*
X14855000Y-20668714D01*
X14826428Y-20683000D01*
X14812143Y-20697286D01*
X14797857Y-20725857D01*
X14797857Y-20797286D01*
X14812143Y-20825857D01*
X14826428Y-20840143D01*
X14855000Y-20854429D01*
X14912143Y-20854429D01*
X14940714Y-20840143D01*
X14955000Y-20825857D01*
X14969286Y-20797286D01*
X15326428Y-20968714D02*
X15326428Y-20668714D01*
X15455000Y-20968714D02*
X15455000Y-20811571D01*
X15440714Y-20783000D01*
X15412143Y-20768714D01*
X15369286Y-20768714D01*
X15340714Y-20783000D01*
X15326428Y-20797286D01*
X15640714Y-20968714D02*
X15612143Y-20954429D01*
X15597857Y-20940143D01*
X15583571Y-20911571D01*
X15583571Y-20825857D01*
X15597857Y-20797286D01*
X15612143Y-20783000D01*
X15640714Y-20768714D01*
X15683571Y-20768714D01*
X15712143Y-20783000D01*
X15726428Y-20797286D01*
X15740714Y-20825857D01*
X15740714Y-20911571D01*
X15726428Y-20940143D01*
X15712143Y-20954429D01*
X15683571Y-20968714D01*
X15640714Y-20968714D01*
X15912143Y-20968714D02*
X15883571Y-20954429D01*
X15869286Y-20925857D01*
X15869286Y-20668714D01*
X16140714Y-20954429D02*
X16112143Y-20968714D01*
X16055000Y-20968714D01*
X16026428Y-20954429D01*
X16012143Y-20925857D01*
X16012143Y-20811571D01*
X16026428Y-20783000D01*
X16055000Y-20768714D01*
X16112143Y-20768714D01*
X16140714Y-20783000D01*
X16155000Y-20811571D01*
X16155000Y-20840143D01*
X16012143Y-20868714D01*
X16269286Y-20954429D02*
X16297857Y-20968714D01*
X16355000Y-20968714D01*
X16383571Y-20954429D01*
X16397857Y-20925857D01*
X16397857Y-20911571D01*
X16383571Y-20883000D01*
X16355000Y-20868714D01*
X16312143Y-20868714D01*
X16283571Y-20854429D01*
X16269286Y-20825857D01*
X16269286Y-20811571D01*
X16283571Y-20783000D01*
X16312143Y-20768714D01*
X16355000Y-20768714D01*
X16383571Y-20783000D01*
X16497857Y-21083000D02*
X16512143Y-21068714D01*
X16540714Y-21025857D01*
X16555000Y-20997286D01*
X16569286Y-20954429D01*
X16583571Y-20883000D01*
X16583571Y-20825857D01*
X16569286Y-20754429D01*
X16555000Y-20711571D01*
X16540714Y-20683000D01*
X16512143Y-20640143D01*
X16497857Y-20625857D01*
X9395000Y-21274000D02*
X9440000Y-21229000D01*
X9395000Y-21184000D01*
X9350000Y-21229000D01*
X9395000Y-21274000D01*
X9783571Y-21064714D02*
X9812143Y-21064714D01*
X9840714Y-21079000D01*
X9855000Y-21093286D01*
X9869286Y-21121857D01*
X9883571Y-21179000D01*
X9883571Y-21250429D01*
X9869286Y-21307571D01*
X9855000Y-21336143D01*
X9840714Y-21350429D01*
X9812143Y-21364714D01*
X9783571Y-21364714D01*
X9755000Y-21350429D01*
X9740714Y-21336143D01*
X9726429Y-21307571D01*
X9712143Y-21250429D01*
X9712143Y-21179000D01*
X9726429Y-21121857D01*
X9740714Y-21093286D01*
X9755000Y-21079000D01*
X9783571Y-21064714D01*
X10012143Y-21336143D02*
X10026429Y-21350429D01*
X10012143Y-21364714D01*
X9997857Y-21350429D01*
X10012143Y-21336143D01*
X10012143Y-21364714D01*
X10169286Y-21364714D02*
X10226429Y-21364714D01*
X10255000Y-21350429D01*
X10269286Y-21336143D01*
X10297857Y-21293286D01*
X10312143Y-21236143D01*
X10312143Y-21121857D01*
X10297857Y-21093286D01*
X10283571Y-21079000D01*
X10255000Y-21064714D01*
X10197857Y-21064714D01*
X10169286Y-21079000D01*
X10155000Y-21093286D01*
X10140714Y-21121857D01*
X10140714Y-21193286D01*
X10155000Y-21221857D01*
X10169286Y-21236143D01*
X10197857Y-21250429D01*
X10255000Y-21250429D01*
X10283571Y-21236143D01*
X10297857Y-21221857D01*
X10312143Y-21193286D01*
X10497857Y-21064714D02*
X10526429Y-21064714D01*
X10555000Y-21079000D01*
X10569286Y-21093286D01*
X10583571Y-21121857D01*
X10597857Y-21179000D01*
X10597857Y-21250429D01*
X10583571Y-21307571D01*
X10569286Y-21336143D01*
X10555000Y-21350429D01*
X10526429Y-21364714D01*
X10497857Y-21364714D01*
X10469286Y-21350429D01*
X10455000Y-21336143D01*
X10440714Y-21307571D01*
X10426429Y-21250429D01*
X10426429Y-21179000D01*
X10440714Y-21121857D01*
X10455000Y-21093286D01*
X10469286Y-21079000D01*
X10497857Y-21064714D01*
X10726429Y-21364714D02*
X10726429Y-21164714D01*
X10726429Y-21193286D02*
X10740714Y-21179000D01*
X10769286Y-21164714D01*
X10812143Y-21164714D01*
X10840714Y-21179000D01*
X10855000Y-21207571D01*
X10855000Y-21364714D01*
X10855000Y-21207571D02*
X10869286Y-21179000D01*
X10897857Y-21164714D01*
X10940714Y-21164714D01*
X10969286Y-21179000D01*
X10983571Y-21207571D01*
X10983571Y-21364714D01*
X11126429Y-21364714D02*
X11126429Y-21164714D01*
X11126429Y-21193286D02*
X11140714Y-21179000D01*
X11169286Y-21164714D01*
X11212143Y-21164714D01*
X11240714Y-21179000D01*
X11255000Y-21207571D01*
X11255000Y-21364714D01*
X11255000Y-21207571D02*
X11269286Y-21179000D01*
X11297857Y-21164714D01*
X11340714Y-21164714D01*
X11369286Y-21179000D01*
X11383571Y-21207571D01*
X11383571Y-21364714D01*
X11969286Y-21050429D02*
X11712143Y-21436143D01*
X12355000Y-21064714D02*
X12383571Y-21064714D01*
X12412143Y-21079000D01*
X12426428Y-21093286D01*
X12440714Y-21121857D01*
X12455000Y-21179000D01*
X12455000Y-21250429D01*
X12440714Y-21307571D01*
X12426428Y-21336143D01*
X12412143Y-21350429D01*
X12383571Y-21364714D01*
X12355000Y-21364714D01*
X12326428Y-21350429D01*
X12312143Y-21336143D01*
X12297857Y-21307571D01*
X12283571Y-21250429D01*
X12283571Y-21179000D01*
X12297857Y-21121857D01*
X12312143Y-21093286D01*
X12326428Y-21079000D01*
X12355000Y-21064714D01*
X12583571Y-21336143D02*
X12597857Y-21350429D01*
X12583571Y-21364714D01*
X12569286Y-21350429D01*
X12583571Y-21336143D01*
X12583571Y-21364714D01*
X12783571Y-21064714D02*
X12812143Y-21064714D01*
X12840714Y-21079000D01*
X12855000Y-21093286D01*
X12869286Y-21121857D01*
X12883571Y-21179000D01*
X12883571Y-21250429D01*
X12869286Y-21307571D01*
X12855000Y-21336143D01*
X12840714Y-21350429D01*
X12812143Y-21364714D01*
X12783571Y-21364714D01*
X12755000Y-21350429D01*
X12740714Y-21336143D01*
X12726428Y-21307571D01*
X12712143Y-21250429D01*
X12712143Y-21179000D01*
X12726428Y-21121857D01*
X12740714Y-21093286D01*
X12755000Y-21079000D01*
X12783571Y-21064714D01*
X12983571Y-21064714D02*
X13169286Y-21064714D01*
X13069286Y-21179000D01*
X13112143Y-21179000D01*
X13140714Y-21193286D01*
X13155000Y-21207571D01*
X13169286Y-21236143D01*
X13169286Y-21307571D01*
X13155000Y-21336143D01*
X13140714Y-21350429D01*
X13112143Y-21364714D01*
X13026428Y-21364714D01*
X12997857Y-21350429D01*
X12983571Y-21336143D01*
X13440714Y-21064714D02*
X13297857Y-21064714D01*
X13283571Y-21207571D01*
X13297857Y-21193286D01*
X13326428Y-21179000D01*
X13397857Y-21179000D01*
X13426428Y-21193286D01*
X13440714Y-21207571D01*
X13455000Y-21236143D01*
X13455000Y-21307571D01*
X13440714Y-21336143D01*
X13426428Y-21350429D01*
X13397857Y-21364714D01*
X13326428Y-21364714D01*
X13297857Y-21350429D01*
X13283571Y-21336143D01*
X13569286Y-21064714D02*
X13569286Y-21121857D01*
X13683571Y-21064714D02*
X13683571Y-21121857D01*
X14126428Y-21479000D02*
X14112143Y-21464714D01*
X14083571Y-21421857D01*
X14069286Y-21393286D01*
X14055000Y-21350429D01*
X14040714Y-21279000D01*
X14040714Y-21221857D01*
X14055000Y-21150429D01*
X14069286Y-21107571D01*
X14083571Y-21079000D01*
X14112143Y-21036143D01*
X14126428Y-21021857D01*
X14212143Y-21064714D02*
X14412143Y-21064714D01*
X14283571Y-21364714D01*
X14755000Y-21364714D02*
X14755000Y-21064714D01*
X14883571Y-21364714D02*
X14883571Y-21207571D01*
X14869286Y-21179000D01*
X14840714Y-21164714D01*
X14797857Y-21164714D01*
X14769286Y-21179000D01*
X14755000Y-21193286D01*
X15069286Y-21364714D02*
X15040714Y-21350429D01*
X15026428Y-21336143D01*
X15012143Y-21307571D01*
X15012143Y-21221857D01*
X15026428Y-21193286D01*
X15040714Y-21179000D01*
X15069286Y-21164714D01*
X15112143Y-21164714D01*
X15140714Y-21179000D01*
X15155000Y-21193286D01*
X15169286Y-21221857D01*
X15169286Y-21307571D01*
X15155000Y-21336143D01*
X15140714Y-21350429D01*
X15112143Y-21364714D01*
X15069286Y-21364714D01*
X15340714Y-21364714D02*
X15312143Y-21350429D01*
X15297857Y-21321857D01*
X15297857Y-21064714D01*
X15569286Y-21350429D02*
X15540714Y-21364714D01*
X15483571Y-21364714D01*
X15455000Y-21350429D01*
X15440714Y-21321857D01*
X15440714Y-21207571D01*
X15455000Y-21179000D01*
X15483571Y-21164714D01*
X15540714Y-21164714D01*
X15569286Y-21179000D01*
X15583571Y-21207571D01*
X15583571Y-21236143D01*
X15440714Y-21264714D01*
X15697857Y-21350429D02*
X15726428Y-21364714D01*
X15783571Y-21364714D01*
X15812143Y-21350429D01*
X15826428Y-21321857D01*
X15826428Y-21307571D01*
X15812143Y-21279000D01*
X15783571Y-21264714D01*
X15740714Y-21264714D01*
X15712143Y-21250429D01*
X15697857Y-21221857D01*
X15697857Y-21207571D01*
X15712143Y-21179000D01*
X15740714Y-21164714D01*
X15783571Y-21164714D01*
X15812143Y-21179000D01*
X15926428Y-21479000D02*
X15940714Y-21464714D01*
X15969286Y-21421857D01*
X15983571Y-21393286D01*
X15997857Y-21350429D01*
X16012143Y-21279000D01*
X16012143Y-21221857D01*
X15997857Y-21150429D01*
X15983571Y-21107571D01*
X15969286Y-21079000D01*
X15940714Y-21036143D01*
X15926428Y-21021857D01*
X9345000Y-21577500D02*
X9440000Y-21672500D01*
X9440000Y-21577500D02*
X9345000Y-21672500D01*
X9440000Y-21625000D02*
G75*
G03*
X9440000Y-21625000I-47500J0D01*
G01*
X9783571Y-21460714D02*
X9812143Y-21460714D01*
X9840714Y-21475000D01*
X9855000Y-21489286D01*
X9869286Y-21517857D01*
X9883571Y-21575000D01*
X9883571Y-21646429D01*
X9869286Y-21703571D01*
X9855000Y-21732143D01*
X9840714Y-21746429D01*
X9812143Y-21760714D01*
X9783571Y-21760714D01*
X9755000Y-21746429D01*
X9740714Y-21732143D01*
X9726429Y-21703571D01*
X9712143Y-21646429D01*
X9712143Y-21575000D01*
X9726429Y-21517857D01*
X9740714Y-21489286D01*
X9755000Y-21475000D01*
X9783571Y-21460714D01*
X10012143Y-21732143D02*
X10026429Y-21746429D01*
X10012143Y-21760714D01*
X9997857Y-21746429D01*
X10012143Y-21732143D01*
X10012143Y-21760714D01*
X10169286Y-21760714D02*
X10226429Y-21760714D01*
X10255000Y-21746429D01*
X10269286Y-21732143D01*
X10297857Y-21689286D01*
X10312143Y-21632143D01*
X10312143Y-21517857D01*
X10297857Y-21489286D01*
X10283571Y-21475000D01*
X10255000Y-21460714D01*
X10197857Y-21460714D01*
X10169286Y-21475000D01*
X10155000Y-21489286D01*
X10140714Y-21517857D01*
X10140714Y-21589286D01*
X10155000Y-21617857D01*
X10169286Y-21632143D01*
X10197857Y-21646429D01*
X10255000Y-21646429D01*
X10283571Y-21632143D01*
X10297857Y-21617857D01*
X10312143Y-21589286D01*
X10583571Y-21460714D02*
X10440714Y-21460714D01*
X10426429Y-21603571D01*
X10440714Y-21589286D01*
X10469286Y-21575000D01*
X10540714Y-21575000D01*
X10569286Y-21589286D01*
X10583571Y-21603571D01*
X10597857Y-21632143D01*
X10597857Y-21703571D01*
X10583571Y-21732143D01*
X10569286Y-21746429D01*
X10540714Y-21760714D01*
X10469286Y-21760714D01*
X10440714Y-21746429D01*
X10426429Y-21732143D01*
X10726429Y-21760714D02*
X10726429Y-21560714D01*
X10726429Y-21589286D02*
X10740714Y-21575000D01*
X10769286Y-21560714D01*
X10812143Y-21560714D01*
X10840714Y-21575000D01*
X10855000Y-21603571D01*
X10855000Y-21760714D01*
X10855000Y-21603571D02*
X10869286Y-21575000D01*
X10897857Y-21560714D01*
X10940714Y-21560714D01*
X10969286Y-21575000D01*
X10983571Y-21603571D01*
X10983571Y-21760714D01*
X11126429Y-21760714D02*
X11126429Y-21560714D01*
X11126429Y-21589286D02*
X11140714Y-21575000D01*
X11169286Y-21560714D01*
X11212143Y-21560714D01*
X11240714Y-21575000D01*
X11255000Y-21603571D01*
X11255000Y-21760714D01*
X11255000Y-21603571D02*
X11269286Y-21575000D01*
X11297857Y-21560714D01*
X11340714Y-21560714D01*
X11369286Y-21575000D01*
X11383571Y-21603571D01*
X11383571Y-21760714D01*
X11969286Y-21446429D02*
X11712143Y-21832143D01*
X12355000Y-21460714D02*
X12383571Y-21460714D01*
X12412143Y-21475000D01*
X12426428Y-21489286D01*
X12440714Y-21517857D01*
X12455000Y-21575000D01*
X12455000Y-21646429D01*
X12440714Y-21703571D01*
X12426428Y-21732143D01*
X12412143Y-21746429D01*
X12383571Y-21760714D01*
X12355000Y-21760714D01*
X12326428Y-21746429D01*
X12312143Y-21732143D01*
X12297857Y-21703571D01*
X12283571Y-21646429D01*
X12283571Y-21575000D01*
X12297857Y-21517857D01*
X12312143Y-21489286D01*
X12326428Y-21475000D01*
X12355000Y-21460714D01*
X12583571Y-21732143D02*
X12597857Y-21746429D01*
X12583571Y-21760714D01*
X12569286Y-21746429D01*
X12583571Y-21732143D01*
X12583571Y-21760714D01*
X12783571Y-21460714D02*
X12812143Y-21460714D01*
X12840714Y-21475000D01*
X12855000Y-21489286D01*
X12869286Y-21517857D01*
X12883571Y-21575000D01*
X12883571Y-21646429D01*
X12869286Y-21703571D01*
X12855000Y-21732143D01*
X12840714Y-21746429D01*
X12812143Y-21760714D01*
X12783571Y-21760714D01*
X12755000Y-21746429D01*
X12740714Y-21732143D01*
X12726428Y-21703571D01*
X12712143Y-21646429D01*
X12712143Y-21575000D01*
X12726428Y-21517857D01*
X12740714Y-21489286D01*
X12755000Y-21475000D01*
X12783571Y-21460714D01*
X12983571Y-21460714D02*
X13169286Y-21460714D01*
X13069286Y-21575000D01*
X13112143Y-21575000D01*
X13140714Y-21589286D01*
X13155000Y-21603571D01*
X13169286Y-21632143D01*
X13169286Y-21703571D01*
X13155000Y-21732143D01*
X13140714Y-21746429D01*
X13112143Y-21760714D01*
X13026428Y-21760714D01*
X12997857Y-21746429D01*
X12983571Y-21732143D01*
X13269286Y-21460714D02*
X13469286Y-21460714D01*
X13340714Y-21760714D01*
X13569286Y-21460714D02*
X13569286Y-21517857D01*
X13683571Y-21460714D02*
X13683571Y-21517857D01*
X14126428Y-21875000D02*
X14112143Y-21860714D01*
X14083571Y-21817857D01*
X14069286Y-21789286D01*
X14055000Y-21746429D01*
X14040714Y-21675000D01*
X14040714Y-21617857D01*
X14055000Y-21546429D01*
X14069286Y-21503571D01*
X14083571Y-21475000D01*
X14112143Y-21432143D01*
X14126428Y-21417857D01*
X14383571Y-21460714D02*
X14240714Y-21460714D01*
X14226428Y-21603571D01*
X14240714Y-21589286D01*
X14269286Y-21575000D01*
X14340714Y-21575000D01*
X14369286Y-21589286D01*
X14383571Y-21603571D01*
X14397857Y-21632143D01*
X14397857Y-21703571D01*
X14383571Y-21732143D01*
X14369286Y-21746429D01*
X14340714Y-21760714D01*
X14269286Y-21760714D01*
X14240714Y-21746429D01*
X14226428Y-21732143D01*
X14497857Y-21460714D02*
X14683571Y-21460714D01*
X14583571Y-21575000D01*
X14626428Y-21575000D01*
X14655000Y-21589286D01*
X14669286Y-21603571D01*
X14683571Y-21632143D01*
X14683571Y-21703571D01*
X14669286Y-21732143D01*
X14655000Y-21746429D01*
X14626428Y-21760714D01*
X14540714Y-21760714D01*
X14512143Y-21746429D01*
X14497857Y-21732143D01*
X15040714Y-21760714D02*
X15040714Y-21460714D01*
X15169286Y-21760714D02*
X15169286Y-21603571D01*
X15155000Y-21575000D01*
X15126428Y-21560714D01*
X15083571Y-21560714D01*
X15055000Y-21575000D01*
X15040714Y-21589286D01*
X15355000Y-21760714D02*
X15326428Y-21746429D01*
X15312143Y-21732143D01*
X15297857Y-21703571D01*
X15297857Y-21617857D01*
X15312143Y-21589286D01*
X15326428Y-21575000D01*
X15355000Y-21560714D01*
X15397857Y-21560714D01*
X15426428Y-21575000D01*
X15440714Y-21589286D01*
X15455000Y-21617857D01*
X15455000Y-21703571D01*
X15440714Y-21732143D01*
X15426428Y-21746429D01*
X15397857Y-21760714D01*
X15355000Y-21760714D01*
X15626428Y-21760714D02*
X15597857Y-21746429D01*
X15583571Y-21717857D01*
X15583571Y-21460714D01*
X15855000Y-21746429D02*
X15826428Y-21760714D01*
X15769286Y-21760714D01*
X15740714Y-21746429D01*
X15726428Y-21717857D01*
X15726428Y-21603571D01*
X15740714Y-21575000D01*
X15769286Y-21560714D01*
X15826428Y-21560714D01*
X15855000Y-21575000D01*
X15869286Y-21603571D01*
X15869286Y-21632143D01*
X15726428Y-21660714D01*
X15983571Y-21746429D02*
X16012143Y-21760714D01*
X16069286Y-21760714D01*
X16097857Y-21746429D01*
X16112143Y-21717857D01*
X16112143Y-21703571D01*
X16097857Y-21675000D01*
X16069286Y-21660714D01*
X16026428Y-21660714D01*
X15997857Y-21646429D01*
X15983571Y-21617857D01*
X15983571Y-21603571D01*
X15997857Y-21575000D01*
X16026428Y-21560714D01*
X16069286Y-21560714D01*
X16097857Y-21575000D01*
X16212143Y-21875000D02*
X16226428Y-21860714D01*
X16255000Y-21817857D01*
X16269286Y-21789286D01*
X16283571Y-21746429D01*
X16297857Y-21675000D01*
X16297857Y-21617857D01*
X16283571Y-21546429D01*
X16269286Y-21503571D01*
X16255000Y-21475000D01*
X16226428Y-21432143D01*
X16212143Y-21417857D01*
X9340000Y-21971000D02*
X9440000Y-22071000D01*
X9440000Y-21971000D02*
X9340000Y-22071000D01*
X9390000Y-21971000D02*
X9390000Y-22071000D01*
X9340000Y-22021000D02*
X9440000Y-22021000D01*
X9883571Y-22156714D02*
X9712143Y-22156714D01*
X9797857Y-22156714D02*
X9797857Y-21856714D01*
X9769286Y-21899571D01*
X9740714Y-21928143D01*
X9712143Y-21942429D01*
X10012143Y-22128143D02*
X10026429Y-22142429D01*
X10012143Y-22156714D01*
X9997857Y-22142429D01*
X10012143Y-22128143D01*
X10012143Y-22156714D01*
X10212143Y-21856714D02*
X10240714Y-21856714D01*
X10269286Y-21871000D01*
X10283571Y-21885286D01*
X10297857Y-21913857D01*
X10312143Y-21971000D01*
X10312143Y-22042429D01*
X10297857Y-22099571D01*
X10283571Y-22128143D01*
X10269286Y-22142429D01*
X10240714Y-22156714D01*
X10212143Y-22156714D01*
X10183571Y-22142429D01*
X10169286Y-22128143D01*
X10155000Y-22099571D01*
X10140714Y-22042429D01*
X10140714Y-21971000D01*
X10155000Y-21913857D01*
X10169286Y-21885286D01*
X10183571Y-21871000D01*
X10212143Y-21856714D01*
X10497857Y-21856714D02*
X10526429Y-21856714D01*
X10555000Y-21871000D01*
X10569286Y-21885286D01*
X10583571Y-21913857D01*
X10597857Y-21971000D01*
X10597857Y-22042429D01*
X10583571Y-22099571D01*
X10569286Y-22128143D01*
X10555000Y-22142429D01*
X10526429Y-22156714D01*
X10497857Y-22156714D01*
X10469286Y-22142429D01*
X10455000Y-22128143D01*
X10440714Y-22099571D01*
X10426429Y-22042429D01*
X10426429Y-21971000D01*
X10440714Y-21913857D01*
X10455000Y-21885286D01*
X10469286Y-21871000D01*
X10497857Y-21856714D01*
X10726429Y-22156714D02*
X10726429Y-21956714D01*
X10726429Y-21985286D02*
X10740714Y-21971000D01*
X10769286Y-21956714D01*
X10812143Y-21956714D01*
X10840714Y-21971000D01*
X10855000Y-21999571D01*
X10855000Y-22156714D01*
X10855000Y-21999571D02*
X10869286Y-21971000D01*
X10897857Y-21956714D01*
X10940714Y-21956714D01*
X10969286Y-21971000D01*
X10983571Y-21999571D01*
X10983571Y-22156714D01*
X11126429Y-22156714D02*
X11126429Y-21956714D01*
X11126429Y-21985286D02*
X11140714Y-21971000D01*
X11169286Y-21956714D01*
X11212143Y-21956714D01*
X11240714Y-21971000D01*
X11255000Y-21999571D01*
X11255000Y-22156714D01*
X11255000Y-21999571D02*
X11269286Y-21971000D01*
X11297857Y-21956714D01*
X11340714Y-21956714D01*
X11369286Y-21971000D01*
X11383571Y-21999571D01*
X11383571Y-22156714D01*
X11969286Y-21842429D02*
X11712143Y-22228143D01*
X12355000Y-21856714D02*
X12383571Y-21856714D01*
X12412143Y-21871000D01*
X12426428Y-21885286D01*
X12440714Y-21913857D01*
X12455000Y-21971000D01*
X12455000Y-22042429D01*
X12440714Y-22099571D01*
X12426428Y-22128143D01*
X12412143Y-22142429D01*
X12383571Y-22156714D01*
X12355000Y-22156714D01*
X12326428Y-22142429D01*
X12312143Y-22128143D01*
X12297857Y-22099571D01*
X12283571Y-22042429D01*
X12283571Y-21971000D01*
X12297857Y-21913857D01*
X12312143Y-21885286D01*
X12326428Y-21871000D01*
X12355000Y-21856714D01*
X12583571Y-22128143D02*
X12597857Y-22142429D01*
X12583571Y-22156714D01*
X12569286Y-22142429D01*
X12583571Y-22128143D01*
X12583571Y-22156714D01*
X12783571Y-21856714D02*
X12812143Y-21856714D01*
X12840714Y-21871000D01*
X12855000Y-21885286D01*
X12869286Y-21913857D01*
X12883571Y-21971000D01*
X12883571Y-22042429D01*
X12869286Y-22099571D01*
X12855000Y-22128143D01*
X12840714Y-22142429D01*
X12812143Y-22156714D01*
X12783571Y-22156714D01*
X12755000Y-22142429D01*
X12740714Y-22128143D01*
X12726428Y-22099571D01*
X12712143Y-22042429D01*
X12712143Y-21971000D01*
X12726428Y-21913857D01*
X12740714Y-21885286D01*
X12755000Y-21871000D01*
X12783571Y-21856714D01*
X12983571Y-21856714D02*
X13169286Y-21856714D01*
X13069286Y-21971000D01*
X13112143Y-21971000D01*
X13140714Y-21985286D01*
X13155000Y-21999571D01*
X13169286Y-22028143D01*
X13169286Y-22099571D01*
X13155000Y-22128143D01*
X13140714Y-22142429D01*
X13112143Y-22156714D01*
X13026428Y-22156714D01*
X12997857Y-22142429D01*
X12983571Y-22128143D01*
X13312143Y-22156714D02*
X13369286Y-22156714D01*
X13397857Y-22142429D01*
X13412143Y-22128143D01*
X13440714Y-22085286D01*
X13455000Y-22028143D01*
X13455000Y-21913857D01*
X13440714Y-21885286D01*
X13426428Y-21871000D01*
X13397857Y-21856714D01*
X13340714Y-21856714D01*
X13312143Y-21871000D01*
X13297857Y-21885286D01*
X13283571Y-21913857D01*
X13283571Y-21985286D01*
X13297857Y-22013857D01*
X13312143Y-22028143D01*
X13340714Y-22042429D01*
X13397857Y-22042429D01*
X13426428Y-22028143D01*
X13440714Y-22013857D01*
X13455000Y-21985286D01*
X13569286Y-21856714D02*
X13569286Y-21913857D01*
X13683571Y-21856714D02*
X13683571Y-21913857D01*
X14126428Y-22271000D02*
X14112143Y-22256714D01*
X14083571Y-22213857D01*
X14069286Y-22185286D01*
X14055000Y-22142429D01*
X14040714Y-22071000D01*
X14040714Y-22013857D01*
X14055000Y-21942429D01*
X14069286Y-21899571D01*
X14083571Y-21871000D01*
X14112143Y-21828143D01*
X14126428Y-21813857D01*
X14226428Y-21885286D02*
X14240714Y-21871000D01*
X14269286Y-21856714D01*
X14340714Y-21856714D01*
X14369286Y-21871000D01*
X14383571Y-21885286D01*
X14397857Y-21913857D01*
X14397857Y-21942429D01*
X14383571Y-21985286D01*
X14212143Y-22156714D01*
X14397857Y-22156714D01*
X14755000Y-22156714D02*
X14755000Y-21856714D01*
X14883571Y-22156714D02*
X14883571Y-21999571D01*
X14869286Y-21971000D01*
X14840714Y-21956714D01*
X14797857Y-21956714D01*
X14769286Y-21971000D01*
X14755000Y-21985286D01*
X15069286Y-22156714D02*
X15040714Y-22142429D01*
X15026428Y-22128143D01*
X15012143Y-22099571D01*
X15012143Y-22013857D01*
X15026428Y-21985286D01*
X15040714Y-21971000D01*
X15069286Y-21956714D01*
X15112143Y-21956714D01*
X15140714Y-21971000D01*
X15155000Y-21985286D01*
X15169286Y-22013857D01*
X15169286Y-22099571D01*
X15155000Y-22128143D01*
X15140714Y-22142429D01*
X15112143Y-22156714D01*
X15069286Y-22156714D01*
X15340714Y-22156714D02*
X15312143Y-22142429D01*
X15297857Y-22113857D01*
X15297857Y-21856714D01*
X15569286Y-22142429D02*
X15540714Y-22156714D01*
X15483571Y-22156714D01*
X15455000Y-22142429D01*
X15440714Y-22113857D01*
X15440714Y-21999571D01*
X15455000Y-21971000D01*
X15483571Y-21956714D01*
X15540714Y-21956714D01*
X15569286Y-21971000D01*
X15583571Y-21999571D01*
X15583571Y-22028143D01*
X15440714Y-22056714D01*
X15697857Y-22142429D02*
X15726428Y-22156714D01*
X15783571Y-22156714D01*
X15812143Y-22142429D01*
X15826428Y-22113857D01*
X15826428Y-22099571D01*
X15812143Y-22071000D01*
X15783571Y-22056714D01*
X15740714Y-22056714D01*
X15712143Y-22042429D01*
X15697857Y-22013857D01*
X15697857Y-21999571D01*
X15712143Y-21971000D01*
X15740714Y-21956714D01*
X15783571Y-21956714D01*
X15812143Y-21971000D01*
X16183571Y-22042429D02*
X16412143Y-22042429D01*
X16297857Y-22156714D02*
X16297857Y-21928143D01*
X16755000Y-21856714D02*
X16940714Y-21856714D01*
X16840714Y-21971000D01*
X16883571Y-21971000D01*
X16912143Y-21985286D01*
X16926429Y-21999571D01*
X16940714Y-22028143D01*
X16940714Y-22099571D01*
X16926429Y-22128143D01*
X16912143Y-22142429D01*
X16883571Y-22156714D01*
X16797857Y-22156714D01*
X16769286Y-22142429D01*
X16755000Y-22128143D01*
X17283571Y-22142429D02*
X17312143Y-22156714D01*
X17369286Y-22156714D01*
X17397857Y-22142429D01*
X17412143Y-22113857D01*
X17412143Y-22099571D01*
X17397857Y-22071000D01*
X17369286Y-22056714D01*
X17326429Y-22056714D01*
X17297857Y-22042429D01*
X17283571Y-22013857D01*
X17283571Y-21999571D01*
X17297857Y-21971000D01*
X17326429Y-21956714D01*
X17369286Y-21956714D01*
X17397857Y-21971000D01*
X17583571Y-22156714D02*
X17555000Y-22142429D01*
X17540714Y-22113857D01*
X17540714Y-21856714D01*
X17740714Y-22156714D02*
X17712143Y-22142429D01*
X17697857Y-22128143D01*
X17683571Y-22099571D01*
X17683571Y-22013857D01*
X17697857Y-21985286D01*
X17712143Y-21971000D01*
X17740714Y-21956714D01*
X17783571Y-21956714D01*
X17812143Y-21971000D01*
X17826429Y-21985286D01*
X17840714Y-22013857D01*
X17840714Y-22099571D01*
X17826429Y-22128143D01*
X17812143Y-22142429D01*
X17783571Y-22156714D01*
X17740714Y-22156714D01*
X17926429Y-21956714D02*
X18040714Y-21956714D01*
X17969286Y-21856714D02*
X17969286Y-22113857D01*
X17983571Y-22142429D01*
X18012143Y-22156714D01*
X18040714Y-22156714D01*
X18126429Y-22142429D02*
X18155000Y-22156714D01*
X18212143Y-22156714D01*
X18240714Y-22142429D01*
X18255000Y-22113857D01*
X18255000Y-22099571D01*
X18240714Y-22071000D01*
X18212143Y-22056714D01*
X18169286Y-22056714D01*
X18140714Y-22042429D01*
X18126429Y-22013857D01*
X18126429Y-21999571D01*
X18140714Y-21971000D01*
X18169286Y-21956714D01*
X18212143Y-21956714D01*
X18240714Y-21971000D01*
X18355000Y-22271000D02*
X18369286Y-22256714D01*
X18397857Y-22213857D01*
X18412143Y-22185286D01*
X18426429Y-22142429D01*
X18440714Y-22071000D01*
X18440714Y-22013857D01*
X18426429Y-21942429D01*
X18412143Y-21899571D01*
X18397857Y-21871000D01*
X18369286Y-21828143D01*
X18355000Y-21813857D01*
X9330000Y-22362000D02*
X9440000Y-22472000D01*
X9440000Y-22362000D02*
X9330000Y-22472000D01*
X9423891Y-22455891D02*
X9423891Y-22378109D01*
X9346109Y-22378109D01*
X9346109Y-22455891D01*
X9423891Y-22455891D01*
X9883571Y-22552714D02*
X9712143Y-22552714D01*
X9797857Y-22552714D02*
X9797857Y-22252714D01*
X9769286Y-22295571D01*
X9740714Y-22324143D01*
X9712143Y-22338429D01*
X10012143Y-22524143D02*
X10026429Y-22538428D01*
X10012143Y-22552714D01*
X9997857Y-22538428D01*
X10012143Y-22524143D01*
X10012143Y-22552714D01*
X10312143Y-22552714D02*
X10140714Y-22552714D01*
X10226429Y-22552714D02*
X10226429Y-22252714D01*
X10197857Y-22295571D01*
X10169286Y-22324143D01*
X10140714Y-22338429D01*
X10497857Y-22252714D02*
X10526429Y-22252714D01*
X10555000Y-22267000D01*
X10569286Y-22281286D01*
X10583571Y-22309857D01*
X10597857Y-22367000D01*
X10597857Y-22438428D01*
X10583571Y-22495571D01*
X10569286Y-22524143D01*
X10555000Y-22538428D01*
X10526429Y-22552714D01*
X10497857Y-22552714D01*
X10469286Y-22538428D01*
X10455000Y-22524143D01*
X10440714Y-22495571D01*
X10426429Y-22438428D01*
X10426429Y-22367000D01*
X10440714Y-22309857D01*
X10455000Y-22281286D01*
X10469286Y-22267000D01*
X10497857Y-22252714D01*
X10726429Y-22552714D02*
X10726429Y-22352714D01*
X10726429Y-22381286D02*
X10740714Y-22367000D01*
X10769286Y-22352714D01*
X10812143Y-22352714D01*
X10840714Y-22367000D01*
X10855000Y-22395571D01*
X10855000Y-22552714D01*
X10855000Y-22395571D02*
X10869286Y-22367000D01*
X10897857Y-22352714D01*
X10940714Y-22352714D01*
X10969286Y-22367000D01*
X10983571Y-22395571D01*
X10983571Y-22552714D01*
X11126429Y-22552714D02*
X11126429Y-22352714D01*
X11126429Y-22381286D02*
X11140714Y-22367000D01*
X11169286Y-22352714D01*
X11212143Y-22352714D01*
X11240714Y-22367000D01*
X11255000Y-22395571D01*
X11255000Y-22552714D01*
X11255000Y-22395571D02*
X11269286Y-22367000D01*
X11297857Y-22352714D01*
X11340714Y-22352714D01*
X11369286Y-22367000D01*
X11383571Y-22395571D01*
X11383571Y-22552714D01*
X11969286Y-22238429D02*
X11712143Y-22624143D01*
X12355000Y-22252714D02*
X12383571Y-22252714D01*
X12412143Y-22267000D01*
X12426428Y-22281286D01*
X12440714Y-22309857D01*
X12455000Y-22367000D01*
X12455000Y-22438428D01*
X12440714Y-22495571D01*
X12426428Y-22524143D01*
X12412143Y-22538428D01*
X12383571Y-22552714D01*
X12355000Y-22552714D01*
X12326428Y-22538428D01*
X12312143Y-22524143D01*
X12297857Y-22495571D01*
X12283571Y-22438428D01*
X12283571Y-22367000D01*
X12297857Y-22309857D01*
X12312143Y-22281286D01*
X12326428Y-22267000D01*
X12355000Y-22252714D01*
X12583571Y-22524143D02*
X12597857Y-22538428D01*
X12583571Y-22552714D01*
X12569286Y-22538428D01*
X12583571Y-22524143D01*
X12583571Y-22552714D01*
X12783571Y-22252714D02*
X12812143Y-22252714D01*
X12840714Y-22267000D01*
X12855000Y-22281286D01*
X12869286Y-22309857D01*
X12883571Y-22367000D01*
X12883571Y-22438428D01*
X12869286Y-22495571D01*
X12855000Y-22524143D01*
X12840714Y-22538428D01*
X12812143Y-22552714D01*
X12783571Y-22552714D01*
X12755000Y-22538428D01*
X12740714Y-22524143D01*
X12726428Y-22495571D01*
X12712143Y-22438428D01*
X12712143Y-22367000D01*
X12726428Y-22309857D01*
X12740714Y-22281286D01*
X12755000Y-22267000D01*
X12783571Y-22252714D01*
X13140714Y-22352714D02*
X13140714Y-22552714D01*
X13069286Y-22238429D02*
X12997857Y-22452714D01*
X13183571Y-22452714D01*
X13269286Y-22252714D02*
X13455000Y-22252714D01*
X13355000Y-22367000D01*
X13397857Y-22367000D01*
X13426428Y-22381286D01*
X13440714Y-22395571D01*
X13455000Y-22424143D01*
X13455000Y-22495571D01*
X13440714Y-22524143D01*
X13426428Y-22538428D01*
X13397857Y-22552714D01*
X13312143Y-22552714D01*
X13283571Y-22538428D01*
X13269286Y-22524143D01*
X13569286Y-22252714D02*
X13569286Y-22309857D01*
X13683571Y-22252714D02*
X13683571Y-22309857D01*
X14126428Y-22667000D02*
X14112143Y-22652714D01*
X14083571Y-22609857D01*
X14069286Y-22581286D01*
X14055000Y-22538428D01*
X14040714Y-22467000D01*
X14040714Y-22409857D01*
X14055000Y-22338429D01*
X14069286Y-22295571D01*
X14083571Y-22267000D01*
X14112143Y-22224143D01*
X14126428Y-22209857D01*
X14369286Y-22252714D02*
X14312143Y-22252714D01*
X14283571Y-22267000D01*
X14269286Y-22281286D01*
X14240714Y-22324143D01*
X14226428Y-22381286D01*
X14226428Y-22495571D01*
X14240714Y-22524143D01*
X14255000Y-22538428D01*
X14283571Y-22552714D01*
X14340714Y-22552714D01*
X14369286Y-22538428D01*
X14383571Y-22524143D01*
X14397857Y-22495571D01*
X14397857Y-22424143D01*
X14383571Y-22395571D01*
X14369286Y-22381286D01*
X14340714Y-22367000D01*
X14283571Y-22367000D01*
X14255000Y-22381286D01*
X14240714Y-22395571D01*
X14226428Y-22424143D01*
X14755000Y-22552714D02*
X14755000Y-22252714D01*
X14883571Y-22552714D02*
X14883571Y-22395571D01*
X14869286Y-22367000D01*
X14840714Y-22352714D01*
X14797857Y-22352714D01*
X14769286Y-22367000D01*
X14755000Y-22381286D01*
X15069286Y-22552714D02*
X15040714Y-22538428D01*
X15026428Y-22524143D01*
X15012143Y-22495571D01*
X15012143Y-22409857D01*
X15026428Y-22381286D01*
X15040714Y-22367000D01*
X15069286Y-22352714D01*
X15112143Y-22352714D01*
X15140714Y-22367000D01*
X15155000Y-22381286D01*
X15169286Y-22409857D01*
X15169286Y-22495571D01*
X15155000Y-22524143D01*
X15140714Y-22538428D01*
X15112143Y-22552714D01*
X15069286Y-22552714D01*
X15340714Y-22552714D02*
X15312143Y-22538428D01*
X15297857Y-22509857D01*
X15297857Y-22252714D01*
X15569286Y-22538428D02*
X15540714Y-22552714D01*
X15483571Y-22552714D01*
X15455000Y-22538428D01*
X15440714Y-22509857D01*
X15440714Y-22395571D01*
X15455000Y-22367000D01*
X15483571Y-22352714D01*
X15540714Y-22352714D01*
X15569286Y-22367000D01*
X15583571Y-22395571D01*
X15583571Y-22424143D01*
X15440714Y-22452714D01*
X15697857Y-22538428D02*
X15726428Y-22552714D01*
X15783571Y-22552714D01*
X15812143Y-22538428D01*
X15826428Y-22509857D01*
X15826428Y-22495571D01*
X15812143Y-22467000D01*
X15783571Y-22452714D01*
X15740714Y-22452714D01*
X15712143Y-22438428D01*
X15697857Y-22409857D01*
X15697857Y-22395571D01*
X15712143Y-22367000D01*
X15740714Y-22352714D01*
X15783571Y-22352714D01*
X15812143Y-22367000D01*
X15926428Y-22667000D02*
X15940714Y-22652714D01*
X15969286Y-22609857D01*
X15983571Y-22581286D01*
X15997857Y-22538428D01*
X16012143Y-22467000D01*
X16012143Y-22409857D01*
X15997857Y-22338429D01*
X15983571Y-22295571D01*
X15969286Y-22267000D01*
X15940714Y-22224143D01*
X15926428Y-22209857D01*
X9310000Y-22748000D02*
X9440000Y-22878000D01*
X9440000Y-22748000D02*
X9310000Y-22878000D01*
X9375000Y-22878000D02*
X9440000Y-22813000D01*
X9375000Y-22748000D01*
X9310000Y-22813000D01*
X9375000Y-22878000D01*
X9883571Y-22948714D02*
X9712143Y-22948714D01*
X9797857Y-22948714D02*
X9797857Y-22648714D01*
X9769286Y-22691571D01*
X9740714Y-22720143D01*
X9712143Y-22734428D01*
X10012143Y-22920143D02*
X10026429Y-22934428D01*
X10012143Y-22948714D01*
X9997857Y-22934428D01*
X10012143Y-22920143D01*
X10012143Y-22948714D01*
X10126429Y-22648714D02*
X10312143Y-22648714D01*
X10212143Y-22763000D01*
X10255000Y-22763000D01*
X10283571Y-22777286D01*
X10297857Y-22791571D01*
X10312143Y-22820143D01*
X10312143Y-22891571D01*
X10297857Y-22920143D01*
X10283571Y-22934428D01*
X10255000Y-22948714D01*
X10169286Y-22948714D01*
X10140714Y-22934428D01*
X10126429Y-22920143D01*
X10497857Y-22648714D02*
X10526429Y-22648714D01*
X10555000Y-22663000D01*
X10569286Y-22677286D01*
X10583571Y-22705857D01*
X10597857Y-22763000D01*
X10597857Y-22834428D01*
X10583571Y-22891571D01*
X10569286Y-22920143D01*
X10555000Y-22934428D01*
X10526429Y-22948714D01*
X10497857Y-22948714D01*
X10469286Y-22934428D01*
X10455000Y-22920143D01*
X10440714Y-22891571D01*
X10426429Y-22834428D01*
X10426429Y-22763000D01*
X10440714Y-22705857D01*
X10455000Y-22677286D01*
X10469286Y-22663000D01*
X10497857Y-22648714D01*
X10726429Y-22948714D02*
X10726429Y-22748714D01*
X10726429Y-22777286D02*
X10740714Y-22763000D01*
X10769286Y-22748714D01*
X10812143Y-22748714D01*
X10840714Y-22763000D01*
X10855000Y-22791571D01*
X10855000Y-22948714D01*
X10855000Y-22791571D02*
X10869286Y-22763000D01*
X10897857Y-22748714D01*
X10940714Y-22748714D01*
X10969286Y-22763000D01*
X10983571Y-22791571D01*
X10983571Y-22948714D01*
X11126429Y-22948714D02*
X11126429Y-22748714D01*
X11126429Y-22777286D02*
X11140714Y-22763000D01*
X11169286Y-22748714D01*
X11212143Y-22748714D01*
X11240714Y-22763000D01*
X11255000Y-22791571D01*
X11255000Y-22948714D01*
X11255000Y-22791571D02*
X11269286Y-22763000D01*
X11297857Y-22748714D01*
X11340714Y-22748714D01*
X11369286Y-22763000D01*
X11383571Y-22791571D01*
X11383571Y-22948714D01*
X11969286Y-22634428D02*
X11712143Y-23020143D01*
X12355000Y-22648714D02*
X12383571Y-22648714D01*
X12412143Y-22663000D01*
X12426428Y-22677286D01*
X12440714Y-22705857D01*
X12455000Y-22763000D01*
X12455000Y-22834428D01*
X12440714Y-22891571D01*
X12426428Y-22920143D01*
X12412143Y-22934428D01*
X12383571Y-22948714D01*
X12355000Y-22948714D01*
X12326428Y-22934428D01*
X12312143Y-22920143D01*
X12297857Y-22891571D01*
X12283571Y-22834428D01*
X12283571Y-22763000D01*
X12297857Y-22705857D01*
X12312143Y-22677286D01*
X12326428Y-22663000D01*
X12355000Y-22648714D01*
X12583571Y-22920143D02*
X12597857Y-22934428D01*
X12583571Y-22948714D01*
X12569286Y-22934428D01*
X12583571Y-22920143D01*
X12583571Y-22948714D01*
X12783571Y-22648714D02*
X12812143Y-22648714D01*
X12840714Y-22663000D01*
X12855000Y-22677286D01*
X12869286Y-22705857D01*
X12883571Y-22763000D01*
X12883571Y-22834428D01*
X12869286Y-22891571D01*
X12855000Y-22920143D01*
X12840714Y-22934428D01*
X12812143Y-22948714D01*
X12783571Y-22948714D01*
X12755000Y-22934428D01*
X12740714Y-22920143D01*
X12726428Y-22891571D01*
X12712143Y-22834428D01*
X12712143Y-22763000D01*
X12726428Y-22705857D01*
X12740714Y-22677286D01*
X12755000Y-22663000D01*
X12783571Y-22648714D01*
X13155000Y-22648714D02*
X13012143Y-22648714D01*
X12997857Y-22791571D01*
X13012143Y-22777286D01*
X13040714Y-22763000D01*
X13112143Y-22763000D01*
X13140714Y-22777286D01*
X13155000Y-22791571D01*
X13169286Y-22820143D01*
X13169286Y-22891571D01*
X13155000Y-22920143D01*
X13140714Y-22934428D01*
X13112143Y-22948714D01*
X13040714Y-22948714D01*
X13012143Y-22934428D01*
X12997857Y-22920143D01*
X13455000Y-22948714D02*
X13283571Y-22948714D01*
X13369286Y-22948714D02*
X13369286Y-22648714D01*
X13340714Y-22691571D01*
X13312143Y-22720143D01*
X13283571Y-22734428D01*
X13569286Y-22648714D02*
X13569286Y-22705857D01*
X13683571Y-22648714D02*
X13683571Y-22705857D01*
X14126428Y-23063000D02*
X14112143Y-23048714D01*
X14083571Y-23005857D01*
X14069286Y-22977286D01*
X14055000Y-22934428D01*
X14040714Y-22863000D01*
X14040714Y-22805857D01*
X14055000Y-22734428D01*
X14069286Y-22691571D01*
X14083571Y-22663000D01*
X14112143Y-22620143D01*
X14126428Y-22605857D01*
X14226428Y-22677286D02*
X14240714Y-22663000D01*
X14269286Y-22648714D01*
X14340714Y-22648714D01*
X14369286Y-22663000D01*
X14383571Y-22677286D01*
X14397857Y-22705857D01*
X14397857Y-22734428D01*
X14383571Y-22777286D01*
X14212143Y-22948714D01*
X14397857Y-22948714D01*
X14755000Y-22948714D02*
X14755000Y-22648714D01*
X14883571Y-22948714D02*
X14883571Y-22791571D01*
X14869286Y-22763000D01*
X14840714Y-22748714D01*
X14797857Y-22748714D01*
X14769286Y-22763000D01*
X14755000Y-22777286D01*
X15069286Y-22948714D02*
X15040714Y-22934428D01*
X15026428Y-22920143D01*
X15012143Y-22891571D01*
X15012143Y-22805857D01*
X15026428Y-22777286D01*
X15040714Y-22763000D01*
X15069286Y-22748714D01*
X15112143Y-22748714D01*
X15140714Y-22763000D01*
X15155000Y-22777286D01*
X15169286Y-22805857D01*
X15169286Y-22891571D01*
X15155000Y-22920143D01*
X15140714Y-22934428D01*
X15112143Y-22948714D01*
X15069286Y-22948714D01*
X15340714Y-22948714D02*
X15312143Y-22934428D01*
X15297857Y-22905857D01*
X15297857Y-22648714D01*
X15569286Y-22934428D02*
X15540714Y-22948714D01*
X15483571Y-22948714D01*
X15455000Y-22934428D01*
X15440714Y-22905857D01*
X15440714Y-22791571D01*
X15455000Y-22763000D01*
X15483571Y-22748714D01*
X15540714Y-22748714D01*
X15569286Y-22763000D01*
X15583571Y-22791571D01*
X15583571Y-22820143D01*
X15440714Y-22848714D01*
X15697857Y-22934428D02*
X15726428Y-22948714D01*
X15783571Y-22948714D01*
X15812143Y-22934428D01*
X15826428Y-22905857D01*
X15826428Y-22891571D01*
X15812143Y-22863000D01*
X15783571Y-22848714D01*
X15740714Y-22848714D01*
X15712143Y-22834428D01*
X15697857Y-22805857D01*
X15697857Y-22791571D01*
X15712143Y-22763000D01*
X15740714Y-22748714D01*
X15783571Y-22748714D01*
X15812143Y-22763000D01*
X15926428Y-23063000D02*
X15940714Y-23048714D01*
X15969286Y-23005857D01*
X15983571Y-22977286D01*
X15997857Y-22934428D01*
X16012143Y-22863000D01*
X16012143Y-22805857D01*
X15997857Y-22734428D01*
X15983571Y-22691571D01*
X15969286Y-22663000D01*
X15940714Y-22620143D01*
X15926428Y-22605857D01*
M02*
