  0
SECTION
  2
HEADER
  9
$ANGBASE
  50
0.0
  9
$ANGDIR
  70
1
  9
$MEASUREMENT
  70
0
  0
ENDSEC
  0
SECTION
  2
TABLES
  0
TABLE
  2
LTYPE
  70
4
  0
LTYPE
  5
40F
  2
CONTINUOUS
  70
0
  3
Solid line
  72
65
  73
0
  40
0.0
  0
LTYPE
  5
410
  2
DASHDOT
 70
0
  3
Dash Dot ____ _ ____ _
 72
65
 73
4
 40
2.0
 49
1.25
 49
-0.25
 49
0.25
 49
-0.25
  0
LTYPE
  5
411
  2
DASHED
 70
0
  3
Dashed __ __ __ __ __
 72
65
 73
2
 40
0.75
 49
0.5
 49
-0.25
  0
LTYPE
  5
43B
  2
DOTTED
 70
0
  3
Dotted .  .  .  .
 72
65
 73
2
 40
0.2
 49
0.0
 49
-0.2
  0
ENDTAB
  0
TABLE
  2
STYLE
  70
4
  0
STYLE
  2
KICAD
  70
0
  40
0
  41
1
  42
1
  50
0
  71
0
  3
isocp.shx
  0
STYLE
  2
KICADB
  70
0
  40
0
  41
1
  42
1
  50
0
  71
0
  3
isocp.shx
  0
STYLE
  2
KICADI
  70
0
  40
0
  41
1
  42
1
  50
15
  71
0
  3
isocp.shx
  0
STYLE
  2
KICADBI
  70
0
  40
0
  41
1
  42
1
  50
15
  71
0
  3
isocp.shx
  0
ENDTAB
  0
TABLE
  2
LAYER
  70
1
  0
LAYER
  2
BLACK
  70
0
  62
7
  6
CONTINUOUS
  0
ENDTAB
  0
ENDSEC
  0
SECTION
  2
ENTITIES
0
LINE
8
BLACK
6
CONTINUOUS
10
3.04724
20
-2.72835
11
8.83465
21
-2.72835
0
LINE
8
BLACK
6
CONTINUOUS
10
8.93307
20
-4.79528
11
8.93307
21
-2.82677
0
LINE
8
BLACK
6
CONTINUOUS
10
2.94882
20
-4.79528
11
2.94882
21
-2.82677
0
ARC
8
BLACK
10
3.04724
20
-4.79528
40
0.0984252
50
-180
51
-90
0
LINE
8
BLACK
6
CONTINUOUS
10
3.04724
20
-4.8937
11
8.83465
21
-4.8937
0
ARC
8
BLACK
10
3.04724
20
-2.82677
40
0.0984252
50
90
51
180
0
ARC
8
BLACK
10
8.83465
20
-2.82677
40
0.0984252
50
-0
51
90
0
ARC
8
BLACK
10
8.83465
20
-4.79528
40
0.0984252
50
-90
51
-0
0
LINE
8
BLACK
6
CONTINUOUS
10
3.02301
20
-2.80301
11
3.14899
21
-2.92899
0
LINE
8
BLACK
6
CONTINUOUS
10
3.14899
20
-2.80301
11
3.02301
21
-2.92899
0
LINE
8
BLACK
6
CONTINUOUS
10
3.02301
20
-4.69501
11
3.14899
21
-4.82099
0
LINE
8
BLACK
6
CONTINUOUS
10
3.14899
20
-4.69501
11
3.02301
21
-4.82099
0
LINE
8
BLACK
6
CONTINUOUS
10
8.73301
20
-2.80301
11
8.85899
21
-2.92899
0
LINE
8
BLACK
6
CONTINUOUS
10
8.85899
20
-2.80301
11
8.73301
21
-2.92899
0
LINE
8
BLACK
6
CONTINUOUS
10
8.73501
20
-4.69501
11
8.86099
21
-4.82099
0
LINE
8
BLACK
6
CONTINUOUS
10
8.86099
20
-4.69501
11
8.73501
21
-4.82099
0
LINE
8
BLACK
6
CONTINUOUS
10
3.04532
20
-5.01023
11
3.04532
21
-4.93149
0
LINE
8
BLACK
6
CONTINUOUS
10
3.04532
20
-4.93149
11
3.06407
21
-4.93149
0
LINE
8
BLACK
6
CONTINUOUS
10
3.06407
20
-4.93149
11
3.07532
21
-4.93524
0
LINE
8
BLACK
6
CONTINUOUS
10
3.07532
20
-4.93524
11
3.08282
21
-4.94274
0
LINE
8
BLACK
6
CONTINUOUS
10
3.08282
20
-4.94274
11
3.08657
21
-4.95023
0
LINE
8
BLACK
6
CONTINUOUS
10
3.08657
20
-4.95023
11
3.09032
21
-4.96523
0
LINE
8
BLACK
6
CONTINUOUS
10
3.09032
20
-4.96523
11
3.09032
21
-4.97648
0
LINE
8
BLACK
6
CONTINUOUS
10
3.09032
20
-4.97648
11
3.08657
21
-4.99148
0
LINE
8
BLACK
6
CONTINUOUS
10
3.08657
20
-4.99148
11
3.08282
21
-4.99898
0
LINE
8
BLACK
6
CONTINUOUS
10
3.08282
20
-4.99898
11
3.07532
21
-5.00648
0
LINE
8
BLACK
6
CONTINUOUS
10
3.07532
20
-5.00648
11
3.06407
21
-5.01023
0
LINE
8
BLACK
6
CONTINUOUS
10
3.06407
20
-5.01023
11
3.04532
21
-5.01023
0
LINE
8
BLACK
6
CONTINUOUS
10
3.12406
20
-5.01023
11
3.12406
21
-4.95773
0
LINE
8
BLACK
6
CONTINUOUS
10
3.12406
20
-4.97273
11
3.12781
21
-4.96523
0
LINE
8
BLACK
6
CONTINUOUS
10
3.12781
20
-4.96523
11
3.13156
21
-4.96148
0
LINE
8
BLACK
6
CONTINUOUS
10
3.13156
20
-4.96148
11
3.13906
21
-4.95773
0
LINE
8
BLACK
6
CONTINUOUS
10
3.13906
20
-4.95773
11
3.14656
21
-4.95773
0
LINE
8
BLACK
6
CONTINUOUS
10
3.17281
20
-5.01023
11
3.17281
21
-4.95773
0
LINE
8
BLACK
6
CONTINUOUS
10
3.17281
20
-4.93149
11
3.16906
21
-4.93524
0
LINE
8
BLACK
6
CONTINUOUS
10
3.16906
20
-4.93524
11
3.17281
21
-4.93899
0
LINE
8
BLACK
6
CONTINUOUS
10
3.17281
20
-4.93899
11
3.17656
21
-4.93524
0
LINE
8
BLACK
6
CONTINUOUS
10
3.17656
20
-4.93524
11
3.17281
21
-4.93149
0
LINE
8
BLACK
6
CONTINUOUS
10
3.17281
20
-4.93149
11
3.17281
21
-4.93899
0
LINE
8
BLACK
6
CONTINUOUS
10
3.22155
20
-5.01023
11
3.21405
21
-5.00648
0
LINE
8
BLACK
6
CONTINUOUS
10
3.21405
20
-5.00648
11
3.2103
21
-4.99898
0
LINE
8
BLACK
6
CONTINUOUS
10
3.2103
20
-4.99898
11
3.2103
21
-4.93149
0
LINE
8
BLACK
6
CONTINUOUS
10
3.2628
20
-5.01023
11
3.2553
21
-5.00648
0
LINE
8
BLACK
6
CONTINUOUS
10
3.2553
20
-5.00648
11
3.25155
21
-4.99898
0
LINE
8
BLACK
6
CONTINUOUS
10
3.25155
20
-4.99898
11
3.25155
21
-4.93149
0
LINE
8
BLACK
6
CONTINUOUS
10
3.34004
20
-5.01023
11
3.34004
21
-4.93149
0
LINE
8
BLACK
6
CONTINUOUS
10
3.34004
20
-4.93149
11
3.36628
21
-4.98773
0
LINE
8
BLACK
6
CONTINUOUS
10
3.36628
20
-4.98773
11
3.39253
21
-4.93149
0
LINE
8
BLACK
6
CONTINUOUS
10
3.39253
20
-4.93149
11
3.39253
21
-5.01023
0
LINE
8
BLACK
6
CONTINUOUS
10
3.46377
20
-5.01023
11
3.46377
21
-4.96898
0
LINE
8
BLACK
6
CONTINUOUS
10
3.46377
20
-4.96898
11
3.46002
21
-4.96148
0
LINE
8
BLACK
6
CONTINUOUS
10
3.46002
20
-4.96148
11
3.45252
21
-4.95773
0
LINE
8
BLACK
6
CONTINUOUS
10
3.45252
20
-4.95773
11
3.43752
21
-4.95773
0
LINE
8
BLACK
6
CONTINUOUS
10
3.43752
20
-4.95773
11
3.43002
21
-4.96148
0
LINE
8
BLACK
6
CONTINUOUS
10
3.46377
20
-5.00648
11
3.45627
21
-5.01023
0
LINE
8
BLACK
6
CONTINUOUS
10
3.45627
20
-5.01023
11
3.43752
21
-5.01023
0
LINE
8
BLACK
6
CONTINUOUS
10
3.43752
20
-5.01023
11
3.43002
21
-5.00648
0
LINE
8
BLACK
6
CONTINUOUS
10
3.43002
20
-5.00648
11
3.42627
21
-4.99898
0
LINE
8
BLACK
6
CONTINUOUS
10
3.42627
20
-4.99898
11
3.42627
21
-4.99148
0
LINE
8
BLACK
6
CONTINUOUS
10
3.42627
20
-4.99148
11
3.43002
21
-4.98398
0
LINE
8
BLACK
6
CONTINUOUS
10
3.43002
20
-4.98398
11
3.43752
21
-4.98023
0
LINE
8
BLACK
6
CONTINUOUS
10
3.43752
20
-4.98023
11
3.45627
21
-4.98023
0
LINE
8
BLACK
6
CONTINUOUS
10
3.45627
20
-4.98023
11
3.46377
21
-4.97648
0
LINE
8
BLACK
6
CONTINUOUS
10
3.50127
20
-4.95773
11
3.50127
21
-5.03647
0
LINE
8
BLACK
6
CONTINUOUS
10
3.50127
20
-4.96148
11
3.50876
21
-4.95773
0
LINE
8
BLACK
6
CONTINUOUS
10
3.50876
20
-4.95773
11
3.52376
21
-4.95773
0
LINE
8
BLACK
6
CONTINUOUS
10
3.52376
20
-4.95773
11
3.53126
21
-4.96148
0
LINE
8
BLACK
6
CONTINUOUS
10
3.53126
20
-4.96148
11
3.53501
21
-4.96523
0
LINE
8
BLACK
6
CONTINUOUS
10
3.53501
20
-4.96523
11
3.53876
21
-4.97273
0
LINE
8
BLACK
6
CONTINUOUS
10
3.53876
20
-4.97273
11
3.53876
21
-4.99523
0
LINE
8
BLACK
6
CONTINUOUS
10
3.53876
20
-4.99523
11
3.53501
21
-5.00273
0
LINE
8
BLACK
6
CONTINUOUS
10
3.53501
20
-5.00273
11
3.53126
21
-5.00648
0
LINE
8
BLACK
6
CONTINUOUS
10
3.53126
20
-5.00648
11
3.52376
21
-5.01023
0
LINE
8
BLACK
6
CONTINUOUS
10
3.52376
20
-5.01023
11
3.50876
21
-5.01023
0
LINE
8
BLACK
6
CONTINUOUS
10
3.50876
20
-5.01023
11
3.50127
21
-5.00648
0
LINE
8
BLACK
6
CONTINUOUS
10
3.57251
20
-5.00273
11
3.57626
21
-5.00648
0
LINE
8
BLACK
6
CONTINUOUS
10
3.57626
20
-5.00648
11
3.57251
21
-5.01023
0
LINE
8
BLACK
6
CONTINUOUS
10
3.57251
20
-5.01023
11
3.56876
21
-5.00648
0
LINE
8
BLACK
6
CONTINUOUS
10
3.56876
20
-5.00648
11
3.57251
21
-5.00273
0
LINE
8
BLACK
6
CONTINUOUS
10
3.57251
20
-5.00273
11
3.57251
21
-5.01023
0
LINE
8
BLACK
6
CONTINUOUS
10
3.57251
20
-4.96148
11
3.57626
21
-4.96523
0
LINE
8
BLACK
6
CONTINUOUS
10
3.57626
20
-4.96523
11
3.57251
21
-4.96898
0
LINE
8
BLACK
6
CONTINUOUS
10
3.57251
20
-4.96898
11
3.56876
21
-4.96523
0
LINE
8
BLACK
6
CONTINUOUS
10
3.56876
20
-4.96523
11
3.57251
21
-4.96148
0
LINE
8
BLACK
6
CONTINUOUS
10
3.57251
20
-4.96148
11
3.57251
21
-4.96898
0
LINE
8
BLACK
6
CONTINUOUS
10
2.86909
20
-5.10728
11
2.94783
21
-5.18602
0
LINE
8
BLACK
6
CONTINUOUS
10
2.94783
20
-5.10728
11
2.86909
21
-5.18602
0
LINE
8
BLACK
6
CONTINUOUS
10
3.03782
20
-5.09684
11
3.08657
21
-5.09684
0
LINE
8
BLACK
6
CONTINUOUS
10
3.08657
20
-5.09684
11
3.06032
21
-5.12684
0
LINE
8
BLACK
6
CONTINUOUS
10
3.06032
20
-5.12684
11
3.07157
21
-5.12684
0
LINE
8
BLACK
6
CONTINUOUS
10
3.07157
20
-5.12684
11
3.07907
21
-5.13059
0
LINE
8
BLACK
6
CONTINUOUS
10
3.07907
20
-5.13059
11
3.08282
21
-5.13434
0
LINE
8
BLACK
6
CONTINUOUS
10
3.08282
20
-5.13434
11
3.08657
21
-5.14184
0
LINE
8
BLACK
6
CONTINUOUS
10
3.08657
20
-5.14184
11
3.08657
21
-5.16058
0
LINE
8
BLACK
6
CONTINUOUS
10
3.08657
20
-5.16058
11
3.08282
21
-5.16808
0
LINE
8
BLACK
6
CONTINUOUS
10
3.08282
20
-5.16808
11
3.07907
21
-5.17183
0
LINE
8
BLACK
6
CONTINUOUS
10
3.07907
20
-5.17183
11
3.07157
21
-5.17558
0
LINE
8
BLACK
6
CONTINUOUS
10
3.07157
20
-5.17558
11
3.04907
21
-5.17558
0
LINE
8
BLACK
6
CONTINUOUS
10
3.04907
20
-5.17558
11
3.04157
21
-5.17183
0
LINE
8
BLACK
6
CONTINUOUS
10
3.04157
20
-5.17183
11
3.03782
21
-5.16808
0
LINE
8
BLACK
6
CONTINUOUS
10
3.12031
20
-5.16808
11
3.12406
21
-5.17183
0
LINE
8
BLACK
6
CONTINUOUS
10
3.12406
20
-5.17183
11
3.12031
21
-5.17558
0
LINE
8
BLACK
6
CONTINUOUS
10
3.12031
20
-5.17558
11
3.11656
21
-5.17183
0
LINE
8
BLACK
6
CONTINUOUS
10
3.11656
20
-5.17183
11
3.12031
21
-5.16808
0
LINE
8
BLACK
6
CONTINUOUS
10
3.12031
20
-5.16808
11
3.12031
21
-5.17558
0
LINE
8
BLACK
6
CONTINUOUS
10
3.15406
20
-5.10434
11
3.15781
21
-5.10059
0
LINE
8
BLACK
6
CONTINUOUS
10
3.15781
20
-5.10059
11
3.16531
21
-5.09684
0
LINE
8
BLACK
6
CONTINUOUS
10
3.16531
20
-5.09684
11
3.18406
21
-5.09684
0
LINE
8
BLACK
6
CONTINUOUS
10
3.18406
20
-5.09684
11
3.19155
21
-5.10059
0
LINE
8
BLACK
6
CONTINUOUS
10
3.19155
20
-5.10059
11
3.1953
21
-5.10434
0
LINE
8
BLACK
6
CONTINUOUS
10
3.1953
20
-5.10434
11
3.19905
21
-5.11184
0
LINE
8
BLACK
6
CONTINUOUS
10
3.19905
20
-5.11184
11
3.19905
21
-5.11934
0
LINE
8
BLACK
6
CONTINUOUS
10
3.19905
20
-5.11934
11
3.1953
21
-5.13059
0
LINE
8
BLACK
6
CONTINUOUS
10
3.1953
20
-5.13059
11
3.15031
21
-5.17558
0
LINE
8
BLACK
6
CONTINUOUS
10
3.15031
20
-5.17558
11
3.19905
21
-5.17558
0
LINE
8
BLACK
6
CONTINUOUS
10
3.2478
20
-5.09684
11
3.2553
21
-5.09684
0
LINE
8
BLACK
6
CONTINUOUS
10
3.2553
20
-5.09684
11
3.2628
21
-5.10059
0
LINE
8
BLACK
6
CONTINUOUS
10
3.2628
20
-5.10059
11
3.26654
21
-5.10434
0
LINE
8
BLACK
6
CONTINUOUS
10
3.26654
20
-5.10434
11
3.27029
21
-5.11184
0
LINE
8
BLACK
6
CONTINUOUS
10
3.27029
20
-5.11184
11
3.27404
21
-5.12684
0
LINE
8
BLACK
6
CONTINUOUS
10
3.27404
20
-5.12684
11
3.27404
21
-5.14558
0
LINE
8
BLACK
6
CONTINUOUS
10
3.27404
20
-5.14558
11
3.27029
21
-5.16058
0
LINE
8
BLACK
6
CONTINUOUS
10
3.27029
20
-5.16058
11
3.26654
21
-5.16808
0
LINE
8
BLACK
6
CONTINUOUS
10
3.26654
20
-5.16808
11
3.2628
21
-5.17183
0
LINE
8
BLACK
6
CONTINUOUS
10
3.2628
20
-5.17183
11
3.2553
21
-5.17558
0
LINE
8
BLACK
6
CONTINUOUS
10
3.2553
20
-5.17558
11
3.2478
21
-5.17558
0
LINE
8
BLACK
6
CONTINUOUS
10
3.2478
20
-5.17558
11
3.2403
21
-5.17183
0
LINE
8
BLACK
6
CONTINUOUS
10
3.2403
20
-5.17183
11
3.23655
21
-5.16808
0
LINE
8
BLACK
6
CONTINUOUS
10
3.23655
20
-5.16808
11
3.2328
21
-5.16058
0
LINE
8
BLACK
6
CONTINUOUS
10
3.2328
20
-5.16058
11
3.22905
21
-5.14558
0
LINE
8
BLACK
6
CONTINUOUS
10
3.22905
20
-5.14558
11
3.22905
21
-5.12684
0
LINE
8
BLACK
6
CONTINUOUS
10
3.22905
20
-5.12684
11
3.2328
21
-5.11184
0
LINE
8
BLACK
6
CONTINUOUS
10
3.2328
20
-5.11184
11
3.23655
21
-5.10434
0
LINE
8
BLACK
6
CONTINUOUS
10
3.23655
20
-5.10434
11
3.2403
21
-5.10059
0
LINE
8
BLACK
6
CONTINUOUS
10
3.2403
20
-5.10059
11
3.2478
21
-5.09684
0
LINE
8
BLACK
6
CONTINUOUS
10
3.32279
20
-5.09684
11
3.33029
21
-5.09684
0
LINE
8
BLACK
6
CONTINUOUS
10
3.33029
20
-5.09684
11
3.33779
21
-5.10059
0
LINE
8
BLACK
6
CONTINUOUS
10
3.33779
20
-5.10059
11
3.34154
21
-5.10434
0
LINE
8
BLACK
6
CONTINUOUS
10
3.34154
20
-5.10434
11
3.34528
21
-5.11184
0
LINE
8
BLACK
6
CONTINUOUS
10
3.34528
20
-5.11184
11
3.34903
21
-5.12684
0
LINE
8
BLACK
6
CONTINUOUS
10
3.34903
20
-5.12684
11
3.34903
21
-5.14558
0
LINE
8
BLACK
6
CONTINUOUS
10
3.34903
20
-5.14558
11
3.34528
21
-5.16058
0
LINE
8
BLACK
6
CONTINUOUS
10
3.34528
20
-5.16058
11
3.34154
21
-5.16808
0
LINE
8
BLACK
6
CONTINUOUS
10
3.34154
20
-5.16808
11
3.33779
21
-5.17183
0
LINE
8
BLACK
6
CONTINUOUS
10
3.33779
20
-5.17183
11
3.33029
21
-5.17558
0
LINE
8
BLACK
6
CONTINUOUS
10
3.33029
20
-5.17558
11
3.32279
21
-5.17558
0
LINE
8
BLACK
6
CONTINUOUS
10
3.32279
20
-5.17558
11
3.31529
21
-5.17183
0
LINE
8
BLACK
6
CONTINUOUS
10
3.31529
20
-5.17183
11
3.31154
21
-5.16808
0
LINE
8
BLACK
6
CONTINUOUS
10
3.31154
20
-5.16808
11
3.30779
21
-5.16058
0
LINE
8
BLACK
6
CONTINUOUS
10
3.30779
20
-5.16058
11
3.30404
21
-5.14558
0
LINE
8
BLACK
6
CONTINUOUS
10
3.30404
20
-5.14558
11
3.30404
21
-5.12684
0
LINE
8
BLACK
6
CONTINUOUS
10
3.30404
20
-5.12684
11
3.30779
21
-5.11184
0
LINE
8
BLACK
6
CONTINUOUS
10
3.30779
20
-5.11184
11
3.31154
21
-5.10434
0
LINE
8
BLACK
6
CONTINUOUS
10
3.31154
20
-5.10434
11
3.31529
21
-5.10059
0
LINE
8
BLACK
6
CONTINUOUS
10
3.31529
20
-5.10059
11
3.32279
21
-5.09684
0
LINE
8
BLACK
6
CONTINUOUS
10
3.38278
20
-5.17558
11
3.38278
21
-5.12309
0
LINE
8
BLACK
6
CONTINUOUS
10
3.38278
20
-5.13059
11
3.38653
21
-5.12684
0
LINE
8
BLACK
6
CONTINUOUS
10
3.38653
20
-5.12684
11
3.39403
21
-5.12309
0
LINE
8
BLACK
6
CONTINUOUS
10
3.39403
20
-5.12309
11
3.40528
21
-5.12309
0
LINE
8
BLACK
6
CONTINUOUS
10
3.40528
20
-5.12309
11
3.41278
21
-5.12684
0
LINE
8
BLACK
6
CONTINUOUS
10
3.41278
20
-5.12684
11
3.41653
21
-5.13434
0
LINE
8
BLACK
6
CONTINUOUS
10
3.41653
20
-5.13434
11
3.41653
21
-5.17558
0
LINE
8
BLACK
6
CONTINUOUS
10
3.41653
20
-5.13434
11
3.42028
21
-5.12684
0
LINE
8
BLACK
6
CONTINUOUS
10
3.42028
20
-5.12684
11
3.42777
21
-5.12309
0
LINE
8
BLACK
6
CONTINUOUS
10
3.42777
20
-5.12309
11
3.43902
21
-5.12309
0
LINE
8
BLACK
6
CONTINUOUS
10
3.43902
20
-5.12309
11
3.44652
21
-5.12684
0
LINE
8
BLACK
6
CONTINUOUS
10
3.44652
20
-5.12684
11
3.45027
21
-5.13434
0
LINE
8
BLACK
6
CONTINUOUS
10
3.45027
20
-5.13434
11
3.45027
21
-5.17558
0
LINE
8
BLACK
6
CONTINUOUS
10
3.48777
20
-5.17558
11
3.48777
21
-5.12309
0
LINE
8
BLACK
6
CONTINUOUS
10
3.48777
20
-5.13059
11
3.49152
21
-5.12684
0
LINE
8
BLACK
6
CONTINUOUS
10
3.49152
20
-5.12684
11
3.49902
21
-5.12309
0
LINE
8
BLACK
6
CONTINUOUS
10
3.49902
20
-5.12309
11
3.51026
21
-5.12309
0
LINE
8
BLACK
6
CONTINUOUS
10
3.51026
20
-5.12309
11
3.51776
21
-5.12684
0
LINE
8
BLACK
6
CONTINUOUS
10
3.51776
20
-5.12684
11
3.52151
21
-5.13434
0
LINE
8
BLACK
6
CONTINUOUS
10
3.52151
20
-5.13434
11
3.52151
21
-5.17558
0
LINE
8
BLACK
6
CONTINUOUS
10
3.52151
20
-5.13434
11
3.52526
21
-5.12684
0
LINE
8
BLACK
6
CONTINUOUS
10
3.52526
20
-5.12684
11
3.53276
21
-5.12309
0
LINE
8
BLACK
6
CONTINUOUS
10
3.53276
20
-5.12309
11
3.54401
21
-5.12309
0
LINE
8
BLACK
6
CONTINUOUS
10
3.54401
20
-5.12309
11
3.55151
21
-5.12684
0
LINE
8
BLACK
6
CONTINUOUS
10
3.55151
20
-5.12684
11
3.55526
21
-5.13434
0
LINE
8
BLACK
6
CONTINUOUS
10
3.55526
20
-5.13434
11
3.55526
21
-5.17558
0
LINE
8
BLACK
6
CONTINUOUS
10
3.69624
20
-5.09309
11
3.62875
21
-5.19433
0
LINE
8
BLACK
6
CONTINUOUS
10
3.78473
20
-5.09684
11
3.79223
21
-5.09684
0
LINE
8
BLACK
6
CONTINUOUS
10
3.79223
20
-5.09684
11
3.79973
21
-5.10059
0
LINE
8
BLACK
6
CONTINUOUS
10
3.79973
20
-5.10059
11
3.80348
21
-5.10434
0
LINE
8
BLACK
6
CONTINUOUS
10
3.80348
20
-5.10434
11
3.80723
21
-5.11184
0
LINE
8
BLACK
6
CONTINUOUS
10
3.80723
20
-5.11184
11
3.81098
21
-5.12684
0
LINE
8
BLACK
6
CONTINUOUS
10
3.81098
20
-5.12684
11
3.81098
21
-5.14558
0
LINE
8
BLACK
6
CONTINUOUS
10
3.81098
20
-5.14558
11
3.80723
21
-5.16058
0
LINE
8
BLACK
6
CONTINUOUS
10
3.80723
20
-5.16058
11
3.80348
21
-5.16808
0
LINE
8
BLACK
6
CONTINUOUS
10
3.80348
20
-5.16808
11
3.79973
21
-5.17183
0
LINE
8
BLACK
6
CONTINUOUS
10
3.79973
20
-5.17183
11
3.79223
21
-5.17558
0
LINE
8
BLACK
6
CONTINUOUS
10
3.79223
20
-5.17558
11
3.78473
21
-5.17558
0
LINE
8
BLACK
6
CONTINUOUS
10
3.78473
20
-5.17558
11
3.77723
21
-5.17183
0
LINE
8
BLACK
6
CONTINUOUS
10
3.77723
20
-5.17183
11
3.77348
21
-5.16808
0
LINE
8
BLACK
6
CONTINUOUS
10
3.77348
20
-5.16808
11
3.76973
21
-5.16058
0
LINE
8
BLACK
6
CONTINUOUS
10
3.76973
20
-5.16058
11
3.76598
21
-5.14558
0
LINE
8
BLACK
6
CONTINUOUS
10
3.76598
20
-5.14558
11
3.76598
21
-5.12684
0
LINE
8
BLACK
6
CONTINUOUS
10
3.76598
20
-5.12684
11
3.76973
21
-5.11184
0
LINE
8
BLACK
6
CONTINUOUS
10
3.76973
20
-5.11184
11
3.77348
21
-5.10434
0
LINE
8
BLACK
6
CONTINUOUS
10
3.77348
20
-5.10434
11
3.77723
21
-5.10059
0
LINE
8
BLACK
6
CONTINUOUS
10
3.77723
20
-5.10059
11
3.78473
21
-5.09684
0
LINE
8
BLACK
6
CONTINUOUS
10
3.84472
20
-5.16808
11
3.84847
21
-5.17183
0
LINE
8
BLACK
6
CONTINUOUS
10
3.84847
20
-5.17183
11
3.84472
21
-5.17558
0
LINE
8
BLACK
6
CONTINUOUS
10
3.84472
20
-5.17558
11
3.84097
21
-5.17183
0
LINE
8
BLACK
6
CONTINUOUS
10
3.84097
20
-5.17183
11
3.84472
21
-5.16808
0
LINE
8
BLACK
6
CONTINUOUS
10
3.84472
20
-5.16808
11
3.84472
21
-5.17558
0
LINE
8
BLACK
6
CONTINUOUS
10
3.92346
20
-5.17558
11
3.87847
21
-5.17558
0
LINE
8
BLACK
6
CONTINUOUS
10
3.90097
20
-5.17558
11
3.90097
21
-5.09684
0
LINE
8
BLACK
6
CONTINUOUS
10
3.90097
20
-5.09684
11
3.89347
21
-5.10809
0
LINE
8
BLACK
6
CONTINUOUS
10
3.89347
20
-5.10809
11
3.88597
21
-5.11559
0
LINE
8
BLACK
6
CONTINUOUS
10
3.88597
20
-5.11559
11
3.87847
21
-5.11934
0
LINE
8
BLACK
6
CONTINUOUS
10
3.95346
20
-5.10434
11
3.95721
21
-5.10059
0
LINE
8
BLACK
6
CONTINUOUS
10
3.95721
20
-5.10059
11
3.96471
21
-5.09684
0
LINE
8
BLACK
6
CONTINUOUS
10
3.96471
20
-5.09684
11
3.98346
21
-5.09684
0
LINE
8
BLACK
6
CONTINUOUS
10
3.98346
20
-5.09684
11
3.99095
21
-5.10059
0
LINE
8
BLACK
6
CONTINUOUS
10
3.99095
20
-5.10059
11
3.9947
21
-5.10434
0
LINE
8
BLACK
6
CONTINUOUS
10
3.9947
20
-5.10434
11
3.99845
21
-5.11184
0
LINE
8
BLACK
6
CONTINUOUS
10
3.99845
20
-5.11184
11
3.99845
21
-5.11934
0
LINE
8
BLACK
6
CONTINUOUS
10
3.99845
20
-5.11934
11
3.9947
21
-5.13059
0
LINE
8
BLACK
6
CONTINUOUS
10
3.9947
20
-5.13059
11
3.94971
21
-5.17558
0
LINE
8
BLACK
6
CONTINUOUS
10
3.94971
20
-5.17558
11
3.99845
21
-5.17558
0
LINE
8
BLACK
6
CONTINUOUS
10
4.06594
20
-5.09684
11
4.05095
21
-5.09684
0
LINE
8
BLACK
6
CONTINUOUS
10
4.05095
20
-5.09684
11
4.04345
21
-5.10059
0
LINE
8
BLACK
6
CONTINUOUS
10
4.04345
20
-5.10059
11
4.0397
21
-5.10434
0
LINE
8
BLACK
6
CONTINUOUS
10
4.0397
20
-5.10434
11
4.0322
21
-5.11559
0
LINE
8
BLACK
6
CONTINUOUS
10
4.0322
20
-5.11559
11
4.02845
21
-5.13059
0
LINE
8
BLACK
6
CONTINUOUS
10
4.02845
20
-5.13059
11
4.02845
21
-5.16058
0
LINE
8
BLACK
6
CONTINUOUS
10
4.02845
20
-5.16058
11
4.0322
21
-5.16808
0
LINE
8
BLACK
6
CONTINUOUS
10
4.0322
20
-5.16808
11
4.03595
21
-5.17183
0
LINE
8
BLACK
6
CONTINUOUS
10
4.03595
20
-5.17183
11
4.04345
21
-5.17558
0
LINE
8
BLACK
6
CONTINUOUS
10
4.04345
20
-5.17558
11
4.05845
21
-5.17558
0
LINE
8
BLACK
6
CONTINUOUS
10
4.05845
20
-5.17558
11
4.06594
21
-5.17183
0
LINE
8
BLACK
6
CONTINUOUS
10
4.06594
20
-5.17183
11
4.06969
21
-5.16808
0
LINE
8
BLACK
6
CONTINUOUS
10
4.06969
20
-5.16808
11
4.07344
21
-5.16058
0
LINE
8
BLACK
6
CONTINUOUS
10
4.07344
20
-5.16058
11
4.07344
21
-5.14184
0
LINE
8
BLACK
6
CONTINUOUS
10
4.07344
20
-5.14184
11
4.06969
21
-5.13434
0
LINE
8
BLACK
6
CONTINUOUS
10
4.06969
20
-5.13434
11
4.06594
21
-5.13059
0
LINE
8
BLACK
6
CONTINUOUS
10
4.06594
20
-5.13059
11
4.05845
21
-5.12684
0
LINE
8
BLACK
6
CONTINUOUS
10
4.05845
20
-5.12684
11
4.04345
21
-5.12684
0
LINE
8
BLACK
6
CONTINUOUS
10
4.04345
20
-5.12684
11
4.03595
21
-5.13059
0
LINE
8
BLACK
6
CONTINUOUS
10
4.03595
20
-5.13059
11
4.0322
21
-5.13434
0
LINE
8
BLACK
6
CONTINUOUS
10
4.0322
20
-5.13434
11
4.02845
21
-5.14184
0
LINE
8
BLACK
6
CONTINUOUS
10
4.12219
20
-5.09684
11
4.12969
21
-5.09684
0
LINE
8
BLACK
6
CONTINUOUS
10
4.12969
20
-5.09684
11
4.13719
21
-5.10059
0
LINE
8
BLACK
6
CONTINUOUS
10
4.13719
20
-5.10059
11
4.14094
21
-5.10434
0
LINE
8
BLACK
6
CONTINUOUS
10
4.14094
20
-5.10434
11
4.14469
21
-5.11184
0
LINE
8
BLACK
6
CONTINUOUS
10
4.14469
20
-5.11184
11
4.14843
21
-5.12684
0
LINE
8
BLACK
6
CONTINUOUS
10
4.14843
20
-5.12684
11
4.14843
21
-5.14558
0
LINE
8
BLACK
6
CONTINUOUS
10
4.14843
20
-5.14558
11
4.14469
21
-5.16058
0
LINE
8
BLACK
6
CONTINUOUS
10
4.14469
20
-5.16058
11
4.14094
21
-5.16808
0
LINE
8
BLACK
6
CONTINUOUS
10
4.14094
20
-5.16808
11
4.13719
21
-5.17183
0
LINE
8
BLACK
6
CONTINUOUS
10
4.13719
20
-5.17183
11
4.12969
21
-5.17558
0
LINE
8
BLACK
6
CONTINUOUS
10
4.12969
20
-5.17558
11
4.12219
21
-5.17558
0
LINE
8
BLACK
6
CONTINUOUS
10
4.12219
20
-5.17558
11
4.11469
21
-5.17183
0
LINE
8
BLACK
6
CONTINUOUS
10
4.11469
20
-5.17183
11
4.11094
21
-5.16808
0
LINE
8
BLACK
6
CONTINUOUS
10
4.11094
20
-5.16808
11
4.10719
21
-5.16058
0
LINE
8
BLACK
6
CONTINUOUS
10
4.10719
20
-5.16058
11
4.10344
21
-5.14558
0
LINE
8
BLACK
6
CONTINUOUS
10
4.10344
20
-5.14558
11
4.10344
21
-5.12684
0
LINE
8
BLACK
6
CONTINUOUS
10
4.10344
20
-5.12684
11
4.10719
21
-5.11184
0
LINE
8
BLACK
6
CONTINUOUS
10
4.10719
20
-5.11184
11
4.11094
21
-5.10434
0
LINE
8
BLACK
6
CONTINUOUS
10
4.11094
20
-5.10434
11
4.11469
21
-5.10059
0
LINE
8
BLACK
6
CONTINUOUS
10
4.11469
20
-5.10059
11
4.12219
21
-5.09684
0
LINE
8
BLACK
6
CONTINUOUS
10
4.17843
20
-5.09684
11
4.17843
21
-5.11184
0
LINE
8
BLACK
6
CONTINUOUS
10
4.20843
20
-5.09684
11
4.20843
21
-5.11184
0
LINE
8
BLACK
6
CONTINUOUS
10
4.31191
20
-5.20558
11
4.30816
21
-5.20183
0
LINE
8
BLACK
6
CONTINUOUS
10
4.30816
20
-5.20183
11
4.30067
21
-5.19058
0
LINE
8
BLACK
6
CONTINUOUS
10
4.30067
20
-5.19058
11
4.29692
21
-5.18308
0
LINE
8
BLACK
6
CONTINUOUS
10
4.29692
20
-5.18308
11
4.29317
21
-5.17183
0
LINE
8
BLACK
6
CONTINUOUS
10
4.29317
20
-5.17183
11
4.28942
21
-5.15308
0
LINE
8
BLACK
6
CONTINUOUS
10
4.28942
20
-5.15308
11
4.28942
21
-5.13809
0
LINE
8
BLACK
6
CONTINUOUS
10
4.28942
20
-5.13809
11
4.29317
21
-5.11934
0
LINE
8
BLACK
6
CONTINUOUS
10
4.29317
20
-5.11934
11
4.29692
21
-5.10809
0
LINE
8
BLACK
6
CONTINUOUS
10
4.29692
20
-5.10809
11
4.30067
21
-5.10059
0
LINE
8
BLACK
6
CONTINUOUS
10
4.30067
20
-5.10059
11
4.30816
21
-5.08934
0
LINE
8
BLACK
6
CONTINUOUS
10
4.30816
20
-5.08934
11
4.31191
21
-5.08559
0
LINE
8
BLACK
6
CONTINUOUS
10
4.37566
20
-5.12309
11
4.37566
21
-5.17558
0
LINE
8
BLACK
6
CONTINUOUS
10
4.35691
20
-5.09309
11
4.33816
21
-5.14933
0
LINE
8
BLACK
6
CONTINUOUS
10
4.33816
20
-5.14933
11
4.3869
21
-5.14933
0
LINE
8
BLACK
6
CONTINUOUS
10
4.46415
20
-5.17558
11
4.46415
21
-5.09684
0
LINE
8
BLACK
6
CONTINUOUS
10
4.49789
20
-5.17558
11
4.49789
21
-5.13434
0
LINE
8
BLACK
6
CONTINUOUS
10
4.49789
20
-5.13434
11
4.49414
21
-5.12684
0
LINE
8
BLACK
6
CONTINUOUS
10
4.49414
20
-5.12684
11
4.48664
21
-5.12309
0
LINE
8
BLACK
6
CONTINUOUS
10
4.48664
20
-5.12309
11
4.47539
21
-5.12309
0
LINE
8
BLACK
6
CONTINUOUS
10
4.47539
20
-5.12309
11
4.46789
21
-5.12684
0
LINE
8
BLACK
6
CONTINUOUS
10
4.46789
20
-5.12684
11
4.46415
21
-5.13059
0
LINE
8
BLACK
6
CONTINUOUS
10
4.54663
20
-5.17558
11
4.53914
21
-5.17183
0
LINE
8
BLACK
6
CONTINUOUS
10
4.53914
20
-5.17183
11
4.53539
21
-5.16808
0
LINE
8
BLACK
6
CONTINUOUS
10
4.53539
20
-5.16808
11
4.53164
21
-5.16058
0
LINE
8
BLACK
6
CONTINUOUS
10
4.53164
20
-5.16058
11
4.53164
21
-5.13809
0
LINE
8
BLACK
6
CONTINUOUS
10
4.53164
20
-5.13809
11
4.53539
21
-5.13059
0
LINE
8
BLACK
6
CONTINUOUS
10
4.53539
20
-5.13059
11
4.53914
21
-5.12684
0
LINE
8
BLACK
6
CONTINUOUS
10
4.53914
20
-5.12684
11
4.54663
21
-5.12309
0
LINE
8
BLACK
6
CONTINUOUS
10
4.54663
20
-5.12309
11
4.55788
21
-5.12309
0
LINE
8
BLACK
6
CONTINUOUS
10
4.55788
20
-5.12309
11
4.56538
21
-5.12684
0
LINE
8
BLACK
6
CONTINUOUS
10
4.56538
20
-5.12684
11
4.56913
21
-5.13059
0
LINE
8
BLACK
6
CONTINUOUS
10
4.56913
20
-5.13059
11
4.57288
21
-5.13809
0
LINE
8
BLACK
6
CONTINUOUS
10
4.57288
20
-5.13809
11
4.57288
21
-5.16058
0
LINE
8
BLACK
6
CONTINUOUS
10
4.57288
20
-5.16058
11
4.56913
21
-5.16808
0
LINE
8
BLACK
6
CONTINUOUS
10
4.56913
20
-5.16808
11
4.56538
21
-5.17183
0
LINE
8
BLACK
6
CONTINUOUS
10
4.56538
20
-5.17183
11
4.55788
21
-5.17558
0
LINE
8
BLACK
6
CONTINUOUS
10
4.55788
20
-5.17558
11
4.54663
21
-5.17558
0
LINE
8
BLACK
6
CONTINUOUS
10
4.61788
20
-5.17558
11
4.61038
21
-5.17183
0
LINE
8
BLACK
6
CONTINUOUS
10
4.61038
20
-5.17183
11
4.60663
21
-5.16433
0
LINE
8
BLACK
6
CONTINUOUS
10
4.60663
20
-5.16433
11
4.60663
21
-5.09684
0
LINE
8
BLACK
6
CONTINUOUS
10
4.67787
20
-5.17183
11
4.67037
21
-5.17558
0
LINE
8
BLACK
6
CONTINUOUS
10
4.67037
20
-5.17558
11
4.65537
21
-5.17558
0
LINE
8
BLACK
6
CONTINUOUS
10
4.65537
20
-5.17558
11
4.64787
21
-5.17183
0
LINE
8
BLACK
6
CONTINUOUS
10
4.64787
20
-5.17183
11
4.64412
21
-5.16433
0
LINE
8
BLACK
6
CONTINUOUS
10
4.64412
20
-5.16433
11
4.64412
21
-5.13434
0
LINE
8
BLACK
6
CONTINUOUS
10
4.64412
20
-5.13434
11
4.64787
21
-5.12684
0
LINE
8
BLACK
6
CONTINUOUS
10
4.64787
20
-5.12684
11
4.65537
21
-5.12309
0
LINE
8
BLACK
6
CONTINUOUS
10
4.65537
20
-5.12309
11
4.67037
21
-5.12309
0
LINE
8
BLACK
6
CONTINUOUS
10
4.67037
20
-5.12309
11
4.67787
21
-5.12684
0
LINE
8
BLACK
6
CONTINUOUS
10
4.67787
20
-5.12684
11
4.68162
21
-5.13434
0
LINE
8
BLACK
6
CONTINUOUS
10
4.68162
20
-5.13434
11
4.68162
21
-5.14184
0
LINE
8
BLACK
6
CONTINUOUS
10
4.68162
20
-5.14184
11
4.64412
21
-5.14933
0
LINE
8
BLACK
6
CONTINUOUS
10
4.71161
20
-5.17183
11
4.71911
21
-5.17558
0
LINE
8
BLACK
6
CONTINUOUS
10
4.71911
20
-5.17558
11
4.73411
21
-5.17558
0
LINE
8
BLACK
6
CONTINUOUS
10
4.73411
20
-5.17558
11
4.74161
21
-5.17183
0
LINE
8
BLACK
6
CONTINUOUS
10
4.74161
20
-5.17183
11
4.74536
21
-5.16433
0
LINE
8
BLACK
6
CONTINUOUS
10
4.74536
20
-5.16433
11
4.74536
21
-5.16058
0
LINE
8
BLACK
6
CONTINUOUS
10
4.74536
20
-5.16058
11
4.74161
21
-5.15308
0
LINE
8
BLACK
6
CONTINUOUS
10
4.74161
20
-5.15308
11
4.73411
21
-5.14933
0
LINE
8
BLACK
6
CONTINUOUS
10
4.73411
20
-5.14933
11
4.72286
21
-5.14933
0
LINE
8
BLACK
6
CONTINUOUS
10
4.72286
20
-5.14933
11
4.71536
21
-5.14558
0
LINE
8
BLACK
6
CONTINUOUS
10
4.71536
20
-5.14558
11
4.71161
21
-5.13809
0
LINE
8
BLACK
6
CONTINUOUS
10
4.71161
20
-5.13809
11
4.71161
21
-5.13434
0
LINE
8
BLACK
6
CONTINUOUS
10
4.71161
20
-5.13434
11
4.71536
21
-5.12684
0
LINE
8
BLACK
6
CONTINUOUS
10
4.71536
20
-5.12684
11
4.72286
21
-5.12309
0
LINE
8
BLACK
6
CONTINUOUS
10
4.72286
20
-5.12309
11
4.73411
21
-5.12309
0
LINE
8
BLACK
6
CONTINUOUS
10
4.73411
20
-5.12309
11
4.74161
21
-5.12684
0
LINE
8
BLACK
6
CONTINUOUS
10
4.77161
20
-5.20558
11
4.77536
21
-5.20183
0
LINE
8
BLACK
6
CONTINUOUS
10
4.77536
20
-5.20183
11
4.78286
21
-5.19058
0
LINE
8
BLACK
6
CONTINUOUS
10
4.78286
20
-5.19058
11
4.7866
21
-5.18308
0
LINE
8
BLACK
6
CONTINUOUS
10
4.7866
20
-5.18308
11
4.79035
21
-5.17183
0
LINE
8
BLACK
6
CONTINUOUS
10
4.79035
20
-5.17183
11
4.7941
21
-5.15308
0
LINE
8
BLACK
6
CONTINUOUS
10
4.7941
20
-5.15308
11
4.7941
21
-5.13809
0
LINE
8
BLACK
6
CONTINUOUS
10
4.7941
20
-5.13809
11
4.79035
21
-5.11934
0
LINE
8
BLACK
6
CONTINUOUS
10
4.79035
20
-5.11934
11
4.7866
21
-5.10809
0
LINE
8
BLACK
6
CONTINUOUS
10
4.7866
20
-5.10809
11
4.78286
21
-5.10059
0
LINE
8
BLACK
6
CONTINUOUS
10
4.78286
20
-5.10059
11
4.77536
21
-5.08934
0
LINE
8
BLACK
6
CONTINUOUS
10
4.77536
20
-5.08934
11
4.77161
21
-5.08559
0
LINE
8
BLACK
6
CONTINUOUS
10
4.90134
20
-5.20558
11
4.89759
21
-5.20183
0
LINE
8
BLACK
6
CONTINUOUS
10
4.89759
20
-5.20183
11
4.89009
21
-5.19058
0
LINE
8
BLACK
6
CONTINUOUS
10
4.89009
20
-5.19058
11
4.88634
21
-5.18308
0
LINE
8
BLACK
6
CONTINUOUS
10
4.88634
20
-5.18308
11
4.88259
21
-5.17183
0
LINE
8
BLACK
6
CONTINUOUS
10
4.88259
20
-5.17183
11
4.87884
21
-5.15308
0
LINE
8
BLACK
6
CONTINUOUS
10
4.87884
20
-5.15308
11
4.87884
21
-5.13809
0
LINE
8
BLACK
6
CONTINUOUS
10
4.87884
20
-5.13809
11
4.88259
21
-5.11934
0
LINE
8
BLACK
6
CONTINUOUS
10
4.88259
20
-5.11934
11
4.88634
21
-5.10809
0
LINE
8
BLACK
6
CONTINUOUS
10
4.88634
20
-5.10809
11
4.89009
21
-5.10059
0
LINE
8
BLACK
6
CONTINUOUS
10
4.89009
20
-5.10059
11
4.89759
21
-5.08934
0
LINE
8
BLACK
6
CONTINUOUS
10
4.89759
20
-5.08934
11
4.90134
21
-5.08559
0
LINE
8
BLACK
6
CONTINUOUS
10
4.93134
20
-5.12309
11
4.93134
21
-5.17558
0
LINE
8
BLACK
6
CONTINUOUS
10
4.93134
20
-5.13059
11
4.93509
21
-5.12684
0
LINE
8
BLACK
6
CONTINUOUS
10
4.93509
20
-5.12684
11
4.94259
21
-5.12309
0
LINE
8
BLACK
6
CONTINUOUS
10
4.94259
20
-5.12309
11
4.95383
21
-5.12309
0
LINE
8
BLACK
6
CONTINUOUS
10
4.95383
20
-5.12309
11
4.96133
21
-5.12684
0
LINE
8
BLACK
6
CONTINUOUS
10
4.96133
20
-5.12684
11
4.96508
21
-5.13434
0
LINE
8
BLACK
6
CONTINUOUS
10
4.96508
20
-5.13434
11
4.96508
21
-5.17558
0
LINE
8
BLACK
6
CONTINUOUS
10
5.01383
20
-5.17558
11
5.00633
21
-5.17183
0
LINE
8
BLACK
6
CONTINUOUS
10
5.00633
20
-5.17183
11
5.00258
21
-5.16808
0
LINE
8
BLACK
6
CONTINUOUS
10
5.00258
20
-5.16808
11
4.99883
21
-5.16058
0
LINE
8
BLACK
6
CONTINUOUS
10
4.99883
20
-5.16058
11
4.99883
21
-5.13809
0
LINE
8
BLACK
6
CONTINUOUS
10
4.99883
20
-5.13809
11
5.00258
21
-5.13059
0
LINE
8
BLACK
6
CONTINUOUS
10
5.00258
20
-5.13059
11
5.00633
21
-5.12684
0
LINE
8
BLACK
6
CONTINUOUS
10
5.00633
20
-5.12684
11
5.01383
21
-5.12309
0
LINE
8
BLACK
6
CONTINUOUS
10
5.01383
20
-5.12309
11
5.02508
21
-5.12309
0
LINE
8
BLACK
6
CONTINUOUS
10
5.02508
20
-5.12309
11
5.03257
21
-5.12684
0
LINE
8
BLACK
6
CONTINUOUS
10
5.03257
20
-5.12684
11
5.03632
21
-5.13059
0
LINE
8
BLACK
6
CONTINUOUS
10
5.03632
20
-5.13059
11
5.04007
21
-5.13809
0
LINE
8
BLACK
6
CONTINUOUS
10
5.04007
20
-5.13809
11
5.04007
21
-5.16058
0
LINE
8
BLACK
6
CONTINUOUS
10
5.04007
20
-5.16058
11
5.03632
21
-5.16808
0
LINE
8
BLACK
6
CONTINUOUS
10
5.03632
20
-5.16808
11
5.03257
21
-5.17183
0
LINE
8
BLACK
6
CONTINUOUS
10
5.03257
20
-5.17183
11
5.02508
21
-5.17558
0
LINE
8
BLACK
6
CONTINUOUS
10
5.02508
20
-5.17558
11
5.01383
21
-5.17558
0
LINE
8
BLACK
6
CONTINUOUS
10
5.06257
20
-5.12309
11
5.09257
21
-5.12309
0
LINE
8
BLACK
6
CONTINUOUS
10
5.07382
20
-5.09684
11
5.07382
21
-5.16433
0
LINE
8
BLACK
6
CONTINUOUS
10
5.07382
20
-5.16433
11
5.07757
21
-5.17183
0
LINE
8
BLACK
6
CONTINUOUS
10
5.07757
20
-5.17183
11
5.08507
21
-5.17558
0
LINE
8
BLACK
6
CONTINUOUS
10
5.08507
20
-5.17558
11
5.09257
21
-5.17558
0
LINE
8
BLACK
6
CONTINUOUS
10
5.16606
20
-5.12309
11
5.16606
21
-5.20183
0
LINE
8
BLACK
6
CONTINUOUS
10
5.16606
20
-5.12684
11
5.17356
21
-5.12309
0
LINE
8
BLACK
6
CONTINUOUS
10
5.17356
20
-5.12309
11
5.18855
21
-5.12309
0
LINE
8
BLACK
6
CONTINUOUS
10
5.18855
20
-5.12309
11
5.19605
21
-5.12684
0
LINE
8
BLACK
6
CONTINUOUS
10
5.19605
20
-5.12684
11
5.1998
21
-5.13059
0
LINE
8
BLACK
6
CONTINUOUS
10
5.1998
20
-5.13059
11
5.20355
21
-5.13809
0
LINE
8
BLACK
6
CONTINUOUS
10
5.20355
20
-5.13809
11
5.20355
21
-5.16058
0
LINE
8
BLACK
6
CONTINUOUS
10
5.20355
20
-5.16058
11
5.1998
21
-5.16808
0
LINE
8
BLACK
6
CONTINUOUS
10
5.1998
20
-5.16808
11
5.19605
21
-5.17183
0
LINE
8
BLACK
6
CONTINUOUS
10
5.19605
20
-5.17183
11
5.18855
21
-5.17558
0
LINE
8
BLACK
6
CONTINUOUS
10
5.18855
20
-5.17558
11
5.17356
21
-5.17558
0
LINE
8
BLACK
6
CONTINUOUS
10
5.17356
20
-5.17558
11
5.16606
21
-5.17183
0
LINE
8
BLACK
6
CONTINUOUS
10
5.24855
20
-5.17558
11
5.24105
21
-5.17183
0
LINE
8
BLACK
6
CONTINUOUS
10
5.24105
20
-5.17183
11
5.2373
21
-5.16433
0
LINE
8
BLACK
6
CONTINUOUS
10
5.2373
20
-5.16433
11
5.2373
21
-5.09684
0
LINE
8
BLACK
6
CONTINUOUS
10
5.31229
20
-5.17558
11
5.31229
21
-5.13434
0
LINE
8
BLACK
6
CONTINUOUS
10
5.31229
20
-5.13434
11
5.30854
21
-5.12684
0
LINE
8
BLACK
6
CONTINUOUS
10
5.30854
20
-5.12684
11
5.30104
21
-5.12309
0
LINE
8
BLACK
6
CONTINUOUS
10
5.30104
20
-5.12309
11
5.28604
21
-5.12309
0
LINE
8
BLACK
6
CONTINUOUS
10
5.28604
20
-5.12309
11
5.27854
21
-5.12684
0
LINE
8
BLACK
6
CONTINUOUS
10
5.31229
20
-5.17183
11
5.30479
21
-5.17558
0
LINE
8
BLACK
6
CONTINUOUS
10
5.30479
20
-5.17558
11
5.28604
21
-5.17558
0
LINE
8
BLACK
6
CONTINUOUS
10
5.28604
20
-5.17558
11
5.27854
21
-5.17183
0
LINE
8
BLACK
6
CONTINUOUS
10
5.27854
20
-5.17183
11
5.27479
21
-5.16433
0
LINE
8
BLACK
6
CONTINUOUS
10
5.27479
20
-5.16433
11
5.27479
21
-5.15683
0
LINE
8
BLACK
6
CONTINUOUS
10
5.27479
20
-5.15683
11
5.27854
21
-5.14933
0
LINE
8
BLACK
6
CONTINUOUS
10
5.27854
20
-5.14933
11
5.28604
21
-5.14558
0
LINE
8
BLACK
6
CONTINUOUS
10
5.28604
20
-5.14558
11
5.30479
21
-5.14558
0
LINE
8
BLACK
6
CONTINUOUS
10
5.30479
20
-5.14558
11
5.31229
21
-5.14184
0
LINE
8
BLACK
6
CONTINUOUS
10
5.33854
20
-5.12309
11
5.36853
21
-5.12309
0
LINE
8
BLACK
6
CONTINUOUS
10
5.34978
20
-5.09684
11
5.34978
21
-5.16433
0
LINE
8
BLACK
6
CONTINUOUS
10
5.34978
20
-5.16433
11
5.35353
21
-5.17183
0
LINE
8
BLACK
6
CONTINUOUS
10
5.35353
20
-5.17183
11
5.36103
21
-5.17558
0
LINE
8
BLACK
6
CONTINUOUS
10
5.36103
20
-5.17558
11
5.36853
21
-5.17558
0
LINE
8
BLACK
6
CONTINUOUS
10
5.42478
20
-5.17183
11
5.41728
21
-5.17558
0
LINE
8
BLACK
6
CONTINUOUS
10
5.41728
20
-5.17558
11
5.40228
21
-5.17558
0
LINE
8
BLACK
6
CONTINUOUS
10
5.40228
20
-5.17558
11
5.39478
21
-5.17183
0
LINE
8
BLACK
6
CONTINUOUS
10
5.39478
20
-5.17183
11
5.39103
21
-5.16433
0
LINE
8
BLACK
6
CONTINUOUS
10
5.39103
20
-5.16433
11
5.39103
21
-5.13434
0
LINE
8
BLACK
6
CONTINUOUS
10
5.39103
20
-5.13434
11
5.39478
21
-5.12684
0
LINE
8
BLACK
6
CONTINUOUS
10
5.39478
20
-5.12684
11
5.40228
21
-5.12309
0
LINE
8
BLACK
6
CONTINUOUS
10
5.40228
20
-5.12309
11
5.41728
21
-5.12309
0
LINE
8
BLACK
6
CONTINUOUS
10
5.41728
20
-5.12309
11
5.42478
21
-5.12684
0
LINE
8
BLACK
6
CONTINUOUS
10
5.42478
20
-5.12684
11
5.42852
21
-5.13434
0
LINE
8
BLACK
6
CONTINUOUS
10
5.42852
20
-5.13434
11
5.42852
21
-5.14184
0
LINE
8
BLACK
6
CONTINUOUS
10
5.42852
20
-5.14184
11
5.39103
21
-5.14933
0
LINE
8
BLACK
6
CONTINUOUS
10
5.49602
20
-5.17558
11
5.49602
21
-5.09684
0
LINE
8
BLACK
6
CONTINUOUS
10
5.49602
20
-5.17183
11
5.48852
21
-5.17558
0
LINE
8
BLACK
6
CONTINUOUS
10
5.48852
20
-5.17558
11
5.47352
21
-5.17558
0
LINE
8
BLACK
6
CONTINUOUS
10
5.47352
20
-5.17558
11
5.46602
21
-5.17183
0
LINE
8
BLACK
6
CONTINUOUS
10
5.46602
20
-5.17183
11
5.46227
21
-5.16808
0
LINE
8
BLACK
6
CONTINUOUS
10
5.46227
20
-5.16808
11
5.45852
21
-5.16058
0
LINE
8
BLACK
6
CONTINUOUS
10
5.45852
20
-5.16058
11
5.45852
21
-5.13809
0
LINE
8
BLACK
6
CONTINUOUS
10
5.45852
20
-5.13809
11
5.46227
21
-5.13059
0
LINE
8
BLACK
6
CONTINUOUS
10
5.46227
20
-5.13059
11
5.46602
21
-5.12684
0
LINE
8
BLACK
6
CONTINUOUS
10
5.46602
20
-5.12684
11
5.47352
21
-5.12309
0
LINE
8
BLACK
6
CONTINUOUS
10
5.47352
20
-5.12309
11
5.48852
21
-5.12309
0
LINE
8
BLACK
6
CONTINUOUS
10
5.48852
20
-5.12309
11
5.49602
21
-5.12684
0
LINE
8
BLACK
6
CONTINUOUS
10
5.52601
20
-5.20558
11
5.52976
21
-5.20183
0
LINE
8
BLACK
6
CONTINUOUS
10
5.52976
20
-5.20183
11
5.53726
21
-5.19058
0
LINE
8
BLACK
6
CONTINUOUS
10
5.53726
20
-5.19058
11
5.54101
21
-5.18308
0
LINE
8
BLACK
6
CONTINUOUS
10
5.54101
20
-5.18308
11
5.54476
21
-5.17183
0
LINE
8
BLACK
6
CONTINUOUS
10
5.54476
20
-5.17183
11
5.54851
21
-5.15308
0
LINE
8
BLACK
6
CONTINUOUS
10
5.54851
20
-5.15308
11
5.54851
21
-5.13809
0
LINE
8
BLACK
6
CONTINUOUS
10
5.54851
20
-5.13809
11
5.54476
21
-5.11934
0
LINE
8
BLACK
6
CONTINUOUS
10
5.54476
20
-5.11934
11
5.54101
21
-5.10809
0
LINE
8
BLACK
6
CONTINUOUS
10
5.54101
20
-5.10809
11
5.53726
21
-5.10059
0
LINE
8
BLACK
6
CONTINUOUS
10
5.53726
20
-5.10059
11
5.52976
21
-5.08934
0
LINE
8
BLACK
6
CONTINUOUS
10
5.52976
20
-5.08934
11
5.52601
21
-5.08559
  0
ENDSEC
  0
EOF
