%TF.GenerationSoftware,KiCad,Pcbnew,7.0.0*%
%TF.CreationDate,2023-09-30T14:58:15+08:00*%
%TF.ProjectId,OpenNixie,4f70656e-4e69-4786-9965-2e6b69636164,v3.0*%
%TF.SameCoordinates,Original*%
%TF.FileFunction,Soldermask,Top*%
%TF.FilePolarity,Negative*%
%FSLAX46Y46*%
G04 Gerber Fmt 4.6, Leading zero omitted, Abs format (unit mm)*
G04 Created by KiCad (PCBNEW 7.0.0) date 2023-09-30 14:58:15*
%MOMM*%
%LPD*%
G01*
G04 APERTURE LIST*
G04 Aperture macros list*
%AMRoundRect*
0 Rectangle with rounded corners*
0 $1 Rounding radius*
0 $2 $3 $4 $5 $6 $7 $8 $9 X,Y pos of 4 corners*
0 Add a 4 corners polygon primitive as box body*
4,1,4,$2,$3,$4,$5,$6,$7,$8,$9,$2,$3,0*
0 Add four circle primitives for the rounded corners*
1,1,$1+$1,$2,$3*
1,1,$1+$1,$4,$5*
1,1,$1+$1,$6,$7*
1,1,$1+$1,$8,$9*
0 Add four rect primitives between the rounded corners*
20,1,$1+$1,$2,$3,$4,$5,0*
20,1,$1+$1,$4,$5,$6,$7,0*
20,1,$1+$1,$6,$7,$8,$9,0*
20,1,$1+$1,$8,$9,$2,$3,0*%
G04 Aperture macros list end*
%ADD10C,1.600000*%
%ADD11RoundRect,0.250000X-1.000000X-0.650000X1.000000X-0.650000X1.000000X0.650000X-1.000000X0.650000X0*%
%ADD12C,2.600000*%
%ADD13RoundRect,0.250000X-0.850000X-0.350000X0.850000X-0.350000X0.850000X0.350000X-0.850000X0.350000X0*%
%ADD14RoundRect,0.249997X-2.950003X-2.650003X2.950003X-2.650003X2.950003X2.650003X-2.950003X2.650003X0*%
%ADD15C,1.400000*%
%ADD16O,1.400000X1.400000*%
%ADD17O,1.600000X1.600000*%
%ADD18RoundRect,0.150000X-0.725000X-0.150000X0.725000X-0.150000X0.725000X0.150000X-0.725000X0.150000X0*%
%ADD19R,1.600000X1.600000*%
%ADD20R,1.050000X1.500000*%
%ADD21O,1.050000X1.500000*%
%ADD22C,3.200000*%
%ADD23C,1.524000*%
%ADD24R,1.700000X1.700000*%
%ADD25O,1.700000X1.700000*%
%ADD26R,1.500000X2.000000*%
%ADD27R,3.800000X2.000000*%
%ADD28R,3.500000X3.500000*%
%ADD29RoundRect,0.750000X-0.750000X-1.000000X0.750000X-1.000000X0.750000X1.000000X-0.750000X1.000000X0*%
%ADD30RoundRect,0.875000X-0.875000X-0.875000X0.875000X-0.875000X0.875000X0.875000X-0.875000X0.875000X0*%
%ADD31R,2.180000X1.600000*%
%ADD32C,1.500000*%
G04 APERTURE END LIST*
D10*
%TO.C,C5*%
X97470000Y-78200000D03*
X99970000Y-78200000D03*
%TD*%
D11*
%TO.C,D1*%
X105600000Y-73400000D03*
X109600000Y-73400000D03*
%TD*%
D12*
%TO.C,L1*%
X87900000Y-74600000D03*
X84900000Y-74600000D03*
%TD*%
D13*
%TO.C,Q2*%
X112400000Y-83840000D03*
D14*
X118700000Y-86120000D03*
D13*
X112400000Y-88400000D03*
%TD*%
D15*
%TO.C,R5*%
X101200000Y-88400000D03*
D16*
X108819999Y-88399999D03*
%TD*%
D15*
%TO.C,R6*%
X101200000Y-85000000D03*
D16*
X108819999Y-84999999D03*
%TD*%
D15*
%TO.C,R7*%
X111990000Y-80800000D03*
D16*
X119609999Y-80799999D03*
%TD*%
D10*
%TO.C,R8*%
X91920000Y-73400000D03*
D17*
X102079999Y-73399999D03*
%TD*%
D18*
%TO.C,U3*%
X103450000Y-77200000D03*
X103450000Y-78470000D03*
X103450000Y-79740000D03*
X103450000Y-81010000D03*
X108600000Y-81010000D03*
X108600000Y-79740000D03*
X108600000Y-78470000D03*
X108600000Y-77200000D03*
%TD*%
D19*
%TO.C,U6*%
X184009999Y-115619999D03*
D17*
X186549999Y-115619999D03*
X189089999Y-115619999D03*
X191629999Y-115619999D03*
X194169999Y-115619999D03*
X196709999Y-115619999D03*
X199249999Y-115619999D03*
X201789999Y-115619999D03*
X201789999Y-107999999D03*
X199249999Y-107999999D03*
X196709999Y-107999999D03*
X194169999Y-107999999D03*
X191629999Y-107999999D03*
X189089999Y-107999999D03*
X186549999Y-107999999D03*
X184009999Y-107999999D03*
%TD*%
D15*
%TO.C,R12*%
X144260000Y-115420000D03*
D16*
X144259999Y-107799999D03*
%TD*%
D20*
%TO.C,Q8*%
X119254999Y-108330152D03*
D21*
X120524999Y-108330152D03*
X121794999Y-108330152D03*
%TD*%
D20*
%TO.C,Q9*%
X119259999Y-116915152D03*
D21*
X120529999Y-116915152D03*
X121799999Y-116915152D03*
%TD*%
D10*
%TO.C,R20*%
X115480000Y-103000000D03*
D17*
X105319999Y-102999999D03*
%TD*%
D15*
%TO.C,R27*%
X198000000Y-92200000D03*
D16*
X197999999Y-99819999D03*
%TD*%
D20*
%TO.C,Q14*%
X105659999Y-96399999D03*
D21*
X106929999Y-96399999D03*
X108199999Y-96399999D03*
%TD*%
D15*
%TO.C,R14*%
X163940000Y-115410000D03*
D16*
X163939999Y-107789999D03*
%TD*%
D20*
%TO.C,Q16*%
X188259999Y-96999999D03*
D21*
X189529999Y-96999999D03*
X190799999Y-96999999D03*
%TD*%
D20*
%TO.C,Q5*%
X147859999Y-111999999D03*
D21*
X149129999Y-111999999D03*
X150399999Y-111999999D03*
%TD*%
D15*
%TO.C,R9*%
X132400000Y-87600000D03*
D16*
X124779999Y-87599999D03*
%TD*%
D19*
%TO.C,C2*%
X129052650Y-81199999D03*
D10*
X125552651Y-81200000D03*
%TD*%
D22*
%TO.C,H1*%
X78384400Y-72796400D03*
%TD*%
D10*
%TO.C,C1*%
X92270000Y-78200000D03*
X94770000Y-78200000D03*
%TD*%
D15*
%TO.C,R1*%
X154810000Y-103400000D03*
D16*
X147189999Y-103399999D03*
%TD*%
D23*
%TO.C,J4*%
X174400000Y-96200000D03*
X174400000Y-98740000D03*
X175860000Y-101200000D03*
X178400000Y-101200000D03*
X180940000Y-101200000D03*
X182400000Y-98740000D03*
X182400000Y-96200000D03*
X182400000Y-93660000D03*
X180940000Y-91200000D03*
X178400000Y-91200000D03*
X175860000Y-91200000D03*
X174400000Y-93660000D03*
%TD*%
D15*
%TO.C,R11*%
X134530000Y-115410000D03*
D16*
X134529999Y-107789999D03*
%TD*%
D24*
%TO.C,U2*%
X193749999Y-74879999D03*
D25*
X193749999Y-77419999D03*
X193749999Y-79959999D03*
X193749999Y-82499999D03*
X193749999Y-85039999D03*
%TD*%
D15*
%TO.C,R15*%
X124285000Y-112155153D03*
D16*
X116664999Y-112155152D03*
%TD*%
D22*
%TO.C,H3*%
X223469200Y-120853200D03*
%TD*%
D19*
%TO.C,U7*%
X206061999Y-115619999D03*
D17*
X208601999Y-115619999D03*
X211141999Y-115619999D03*
X213681999Y-115619999D03*
X216221999Y-115619999D03*
X218761999Y-115619999D03*
X221301999Y-115619999D03*
X223841999Y-115619999D03*
X223841999Y-107999999D03*
X221301999Y-107999999D03*
X218761999Y-107999999D03*
X216221999Y-107999999D03*
X213681999Y-107999999D03*
X211141999Y-107999999D03*
X208601999Y-107999999D03*
X206061999Y-107999999D03*
%TD*%
D20*
%TO.C,Q15*%
X160529999Y-96989999D03*
D21*
X161799999Y-96989999D03*
X163069999Y-96989999D03*
%TD*%
D23*
%TO.C,J5*%
X201900000Y-96200000D03*
X201900000Y-98740000D03*
X203360000Y-101200000D03*
X205900000Y-101200000D03*
X208440000Y-101200000D03*
X209900000Y-98740000D03*
X209900000Y-96200000D03*
X209900000Y-93660000D03*
X208440000Y-91200000D03*
X205900000Y-91200000D03*
X203360000Y-91200000D03*
X201900000Y-93660000D03*
%TD*%
%TO.C,J3*%
X119400000Y-96200000D03*
X119400000Y-98740000D03*
X120860000Y-101200000D03*
X123400000Y-101200000D03*
X125940000Y-101200000D03*
X127400000Y-98740000D03*
X127400000Y-96200000D03*
X127400000Y-93660000D03*
X125940000Y-91200000D03*
X123400000Y-91200000D03*
X120860000Y-91200000D03*
X119400000Y-93660000D03*
%TD*%
D24*
%TO.C,NE1*%
X150899999Y-96199999D03*
D25*
X150899999Y-98739999D03*
%TD*%
D23*
%TO.C,J2*%
X91900000Y-96200000D03*
X91900000Y-98740000D03*
X93360000Y-101200000D03*
X95900000Y-101200000D03*
X98440000Y-101200000D03*
X99900000Y-98740000D03*
X99900000Y-96200000D03*
X99900000Y-93660000D03*
X98440000Y-91200000D03*
X95900000Y-91200000D03*
X93360000Y-91200000D03*
X91900000Y-93660000D03*
%TD*%
D20*
%TO.C,Q11*%
X105739999Y-116935942D03*
D21*
X107009999Y-116935942D03*
X108279999Y-116935942D03*
%TD*%
D26*
%TO.C,U1*%
X93099999Y-87949999D03*
X95399999Y-87949999D03*
D27*
X95399999Y-81649999D03*
D26*
X97699999Y-87949999D03*
%TD*%
D15*
%TO.C,R24*%
X87800000Y-92400000D03*
D16*
X87799999Y-100019999D03*
%TD*%
D15*
%TO.C,R19*%
X97470000Y-112155153D03*
D16*
X89849999Y-112155152D03*
%TD*%
D22*
%TO.C,H2*%
X223418400Y-72796400D03*
%TD*%
D20*
%TO.C,Q7*%
X167469999Y-112009999D03*
D21*
X168739999Y-112009999D03*
X170009999Y-112009999D03*
%TD*%
D20*
%TO.C,Q12*%
X92329999Y-108155152D03*
D21*
X93599999Y-108155152D03*
X94869999Y-108155152D03*
%TD*%
D10*
%TO.C,R22*%
X87880000Y-103000000D03*
D17*
X77719999Y-102999999D03*
%TD*%
D20*
%TO.C,Q3*%
X92269999Y-116745152D03*
D21*
X93539999Y-116745152D03*
X94809999Y-116745152D03*
%TD*%
D19*
%TO.C,C4*%
X134394887Y-80399999D03*
D10*
X136894888Y-80400000D03*
%TD*%
D15*
%TO.C,R3*%
X173730000Y-115400000D03*
D16*
X173729999Y-107779999D03*
%TD*%
D10*
%TO.C,R21*%
X198000000Y-103000000D03*
D17*
X187839999Y-102999999D03*
%TD*%
D28*
%TO.C,J1*%
X88999999Y-83799999D03*
D29*
X83000000Y-83800000D03*
D30*
X86000000Y-88500000D03*
%TD*%
D20*
%TO.C,Q4*%
X138129999Y-112009999D03*
D21*
X139399999Y-112009999D03*
X140669999Y-112009999D03*
%TD*%
D15*
%TO.C,R18*%
X110880000Y-120765153D03*
D16*
X103259999Y-120765152D03*
%TD*%
D19*
%TO.C,U4*%
X140769999Y-87599999D03*
D17*
X143309999Y-87599999D03*
X145849999Y-87599999D03*
X148389999Y-87599999D03*
X150929999Y-87599999D03*
X153469999Y-87599999D03*
X156009999Y-87599999D03*
X158549999Y-87599999D03*
X161089999Y-87599999D03*
X163629999Y-87599999D03*
X166169999Y-87599999D03*
X168709999Y-87599999D03*
X171249999Y-87599999D03*
X173789999Y-87599999D03*
X176329999Y-87599999D03*
X178869999Y-87599999D03*
X181409999Y-87599999D03*
X183949999Y-87599999D03*
X186489999Y-87599999D03*
X189029999Y-87599999D03*
X189029999Y-72359999D03*
X186489999Y-72359999D03*
X183949999Y-72359999D03*
X181409999Y-72359999D03*
X178869999Y-72359999D03*
X176329999Y-72359999D03*
X173789999Y-72359999D03*
X171249999Y-72359999D03*
X168709999Y-72359999D03*
X166169999Y-72359999D03*
X163629999Y-72359999D03*
X161089999Y-72359999D03*
X158549999Y-72359999D03*
X156009999Y-72359999D03*
X153469999Y-72359999D03*
X150929999Y-72359999D03*
X148389999Y-72359999D03*
X145849999Y-72359999D03*
X143309999Y-72359999D03*
X140769999Y-72359999D03*
%TD*%
D15*
%TO.C,R17*%
X110870000Y-112155153D03*
D16*
X103249999Y-112155152D03*
%TD*%
D22*
%TO.C,H4*%
X78384400Y-120853200D03*
%TD*%
D10*
%TO.C,R23*%
X170400000Y-103000000D03*
D17*
X160239999Y-102999999D03*
%TD*%
D20*
%TO.C,Q10*%
X105869999Y-108125942D03*
D21*
X107139999Y-108125942D03*
X108409999Y-108125942D03*
%TD*%
D15*
%TO.C,R25*%
X115400000Y-92380000D03*
D16*
X115399999Y-99999999D03*
%TD*%
D15*
%TO.C,R26*%
X170400000Y-92380000D03*
D16*
X170399999Y-99999999D03*
%TD*%
D20*
%TO.C,Q1*%
X177259999Y-111999999D03*
D21*
X178529999Y-111999999D03*
X179799999Y-111999999D03*
%TD*%
D20*
%TO.C,Q13*%
X77999999Y-96399999D03*
D21*
X79269999Y-96399999D03*
X80539999Y-96399999D03*
%TD*%
D20*
%TO.C,Q6*%
X157739999Y-112009999D03*
D21*
X159009999Y-112009999D03*
X160279999Y-112009999D03*
%TD*%
D15*
%TO.C,R10*%
X97470000Y-120745153D03*
D16*
X89849999Y-120745152D03*
%TD*%
D15*
%TO.C,R13*%
X154140000Y-115410000D03*
D16*
X154139999Y-107789999D03*
%TD*%
D31*
%TO.C,SW1*%
X124219999Y-73399999D03*
X133399999Y-73399999D03*
%TD*%
D15*
%TO.C,R16*%
X124410000Y-120765153D03*
D16*
X116789999Y-120765152D03*
%TD*%
D19*
%TO.C,C3*%
X118002650Y-74599999D03*
D10*
X114202651Y-74600000D03*
%TD*%
D15*
%TO.C,R2*%
X166160000Y-78200000D03*
D16*
X158539999Y-78199999D03*
%TD*%
D10*
%TO.C,C8*%
X171300000Y-82600000D03*
X173800000Y-82600000D03*
%TD*%
D32*
%TO.C,Y1*%
X161100000Y-82600000D03*
X166000000Y-82600000D03*
%TD*%
D10*
%TO.C,C7*%
X142100000Y-78150000D03*
X142100000Y-80650000D03*
%TD*%
%TO.C,C6*%
X176700000Y-82600000D03*
X179200000Y-82600000D03*
%TD*%
D15*
%TO.C,R4*%
X166160000Y-75600000D03*
D16*
X158539999Y-75599999D03*
%TD*%
M02*
