  0
SECTION
  2
HEADER
  9
$ANGBASE
  50
0.0
  9
$ANGDIR
  70
1
  9
$MEASUREMENT
  70
0
  0
ENDSEC
  0
SECTION
  2
TABLES
  0
TABLE
  2
LTYPE
  70
4
  0
LTYPE
  5
40F
  2
CONTINUOUS
  70
0
  3
Solid line
  72
65
  73
0
  40
0.0
  0
LTYPE
  5
410
  2
DASHDOT
 70
0
  3
Dash Dot ____ _ ____ _
 72
65
 73
4
 40
2.0
 49
1.25
 49
-0.25
 49
0.25
 49
-0.25
  0
LTYPE
  5
411
  2
DASHED
 70
0
  3
Dashed __ __ __ __ __
 72
65
 73
2
 40
0.75
 49
0.5
 49
-0.25
  0
LTYPE
  5
43B
  2
DOTTED
 70
0
  3
Dotted .  .  .  .
 72
65
 73
2
 40
0.2
 49
0.0
 49
-0.2
  0
ENDTAB
  0
TABLE
  2
STYLE
  70
4
  0
STYLE
  2
KICAD
  70
0
  40
0
  41
1
  42
1
  50
0
  71
0
  3
isocp.shx
  0
STYLE
  2
KICADB
  70
0
  40
0
  41
1
  42
1
  50
0
  71
0
  3
isocp.shx
  0
STYLE
  2
KICADI
  70
0
  40
0
  41
1
  42
1
  50
15
  71
0
  3
isocp.shx
  0
STYLE
  2
KICADBI
  70
0
  40
0
  41
1
  42
1
  50
15
  71
0
  3
isocp.shx
  0
ENDTAB
  0
TABLE
  2
LAYER
  70
1
  0
LAYER
  2
BLACK
  70
0
  62
7
  6
CONTINUOUS
  0
ENDTAB
  0
ENDSEC
  0
SECTION
  2
ENTITIES
0
LINE
8
BLACK
6
CONTINUOUS
10
3.04724
20
-2.72835
11
8.83465
21
-2.72835
0
LINE
8
BLACK
6
CONTINUOUS
10
8.93307
20
-4.79528
11
8.93307
21
-2.82677
0
LINE
8
BLACK
6
CONTINUOUS
10
2.94882
20
-4.79528
11
2.94882
21
-2.82677
0
ARC
8
BLACK
10
3.04724
20
-4.79528
40
0.0984252
50
-180
51
-90
0
LINE
8
BLACK
6
CONTINUOUS
10
3.04724
20
-4.8937
11
8.83465
21
-4.8937
0
ARC
8
BLACK
10
3.04724
20
-2.82677
40
0.0984252
50
90
51
180
0
ARC
8
BLACK
10
8.83465
20
-2.82677
40
0.0984252
50
-0
51
90
0
ARC
8
BLACK
10
8.83465
20
-4.79528
40
0.0984252
50
-90
51
-0
0
LINE
8
BLACK
6
CONTINUOUS
10
3.44213
20
-4.26213
11
3.45787
21
-4.27787
0
LINE
8
BLACK
6
CONTINUOUS
10
3.45787
20
-4.26213
11
3.44213
21
-4.27787
0
LINE
8
BLACK
6
CONTINUOUS
10
3.55213
20
-4.22613
11
3.56787
21
-4.24187
0
LINE
8
BLACK
6
CONTINUOUS
10
3.56787
20
-4.22613
11
3.55213
21
-4.24187
0
LINE
8
BLACK
6
CONTINUOUS
10
3.94213
20
-3.42213
11
3.95787
21
-3.43787
0
LINE
8
BLACK
6
CONTINUOUS
10
3.95787
20
-3.42213
11
3.94213
21
-3.43787
0
LINE
8
BLACK
6
CONTINUOUS
10
4.13231
20
-3.86802
11
4.14806
21
-3.88377
0
LINE
8
BLACK
6
CONTINUOUS
10
4.14806
20
-3.86802
11
4.13231
21
-3.88377
0
LINE
8
BLACK
6
CONTINUOUS
10
4.26213
20
-3.40213
11
4.27787
21
-3.41787
0
LINE
8
BLACK
6
CONTINUOUS
10
4.27787
20
-3.40213
11
4.26213
21
-3.41787
0
LINE
8
BLACK
6
CONTINUOUS
10
4.45213
20
-3.63213
11
4.46787
21
-3.64787
0
LINE
8
BLACK
6
CONTINUOUS
10
4.46787
20
-3.63213
11
4.45213
21
-3.64787
0
LINE
8
BLACK
6
CONTINUOUS
10
4.56213
20
-3.46213
11
4.57787
21
-3.47787
0
LINE
8
BLACK
6
CONTINUOUS
10
4.57787
20
-3.46213
11
4.56213
21
-3.47787
0
LINE
8
BLACK
6
CONTINUOUS
10
4.79035
20
-4.41142
11
4.8061
21
-4.42717
0
LINE
8
BLACK
6
CONTINUOUS
10
4.8061
20
-4.41142
11
4.79035
21
-4.42717
0
LINE
8
BLACK
6
CONTINUOUS
10
6.58661
20
-3.88976
11
6.60236
21
-3.90551
0
LINE
8
BLACK
6
CONTINUOUS
10
6.60236
20
-3.88976
11
6.58661
21
-3.90551
0
LINE
8
BLACK
6
CONTINUOUS
10
6.95213
20
-3.79213
11
6.96787
21
-3.80787
0
LINE
8
BLACK
6
CONTINUOUS
10
6.96787
20
-3.79213
11
6.95213
21
-3.80787
0
LINE
8
BLACK
6
CONTINUOUS
10
7.2687
20
-3.98819
11
7.28445
21
-4.00394
0
LINE
8
BLACK
6
CONTINUOUS
10
7.28445
20
-3.98819
11
7.2687
21
-4.00394
0
LINE
8
BLACK
6
CONTINUOUS
10
7.57087
20
-3.44685
11
7.58661
21
-3.4626
0
LINE
8
BLACK
6
CONTINUOUS
10
7.58661
20
-3.44685
11
7.57087
21
-3.4626
0
LINE
8
BLACK
6
CONTINUOUS
10
7.72638
20
-3.49705
11
7.74213
21
-3.5128
0
LINE
8
BLACK
6
CONTINUOUS
10
7.74213
20
-3.49705
11
7.72638
21
-3.5128
0
LINE
8
BLACK
6
CONTINUOUS
10
7.78213
20
-4.23813
11
7.79787
21
-4.25387
0
LINE
8
BLACK
6
CONTINUOUS
10
7.79787
20
-4.23813
11
7.78213
21
-4.25387
0
LINE
8
BLACK
6
CONTINUOUS
10
7.99803
20
-3.72539
11
8.01378
21
-3.74114
0
LINE
8
BLACK
6
CONTINUOUS
10
8.01378
20
-3.72539
11
7.99803
21
-3.74114
0
LINE
8
BLACK
6
CONTINUOUS
10
8.04528
20
-3.66634
11
8.06102
21
-3.68209
0
LINE
8
BLACK
6
CONTINUOUS
10
8.06102
20
-3.66634
11
8.04528
21
-3.68209
0
CIRCLE
8
BLACK
10
3.13
20
-4.33
40
0.0137795
0
CIRCLE
8
BLACK
10
3.13
20
-4.53
40
0.0137795
0
CIRCLE
8
BLACK
10
3.27
20
-4.59
40
0.0137795
0
CIRCLE
8
BLACK
10
3.47
20
-4.59
40
0.0137795
0
CIRCLE
8
BLACK
10
3.73
20
-3.07
40
0.0137795
0
CIRCLE
8
BLACK
10
3.93
20
-3.07
40
0.0137795
0
CIRCLE
8
BLACK
10
4.09
20
-3.2
40
0.0137795
0
CIRCLE
8
BLACK
10
4.29
20
-3.2
40
0.0137795
0
CIRCLE
8
BLACK
10
4.41
20
-3.2
40
0.0137795
0
CIRCLE
8
BLACK
10
4.61
20
-3.2
40
0.0137795
0
CIRCLE
8
BLACK
10
5.21
20
-3.94
40
0.0137795
0
CIRCLE
8
BLACK
10
5.41
20
-3.94
40
0.0137795
0
CIRCLE
8
BLACK
10
5.53
20
-4.59
40
0.0137795
0
CIRCLE
8
BLACK
10
5.6
20
-3.74
40
0.0137795
0
CIRCLE
8
BLACK
10
5.6
20
-3.94
40
0.0137795
0
CIRCLE
8
BLACK
10
5.73
20
-4.59
40
0.0137795
0
CIRCLE
8
BLACK
10
5.75
20
-3.74
40
0.0137795
0
CIRCLE
8
BLACK
10
5.75
20
-3.94
40
0.0137795
0
CIRCLE
8
BLACK
10
5.86614
20
-4.58957
40
0.0137795
0
CIRCLE
8
BLACK
10
6.06614
20
-4.58957
40
0.0137795
0
CIRCLE
8
BLACK
10
6.20217
20
-4.58858
40
0.0137795
0
CIRCLE
8
BLACK
10
6.34
20
-3.68
40
0.0137795
0
CIRCLE
8
BLACK
10
6.34
20
-3.88
40
0.0137795
0
CIRCLE
8
BLACK
10
6.40217
20
-4.58858
40
0.0137795
0
CIRCLE
8
BLACK
10
6.45
20
-3.96
40
0.0137795
0
CIRCLE
8
BLACK
10
6.53189
20
-4.5876
40
0.0137795
0
CIRCLE
8
BLACK
10
6.65
20
-3.96
40
0.0137795
0
CIRCLE
8
BLACK
10
6.73189
20
-4.5876
40
0.0137795
0
CIRCLE
8
BLACK
10
6.86161
20
-4.58563
40
0.0137795
0
CIRCLE
8
BLACK
10
7.06161
20
-4.58563
40
0.0137795
0
CIRCLE
8
BLACK
10
7.20945
20
-4.58465
40
0.0137795
0
CIRCLE
8
BLACK
10
7.40945
20
-4.58465
40
0.0137795
0
CIRCLE
8
BLACK
10
7.43
20
-3.68
40
0.0137795
0
CIRCLE
8
BLACK
10
7.43
20
-3.88
40
0.0137795
0
CIRCLE
8
BLACK
10
7.54823
20
-4.58465
40
0.0137795
0
CIRCLE
8
BLACK
10
7.56
20
-3.94
40
0.0137795
0
CIRCLE
8
BLACK
10
7.74823
20
-4.58465
40
0.0137795
0
CIRCLE
8
BLACK
10
7.76
20
-3.94
40
0.0137795
0
CIRCLE
8
BLACK
10
7.90354
20
-4.58465
40
0.0137795
0
CIRCLE
8
BLACK
10
8.10354
20
-4.58465
40
0.0137795
0
CIRCLE
8
BLACK
10
8.24744
20
-4.58366
40
0.0137795
0
CIRCLE
8
BLACK
10
8.44744
20
-4.58366
40
0.0137795
0
CIRCLE
8
BLACK
10
8.50394
20
-3.59646
40
0.0137795
0
CIRCLE
8
BLACK
10
8.50394
20
-4.06824
40
0.0137795
0
CIRCLE
8
BLACK
10
8.70394
20
-3.59646
40
0.0137795
0
CIRCLE
8
BLACK
10
8.70394
20
-4.06824
40
0.0137795
0
LINE
8
BLACK
6
CONTINUOUS
10
3.32
20
-4.38524
11
3.32
21
-4.41476
0
LINE
8
BLACK
6
CONTINUOUS
10
3.30524
20
-4.4
11
3.33476
21
-4.4
0
LINE
8
BLACK
6
CONTINUOUS
10
3.37
20
-4.38524
11
3.37
21
-4.41476
0
LINE
8
BLACK
6
CONTINUOUS
10
3.35524
20
-4.4
11
3.38476
21
-4.4
0
LINE
8
BLACK
6
CONTINUOUS
10
3.42
20
-4.38524
11
3.42
21
-4.41476
0
LINE
8
BLACK
6
CONTINUOUS
10
3.40524
20
-4.4
11
3.43476
21
-4.4
0
LINE
8
BLACK
6
CONTINUOUS
10
5.26
20
-3.73524
11
5.26
21
-3.76476
0
LINE
8
BLACK
6
CONTINUOUS
10
5.24524
20
-3.75
11
5.27476
21
-3.75
0
LINE
8
BLACK
6
CONTINUOUS
10
5.31
20
-3.73524
11
5.31
21
-3.76476
0
LINE
8
BLACK
6
CONTINUOUS
10
5.29524
20
-3.75
11
5.32476
21
-3.75
0
LINE
8
BLACK
6
CONTINUOUS
10
5.36
20
-3.73524
11
5.36
21
-3.76476
0
LINE
8
BLACK
6
CONTINUOUS
10
5.34524
20
-3.75
11
5.37476
21
-3.75
0
LINE
8
BLACK
6
CONTINUOUS
10
5.58
20
-4.36941
11
5.58
21
-4.39894
0
LINE
8
BLACK
6
CONTINUOUS
10
5.56524
20
-4.38417
11
5.59476
21
-4.38417
0
LINE
8
BLACK
6
CONTINUOUS
10
5.63
20
-4.36941
11
5.63
21
-4.39894
0
LINE
8
BLACK
6
CONTINUOUS
10
5.61524
20
-4.38417
11
5.64476
21
-4.38417
0
LINE
8
BLACK
6
CONTINUOUS
10
5.68
20
-4.36941
11
5.68
21
-4.39894
0
LINE
8
BLACK
6
CONTINUOUS
10
5.66524
20
-4.38417
11
5.69476
21
-4.38417
0
LINE
8
BLACK
6
CONTINUOUS
10
5.91614
20
-4.36909
11
5.91614
21
-4.39862
0
LINE
8
BLACK
6
CONTINUOUS
10
5.90138
20
-4.38386
11
5.93091
21
-4.38386
0
LINE
8
BLACK
6
CONTINUOUS
10
5.96614
20
-4.36909
11
5.96614
21
-4.39862
0
LINE
8
BLACK
6
CONTINUOUS
10
5.95138
20
-4.38386
11
5.98091
21
-4.38386
0
LINE
8
BLACK
6
CONTINUOUS
10
6.01614
20
-4.36909
11
6.01614
21
-4.39862
0
LINE
8
BLACK
6
CONTINUOUS
10
6.00138
20
-4.38386
11
6.03091
21
-4.38386
0
LINE
8
BLACK
6
CONTINUOUS
10
6.25217
20
-4.36382
11
6.25217
21
-4.39335
0
LINE
8
BLACK
6
CONTINUOUS
10
6.2374
20
-4.37858
11
6.26693
21
-4.37858
0
LINE
8
BLACK
6
CONTINUOUS
10
6.30217
20
-4.36382
11
6.30217
21
-4.39335
0
LINE
8
BLACK
6
CONTINUOUS
10
6.2874
20
-4.37858
11
6.31693
21
-4.37858
0
LINE
8
BLACK
6
CONTINUOUS
10
6.35217
20
-4.36382
11
6.35217
21
-4.39335
0
LINE
8
BLACK
6
CONTINUOUS
10
6.3374
20
-4.37858
11
6.36693
21
-4.37858
0
LINE
8
BLACK
6
CONTINUOUS
10
6.51
20
-3.73524
11
6.51
21
-3.76476
0
LINE
8
BLACK
6
CONTINUOUS
10
6.49524
20
-3.75
11
6.52476
21
-3.75
0
LINE
8
BLACK
6
CONTINUOUS
10
6.56
20
-3.73524
11
6.56
21
-3.76476
0
LINE
8
BLACK
6
CONTINUOUS
10
6.54524
20
-3.75
11
6.57476
21
-3.75
0
LINE
8
BLACK
6
CONTINUOUS
10
6.58287
20
-4.3622
11
6.58287
21
-4.39173
0
LINE
8
BLACK
6
CONTINUOUS
10
6.56811
20
-4.37697
11
6.59764
21
-4.37697
0
LINE
8
BLACK
6
CONTINUOUS
10
6.61
20
-3.73524
11
6.61
21
-3.76476
0
LINE
8
BLACK
6
CONTINUOUS
10
6.59524
20
-3.75
11
6.62476
21
-3.75
0
LINE
8
BLACK
6
CONTINUOUS
10
6.63287
20
-4.3622
11
6.63287
21
-4.39173
0
LINE
8
BLACK
6
CONTINUOUS
10
6.61811
20
-4.37697
11
6.64764
21
-4.37697
0
LINE
8
BLACK
6
CONTINUOUS
10
6.68287
20
-4.3622
11
6.68287
21
-4.39173
0
LINE
8
BLACK
6
CONTINUOUS
10
6.66811
20
-4.37697
11
6.69764
21
-4.37697
0
LINE
8
BLACK
6
CONTINUOUS
10
6.91181
20
-4.3622
11
6.91181
21
-4.39173
0
LINE
8
BLACK
6
CONTINUOUS
10
6.89705
20
-4.37697
11
6.92657
21
-4.37697
0
LINE
8
BLACK
6
CONTINUOUS
10
6.96181
20
-4.3622
11
6.96181
21
-4.39173
0
LINE
8
BLACK
6
CONTINUOUS
10
6.94705
20
-4.37697
11
6.97657
21
-4.37697
0
LINE
8
BLACK
6
CONTINUOUS
10
7.01181
20
-4.3622
11
7.01181
21
-4.39173
0
LINE
8
BLACK
6
CONTINUOUS
10
6.99705
20
-4.37697
11
7.02657
21
-4.37697
0
LINE
8
BLACK
6
CONTINUOUS
10
7.25945
20
-4.35988
11
7.25945
21
-4.38941
0
LINE
8
BLACK
6
CONTINUOUS
10
7.24469
20
-4.37465
11
7.27421
21
-4.37465
0
LINE
8
BLACK
6
CONTINUOUS
10
7.30945
20
-4.35988
11
7.30945
21
-4.38941
0
LINE
8
BLACK
6
CONTINUOUS
10
7.29469
20
-4.37465
11
7.32421
21
-4.37465
0
LINE
8
BLACK
6
CONTINUOUS
10
7.35945
20
-4.35988
11
7.35945
21
-4.38941
0
LINE
8
BLACK
6
CONTINUOUS
10
7.34469
20
-4.37465
11
7.37421
21
-4.37465
0
LINE
8
BLACK
6
CONTINUOUS
10
7.60823
20
-4.35988
11
7.60823
21
-4.38941
0
LINE
8
BLACK
6
CONTINUOUS
10
7.59346
20
-4.37465
11
7.62299
21
-4.37465
0
LINE
8
BLACK
6
CONTINUOUS
10
7.61622
20
-3.7372
11
7.61622
21
-3.76673
0
LINE
8
BLACK
6
CONTINUOUS
10
7.60146
20
-3.75197
11
7.63098
21
-3.75197
0
LINE
8
BLACK
6
CONTINUOUS
10
7.65823
20
-4.35988
11
7.65823
21
-4.38941
0
LINE
8
BLACK
6
CONTINUOUS
10
7.64346
20
-4.37465
11
7.67299
21
-4.37465
0
LINE
8
BLACK
6
CONTINUOUS
10
7.66622
20
-3.7372
11
7.66622
21
-3.76673
0
LINE
8
BLACK
6
CONTINUOUS
10
7.65146
20
-3.75197
11
7.68098
21
-3.75197
0
LINE
8
BLACK
6
CONTINUOUS
10
7.70823
20
-4.35988
11
7.70823
21
-4.38941
0
LINE
8
BLACK
6
CONTINUOUS
10
7.69346
20
-4.37465
11
7.72299
21
-4.37465
0
LINE
8
BLACK
6
CONTINUOUS
10
7.71622
20
-3.7372
11
7.71622
21
-3.76673
0
LINE
8
BLACK
6
CONTINUOUS
10
7.70146
20
-3.75197
11
7.73098
21
-3.75197
0
LINE
8
BLACK
6
CONTINUOUS
10
7.95413
20
-4.35925
11
7.95413
21
-4.38878
0
LINE
8
BLACK
6
CONTINUOUS
10
7.93937
20
-4.37402
11
7.9689
21
-4.37402
0
LINE
8
BLACK
6
CONTINUOUS
10
8.00413
20
-4.35925
11
8.00413
21
-4.38878
0
LINE
8
BLACK
6
CONTINUOUS
10
7.98937
20
-4.37402
11
8.0189
21
-4.37402
0
LINE
8
BLACK
6
CONTINUOUS
10
8.05413
20
-4.35925
11
8.05413
21
-4.38878
0
LINE
8
BLACK
6
CONTINUOUS
10
8.03937
20
-4.37402
11
8.0689
21
-4.37402
0
LINE
8
BLACK
6
CONTINUOUS
10
8.30104
20
-4.36039
11
8.30104
21
-4.38991
0
LINE
8
BLACK
6
CONTINUOUS
10
8.28628
20
-4.37515
11
8.3158
21
-4.37515
0
LINE
8
BLACK
6
CONTINUOUS
10
8.35104
20
-4.36039
11
8.35104
21
-4.38991
0
LINE
8
BLACK
6
CONTINUOUS
10
8.33628
20
-4.37515
11
8.3658
21
-4.37515
0
LINE
8
BLACK
6
CONTINUOUS
10
8.40104
20
-4.36039
11
8.40104
21
-4.38991
0
LINE
8
BLACK
6
CONTINUOUS
10
8.38628
20
-4.37515
11
8.4158
21
-4.37515
0
LINE
8
BLACK
6
CONTINUOUS
10
8.54331
20
-3.37339
11
8.54331
21
-3.40292
0
LINE
8
BLACK
6
CONTINUOUS
10
8.52854
20
-3.38816
11
8.55807
21
-3.38816
0
LINE
8
BLACK
6
CONTINUOUS
10
8.54331
20
-3.84547
11
8.54331
21
-3.875
0
LINE
8
BLACK
6
CONTINUOUS
10
8.52854
20
-3.86024
11
8.55807
21
-3.86024
0
LINE
8
BLACK
6
CONTINUOUS
10
8.59331
20
-3.37339
11
8.59331
21
-3.40292
0
LINE
8
BLACK
6
CONTINUOUS
10
8.57854
20
-3.38816
11
8.60807
21
-3.38816
0
LINE
8
BLACK
6
CONTINUOUS
10
8.59331
20
-3.84547
11
8.59331
21
-3.875
0
LINE
8
BLACK
6
CONTINUOUS
10
8.57854
20
-3.86024
11
8.60807
21
-3.86024
0
LINE
8
BLACK
6
CONTINUOUS
10
8.64331
20
-3.37339
11
8.64331
21
-3.40292
0
LINE
8
BLACK
6
CONTINUOUS
10
8.62854
20
-3.38816
11
8.65807
21
-3.38816
0
LINE
8
BLACK
6
CONTINUOUS
10
8.64331
20
-3.84547
11
8.64331
21
-3.875
0
LINE
8
BLACK
6
CONTINUOUS
10
8.62854
20
-3.86024
11
8.65807
21
-3.86024
0
LINE
8
BLACK
6
CONTINUOUS
10
3.62872
20
-3.69801
11
3.62872
21
-3.67679
0
LINE
8
BLACK
6
CONTINUOUS
10
3.62872
20
-3.67679
11
3.6075
21
-3.67679
0
LINE
8
BLACK
6
CONTINUOUS
10
3.6075
20
-3.67679
11
3.6075
21
-3.69801
0
LINE
8
BLACK
6
CONTINUOUS
10
3.6075
20
-3.69801
11
3.62872
21
-3.69801
0
LINE
8
BLACK
6
CONTINUOUS
10
3.62872
20
-3.79801
11
3.62872
21
-3.77679
0
LINE
8
BLACK
6
CONTINUOUS
10
3.62872
20
-3.77679
11
3.6075
21
-3.77679
0
LINE
8
BLACK
6
CONTINUOUS
10
3.6075
20
-3.77679
11
3.6075
21
-3.79801
0
LINE
8
BLACK
6
CONTINUOUS
10
3.6075
20
-3.79801
11
3.62872
21
-3.79801
0
LINE
8
BLACK
6
CONTINUOUS
10
3.62872
20
-3.89801
11
3.62872
21
-3.87679
0
LINE
8
BLACK
6
CONTINUOUS
10
3.62872
20
-3.87679
11
3.6075
21
-3.87679
0
LINE
8
BLACK
6
CONTINUOUS
10
3.6075
20
-3.87679
11
3.6075
21
-3.89801
0
LINE
8
BLACK
6
CONTINUOUS
10
3.6075
20
-3.89801
11
3.62872
21
-3.89801
0
LINE
8
BLACK
6
CONTINUOUS
10
3.6862
20
-3.60116
11
3.6862
21
-3.57994
0
LINE
8
BLACK
6
CONTINUOUS
10
3.6862
20
-3.57994
11
3.66498
21
-3.57994
0
LINE
8
BLACK
6
CONTINUOUS
10
3.66498
20
-3.57994
11
3.66498
21
-3.60116
0
LINE
8
BLACK
6
CONTINUOUS
10
3.66498
20
-3.60116
11
3.6862
21
-3.60116
0
LINE
8
BLACK
6
CONTINUOUS
10
3.6862
20
-3.99486
11
3.6862
21
-3.97365
0
LINE
8
BLACK
6
CONTINUOUS
10
3.6862
20
-3.97365
11
3.66498
21
-3.97365
0
LINE
8
BLACK
6
CONTINUOUS
10
3.66498
20
-3.97365
11
3.66498
21
-3.99486
0
LINE
8
BLACK
6
CONTINUOUS
10
3.66498
20
-3.99486
11
3.6862
21
-3.99486
0
LINE
8
BLACK
6
CONTINUOUS
10
3.7862
20
-3.60116
11
3.7862
21
-3.57994
0
LINE
8
BLACK
6
CONTINUOUS
10
3.7862
20
-3.57994
11
3.76498
21
-3.57994
0
LINE
8
BLACK
6
CONTINUOUS
10
3.76498
20
-3.57994
11
3.76498
21
-3.60116
0
LINE
8
BLACK
6
CONTINUOUS
10
3.76498
20
-3.60116
11
3.7862
21
-3.60116
0
LINE
8
BLACK
6
CONTINUOUS
10
3.7862
20
-3.99486
11
3.7862
21
-3.97365
0
LINE
8
BLACK
6
CONTINUOUS
10
3.7862
20
-3.97365
11
3.76498
21
-3.97365
0
LINE
8
BLACK
6
CONTINUOUS
10
3.76498
20
-3.97365
11
3.76498
21
-3.99486
0
LINE
8
BLACK
6
CONTINUOUS
10
3.76498
20
-3.99486
11
3.7862
21
-3.99486
0
LINE
8
BLACK
6
CONTINUOUS
10
3.8862
20
-3.60116
11
3.8862
21
-3.57994
0
LINE
8
BLACK
6
CONTINUOUS
10
3.8862
20
-3.57994
11
3.86498
21
-3.57994
0
LINE
8
BLACK
6
CONTINUOUS
10
3.86498
20
-3.57994
11
3.86498
21
-3.60116
0
LINE
8
BLACK
6
CONTINUOUS
10
3.86498
20
-3.60116
11
3.8862
21
-3.60116
0
LINE
8
BLACK
6
CONTINUOUS
10
3.8862
20
-3.99486
11
3.8862
21
-3.97365
0
LINE
8
BLACK
6
CONTINUOUS
10
3.8862
20
-3.97365
11
3.86498
21
-3.97365
0
LINE
8
BLACK
6
CONTINUOUS
10
3.86498
20
-3.97365
11
3.86498
21
-3.99486
0
LINE
8
BLACK
6
CONTINUOUS
10
3.86498
20
-3.99486
11
3.8862
21
-3.99486
0
LINE
8
BLACK
6
CONTINUOUS
10
3.94368
20
-3.69801
11
3.94368
21
-3.67679
0
LINE
8
BLACK
6
CONTINUOUS
10
3.94368
20
-3.67679
11
3.92246
21
-3.67679
0
LINE
8
BLACK
6
CONTINUOUS
10
3.92246
20
-3.67679
11
3.92246
21
-3.69801
0
LINE
8
BLACK
6
CONTINUOUS
10
3.92246
20
-3.69801
11
3.94368
21
-3.69801
0
LINE
8
BLACK
6
CONTINUOUS
10
3.94368
20
-3.79801
11
3.94368
21
-3.77679
0
LINE
8
BLACK
6
CONTINUOUS
10
3.94368
20
-3.77679
11
3.92246
21
-3.77679
0
LINE
8
BLACK
6
CONTINUOUS
10
3.92246
20
-3.77679
11
3.92246
21
-3.79801
0
LINE
8
BLACK
6
CONTINUOUS
10
3.92246
20
-3.79801
11
3.94368
21
-3.79801
0
LINE
8
BLACK
6
CONTINUOUS
10
3.94368
20
-3.89801
11
3.94368
21
-3.87679
0
LINE
8
BLACK
6
CONTINUOUS
10
3.94368
20
-3.87679
11
3.92246
21
-3.87679
0
LINE
8
BLACK
6
CONTINUOUS
10
3.92246
20
-3.87679
11
3.92246
21
-3.89801
0
LINE
8
BLACK
6
CONTINUOUS
10
3.92246
20
-3.89801
11
3.94368
21
-3.89801
0
LINE
8
BLACK
6
CONTINUOUS
10
4.71139
20
-3.69801
11
4.71139
21
-3.67679
0
LINE
8
BLACK
6
CONTINUOUS
10
4.71139
20
-3.67679
11
4.69018
21
-3.67679
0
LINE
8
BLACK
6
CONTINUOUS
10
4.69018
20
-3.67679
11
4.69018
21
-3.69801
0
LINE
8
BLACK
6
CONTINUOUS
10
4.69018
20
-3.69801
11
4.71139
21
-3.69801
0
LINE
8
BLACK
6
CONTINUOUS
10
4.71139
20
-3.79801
11
4.71139
21
-3.77679
0
LINE
8
BLACK
6
CONTINUOUS
10
4.71139
20
-3.77679
11
4.69018
21
-3.77679
0
LINE
8
BLACK
6
CONTINUOUS
10
4.69018
20
-3.77679
11
4.69018
21
-3.79801
0
LINE
8
BLACK
6
CONTINUOUS
10
4.69018
20
-3.79801
11
4.71139
21
-3.79801
0
LINE
8
BLACK
6
CONTINUOUS
10
4.71139
20
-3.89801
11
4.71139
21
-3.87679
0
LINE
8
BLACK
6
CONTINUOUS
10
4.71139
20
-3.87679
11
4.69018
21
-3.87679
0
LINE
8
BLACK
6
CONTINUOUS
10
4.69018
20
-3.87679
11
4.69018
21
-3.89801
0
LINE
8
BLACK
6
CONTINUOUS
10
4.69018
20
-3.89801
11
4.71139
21
-3.89801
0
LINE
8
BLACK
6
CONTINUOUS
10
4.76887
20
-3.60116
11
4.76887
21
-3.57994
0
LINE
8
BLACK
6
CONTINUOUS
10
4.76887
20
-3.57994
11
4.74766
21
-3.57994
0
LINE
8
BLACK
6
CONTINUOUS
10
4.74766
20
-3.57994
11
4.74766
21
-3.60116
0
LINE
8
BLACK
6
CONTINUOUS
10
4.74766
20
-3.60116
11
4.76887
21
-3.60116
0
LINE
8
BLACK
6
CONTINUOUS
10
4.76887
20
-3.99486
11
4.76887
21
-3.97365
0
LINE
8
BLACK
6
CONTINUOUS
10
4.76887
20
-3.97365
11
4.74766
21
-3.97365
0
LINE
8
BLACK
6
CONTINUOUS
10
4.74766
20
-3.97365
11
4.74766
21
-3.99486
0
LINE
8
BLACK
6
CONTINUOUS
10
4.74766
20
-3.99486
11
4.76887
21
-3.99486
0
LINE
8
BLACK
6
CONTINUOUS
10
4.86887
20
-3.60116
11
4.86887
21
-3.57994
0
LINE
8
BLACK
6
CONTINUOUS
10
4.86887
20
-3.57994
11
4.84766
21
-3.57994
0
LINE
8
BLACK
6
CONTINUOUS
10
4.84766
20
-3.57994
11
4.84766
21
-3.60116
0
LINE
8
BLACK
6
CONTINUOUS
10
4.84766
20
-3.60116
11
4.86887
21
-3.60116
0
LINE
8
BLACK
6
CONTINUOUS
10
4.86887
20
-3.99486
11
4.86887
21
-3.97365
0
LINE
8
BLACK
6
CONTINUOUS
10
4.86887
20
-3.97365
11
4.84766
21
-3.97365
0
LINE
8
BLACK
6
CONTINUOUS
10
4.84766
20
-3.97365
11
4.84766
21
-3.99486
0
LINE
8
BLACK
6
CONTINUOUS
10
4.84766
20
-3.99486
11
4.86887
21
-3.99486
0
LINE
8
BLACK
6
CONTINUOUS
10
4.96887
20
-3.60116
11
4.96887
21
-3.57994
0
LINE
8
BLACK
6
CONTINUOUS
10
4.96887
20
-3.57994
11
4.94766
21
-3.57994
0
LINE
8
BLACK
6
CONTINUOUS
10
4.94766
20
-3.57994
11
4.94766
21
-3.60116
0
LINE
8
BLACK
6
CONTINUOUS
10
4.94766
20
-3.60116
11
4.96887
21
-3.60116
0
LINE
8
BLACK
6
CONTINUOUS
10
4.96887
20
-3.99486
11
4.96887
21
-3.97365
0
LINE
8
BLACK
6
CONTINUOUS
10
4.96887
20
-3.97365
11
4.94766
21
-3.97365
0
LINE
8
BLACK
6
CONTINUOUS
10
4.94766
20
-3.97365
11
4.94766
21
-3.99486
0
LINE
8
BLACK
6
CONTINUOUS
10
4.94766
20
-3.99486
11
4.96887
21
-3.99486
0
LINE
8
BLACK
6
CONTINUOUS
10
5.02635
20
-3.69801
11
5.02635
21
-3.67679
0
LINE
8
BLACK
6
CONTINUOUS
10
5.02635
20
-3.67679
11
5.00514
21
-3.67679
0
LINE
8
BLACK
6
CONTINUOUS
10
5.00514
20
-3.67679
11
5.00514
21
-3.69801
0
LINE
8
BLACK
6
CONTINUOUS
10
5.00514
20
-3.69801
11
5.02635
21
-3.69801
0
LINE
8
BLACK
6
CONTINUOUS
10
5.02635
20
-3.79801
11
5.02635
21
-3.77679
0
LINE
8
BLACK
6
CONTINUOUS
10
5.02635
20
-3.77679
11
5.00514
21
-3.77679
0
LINE
8
BLACK
6
CONTINUOUS
10
5.00514
20
-3.77679
11
5.00514
21
-3.79801
0
LINE
8
BLACK
6
CONTINUOUS
10
5.00514
20
-3.79801
11
5.02635
21
-3.79801
0
LINE
8
BLACK
6
CONTINUOUS
10
5.02635
20
-3.89801
11
5.02635
21
-3.87679
0
LINE
8
BLACK
6
CONTINUOUS
10
5.02635
20
-3.87679
11
5.00514
21
-3.87679
0
LINE
8
BLACK
6
CONTINUOUS
10
5.00514
20
-3.87679
11
5.00514
21
-3.89801
0
LINE
8
BLACK
6
CONTINUOUS
10
5.00514
20
-3.89801
11
5.02635
21
-3.89801
0
LINE
8
BLACK
6
CONTINUOUS
10
6.87675
20
-3.69801
11
6.87675
21
-3.67679
0
LINE
8
BLACK
6
CONTINUOUS
10
6.87675
20
-3.67679
11
6.85554
21
-3.67679
0
LINE
8
BLACK
6
CONTINUOUS
10
6.85554
20
-3.67679
11
6.85554
21
-3.69801
0
LINE
8
BLACK
6
CONTINUOUS
10
6.85554
20
-3.69801
11
6.87675
21
-3.69801
0
LINE
8
BLACK
6
CONTINUOUS
10
6.87675
20
-3.79801
11
6.87675
21
-3.77679
0
LINE
8
BLACK
6
CONTINUOUS
10
6.87675
20
-3.77679
11
6.85554
21
-3.77679
0
LINE
8
BLACK
6
CONTINUOUS
10
6.85554
20
-3.77679
11
6.85554
21
-3.79801
0
LINE
8
BLACK
6
CONTINUOUS
10
6.85554
20
-3.79801
11
6.87675
21
-3.79801
0
LINE
8
BLACK
6
CONTINUOUS
10
6.87675
20
-3.89801
11
6.87675
21
-3.87679
0
LINE
8
BLACK
6
CONTINUOUS
10
6.87675
20
-3.87679
11
6.85554
21
-3.87679
0
LINE
8
BLACK
6
CONTINUOUS
10
6.85554
20
-3.87679
11
6.85554
21
-3.89801
0
LINE
8
BLACK
6
CONTINUOUS
10
6.85554
20
-3.89801
11
6.87675
21
-3.89801
0
LINE
8
BLACK
6
CONTINUOUS
10
6.93423
20
-3.60116
11
6.93423
21
-3.57994
0
LINE
8
BLACK
6
CONTINUOUS
10
6.93423
20
-3.57994
11
6.91302
21
-3.57994
0
LINE
8
BLACK
6
CONTINUOUS
10
6.91302
20
-3.57994
11
6.91302
21
-3.60116
0
LINE
8
BLACK
6
CONTINUOUS
10
6.91302
20
-3.60116
11
6.93423
21
-3.60116
0
LINE
8
BLACK
6
CONTINUOUS
10
6.93423
20
-3.99486
11
6.93423
21
-3.97365
0
LINE
8
BLACK
6
CONTINUOUS
10
6.93423
20
-3.97365
11
6.91302
21
-3.97365
0
LINE
8
BLACK
6
CONTINUOUS
10
6.91302
20
-3.97365
11
6.91302
21
-3.99486
0
LINE
8
BLACK
6
CONTINUOUS
10
6.91302
20
-3.99486
11
6.93423
21
-3.99486
0
LINE
8
BLACK
6
CONTINUOUS
10
7.03423
20
-3.60116
11
7.03423
21
-3.57994
0
LINE
8
BLACK
6
CONTINUOUS
10
7.03423
20
-3.57994
11
7.01302
21
-3.57994
0
LINE
8
BLACK
6
CONTINUOUS
10
7.01302
20
-3.57994
11
7.01302
21
-3.60116
0
LINE
8
BLACK
6
CONTINUOUS
10
7.01302
20
-3.60116
11
7.03423
21
-3.60116
0
LINE
8
BLACK
6
CONTINUOUS
10
7.03423
20
-3.99486
11
7.03423
21
-3.97365
0
LINE
8
BLACK
6
CONTINUOUS
10
7.03423
20
-3.97365
11
7.01302
21
-3.97365
0
LINE
8
BLACK
6
CONTINUOUS
10
7.01302
20
-3.97365
11
7.01302
21
-3.99486
0
LINE
8
BLACK
6
CONTINUOUS
10
7.01302
20
-3.99486
11
7.03423
21
-3.99486
0
LINE
8
BLACK
6
CONTINUOUS
10
7.13423
20
-3.60116
11
7.13423
21
-3.57994
0
LINE
8
BLACK
6
CONTINUOUS
10
7.13423
20
-3.57994
11
7.11302
21
-3.57994
0
LINE
8
BLACK
6
CONTINUOUS
10
7.11302
20
-3.57994
11
7.11302
21
-3.60116
0
LINE
8
BLACK
6
CONTINUOUS
10
7.11302
20
-3.60116
11
7.13423
21
-3.60116
0
LINE
8
BLACK
6
CONTINUOUS
10
7.13423
20
-3.99486
11
7.13423
21
-3.97365
0
LINE
8
BLACK
6
CONTINUOUS
10
7.13423
20
-3.97365
11
7.11302
21
-3.97365
0
LINE
8
BLACK
6
CONTINUOUS
10
7.11302
20
-3.97365
11
7.11302
21
-3.99486
0
LINE
8
BLACK
6
CONTINUOUS
10
7.11302
20
-3.99486
11
7.13423
21
-3.99486
0
LINE
8
BLACK
6
CONTINUOUS
10
7.19171
20
-3.69801
11
7.19171
21
-3.67679
0
LINE
8
BLACK
6
CONTINUOUS
10
7.19171
20
-3.67679
11
7.1705
21
-3.67679
0
LINE
8
BLACK
6
CONTINUOUS
10
7.1705
20
-3.67679
11
7.1705
21
-3.69801
0
LINE
8
BLACK
6
CONTINUOUS
10
7.1705
20
-3.69801
11
7.19171
21
-3.69801
0
LINE
8
BLACK
6
CONTINUOUS
10
7.19171
20
-3.79801
11
7.19171
21
-3.77679
0
LINE
8
BLACK
6
CONTINUOUS
10
7.19171
20
-3.77679
11
7.1705
21
-3.77679
0
LINE
8
BLACK
6
CONTINUOUS
10
7.1705
20
-3.77679
11
7.1705
21
-3.79801
0
LINE
8
BLACK
6
CONTINUOUS
10
7.1705
20
-3.79801
11
7.19171
21
-3.79801
0
LINE
8
BLACK
6
CONTINUOUS
10
7.19171
20
-3.89801
11
7.19171
21
-3.87679
0
LINE
8
BLACK
6
CONTINUOUS
10
7.19171
20
-3.87679
11
7.1705
21
-3.87679
0
LINE
8
BLACK
6
CONTINUOUS
10
7.1705
20
-3.87679
11
7.1705
21
-3.89801
0
LINE
8
BLACK
6
CONTINUOUS
10
7.1705
20
-3.89801
11
7.19171
21
-3.89801
0
LINE
8
BLACK
6
CONTINUOUS
10
7.95943
20
-3.69801
11
7.95943
21
-3.67679
0
LINE
8
BLACK
6
CONTINUOUS
10
7.95943
20
-3.67679
11
7.93821
21
-3.67679
0
LINE
8
BLACK
6
CONTINUOUS
10
7.93821
20
-3.67679
11
7.93821
21
-3.69801
0
LINE
8
BLACK
6
CONTINUOUS
10
7.93821
20
-3.69801
11
7.95943
21
-3.69801
0
LINE
8
BLACK
6
CONTINUOUS
10
7.95943
20
-3.79801
11
7.95943
21
-3.77679
0
LINE
8
BLACK
6
CONTINUOUS
10
7.95943
20
-3.77679
11
7.93821
21
-3.77679
0
LINE
8
BLACK
6
CONTINUOUS
10
7.93821
20
-3.77679
11
7.93821
21
-3.79801
0
LINE
8
BLACK
6
CONTINUOUS
10
7.93821
20
-3.79801
11
7.95943
21
-3.79801
0
LINE
8
BLACK
6
CONTINUOUS
10
7.95943
20
-3.89801
11
7.95943
21
-3.87679
0
LINE
8
BLACK
6
CONTINUOUS
10
7.95943
20
-3.87679
11
7.93821
21
-3.87679
0
LINE
8
BLACK
6
CONTINUOUS
10
7.93821
20
-3.87679
11
7.93821
21
-3.89801
0
LINE
8
BLACK
6
CONTINUOUS
10
7.93821
20
-3.89801
11
7.95943
21
-3.89801
0
LINE
8
BLACK
6
CONTINUOUS
10
8.01691
20
-3.60116
11
8.01691
21
-3.57994
0
LINE
8
BLACK
6
CONTINUOUS
10
8.01691
20
-3.57994
11
7.99569
21
-3.57994
0
LINE
8
BLACK
6
CONTINUOUS
10
7.99569
20
-3.57994
11
7.99569
21
-3.60116
0
LINE
8
BLACK
6
CONTINUOUS
10
7.99569
20
-3.60116
11
8.01691
21
-3.60116
0
LINE
8
BLACK
6
CONTINUOUS
10
8.01691
20
-3.99486
11
8.01691
21
-3.97365
0
LINE
8
BLACK
6
CONTINUOUS
10
8.01691
20
-3.97365
11
7.99569
21
-3.97365
0
LINE
8
BLACK
6
CONTINUOUS
10
7.99569
20
-3.97365
11
7.99569
21
-3.99486
0
LINE
8
BLACK
6
CONTINUOUS
10
7.99569
20
-3.99486
11
8.01691
21
-3.99486
0
LINE
8
BLACK
6
CONTINUOUS
10
8.11691
20
-3.60116
11
8.11691
21
-3.57994
0
LINE
8
BLACK
6
CONTINUOUS
10
8.11691
20
-3.57994
11
8.09569
21
-3.57994
0
LINE
8
BLACK
6
CONTINUOUS
10
8.09569
20
-3.57994
11
8.09569
21
-3.60116
0
LINE
8
BLACK
6
CONTINUOUS
10
8.09569
20
-3.60116
11
8.11691
21
-3.60116
0
LINE
8
BLACK
6
CONTINUOUS
10
8.11691
20
-3.99486
11
8.11691
21
-3.97365
0
LINE
8
BLACK
6
CONTINUOUS
10
8.11691
20
-3.97365
11
8.09569
21
-3.97365
0
LINE
8
BLACK
6
CONTINUOUS
10
8.09569
20
-3.97365
11
8.09569
21
-3.99486
0
LINE
8
BLACK
6
CONTINUOUS
10
8.09569
20
-3.99486
11
8.11691
21
-3.99486
0
LINE
8
BLACK
6
CONTINUOUS
10
8.21691
20
-3.60116
11
8.21691
21
-3.57994
0
LINE
8
BLACK
6
CONTINUOUS
10
8.21691
20
-3.57994
11
8.19569
21
-3.57994
0
LINE
8
BLACK
6
CONTINUOUS
10
8.19569
20
-3.57994
11
8.19569
21
-3.60116
0
LINE
8
BLACK
6
CONTINUOUS
10
8.19569
20
-3.60116
11
8.21691
21
-3.60116
0
LINE
8
BLACK
6
CONTINUOUS
10
8.21691
20
-3.99486
11
8.21691
21
-3.97365
0
LINE
8
BLACK
6
CONTINUOUS
10
8.21691
20
-3.97365
11
8.19569
21
-3.97365
0
LINE
8
BLACK
6
CONTINUOUS
10
8.19569
20
-3.97365
11
8.19569
21
-3.99486
0
LINE
8
BLACK
6
CONTINUOUS
10
8.19569
20
-3.99486
11
8.21691
21
-3.99486
0
LINE
8
BLACK
6
CONTINUOUS
10
8.27439
20
-3.69801
11
8.27439
21
-3.67679
0
LINE
8
BLACK
6
CONTINUOUS
10
8.27439
20
-3.67679
11
8.25317
21
-3.67679
0
LINE
8
BLACK
6
CONTINUOUS
10
8.25317
20
-3.67679
11
8.25317
21
-3.69801
0
LINE
8
BLACK
6
CONTINUOUS
10
8.25317
20
-3.69801
11
8.27439
21
-3.69801
0
LINE
8
BLACK
6
CONTINUOUS
10
8.27439
20
-3.79801
11
8.27439
21
-3.77679
0
LINE
8
BLACK
6
CONTINUOUS
10
8.27439
20
-3.77679
11
8.25317
21
-3.77679
0
LINE
8
BLACK
6
CONTINUOUS
10
8.25317
20
-3.77679
11
8.25317
21
-3.79801
0
LINE
8
BLACK
6
CONTINUOUS
10
8.25317
20
-3.79801
11
8.27439
21
-3.79801
0
LINE
8
BLACK
6
CONTINUOUS
10
8.27439
20
-3.89801
11
8.27439
21
-3.87679
0
LINE
8
BLACK
6
CONTINUOUS
10
8.27439
20
-3.87679
11
8.25317
21
-3.87679
0
LINE
8
BLACK
6
CONTINUOUS
10
8.25317
20
-3.87679
11
8.25317
21
-3.89801
0
LINE
8
BLACK
6
CONTINUOUS
10
8.25317
20
-3.89801
11
8.27439
21
-3.89801
0
LINE
8
BLACK
6
CONTINUOUS
10
3.66
20
-4.31575
11
3.67575
21
-4.3
0
LINE
8
BLACK
6
CONTINUOUS
10
3.67575
20
-4.3
11
3.66
21
-4.28425
0
LINE
8
BLACK
6
CONTINUOUS
10
3.66
20
-4.28425
11
3.64425
21
-4.3
0
LINE
8
BLACK
6
CONTINUOUS
10
3.64425
20
-4.3
11
3.66
21
-4.31575
0
LINE
8
BLACK
6
CONTINUOUS
10
3.66
20
-4.61575
11
3.67575
21
-4.6
0
LINE
8
BLACK
6
CONTINUOUS
10
3.67575
20
-4.6
11
3.66
21
-4.58425
0
LINE
8
BLACK
6
CONTINUOUS
10
3.66
20
-4.58425
11
3.64425
21
-4.6
0
LINE
8
BLACK
6
CONTINUOUS
10
3.64425
20
-4.6
11
3.66
21
-4.61575
0
LINE
8
BLACK
6
CONTINUOUS
10
3.76
20
-4.31575
11
3.77575
21
-4.3
0
LINE
8
BLACK
6
CONTINUOUS
10
3.77575
20
-4.3
11
3.76
21
-4.28425
0
LINE
8
BLACK
6
CONTINUOUS
10
3.76
20
-4.28425
11
3.74425
21
-4.3
0
LINE
8
BLACK
6
CONTINUOUS
10
3.74425
20
-4.3
11
3.76
21
-4.31575
0
LINE
8
BLACK
6
CONTINUOUS
10
3.76
20
-4.61575
11
3.77575
21
-4.6
0
LINE
8
BLACK
6
CONTINUOUS
10
3.77575
20
-4.6
11
3.76
21
-4.58425
0
LINE
8
BLACK
6
CONTINUOUS
10
3.76
20
-4.58425
11
3.74425
21
-4.6
0
LINE
8
BLACK
6
CONTINUOUS
10
3.74425
20
-4.6
11
3.76
21
-4.61575
0
LINE
8
BLACK
6
CONTINUOUS
10
3.86
20
-4.31575
11
3.87575
21
-4.3
0
LINE
8
BLACK
6
CONTINUOUS
10
3.87575
20
-4.3
11
3.86
21
-4.28425
0
LINE
8
BLACK
6
CONTINUOUS
10
3.86
20
-4.28425
11
3.84425
21
-4.3
0
LINE
8
BLACK
6
CONTINUOUS
10
3.84425
20
-4.3
11
3.86
21
-4.31575
0
LINE
8
BLACK
6
CONTINUOUS
10
3.86
20
-4.61575
11
3.87575
21
-4.6
0
LINE
8
BLACK
6
CONTINUOUS
10
3.87575
20
-4.6
11
3.86
21
-4.58425
0
LINE
8
BLACK
6
CONTINUOUS
10
3.86
20
-4.58425
11
3.84425
21
-4.6
0
LINE
8
BLACK
6
CONTINUOUS
10
3.84425
20
-4.6
11
3.86
21
-4.61575
0
LINE
8
BLACK
6
CONTINUOUS
10
3.96
20
-4.31575
11
3.97575
21
-4.3
0
LINE
8
BLACK
6
CONTINUOUS
10
3.97575
20
-4.3
11
3.96
21
-4.28425
0
LINE
8
BLACK
6
CONTINUOUS
10
3.96
20
-4.28425
11
3.94425
21
-4.3
0
LINE
8
BLACK
6
CONTINUOUS
10
3.94425
20
-4.3
11
3.96
21
-4.31575
0
LINE
8
BLACK
6
CONTINUOUS
10
3.96
20
-4.61575
11
3.97575
21
-4.6
0
LINE
8
BLACK
6
CONTINUOUS
10
3.97575
20
-4.6
11
3.96
21
-4.58425
0
LINE
8
BLACK
6
CONTINUOUS
10
3.96
20
-4.58425
11
3.94425
21
-4.6
0
LINE
8
BLACK
6
CONTINUOUS
10
3.94425
20
-4.6
11
3.96
21
-4.61575
0
LINE
8
BLACK
6
CONTINUOUS
10
4.06
20
-4.31575
11
4.07575
21
-4.3
0
LINE
8
BLACK
6
CONTINUOUS
10
4.07575
20
-4.3
11
4.06
21
-4.28425
0
LINE
8
BLACK
6
CONTINUOUS
10
4.06
20
-4.28425
11
4.04425
21
-4.3
0
LINE
8
BLACK
6
CONTINUOUS
10
4.04425
20
-4.3
11
4.06
21
-4.31575
0
LINE
8
BLACK
6
CONTINUOUS
10
4.06
20
-4.61575
11
4.07575
21
-4.6
0
LINE
8
BLACK
6
CONTINUOUS
10
4.07575
20
-4.6
11
4.06
21
-4.58425
0
LINE
8
BLACK
6
CONTINUOUS
10
4.06
20
-4.58425
11
4.04425
21
-4.6
0
LINE
8
BLACK
6
CONTINUOUS
10
4.04425
20
-4.6
11
4.06
21
-4.61575
0
LINE
8
BLACK
6
CONTINUOUS
10
4.16
20
-4.31575
11
4.17575
21
-4.3
0
LINE
8
BLACK
6
CONTINUOUS
10
4.17575
20
-4.3
11
4.16
21
-4.28425
0
LINE
8
BLACK
6
CONTINUOUS
10
4.16
20
-4.28425
11
4.14425
21
-4.3
0
LINE
8
BLACK
6
CONTINUOUS
10
4.14425
20
-4.3
11
4.16
21
-4.31575
0
LINE
8
BLACK
6
CONTINUOUS
10
4.16
20
-4.61575
11
4.17575
21
-4.6
0
LINE
8
BLACK
6
CONTINUOUS
10
4.17575
20
-4.6
11
4.16
21
-4.58425
0
LINE
8
BLACK
6
CONTINUOUS
10
4.16
20
-4.58425
11
4.14425
21
-4.6
0
LINE
8
BLACK
6
CONTINUOUS
10
4.14425
20
-4.6
11
4.16
21
-4.61575
0
LINE
8
BLACK
6
CONTINUOUS
10
4.17
20
-3.03575
11
4.18575
21
-3.02
0
LINE
8
BLACK
6
CONTINUOUS
10
4.18575
20
-3.02
11
4.17
21
-3.00425
0
LINE
8
BLACK
6
CONTINUOUS
10
4.17
20
-3.00425
11
4.15425
21
-3.02
0
LINE
8
BLACK
6
CONTINUOUS
10
4.15425
20
-3.02
11
4.17
21
-3.03575
0
LINE
8
BLACK
6
CONTINUOUS
10
4.17
20
-3.37654
11
4.18575
21
-3.36079
0
LINE
8
BLACK
6
CONTINUOUS
10
4.18575
20
-3.36079
11
4.17
21
-3.34504
0
LINE
8
BLACK
6
CONTINUOUS
10
4.17
20
-3.34504
11
4.15425
21
-3.36079
0
LINE
8
BLACK
6
CONTINUOUS
10
4.15425
20
-3.36079
11
4.17
21
-3.37654
0
LINE
8
BLACK
6
CONTINUOUS
10
4.17
20
-3.47496
11
4.18575
21
-3.45921
0
LINE
8
BLACK
6
CONTINUOUS
10
4.18575
20
-3.45921
11
4.17
21
-3.44346
0
LINE
8
BLACK
6
CONTINUOUS
10
4.17
20
-3.44346
11
4.15425
21
-3.45921
0
LINE
8
BLACK
6
CONTINUOUS
10
4.15425
20
-3.45921
11
4.17
21
-3.47496
0
LINE
8
BLACK
6
CONTINUOUS
10
4.26
20
-4.31575
11
4.27575
21
-4.3
0
LINE
8
BLACK
6
CONTINUOUS
10
4.27575
20
-4.3
11
4.26
21
-4.28425
0
LINE
8
BLACK
6
CONTINUOUS
10
4.26
20
-4.28425
11
4.24425
21
-4.3
0
LINE
8
BLACK
6
CONTINUOUS
10
4.24425
20
-4.3
11
4.26
21
-4.31575
0
LINE
8
BLACK
6
CONTINUOUS
10
4.26
20
-4.61575
11
4.27575
21
-4.6
0
LINE
8
BLACK
6
CONTINUOUS
10
4.27575
20
-4.6
11
4.26
21
-4.58425
0
LINE
8
BLACK
6
CONTINUOUS
10
4.26
20
-4.58425
11
4.24425
21
-4.6
0
LINE
8
BLACK
6
CONTINUOUS
10
4.24425
20
-4.6
11
4.26
21
-4.61575
0
LINE
8
BLACK
6
CONTINUOUS
10
4.36
20
-4.31575
11
4.37575
21
-4.3
0
LINE
8
BLACK
6
CONTINUOUS
10
4.37575
20
-4.3
11
4.36
21
-4.28425
0
LINE
8
BLACK
6
CONTINUOUS
10
4.36
20
-4.28425
11
4.34425
21
-4.3
0
LINE
8
BLACK
6
CONTINUOUS
10
4.34425
20
-4.3
11
4.36
21
-4.31575
0
LINE
8
BLACK
6
CONTINUOUS
10
4.36
20
-4.61575
11
4.37575
21
-4.6
0
LINE
8
BLACK
6
CONTINUOUS
10
4.37575
20
-4.6
11
4.36
21
-4.58425
0
LINE
8
BLACK
6
CONTINUOUS
10
4.36
20
-4.58425
11
4.34425
21
-4.6
0
LINE
8
BLACK
6
CONTINUOUS
10
4.34425
20
-4.6
11
4.36
21
-4.61575
0
LINE
8
BLACK
6
CONTINUOUS
10
4.57
20
-3.03575
11
4.58575
21
-3.02
0
LINE
8
BLACK
6
CONTINUOUS
10
4.58575
20
-3.02
11
4.57
21
-3.00425
0
LINE
8
BLACK
6
CONTINUOUS
10
4.57
20
-3.00425
11
4.55425
21
-3.02
0
LINE
8
BLACK
6
CONTINUOUS
10
4.55425
20
-3.02
11
4.57
21
-3.03575
0
LINE
8
BLACK
6
CONTINUOUS
10
4.64
20
-4.31575
11
4.65575
21
-4.3
0
LINE
8
BLACK
6
CONTINUOUS
10
4.65575
20
-4.3
11
4.64
21
-4.28425
0
LINE
8
BLACK
6
CONTINUOUS
10
4.64
20
-4.28425
11
4.62425
21
-4.3
0
LINE
8
BLACK
6
CONTINUOUS
10
4.62425
20
-4.3
11
4.64
21
-4.31575
0
LINE
8
BLACK
6
CONTINUOUS
10
4.64
20
-4.61575
11
4.65575
21
-4.6
0
LINE
8
BLACK
6
CONTINUOUS
10
4.65575
20
-4.6
11
4.64
21
-4.58425
0
LINE
8
BLACK
6
CONTINUOUS
10
4.64
20
-4.58425
11
4.62425
21
-4.6
0
LINE
8
BLACK
6
CONTINUOUS
10
4.62425
20
-4.6
11
4.64
21
-4.61575
0
LINE
8
BLACK
6
CONTINUOUS
10
4.73079
20
-3.31575
11
4.74654
21
-3.3
0
LINE
8
BLACK
6
CONTINUOUS
10
4.74654
20
-3.3
11
4.73079
21
-3.28425
0
LINE
8
BLACK
6
CONTINUOUS
10
4.73079
20
-3.28425
11
4.71504
21
-3.3
0
LINE
8
BLACK
6
CONTINUOUS
10
4.71504
20
-3.3
11
4.73079
21
-3.31575
0
LINE
8
BLACK
6
CONTINUOUS
10
4.74
20
-4.31575
11
4.75575
21
-4.3
0
LINE
8
BLACK
6
CONTINUOUS
10
4.75575
20
-4.3
11
4.74
21
-4.28425
0
LINE
8
BLACK
6
CONTINUOUS
10
4.74
20
-4.28425
11
4.72425
21
-4.3
0
LINE
8
BLACK
6
CONTINUOUS
10
4.72425
20
-4.3
11
4.74
21
-4.31575
0
LINE
8
BLACK
6
CONTINUOUS
10
4.74
20
-4.61575
11
4.75575
21
-4.6
0
LINE
8
BLACK
6
CONTINUOUS
10
4.75575
20
-4.6
11
4.74
21
-4.58425
0
LINE
8
BLACK
6
CONTINUOUS
10
4.74
20
-4.58425
11
4.72425
21
-4.6
0
LINE
8
BLACK
6
CONTINUOUS
10
4.72425
20
-4.6
11
4.74
21
-4.61575
0
LINE
8
BLACK
6
CONTINUOUS
10
4.81727
20
-3.01575
11
4.83302
21
-3
0
LINE
8
BLACK
6
CONTINUOUS
10
4.83302
20
-3
11
4.81727
21
-2.98425
0
LINE
8
BLACK
6
CONTINUOUS
10
4.81727
20
-2.98425
11
4.80152
21
-3
0
LINE
8
BLACK
6
CONTINUOUS
10
4.80152
20
-3
11
4.81727
21
-3.01575
0
LINE
8
BLACK
6
CONTINUOUS
10
4.82921
20
-3.31575
11
4.84496
21
-3.3
0
LINE
8
BLACK
6
CONTINUOUS
10
4.84496
20
-3.3
11
4.82921
21
-3.28425
0
LINE
8
BLACK
6
CONTINUOUS
10
4.82921
20
-3.28425
11
4.81346
21
-3.3
0
LINE
8
BLACK
6
CONTINUOUS
10
4.81346
20
-3.3
11
4.82921
21
-3.31575
0
LINE
8
BLACK
6
CONTINUOUS
10
4.84
20
-4.31575
11
4.85575
21
-4.3
0
LINE
8
BLACK
6
CONTINUOUS
10
4.85575
20
-4.3
11
4.84
21
-4.28425
0
LINE
8
BLACK
6
CONTINUOUS
10
4.84
20
-4.28425
11
4.82425
21
-4.3
0
LINE
8
BLACK
6
CONTINUOUS
10
4.82425
20
-4.3
11
4.84
21
-4.31575
0
LINE
8
BLACK
6
CONTINUOUS
10
4.84
20
-4.61575
11
4.85575
21
-4.6
0
LINE
8
BLACK
6
CONTINUOUS
10
4.85575
20
-4.6
11
4.84
21
-4.58425
0
LINE
8
BLACK
6
CONTINUOUS
10
4.84
20
-4.58425
11
4.82425
21
-4.6
0
LINE
8
BLACK
6
CONTINUOUS
10
4.82425
20
-4.6
11
4.84
21
-4.61575
0
LINE
8
BLACK
6
CONTINUOUS
10
4.94
20
-4.31575
11
4.95575
21
-4.3
0
LINE
8
BLACK
6
CONTINUOUS
10
4.95575
20
-4.3
11
4.94
21
-4.28425
0
LINE
8
BLACK
6
CONTINUOUS
10
4.94
20
-4.28425
11
4.92425
21
-4.3
0
LINE
8
BLACK
6
CONTINUOUS
10
4.92425
20
-4.3
11
4.94
21
-4.31575
0
LINE
8
BLACK
6
CONTINUOUS
10
4.94
20
-4.61575
11
4.95575
21
-4.6
0
LINE
8
BLACK
6
CONTINUOUS
10
4.95575
20
-4.6
11
4.94
21
-4.58425
0
LINE
8
BLACK
6
CONTINUOUS
10
4.94
20
-4.58425
11
4.92425
21
-4.6
0
LINE
8
BLACK
6
CONTINUOUS
10
4.92425
20
-4.6
11
4.94
21
-4.61575
0
LINE
8
BLACK
6
CONTINUOUS
10
4.95507
20
-3.01575
11
4.97081
21
-3
0
LINE
8
BLACK
6
CONTINUOUS
10
4.97081
20
-3
11
4.95507
21
-2.98425
0
LINE
8
BLACK
6
CONTINUOUS
10
4.95507
20
-2.98425
11
4.93932
21
-3
0
LINE
8
BLACK
6
CONTINUOUS
10
4.93932
20
-3
11
4.95507
21
-3.01575
0
LINE
8
BLACK
6
CONTINUOUS
10
5.04
20
-4.31575
11
5.05575
21
-4.3
0
LINE
8
BLACK
6
CONTINUOUS
10
5.05575
20
-4.3
11
5.04
21
-4.28425
0
LINE
8
BLACK
6
CONTINUOUS
10
5.04
20
-4.28425
11
5.02425
21
-4.3
0
LINE
8
BLACK
6
CONTINUOUS
10
5.02425
20
-4.3
11
5.04
21
-4.31575
0
LINE
8
BLACK
6
CONTINUOUS
10
5.04
20
-4.61575
11
5.05575
21
-4.6
0
LINE
8
BLACK
6
CONTINUOUS
10
5.05575
20
-4.6
11
5.04
21
-4.58425
0
LINE
8
BLACK
6
CONTINUOUS
10
5.04
20
-4.58425
11
5.02425
21
-4.6
0
LINE
8
BLACK
6
CONTINUOUS
10
5.02425
20
-4.6
11
5.04
21
-4.61575
0
LINE
8
BLACK
6
CONTINUOUS
10
5.14
20
-4.31575
11
5.15575
21
-4.3
0
LINE
8
BLACK
6
CONTINUOUS
10
5.15575
20
-4.3
11
5.14
21
-4.28425
0
LINE
8
BLACK
6
CONTINUOUS
10
5.14
20
-4.28425
11
5.12425
21
-4.3
0
LINE
8
BLACK
6
CONTINUOUS
10
5.12425
20
-4.3
11
5.14
21
-4.31575
0
LINE
8
BLACK
6
CONTINUOUS
10
5.14
20
-4.61575
11
5.15575
21
-4.6
0
LINE
8
BLACK
6
CONTINUOUS
10
5.15575
20
-4.6
11
5.14
21
-4.58425
0
LINE
8
BLACK
6
CONTINUOUS
10
5.14
20
-4.58425
11
5.12425
21
-4.6
0
LINE
8
BLACK
6
CONTINUOUS
10
5.12425
20
-4.6
11
5.14
21
-4.61575
0
LINE
8
BLACK
6
CONTINUOUS
10
5.23039
20
-3.01575
11
5.24614
21
-3
0
LINE
8
BLACK
6
CONTINUOUS
10
5.24614
20
-3
11
5.23039
21
-2.98425
0
LINE
8
BLACK
6
CONTINUOUS
10
5.23039
20
-2.98425
11
5.21465
21
-3
0
LINE
8
BLACK
6
CONTINUOUS
10
5.21465
20
-3
11
5.23039
21
-3.01575
0
LINE
8
BLACK
6
CONTINUOUS
10
5.24
20
-4.31575
11
5.25575
21
-4.3
0
LINE
8
BLACK
6
CONTINUOUS
10
5.25575
20
-4.3
11
5.24
21
-4.28425
0
LINE
8
BLACK
6
CONTINUOUS
10
5.24
20
-4.28425
11
5.22425
21
-4.3
0
LINE
8
BLACK
6
CONTINUOUS
10
5.22425
20
-4.3
11
5.24
21
-4.31575
0
LINE
8
BLACK
6
CONTINUOUS
10
5.24
20
-4.61575
11
5.25575
21
-4.6
0
LINE
8
BLACK
6
CONTINUOUS
10
5.25575
20
-4.6
11
5.24
21
-4.58425
0
LINE
8
BLACK
6
CONTINUOUS
10
5.24
20
-4.58425
11
5.22425
21
-4.6
0
LINE
8
BLACK
6
CONTINUOUS
10
5.22425
20
-4.6
11
5.24
21
-4.61575
0
LINE
8
BLACK
6
CONTINUOUS
10
5.34
20
-4.31575
11
5.35575
21
-4.3
0
LINE
8
BLACK
6
CONTINUOUS
10
5.35575
20
-4.3
11
5.34
21
-4.28425
0
LINE
8
BLACK
6
CONTINUOUS
10
5.34
20
-4.28425
11
5.32425
21
-4.3
0
LINE
8
BLACK
6
CONTINUOUS
10
5.32425
20
-4.3
11
5.34
21
-4.31575
0
LINE
8
BLACK
6
CONTINUOUS
10
5.34
20
-4.61575
11
5.35575
21
-4.6
0
LINE
8
BLACK
6
CONTINUOUS
10
5.35575
20
-4.6
11
5.34
21
-4.58425
0
LINE
8
BLACK
6
CONTINUOUS
10
5.34
20
-4.58425
11
5.32425
21
-4.6
0
LINE
8
BLACK
6
CONTINUOUS
10
5.32425
20
-4.6
11
5.34
21
-4.61575
0
LINE
8
BLACK
6
CONTINUOUS
10
5.38
20
-3.01575
11
5.39575
21
-3
0
LINE
8
BLACK
6
CONTINUOUS
10
5.39575
20
-3
11
5.38
21
-2.98425
0
LINE
8
BLACK
6
CONTINUOUS
10
5.38
20
-2.98425
11
5.36425
21
-3
0
LINE
8
BLACK
6
CONTINUOUS
10
5.36425
20
-3
11
5.38
21
-3.01575
0
LINE
8
BLACK
6
CONTINUOUS
10
3.25031
20
-3.26031
11
3.28969
21
-3.29969
0
LINE
8
BLACK
6
CONTINUOUS
10
3.28969
20
-3.26031
11
3.25031
21
-3.29969
0
CIRCLE
8
BLACK
10
3.27
20
-3.28
40
0.019685
0
LINE
8
BLACK
6
CONTINUOUS
10
3.25031
20
-3.24063
11
3.25031
21
-3.31937
0
ARC
8
BLACK
10
3.27
20
-3.31937
40
0.019685
50
180
51
360
0
LINE
8
BLACK
6
CONTINUOUS
10
3.28969
20
-3.31937
11
3.28969
21
-3.24063
0
ARC
8
BLACK
10
3.27
20
-3.24063
40
0.019685
50
0
51
180
0
LINE
8
BLACK
6
CONTINUOUS
10
3.26431
20
-3.69031
11
3.30369
21
-3.72969
0
LINE
8
BLACK
6
CONTINUOUS
10
3.30369
20
-3.69031
11
3.26431
21
-3.72969
0
CIRCLE
8
BLACK
10
3.284
20
-3.71
40
0.019685
0
LINE
8
BLACK
6
CONTINUOUS
10
3.26431
20
-3.79031
11
3.30369
21
-3.82969
0
LINE
8
BLACK
6
CONTINUOUS
10
3.30369
20
-3.79031
11
3.26431
21
-3.82969
0
CIRCLE
8
BLACK
10
3.284
20
-3.81
40
0.019685
0
LINE
8
BLACK
6
CONTINUOUS
10
3.26431
20
-3.89031
11
3.30369
21
-3.92969
0
LINE
8
BLACK
6
CONTINUOUS
10
3.30369
20
-3.89031
11
3.26431
21
-3.92969
0
CIRCLE
8
BLACK
10
3.284
20
-3.91
40
0.019685
0
LINE
8
BLACK
6
CONTINUOUS
10
3.26431
20
-3.99031
11
3.30369
21
-4.02969
0
LINE
8
BLACK
6
CONTINUOUS
10
3.30369
20
-3.99031
11
3.26431
21
-4.02969
0
CIRCLE
8
BLACK
10
3.284
20
-4.01
40
0.019685
0
LINE
8
BLACK
6
CONTINUOUS
10
3.26431
20
-4.09031
11
3.30369
21
-4.12969
0
LINE
8
BLACK
6
CONTINUOUS
10
3.30369
20
-4.09031
11
3.26431
21
-4.12969
0
CIRCLE
8
BLACK
10
3.284
20
-4.11
40
0.019685
0
LINE
8
BLACK
6
CONTINUOUS
10
3.36843
20
-3.44535
11
3.4078
21
-3.48472
0
LINE
8
BLACK
6
CONTINUOUS
10
3.4078
20
-3.44535
11
3.36843
21
-3.48472
0
CIRCLE
8
BLACK
10
3.38811
20
-3.46504
40
0.019685
0
LINE
8
BLACK
6
CONTINUOUS
10
3.34874
20
-3.48472
11
3.42748
21
-3.48472
0
ARC
8
BLACK
10
3.42748
20
-3.46504
40
0.019685
50
270
51
450
0
LINE
8
BLACK
6
CONTINUOUS
10
3.42748
20
-3.44535
11
3.34874
21
-3.44535
0
ARC
8
BLACK
10
3.34874
20
-3.46504
40
0.019685
50
90
51
270
0
LINE
8
BLACK
6
CONTINUOUS
10
3.48654
20
-3.26031
11
3.52591
21
-3.29969
0
LINE
8
BLACK
6
CONTINUOUS
10
3.52591
20
-3.26031
11
3.48654
21
-3.29969
0
CIRCLE
8
BLACK
10
3.50622
20
-3.28
40
0.019685
0
LINE
8
BLACK
6
CONTINUOUS
10
3.48654
20
-3.24063
11
3.48654
21
-3.31937
0
ARC
8
BLACK
10
3.50622
20
-3.31937
40
0.019685
50
180
51
360
0
LINE
8
BLACK
6
CONTINUOUS
10
3.52591
20
-3.31937
11
3.52591
21
-3.24063
0
ARC
8
BLACK
10
3.50622
20
-3.24063
40
0.019685
50
0
51
180
0
LINE
8
BLACK
6
CONTINUOUS
10
5.92126
20
-3.76772
11
5.96063
21
-3.80709
0
LINE
8
BLACK
6
CONTINUOUS
10
5.96063
20
-3.76772
11
5.92126
21
-3.80709
0
CIRCLE
8
BLACK
10
5.94094
20
-3.7874
40
0.019685
0
LINE
8
BLACK
6
CONTINUOUS
10
5.92126
20
-3.86772
11
5.96063
21
-3.90709
0
LINE
8
BLACK
6
CONTINUOUS
10
5.96063
20
-3.86772
11
5.92126
21
-3.90709
0
CIRCLE
8
BLACK
10
5.94094
20
-3.8874
40
0.019685
0
LINE
8
BLACK
6
CONTINUOUS
10
5.0163
20
-3.29441
11
5.06748
21
-3.34559
0
LINE
8
BLACK
6
CONTINUOUS
10
5.06748
20
-3.29441
11
5.0163
21
-3.34559
0
LINE
8
BLACK
6
CONTINUOUS
10
5.04189
20
-3.29441
11
5.04189
21
-3.34559
0
LINE
8
BLACK
6
CONTINUOUS
10
5.0163
20
-3.32
11
5.06748
21
-3.32
0
LINE
8
BLACK
6
CONTINUOUS
10
5.13441
20
-3.29441
11
5.18559
21
-3.34559
0
LINE
8
BLACK
6
CONTINUOUS
10
5.18559
20
-3.29441
11
5.13441
21
-3.34559
0
LINE
8
BLACK
6
CONTINUOUS
10
5.16
20
-3.29441
11
5.16
21
-3.34559
0
LINE
8
BLACK
6
CONTINUOUS
10
5.13441
20
-3.32
11
5.18559
21
-3.32
0
LINE
8
BLACK
6
CONTINUOUS
10
3.04532
20
-5.01023
11
3.04532
21
-4.93149
0
LINE
8
BLACK
6
CONTINUOUS
10
3.04532
20
-4.93149
11
3.06407
21
-4.93149
0
LINE
8
BLACK
6
CONTINUOUS
10
3.06407
20
-4.93149
11
3.07532
21
-4.93524
0
LINE
8
BLACK
6
CONTINUOUS
10
3.07532
20
-4.93524
11
3.08282
21
-4.94274
0
LINE
8
BLACK
6
CONTINUOUS
10
3.08282
20
-4.94274
11
3.08657
21
-4.95023
0
LINE
8
BLACK
6
CONTINUOUS
10
3.08657
20
-4.95023
11
3.09032
21
-4.96523
0
LINE
8
BLACK
6
CONTINUOUS
10
3.09032
20
-4.96523
11
3.09032
21
-4.97648
0
LINE
8
BLACK
6
CONTINUOUS
10
3.09032
20
-4.97648
11
3.08657
21
-4.99148
0
LINE
8
BLACK
6
CONTINUOUS
10
3.08657
20
-4.99148
11
3.08282
21
-4.99898
0
LINE
8
BLACK
6
CONTINUOUS
10
3.08282
20
-4.99898
11
3.07532
21
-5.00648
0
LINE
8
BLACK
6
CONTINUOUS
10
3.07532
20
-5.00648
11
3.06407
21
-5.01023
0
LINE
8
BLACK
6
CONTINUOUS
10
3.06407
20
-5.01023
11
3.04532
21
-5.01023
0
LINE
8
BLACK
6
CONTINUOUS
10
3.12406
20
-5.01023
11
3.12406
21
-4.95773
0
LINE
8
BLACK
6
CONTINUOUS
10
3.12406
20
-4.97273
11
3.12781
21
-4.96523
0
LINE
8
BLACK
6
CONTINUOUS
10
3.12781
20
-4.96523
11
3.13156
21
-4.96148
0
LINE
8
BLACK
6
CONTINUOUS
10
3.13156
20
-4.96148
11
3.13906
21
-4.95773
0
LINE
8
BLACK
6
CONTINUOUS
10
3.13906
20
-4.95773
11
3.14656
21
-4.95773
0
LINE
8
BLACK
6
CONTINUOUS
10
3.17281
20
-5.01023
11
3.17281
21
-4.95773
0
LINE
8
BLACK
6
CONTINUOUS
10
3.17281
20
-4.93149
11
3.16906
21
-4.93524
0
LINE
8
BLACK
6
CONTINUOUS
10
3.16906
20
-4.93524
11
3.17281
21
-4.93899
0
LINE
8
BLACK
6
CONTINUOUS
10
3.17281
20
-4.93899
11
3.17656
21
-4.93524
0
LINE
8
BLACK
6
CONTINUOUS
10
3.17656
20
-4.93524
11
3.17281
21
-4.93149
0
LINE
8
BLACK
6
CONTINUOUS
10
3.17281
20
-4.93149
11
3.17281
21
-4.93899
0
LINE
8
BLACK
6
CONTINUOUS
10
3.22155
20
-5.01023
11
3.21405
21
-5.00648
0
LINE
8
BLACK
6
CONTINUOUS
10
3.21405
20
-5.00648
11
3.2103
21
-4.99898
0
LINE
8
BLACK
6
CONTINUOUS
10
3.2103
20
-4.99898
11
3.2103
21
-4.93149
0
LINE
8
BLACK
6
CONTINUOUS
10
3.2628
20
-5.01023
11
3.2553
21
-5.00648
0
LINE
8
BLACK
6
CONTINUOUS
10
3.2553
20
-5.00648
11
3.25155
21
-4.99898
0
LINE
8
BLACK
6
CONTINUOUS
10
3.25155
20
-4.99898
11
3.25155
21
-4.93149
0
LINE
8
BLACK
6
CONTINUOUS
10
3.34004
20
-5.01023
11
3.34004
21
-4.93149
0
LINE
8
BLACK
6
CONTINUOUS
10
3.34004
20
-4.93149
11
3.36628
21
-4.98773
0
LINE
8
BLACK
6
CONTINUOUS
10
3.36628
20
-4.98773
11
3.39253
21
-4.93149
0
LINE
8
BLACK
6
CONTINUOUS
10
3.39253
20
-4.93149
11
3.39253
21
-5.01023
0
LINE
8
BLACK
6
CONTINUOUS
10
3.46377
20
-5.01023
11
3.46377
21
-4.96898
0
LINE
8
BLACK
6
CONTINUOUS
10
3.46377
20
-4.96898
11
3.46002
21
-4.96148
0
LINE
8
BLACK
6
CONTINUOUS
10
3.46002
20
-4.96148
11
3.45252
21
-4.95773
0
LINE
8
BLACK
6
CONTINUOUS
10
3.45252
20
-4.95773
11
3.43752
21
-4.95773
0
LINE
8
BLACK
6
CONTINUOUS
10
3.43752
20
-4.95773
11
3.43002
21
-4.96148
0
LINE
8
BLACK
6
CONTINUOUS
10
3.46377
20
-5.00648
11
3.45627
21
-5.01023
0
LINE
8
BLACK
6
CONTINUOUS
10
3.45627
20
-5.01023
11
3.43752
21
-5.01023
0
LINE
8
BLACK
6
CONTINUOUS
10
3.43752
20
-5.01023
11
3.43002
21
-5.00648
0
LINE
8
BLACK
6
CONTINUOUS
10
3.43002
20
-5.00648
11
3.42627
21
-4.99898
0
LINE
8
BLACK
6
CONTINUOUS
10
3.42627
20
-4.99898
11
3.42627
21
-4.99148
0
LINE
8
BLACK
6
CONTINUOUS
10
3.42627
20
-4.99148
11
3.43002
21
-4.98398
0
LINE
8
BLACK
6
CONTINUOUS
10
3.43002
20
-4.98398
11
3.43752
21
-4.98023
0
LINE
8
BLACK
6
CONTINUOUS
10
3.43752
20
-4.98023
11
3.45627
21
-4.98023
0
LINE
8
BLACK
6
CONTINUOUS
10
3.45627
20
-4.98023
11
3.46377
21
-4.97648
0
LINE
8
BLACK
6
CONTINUOUS
10
3.50127
20
-4.95773
11
3.50127
21
-5.03647
0
LINE
8
BLACK
6
CONTINUOUS
10
3.50127
20
-4.96148
11
3.50876
21
-4.95773
0
LINE
8
BLACK
6
CONTINUOUS
10
3.50876
20
-4.95773
11
3.52376
21
-4.95773
0
LINE
8
BLACK
6
CONTINUOUS
10
3.52376
20
-4.95773
11
3.53126
21
-4.96148
0
LINE
8
BLACK
6
CONTINUOUS
10
3.53126
20
-4.96148
11
3.53501
21
-4.96523
0
LINE
8
BLACK
6
CONTINUOUS
10
3.53501
20
-4.96523
11
3.53876
21
-4.97273
0
LINE
8
BLACK
6
CONTINUOUS
10
3.53876
20
-4.97273
11
3.53876
21
-4.99523
0
LINE
8
BLACK
6
CONTINUOUS
10
3.53876
20
-4.99523
11
3.53501
21
-5.00273
0
LINE
8
BLACK
6
CONTINUOUS
10
3.53501
20
-5.00273
11
3.53126
21
-5.00648
0
LINE
8
BLACK
6
CONTINUOUS
10
3.53126
20
-5.00648
11
3.52376
21
-5.01023
0
LINE
8
BLACK
6
CONTINUOUS
10
3.52376
20
-5.01023
11
3.50876
21
-5.01023
0
LINE
8
BLACK
6
CONTINUOUS
10
3.50876
20
-5.01023
11
3.50127
21
-5.00648
0
LINE
8
BLACK
6
CONTINUOUS
10
3.57251
20
-5.00273
11
3.57626
21
-5.00648
0
LINE
8
BLACK
6
CONTINUOUS
10
3.57626
20
-5.00648
11
3.57251
21
-5.01023
0
LINE
8
BLACK
6
CONTINUOUS
10
3.57251
20
-5.01023
11
3.56876
21
-5.00648
0
LINE
8
BLACK
6
CONTINUOUS
10
3.56876
20
-5.00648
11
3.57251
21
-5.00273
0
LINE
8
BLACK
6
CONTINUOUS
10
3.57251
20
-5.00273
11
3.57251
21
-5.01023
0
LINE
8
BLACK
6
CONTINUOUS
10
3.57251
20
-4.96148
11
3.57626
21
-4.96523
0
LINE
8
BLACK
6
CONTINUOUS
10
3.57626
20
-4.96523
11
3.57251
21
-4.96898
0
LINE
8
BLACK
6
CONTINUOUS
10
3.57251
20
-4.96898
11
3.56876
21
-4.96523
0
LINE
8
BLACK
6
CONTINUOUS
10
3.56876
20
-4.96523
11
3.57251
21
-4.96148
0
LINE
8
BLACK
6
CONTINUOUS
10
3.57251
20
-4.96148
11
3.57251
21
-4.96898
0
LINE
8
BLACK
6
CONTINUOUS
10
2.93209
20
-5.13878
11
2.94783
21
-5.15453
0
LINE
8
BLACK
6
CONTINUOUS
10
2.94783
20
-5.13878
11
2.93209
21
-5.15453
0
LINE
8
BLACK
6
CONTINUOUS
10
3.06032
20
-5.09684
11
3.06782
21
-5.09684
0
LINE
8
BLACK
6
CONTINUOUS
10
3.06782
20
-5.09684
11
3.07532
21
-5.10059
0
LINE
8
BLACK
6
CONTINUOUS
10
3.07532
20
-5.10059
11
3.07907
21
-5.10434
0
LINE
8
BLACK
6
CONTINUOUS
10
3.07907
20
-5.10434
11
3.08282
21
-5.11184
0
LINE
8
BLACK
6
CONTINUOUS
10
3.08282
20
-5.11184
11
3.08657
21
-5.12684
0
LINE
8
BLACK
6
CONTINUOUS
10
3.08657
20
-5.12684
11
3.08657
21
-5.14558
0
LINE
8
BLACK
6
CONTINUOUS
10
3.08657
20
-5.14558
11
3.08282
21
-5.16058
0
LINE
8
BLACK
6
CONTINUOUS
10
3.08282
20
-5.16058
11
3.07907
21
-5.16808
0
LINE
8
BLACK
6
CONTINUOUS
10
3.07907
20
-5.16808
11
3.07532
21
-5.17183
0
LINE
8
BLACK
6
CONTINUOUS
10
3.07532
20
-5.17183
11
3.06782
21
-5.17558
0
LINE
8
BLACK
6
CONTINUOUS
10
3.06782
20
-5.17558
11
3.06032
21
-5.17558
0
LINE
8
BLACK
6
CONTINUOUS
10
3.06032
20
-5.17558
11
3.05282
21
-5.17183
0
LINE
8
BLACK
6
CONTINUOUS
10
3.05282
20
-5.17183
11
3.04907
21
-5.16808
0
LINE
8
BLACK
6
CONTINUOUS
10
3.04907
20
-5.16808
11
3.04532
21
-5.16058
0
LINE
8
BLACK
6
CONTINUOUS
10
3.04532
20
-5.16058
11
3.04157
21
-5.14558
0
LINE
8
BLACK
6
CONTINUOUS
10
3.04157
20
-5.14558
11
3.04157
21
-5.12684
0
LINE
8
BLACK
6
CONTINUOUS
10
3.04157
20
-5.12684
11
3.04532
21
-5.11184
0
LINE
8
BLACK
6
CONTINUOUS
10
3.04532
20
-5.11184
11
3.04907
21
-5.10434
0
LINE
8
BLACK
6
CONTINUOUS
10
3.04907
20
-5.10434
11
3.05282
21
-5.10059
0
LINE
8
BLACK
6
CONTINUOUS
10
3.05282
20
-5.10059
11
3.06032
21
-5.09684
0
LINE
8
BLACK
6
CONTINUOUS
10
3.12031
20
-5.16808
11
3.12406
21
-5.17183
0
LINE
8
BLACK
6
CONTINUOUS
10
3.12406
20
-5.17183
11
3.12031
21
-5.17558
0
LINE
8
BLACK
6
CONTINUOUS
10
3.12031
20
-5.17558
11
3.11656
21
-5.17183
0
LINE
8
BLACK
6
CONTINUOUS
10
3.11656
20
-5.17183
11
3.12031
21
-5.16808
0
LINE
8
BLACK
6
CONTINUOUS
10
3.12031
20
-5.16808
11
3.12031
21
-5.17558
0
LINE
8
BLACK
6
CONTINUOUS
10
3.19155
20
-5.12309
11
3.19155
21
-5.17558
0
LINE
8
BLACK
6
CONTINUOUS
10
3.17281
20
-5.09309
11
3.15406
21
-5.14933
0
LINE
8
BLACK
6
CONTINUOUS
10
3.15406
20
-5.14933
11
3.2028
21
-5.14933
0
LINE
8
BLACK
6
CONTINUOUS
10
3.2478
20
-5.09684
11
3.2553
21
-5.09684
0
LINE
8
BLACK
6
CONTINUOUS
10
3.2553
20
-5.09684
11
3.2628
21
-5.10059
0
LINE
8
BLACK
6
CONTINUOUS
10
3.2628
20
-5.10059
11
3.26654
21
-5.10434
0
LINE
8
BLACK
6
CONTINUOUS
10
3.26654
20
-5.10434
11
3.27029
21
-5.11184
0
LINE
8
BLACK
6
CONTINUOUS
10
3.27029
20
-5.11184
11
3.27404
21
-5.12684
0
LINE
8
BLACK
6
CONTINUOUS
10
3.27404
20
-5.12684
11
3.27404
21
-5.14558
0
LINE
8
BLACK
6
CONTINUOUS
10
3.27404
20
-5.14558
11
3.27029
21
-5.16058
0
LINE
8
BLACK
6
CONTINUOUS
10
3.27029
20
-5.16058
11
3.26654
21
-5.16808
0
LINE
8
BLACK
6
CONTINUOUS
10
3.26654
20
-5.16808
11
3.2628
21
-5.17183
0
LINE
8
BLACK
6
CONTINUOUS
10
3.2628
20
-5.17183
11
3.2553
21
-5.17558
0
LINE
8
BLACK
6
CONTINUOUS
10
3.2553
20
-5.17558
11
3.2478
21
-5.17558
0
LINE
8
BLACK
6
CONTINUOUS
10
3.2478
20
-5.17558
11
3.2403
21
-5.17183
0
LINE
8
BLACK
6
CONTINUOUS
10
3.2403
20
-5.17183
11
3.23655
21
-5.16808
0
LINE
8
BLACK
6
CONTINUOUS
10
3.23655
20
-5.16808
11
3.2328
21
-5.16058
0
LINE
8
BLACK
6
CONTINUOUS
10
3.2328
20
-5.16058
11
3.22905
21
-5.14558
0
LINE
8
BLACK
6
CONTINUOUS
10
3.22905
20
-5.14558
11
3.22905
21
-5.12684
0
LINE
8
BLACK
6
CONTINUOUS
10
3.22905
20
-5.12684
11
3.2328
21
-5.11184
0
LINE
8
BLACK
6
CONTINUOUS
10
3.2328
20
-5.11184
11
3.23655
21
-5.10434
0
LINE
8
BLACK
6
CONTINUOUS
10
3.23655
20
-5.10434
11
3.2403
21
-5.10059
0
LINE
8
BLACK
6
CONTINUOUS
10
3.2403
20
-5.10059
11
3.2478
21
-5.09684
0
LINE
8
BLACK
6
CONTINUOUS
10
3.32279
20
-5.09684
11
3.33029
21
-5.09684
0
LINE
8
BLACK
6
CONTINUOUS
10
3.33029
20
-5.09684
11
3.33779
21
-5.10059
0
LINE
8
BLACK
6
CONTINUOUS
10
3.33779
20
-5.10059
11
3.34154
21
-5.10434
0
LINE
8
BLACK
6
CONTINUOUS
10
3.34154
20
-5.10434
11
3.34528
21
-5.11184
0
LINE
8
BLACK
6
CONTINUOUS
10
3.34528
20
-5.11184
11
3.34903
21
-5.12684
0
LINE
8
BLACK
6
CONTINUOUS
10
3.34903
20
-5.12684
11
3.34903
21
-5.14558
0
LINE
8
BLACK
6
CONTINUOUS
10
3.34903
20
-5.14558
11
3.34528
21
-5.16058
0
LINE
8
BLACK
6
CONTINUOUS
10
3.34528
20
-5.16058
11
3.34154
21
-5.16808
0
LINE
8
BLACK
6
CONTINUOUS
10
3.34154
20
-5.16808
11
3.33779
21
-5.17183
0
LINE
8
BLACK
6
CONTINUOUS
10
3.33779
20
-5.17183
11
3.33029
21
-5.17558
0
LINE
8
BLACK
6
CONTINUOUS
10
3.33029
20
-5.17558
11
3.32279
21
-5.17558
0
LINE
8
BLACK
6
CONTINUOUS
10
3.32279
20
-5.17558
11
3.31529
21
-5.17183
0
LINE
8
BLACK
6
CONTINUOUS
10
3.31529
20
-5.17183
11
3.31154
21
-5.16808
0
LINE
8
BLACK
6
CONTINUOUS
10
3.31154
20
-5.16808
11
3.30779
21
-5.16058
0
LINE
8
BLACK
6
CONTINUOUS
10
3.30779
20
-5.16058
11
3.30404
21
-5.14558
0
LINE
8
BLACK
6
CONTINUOUS
10
3.30404
20
-5.14558
11
3.30404
21
-5.12684
0
LINE
8
BLACK
6
CONTINUOUS
10
3.30404
20
-5.12684
11
3.30779
21
-5.11184
0
LINE
8
BLACK
6
CONTINUOUS
10
3.30779
20
-5.11184
11
3.31154
21
-5.10434
0
LINE
8
BLACK
6
CONTINUOUS
10
3.31154
20
-5.10434
11
3.31529
21
-5.10059
0
LINE
8
BLACK
6
CONTINUOUS
10
3.31529
20
-5.10059
11
3.32279
21
-5.09684
0
LINE
8
BLACK
6
CONTINUOUS
10
3.38278
20
-5.17558
11
3.38278
21
-5.12309
0
LINE
8
BLACK
6
CONTINUOUS
10
3.38278
20
-5.13059
11
3.38653
21
-5.12684
0
LINE
8
BLACK
6
CONTINUOUS
10
3.38653
20
-5.12684
11
3.39403
21
-5.12309
0
LINE
8
BLACK
6
CONTINUOUS
10
3.39403
20
-5.12309
11
3.40528
21
-5.12309
0
LINE
8
BLACK
6
CONTINUOUS
10
3.40528
20
-5.12309
11
3.41278
21
-5.12684
0
LINE
8
BLACK
6
CONTINUOUS
10
3.41278
20
-5.12684
11
3.41653
21
-5.13434
0
LINE
8
BLACK
6
CONTINUOUS
10
3.41653
20
-5.13434
11
3.41653
21
-5.17558
0
LINE
8
BLACK
6
CONTINUOUS
10
3.41653
20
-5.13434
11
3.42028
21
-5.12684
0
LINE
8
BLACK
6
CONTINUOUS
10
3.42028
20
-5.12684
11
3.42777
21
-5.12309
0
LINE
8
BLACK
6
CONTINUOUS
10
3.42777
20
-5.12309
11
3.43902
21
-5.12309
0
LINE
8
BLACK
6
CONTINUOUS
10
3.43902
20
-5.12309
11
3.44652
21
-5.12684
0
LINE
8
BLACK
6
CONTINUOUS
10
3.44652
20
-5.12684
11
3.45027
21
-5.13434
0
LINE
8
BLACK
6
CONTINUOUS
10
3.45027
20
-5.13434
11
3.45027
21
-5.17558
0
LINE
8
BLACK
6
CONTINUOUS
10
3.48777
20
-5.17558
11
3.48777
21
-5.12309
0
LINE
8
BLACK
6
CONTINUOUS
10
3.48777
20
-5.13059
11
3.49152
21
-5.12684
0
LINE
8
BLACK
6
CONTINUOUS
10
3.49152
20
-5.12684
11
3.49902
21
-5.12309
0
LINE
8
BLACK
6
CONTINUOUS
10
3.49902
20
-5.12309
11
3.51026
21
-5.12309
0
LINE
8
BLACK
6
CONTINUOUS
10
3.51026
20
-5.12309
11
3.51776
21
-5.12684
0
LINE
8
BLACK
6
CONTINUOUS
10
3.51776
20
-5.12684
11
3.52151
21
-5.13434
0
LINE
8
BLACK
6
CONTINUOUS
10
3.52151
20
-5.13434
11
3.52151
21
-5.17558
0
LINE
8
BLACK
6
CONTINUOUS
10
3.52151
20
-5.13434
11
3.52526
21
-5.12684
0
LINE
8
BLACK
6
CONTINUOUS
10
3.52526
20
-5.12684
11
3.53276
21
-5.12309
0
LINE
8
BLACK
6
CONTINUOUS
10
3.53276
20
-5.12309
11
3.54401
21
-5.12309
0
LINE
8
BLACK
6
CONTINUOUS
10
3.54401
20
-5.12309
11
3.55151
21
-5.12684
0
LINE
8
BLACK
6
CONTINUOUS
10
3.55151
20
-5.12684
11
3.55526
21
-5.13434
0
LINE
8
BLACK
6
CONTINUOUS
10
3.55526
20
-5.13434
11
3.55526
21
-5.17558
0
LINE
8
BLACK
6
CONTINUOUS
10
3.69624
20
-5.09309
11
3.62875
21
-5.19433
0
LINE
8
BLACK
6
CONTINUOUS
10
3.78473
20
-5.09684
11
3.79223
21
-5.09684
0
LINE
8
BLACK
6
CONTINUOUS
10
3.79223
20
-5.09684
11
3.79973
21
-5.10059
0
LINE
8
BLACK
6
CONTINUOUS
10
3.79973
20
-5.10059
11
3.80348
21
-5.10434
0
LINE
8
BLACK
6
CONTINUOUS
10
3.80348
20
-5.10434
11
3.80723
21
-5.11184
0
LINE
8
BLACK
6
CONTINUOUS
10
3.80723
20
-5.11184
11
3.81098
21
-5.12684
0
LINE
8
BLACK
6
CONTINUOUS
10
3.81098
20
-5.12684
11
3.81098
21
-5.14558
0
LINE
8
BLACK
6
CONTINUOUS
10
3.81098
20
-5.14558
11
3.80723
21
-5.16058
0
LINE
8
BLACK
6
CONTINUOUS
10
3.80723
20
-5.16058
11
3.80348
21
-5.16808
0
LINE
8
BLACK
6
CONTINUOUS
10
3.80348
20
-5.16808
11
3.79973
21
-5.17183
0
LINE
8
BLACK
6
CONTINUOUS
10
3.79973
20
-5.17183
11
3.79223
21
-5.17558
0
LINE
8
BLACK
6
CONTINUOUS
10
3.79223
20
-5.17558
11
3.78473
21
-5.17558
0
LINE
8
BLACK
6
CONTINUOUS
10
3.78473
20
-5.17558
11
3.77723
21
-5.17183
0
LINE
8
BLACK
6
CONTINUOUS
10
3.77723
20
-5.17183
11
3.77348
21
-5.16808
0
LINE
8
BLACK
6
CONTINUOUS
10
3.77348
20
-5.16808
11
3.76973
21
-5.16058
0
LINE
8
BLACK
6
CONTINUOUS
10
3.76973
20
-5.16058
11
3.76598
21
-5.14558
0
LINE
8
BLACK
6
CONTINUOUS
10
3.76598
20
-5.14558
11
3.76598
21
-5.12684
0
LINE
8
BLACK
6
CONTINUOUS
10
3.76598
20
-5.12684
11
3.76973
21
-5.11184
0
LINE
8
BLACK
6
CONTINUOUS
10
3.76973
20
-5.11184
11
3.77348
21
-5.10434
0
LINE
8
BLACK
6
CONTINUOUS
10
3.77348
20
-5.10434
11
3.77723
21
-5.10059
0
LINE
8
BLACK
6
CONTINUOUS
10
3.77723
20
-5.10059
11
3.78473
21
-5.09684
0
LINE
8
BLACK
6
CONTINUOUS
10
3.84472
20
-5.16808
11
3.84847
21
-5.17183
0
LINE
8
BLACK
6
CONTINUOUS
10
3.84847
20
-5.17183
11
3.84472
21
-5.17558
0
LINE
8
BLACK
6
CONTINUOUS
10
3.84472
20
-5.17558
11
3.84097
21
-5.17183
0
LINE
8
BLACK
6
CONTINUOUS
10
3.84097
20
-5.17183
11
3.84472
21
-5.16808
0
LINE
8
BLACK
6
CONTINUOUS
10
3.84472
20
-5.16808
11
3.84472
21
-5.17558
0
LINE
8
BLACK
6
CONTINUOUS
10
3.89722
20
-5.09684
11
3.90472
21
-5.09684
0
LINE
8
BLACK
6
CONTINUOUS
10
3.90472
20
-5.09684
11
3.91221
21
-5.10059
0
LINE
8
BLACK
6
CONTINUOUS
10
3.91221
20
-5.10059
11
3.91596
21
-5.10434
0
LINE
8
BLACK
6
CONTINUOUS
10
3.91596
20
-5.10434
11
3.91971
21
-5.11184
0
LINE
8
BLACK
6
CONTINUOUS
10
3.91971
20
-5.11184
11
3.92346
21
-5.12684
0
LINE
8
BLACK
6
CONTINUOUS
10
3.92346
20
-5.12684
11
3.92346
21
-5.14558
0
LINE
8
BLACK
6
CONTINUOUS
10
3.92346
20
-5.14558
11
3.91971
21
-5.16058
0
LINE
8
BLACK
6
CONTINUOUS
10
3.91971
20
-5.16058
11
3.91596
21
-5.16808
0
LINE
8
BLACK
6
CONTINUOUS
10
3.91596
20
-5.16808
11
3.91221
21
-5.17183
0
LINE
8
BLACK
6
CONTINUOUS
10
3.91221
20
-5.17183
11
3.90472
21
-5.17558
0
LINE
8
BLACK
6
CONTINUOUS
10
3.90472
20
-5.17558
11
3.89722
21
-5.17558
0
LINE
8
BLACK
6
CONTINUOUS
10
3.89722
20
-5.17558
11
3.88972
21
-5.17183
0
LINE
8
BLACK
6
CONTINUOUS
10
3.88972
20
-5.17183
11
3.88597
21
-5.16808
0
LINE
8
BLACK
6
CONTINUOUS
10
3.88597
20
-5.16808
11
3.88222
21
-5.16058
0
LINE
8
BLACK
6
CONTINUOUS
10
3.88222
20
-5.16058
11
3.87847
21
-5.14558
0
LINE
8
BLACK
6
CONTINUOUS
10
3.87847
20
-5.14558
11
3.87847
21
-5.12684
0
LINE
8
BLACK
6
CONTINUOUS
10
3.87847
20
-5.12684
11
3.88222
21
-5.11184
0
LINE
8
BLACK
6
CONTINUOUS
10
3.88222
20
-5.11184
11
3.88597
21
-5.10434
0
LINE
8
BLACK
6
CONTINUOUS
10
3.88597
20
-5.10434
11
3.88972
21
-5.10059
0
LINE
8
BLACK
6
CONTINUOUS
10
3.88972
20
-5.10059
11
3.89722
21
-5.09684
0
LINE
8
BLACK
6
CONTINUOUS
10
3.99845
20
-5.17558
11
3.95346
21
-5.17558
0
LINE
8
BLACK
6
CONTINUOUS
10
3.97596
20
-5.17558
11
3.97596
21
-5.09684
0
LINE
8
BLACK
6
CONTINUOUS
10
3.97596
20
-5.09684
11
3.96846
21
-5.10809
0
LINE
8
BLACK
6
CONTINUOUS
10
3.96846
20
-5.10809
11
3.96096
21
-5.11559
0
LINE
8
BLACK
6
CONTINUOUS
10
3.96096
20
-5.11559
11
3.95346
21
-5.11934
0
LINE
8
BLACK
6
CONTINUOUS
10
4.06969
20
-5.09684
11
4.0322
21
-5.09684
0
LINE
8
BLACK
6
CONTINUOUS
10
4.0322
20
-5.09684
11
4.02845
21
-5.13434
0
LINE
8
BLACK
6
CONTINUOUS
10
4.02845
20
-5.13434
11
4.0322
21
-5.13059
0
LINE
8
BLACK
6
CONTINUOUS
10
4.0322
20
-5.13059
11
4.0397
21
-5.12684
0
LINE
8
BLACK
6
CONTINUOUS
10
4.0397
20
-5.12684
11
4.05845
21
-5.12684
0
LINE
8
BLACK
6
CONTINUOUS
10
4.05845
20
-5.12684
11
4.06594
21
-5.13059
0
LINE
8
BLACK
6
CONTINUOUS
10
4.06594
20
-5.13059
11
4.06969
21
-5.13434
0
LINE
8
BLACK
6
CONTINUOUS
10
4.06969
20
-5.13434
11
4.07344
21
-5.14184
0
LINE
8
BLACK
6
CONTINUOUS
10
4.07344
20
-5.14184
11
4.07344
21
-5.16058
0
LINE
8
BLACK
6
CONTINUOUS
10
4.07344
20
-5.16058
11
4.06969
21
-5.16808
0
LINE
8
BLACK
6
CONTINUOUS
10
4.06969
20
-5.16808
11
4.06594
21
-5.17183
0
LINE
8
BLACK
6
CONTINUOUS
10
4.06594
20
-5.17183
11
4.05845
21
-5.17558
0
LINE
8
BLACK
6
CONTINUOUS
10
4.05845
20
-5.17558
11
4.0397
21
-5.17558
0
LINE
8
BLACK
6
CONTINUOUS
10
4.0397
20
-5.17558
11
4.0322
21
-5.17183
0
LINE
8
BLACK
6
CONTINUOUS
10
4.0322
20
-5.17183
11
4.02845
21
-5.16808
0
LINE
8
BLACK
6
CONTINUOUS
10
4.09969
20
-5.09684
11
4.15218
21
-5.09684
0
LINE
8
BLACK
6
CONTINUOUS
10
4.15218
20
-5.09684
11
4.11844
21
-5.17558
0
LINE
8
BLACK
6
CONTINUOUS
10
4.17843
20
-5.09684
11
4.17843
21
-5.11184
0
LINE
8
BLACK
6
CONTINUOUS
10
4.20843
20
-5.09684
11
4.20843
21
-5.11184
0
LINE
8
BLACK
6
CONTINUOUS
10
4.31191
20
-5.20558
11
4.30816
21
-5.20183
0
LINE
8
BLACK
6
CONTINUOUS
10
4.30816
20
-5.20183
11
4.30067
21
-5.19058
0
LINE
8
BLACK
6
CONTINUOUS
10
4.30067
20
-5.19058
11
4.29692
21
-5.18308
0
LINE
8
BLACK
6
CONTINUOUS
10
4.29692
20
-5.18308
11
4.29317
21
-5.17183
0
LINE
8
BLACK
6
CONTINUOUS
10
4.29317
20
-5.17183
11
4.28942
21
-5.15308
0
LINE
8
BLACK
6
CONTINUOUS
10
4.28942
20
-5.15308
11
4.28942
21
-5.13809
0
LINE
8
BLACK
6
CONTINUOUS
10
4.28942
20
-5.13809
11
4.29317
21
-5.11934
0
LINE
8
BLACK
6
CONTINUOUS
10
4.29317
20
-5.11934
11
4.29692
21
-5.10809
0
LINE
8
BLACK
6
CONTINUOUS
10
4.29692
20
-5.10809
11
4.30067
21
-5.10059
0
LINE
8
BLACK
6
CONTINUOUS
10
4.30067
20
-5.10059
11
4.30816
21
-5.08934
0
LINE
8
BLACK
6
CONTINUOUS
10
4.30816
20
-5.08934
11
4.31191
21
-5.08559
0
LINE
8
BLACK
6
CONTINUOUS
10
4.38316
20
-5.17558
11
4.33816
21
-5.17558
0
LINE
8
BLACK
6
CONTINUOUS
10
4.36066
20
-5.17558
11
4.36066
21
-5.09684
0
LINE
8
BLACK
6
CONTINUOUS
10
4.36066
20
-5.09684
11
4.35316
21
-5.10809
0
LINE
8
BLACK
6
CONTINUOUS
10
4.35316
20
-5.10809
11
4.34566
21
-5.11559
0
LINE
8
BLACK
6
CONTINUOUS
10
4.34566
20
-5.11559
11
4.33816
21
-5.11934
0
LINE
8
BLACK
6
CONTINUOUS
10
4.45065
20
-5.09684
11
4.43565
21
-5.09684
0
LINE
8
BLACK
6
CONTINUOUS
10
4.43565
20
-5.09684
11
4.42815
21
-5.10059
0
LINE
8
BLACK
6
CONTINUOUS
10
4.42815
20
-5.10059
11
4.4244
21
-5.10434
0
LINE
8
BLACK
6
CONTINUOUS
10
4.4244
20
-5.10434
11
4.4169
21
-5.11559
0
LINE
8
BLACK
6
CONTINUOUS
10
4.4169
20
-5.11559
11
4.41315
21
-5.13059
0
LINE
8
BLACK
6
CONTINUOUS
10
4.41315
20
-5.13059
11
4.41315
21
-5.16058
0
LINE
8
BLACK
6
CONTINUOUS
10
4.41315
20
-5.16058
11
4.4169
21
-5.16808
0
LINE
8
BLACK
6
CONTINUOUS
10
4.4169
20
-5.16808
11
4.42065
21
-5.17183
0
LINE
8
BLACK
6
CONTINUOUS
10
4.42065
20
-5.17183
11
4.42815
21
-5.17558
0
LINE
8
BLACK
6
CONTINUOUS
10
4.42815
20
-5.17558
11
4.44315
21
-5.17558
0
LINE
8
BLACK
6
CONTINUOUS
10
4.44315
20
-5.17558
11
4.45065
21
-5.17183
0
LINE
8
BLACK
6
CONTINUOUS
10
4.45065
20
-5.17183
11
4.4544
21
-5.16808
0
LINE
8
BLACK
6
CONTINUOUS
10
4.4544
20
-5.16808
11
4.45815
21
-5.16058
0
LINE
8
BLACK
6
CONTINUOUS
10
4.45815
20
-5.16058
11
4.45815
21
-5.14184
0
LINE
8
BLACK
6
CONTINUOUS
10
4.45815
20
-5.14184
11
4.4544
21
-5.13434
0
LINE
8
BLACK
6
CONTINUOUS
10
4.4544
20
-5.13434
11
4.45065
21
-5.13059
0
LINE
8
BLACK
6
CONTINUOUS
10
4.45065
20
-5.13059
11
4.44315
21
-5.12684
0
LINE
8
BLACK
6
CONTINUOUS
10
4.44315
20
-5.12684
11
4.42815
21
-5.12684
0
LINE
8
BLACK
6
CONTINUOUS
10
4.42815
20
-5.12684
11
4.42065
21
-5.13059
0
LINE
8
BLACK
6
CONTINUOUS
10
4.42065
20
-5.13059
11
4.4169
21
-5.13434
0
LINE
8
BLACK
6
CONTINUOUS
10
4.4169
20
-5.13434
11
4.41315
21
-5.14184
0
LINE
8
BLACK
6
CONTINUOUS
10
4.53914
20
-5.17558
11
4.53914
21
-5.09684
0
LINE
8
BLACK
6
CONTINUOUS
10
4.57288
20
-5.17558
11
4.57288
21
-5.13434
0
LINE
8
BLACK
6
CONTINUOUS
10
4.57288
20
-5.13434
11
4.56913
21
-5.12684
0
LINE
8
BLACK
6
CONTINUOUS
10
4.56913
20
-5.12684
11
4.56163
21
-5.12309
0
LINE
8
BLACK
6
CONTINUOUS
10
4.56163
20
-5.12309
11
4.55038
21
-5.12309
0
LINE
8
BLACK
6
CONTINUOUS
10
4.55038
20
-5.12309
11
4.54289
21
-5.12684
0
LINE
8
BLACK
6
CONTINUOUS
10
4.54289
20
-5.12684
11
4.53914
21
-5.13059
0
LINE
8
BLACK
6
CONTINUOUS
10
4.62163
20
-5.17558
11
4.61413
21
-5.17183
0
LINE
8
BLACK
6
CONTINUOUS
10
4.61413
20
-5.17183
11
4.61038
21
-5.16808
0
LINE
8
BLACK
6
CONTINUOUS
10
4.61038
20
-5.16808
11
4.60663
21
-5.16058
0
LINE
8
BLACK
6
CONTINUOUS
10
4.60663
20
-5.16058
11
4.60663
21
-5.13809
0
LINE
8
BLACK
6
CONTINUOUS
10
4.60663
20
-5.13809
11
4.61038
21
-5.13059
0
LINE
8
BLACK
6
CONTINUOUS
10
4.61038
20
-5.13059
11
4.61413
21
-5.12684
0
LINE
8
BLACK
6
CONTINUOUS
10
4.61413
20
-5.12684
11
4.62163
21
-5.12309
0
LINE
8
BLACK
6
CONTINUOUS
10
4.62163
20
-5.12309
11
4.63287
21
-5.12309
0
LINE
8
BLACK
6
CONTINUOUS
10
4.63287
20
-5.12309
11
4.64037
21
-5.12684
0
LINE
8
BLACK
6
CONTINUOUS
10
4.64037
20
-5.12684
11
4.64412
21
-5.13059
0
LINE
8
BLACK
6
CONTINUOUS
10
4.64412
20
-5.13059
11
4.64787
21
-5.13809
0
LINE
8
BLACK
6
CONTINUOUS
10
4.64787
20
-5.13809
11
4.64787
21
-5.16058
0
LINE
8
BLACK
6
CONTINUOUS
10
4.64787
20
-5.16058
11
4.64412
21
-5.16808
0
LINE
8
BLACK
6
CONTINUOUS
10
4.64412
20
-5.16808
11
4.64037
21
-5.17183
0
LINE
8
BLACK
6
CONTINUOUS
10
4.64037
20
-5.17183
11
4.63287
21
-5.17558
0
LINE
8
BLACK
6
CONTINUOUS
10
4.63287
20
-5.17558
11
4.62163
21
-5.17558
0
LINE
8
BLACK
6
CONTINUOUS
10
4.69287
20
-5.17558
11
4.68537
21
-5.17183
0
LINE
8
BLACK
6
CONTINUOUS
10
4.68537
20
-5.17183
11
4.68162
21
-5.16433
0
LINE
8
BLACK
6
CONTINUOUS
10
4.68162
20
-5.16433
11
4.68162
21
-5.09684
0
LINE
8
BLACK
6
CONTINUOUS
10
4.75286
20
-5.17183
11
4.74536
21
-5.17558
0
LINE
8
BLACK
6
CONTINUOUS
10
4.74536
20
-5.17558
11
4.73036
21
-5.17558
0
LINE
8
BLACK
6
CONTINUOUS
10
4.73036
20
-5.17558
11
4.72286
21
-5.17183
0
LINE
8
BLACK
6
CONTINUOUS
10
4.72286
20
-5.17183
11
4.71911
21
-5.16433
0
LINE
8
BLACK
6
CONTINUOUS
10
4.71911
20
-5.16433
11
4.71911
21
-5.13434
0
LINE
8
BLACK
6
CONTINUOUS
10
4.71911
20
-5.13434
11
4.72286
21
-5.12684
0
LINE
8
BLACK
6
CONTINUOUS
10
4.72286
20
-5.12684
11
4.73036
21
-5.12309
0
LINE
8
BLACK
6
CONTINUOUS
10
4.73036
20
-5.12309
11
4.74536
21
-5.12309
0
LINE
8
BLACK
6
CONTINUOUS
10
4.74536
20
-5.12309
11
4.75286
21
-5.12684
0
LINE
8
BLACK
6
CONTINUOUS
10
4.75286
20
-5.12684
11
4.75661
21
-5.13434
0
LINE
8
BLACK
6
CONTINUOUS
10
4.75661
20
-5.13434
11
4.75661
21
-5.14184
0
LINE
8
BLACK
6
CONTINUOUS
10
4.75661
20
-5.14184
11
4.71911
21
-5.14933
0
LINE
8
BLACK
6
CONTINUOUS
10
4.7866
20
-5.17183
11
4.7941
21
-5.17558
0
LINE
8
BLACK
6
CONTINUOUS
10
4.7941
20
-5.17558
11
4.8091
21
-5.17558
0
LINE
8
BLACK
6
CONTINUOUS
10
4.8091
20
-5.17558
11
4.8166
21
-5.17183
0
LINE
8
BLACK
6
CONTINUOUS
10
4.8166
20
-5.17183
11
4.82035
21
-5.16433
0
LINE
8
BLACK
6
CONTINUOUS
10
4.82035
20
-5.16433
11
4.82035
21
-5.16058
0
LINE
8
BLACK
6
CONTINUOUS
10
4.82035
20
-5.16058
11
4.8166
21
-5.15308
0
LINE
8
BLACK
6
CONTINUOUS
10
4.8166
20
-5.15308
11
4.8091
21
-5.14933
0
LINE
8
BLACK
6
CONTINUOUS
10
4.8091
20
-5.14933
11
4.79785
21
-5.14933
0
LINE
8
BLACK
6
CONTINUOUS
10
4.79785
20
-5.14933
11
4.79035
21
-5.14558
0
LINE
8
BLACK
6
CONTINUOUS
10
4.79035
20
-5.14558
11
4.7866
21
-5.13809
0
LINE
8
BLACK
6
CONTINUOUS
10
4.7866
20
-5.13809
11
4.7866
21
-5.13434
0
LINE
8
BLACK
6
CONTINUOUS
10
4.7866
20
-5.13434
11
4.79035
21
-5.12684
0
LINE
8
BLACK
6
CONTINUOUS
10
4.79035
20
-5.12684
11
4.79785
21
-5.12309
0
LINE
8
BLACK
6
CONTINUOUS
10
4.79785
20
-5.12309
11
4.8091
21
-5.12309
0
LINE
8
BLACK
6
CONTINUOUS
10
4.8091
20
-5.12309
11
4.8166
21
-5.12684
0
LINE
8
BLACK
6
CONTINUOUS
10
4.8466
20
-5.20558
11
4.85035
21
-5.20183
0
LINE
8
BLACK
6
CONTINUOUS
10
4.85035
20
-5.20183
11
4.85785
21
-5.19058
0
LINE
8
BLACK
6
CONTINUOUS
10
4.85785
20
-5.19058
11
4.8616
21
-5.18308
0
LINE
8
BLACK
6
CONTINUOUS
10
4.8616
20
-5.18308
11
4.86535
21
-5.17183
0
LINE
8
BLACK
6
CONTINUOUS
10
4.86535
20
-5.17183
11
4.86909
21
-5.15308
0
LINE
8
BLACK
6
CONTINUOUS
10
4.86909
20
-5.15308
11
4.86909
21
-5.13809
0
LINE
8
BLACK
6
CONTINUOUS
10
4.86909
20
-5.13809
11
4.86535
21
-5.11934
0
LINE
8
BLACK
6
CONTINUOUS
10
4.86535
20
-5.11934
11
4.8616
21
-5.10809
0
LINE
8
BLACK
6
CONTINUOUS
10
4.8616
20
-5.10809
11
4.85785
21
-5.10059
0
LINE
8
BLACK
6
CONTINUOUS
10
4.85785
20
-5.10059
11
4.85035
21
-5.08934
0
LINE
8
BLACK
6
CONTINUOUS
10
4.85035
20
-5.08934
11
4.8466
21
-5.08559
0
CIRCLE
8
BLACK
10
2.93406
20
-5.25059
40
0.0137795
0
LINE
8
BLACK
6
CONTINUOUS
10
3.06032
20
-5.20078
11
3.06782
21
-5.20078
0
LINE
8
BLACK
6
CONTINUOUS
10
3.06782
20
-5.20078
11
3.07532
21
-5.20453
0
LINE
8
BLACK
6
CONTINUOUS
10
3.07532
20
-5.20453
11
3.07907
21
-5.20828
0
LINE
8
BLACK
6
CONTINUOUS
10
3.07907
20
-5.20828
11
3.08282
21
-5.21578
0
LINE
8
BLACK
6
CONTINUOUS
10
3.08282
20
-5.21578
11
3.08657
21
-5.23077
0
LINE
8
BLACK
6
CONTINUOUS
10
3.08657
20
-5.23077
11
3.08657
21
-5.24952
0
LINE
8
BLACK
6
CONTINUOUS
10
3.08657
20
-5.24952
11
3.08282
21
-5.26452
0
LINE
8
BLACK
6
CONTINUOUS
10
3.08282
20
-5.26452
11
3.07907
21
-5.27202
0
LINE
8
BLACK
6
CONTINUOUS
10
3.07907
20
-5.27202
11
3.07532
21
-5.27577
0
LINE
8
BLACK
6
CONTINUOUS
10
3.07532
20
-5.27577
11
3.06782
21
-5.27952
0
LINE
8
BLACK
6
CONTINUOUS
10
3.06782
20
-5.27952
11
3.06032
21
-5.27952
0
LINE
8
BLACK
6
CONTINUOUS
10
3.06032
20
-5.27952
11
3.05282
21
-5.27577
0
LINE
8
BLACK
6
CONTINUOUS
10
3.05282
20
-5.27577
11
3.04907
21
-5.27202
0
LINE
8
BLACK
6
CONTINUOUS
10
3.04907
20
-5.27202
11
3.04532
21
-5.26452
0
LINE
8
BLACK
6
CONTINUOUS
10
3.04532
20
-5.26452
11
3.04157
21
-5.24952
0
LINE
8
BLACK
6
CONTINUOUS
10
3.04157
20
-5.24952
11
3.04157
21
-5.23077
0
LINE
8
BLACK
6
CONTINUOUS
10
3.04157
20
-5.23077
11
3.04532
21
-5.21578
0
LINE
8
BLACK
6
CONTINUOUS
10
3.04532
20
-5.21578
11
3.04907
21
-5.20828
0
LINE
8
BLACK
6
CONTINUOUS
10
3.04907
20
-5.20828
11
3.05282
21
-5.20453
0
LINE
8
BLACK
6
CONTINUOUS
10
3.05282
20
-5.20453
11
3.06032
21
-5.20078
0
LINE
8
BLACK
6
CONTINUOUS
10
3.12031
20
-5.27202
11
3.12406
21
-5.27577
0
LINE
8
BLACK
6
CONTINUOUS
10
3.12406
20
-5.27577
11
3.12031
21
-5.27952
0
LINE
8
BLACK
6
CONTINUOUS
10
3.12031
20
-5.27952
11
3.11656
21
-5.27577
0
LINE
8
BLACK
6
CONTINUOUS
10
3.11656
20
-5.27577
11
3.12031
21
-5.27202
0
LINE
8
BLACK
6
CONTINUOUS
10
3.12031
20
-5.27202
11
3.12031
21
-5.27952
0
LINE
8
BLACK
6
CONTINUOUS
10
3.15031
20
-5.20078
11
3.2028
21
-5.20078
0
LINE
8
BLACK
6
CONTINUOUS
10
3.2028
20
-5.20078
11
3.16906
21
-5.27952
0
LINE
8
BLACK
6
CONTINUOUS
10
3.2478
20
-5.20078
11
3.2553
21
-5.20078
0
LINE
8
BLACK
6
CONTINUOUS
10
3.2553
20
-5.20078
11
3.2628
21
-5.20453
0
LINE
8
BLACK
6
CONTINUOUS
10
3.2628
20
-5.20453
11
3.26654
21
-5.20828
0
LINE
8
BLACK
6
CONTINUOUS
10
3.26654
20
-5.20828
11
3.27029
21
-5.21578
0
LINE
8
BLACK
6
CONTINUOUS
10
3.27029
20
-5.21578
11
3.27404
21
-5.23077
0
LINE
8
BLACK
6
CONTINUOUS
10
3.27404
20
-5.23077
11
3.27404
21
-5.24952
0
LINE
8
BLACK
6
CONTINUOUS
10
3.27404
20
-5.24952
11
3.27029
21
-5.26452
0
LINE
8
BLACK
6
CONTINUOUS
10
3.27029
20
-5.26452
11
3.26654
21
-5.27202
0
LINE
8
BLACK
6
CONTINUOUS
10
3.26654
20
-5.27202
11
3.2628
21
-5.27577
0
LINE
8
BLACK
6
CONTINUOUS
10
3.2628
20
-5.27577
11
3.2553
21
-5.27952
0
LINE
8
BLACK
6
CONTINUOUS
10
3.2553
20
-5.27952
11
3.2478
21
-5.27952
0
LINE
8
BLACK
6
CONTINUOUS
10
3.2478
20
-5.27952
11
3.2403
21
-5.27577
0
LINE
8
BLACK
6
CONTINUOUS
10
3.2403
20
-5.27577
11
3.23655
21
-5.27202
0
LINE
8
BLACK
6
CONTINUOUS
10
3.23655
20
-5.27202
11
3.2328
21
-5.26452
0
LINE
8
BLACK
6
CONTINUOUS
10
3.2328
20
-5.26452
11
3.22905
21
-5.24952
0
LINE
8
BLACK
6
CONTINUOUS
10
3.22905
20
-5.24952
11
3.22905
21
-5.23077
0
LINE
8
BLACK
6
CONTINUOUS
10
3.22905
20
-5.23077
11
3.2328
21
-5.21578
0
LINE
8
BLACK
6
CONTINUOUS
10
3.2328
20
-5.21578
11
3.23655
21
-5.20828
0
LINE
8
BLACK
6
CONTINUOUS
10
3.23655
20
-5.20828
11
3.2403
21
-5.20453
0
LINE
8
BLACK
6
CONTINUOUS
10
3.2403
20
-5.20453
11
3.2478
21
-5.20078
0
LINE
8
BLACK
6
CONTINUOUS
10
3.32279
20
-5.20078
11
3.33029
21
-5.20078
0
LINE
8
BLACK
6
CONTINUOUS
10
3.33029
20
-5.20078
11
3.33779
21
-5.20453
0
LINE
8
BLACK
6
CONTINUOUS
10
3.33779
20
-5.20453
11
3.34154
21
-5.20828
0
LINE
8
BLACK
6
CONTINUOUS
10
3.34154
20
-5.20828
11
3.34528
21
-5.21578
0
LINE
8
BLACK
6
CONTINUOUS
10
3.34528
20
-5.21578
11
3.34903
21
-5.23077
0
LINE
8
BLACK
6
CONTINUOUS
10
3.34903
20
-5.23077
11
3.34903
21
-5.24952
0
LINE
8
BLACK
6
CONTINUOUS
10
3.34903
20
-5.24952
11
3.34528
21
-5.26452
0
LINE
8
BLACK
6
CONTINUOUS
10
3.34528
20
-5.26452
11
3.34154
21
-5.27202
0
LINE
8
BLACK
6
CONTINUOUS
10
3.34154
20
-5.27202
11
3.33779
21
-5.27577
0
LINE
8
BLACK
6
CONTINUOUS
10
3.33779
20
-5.27577
11
3.33029
21
-5.27952
0
LINE
8
BLACK
6
CONTINUOUS
10
3.33029
20
-5.27952
11
3.32279
21
-5.27952
0
LINE
8
BLACK
6
CONTINUOUS
10
3.32279
20
-5.27952
11
3.31529
21
-5.27577
0
LINE
8
BLACK
6
CONTINUOUS
10
3.31529
20
-5.27577
11
3.31154
21
-5.27202
0
LINE
8
BLACK
6
CONTINUOUS
10
3.31154
20
-5.27202
11
3.30779
21
-5.26452
0
LINE
8
BLACK
6
CONTINUOUS
10
3.30779
20
-5.26452
11
3.30404
21
-5.24952
0
LINE
8
BLACK
6
CONTINUOUS
10
3.30404
20
-5.24952
11
3.30404
21
-5.23077
0
LINE
8
BLACK
6
CONTINUOUS
10
3.30404
20
-5.23077
11
3.30779
21
-5.21578
0
LINE
8
BLACK
6
CONTINUOUS
10
3.30779
20
-5.21578
11
3.31154
21
-5.20828
0
LINE
8
BLACK
6
CONTINUOUS
10
3.31154
20
-5.20828
11
3.31529
21
-5.20453
0
LINE
8
BLACK
6
CONTINUOUS
10
3.31529
20
-5.20453
11
3.32279
21
-5.20078
0
LINE
8
BLACK
6
CONTINUOUS
10
3.38278
20
-5.27952
11
3.38278
21
-5.22702
0
LINE
8
BLACK
6
CONTINUOUS
10
3.38278
20
-5.23452
11
3.38653
21
-5.23077
0
LINE
8
BLACK
6
CONTINUOUS
10
3.38653
20
-5.23077
11
3.39403
21
-5.22702
0
LINE
8
BLACK
6
CONTINUOUS
10
3.39403
20
-5.22702
11
3.40528
21
-5.22702
0
LINE
8
BLACK
6
CONTINUOUS
10
3.40528
20
-5.22702
11
3.41278
21
-5.23077
0
LINE
8
BLACK
6
CONTINUOUS
10
3.41278
20
-5.23077
11
3.41653
21
-5.23827
0
LINE
8
BLACK
6
CONTINUOUS
10
3.41653
20
-5.23827
11
3.41653
21
-5.27952
0
LINE
8
BLACK
6
CONTINUOUS
10
3.41653
20
-5.23827
11
3.42028
21
-5.23077
0
LINE
8
BLACK
6
CONTINUOUS
10
3.42028
20
-5.23077
11
3.42777
21
-5.22702
0
LINE
8
BLACK
6
CONTINUOUS
10
3.42777
20
-5.22702
11
3.43902
21
-5.22702
0
LINE
8
BLACK
6
CONTINUOUS
10
3.43902
20
-5.22702
11
3.44652
21
-5.23077
0
LINE
8
BLACK
6
CONTINUOUS
10
3.44652
20
-5.23077
11
3.45027
21
-5.23827
0
LINE
8
BLACK
6
CONTINUOUS
10
3.45027
20
-5.23827
11
3.45027
21
-5.27952
0
LINE
8
BLACK
6
CONTINUOUS
10
3.48777
20
-5.27952
11
3.48777
21
-5.22702
0
LINE
8
BLACK
6
CONTINUOUS
10
3.48777
20
-5.23452
11
3.49152
21
-5.23077
0
LINE
8
BLACK
6
CONTINUOUS
10
3.49152
20
-5.23077
11
3.49902
21
-5.22702
0
LINE
8
BLACK
6
CONTINUOUS
10
3.49902
20
-5.22702
11
3.51026
21
-5.22702
0
LINE
8
BLACK
6
CONTINUOUS
10
3.51026
20
-5.22702
11
3.51776
21
-5.23077
0
LINE
8
BLACK
6
CONTINUOUS
10
3.51776
20
-5.23077
11
3.52151
21
-5.23827
0
LINE
8
BLACK
6
CONTINUOUS
10
3.52151
20
-5.23827
11
3.52151
21
-5.27952
0
LINE
8
BLACK
6
CONTINUOUS
10
3.52151
20
-5.23827
11
3.52526
21
-5.23077
0
LINE
8
BLACK
6
CONTINUOUS
10
3.52526
20
-5.23077
11
3.53276
21
-5.22702
0
LINE
8
BLACK
6
CONTINUOUS
10
3.53276
20
-5.22702
11
3.54401
21
-5.22702
0
LINE
8
BLACK
6
CONTINUOUS
10
3.54401
20
-5.22702
11
3.55151
21
-5.23077
0
LINE
8
BLACK
6
CONTINUOUS
10
3.55151
20
-5.23077
11
3.55526
21
-5.23827
0
LINE
8
BLACK
6
CONTINUOUS
10
3.55526
20
-5.23827
11
3.55526
21
-5.27952
0
LINE
8
BLACK
6
CONTINUOUS
10
3.69624
20
-5.19703
11
3.62875
21
-5.29827
0
LINE
8
BLACK
6
CONTINUOUS
10
3.78473
20
-5.20078
11
3.79223
21
-5.20078
0
LINE
8
BLACK
6
CONTINUOUS
10
3.79223
20
-5.20078
11
3.79973
21
-5.20453
0
LINE
8
BLACK
6
CONTINUOUS
10
3.79973
20
-5.20453
11
3.80348
21
-5.20828
0
LINE
8
BLACK
6
CONTINUOUS
10
3.80348
20
-5.20828
11
3.80723
21
-5.21578
0
LINE
8
BLACK
6
CONTINUOUS
10
3.80723
20
-5.21578
11
3.81098
21
-5.23077
0
LINE
8
BLACK
6
CONTINUOUS
10
3.81098
20
-5.23077
11
3.81098
21
-5.24952
0
LINE
8
BLACK
6
CONTINUOUS
10
3.81098
20
-5.24952
11
3.80723
21
-5.26452
0
LINE
8
BLACK
6
CONTINUOUS
10
3.80723
20
-5.26452
11
3.80348
21
-5.27202
0
LINE
8
BLACK
6
CONTINUOUS
10
3.80348
20
-5.27202
11
3.79973
21
-5.27577
0
LINE
8
BLACK
6
CONTINUOUS
10
3.79973
20
-5.27577
11
3.79223
21
-5.27952
0
LINE
8
BLACK
6
CONTINUOUS
10
3.79223
20
-5.27952
11
3.78473
21
-5.27952
0
LINE
8
BLACK
6
CONTINUOUS
10
3.78473
20
-5.27952
11
3.77723
21
-5.27577
0
LINE
8
BLACK
6
CONTINUOUS
10
3.77723
20
-5.27577
11
3.77348
21
-5.27202
0
LINE
8
BLACK
6
CONTINUOUS
10
3.77348
20
-5.27202
11
3.76973
21
-5.26452
0
LINE
8
BLACK
6
CONTINUOUS
10
3.76973
20
-5.26452
11
3.76598
21
-5.24952
0
LINE
8
BLACK
6
CONTINUOUS
10
3.76598
20
-5.24952
11
3.76598
21
-5.23077
0
LINE
8
BLACK
6
CONTINUOUS
10
3.76598
20
-5.23077
11
3.76973
21
-5.21578
0
LINE
8
BLACK
6
CONTINUOUS
10
3.76973
20
-5.21578
11
3.77348
21
-5.20828
0
LINE
8
BLACK
6
CONTINUOUS
10
3.77348
20
-5.20828
11
3.77723
21
-5.20453
0
LINE
8
BLACK
6
CONTINUOUS
10
3.77723
20
-5.20453
11
3.78473
21
-5.20078
0
LINE
8
BLACK
6
CONTINUOUS
10
3.84472
20
-5.27202
11
3.84847
21
-5.27577
0
LINE
8
BLACK
6
CONTINUOUS
10
3.84847
20
-5.27577
11
3.84472
21
-5.27952
0
LINE
8
BLACK
6
CONTINUOUS
10
3.84472
20
-5.27952
11
3.84097
21
-5.27577
0
LINE
8
BLACK
6
CONTINUOUS
10
3.84097
20
-5.27577
11
3.84472
21
-5.27202
0
LINE
8
BLACK
6
CONTINUOUS
10
3.84472
20
-5.27202
11
3.84472
21
-5.27952
0
LINE
8
BLACK
6
CONTINUOUS
10
3.89722
20
-5.20078
11
3.90472
21
-5.20078
0
LINE
8
BLACK
6
CONTINUOUS
10
3.90472
20
-5.20078
11
3.91221
21
-5.20453
0
LINE
8
BLACK
6
CONTINUOUS
10
3.91221
20
-5.20453
11
3.91596
21
-5.20828
0
LINE
8
BLACK
6
CONTINUOUS
10
3.91596
20
-5.20828
11
3.91971
21
-5.21578
0
LINE
8
BLACK
6
CONTINUOUS
10
3.91971
20
-5.21578
11
3.92346
21
-5.23077
0
LINE
8
BLACK
6
CONTINUOUS
10
3.92346
20
-5.23077
11
3.92346
21
-5.24952
0
LINE
8
BLACK
6
CONTINUOUS
10
3.92346
20
-5.24952
11
3.91971
21
-5.26452
0
LINE
8
BLACK
6
CONTINUOUS
10
3.91971
20
-5.26452
11
3.91596
21
-5.27202
0
LINE
8
BLACK
6
CONTINUOUS
10
3.91596
20
-5.27202
11
3.91221
21
-5.27577
0
LINE
8
BLACK
6
CONTINUOUS
10
3.91221
20
-5.27577
11
3.90472
21
-5.27952
0
LINE
8
BLACK
6
CONTINUOUS
10
3.90472
20
-5.27952
11
3.89722
21
-5.27952
0
LINE
8
BLACK
6
CONTINUOUS
10
3.89722
20
-5.27952
11
3.88972
21
-5.27577
0
LINE
8
BLACK
6
CONTINUOUS
10
3.88972
20
-5.27577
11
3.88597
21
-5.27202
0
LINE
8
BLACK
6
CONTINUOUS
10
3.88597
20
-5.27202
11
3.88222
21
-5.26452
0
LINE
8
BLACK
6
CONTINUOUS
10
3.88222
20
-5.26452
11
3.87847
21
-5.24952
0
LINE
8
BLACK
6
CONTINUOUS
10
3.87847
20
-5.24952
11
3.87847
21
-5.23077
0
LINE
8
BLACK
6
CONTINUOUS
10
3.87847
20
-5.23077
11
3.88222
21
-5.21578
0
LINE
8
BLACK
6
CONTINUOUS
10
3.88222
20
-5.21578
11
3.88597
21
-5.20828
0
LINE
8
BLACK
6
CONTINUOUS
10
3.88597
20
-5.20828
11
3.88972
21
-5.20453
0
LINE
8
BLACK
6
CONTINUOUS
10
3.88972
20
-5.20453
11
3.89722
21
-5.20078
0
LINE
8
BLACK
6
CONTINUOUS
10
3.95346
20
-5.20828
11
3.95721
21
-5.20453
0
LINE
8
BLACK
6
CONTINUOUS
10
3.95721
20
-5.20453
11
3.96471
21
-5.20078
0
LINE
8
BLACK
6
CONTINUOUS
10
3.96471
20
-5.20078
11
3.98346
21
-5.20078
0
LINE
8
BLACK
6
CONTINUOUS
10
3.98346
20
-5.20078
11
3.99095
21
-5.20453
0
LINE
8
BLACK
6
CONTINUOUS
10
3.99095
20
-5.20453
11
3.9947
21
-5.20828
0
LINE
8
BLACK
6
CONTINUOUS
10
3.9947
20
-5.20828
11
3.99845
21
-5.21578
0
LINE
8
BLACK
6
CONTINUOUS
10
3.99845
20
-5.21578
11
3.99845
21
-5.22328
0
LINE
8
BLACK
6
CONTINUOUS
10
3.99845
20
-5.22328
11
3.9947
21
-5.23452
0
LINE
8
BLACK
6
CONTINUOUS
10
3.9947
20
-5.23452
11
3.94971
21
-5.27952
0
LINE
8
BLACK
6
CONTINUOUS
10
3.94971
20
-5.27952
11
3.99845
21
-5.27952
0
LINE
8
BLACK
6
CONTINUOUS
10
4.0247
20
-5.20078
11
4.07719
21
-5.20078
0
LINE
8
BLACK
6
CONTINUOUS
10
4.07719
20
-5.20078
11
4.04345
21
-5.27952
0
LINE
8
BLACK
6
CONTINUOUS
10
4.14094
20
-5.20078
11
4.12594
21
-5.20078
0
LINE
8
BLACK
6
CONTINUOUS
10
4.12594
20
-5.20078
11
4.11844
21
-5.20453
0
LINE
8
BLACK
6
CONTINUOUS
10
4.11844
20
-5.20453
11
4.11469
21
-5.20828
0
LINE
8
BLACK
6
CONTINUOUS
10
4.11469
20
-5.20828
11
4.10719
21
-5.21953
0
LINE
8
BLACK
6
CONTINUOUS
10
4.10719
20
-5.21953
11
4.10344
21
-5.23452
0
LINE
8
BLACK
6
CONTINUOUS
10
4.10344
20
-5.23452
11
4.10344
21
-5.26452
0
LINE
8
BLACK
6
CONTINUOUS
10
4.10344
20
-5.26452
11
4.10719
21
-5.27202
0
LINE
8
BLACK
6
CONTINUOUS
10
4.10719
20
-5.27202
11
4.11094
21
-5.27577
0
LINE
8
BLACK
6
CONTINUOUS
10
4.11094
20
-5.27577
11
4.11844
21
-5.27952
0
LINE
8
BLACK
6
CONTINUOUS
10
4.11844
20
-5.27952
11
4.13344
21
-5.27952
0
LINE
8
BLACK
6
CONTINUOUS
10
4.13344
20
-5.27952
11
4.14094
21
-5.27577
0
LINE
8
BLACK
6
CONTINUOUS
10
4.14094
20
-5.27577
11
4.14469
21
-5.27202
0
LINE
8
BLACK
6
CONTINUOUS
10
4.14469
20
-5.27202
11
4.14843
21
-5.26452
0
LINE
8
BLACK
6
CONTINUOUS
10
4.14843
20
-5.26452
11
4.14843
21
-5.24577
0
LINE
8
BLACK
6
CONTINUOUS
10
4.14843
20
-5.24577
11
4.14469
21
-5.23827
0
LINE
8
BLACK
6
CONTINUOUS
10
4.14469
20
-5.23827
11
4.14094
21
-5.23452
0
LINE
8
BLACK
6
CONTINUOUS
10
4.14094
20
-5.23452
11
4.13344
21
-5.23077
0
LINE
8
BLACK
6
CONTINUOUS
10
4.13344
20
-5.23077
11
4.11844
21
-5.23077
0
LINE
8
BLACK
6
CONTINUOUS
10
4.11844
20
-5.23077
11
4.11094
21
-5.23452
0
LINE
8
BLACK
6
CONTINUOUS
10
4.11094
20
-5.23452
11
4.10719
21
-5.23827
0
LINE
8
BLACK
6
CONTINUOUS
10
4.10719
20
-5.23827
11
4.10344
21
-5.24577
0
LINE
8
BLACK
6
CONTINUOUS
10
4.17843
20
-5.20078
11
4.17843
21
-5.21578
0
LINE
8
BLACK
6
CONTINUOUS
10
4.20843
20
-5.20078
11
4.20843
21
-5.21578
0
LINE
8
BLACK
6
CONTINUOUS
10
4.31191
20
-5.30951
11
4.30816
21
-5.30576
0
LINE
8
BLACK
6
CONTINUOUS
10
4.30816
20
-5.30576
11
4.30067
21
-5.29452
0
LINE
8
BLACK
6
CONTINUOUS
10
4.30067
20
-5.29452
11
4.29692
21
-5.28702
0
LINE
8
BLACK
6
CONTINUOUS
10
4.29692
20
-5.28702
11
4.29317
21
-5.27577
0
LINE
8
BLACK
6
CONTINUOUS
10
4.29317
20
-5.27577
11
4.28942
21
-5.25702
0
LINE
8
BLACK
6
CONTINUOUS
10
4.28942
20
-5.25702
11
4.28942
21
-5.24202
0
LINE
8
BLACK
6
CONTINUOUS
10
4.28942
20
-5.24202
11
4.29317
21
-5.22328
0
LINE
8
BLACK
6
CONTINUOUS
10
4.29317
20
-5.22328
11
4.29692
21
-5.21203
0
LINE
8
BLACK
6
CONTINUOUS
10
4.29692
20
-5.21203
11
4.30067
21
-5.20453
0
LINE
8
BLACK
6
CONTINUOUS
10
4.30067
20
-5.20453
11
4.30816
21
-5.19328
0
LINE
8
BLACK
6
CONTINUOUS
10
4.30816
20
-5.19328
11
4.31191
21
-5.18953
0
LINE
8
BLACK
6
CONTINUOUS
10
4.37566
20
-5.22702
11
4.37566
21
-5.27952
0
LINE
8
BLACK
6
CONTINUOUS
10
4.35691
20
-5.19703
11
4.33816
21
-5.25327
0
LINE
8
BLACK
6
CONTINUOUS
10
4.33816
20
-5.25327
11
4.3869
21
-5.25327
0
LINE
8
BLACK
6
CONTINUOUS
10
4.45065
20
-5.20078
11
4.43565
21
-5.20078
0
LINE
8
BLACK
6
CONTINUOUS
10
4.43565
20
-5.20078
11
4.42815
21
-5.20453
0
LINE
8
BLACK
6
CONTINUOUS
10
4.42815
20
-5.20453
11
4.4244
21
-5.20828
0
LINE
8
BLACK
6
CONTINUOUS
10
4.4244
20
-5.20828
11
4.4169
21
-5.21953
0
LINE
8
BLACK
6
CONTINUOUS
10
4.4169
20
-5.21953
11
4.41315
21
-5.23452
0
LINE
8
BLACK
6
CONTINUOUS
10
4.41315
20
-5.23452
11
4.41315
21
-5.26452
0
LINE
8
BLACK
6
CONTINUOUS
10
4.41315
20
-5.26452
11
4.4169
21
-5.27202
0
LINE
8
BLACK
6
CONTINUOUS
10
4.4169
20
-5.27202
11
4.42065
21
-5.27577
0
LINE
8
BLACK
6
CONTINUOUS
10
4.42065
20
-5.27577
11
4.42815
21
-5.27952
0
LINE
8
BLACK
6
CONTINUOUS
10
4.42815
20
-5.27952
11
4.44315
21
-5.27952
0
LINE
8
BLACK
6
CONTINUOUS
10
4.44315
20
-5.27952
11
4.45065
21
-5.27577
0
LINE
8
BLACK
6
CONTINUOUS
10
4.45065
20
-5.27577
11
4.4544
21
-5.27202
0
LINE
8
BLACK
6
CONTINUOUS
10
4.4544
20
-5.27202
11
4.45815
21
-5.26452
0
LINE
8
BLACK
6
CONTINUOUS
10
4.45815
20
-5.26452
11
4.45815
21
-5.24577
0
LINE
8
BLACK
6
CONTINUOUS
10
4.45815
20
-5.24577
11
4.4544
21
-5.23827
0
LINE
8
BLACK
6
CONTINUOUS
10
4.4544
20
-5.23827
11
4.45065
21
-5.23452
0
LINE
8
BLACK
6
CONTINUOUS
10
4.45065
20
-5.23452
11
4.44315
21
-5.23077
0
LINE
8
BLACK
6
CONTINUOUS
10
4.44315
20
-5.23077
11
4.42815
21
-5.23077
0
LINE
8
BLACK
6
CONTINUOUS
10
4.42815
20
-5.23077
11
4.42065
21
-5.23452
0
LINE
8
BLACK
6
CONTINUOUS
10
4.42065
20
-5.23452
11
4.4169
21
-5.23827
0
LINE
8
BLACK
6
CONTINUOUS
10
4.4169
20
-5.23827
11
4.41315
21
-5.24577
0
LINE
8
BLACK
6
CONTINUOUS
10
4.53914
20
-5.27952
11
4.53914
21
-5.20078
0
LINE
8
BLACK
6
CONTINUOUS
10
4.57288
20
-5.27952
11
4.57288
21
-5.23827
0
LINE
8
BLACK
6
CONTINUOUS
10
4.57288
20
-5.23827
11
4.56913
21
-5.23077
0
LINE
8
BLACK
6
CONTINUOUS
10
4.56913
20
-5.23077
11
4.56163
21
-5.22702
0
LINE
8
BLACK
6
CONTINUOUS
10
4.56163
20
-5.22702
11
4.55038
21
-5.22702
0
LINE
8
BLACK
6
CONTINUOUS
10
4.55038
20
-5.22702
11
4.54289
21
-5.23077
0
LINE
8
BLACK
6
CONTINUOUS
10
4.54289
20
-5.23077
11
4.53914
21
-5.23452
0
LINE
8
BLACK
6
CONTINUOUS
10
4.62163
20
-5.27952
11
4.61413
21
-5.27577
0
LINE
8
BLACK
6
CONTINUOUS
10
4.61413
20
-5.27577
11
4.61038
21
-5.27202
0
LINE
8
BLACK
6
CONTINUOUS
10
4.61038
20
-5.27202
11
4.60663
21
-5.26452
0
LINE
8
BLACK
6
CONTINUOUS
10
4.60663
20
-5.26452
11
4.60663
21
-5.24202
0
LINE
8
BLACK
6
CONTINUOUS
10
4.60663
20
-5.24202
11
4.61038
21
-5.23452
0
LINE
8
BLACK
6
CONTINUOUS
10
4.61038
20
-5.23452
11
4.61413
21
-5.23077
0
LINE
8
BLACK
6
CONTINUOUS
10
4.61413
20
-5.23077
11
4.62163
21
-5.22702
0
LINE
8
BLACK
6
CONTINUOUS
10
4.62163
20
-5.22702
11
4.63287
21
-5.22702
0
LINE
8
BLACK
6
CONTINUOUS
10
4.63287
20
-5.22702
11
4.64037
21
-5.23077
0
LINE
8
BLACK
6
CONTINUOUS
10
4.64037
20
-5.23077
11
4.64412
21
-5.23452
0
LINE
8
BLACK
6
CONTINUOUS
10
4.64412
20
-5.23452
11
4.64787
21
-5.24202
0
LINE
8
BLACK
6
CONTINUOUS
10
4.64787
20
-5.24202
11
4.64787
21
-5.26452
0
LINE
8
BLACK
6
CONTINUOUS
10
4.64787
20
-5.26452
11
4.64412
21
-5.27202
0
LINE
8
BLACK
6
CONTINUOUS
10
4.64412
20
-5.27202
11
4.64037
21
-5.27577
0
LINE
8
BLACK
6
CONTINUOUS
10
4.64037
20
-5.27577
11
4.63287
21
-5.27952
0
LINE
8
BLACK
6
CONTINUOUS
10
4.63287
20
-5.27952
11
4.62163
21
-5.27952
0
LINE
8
BLACK
6
CONTINUOUS
10
4.69287
20
-5.27952
11
4.68537
21
-5.27577
0
LINE
8
BLACK
6
CONTINUOUS
10
4.68537
20
-5.27577
11
4.68162
21
-5.26827
0
LINE
8
BLACK
6
CONTINUOUS
10
4.68162
20
-5.26827
11
4.68162
21
-5.20078
0
LINE
8
BLACK
6
CONTINUOUS
10
4.75286
20
-5.27577
11
4.74536
21
-5.27952
0
LINE
8
BLACK
6
CONTINUOUS
10
4.74536
20
-5.27952
11
4.73036
21
-5.27952
0
LINE
8
BLACK
6
CONTINUOUS
10
4.73036
20
-5.27952
11
4.72286
21
-5.27577
0
LINE
8
BLACK
6
CONTINUOUS
10
4.72286
20
-5.27577
11
4.71911
21
-5.26827
0
LINE
8
BLACK
6
CONTINUOUS
10
4.71911
20
-5.26827
11
4.71911
21
-5.23827
0
LINE
8
BLACK
6
CONTINUOUS
10
4.71911
20
-5.23827
11
4.72286
21
-5.23077
0
LINE
8
BLACK
6
CONTINUOUS
10
4.72286
20
-5.23077
11
4.73036
21
-5.22702
0
LINE
8
BLACK
6
CONTINUOUS
10
4.73036
20
-5.22702
11
4.74536
21
-5.22702
0
LINE
8
BLACK
6
CONTINUOUS
10
4.74536
20
-5.22702
11
4.75286
21
-5.23077
0
LINE
8
BLACK
6
CONTINUOUS
10
4.75286
20
-5.23077
11
4.75661
21
-5.23827
0
LINE
8
BLACK
6
CONTINUOUS
10
4.75661
20
-5.23827
11
4.75661
21
-5.24577
0
LINE
8
BLACK
6
CONTINUOUS
10
4.75661
20
-5.24577
11
4.71911
21
-5.25327
0
LINE
8
BLACK
6
CONTINUOUS
10
4.7866
20
-5.27577
11
4.7941
21
-5.27952
0
LINE
8
BLACK
6
CONTINUOUS
10
4.7941
20
-5.27952
11
4.8091
21
-5.27952
0
LINE
8
BLACK
6
CONTINUOUS
10
4.8091
20
-5.27952
11
4.8166
21
-5.27577
0
LINE
8
BLACK
6
CONTINUOUS
10
4.8166
20
-5.27577
11
4.82035
21
-5.26827
0
LINE
8
BLACK
6
CONTINUOUS
10
4.82035
20
-5.26827
11
4.82035
21
-5.26452
0
LINE
8
BLACK
6
CONTINUOUS
10
4.82035
20
-5.26452
11
4.8166
21
-5.25702
0
LINE
8
BLACK
6
CONTINUOUS
10
4.8166
20
-5.25702
11
4.8091
21
-5.25327
0
LINE
8
BLACK
6
CONTINUOUS
10
4.8091
20
-5.25327
11
4.79785
21
-5.25327
0
LINE
8
BLACK
6
CONTINUOUS
10
4.79785
20
-5.25327
11
4.79035
21
-5.24952
0
LINE
8
BLACK
6
CONTINUOUS
10
4.79035
20
-5.24952
11
4.7866
21
-5.24202
0
LINE
8
BLACK
6
CONTINUOUS
10
4.7866
20
-5.24202
11
4.7866
21
-5.23827
0
LINE
8
BLACK
6
CONTINUOUS
10
4.7866
20
-5.23827
11
4.79035
21
-5.23077
0
LINE
8
BLACK
6
CONTINUOUS
10
4.79035
20
-5.23077
11
4.79785
21
-5.22702
0
LINE
8
BLACK
6
CONTINUOUS
10
4.79785
20
-5.22702
11
4.8091
21
-5.22702
0
LINE
8
BLACK
6
CONTINUOUS
10
4.8091
20
-5.22702
11
4.8166
21
-5.23077
0
LINE
8
BLACK
6
CONTINUOUS
10
4.8466
20
-5.30951
11
4.85035
21
-5.30576
0
LINE
8
BLACK
6
CONTINUOUS
10
4.85035
20
-5.30576
11
4.85785
21
-5.29452
0
LINE
8
BLACK
6
CONTINUOUS
10
4.85785
20
-5.29452
11
4.8616
21
-5.28702
0
LINE
8
BLACK
6
CONTINUOUS
10
4.8616
20
-5.28702
11
4.86535
21
-5.27577
0
LINE
8
BLACK
6
CONTINUOUS
10
4.86535
20
-5.27577
11
4.86909
21
-5.25702
0
LINE
8
BLACK
6
CONTINUOUS
10
4.86909
20
-5.25702
11
4.86909
21
-5.24202
0
LINE
8
BLACK
6
CONTINUOUS
10
4.86909
20
-5.24202
11
4.86535
21
-5.22328
0
LINE
8
BLACK
6
CONTINUOUS
10
4.86535
20
-5.22328
11
4.8616
21
-5.21203
0
LINE
8
BLACK
6
CONTINUOUS
10
4.8616
20
-5.21203
11
4.85785
21
-5.20453
0
LINE
8
BLACK
6
CONTINUOUS
10
4.85785
20
-5.20453
11
4.85035
21
-5.19328
0
LINE
8
BLACK
6
CONTINUOUS
10
4.85035
20
-5.19328
11
4.8466
21
-5.18953
0
LINE
8
BLACK
6
CONTINUOUS
10
2.93307
20
-5.33976
11
2.93307
21
-5.36929
0
LINE
8
BLACK
6
CONTINUOUS
10
2.91831
20
-5.35453
11
2.94783
21
-5.35453
0
LINE
8
BLACK
6
CONTINUOUS
10
3.06032
20
-5.30471
11
3.06782
21
-5.30471
0
LINE
8
BLACK
6
CONTINUOUS
10
3.06782
20
-5.30471
11
3.07532
21
-5.30846
0
LINE
8
BLACK
6
CONTINUOUS
10
3.07532
20
-5.30846
11
3.07907
21
-5.31221
0
LINE
8
BLACK
6
CONTINUOUS
10
3.07907
20
-5.31221
11
3.08282
21
-5.31971
0
LINE
8
BLACK
6
CONTINUOUS
10
3.08282
20
-5.31971
11
3.08657
21
-5.33471
0
LINE
8
BLACK
6
CONTINUOUS
10
3.08657
20
-5.33471
11
3.08657
21
-5.35346
0
LINE
8
BLACK
6
CONTINUOUS
10
3.08657
20
-5.35346
11
3.08282
21
-5.36846
0
LINE
8
BLACK
6
CONTINUOUS
10
3.08282
20
-5.36846
11
3.07907
21
-5.37596
0
LINE
8
BLACK
6
CONTINUOUS
10
3.07907
20
-5.37596
11
3.07532
21
-5.37971
0
LINE
8
BLACK
6
CONTINUOUS
10
3.07532
20
-5.37971
11
3.06782
21
-5.38346
0
LINE
8
BLACK
6
CONTINUOUS
10
3.06782
20
-5.38346
11
3.06032
21
-5.38346
0
LINE
8
BLACK
6
CONTINUOUS
10
3.06032
20
-5.38346
11
3.05282
21
-5.37971
0
LINE
8
BLACK
6
CONTINUOUS
10
3.05282
20
-5.37971
11
3.04907
21
-5.37596
0
LINE
8
BLACK
6
CONTINUOUS
10
3.04907
20
-5.37596
11
3.04532
21
-5.36846
0
LINE
8
BLACK
6
CONTINUOUS
10
3.04532
20
-5.36846
11
3.04157
21
-5.35346
0
LINE
8
BLACK
6
CONTINUOUS
10
3.04157
20
-5.35346
11
3.04157
21
-5.33471
0
LINE
8
BLACK
6
CONTINUOUS
10
3.04157
20
-5.33471
11
3.04532
21
-5.31971
0
LINE
8
BLACK
6
CONTINUOUS
10
3.04532
20
-5.31971
11
3.04907
21
-5.31221
0
LINE
8
BLACK
6
CONTINUOUS
10
3.04907
20
-5.31221
11
3.05282
21
-5.30846
0
LINE
8
BLACK
6
CONTINUOUS
10
3.05282
20
-5.30846
11
3.06032
21
-5.30471
0
LINE
8
BLACK
6
CONTINUOUS
10
3.12031
20
-5.37596
11
3.12406
21
-5.37971
0
LINE
8
BLACK
6
CONTINUOUS
10
3.12406
20
-5.37971
11
3.12031
21
-5.38346
0
LINE
8
BLACK
6
CONTINUOUS
10
3.12031
20
-5.38346
11
3.11656
21
-5.37971
0
LINE
8
BLACK
6
CONTINUOUS
10
3.11656
20
-5.37971
11
3.12031
21
-5.37596
0
LINE
8
BLACK
6
CONTINUOUS
10
3.12031
20
-5.37596
11
3.12031
21
-5.38346
0
LINE
8
BLACK
6
CONTINUOUS
10
3.15031
20
-5.30471
11
3.2028
21
-5.30471
0
LINE
8
BLACK
6
CONTINUOUS
10
3.2028
20
-5.30471
11
3.16906
21
-5.38346
0
LINE
8
BLACK
6
CONTINUOUS
10
3.27029
20
-5.30471
11
3.2328
21
-5.30471
0
LINE
8
BLACK
6
CONTINUOUS
10
3.2328
20
-5.30471
11
3.22905
21
-5.34221
0
LINE
8
BLACK
6
CONTINUOUS
10
3.22905
20
-5.34221
11
3.2328
21
-5.33846
0
LINE
8
BLACK
6
CONTINUOUS
10
3.2328
20
-5.33846
11
3.2403
21
-5.33471
0
LINE
8
BLACK
6
CONTINUOUS
10
3.2403
20
-5.33471
11
3.25905
21
-5.33471
0
LINE
8
BLACK
6
CONTINUOUS
10
3.25905
20
-5.33471
11
3.26654
21
-5.33846
0
LINE
8
BLACK
6
CONTINUOUS
10
3.26654
20
-5.33846
11
3.27029
21
-5.34221
0
LINE
8
BLACK
6
CONTINUOUS
10
3.27029
20
-5.34221
11
3.27404
21
-5.34971
0
LINE
8
BLACK
6
CONTINUOUS
10
3.27404
20
-5.34971
11
3.27404
21
-5.36846
0
LINE
8
BLACK
6
CONTINUOUS
10
3.27404
20
-5.36846
11
3.27029
21
-5.37596
0
LINE
8
BLACK
6
CONTINUOUS
10
3.27029
20
-5.37596
11
3.26654
21
-5.37971
0
LINE
8
BLACK
6
CONTINUOUS
10
3.26654
20
-5.37971
11
3.25905
21
-5.38346
0
LINE
8
BLACK
6
CONTINUOUS
10
3.25905
20
-5.38346
11
3.2403
21
-5.38346
0
LINE
8
BLACK
6
CONTINUOUS
10
3.2403
20
-5.38346
11
3.2328
21
-5.37971
0
LINE
8
BLACK
6
CONTINUOUS
10
3.2328
20
-5.37971
11
3.22905
21
-5.37596
0
LINE
8
BLACK
6
CONTINUOUS
10
3.32279
20
-5.30471
11
3.33029
21
-5.30471
0
LINE
8
BLACK
6
CONTINUOUS
10
3.33029
20
-5.30471
11
3.33779
21
-5.30846
0
LINE
8
BLACK
6
CONTINUOUS
10
3.33779
20
-5.30846
11
3.34154
21
-5.31221
0
LINE
8
BLACK
6
CONTINUOUS
10
3.34154
20
-5.31221
11
3.34528
21
-5.31971
0
LINE
8
BLACK
6
CONTINUOUS
10
3.34528
20
-5.31971
11
3.34903
21
-5.33471
0
LINE
8
BLACK
6
CONTINUOUS
10
3.34903
20
-5.33471
11
3.34903
21
-5.35346
0
LINE
8
BLACK
6
CONTINUOUS
10
3.34903
20
-5.35346
11
3.34528
21
-5.36846
0
LINE
8
BLACK
6
CONTINUOUS
10
3.34528
20
-5.36846
11
3.34154
21
-5.37596
0
LINE
8
BLACK
6
CONTINUOUS
10
3.34154
20
-5.37596
11
3.33779
21
-5.37971
0
LINE
8
BLACK
6
CONTINUOUS
10
3.33779
20
-5.37971
11
3.33029
21
-5.38346
0
LINE
8
BLACK
6
CONTINUOUS
10
3.33029
20
-5.38346
11
3.32279
21
-5.38346
0
LINE
8
BLACK
6
CONTINUOUS
10
3.32279
20
-5.38346
11
3.31529
21
-5.37971
0
LINE
8
BLACK
6
CONTINUOUS
10
3.31529
20
-5.37971
11
3.31154
21
-5.37596
0
LINE
8
BLACK
6
CONTINUOUS
10
3.31154
20
-5.37596
11
3.30779
21
-5.36846
0
LINE
8
BLACK
6
CONTINUOUS
10
3.30779
20
-5.36846
11
3.30404
21
-5.35346
0
LINE
8
BLACK
6
CONTINUOUS
10
3.30404
20
-5.35346
11
3.30404
21
-5.33471
0
LINE
8
BLACK
6
CONTINUOUS
10
3.30404
20
-5.33471
11
3.30779
21
-5.31971
0
LINE
8
BLACK
6
CONTINUOUS
10
3.30779
20
-5.31971
11
3.31154
21
-5.31221
0
LINE
8
BLACK
6
CONTINUOUS
10
3.31154
20
-5.31221
11
3.31529
21
-5.30846
0
LINE
8
BLACK
6
CONTINUOUS
10
3.31529
20
-5.30846
11
3.32279
21
-5.30471
0
LINE
8
BLACK
6
CONTINUOUS
10
3.38278
20
-5.38346
11
3.38278
21
-5.33096
0
LINE
8
BLACK
6
CONTINUOUS
10
3.38278
20
-5.33846
11
3.38653
21
-5.33471
0
LINE
8
BLACK
6
CONTINUOUS
10
3.38653
20
-5.33471
11
3.39403
21
-5.33096
0
LINE
8
BLACK
6
CONTINUOUS
10
3.39403
20
-5.33096
11
3.40528
21
-5.33096
0
LINE
8
BLACK
6
CONTINUOUS
10
3.40528
20
-5.33096
11
3.41278
21
-5.33471
0
LINE
8
BLACK
6
CONTINUOUS
10
3.41278
20
-5.33471
11
3.41653
21
-5.34221
0
LINE
8
BLACK
6
CONTINUOUS
10
3.41653
20
-5.34221
11
3.41653
21
-5.38346
0
LINE
8
BLACK
6
CONTINUOUS
10
3.41653
20
-5.34221
11
3.42028
21
-5.33471
0
LINE
8
BLACK
6
CONTINUOUS
10
3.42028
20
-5.33471
11
3.42777
21
-5.33096
0
LINE
8
BLACK
6
CONTINUOUS
10
3.42777
20
-5.33096
11
3.43902
21
-5.33096
0
LINE
8
BLACK
6
CONTINUOUS
10
3.43902
20
-5.33096
11
3.44652
21
-5.33471
0
LINE
8
BLACK
6
CONTINUOUS
10
3.44652
20
-5.33471
11
3.45027
21
-5.34221
0
LINE
8
BLACK
6
CONTINUOUS
10
3.45027
20
-5.34221
11
3.45027
21
-5.38346
0
LINE
8
BLACK
6
CONTINUOUS
10
3.48777
20
-5.38346
11
3.48777
21
-5.33096
0
LINE
8
BLACK
6
CONTINUOUS
10
3.48777
20
-5.33846
11
3.49152
21
-5.33471
0
LINE
8
BLACK
6
CONTINUOUS
10
3.49152
20
-5.33471
11
3.49902
21
-5.33096
0
LINE
8
BLACK
6
CONTINUOUS
10
3.49902
20
-5.33096
11
3.51026
21
-5.33096
0
LINE
8
BLACK
6
CONTINUOUS
10
3.51026
20
-5.33096
11
3.51776
21
-5.33471
0
LINE
8
BLACK
6
CONTINUOUS
10
3.51776
20
-5.33471
11
3.52151
21
-5.34221
0
LINE
8
BLACK
6
CONTINUOUS
10
3.52151
20
-5.34221
11
3.52151
21
-5.38346
0
LINE
8
BLACK
6
CONTINUOUS
10
3.52151
20
-5.34221
11
3.52526
21
-5.33471
0
LINE
8
BLACK
6
CONTINUOUS
10
3.52526
20
-5.33471
11
3.53276
21
-5.33096
0
LINE
8
BLACK
6
CONTINUOUS
10
3.53276
20
-5.33096
11
3.54401
21
-5.33096
0
LINE
8
BLACK
6
CONTINUOUS
10
3.54401
20
-5.33096
11
3.55151
21
-5.33471
0
LINE
8
BLACK
6
CONTINUOUS
10
3.55151
20
-5.33471
11
3.55526
21
-5.34221
0
LINE
8
BLACK
6
CONTINUOUS
10
3.55526
20
-5.34221
11
3.55526
21
-5.38346
0
LINE
8
BLACK
6
CONTINUOUS
10
3.69624
20
-5.30097
11
3.62875
21
-5.4022
0
LINE
8
BLACK
6
CONTINUOUS
10
3.78473
20
-5.30471
11
3.79223
21
-5.30471
0
LINE
8
BLACK
6
CONTINUOUS
10
3.79223
20
-5.30471
11
3.79973
21
-5.30846
0
LINE
8
BLACK
6
CONTINUOUS
10
3.79973
20
-5.30846
11
3.80348
21
-5.31221
0
LINE
8
BLACK
6
CONTINUOUS
10
3.80348
20
-5.31221
11
3.80723
21
-5.31971
0
LINE
8
BLACK
6
CONTINUOUS
10
3.80723
20
-5.31971
11
3.81098
21
-5.33471
0
LINE
8
BLACK
6
CONTINUOUS
10
3.81098
20
-5.33471
11
3.81098
21
-5.35346
0
LINE
8
BLACK
6
CONTINUOUS
10
3.81098
20
-5.35346
11
3.80723
21
-5.36846
0
LINE
8
BLACK
6
CONTINUOUS
10
3.80723
20
-5.36846
11
3.80348
21
-5.37596
0
LINE
8
BLACK
6
CONTINUOUS
10
3.80348
20
-5.37596
11
3.79973
21
-5.37971
0
LINE
8
BLACK
6
CONTINUOUS
10
3.79973
20
-5.37971
11
3.79223
21
-5.38346
0
LINE
8
BLACK
6
CONTINUOUS
10
3.79223
20
-5.38346
11
3.78473
21
-5.38346
0
LINE
8
BLACK
6
CONTINUOUS
10
3.78473
20
-5.38346
11
3.77723
21
-5.37971
0
LINE
8
BLACK
6
CONTINUOUS
10
3.77723
20
-5.37971
11
3.77348
21
-5.37596
0
LINE
8
BLACK
6
CONTINUOUS
10
3.77348
20
-5.37596
11
3.76973
21
-5.36846
0
LINE
8
BLACK
6
CONTINUOUS
10
3.76973
20
-5.36846
11
3.76598
21
-5.35346
0
LINE
8
BLACK
6
CONTINUOUS
10
3.76598
20
-5.35346
11
3.76598
21
-5.33471
0
LINE
8
BLACK
6
CONTINUOUS
10
3.76598
20
-5.33471
11
3.76973
21
-5.31971
0
LINE
8
BLACK
6
CONTINUOUS
10
3.76973
20
-5.31971
11
3.77348
21
-5.31221
0
LINE
8
BLACK
6
CONTINUOUS
10
3.77348
20
-5.31221
11
3.77723
21
-5.30846
0
LINE
8
BLACK
6
CONTINUOUS
10
3.77723
20
-5.30846
11
3.78473
21
-5.30471
0
LINE
8
BLACK
6
CONTINUOUS
10
3.84472
20
-5.37596
11
3.84847
21
-5.37971
0
LINE
8
BLACK
6
CONTINUOUS
10
3.84847
20
-5.37971
11
3.84472
21
-5.38346
0
LINE
8
BLACK
6
CONTINUOUS
10
3.84472
20
-5.38346
11
3.84097
21
-5.37971
0
LINE
8
BLACK
6
CONTINUOUS
10
3.84097
20
-5.37971
11
3.84472
21
-5.37596
0
LINE
8
BLACK
6
CONTINUOUS
10
3.84472
20
-5.37596
11
3.84472
21
-5.38346
0
LINE
8
BLACK
6
CONTINUOUS
10
3.89722
20
-5.30471
11
3.90472
21
-5.30471
0
LINE
8
BLACK
6
CONTINUOUS
10
3.90472
20
-5.30471
11
3.91221
21
-5.30846
0
LINE
8
BLACK
6
CONTINUOUS
10
3.91221
20
-5.30846
11
3.91596
21
-5.31221
0
LINE
8
BLACK
6
CONTINUOUS
10
3.91596
20
-5.31221
11
3.91971
21
-5.31971
0
LINE
8
BLACK
6
CONTINUOUS
10
3.91971
20
-5.31971
11
3.92346
21
-5.33471
0
LINE
8
BLACK
6
CONTINUOUS
10
3.92346
20
-5.33471
11
3.92346
21
-5.35346
0
LINE
8
BLACK
6
CONTINUOUS
10
3.92346
20
-5.35346
11
3.91971
21
-5.36846
0
LINE
8
BLACK
6
CONTINUOUS
10
3.91971
20
-5.36846
11
3.91596
21
-5.37596
0
LINE
8
BLACK
6
CONTINUOUS
10
3.91596
20
-5.37596
11
3.91221
21
-5.37971
0
LINE
8
BLACK
6
CONTINUOUS
10
3.91221
20
-5.37971
11
3.90472
21
-5.38346
0
LINE
8
BLACK
6
CONTINUOUS
10
3.90472
20
-5.38346
11
3.89722
21
-5.38346
0
LINE
8
BLACK
6
CONTINUOUS
10
3.89722
20
-5.38346
11
3.88972
21
-5.37971
0
LINE
8
BLACK
6
CONTINUOUS
10
3.88972
20
-5.37971
11
3.88597
21
-5.37596
0
LINE
8
BLACK
6
CONTINUOUS
10
3.88597
20
-5.37596
11
3.88222
21
-5.36846
0
LINE
8
BLACK
6
CONTINUOUS
10
3.88222
20
-5.36846
11
3.87847
21
-5.35346
0
LINE
8
BLACK
6
CONTINUOUS
10
3.87847
20
-5.35346
11
3.87847
21
-5.33471
0
LINE
8
BLACK
6
CONTINUOUS
10
3.87847
20
-5.33471
11
3.88222
21
-5.31971
0
LINE
8
BLACK
6
CONTINUOUS
10
3.88222
20
-5.31971
11
3.88597
21
-5.31221
0
LINE
8
BLACK
6
CONTINUOUS
10
3.88597
20
-5.31221
11
3.88972
21
-5.30846
0
LINE
8
BLACK
6
CONTINUOUS
10
3.88972
20
-5.30846
11
3.89722
21
-5.30471
0
LINE
8
BLACK
6
CONTINUOUS
10
3.95346
20
-5.31221
11
3.95721
21
-5.30846
0
LINE
8
BLACK
6
CONTINUOUS
10
3.95721
20
-5.30846
11
3.96471
21
-5.30471
0
LINE
8
BLACK
6
CONTINUOUS
10
3.96471
20
-5.30471
11
3.98346
21
-5.30471
0
LINE
8
BLACK
6
CONTINUOUS
10
3.98346
20
-5.30471
11
3.99095
21
-5.30846
0
LINE
8
BLACK
6
CONTINUOUS
10
3.99095
20
-5.30846
11
3.9947
21
-5.31221
0
LINE
8
BLACK
6
CONTINUOUS
10
3.9947
20
-5.31221
11
3.99845
21
-5.31971
0
LINE
8
BLACK
6
CONTINUOUS
10
3.99845
20
-5.31971
11
3.99845
21
-5.32721
0
LINE
8
BLACK
6
CONTINUOUS
10
3.99845
20
-5.32721
11
3.9947
21
-5.33846
0
LINE
8
BLACK
6
CONTINUOUS
10
3.9947
20
-5.33846
11
3.94971
21
-5.38346
0
LINE
8
BLACK
6
CONTINUOUS
10
3.94971
20
-5.38346
11
3.99845
21
-5.38346
0
LINE
8
BLACK
6
CONTINUOUS
10
4.03595
20
-5.38346
11
4.05095
21
-5.38346
0
LINE
8
BLACK
6
CONTINUOUS
10
4.05095
20
-5.38346
11
4.05845
21
-5.37971
0
LINE
8
BLACK
6
CONTINUOUS
10
4.05845
20
-5.37971
11
4.0622
21
-5.37596
0
LINE
8
BLACK
6
CONTINUOUS
10
4.0622
20
-5.37596
11
4.06969
21
-5.36471
0
LINE
8
BLACK
6
CONTINUOUS
10
4.06969
20
-5.36471
11
4.07344
21
-5.34971
0
LINE
8
BLACK
6
CONTINUOUS
10
4.07344
20
-5.34971
11
4.07344
21
-5.31971
0
LINE
8
BLACK
6
CONTINUOUS
10
4.07344
20
-5.31971
11
4.06969
21
-5.31221
0
LINE
8
BLACK
6
CONTINUOUS
10
4.06969
20
-5.31221
11
4.06594
21
-5.30846
0
LINE
8
BLACK
6
CONTINUOUS
10
4.06594
20
-5.30846
11
4.05845
21
-5.30471
0
LINE
8
BLACK
6
CONTINUOUS
10
4.05845
20
-5.30471
11
4.04345
21
-5.30471
0
LINE
8
BLACK
6
CONTINUOUS
10
4.04345
20
-5.30471
11
4.03595
21
-5.30846
0
LINE
8
BLACK
6
CONTINUOUS
10
4.03595
20
-5.30846
11
4.0322
21
-5.31221
0
LINE
8
BLACK
6
CONTINUOUS
10
4.0322
20
-5.31221
11
4.02845
21
-5.31971
0
LINE
8
BLACK
6
CONTINUOUS
10
4.02845
20
-5.31971
11
4.02845
21
-5.33846
0
LINE
8
BLACK
6
CONTINUOUS
10
4.02845
20
-5.33846
11
4.0322
21
-5.34596
0
LINE
8
BLACK
6
CONTINUOUS
10
4.0322
20
-5.34596
11
4.03595
21
-5.34971
0
LINE
8
BLACK
6
CONTINUOUS
10
4.03595
20
-5.34971
11
4.04345
21
-5.35346
0
LINE
8
BLACK
6
CONTINUOUS
10
4.04345
20
-5.35346
11
4.05845
21
-5.35346
0
LINE
8
BLACK
6
CONTINUOUS
10
4.05845
20
-5.35346
11
4.06594
21
-5.34971
0
LINE
8
BLACK
6
CONTINUOUS
10
4.06594
20
-5.34971
11
4.06969
21
-5.34596
0
LINE
8
BLACK
6
CONTINUOUS
10
4.06969
20
-5.34596
11
4.07344
21
-5.33846
0
LINE
8
BLACK
6
CONTINUOUS
10
4.14469
20
-5.30471
11
4.10719
21
-5.30471
0
LINE
8
BLACK
6
CONTINUOUS
10
4.10719
20
-5.30471
11
4.10344
21
-5.34221
0
LINE
8
BLACK
6
CONTINUOUS
10
4.10344
20
-5.34221
11
4.10719
21
-5.33846
0
LINE
8
BLACK
6
CONTINUOUS
10
4.10719
20
-5.33846
11
4.11469
21
-5.33471
0
LINE
8
BLACK
6
CONTINUOUS
10
4.11469
20
-5.33471
11
4.13344
21
-5.33471
0
LINE
8
BLACK
6
CONTINUOUS
10
4.13344
20
-5.33471
11
4.14094
21
-5.33846
0
LINE
8
BLACK
6
CONTINUOUS
10
4.14094
20
-5.33846
11
4.14469
21
-5.34221
0
LINE
8
BLACK
6
CONTINUOUS
10
4.14469
20
-5.34221
11
4.14843
21
-5.34971
0
LINE
8
BLACK
6
CONTINUOUS
10
4.14843
20
-5.34971
11
4.14843
21
-5.36846
0
LINE
8
BLACK
6
CONTINUOUS
10
4.14843
20
-5.36846
11
4.14469
21
-5.37596
0
LINE
8
BLACK
6
CONTINUOUS
10
4.14469
20
-5.37596
11
4.14094
21
-5.37971
0
LINE
8
BLACK
6
CONTINUOUS
10
4.14094
20
-5.37971
11
4.13344
21
-5.38346
0
LINE
8
BLACK
6
CONTINUOUS
10
4.13344
20
-5.38346
11
4.11469
21
-5.38346
0
LINE
8
BLACK
6
CONTINUOUS
10
4.11469
20
-5.38346
11
4.10719
21
-5.37971
0
LINE
8
BLACK
6
CONTINUOUS
10
4.10719
20
-5.37971
11
4.10344
21
-5.37596
0
LINE
8
BLACK
6
CONTINUOUS
10
4.17843
20
-5.30471
11
4.17843
21
-5.31971
0
LINE
8
BLACK
6
CONTINUOUS
10
4.20843
20
-5.30471
11
4.20843
21
-5.31971
0
LINE
8
BLACK
6
CONTINUOUS
10
4.31191
20
-5.41345
11
4.30816
21
-5.4097
0
LINE
8
BLACK
6
CONTINUOUS
10
4.30816
20
-5.4097
11
4.30067
21
-5.39845
0
LINE
8
BLACK
6
CONTINUOUS
10
4.30067
20
-5.39845
11
4.29692
21
-5.39095
0
LINE
8
BLACK
6
CONTINUOUS
10
4.29692
20
-5.39095
11
4.29317
21
-5.37971
0
LINE
8
BLACK
6
CONTINUOUS
10
4.29317
20
-5.37971
11
4.28942
21
-5.36096
0
LINE
8
BLACK
6
CONTINUOUS
10
4.28942
20
-5.36096
11
4.28942
21
-5.34596
0
LINE
8
BLACK
6
CONTINUOUS
10
4.28942
20
-5.34596
11
4.29317
21
-5.32721
0
LINE
8
BLACK
6
CONTINUOUS
10
4.29317
20
-5.32721
11
4.29692
21
-5.31596
0
LINE
8
BLACK
6
CONTINUOUS
10
4.29692
20
-5.31596
11
4.30067
21
-5.30846
0
LINE
8
BLACK
6
CONTINUOUS
10
4.30067
20
-5.30846
11
4.30816
21
-5.29722
0
LINE
8
BLACK
6
CONTINUOUS
10
4.30816
20
-5.29722
11
4.31191
21
-5.29347
0
LINE
8
BLACK
6
CONTINUOUS
10
4.37566
20
-5.33096
11
4.37566
21
-5.38346
0
LINE
8
BLACK
6
CONTINUOUS
10
4.35691
20
-5.30097
11
4.33816
21
-5.35721
0
LINE
8
BLACK
6
CONTINUOUS
10
4.33816
20
-5.35721
11
4.3869
21
-5.35721
0
LINE
8
BLACK
6
CONTINUOUS
10
4.4544
20
-5.30471
11
4.4169
21
-5.30471
0
LINE
8
BLACK
6
CONTINUOUS
10
4.4169
20
-5.30471
11
4.41315
21
-5.34221
0
LINE
8
BLACK
6
CONTINUOUS
10
4.41315
20
-5.34221
11
4.4169
21
-5.33846
0
LINE
8
BLACK
6
CONTINUOUS
10
4.4169
20
-5.33846
11
4.4244
21
-5.33471
0
LINE
8
BLACK
6
CONTINUOUS
10
4.4244
20
-5.33471
11
4.44315
21
-5.33471
0
LINE
8
BLACK
6
CONTINUOUS
10
4.44315
20
-5.33471
11
4.45065
21
-5.33846
0
LINE
8
BLACK
6
CONTINUOUS
10
4.45065
20
-5.33846
11
4.4544
21
-5.34221
0
LINE
8
BLACK
6
CONTINUOUS
10
4.4544
20
-5.34221
11
4.45815
21
-5.34971
0
LINE
8
BLACK
6
CONTINUOUS
10
4.45815
20
-5.34971
11
4.45815
21
-5.36846
0
LINE
8
BLACK
6
CONTINUOUS
10
4.45815
20
-5.36846
11
4.4544
21
-5.37596
0
LINE
8
BLACK
6
CONTINUOUS
10
4.4544
20
-5.37596
11
4.45065
21
-5.37971
0
LINE
8
BLACK
6
CONTINUOUS
10
4.45065
20
-5.37971
11
4.44315
21
-5.38346
0
LINE
8
BLACK
6
CONTINUOUS
10
4.44315
20
-5.38346
11
4.4244
21
-5.38346
0
LINE
8
BLACK
6
CONTINUOUS
10
4.4244
20
-5.38346
11
4.4169
21
-5.37971
0
LINE
8
BLACK
6
CONTINUOUS
10
4.4169
20
-5.37971
11
4.41315
21
-5.37596
0
LINE
8
BLACK
6
CONTINUOUS
10
4.53914
20
-5.38346
11
4.53914
21
-5.30471
0
LINE
8
BLACK
6
CONTINUOUS
10
4.57288
20
-5.38346
11
4.57288
21
-5.34221
0
LINE
8
BLACK
6
CONTINUOUS
10
4.57288
20
-5.34221
11
4.56913
21
-5.33471
0
LINE
8
BLACK
6
CONTINUOUS
10
4.56913
20
-5.33471
11
4.56163
21
-5.33096
0
LINE
8
BLACK
6
CONTINUOUS
10
4.56163
20
-5.33096
11
4.55038
21
-5.33096
0
LINE
8
BLACK
6
CONTINUOUS
10
4.55038
20
-5.33096
11
4.54289
21
-5.33471
0
LINE
8
BLACK
6
CONTINUOUS
10
4.54289
20
-5.33471
11
4.53914
21
-5.33846
0
LINE
8
BLACK
6
CONTINUOUS
10
4.62163
20
-5.38346
11
4.61413
21
-5.37971
0
LINE
8
BLACK
6
CONTINUOUS
10
4.61413
20
-5.37971
11
4.61038
21
-5.37596
0
LINE
8
BLACK
6
CONTINUOUS
10
4.61038
20
-5.37596
11
4.60663
21
-5.36846
0
LINE
8
BLACK
6
CONTINUOUS
10
4.60663
20
-5.36846
11
4.60663
21
-5.34596
0
LINE
8
BLACK
6
CONTINUOUS
10
4.60663
20
-5.34596
11
4.61038
21
-5.33846
0
LINE
8
BLACK
6
CONTINUOUS
10
4.61038
20
-5.33846
11
4.61413
21
-5.33471
0
LINE
8
BLACK
6
CONTINUOUS
10
4.61413
20
-5.33471
11
4.62163
21
-5.33096
0
LINE
8
BLACK
6
CONTINUOUS
10
4.62163
20
-5.33096
11
4.63287
21
-5.33096
0
LINE
8
BLACK
6
CONTINUOUS
10
4.63287
20
-5.33096
11
4.64037
21
-5.33471
0
LINE
8
BLACK
6
CONTINUOUS
10
4.64037
20
-5.33471
11
4.64412
21
-5.33846
0
LINE
8
BLACK
6
CONTINUOUS
10
4.64412
20
-5.33846
11
4.64787
21
-5.34596
0
LINE
8
BLACK
6
CONTINUOUS
10
4.64787
20
-5.34596
11
4.64787
21
-5.36846
0
LINE
8
BLACK
6
CONTINUOUS
10
4.64787
20
-5.36846
11
4.64412
21
-5.37596
0
LINE
8
BLACK
6
CONTINUOUS
10
4.64412
20
-5.37596
11
4.64037
21
-5.37971
0
LINE
8
BLACK
6
CONTINUOUS
10
4.64037
20
-5.37971
11
4.63287
21
-5.38346
0
LINE
8
BLACK
6
CONTINUOUS
10
4.63287
20
-5.38346
11
4.62163
21
-5.38346
0
LINE
8
BLACK
6
CONTINUOUS
10
4.69287
20
-5.38346
11
4.68537
21
-5.37971
0
LINE
8
BLACK
6
CONTINUOUS
10
4.68537
20
-5.37971
11
4.68162
21
-5.37221
0
LINE
8
BLACK
6
CONTINUOUS
10
4.68162
20
-5.37221
11
4.68162
21
-5.30471
0
LINE
8
BLACK
6
CONTINUOUS
10
4.75286
20
-5.37971
11
4.74536
21
-5.38346
0
LINE
8
BLACK
6
CONTINUOUS
10
4.74536
20
-5.38346
11
4.73036
21
-5.38346
0
LINE
8
BLACK
6
CONTINUOUS
10
4.73036
20
-5.38346
11
4.72286
21
-5.37971
0
LINE
8
BLACK
6
CONTINUOUS
10
4.72286
20
-5.37971
11
4.71911
21
-5.37221
0
LINE
8
BLACK
6
CONTINUOUS
10
4.71911
20
-5.37221
11
4.71911
21
-5.34221
0
LINE
8
BLACK
6
CONTINUOUS
10
4.71911
20
-5.34221
11
4.72286
21
-5.33471
0
LINE
8
BLACK
6
CONTINUOUS
10
4.72286
20
-5.33471
11
4.73036
21
-5.33096
0
LINE
8
BLACK
6
CONTINUOUS
10
4.73036
20
-5.33096
11
4.74536
21
-5.33096
0
LINE
8
BLACK
6
CONTINUOUS
10
4.74536
20
-5.33096
11
4.75286
21
-5.33471
0
LINE
8
BLACK
6
CONTINUOUS
10
4.75286
20
-5.33471
11
4.75661
21
-5.34221
0
LINE
8
BLACK
6
CONTINUOUS
10
4.75661
20
-5.34221
11
4.75661
21
-5.34971
0
LINE
8
BLACK
6
CONTINUOUS
10
4.75661
20
-5.34971
11
4.71911
21
-5.35721
0
LINE
8
BLACK
6
CONTINUOUS
10
4.7866
20
-5.37971
11
4.7941
21
-5.38346
0
LINE
8
BLACK
6
CONTINUOUS
10
4.7941
20
-5.38346
11
4.8091
21
-5.38346
0
LINE
8
BLACK
6
CONTINUOUS
10
4.8091
20
-5.38346
11
4.8166
21
-5.37971
0
LINE
8
BLACK
6
CONTINUOUS
10
4.8166
20
-5.37971
11
4.82035
21
-5.37221
0
LINE
8
BLACK
6
CONTINUOUS
10
4.82035
20
-5.37221
11
4.82035
21
-5.36846
0
LINE
8
BLACK
6
CONTINUOUS
10
4.82035
20
-5.36846
11
4.8166
21
-5.36096
0
LINE
8
BLACK
6
CONTINUOUS
10
4.8166
20
-5.36096
11
4.8091
21
-5.35721
0
LINE
8
BLACK
6
CONTINUOUS
10
4.8091
20
-5.35721
11
4.79785
21
-5.35721
0
LINE
8
BLACK
6
CONTINUOUS
10
4.79785
20
-5.35721
11
4.79035
21
-5.35346
0
LINE
8
BLACK
6
CONTINUOUS
10
4.79035
20
-5.35346
11
4.7866
21
-5.34596
0
LINE
8
BLACK
6
CONTINUOUS
10
4.7866
20
-5.34596
11
4.7866
21
-5.34221
0
LINE
8
BLACK
6
CONTINUOUS
10
4.7866
20
-5.34221
11
4.79035
21
-5.33471
0
LINE
8
BLACK
6
CONTINUOUS
10
4.79035
20
-5.33471
11
4.79785
21
-5.33096
0
LINE
8
BLACK
6
CONTINUOUS
10
4.79785
20
-5.33096
11
4.8091
21
-5.33096
0
LINE
8
BLACK
6
CONTINUOUS
10
4.8091
20
-5.33096
11
4.8166
21
-5.33471
0
LINE
8
BLACK
6
CONTINUOUS
10
4.8466
20
-5.41345
11
4.85035
21
-5.4097
0
LINE
8
BLACK
6
CONTINUOUS
10
4.85035
20
-5.4097
11
4.85785
21
-5.39845
0
LINE
8
BLACK
6
CONTINUOUS
10
4.85785
20
-5.39845
11
4.8616
21
-5.39095
0
LINE
8
BLACK
6
CONTINUOUS
10
4.8616
20
-5.39095
11
4.86535
21
-5.37971
0
LINE
8
BLACK
6
CONTINUOUS
10
4.86535
20
-5.37971
11
4.86909
21
-5.36096
0
LINE
8
BLACK
6
CONTINUOUS
10
4.86909
20
-5.36096
11
4.86909
21
-5.34596
0
LINE
8
BLACK
6
CONTINUOUS
10
4.86909
20
-5.34596
11
4.86535
21
-5.32721
0
LINE
8
BLACK
6
CONTINUOUS
10
4.86535
20
-5.32721
11
4.8616
21
-5.31596
0
LINE
8
BLACK
6
CONTINUOUS
10
4.8616
20
-5.31596
11
4.85785
21
-5.30846
0
LINE
8
BLACK
6
CONTINUOUS
10
4.85785
20
-5.30846
11
4.85035
21
-5.29722
0
LINE
8
BLACK
6
CONTINUOUS
10
4.85035
20
-5.29722
11
4.8466
21
-5.29347
0
LINE
8
BLACK
6
CONTINUOUS
10
2.94344
20
-5.46907
11
2.94344
21
-5.44786
0
LINE
8
BLACK
6
CONTINUOUS
10
2.94344
20
-5.44786
11
2.92223
21
-5.44786
0
LINE
8
BLACK
6
CONTINUOUS
10
2.92223
20
-5.44786
11
2.92223
21
-5.46907
0
LINE
8
BLACK
6
CONTINUOUS
10
2.92223
20
-5.46907
11
2.94344
21
-5.46907
0
LINE
8
BLACK
6
CONTINUOUS
10
3.06032
20
-5.40865
11
3.06782
21
-5.40865
0
LINE
8
BLACK
6
CONTINUOUS
10
3.06782
20
-5.40865
11
3.07532
21
-5.4124
0
LINE
8
BLACK
6
CONTINUOUS
10
3.07532
20
-5.4124
11
3.07907
21
-5.41615
0
LINE
8
BLACK
6
CONTINUOUS
10
3.07907
20
-5.41615
11
3.08282
21
-5.42365
0
LINE
8
BLACK
6
CONTINUOUS
10
3.08282
20
-5.42365
11
3.08657
21
-5.43865
0
LINE
8
BLACK
6
CONTINUOUS
10
3.08657
20
-5.43865
11
3.08657
21
-5.4574
0
LINE
8
BLACK
6
CONTINUOUS
10
3.08657
20
-5.4574
11
3.08282
21
-5.47239
0
LINE
8
BLACK
6
CONTINUOUS
10
3.08282
20
-5.47239
11
3.07907
21
-5.47989
0
LINE
8
BLACK
6
CONTINUOUS
10
3.07907
20
-5.47989
11
3.07532
21
-5.48364
0
LINE
8
BLACK
6
CONTINUOUS
10
3.07532
20
-5.48364
11
3.06782
21
-5.48739
0
LINE
8
BLACK
6
CONTINUOUS
10
3.06782
20
-5.48739
11
3.06032
21
-5.48739
0
LINE
8
BLACK
6
CONTINUOUS
10
3.06032
20
-5.48739
11
3.05282
21
-5.48364
0
LINE
8
BLACK
6
CONTINUOUS
10
3.05282
20
-5.48364
11
3.04907
21
-5.47989
0
LINE
8
BLACK
6
CONTINUOUS
10
3.04907
20
-5.47989
11
3.04532
21
-5.47239
0
LINE
8
BLACK
6
CONTINUOUS
10
3.04532
20
-5.47239
11
3.04157
21
-5.4574
0
LINE
8
BLACK
6
CONTINUOUS
10
3.04157
20
-5.4574
11
3.04157
21
-5.43865
0
LINE
8
BLACK
6
CONTINUOUS
10
3.04157
20
-5.43865
11
3.04532
21
-5.42365
0
LINE
8
BLACK
6
CONTINUOUS
10
3.04532
20
-5.42365
11
3.04907
21
-5.41615
0
LINE
8
BLACK
6
CONTINUOUS
10
3.04907
20
-5.41615
11
3.05282
21
-5.4124
0
LINE
8
BLACK
6
CONTINUOUS
10
3.05282
20
-5.4124
11
3.06032
21
-5.40865
0
LINE
8
BLACK
6
CONTINUOUS
10
3.12031
20
-5.47989
11
3.12406
21
-5.48364
0
LINE
8
BLACK
6
CONTINUOUS
10
3.12406
20
-5.48364
11
3.12031
21
-5.48739
0
LINE
8
BLACK
6
CONTINUOUS
10
3.12031
20
-5.48739
11
3.11656
21
-5.48364
0
LINE
8
BLACK
6
CONTINUOUS
10
3.11656
20
-5.48364
11
3.12031
21
-5.47989
0
LINE
8
BLACK
6
CONTINUOUS
10
3.12031
20
-5.47989
11
3.12031
21
-5.48739
0
LINE
8
BLACK
6
CONTINUOUS
10
3.15031
20
-5.40865
11
3.2028
21
-5.40865
0
LINE
8
BLACK
6
CONTINUOUS
10
3.2028
20
-5.40865
11
3.16906
21
-5.48739
0
LINE
8
BLACK
6
CONTINUOUS
10
3.26654
20
-5.40865
11
3.25155
21
-5.40865
0
LINE
8
BLACK
6
CONTINUOUS
10
3.25155
20
-5.40865
11
3.24405
21
-5.4124
0
LINE
8
BLACK
6
CONTINUOUS
10
3.24405
20
-5.4124
11
3.2403
21
-5.41615
0
LINE
8
BLACK
6
CONTINUOUS
10
3.2403
20
-5.41615
11
3.2328
21
-5.4274
0
LINE
8
BLACK
6
CONTINUOUS
10
3.2328
20
-5.4274
11
3.22905
21
-5.4424
0
LINE
8
BLACK
6
CONTINUOUS
10
3.22905
20
-5.4424
11
3.22905
21
-5.47239
0
LINE
8
BLACK
6
CONTINUOUS
10
3.22905
20
-5.47239
11
3.2328
21
-5.47989
0
LINE
8
BLACK
6
CONTINUOUS
10
3.2328
20
-5.47989
11
3.23655
21
-5.48364
0
LINE
8
BLACK
6
CONTINUOUS
10
3.23655
20
-5.48364
11
3.24405
21
-5.48739
0
LINE
8
BLACK
6
CONTINUOUS
10
3.24405
20
-5.48739
11
3.25905
21
-5.48739
0
LINE
8
BLACK
6
CONTINUOUS
10
3.25905
20
-5.48739
11
3.26654
21
-5.48364
0
LINE
8
BLACK
6
CONTINUOUS
10
3.26654
20
-5.48364
11
3.27029
21
-5.47989
0
LINE
8
BLACK
6
CONTINUOUS
10
3.27029
20
-5.47989
11
3.27404
21
-5.47239
0
LINE
8
BLACK
6
CONTINUOUS
10
3.27404
20
-5.47239
11
3.27404
21
-5.45365
0
LINE
8
BLACK
6
CONTINUOUS
10
3.27404
20
-5.45365
11
3.27029
21
-5.44615
0
LINE
8
BLACK
6
CONTINUOUS
10
3.27029
20
-5.44615
11
3.26654
21
-5.4424
0
LINE
8
BLACK
6
CONTINUOUS
10
3.26654
20
-5.4424
11
3.25905
21
-5.43865
0
LINE
8
BLACK
6
CONTINUOUS
10
3.25905
20
-5.43865
11
3.24405
21
-5.43865
0
LINE
8
BLACK
6
CONTINUOUS
10
3.24405
20
-5.43865
11
3.23655
21
-5.4424
0
LINE
8
BLACK
6
CONTINUOUS
10
3.23655
20
-5.4424
11
3.2328
21
-5.44615
0
LINE
8
BLACK
6
CONTINUOUS
10
3.2328
20
-5.44615
11
3.22905
21
-5.45365
0
LINE
8
BLACK
6
CONTINUOUS
10
3.30404
20
-5.41615
11
3.30779
21
-5.4124
0
LINE
8
BLACK
6
CONTINUOUS
10
3.30779
20
-5.4124
11
3.31529
21
-5.40865
0
LINE
8
BLACK
6
CONTINUOUS
10
3.31529
20
-5.40865
11
3.33404
21
-5.40865
0
LINE
8
BLACK
6
CONTINUOUS
10
3.33404
20
-5.40865
11
3.34154
21
-5.4124
0
LINE
8
BLACK
6
CONTINUOUS
10
3.34154
20
-5.4124
11
3.34528
21
-5.41615
0
LINE
8
BLACK
6
CONTINUOUS
10
3.34528
20
-5.41615
11
3.34903
21
-5.42365
0
LINE
8
BLACK
6
CONTINUOUS
10
3.34903
20
-5.42365
11
3.34903
21
-5.43115
0
LINE
8
BLACK
6
CONTINUOUS
10
3.34903
20
-5.43115
11
3.34528
21
-5.4424
0
LINE
8
BLACK
6
CONTINUOUS
10
3.34528
20
-5.4424
11
3.30029
21
-5.48739
0
LINE
8
BLACK
6
CONTINUOUS
10
3.30029
20
-5.48739
11
3.34903
21
-5.48739
0
LINE
8
BLACK
6
CONTINUOUS
10
3.38278
20
-5.48739
11
3.38278
21
-5.4349
0
LINE
8
BLACK
6
CONTINUOUS
10
3.38278
20
-5.4424
11
3.38653
21
-5.43865
0
LINE
8
BLACK
6
CONTINUOUS
10
3.38653
20
-5.43865
11
3.39403
21
-5.4349
0
LINE
8
BLACK
6
CONTINUOUS
10
3.39403
20
-5.4349
11
3.40528
21
-5.4349
0
LINE
8
BLACK
6
CONTINUOUS
10
3.40528
20
-5.4349
11
3.41278
21
-5.43865
0
LINE
8
BLACK
6
CONTINUOUS
10
3.41278
20
-5.43865
11
3.41653
21
-5.44615
0
LINE
8
BLACK
6
CONTINUOUS
10
3.41653
20
-5.44615
11
3.41653
21
-5.48739
0
LINE
8
BLACK
6
CONTINUOUS
10
3.41653
20
-5.44615
11
3.42028
21
-5.43865
0
LINE
8
BLACK
6
CONTINUOUS
10
3.42028
20
-5.43865
11
3.42777
21
-5.4349
0
LINE
8
BLACK
6
CONTINUOUS
10
3.42777
20
-5.4349
11
3.43902
21
-5.4349
0
LINE
8
BLACK
6
CONTINUOUS
10
3.43902
20
-5.4349
11
3.44652
21
-5.43865
0
LINE
8
BLACK
6
CONTINUOUS
10
3.44652
20
-5.43865
11
3.45027
21
-5.44615
0
LINE
8
BLACK
6
CONTINUOUS
10
3.45027
20
-5.44615
11
3.45027
21
-5.48739
0
LINE
8
BLACK
6
CONTINUOUS
10
3.48777
20
-5.48739
11
3.48777
21
-5.4349
0
LINE
8
BLACK
6
CONTINUOUS
10
3.48777
20
-5.4424
11
3.49152
21
-5.43865
0
LINE
8
BLACK
6
CONTINUOUS
10
3.49152
20
-5.43865
11
3.49902
21
-5.4349
0
LINE
8
BLACK
6
CONTINUOUS
10
3.49902
20
-5.4349
11
3.51026
21
-5.4349
0
LINE
8
BLACK
6
CONTINUOUS
10
3.51026
20
-5.4349
11
3.51776
21
-5.43865
0
LINE
8
BLACK
6
CONTINUOUS
10
3.51776
20
-5.43865
11
3.52151
21
-5.44615
0
LINE
8
BLACK
6
CONTINUOUS
10
3.52151
20
-5.44615
11
3.52151
21
-5.48739
0
LINE
8
BLACK
6
CONTINUOUS
10
3.52151
20
-5.44615
11
3.52526
21
-5.43865
0
LINE
8
BLACK
6
CONTINUOUS
10
3.52526
20
-5.43865
11
3.53276
21
-5.4349
0
LINE
8
BLACK
6
CONTINUOUS
10
3.53276
20
-5.4349
11
3.54401
21
-5.4349
0
LINE
8
BLACK
6
CONTINUOUS
10
3.54401
20
-5.4349
11
3.55151
21
-5.43865
0
LINE
8
BLACK
6
CONTINUOUS
10
3.55151
20
-5.43865
11
3.55526
21
-5.44615
0
LINE
8
BLACK
6
CONTINUOUS
10
3.55526
20
-5.44615
11
3.55526
21
-5.48739
0
LINE
8
BLACK
6
CONTINUOUS
10
3.69624
20
-5.4049
11
3.62875
21
-5.50614
0
LINE
8
BLACK
6
CONTINUOUS
10
3.78473
20
-5.40865
11
3.79223
21
-5.40865
0
LINE
8
BLACK
6
CONTINUOUS
10
3.79223
20
-5.40865
11
3.79973
21
-5.4124
0
LINE
8
BLACK
6
CONTINUOUS
10
3.79973
20
-5.4124
11
3.80348
21
-5.41615
0
LINE
8
BLACK
6
CONTINUOUS
10
3.80348
20
-5.41615
11
3.80723
21
-5.42365
0
LINE
8
BLACK
6
CONTINUOUS
10
3.80723
20
-5.42365
11
3.81098
21
-5.43865
0
LINE
8
BLACK
6
CONTINUOUS
10
3.81098
20
-5.43865
11
3.81098
21
-5.4574
0
LINE
8
BLACK
6
CONTINUOUS
10
3.81098
20
-5.4574
11
3.80723
21
-5.47239
0
LINE
8
BLACK
6
CONTINUOUS
10
3.80723
20
-5.47239
11
3.80348
21
-5.47989
0
LINE
8
BLACK
6
CONTINUOUS
10
3.80348
20
-5.47989
11
3.79973
21
-5.48364
0
LINE
8
BLACK
6
CONTINUOUS
10
3.79973
20
-5.48364
11
3.79223
21
-5.48739
0
LINE
8
BLACK
6
CONTINUOUS
10
3.79223
20
-5.48739
11
3.78473
21
-5.48739
0
LINE
8
BLACK
6
CONTINUOUS
10
3.78473
20
-5.48739
11
3.77723
21
-5.48364
0
LINE
8
BLACK
6
CONTINUOUS
10
3.77723
20
-5.48364
11
3.77348
21
-5.47989
0
LINE
8
BLACK
6
CONTINUOUS
10
3.77348
20
-5.47989
11
3.76973
21
-5.47239
0
LINE
8
BLACK
6
CONTINUOUS
10
3.76973
20
-5.47239
11
3.76598
21
-5.4574
0
LINE
8
BLACK
6
CONTINUOUS
10
3.76598
20
-5.4574
11
3.76598
21
-5.43865
0
LINE
8
BLACK
6
CONTINUOUS
10
3.76598
20
-5.43865
11
3.76973
21
-5.42365
0
LINE
8
BLACK
6
CONTINUOUS
10
3.76973
20
-5.42365
11
3.77348
21
-5.41615
0
LINE
8
BLACK
6
CONTINUOUS
10
3.77348
20
-5.41615
11
3.77723
21
-5.4124
0
LINE
8
BLACK
6
CONTINUOUS
10
3.77723
20
-5.4124
11
3.78473
21
-5.40865
0
LINE
8
BLACK
6
CONTINUOUS
10
3.84472
20
-5.47989
11
3.84847
21
-5.48364
0
LINE
8
BLACK
6
CONTINUOUS
10
3.84847
20
-5.48364
11
3.84472
21
-5.48739
0
LINE
8
BLACK
6
CONTINUOUS
10
3.84472
20
-5.48739
11
3.84097
21
-5.48364
0
LINE
8
BLACK
6
CONTINUOUS
10
3.84097
20
-5.48364
11
3.84472
21
-5.47989
0
LINE
8
BLACK
6
CONTINUOUS
10
3.84472
20
-5.47989
11
3.84472
21
-5.48739
0
LINE
8
BLACK
6
CONTINUOUS
10
3.89722
20
-5.40865
11
3.90472
21
-5.40865
0
LINE
8
BLACK
6
CONTINUOUS
10
3.90472
20
-5.40865
11
3.91221
21
-5.4124
0
LINE
8
BLACK
6
CONTINUOUS
10
3.91221
20
-5.4124
11
3.91596
21
-5.41615
0
LINE
8
BLACK
6
CONTINUOUS
10
3.91596
20
-5.41615
11
3.91971
21
-5.42365
0
LINE
8
BLACK
6
CONTINUOUS
10
3.91971
20
-5.42365
11
3.92346
21
-5.43865
0
LINE
8
BLACK
6
CONTINUOUS
10
3.92346
20
-5.43865
11
3.92346
21
-5.4574
0
LINE
8
BLACK
6
CONTINUOUS
10
3.92346
20
-5.4574
11
3.91971
21
-5.47239
0
LINE
8
BLACK
6
CONTINUOUS
10
3.91971
20
-5.47239
11
3.91596
21
-5.47989
0
LINE
8
BLACK
6
CONTINUOUS
10
3.91596
20
-5.47989
11
3.91221
21
-5.48364
0
LINE
8
BLACK
6
CONTINUOUS
10
3.91221
20
-5.48364
11
3.90472
21
-5.48739
0
LINE
8
BLACK
6
CONTINUOUS
10
3.90472
20
-5.48739
11
3.89722
21
-5.48739
0
LINE
8
BLACK
6
CONTINUOUS
10
3.89722
20
-5.48739
11
3.88972
21
-5.48364
0
LINE
8
BLACK
6
CONTINUOUS
10
3.88972
20
-5.48364
11
3.88597
21
-5.47989
0
LINE
8
BLACK
6
CONTINUOUS
10
3.88597
20
-5.47989
11
3.88222
21
-5.47239
0
LINE
8
BLACK
6
CONTINUOUS
10
3.88222
20
-5.47239
11
3.87847
21
-5.4574
0
LINE
8
BLACK
6
CONTINUOUS
10
3.87847
20
-5.4574
11
3.87847
21
-5.43865
0
LINE
8
BLACK
6
CONTINUOUS
10
3.87847
20
-5.43865
11
3.88222
21
-5.42365
0
LINE
8
BLACK
6
CONTINUOUS
10
3.88222
20
-5.42365
11
3.88597
21
-5.41615
0
LINE
8
BLACK
6
CONTINUOUS
10
3.88597
20
-5.41615
11
3.88972
21
-5.4124
0
LINE
8
BLACK
6
CONTINUOUS
10
3.88972
20
-5.4124
11
3.89722
21
-5.40865
0
LINE
8
BLACK
6
CONTINUOUS
10
3.94971
20
-5.40865
11
3.99845
21
-5.40865
0
LINE
8
BLACK
6
CONTINUOUS
10
3.99845
20
-5.40865
11
3.97221
21
-5.43865
0
LINE
8
BLACK
6
CONTINUOUS
10
3.97221
20
-5.43865
11
3.98346
21
-5.43865
0
LINE
8
BLACK
6
CONTINUOUS
10
3.98346
20
-5.43865
11
3.99095
21
-5.4424
0
LINE
8
BLACK
6
CONTINUOUS
10
3.99095
20
-5.4424
11
3.9947
21
-5.44615
0
LINE
8
BLACK
6
CONTINUOUS
10
3.9947
20
-5.44615
11
3.99845
21
-5.45365
0
LINE
8
BLACK
6
CONTINUOUS
10
3.99845
20
-5.45365
11
3.99845
21
-5.47239
0
LINE
8
BLACK
6
CONTINUOUS
10
3.99845
20
-5.47239
11
3.9947
21
-5.47989
0
LINE
8
BLACK
6
CONTINUOUS
10
3.9947
20
-5.47989
11
3.99095
21
-5.48364
0
LINE
8
BLACK
6
CONTINUOUS
10
3.99095
20
-5.48364
11
3.98346
21
-5.48739
0
LINE
8
BLACK
6
CONTINUOUS
10
3.98346
20
-5.48739
11
3.96096
21
-5.48739
0
LINE
8
BLACK
6
CONTINUOUS
10
3.96096
20
-5.48739
11
3.95346
21
-5.48364
0
LINE
8
BLACK
6
CONTINUOUS
10
3.95346
20
-5.48364
11
3.94971
21
-5.47989
0
LINE
8
BLACK
6
CONTINUOUS
10
4.0472
20
-5.40865
11
4.0547
21
-5.40865
0
LINE
8
BLACK
6
CONTINUOUS
10
4.0547
20
-5.40865
11
4.0622
21
-5.4124
0
LINE
8
BLACK
6
CONTINUOUS
10
4.0622
20
-5.4124
11
4.06594
21
-5.41615
0
LINE
8
BLACK
6
CONTINUOUS
10
4.06594
20
-5.41615
11
4.06969
21
-5.42365
0
LINE
8
BLACK
6
CONTINUOUS
10
4.06969
20
-5.42365
11
4.07344
21
-5.43865
0
LINE
8
BLACK
6
CONTINUOUS
10
4.07344
20
-5.43865
11
4.07344
21
-5.4574
0
LINE
8
BLACK
6
CONTINUOUS
10
4.07344
20
-5.4574
11
4.06969
21
-5.47239
0
LINE
8
BLACK
6
CONTINUOUS
10
4.06969
20
-5.47239
11
4.06594
21
-5.47989
0
LINE
8
BLACK
6
CONTINUOUS
10
4.06594
20
-5.47989
11
4.0622
21
-5.48364
0
LINE
8
BLACK
6
CONTINUOUS
10
4.0622
20
-5.48364
11
4.0547
21
-5.48739
0
LINE
8
BLACK
6
CONTINUOUS
10
4.0547
20
-5.48739
11
4.0472
21
-5.48739
0
LINE
8
BLACK
6
CONTINUOUS
10
4.0472
20
-5.48739
11
4.0397
21
-5.48364
0
LINE
8
BLACK
6
CONTINUOUS
10
4.0397
20
-5.48364
11
4.03595
21
-5.47989
0
LINE
8
BLACK
6
CONTINUOUS
10
4.03595
20
-5.47989
11
4.0322
21
-5.47239
0
LINE
8
BLACK
6
CONTINUOUS
10
4.0322
20
-5.47239
11
4.02845
21
-5.4574
0
LINE
8
BLACK
6
CONTINUOUS
10
4.02845
20
-5.4574
11
4.02845
21
-5.43865
0
LINE
8
BLACK
6
CONTINUOUS
10
4.02845
20
-5.43865
11
4.0322
21
-5.42365
0
LINE
8
BLACK
6
CONTINUOUS
10
4.0322
20
-5.42365
11
4.03595
21
-5.41615
0
LINE
8
BLACK
6
CONTINUOUS
10
4.03595
20
-5.41615
11
4.0397
21
-5.4124
0
LINE
8
BLACK
6
CONTINUOUS
10
4.0397
20
-5.4124
11
4.0472
21
-5.40865
0
LINE
8
BLACK
6
CONTINUOUS
10
4.12219
20
-5.40865
11
4.12969
21
-5.40865
0
LINE
8
BLACK
6
CONTINUOUS
10
4.12969
20
-5.40865
11
4.13719
21
-5.4124
0
LINE
8
BLACK
6
CONTINUOUS
10
4.13719
20
-5.4124
11
4.14094
21
-5.41615
0
LINE
8
BLACK
6
CONTINUOUS
10
4.14094
20
-5.41615
11
4.14469
21
-5.42365
0
LINE
8
BLACK
6
CONTINUOUS
10
4.14469
20
-5.42365
11
4.14843
21
-5.43865
0
LINE
8
BLACK
6
CONTINUOUS
10
4.14843
20
-5.43865
11
4.14843
21
-5.4574
0
LINE
8
BLACK
6
CONTINUOUS
10
4.14843
20
-5.4574
11
4.14469
21
-5.47239
0
LINE
8
BLACK
6
CONTINUOUS
10
4.14469
20
-5.47239
11
4.14094
21
-5.47989
0
LINE
8
BLACK
6
CONTINUOUS
10
4.14094
20
-5.47989
11
4.13719
21
-5.48364
0
LINE
8
BLACK
6
CONTINUOUS
10
4.13719
20
-5.48364
11
4.12969
21
-5.48739
0
LINE
8
BLACK
6
CONTINUOUS
10
4.12969
20
-5.48739
11
4.12219
21
-5.48739
0
LINE
8
BLACK
6
CONTINUOUS
10
4.12219
20
-5.48739
11
4.11469
21
-5.48364
0
LINE
8
BLACK
6
CONTINUOUS
10
4.11469
20
-5.48364
11
4.11094
21
-5.47989
0
LINE
8
BLACK
6
CONTINUOUS
10
4.11094
20
-5.47989
11
4.10719
21
-5.47239
0
LINE
8
BLACK
6
CONTINUOUS
10
4.10719
20
-5.47239
11
4.10344
21
-5.4574
0
LINE
8
BLACK
6
CONTINUOUS
10
4.10344
20
-5.4574
11
4.10344
21
-5.43865
0
LINE
8
BLACK
6
CONTINUOUS
10
4.10344
20
-5.43865
11
4.10719
21
-5.42365
0
LINE
8
BLACK
6
CONTINUOUS
10
4.10719
20
-5.42365
11
4.11094
21
-5.41615
0
LINE
8
BLACK
6
CONTINUOUS
10
4.11094
20
-5.41615
11
4.11469
21
-5.4124
0
LINE
8
BLACK
6
CONTINUOUS
10
4.11469
20
-5.4124
11
4.12219
21
-5.40865
0
LINE
8
BLACK
6
CONTINUOUS
10
4.17843
20
-5.40865
11
4.17843
21
-5.42365
0
LINE
8
BLACK
6
CONTINUOUS
10
4.20843
20
-5.40865
11
4.20843
21
-5.42365
0
LINE
8
BLACK
6
CONTINUOUS
10
4.31191
20
-5.51739
11
4.30816
21
-5.51364
0
LINE
8
BLACK
6
CONTINUOUS
10
4.30816
20
-5.51364
11
4.30067
21
-5.50239
0
LINE
8
BLACK
6
CONTINUOUS
10
4.30067
20
-5.50239
11
4.29692
21
-5.49489
0
LINE
8
BLACK
6
CONTINUOUS
10
4.29692
20
-5.49489
11
4.29317
21
-5.48364
0
LINE
8
BLACK
6
CONTINUOUS
10
4.29317
20
-5.48364
11
4.28942
21
-5.4649
0
LINE
8
BLACK
6
CONTINUOUS
10
4.28942
20
-5.4649
11
4.28942
21
-5.4499
0
LINE
8
BLACK
6
CONTINUOUS
10
4.28942
20
-5.4499
11
4.29317
21
-5.43115
0
LINE
8
BLACK
6
CONTINUOUS
10
4.29317
20
-5.43115
11
4.29692
21
-5.4199
0
LINE
8
BLACK
6
CONTINUOUS
10
4.29692
20
-5.4199
11
4.30067
21
-5.4124
0
LINE
8
BLACK
6
CONTINUOUS
10
4.30067
20
-5.4124
11
4.30816
21
-5.40115
0
LINE
8
BLACK
6
CONTINUOUS
10
4.30816
20
-5.40115
11
4.31191
21
-5.3974
0
LINE
8
BLACK
6
CONTINUOUS
10
4.37566
20
-5.4349
11
4.37566
21
-5.48739
0
LINE
8
BLACK
6
CONTINUOUS
10
4.35691
20
-5.4049
11
4.33816
21
-5.46115
0
LINE
8
BLACK
6
CONTINUOUS
10
4.33816
20
-5.46115
11
4.3869
21
-5.46115
0
LINE
8
BLACK
6
CONTINUOUS
10
4.42815
20
-5.4424
11
4.42065
21
-5.43865
0
LINE
8
BLACK
6
CONTINUOUS
10
4.42065
20
-5.43865
11
4.4169
21
-5.4349
0
LINE
8
BLACK
6
CONTINUOUS
10
4.4169
20
-5.4349
11
4.41315
21
-5.4274
0
LINE
8
BLACK
6
CONTINUOUS
10
4.41315
20
-5.4274
11
4.41315
21
-5.42365
0
LINE
8
BLACK
6
CONTINUOUS
10
4.41315
20
-5.42365
11
4.4169
21
-5.41615
0
LINE
8
BLACK
6
CONTINUOUS
10
4.4169
20
-5.41615
11
4.42065
21
-5.4124
0
LINE
8
BLACK
6
CONTINUOUS
10
4.42065
20
-5.4124
11
4.42815
21
-5.40865
0
LINE
8
BLACK
6
CONTINUOUS
10
4.42815
20
-5.40865
11
4.44315
21
-5.40865
0
LINE
8
BLACK
6
CONTINUOUS
10
4.44315
20
-5.40865
11
4.45065
21
-5.4124
0
LINE
8
BLACK
6
CONTINUOUS
10
4.45065
20
-5.4124
11
4.4544
21
-5.41615
0
LINE
8
BLACK
6
CONTINUOUS
10
4.4544
20
-5.41615
11
4.45815
21
-5.42365
0
LINE
8
BLACK
6
CONTINUOUS
10
4.45815
20
-5.42365
11
4.45815
21
-5.4274
0
LINE
8
BLACK
6
CONTINUOUS
10
4.45815
20
-5.4274
11
4.4544
21
-5.4349
0
LINE
8
BLACK
6
CONTINUOUS
10
4.4544
20
-5.4349
11
4.45065
21
-5.43865
0
LINE
8
BLACK
6
CONTINUOUS
10
4.45065
20
-5.43865
11
4.44315
21
-5.4424
0
LINE
8
BLACK
6
CONTINUOUS
10
4.44315
20
-5.4424
11
4.42815
21
-5.4424
0
LINE
8
BLACK
6
CONTINUOUS
10
4.42815
20
-5.4424
11
4.42065
21
-5.44615
0
LINE
8
BLACK
6
CONTINUOUS
10
4.42065
20
-5.44615
11
4.4169
21
-5.4499
0
LINE
8
BLACK
6
CONTINUOUS
10
4.4169
20
-5.4499
11
4.41315
21
-5.4574
0
LINE
8
BLACK
6
CONTINUOUS
10
4.41315
20
-5.4574
11
4.41315
21
-5.47239
0
LINE
8
BLACK
6
CONTINUOUS
10
4.41315
20
-5.47239
11
4.4169
21
-5.47989
0
LINE
8
BLACK
6
CONTINUOUS
10
4.4169
20
-5.47989
11
4.42065
21
-5.48364
0
LINE
8
BLACK
6
CONTINUOUS
10
4.42065
20
-5.48364
11
4.42815
21
-5.48739
0
LINE
8
BLACK
6
CONTINUOUS
10
4.42815
20
-5.48739
11
4.44315
21
-5.48739
0
LINE
8
BLACK
6
CONTINUOUS
10
4.44315
20
-5.48739
11
4.45065
21
-5.48364
0
LINE
8
BLACK
6
CONTINUOUS
10
4.45065
20
-5.48364
11
4.4544
21
-5.47989
0
LINE
8
BLACK
6
CONTINUOUS
10
4.4544
20
-5.47989
11
4.45815
21
-5.47239
0
LINE
8
BLACK
6
CONTINUOUS
10
4.45815
20
-5.47239
11
4.45815
21
-5.4574
0
LINE
8
BLACK
6
CONTINUOUS
10
4.45815
20
-5.4574
11
4.4544
21
-5.4499
0
LINE
8
BLACK
6
CONTINUOUS
10
4.4544
20
-5.4499
11
4.45065
21
-5.44615
0
LINE
8
BLACK
6
CONTINUOUS
10
4.45065
20
-5.44615
11
4.44315
21
-5.4424
0
LINE
8
BLACK
6
CONTINUOUS
10
4.53914
20
-5.48739
11
4.53914
21
-5.40865
0
LINE
8
BLACK
6
CONTINUOUS
10
4.57288
20
-5.48739
11
4.57288
21
-5.44615
0
LINE
8
BLACK
6
CONTINUOUS
10
4.57288
20
-5.44615
11
4.56913
21
-5.43865
0
LINE
8
BLACK
6
CONTINUOUS
10
4.56913
20
-5.43865
11
4.56163
21
-5.4349
0
LINE
8
BLACK
6
CONTINUOUS
10
4.56163
20
-5.4349
11
4.55038
21
-5.4349
0
LINE
8
BLACK
6
CONTINUOUS
10
4.55038
20
-5.4349
11
4.54289
21
-5.43865
0
LINE
8
BLACK
6
CONTINUOUS
10
4.54289
20
-5.43865
11
4.53914
21
-5.4424
0
LINE
8
BLACK
6
CONTINUOUS
10
4.62163
20
-5.48739
11
4.61413
21
-5.48364
0
LINE
8
BLACK
6
CONTINUOUS
10
4.61413
20
-5.48364
11
4.61038
21
-5.47989
0
LINE
8
BLACK
6
CONTINUOUS
10
4.61038
20
-5.47989
11
4.60663
21
-5.47239
0
LINE
8
BLACK
6
CONTINUOUS
10
4.60663
20
-5.47239
11
4.60663
21
-5.4499
0
LINE
8
BLACK
6
CONTINUOUS
10
4.60663
20
-5.4499
11
4.61038
21
-5.4424
0
LINE
8
BLACK
6
CONTINUOUS
10
4.61038
20
-5.4424
11
4.61413
21
-5.43865
0
LINE
8
BLACK
6
CONTINUOUS
10
4.61413
20
-5.43865
11
4.62163
21
-5.4349
0
LINE
8
BLACK
6
CONTINUOUS
10
4.62163
20
-5.4349
11
4.63287
21
-5.4349
0
LINE
8
BLACK
6
CONTINUOUS
10
4.63287
20
-5.4349
11
4.64037
21
-5.43865
0
LINE
8
BLACK
6
CONTINUOUS
10
4.64037
20
-5.43865
11
4.64412
21
-5.4424
0
LINE
8
BLACK
6
CONTINUOUS
10
4.64412
20
-5.4424
11
4.64787
21
-5.4499
0
LINE
8
BLACK
6
CONTINUOUS
10
4.64787
20
-5.4499
11
4.64787
21
-5.47239
0
LINE
8
BLACK
6
CONTINUOUS
10
4.64787
20
-5.47239
11
4.64412
21
-5.47989
0
LINE
8
BLACK
6
CONTINUOUS
10
4.64412
20
-5.47989
11
4.64037
21
-5.48364
0
LINE
8
BLACK
6
CONTINUOUS
10
4.64037
20
-5.48364
11
4.63287
21
-5.48739
0
LINE
8
BLACK
6
CONTINUOUS
10
4.63287
20
-5.48739
11
4.62163
21
-5.48739
0
LINE
8
BLACK
6
CONTINUOUS
10
4.69287
20
-5.48739
11
4.68537
21
-5.48364
0
LINE
8
BLACK
6
CONTINUOUS
10
4.68537
20
-5.48364
11
4.68162
21
-5.47614
0
LINE
8
BLACK
6
CONTINUOUS
10
4.68162
20
-5.47614
11
4.68162
21
-5.40865
0
LINE
8
BLACK
6
CONTINUOUS
10
4.75286
20
-5.48364
11
4.74536
21
-5.48739
0
LINE
8
BLACK
6
CONTINUOUS
10
4.74536
20
-5.48739
11
4.73036
21
-5.48739
0
LINE
8
BLACK
6
CONTINUOUS
10
4.73036
20
-5.48739
11
4.72286
21
-5.48364
0
LINE
8
BLACK
6
CONTINUOUS
10
4.72286
20
-5.48364
11
4.71911
21
-5.47614
0
LINE
8
BLACK
6
CONTINUOUS
10
4.71911
20
-5.47614
11
4.71911
21
-5.44615
0
LINE
8
BLACK
6
CONTINUOUS
10
4.71911
20
-5.44615
11
4.72286
21
-5.43865
0
LINE
8
BLACK
6
CONTINUOUS
10
4.72286
20
-5.43865
11
4.73036
21
-5.4349
0
LINE
8
BLACK
6
CONTINUOUS
10
4.73036
20
-5.4349
11
4.74536
21
-5.4349
0
LINE
8
BLACK
6
CONTINUOUS
10
4.74536
20
-5.4349
11
4.75286
21
-5.43865
0
LINE
8
BLACK
6
CONTINUOUS
10
4.75286
20
-5.43865
11
4.75661
21
-5.44615
0
LINE
8
BLACK
6
CONTINUOUS
10
4.75661
20
-5.44615
11
4.75661
21
-5.45365
0
LINE
8
BLACK
6
CONTINUOUS
10
4.75661
20
-5.45365
11
4.71911
21
-5.46115
0
LINE
8
BLACK
6
CONTINUOUS
10
4.7866
20
-5.48364
11
4.7941
21
-5.48739
0
LINE
8
BLACK
6
CONTINUOUS
10
4.7941
20
-5.48739
11
4.8091
21
-5.48739
0
LINE
8
BLACK
6
CONTINUOUS
10
4.8091
20
-5.48739
11
4.8166
21
-5.48364
0
LINE
8
BLACK
6
CONTINUOUS
10
4.8166
20
-5.48364
11
4.82035
21
-5.47614
0
LINE
8
BLACK
6
CONTINUOUS
10
4.82035
20
-5.47614
11
4.82035
21
-5.47239
0
LINE
8
BLACK
6
CONTINUOUS
10
4.82035
20
-5.47239
11
4.8166
21
-5.4649
0
LINE
8
BLACK
6
CONTINUOUS
10
4.8166
20
-5.4649
11
4.8091
21
-5.46115
0
LINE
8
BLACK
6
CONTINUOUS
10
4.8091
20
-5.46115
11
4.79785
21
-5.46115
0
LINE
8
BLACK
6
CONTINUOUS
10
4.79785
20
-5.46115
11
4.79035
21
-5.4574
0
LINE
8
BLACK
6
CONTINUOUS
10
4.79035
20
-5.4574
11
4.7866
21
-5.4499
0
LINE
8
BLACK
6
CONTINUOUS
10
4.7866
20
-5.4499
11
4.7866
21
-5.44615
0
LINE
8
BLACK
6
CONTINUOUS
10
4.7866
20
-5.44615
11
4.79035
21
-5.43865
0
LINE
8
BLACK
6
CONTINUOUS
10
4.79035
20
-5.43865
11
4.79785
21
-5.4349
0
LINE
8
BLACK
6
CONTINUOUS
10
4.79785
20
-5.4349
11
4.8091
21
-5.4349
0
LINE
8
BLACK
6
CONTINUOUS
10
4.8091
20
-5.4349
11
4.8166
21
-5.43865
0
LINE
8
BLACK
6
CONTINUOUS
10
4.8466
20
-5.51739
11
4.85035
21
-5.51364
0
LINE
8
BLACK
6
CONTINUOUS
10
4.85035
20
-5.51364
11
4.85785
21
-5.50239
0
LINE
8
BLACK
6
CONTINUOUS
10
4.85785
20
-5.50239
11
4.8616
21
-5.49489
0
LINE
8
BLACK
6
CONTINUOUS
10
4.8616
20
-5.49489
11
4.86535
21
-5.48364
0
LINE
8
BLACK
6
CONTINUOUS
10
4.86535
20
-5.48364
11
4.86909
21
-5.4649
0
LINE
8
BLACK
6
CONTINUOUS
10
4.86909
20
-5.4649
11
4.86909
21
-5.4499
0
LINE
8
BLACK
6
CONTINUOUS
10
4.86909
20
-5.4499
11
4.86535
21
-5.43115
0
LINE
8
BLACK
6
CONTINUOUS
10
4.86535
20
-5.43115
11
4.8616
21
-5.4199
0
LINE
8
BLACK
6
CONTINUOUS
10
4.8616
20
-5.4199
11
4.85785
21
-5.4124
0
LINE
8
BLACK
6
CONTINUOUS
10
4.85785
20
-5.4124
11
4.85035
21
-5.40115
0
LINE
8
BLACK
6
CONTINUOUS
10
4.85035
20
-5.40115
11
4.8466
21
-5.3974
0
LINE
8
BLACK
6
CONTINUOUS
10
2.93209
20
-5.57815
11
2.94783
21
-5.5624
0
LINE
8
BLACK
6
CONTINUOUS
10
2.94783
20
-5.5624
11
2.93209
21
-5.54665
0
LINE
8
BLACK
6
CONTINUOUS
10
2.93209
20
-5.54665
11
2.91634
21
-5.5624
0
LINE
8
BLACK
6
CONTINUOUS
10
2.91634
20
-5.5624
11
2.93209
21
-5.57815
0
LINE
8
BLACK
6
CONTINUOUS
10
3.06032
20
-5.51259
11
3.06782
21
-5.51259
0
LINE
8
BLACK
6
CONTINUOUS
10
3.06782
20
-5.51259
11
3.07532
21
-5.51634
0
LINE
8
BLACK
6
CONTINUOUS
10
3.07532
20
-5.51634
11
3.07907
21
-5.52009
0
LINE
8
BLACK
6
CONTINUOUS
10
3.07907
20
-5.52009
11
3.08282
21
-5.52759
0
LINE
8
BLACK
6
CONTINUOUS
10
3.08282
20
-5.52759
11
3.08657
21
-5.54259
0
LINE
8
BLACK
6
CONTINUOUS
10
3.08657
20
-5.54259
11
3.08657
21
-5.56133
0
LINE
8
BLACK
6
CONTINUOUS
10
3.08657
20
-5.56133
11
3.08282
21
-5.57633
0
LINE
8
BLACK
6
CONTINUOUS
10
3.08282
20
-5.57633
11
3.07907
21
-5.58383
0
LINE
8
BLACK
6
CONTINUOUS
10
3.07907
20
-5.58383
11
3.07532
21
-5.58758
0
LINE
8
BLACK
6
CONTINUOUS
10
3.07532
20
-5.58758
11
3.06782
21
-5.59133
0
LINE
8
BLACK
6
CONTINUOUS
10
3.06782
20
-5.59133
11
3.06032
21
-5.59133
0
LINE
8
BLACK
6
CONTINUOUS
10
3.06032
20
-5.59133
11
3.05282
21
-5.58758
0
LINE
8
BLACK
6
CONTINUOUS
10
3.05282
20
-5.58758
11
3.04907
21
-5.58383
0
LINE
8
BLACK
6
CONTINUOUS
10
3.04907
20
-5.58383
11
3.04532
21
-5.57633
0
LINE
8
BLACK
6
CONTINUOUS
10
3.04532
20
-5.57633
11
3.04157
21
-5.56133
0
LINE
8
BLACK
6
CONTINUOUS
10
3.04157
20
-5.56133
11
3.04157
21
-5.54259
0
LINE
8
BLACK
6
CONTINUOUS
10
3.04157
20
-5.54259
11
3.04532
21
-5.52759
0
LINE
8
BLACK
6
CONTINUOUS
10
3.04532
20
-5.52759
11
3.04907
21
-5.52009
0
LINE
8
BLACK
6
CONTINUOUS
10
3.04907
20
-5.52009
11
3.05282
21
-5.51634
0
LINE
8
BLACK
6
CONTINUOUS
10
3.05282
20
-5.51634
11
3.06032
21
-5.51259
0
LINE
8
BLACK
6
CONTINUOUS
10
3.12031
20
-5.58383
11
3.12406
21
-5.58758
0
LINE
8
BLACK
6
CONTINUOUS
10
3.12406
20
-5.58758
11
3.12031
21
-5.59133
0
LINE
8
BLACK
6
CONTINUOUS
10
3.12031
20
-5.59133
11
3.11656
21
-5.58758
0
LINE
8
BLACK
6
CONTINUOUS
10
3.11656
20
-5.58758
11
3.12031
21
-5.58383
0
LINE
8
BLACK
6
CONTINUOUS
10
3.12031
20
-5.58383
11
3.12031
21
-5.59133
0
LINE
8
BLACK
6
CONTINUOUS
10
3.16906
20
-5.54633
11
3.16156
21
-5.54259
0
LINE
8
BLACK
6
CONTINUOUS
10
3.16156
20
-5.54259
11
3.15781
21
-5.53884
0
LINE
8
BLACK
6
CONTINUOUS
10
3.15781
20
-5.53884
11
3.15406
21
-5.53134
0
LINE
8
BLACK
6
CONTINUOUS
10
3.15406
20
-5.53134
11
3.15406
21
-5.52759
0
LINE
8
BLACK
6
CONTINUOUS
10
3.15406
20
-5.52759
11
3.15781
21
-5.52009
0
LINE
8
BLACK
6
CONTINUOUS
10
3.15781
20
-5.52009
11
3.16156
21
-5.51634
0
LINE
8
BLACK
6
CONTINUOUS
10
3.16156
20
-5.51634
11
3.16906
21
-5.51259
0
LINE
8
BLACK
6
CONTINUOUS
10
3.16906
20
-5.51259
11
3.18406
21
-5.51259
0
LINE
8
BLACK
6
CONTINUOUS
10
3.18406
20
-5.51259
11
3.19155
21
-5.51634
0
LINE
8
BLACK
6
CONTINUOUS
10
3.19155
20
-5.51634
11
3.1953
21
-5.52009
0
LINE
8
BLACK
6
CONTINUOUS
10
3.1953
20
-5.52009
11
3.19905
21
-5.52759
0
LINE
8
BLACK
6
CONTINUOUS
10
3.19905
20
-5.52759
11
3.19905
21
-5.53134
0
LINE
8
BLACK
6
CONTINUOUS
10
3.19905
20
-5.53134
11
3.1953
21
-5.53884
0
LINE
8
BLACK
6
CONTINUOUS
10
3.1953
20
-5.53884
11
3.19155
21
-5.54259
0
LINE
8
BLACK
6
CONTINUOUS
10
3.19155
20
-5.54259
11
3.18406
21
-5.54633
0
LINE
8
BLACK
6
CONTINUOUS
10
3.18406
20
-5.54633
11
3.16906
21
-5.54633
0
LINE
8
BLACK
6
CONTINUOUS
10
3.16906
20
-5.54633
11
3.16156
21
-5.55008
0
LINE
8
BLACK
6
CONTINUOUS
10
3.16156
20
-5.55008
11
3.15781
21
-5.55383
0
LINE
8
BLACK
6
CONTINUOUS
10
3.15781
20
-5.55383
11
3.15406
21
-5.56133
0
LINE
8
BLACK
6
CONTINUOUS
10
3.15406
20
-5.56133
11
3.15406
21
-5.57633
0
LINE
8
BLACK
6
CONTINUOUS
10
3.15406
20
-5.57633
11
3.15781
21
-5.58383
0
LINE
8
BLACK
6
CONTINUOUS
10
3.15781
20
-5.58383
11
3.16156
21
-5.58758
0
LINE
8
BLACK
6
CONTINUOUS
10
3.16156
20
-5.58758
11
3.16906
21
-5.59133
0
LINE
8
BLACK
6
CONTINUOUS
10
3.16906
20
-5.59133
11
3.18406
21
-5.59133
0
LINE
8
BLACK
6
CONTINUOUS
10
3.18406
20
-5.59133
11
3.19155
21
-5.58758
0
LINE
8
BLACK
6
CONTINUOUS
10
3.19155
20
-5.58758
11
3.1953
21
-5.58383
0
LINE
8
BLACK
6
CONTINUOUS
10
3.1953
20
-5.58383
11
3.19905
21
-5.57633
0
LINE
8
BLACK
6
CONTINUOUS
10
3.19905
20
-5.57633
11
3.19905
21
-5.56133
0
LINE
8
BLACK
6
CONTINUOUS
10
3.19905
20
-5.56133
11
3.1953
21
-5.55383
0
LINE
8
BLACK
6
CONTINUOUS
10
3.1953
20
-5.55383
11
3.19155
21
-5.55008
0
LINE
8
BLACK
6
CONTINUOUS
10
3.19155
20
-5.55008
11
3.18406
21
-5.54633
0
LINE
8
BLACK
6
CONTINUOUS
10
3.2478
20
-5.51259
11
3.2553
21
-5.51259
0
LINE
8
BLACK
6
CONTINUOUS
10
3.2553
20
-5.51259
11
3.2628
21
-5.51634
0
LINE
8
BLACK
6
CONTINUOUS
10
3.2628
20
-5.51634
11
3.26654
21
-5.52009
0
LINE
8
BLACK
6
CONTINUOUS
10
3.26654
20
-5.52009
11
3.27029
21
-5.52759
0
LINE
8
BLACK
6
CONTINUOUS
10
3.27029
20
-5.52759
11
3.27404
21
-5.54259
0
LINE
8
BLACK
6
CONTINUOUS
10
3.27404
20
-5.54259
11
3.27404
21
-5.56133
0
LINE
8
BLACK
6
CONTINUOUS
10
3.27404
20
-5.56133
11
3.27029
21
-5.57633
0
LINE
8
BLACK
6
CONTINUOUS
10
3.27029
20
-5.57633
11
3.26654
21
-5.58383
0
LINE
8
BLACK
6
CONTINUOUS
10
3.26654
20
-5.58383
11
3.2628
21
-5.58758
0
LINE
8
BLACK
6
CONTINUOUS
10
3.2628
20
-5.58758
11
3.2553
21
-5.59133
0
LINE
8
BLACK
6
CONTINUOUS
10
3.2553
20
-5.59133
11
3.2478
21
-5.59133
0
LINE
8
BLACK
6
CONTINUOUS
10
3.2478
20
-5.59133
11
3.2403
21
-5.58758
0
LINE
8
BLACK
6
CONTINUOUS
10
3.2403
20
-5.58758
11
3.23655
21
-5.58383
0
LINE
8
BLACK
6
CONTINUOUS
10
3.23655
20
-5.58383
11
3.2328
21
-5.57633
0
LINE
8
BLACK
6
CONTINUOUS
10
3.2328
20
-5.57633
11
3.22905
21
-5.56133
0
LINE
8
BLACK
6
CONTINUOUS
10
3.22905
20
-5.56133
11
3.22905
21
-5.54259
0
LINE
8
BLACK
6
CONTINUOUS
10
3.22905
20
-5.54259
11
3.2328
21
-5.52759
0
LINE
8
BLACK
6
CONTINUOUS
10
3.2328
20
-5.52759
11
3.23655
21
-5.52009
0
LINE
8
BLACK
6
CONTINUOUS
10
3.23655
20
-5.52009
11
3.2403
21
-5.51634
0
LINE
8
BLACK
6
CONTINUOUS
10
3.2403
20
-5.51634
11
3.2478
21
-5.51259
0
LINE
8
BLACK
6
CONTINUOUS
10
3.32279
20
-5.51259
11
3.33029
21
-5.51259
0
LINE
8
BLACK
6
CONTINUOUS
10
3.33029
20
-5.51259
11
3.33779
21
-5.51634
0
LINE
8
BLACK
6
CONTINUOUS
10
3.33779
20
-5.51634
11
3.34154
21
-5.52009
0
LINE
8
BLACK
6
CONTINUOUS
10
3.34154
20
-5.52009
11
3.34528
21
-5.52759
0
LINE
8
BLACK
6
CONTINUOUS
10
3.34528
20
-5.52759
11
3.34903
21
-5.54259
0
LINE
8
BLACK
6
CONTINUOUS
10
3.34903
20
-5.54259
11
3.34903
21
-5.56133
0
LINE
8
BLACK
6
CONTINUOUS
10
3.34903
20
-5.56133
11
3.34528
21
-5.57633
0
LINE
8
BLACK
6
CONTINUOUS
10
3.34528
20
-5.57633
11
3.34154
21
-5.58383
0
LINE
8
BLACK
6
CONTINUOUS
10
3.34154
20
-5.58383
11
3.33779
21
-5.58758
0
LINE
8
BLACK
6
CONTINUOUS
10
3.33779
20
-5.58758
11
3.33029
21
-5.59133
0
LINE
8
BLACK
6
CONTINUOUS
10
3.33029
20
-5.59133
11
3.32279
21
-5.59133
0
LINE
8
BLACK
6
CONTINUOUS
10
3.32279
20
-5.59133
11
3.31529
21
-5.58758
0
LINE
8
BLACK
6
CONTINUOUS
10
3.31529
20
-5.58758
11
3.31154
21
-5.58383
0
LINE
8
BLACK
6
CONTINUOUS
10
3.31154
20
-5.58383
11
3.30779
21
-5.57633
0
LINE
8
BLACK
6
CONTINUOUS
10
3.30779
20
-5.57633
11
3.30404
21
-5.56133
0
LINE
8
BLACK
6
CONTINUOUS
10
3.30404
20
-5.56133
11
3.30404
21
-5.54259
0
LINE
8
BLACK
6
CONTINUOUS
10
3.30404
20
-5.54259
11
3.30779
21
-5.52759
0
LINE
8
BLACK
6
CONTINUOUS
10
3.30779
20
-5.52759
11
3.31154
21
-5.52009
0
LINE
8
BLACK
6
CONTINUOUS
10
3.31154
20
-5.52009
11
3.31529
21
-5.51634
0
LINE
8
BLACK
6
CONTINUOUS
10
3.31529
20
-5.51634
11
3.32279
21
-5.51259
0
LINE
8
BLACK
6
CONTINUOUS
10
3.38278
20
-5.59133
11
3.38278
21
-5.53884
0
LINE
8
BLACK
6
CONTINUOUS
10
3.38278
20
-5.54633
11
3.38653
21
-5.54259
0
LINE
8
BLACK
6
CONTINUOUS
10
3.38653
20
-5.54259
11
3.39403
21
-5.53884
0
LINE
8
BLACK
6
CONTINUOUS
10
3.39403
20
-5.53884
11
3.40528
21
-5.53884
0
LINE
8
BLACK
6
CONTINUOUS
10
3.40528
20
-5.53884
11
3.41278
21
-5.54259
0
LINE
8
BLACK
6
CONTINUOUS
10
3.41278
20
-5.54259
11
3.41653
21
-5.55008
0
LINE
8
BLACK
6
CONTINUOUS
10
3.41653
20
-5.55008
11
3.41653
21
-5.59133
0
LINE
8
BLACK
6
CONTINUOUS
10
3.41653
20
-5.55008
11
3.42028
21
-5.54259
0
LINE
8
BLACK
6
CONTINUOUS
10
3.42028
20
-5.54259
11
3.42777
21
-5.53884
0
LINE
8
BLACK
6
CONTINUOUS
10
3.42777
20
-5.53884
11
3.43902
21
-5.53884
0
LINE
8
BLACK
6
CONTINUOUS
10
3.43902
20
-5.53884
11
3.44652
21
-5.54259
0
LINE
8
BLACK
6
CONTINUOUS
10
3.44652
20
-5.54259
11
3.45027
21
-5.55008
0
LINE
8
BLACK
6
CONTINUOUS
10
3.45027
20
-5.55008
11
3.45027
21
-5.59133
0
LINE
8
BLACK
6
CONTINUOUS
10
3.48777
20
-5.59133
11
3.48777
21
-5.53884
0
LINE
8
BLACK
6
CONTINUOUS
10
3.48777
20
-5.54633
11
3.49152
21
-5.54259
0
LINE
8
BLACK
6
CONTINUOUS
10
3.49152
20
-5.54259
11
3.49902
21
-5.53884
0
LINE
8
BLACK
6
CONTINUOUS
10
3.49902
20
-5.53884
11
3.51026
21
-5.53884
0
LINE
8
BLACK
6
CONTINUOUS
10
3.51026
20
-5.53884
11
3.51776
21
-5.54259
0
LINE
8
BLACK
6
CONTINUOUS
10
3.51776
20
-5.54259
11
3.52151
21
-5.55008
0
LINE
8
BLACK
6
CONTINUOUS
10
3.52151
20
-5.55008
11
3.52151
21
-5.59133
0
LINE
8
BLACK
6
CONTINUOUS
10
3.52151
20
-5.55008
11
3.52526
21
-5.54259
0
LINE
8
BLACK
6
CONTINUOUS
10
3.52526
20
-5.54259
11
3.53276
21
-5.53884
0
LINE
8
BLACK
6
CONTINUOUS
10
3.53276
20
-5.53884
11
3.54401
21
-5.53884
0
LINE
8
BLACK
6
CONTINUOUS
10
3.54401
20
-5.53884
11
3.55151
21
-5.54259
0
LINE
8
BLACK
6
CONTINUOUS
10
3.55151
20
-5.54259
11
3.55526
21
-5.55008
0
LINE
8
BLACK
6
CONTINUOUS
10
3.55526
20
-5.55008
11
3.55526
21
-5.59133
0
LINE
8
BLACK
6
CONTINUOUS
10
3.69624
20
-5.50884
11
3.62875
21
-5.61008
0
LINE
8
BLACK
6
CONTINUOUS
10
3.78473
20
-5.51259
11
3.79223
21
-5.51259
0
LINE
8
BLACK
6
CONTINUOUS
10
3.79223
20
-5.51259
11
3.79973
21
-5.51634
0
LINE
8
BLACK
6
CONTINUOUS
10
3.79973
20
-5.51634
11
3.80348
21
-5.52009
0
LINE
8
BLACK
6
CONTINUOUS
10
3.80348
20
-5.52009
11
3.80723
21
-5.52759
0
LINE
8
BLACK
6
CONTINUOUS
10
3.80723
20
-5.52759
11
3.81098
21
-5.54259
0
LINE
8
BLACK
6
CONTINUOUS
10
3.81098
20
-5.54259
11
3.81098
21
-5.56133
0
LINE
8
BLACK
6
CONTINUOUS
10
3.81098
20
-5.56133
11
3.80723
21
-5.57633
0
LINE
8
BLACK
6
CONTINUOUS
10
3.80723
20
-5.57633
11
3.80348
21
-5.58383
0
LINE
8
BLACK
6
CONTINUOUS
10
3.80348
20
-5.58383
11
3.79973
21
-5.58758
0
LINE
8
BLACK
6
CONTINUOUS
10
3.79973
20
-5.58758
11
3.79223
21
-5.59133
0
LINE
8
BLACK
6
CONTINUOUS
10
3.79223
20
-5.59133
11
3.78473
21
-5.59133
0
LINE
8
BLACK
6
CONTINUOUS
10
3.78473
20
-5.59133
11
3.77723
21
-5.58758
0
LINE
8
BLACK
6
CONTINUOUS
10
3.77723
20
-5.58758
11
3.77348
21
-5.58383
0
LINE
8
BLACK
6
CONTINUOUS
10
3.77348
20
-5.58383
11
3.76973
21
-5.57633
0
LINE
8
BLACK
6
CONTINUOUS
10
3.76973
20
-5.57633
11
3.76598
21
-5.56133
0
LINE
8
BLACK
6
CONTINUOUS
10
3.76598
20
-5.56133
11
3.76598
21
-5.54259
0
LINE
8
BLACK
6
CONTINUOUS
10
3.76598
20
-5.54259
11
3.76973
21
-5.52759
0
LINE
8
BLACK
6
CONTINUOUS
10
3.76973
20
-5.52759
11
3.77348
21
-5.52009
0
LINE
8
BLACK
6
CONTINUOUS
10
3.77348
20
-5.52009
11
3.77723
21
-5.51634
0
LINE
8
BLACK
6
CONTINUOUS
10
3.77723
20
-5.51634
11
3.78473
21
-5.51259
0
LINE
8
BLACK
6
CONTINUOUS
10
3.84472
20
-5.58383
11
3.84847
21
-5.58758
0
LINE
8
BLACK
6
CONTINUOUS
10
3.84847
20
-5.58758
11
3.84472
21
-5.59133
0
LINE
8
BLACK
6
CONTINUOUS
10
3.84472
20
-5.59133
11
3.84097
21
-5.58758
0
LINE
8
BLACK
6
CONTINUOUS
10
3.84097
20
-5.58758
11
3.84472
21
-5.58383
0
LINE
8
BLACK
6
CONTINUOUS
10
3.84472
20
-5.58383
11
3.84472
21
-5.59133
0
LINE
8
BLACK
6
CONTINUOUS
10
3.89722
20
-5.51259
11
3.90472
21
-5.51259
0
LINE
8
BLACK
6
CONTINUOUS
10
3.90472
20
-5.51259
11
3.91221
21
-5.51634
0
LINE
8
BLACK
6
CONTINUOUS
10
3.91221
20
-5.51634
11
3.91596
21
-5.52009
0
LINE
8
BLACK
6
CONTINUOUS
10
3.91596
20
-5.52009
11
3.91971
21
-5.52759
0
LINE
8
BLACK
6
CONTINUOUS
10
3.91971
20
-5.52759
11
3.92346
21
-5.54259
0
LINE
8
BLACK
6
CONTINUOUS
10
3.92346
20
-5.54259
11
3.92346
21
-5.56133
0
LINE
8
BLACK
6
CONTINUOUS
10
3.92346
20
-5.56133
11
3.91971
21
-5.57633
0
LINE
8
BLACK
6
CONTINUOUS
10
3.91971
20
-5.57633
11
3.91596
21
-5.58383
0
LINE
8
BLACK
6
CONTINUOUS
10
3.91596
20
-5.58383
11
3.91221
21
-5.58758
0
LINE
8
BLACK
6
CONTINUOUS
10
3.91221
20
-5.58758
11
3.90472
21
-5.59133
0
LINE
8
BLACK
6
CONTINUOUS
10
3.90472
20
-5.59133
11
3.89722
21
-5.59133
0
LINE
8
BLACK
6
CONTINUOUS
10
3.89722
20
-5.59133
11
3.88972
21
-5.58758
0
LINE
8
BLACK
6
CONTINUOUS
10
3.88972
20
-5.58758
11
3.88597
21
-5.58383
0
LINE
8
BLACK
6
CONTINUOUS
10
3.88597
20
-5.58383
11
3.88222
21
-5.57633
0
LINE
8
BLACK
6
CONTINUOUS
10
3.88222
20
-5.57633
11
3.87847
21
-5.56133
0
LINE
8
BLACK
6
CONTINUOUS
10
3.87847
20
-5.56133
11
3.87847
21
-5.54259
0
LINE
8
BLACK
6
CONTINUOUS
10
3.87847
20
-5.54259
11
3.88222
21
-5.52759
0
LINE
8
BLACK
6
CONTINUOUS
10
3.88222
20
-5.52759
11
3.88597
21
-5.52009
0
LINE
8
BLACK
6
CONTINUOUS
10
3.88597
20
-5.52009
11
3.88972
21
-5.51634
0
LINE
8
BLACK
6
CONTINUOUS
10
3.88972
20
-5.51634
11
3.89722
21
-5.51259
0
LINE
8
BLACK
6
CONTINUOUS
10
3.94971
20
-5.51259
11
3.99845
21
-5.51259
0
LINE
8
BLACK
6
CONTINUOUS
10
3.99845
20
-5.51259
11
3.97221
21
-5.54259
0
LINE
8
BLACK
6
CONTINUOUS
10
3.97221
20
-5.54259
11
3.98346
21
-5.54259
0
LINE
8
BLACK
6
CONTINUOUS
10
3.98346
20
-5.54259
11
3.99095
21
-5.54633
0
LINE
8
BLACK
6
CONTINUOUS
10
3.99095
20
-5.54633
11
3.9947
21
-5.55008
0
LINE
8
BLACK
6
CONTINUOUS
10
3.9947
20
-5.55008
11
3.99845
21
-5.55758
0
LINE
8
BLACK
6
CONTINUOUS
10
3.99845
20
-5.55758
11
3.99845
21
-5.57633
0
LINE
8
BLACK
6
CONTINUOUS
10
3.99845
20
-5.57633
11
3.9947
21
-5.58383
0
LINE
8
BLACK
6
CONTINUOUS
10
3.9947
20
-5.58383
11
3.99095
21
-5.58758
0
LINE
8
BLACK
6
CONTINUOUS
10
3.99095
20
-5.58758
11
3.98346
21
-5.59133
0
LINE
8
BLACK
6
CONTINUOUS
10
3.98346
20
-5.59133
11
3.96096
21
-5.59133
0
LINE
8
BLACK
6
CONTINUOUS
10
3.96096
20
-5.59133
11
3.95346
21
-5.58758
0
LINE
8
BLACK
6
CONTINUOUS
10
3.95346
20
-5.58758
11
3.94971
21
-5.58383
0
LINE
8
BLACK
6
CONTINUOUS
10
4.07344
20
-5.59133
11
4.02845
21
-5.59133
0
LINE
8
BLACK
6
CONTINUOUS
10
4.05095
20
-5.59133
11
4.05095
21
-5.51259
0
LINE
8
BLACK
6
CONTINUOUS
10
4.05095
20
-5.51259
11
4.04345
21
-5.52384
0
LINE
8
BLACK
6
CONTINUOUS
10
4.04345
20
-5.52384
11
4.03595
21
-5.53134
0
LINE
8
BLACK
6
CONTINUOUS
10
4.03595
20
-5.53134
11
4.02845
21
-5.53509
0
LINE
8
BLACK
6
CONTINUOUS
10
4.14469
20
-5.51259
11
4.10719
21
-5.51259
0
LINE
8
BLACK
6
CONTINUOUS
10
4.10719
20
-5.51259
11
4.10344
21
-5.55008
0
LINE
8
BLACK
6
CONTINUOUS
10
4.10344
20
-5.55008
11
4.10719
21
-5.54633
0
LINE
8
BLACK
6
CONTINUOUS
10
4.10719
20
-5.54633
11
4.11469
21
-5.54259
0
LINE
8
BLACK
6
CONTINUOUS
10
4.11469
20
-5.54259
11
4.13344
21
-5.54259
0
LINE
8
BLACK
6
CONTINUOUS
10
4.13344
20
-5.54259
11
4.14094
21
-5.54633
0
LINE
8
BLACK
6
CONTINUOUS
10
4.14094
20
-5.54633
11
4.14469
21
-5.55008
0
LINE
8
BLACK
6
CONTINUOUS
10
4.14469
20
-5.55008
11
4.14843
21
-5.55758
0
LINE
8
BLACK
6
CONTINUOUS
10
4.14843
20
-5.55758
11
4.14843
21
-5.57633
0
LINE
8
BLACK
6
CONTINUOUS
10
4.14843
20
-5.57633
11
4.14469
21
-5.58383
0
LINE
8
BLACK
6
CONTINUOUS
10
4.14469
20
-5.58383
11
4.14094
21
-5.58758
0
LINE
8
BLACK
6
CONTINUOUS
10
4.14094
20
-5.58758
11
4.13344
21
-5.59133
0
LINE
8
BLACK
6
CONTINUOUS
10
4.13344
20
-5.59133
11
4.11469
21
-5.59133
0
LINE
8
BLACK
6
CONTINUOUS
10
4.11469
20
-5.59133
11
4.10719
21
-5.58758
0
LINE
8
BLACK
6
CONTINUOUS
10
4.10719
20
-5.58758
11
4.10344
21
-5.58383
0
LINE
8
BLACK
6
CONTINUOUS
10
4.17843
20
-5.51259
11
4.17843
21
-5.52759
0
LINE
8
BLACK
6
CONTINUOUS
10
4.20843
20
-5.51259
11
4.20843
21
-5.52759
0
LINE
8
BLACK
6
CONTINUOUS
10
4.31191
20
-5.62133
11
4.30816
21
-5.61758
0
LINE
8
BLACK
6
CONTINUOUS
10
4.30816
20
-5.61758
11
4.30067
21
-5.60633
0
LINE
8
BLACK
6
CONTINUOUS
10
4.30067
20
-5.60633
11
4.29692
21
-5.59883
0
LINE
8
BLACK
6
CONTINUOUS
10
4.29692
20
-5.59883
11
4.29317
21
-5.58758
0
LINE
8
BLACK
6
CONTINUOUS
10
4.29317
20
-5.58758
11
4.28942
21
-5.56883
0
LINE
8
BLACK
6
CONTINUOUS
10
4.28942
20
-5.56883
11
4.28942
21
-5.55383
0
LINE
8
BLACK
6
CONTINUOUS
10
4.28942
20
-5.55383
11
4.29317
21
-5.53509
0
LINE
8
BLACK
6
CONTINUOUS
10
4.29317
20
-5.53509
11
4.29692
21
-5.52384
0
LINE
8
BLACK
6
CONTINUOUS
10
4.29692
20
-5.52384
11
4.30067
21
-5.51634
0
LINE
8
BLACK
6
CONTINUOUS
10
4.30067
20
-5.51634
11
4.30816
21
-5.50509
0
LINE
8
BLACK
6
CONTINUOUS
10
4.30816
20
-5.50509
11
4.31191
21
-5.50134
0
LINE
8
BLACK
6
CONTINUOUS
10
4.37566
20
-5.53884
11
4.37566
21
-5.59133
0
LINE
8
BLACK
6
CONTINUOUS
10
4.35691
20
-5.50884
11
4.33816
21
-5.56508
0
LINE
8
BLACK
6
CONTINUOUS
10
4.33816
20
-5.56508
11
4.3869
21
-5.56508
0
LINE
8
BLACK
6
CONTINUOUS
10
4.41315
20
-5.52009
11
4.4169
21
-5.51634
0
LINE
8
BLACK
6
CONTINUOUS
10
4.4169
20
-5.51634
11
4.4244
21
-5.51259
0
LINE
8
BLACK
6
CONTINUOUS
10
4.4244
20
-5.51259
11
4.44315
21
-5.51259
0
LINE
8
BLACK
6
CONTINUOUS
10
4.44315
20
-5.51259
11
4.45065
21
-5.51634
0
LINE
8
BLACK
6
CONTINUOUS
10
4.45065
20
-5.51634
11
4.4544
21
-5.52009
0
LINE
8
BLACK
6
CONTINUOUS
10
4.4544
20
-5.52009
11
4.45815
21
-5.52759
0
LINE
8
BLACK
6
CONTINUOUS
10
4.45815
20
-5.52759
11
4.45815
21
-5.53509
0
LINE
8
BLACK
6
CONTINUOUS
10
4.45815
20
-5.53509
11
4.4544
21
-5.54633
0
LINE
8
BLACK
6
CONTINUOUS
10
4.4544
20
-5.54633
11
4.4094
21
-5.59133
0
LINE
8
BLACK
6
CONTINUOUS
10
4.4094
20
-5.59133
11
4.45815
21
-5.59133
0
LINE
8
BLACK
6
CONTINUOUS
10
4.53914
20
-5.59133
11
4.53914
21
-5.51259
0
LINE
8
BLACK
6
CONTINUOUS
10
4.57288
20
-5.59133
11
4.57288
21
-5.55008
0
LINE
8
BLACK
6
CONTINUOUS
10
4.57288
20
-5.55008
11
4.56913
21
-5.54259
0
LINE
8
BLACK
6
CONTINUOUS
10
4.56913
20
-5.54259
11
4.56163
21
-5.53884
0
LINE
8
BLACK
6
CONTINUOUS
10
4.56163
20
-5.53884
11
4.55038
21
-5.53884
0
LINE
8
BLACK
6
CONTINUOUS
10
4.55038
20
-5.53884
11
4.54289
21
-5.54259
0
LINE
8
BLACK
6
CONTINUOUS
10
4.54289
20
-5.54259
11
4.53914
21
-5.54633
0
LINE
8
BLACK
6
CONTINUOUS
10
4.62163
20
-5.59133
11
4.61413
21
-5.58758
0
LINE
8
BLACK
6
CONTINUOUS
10
4.61413
20
-5.58758
11
4.61038
21
-5.58383
0
LINE
8
BLACK
6
CONTINUOUS
10
4.61038
20
-5.58383
11
4.60663
21
-5.57633
0
LINE
8
BLACK
6
CONTINUOUS
10
4.60663
20
-5.57633
11
4.60663
21
-5.55383
0
LINE
8
BLACK
6
CONTINUOUS
10
4.60663
20
-5.55383
11
4.61038
21
-5.54633
0
LINE
8
BLACK
6
CONTINUOUS
10
4.61038
20
-5.54633
11
4.61413
21
-5.54259
0
LINE
8
BLACK
6
CONTINUOUS
10
4.61413
20
-5.54259
11
4.62163
21
-5.53884
0
LINE
8
BLACK
6
CONTINUOUS
10
4.62163
20
-5.53884
11
4.63287
21
-5.53884
0
LINE
8
BLACK
6
CONTINUOUS
10
4.63287
20
-5.53884
11
4.64037
21
-5.54259
0
LINE
8
BLACK
6
CONTINUOUS
10
4.64037
20
-5.54259
11
4.64412
21
-5.54633
0
LINE
8
BLACK
6
CONTINUOUS
10
4.64412
20
-5.54633
11
4.64787
21
-5.55383
0
LINE
8
BLACK
6
CONTINUOUS
10
4.64787
20
-5.55383
11
4.64787
21
-5.57633
0
LINE
8
BLACK
6
CONTINUOUS
10
4.64787
20
-5.57633
11
4.64412
21
-5.58383
0
LINE
8
BLACK
6
CONTINUOUS
10
4.64412
20
-5.58383
11
4.64037
21
-5.58758
0
LINE
8
BLACK
6
CONTINUOUS
10
4.64037
20
-5.58758
11
4.63287
21
-5.59133
0
LINE
8
BLACK
6
CONTINUOUS
10
4.63287
20
-5.59133
11
4.62163
21
-5.59133
0
LINE
8
BLACK
6
CONTINUOUS
10
4.69287
20
-5.59133
11
4.68537
21
-5.58758
0
LINE
8
BLACK
6
CONTINUOUS
10
4.68537
20
-5.58758
11
4.68162
21
-5.58008
0
LINE
8
BLACK
6
CONTINUOUS
10
4.68162
20
-5.58008
11
4.68162
21
-5.51259
0
LINE
8
BLACK
6
CONTINUOUS
10
4.75286
20
-5.58758
11
4.74536
21
-5.59133
0
LINE
8
BLACK
6
CONTINUOUS
10
4.74536
20
-5.59133
11
4.73036
21
-5.59133
0
LINE
8
BLACK
6
CONTINUOUS
10
4.73036
20
-5.59133
11
4.72286
21
-5.58758
0
LINE
8
BLACK
6
CONTINUOUS
10
4.72286
20
-5.58758
11
4.71911
21
-5.58008
0
LINE
8
BLACK
6
CONTINUOUS
10
4.71911
20
-5.58008
11
4.71911
21
-5.55008
0
LINE
8
BLACK
6
CONTINUOUS
10
4.71911
20
-5.55008
11
4.72286
21
-5.54259
0
LINE
8
BLACK
6
CONTINUOUS
10
4.72286
20
-5.54259
11
4.73036
21
-5.53884
0
LINE
8
BLACK
6
CONTINUOUS
10
4.73036
20
-5.53884
11
4.74536
21
-5.53884
0
LINE
8
BLACK
6
CONTINUOUS
10
4.74536
20
-5.53884
11
4.75286
21
-5.54259
0
LINE
8
BLACK
6
CONTINUOUS
10
4.75286
20
-5.54259
11
4.75661
21
-5.55008
0
LINE
8
BLACK
6
CONTINUOUS
10
4.75661
20
-5.55008
11
4.75661
21
-5.55758
0
LINE
8
BLACK
6
CONTINUOUS
10
4.75661
20
-5.55758
11
4.71911
21
-5.56508
0
LINE
8
BLACK
6
CONTINUOUS
10
4.7866
20
-5.58758
11
4.7941
21
-5.59133
0
LINE
8
BLACK
6
CONTINUOUS
10
4.7941
20
-5.59133
11
4.8091
21
-5.59133
0
LINE
8
BLACK
6
CONTINUOUS
10
4.8091
20
-5.59133
11
4.8166
21
-5.58758
0
LINE
8
BLACK
6
CONTINUOUS
10
4.8166
20
-5.58758
11
4.82035
21
-5.58008
0
LINE
8
BLACK
6
CONTINUOUS
10
4.82035
20
-5.58008
11
4.82035
21
-5.57633
0
LINE
8
BLACK
6
CONTINUOUS
10
4.82035
20
-5.57633
11
4.8166
21
-5.56883
0
LINE
8
BLACK
6
CONTINUOUS
10
4.8166
20
-5.56883
11
4.8091
21
-5.56508
0
LINE
8
BLACK
6
CONTINUOUS
10
4.8091
20
-5.56508
11
4.79785
21
-5.56508
0
LINE
8
BLACK
6
CONTINUOUS
10
4.79785
20
-5.56508
11
4.79035
21
-5.56133
0
LINE
8
BLACK
6
CONTINUOUS
10
4.79035
20
-5.56133
11
4.7866
21
-5.55383
0
LINE
8
BLACK
6
CONTINUOUS
10
4.7866
20
-5.55383
11
4.7866
21
-5.55008
0
LINE
8
BLACK
6
CONTINUOUS
10
4.7866
20
-5.55008
11
4.79035
21
-5.54259
0
LINE
8
BLACK
6
CONTINUOUS
10
4.79035
20
-5.54259
11
4.79785
21
-5.53884
0
LINE
8
BLACK
6
CONTINUOUS
10
4.79785
20
-5.53884
11
4.8091
21
-5.53884
0
LINE
8
BLACK
6
CONTINUOUS
10
4.8091
20
-5.53884
11
4.8166
21
-5.54259
0
LINE
8
BLACK
6
CONTINUOUS
10
4.8466
20
-5.62133
11
4.85035
21
-5.61758
0
LINE
8
BLACK
6
CONTINUOUS
10
4.85035
20
-5.61758
11
4.85785
21
-5.60633
0
LINE
8
BLACK
6
CONTINUOUS
10
4.85785
20
-5.60633
11
4.8616
21
-5.59883
0
LINE
8
BLACK
6
CONTINUOUS
10
4.8616
20
-5.59883
11
4.86535
21
-5.58758
0
LINE
8
BLACK
6
CONTINUOUS
10
4.86535
20
-5.58758
11
4.86909
21
-5.56883
0
LINE
8
BLACK
6
CONTINUOUS
10
4.86909
20
-5.56883
11
4.86909
21
-5.55383
0
LINE
8
BLACK
6
CONTINUOUS
10
4.86909
20
-5.55383
11
4.86535
21
-5.53509
0
LINE
8
BLACK
6
CONTINUOUS
10
4.86535
20
-5.53509
11
4.8616
21
-5.52384
0
LINE
8
BLACK
6
CONTINUOUS
10
4.8616
20
-5.52384
11
4.85785
21
-5.51634
0
LINE
8
BLACK
6
CONTINUOUS
10
4.85785
20
-5.51634
11
4.85035
21
-5.50509
0
LINE
8
BLACK
6
CONTINUOUS
10
4.85035
20
-5.50509
11
4.8466
21
-5.50134
0
LINE
8
BLACK
6
CONTINUOUS
10
2.90846
20
-5.64665
11
2.94783
21
-5.68602
0
LINE
8
BLACK
6
CONTINUOUS
10
2.94783
20
-5.64665
11
2.90846
21
-5.68602
0
CIRCLE
8
BLACK
10
2.92815
20
-5.66634
40
0.019685
0
LINE
8
BLACK
6
CONTINUOUS
10
3.08657
20
-5.69527
11
3.04157
21
-5.69527
0
LINE
8
BLACK
6
CONTINUOUS
10
3.06407
20
-5.69527
11
3.06407
21
-5.61653
0
LINE
8
BLACK
6
CONTINUOUS
10
3.06407
20
-5.61653
11
3.05657
21
-5.62777
0
LINE
8
BLACK
6
CONTINUOUS
10
3.05657
20
-5.62777
11
3.04907
21
-5.63527
0
LINE
8
BLACK
6
CONTINUOUS
10
3.04907
20
-5.63527
11
3.04157
21
-5.63902
0
LINE
8
BLACK
6
CONTINUOUS
10
3.12031
20
-5.68777
11
3.12406
21
-5.69152
0
LINE
8
BLACK
6
CONTINUOUS
10
3.12406
20
-5.69152
11
3.12031
21
-5.69527
0
LINE
8
BLACK
6
CONTINUOUS
10
3.12031
20
-5.69527
11
3.11656
21
-5.69152
0
LINE
8
BLACK
6
CONTINUOUS
10
3.11656
20
-5.69152
11
3.12031
21
-5.68777
0
LINE
8
BLACK
6
CONTINUOUS
10
3.12031
20
-5.68777
11
3.12031
21
-5.69527
0
LINE
8
BLACK
6
CONTINUOUS
10
3.17281
20
-5.61653
11
3.18031
21
-5.61653
0
LINE
8
BLACK
6
CONTINUOUS
10
3.18031
20
-5.61653
11
3.1878
21
-5.62028
0
LINE
8
BLACK
6
CONTINUOUS
10
3.1878
20
-5.62028
11
3.19155
21
-5.62403
0
LINE
8
BLACK
6
CONTINUOUS
10
3.19155
20
-5.62403
11
3.1953
21
-5.63152
0
LINE
8
BLACK
6
CONTINUOUS
10
3.1953
20
-5.63152
11
3.19905
21
-5.64652
0
LINE
8
BLACK
6
CONTINUOUS
10
3.19905
20
-5.64652
11
3.19905
21
-5.66527
0
LINE
8
BLACK
6
CONTINUOUS
10
3.19905
20
-5.66527
11
3.1953
21
-5.68027
0
LINE
8
BLACK
6
CONTINUOUS
10
3.1953
20
-5.68027
11
3.19155
21
-5.68777
0
LINE
8
BLACK
6
CONTINUOUS
10
3.19155
20
-5.68777
11
3.1878
21
-5.69152
0
LINE
8
BLACK
6
CONTINUOUS
10
3.1878
20
-5.69152
11
3.18031
21
-5.69527
0
LINE
8
BLACK
6
CONTINUOUS
10
3.18031
20
-5.69527
11
3.17281
21
-5.69527
0
LINE
8
BLACK
6
CONTINUOUS
10
3.17281
20
-5.69527
11
3.16531
21
-5.69152
0
LINE
8
BLACK
6
CONTINUOUS
10
3.16531
20
-5.69152
11
3.16156
21
-5.68777
0
LINE
8
BLACK
6
CONTINUOUS
10
3.16156
20
-5.68777
11
3.15781
21
-5.68027
0
LINE
8
BLACK
6
CONTINUOUS
10
3.15781
20
-5.68027
11
3.15406
21
-5.66527
0
LINE
8
BLACK
6
CONTINUOUS
10
3.15406
20
-5.66527
11
3.15406
21
-5.64652
0
LINE
8
BLACK
6
CONTINUOUS
10
3.15406
20
-5.64652
11
3.15781
21
-5.63152
0
LINE
8
BLACK
6
CONTINUOUS
10
3.15781
20
-5.63152
11
3.16156
21
-5.62403
0
LINE
8
BLACK
6
CONTINUOUS
10
3.16156
20
-5.62403
11
3.16531
21
-5.62028
0
LINE
8
BLACK
6
CONTINUOUS
10
3.16531
20
-5.62028
11
3.17281
21
-5.61653
0
LINE
8
BLACK
6
CONTINUOUS
10
3.2478
20
-5.61653
11
3.2553
21
-5.61653
0
LINE
8
BLACK
6
CONTINUOUS
10
3.2553
20
-5.61653
11
3.2628
21
-5.62028
0
LINE
8
BLACK
6
CONTINUOUS
10
3.2628
20
-5.62028
11
3.26654
21
-5.62403
0
LINE
8
BLACK
6
CONTINUOUS
10
3.26654
20
-5.62403
11
3.27029
21
-5.63152
0
LINE
8
BLACK
6
CONTINUOUS
10
3.27029
20
-5.63152
11
3.27404
21
-5.64652
0
LINE
8
BLACK
6
CONTINUOUS
10
3.27404
20
-5.64652
11
3.27404
21
-5.66527
0
LINE
8
BLACK
6
CONTINUOUS
10
3.27404
20
-5.66527
11
3.27029
21
-5.68027
0
LINE
8
BLACK
6
CONTINUOUS
10
3.27029
20
-5.68027
11
3.26654
21
-5.68777
0
LINE
8
BLACK
6
CONTINUOUS
10
3.26654
20
-5.68777
11
3.2628
21
-5.69152
0
LINE
8
BLACK
6
CONTINUOUS
10
3.2628
20
-5.69152
11
3.2553
21
-5.69527
0
LINE
8
BLACK
6
CONTINUOUS
10
3.2553
20
-5.69527
11
3.2478
21
-5.69527
0
LINE
8
BLACK
6
CONTINUOUS
10
3.2478
20
-5.69527
11
3.2403
21
-5.69152
0
LINE
8
BLACK
6
CONTINUOUS
10
3.2403
20
-5.69152
11
3.23655
21
-5.68777
0
LINE
8
BLACK
6
CONTINUOUS
10
3.23655
20
-5.68777
11
3.2328
21
-5.68027
0
LINE
8
BLACK
6
CONTINUOUS
10
3.2328
20
-5.68027
11
3.22905
21
-5.66527
0
LINE
8
BLACK
6
CONTINUOUS
10
3.22905
20
-5.66527
11
3.22905
21
-5.64652
0
LINE
8
BLACK
6
CONTINUOUS
10
3.22905
20
-5.64652
11
3.2328
21
-5.63152
0
LINE
8
BLACK
6
CONTINUOUS
10
3.2328
20
-5.63152
11
3.23655
21
-5.62403
0
LINE
8
BLACK
6
CONTINUOUS
10
3.23655
20
-5.62403
11
3.2403
21
-5.62028
0
LINE
8
BLACK
6
CONTINUOUS
10
3.2403
20
-5.62028
11
3.2478
21
-5.61653
0
LINE
8
BLACK
6
CONTINUOUS
10
3.32279
20
-5.61653
11
3.33029
21
-5.61653
0
LINE
8
BLACK
6
CONTINUOUS
10
3.33029
20
-5.61653
11
3.33779
21
-5.62028
0
LINE
8
BLACK
6
CONTINUOUS
10
3.33779
20
-5.62028
11
3.34154
21
-5.62403
0
LINE
8
BLACK
6
CONTINUOUS
10
3.34154
20
-5.62403
11
3.34528
21
-5.63152
0
LINE
8
BLACK
6
CONTINUOUS
10
3.34528
20
-5.63152
11
3.34903
21
-5.64652
0
LINE
8
BLACK
6
CONTINUOUS
10
3.34903
20
-5.64652
11
3.34903
21
-5.66527
0
LINE
8
BLACK
6
CONTINUOUS
10
3.34903
20
-5.66527
11
3.34528
21
-5.68027
0
LINE
8
BLACK
6
CONTINUOUS
10
3.34528
20
-5.68027
11
3.34154
21
-5.68777
0
LINE
8
BLACK
6
CONTINUOUS
10
3.34154
20
-5.68777
11
3.33779
21
-5.69152
0
LINE
8
BLACK
6
CONTINUOUS
10
3.33779
20
-5.69152
11
3.33029
21
-5.69527
0
LINE
8
BLACK
6
CONTINUOUS
10
3.33029
20
-5.69527
11
3.32279
21
-5.69527
0
LINE
8
BLACK
6
CONTINUOUS
10
3.32279
20
-5.69527
11
3.31529
21
-5.69152
0
LINE
8
BLACK
6
CONTINUOUS
10
3.31529
20
-5.69152
11
3.31154
21
-5.68777
0
LINE
8
BLACK
6
CONTINUOUS
10
3.31154
20
-5.68777
11
3.30779
21
-5.68027
0
LINE
8
BLACK
6
CONTINUOUS
10
3.30779
20
-5.68027
11
3.30404
21
-5.66527
0
LINE
8
BLACK
6
CONTINUOUS
10
3.30404
20
-5.66527
11
3.30404
21
-5.64652
0
LINE
8
BLACK
6
CONTINUOUS
10
3.30404
20
-5.64652
11
3.30779
21
-5.63152
0
LINE
8
BLACK
6
CONTINUOUS
10
3.30779
20
-5.63152
11
3.31154
21
-5.62403
0
LINE
8
BLACK
6
CONTINUOUS
10
3.31154
20
-5.62403
11
3.31529
21
-5.62028
0
LINE
8
BLACK
6
CONTINUOUS
10
3.31529
20
-5.62028
11
3.32279
21
-5.61653
0
LINE
8
BLACK
6
CONTINUOUS
10
3.38278
20
-5.69527
11
3.38278
21
-5.64277
0
LINE
8
BLACK
6
CONTINUOUS
10
3.38278
20
-5.65027
11
3.38653
21
-5.64652
0
LINE
8
BLACK
6
CONTINUOUS
10
3.38653
20
-5.64652
11
3.39403
21
-5.64277
0
LINE
8
BLACK
6
CONTINUOUS
10
3.39403
20
-5.64277
11
3.40528
21
-5.64277
0
LINE
8
BLACK
6
CONTINUOUS
10
3.40528
20
-5.64277
11
3.41278
21
-5.64652
0
LINE
8
BLACK
6
CONTINUOUS
10
3.41278
20
-5.64652
11
3.41653
21
-5.65402
0
LINE
8
BLACK
6
CONTINUOUS
10
3.41653
20
-5.65402
11
3.41653
21
-5.69527
0
LINE
8
BLACK
6
CONTINUOUS
10
3.41653
20
-5.65402
11
3.42028
21
-5.64652
0
LINE
8
BLACK
6
CONTINUOUS
10
3.42028
20
-5.64652
11
3.42777
21
-5.64277
0
LINE
8
BLACK
6
CONTINUOUS
10
3.42777
20
-5.64277
11
3.43902
21
-5.64277
0
LINE
8
BLACK
6
CONTINUOUS
10
3.43902
20
-5.64277
11
3.44652
21
-5.64652
0
LINE
8
BLACK
6
CONTINUOUS
10
3.44652
20
-5.64652
11
3.45027
21
-5.65402
0
LINE
8
BLACK
6
CONTINUOUS
10
3.45027
20
-5.65402
11
3.45027
21
-5.69527
0
LINE
8
BLACK
6
CONTINUOUS
10
3.48777
20
-5.69527
11
3.48777
21
-5.64277
0
LINE
8
BLACK
6
CONTINUOUS
10
3.48777
20
-5.65027
11
3.49152
21
-5.64652
0
LINE
8
BLACK
6
CONTINUOUS
10
3.49152
20
-5.64652
11
3.49902
21
-5.64277
0
LINE
8
BLACK
6
CONTINUOUS
10
3.49902
20
-5.64277
11
3.51026
21
-5.64277
0
LINE
8
BLACK
6
CONTINUOUS
10
3.51026
20
-5.64277
11
3.51776
21
-5.64652
0
LINE
8
BLACK
6
CONTINUOUS
10
3.51776
20
-5.64652
11
3.52151
21
-5.65402
0
LINE
8
BLACK
6
CONTINUOUS
10
3.52151
20
-5.65402
11
3.52151
21
-5.69527
0
LINE
8
BLACK
6
CONTINUOUS
10
3.52151
20
-5.65402
11
3.52526
21
-5.64652
0
LINE
8
BLACK
6
CONTINUOUS
10
3.52526
20
-5.64652
11
3.53276
21
-5.64277
0
LINE
8
BLACK
6
CONTINUOUS
10
3.53276
20
-5.64277
11
3.54401
21
-5.64277
0
LINE
8
BLACK
6
CONTINUOUS
10
3.54401
20
-5.64277
11
3.55151
21
-5.64652
0
LINE
8
BLACK
6
CONTINUOUS
10
3.55151
20
-5.64652
11
3.55526
21
-5.65402
0
LINE
8
BLACK
6
CONTINUOUS
10
3.55526
20
-5.65402
11
3.55526
21
-5.69527
0
LINE
8
BLACK
6
CONTINUOUS
10
3.69624
20
-5.61278
11
3.62875
21
-5.71401
0
LINE
8
BLACK
6
CONTINUOUS
10
3.78473
20
-5.61653
11
3.79223
21
-5.61653
0
LINE
8
BLACK
6
CONTINUOUS
10
3.79223
20
-5.61653
11
3.79973
21
-5.62028
0
LINE
8
BLACK
6
CONTINUOUS
10
3.79973
20
-5.62028
11
3.80348
21
-5.62403
0
LINE
8
BLACK
6
CONTINUOUS
10
3.80348
20
-5.62403
11
3.80723
21
-5.63152
0
LINE
8
BLACK
6
CONTINUOUS
10
3.80723
20
-5.63152
11
3.81098
21
-5.64652
0
LINE
8
BLACK
6
CONTINUOUS
10
3.81098
20
-5.64652
11
3.81098
21
-5.66527
0
LINE
8
BLACK
6
CONTINUOUS
10
3.81098
20
-5.66527
11
3.80723
21
-5.68027
0
LINE
8
BLACK
6
CONTINUOUS
10
3.80723
20
-5.68027
11
3.80348
21
-5.68777
0
LINE
8
BLACK
6
CONTINUOUS
10
3.80348
20
-5.68777
11
3.79973
21
-5.69152
0
LINE
8
BLACK
6
CONTINUOUS
10
3.79973
20
-5.69152
11
3.79223
21
-5.69527
0
LINE
8
BLACK
6
CONTINUOUS
10
3.79223
20
-5.69527
11
3.78473
21
-5.69527
0
LINE
8
BLACK
6
CONTINUOUS
10
3.78473
20
-5.69527
11
3.77723
21
-5.69152
0
LINE
8
BLACK
6
CONTINUOUS
10
3.77723
20
-5.69152
11
3.77348
21
-5.68777
0
LINE
8
BLACK
6
CONTINUOUS
10
3.77348
20
-5.68777
11
3.76973
21
-5.68027
0
LINE
8
BLACK
6
CONTINUOUS
10
3.76973
20
-5.68027
11
3.76598
21
-5.66527
0
LINE
8
BLACK
6
CONTINUOUS
10
3.76598
20
-5.66527
11
3.76598
21
-5.64652
0
LINE
8
BLACK
6
CONTINUOUS
10
3.76598
20
-5.64652
11
3.76973
21
-5.63152
0
LINE
8
BLACK
6
CONTINUOUS
10
3.76973
20
-5.63152
11
3.77348
21
-5.62403
0
LINE
8
BLACK
6
CONTINUOUS
10
3.77348
20
-5.62403
11
3.77723
21
-5.62028
0
LINE
8
BLACK
6
CONTINUOUS
10
3.77723
20
-5.62028
11
3.78473
21
-5.61653
0
LINE
8
BLACK
6
CONTINUOUS
10
3.84472
20
-5.68777
11
3.84847
21
-5.69152
0
LINE
8
BLACK
6
CONTINUOUS
10
3.84847
20
-5.69152
11
3.84472
21
-5.69527
0
LINE
8
BLACK
6
CONTINUOUS
10
3.84472
20
-5.69527
11
3.84097
21
-5.69152
0
LINE
8
BLACK
6
CONTINUOUS
10
3.84097
20
-5.69152
11
3.84472
21
-5.68777
0
LINE
8
BLACK
6
CONTINUOUS
10
3.84472
20
-5.68777
11
3.84472
21
-5.69527
0
LINE
8
BLACK
6
CONTINUOUS
10
3.89722
20
-5.61653
11
3.90472
21
-5.61653
0
LINE
8
BLACK
6
CONTINUOUS
10
3.90472
20
-5.61653
11
3.91221
21
-5.62028
0
LINE
8
BLACK
6
CONTINUOUS
10
3.91221
20
-5.62028
11
3.91596
21
-5.62403
0
LINE
8
BLACK
6
CONTINUOUS
10
3.91596
20
-5.62403
11
3.91971
21
-5.63152
0
LINE
8
BLACK
6
CONTINUOUS
10
3.91971
20
-5.63152
11
3.92346
21
-5.64652
0
LINE
8
BLACK
6
CONTINUOUS
10
3.92346
20
-5.64652
11
3.92346
21
-5.66527
0
LINE
8
BLACK
6
CONTINUOUS
10
3.92346
20
-5.66527
11
3.91971
21
-5.68027
0
LINE
8
BLACK
6
CONTINUOUS
10
3.91971
20
-5.68027
11
3.91596
21
-5.68777
0
LINE
8
BLACK
6
CONTINUOUS
10
3.91596
20
-5.68777
11
3.91221
21
-5.69152
0
LINE
8
BLACK
6
CONTINUOUS
10
3.91221
20
-5.69152
11
3.90472
21
-5.69527
0
LINE
8
BLACK
6
CONTINUOUS
10
3.90472
20
-5.69527
11
3.89722
21
-5.69527
0
LINE
8
BLACK
6
CONTINUOUS
10
3.89722
20
-5.69527
11
3.88972
21
-5.69152
0
LINE
8
BLACK
6
CONTINUOUS
10
3.88972
20
-5.69152
11
3.88597
21
-5.68777
0
LINE
8
BLACK
6
CONTINUOUS
10
3.88597
20
-5.68777
11
3.88222
21
-5.68027
0
LINE
8
BLACK
6
CONTINUOUS
10
3.88222
20
-5.68027
11
3.87847
21
-5.66527
0
LINE
8
BLACK
6
CONTINUOUS
10
3.87847
20
-5.66527
11
3.87847
21
-5.64652
0
LINE
8
BLACK
6
CONTINUOUS
10
3.87847
20
-5.64652
11
3.88222
21
-5.63152
0
LINE
8
BLACK
6
CONTINUOUS
10
3.88222
20
-5.63152
11
3.88597
21
-5.62403
0
LINE
8
BLACK
6
CONTINUOUS
10
3.88597
20
-5.62403
11
3.88972
21
-5.62028
0
LINE
8
BLACK
6
CONTINUOUS
10
3.88972
20
-5.62028
11
3.89722
21
-5.61653
0
LINE
8
BLACK
6
CONTINUOUS
10
3.94971
20
-5.61653
11
3.99845
21
-5.61653
0
LINE
8
BLACK
6
CONTINUOUS
10
3.99845
20
-5.61653
11
3.97221
21
-5.64652
0
LINE
8
BLACK
6
CONTINUOUS
10
3.97221
20
-5.64652
11
3.98346
21
-5.64652
0
LINE
8
BLACK
6
CONTINUOUS
10
3.98346
20
-5.64652
11
3.99095
21
-5.65027
0
LINE
8
BLACK
6
CONTINUOUS
10
3.99095
20
-5.65027
11
3.9947
21
-5.65402
0
LINE
8
BLACK
6
CONTINUOUS
10
3.9947
20
-5.65402
11
3.99845
21
-5.66152
0
LINE
8
BLACK
6
CONTINUOUS
10
3.99845
20
-5.66152
11
3.99845
21
-5.68027
0
LINE
8
BLACK
6
CONTINUOUS
10
3.99845
20
-5.68027
11
3.9947
21
-5.68777
0
LINE
8
BLACK
6
CONTINUOUS
10
3.9947
20
-5.68777
11
3.99095
21
-5.69152
0
LINE
8
BLACK
6
CONTINUOUS
10
3.99095
20
-5.69152
11
3.98346
21
-5.69527
0
LINE
8
BLACK
6
CONTINUOUS
10
3.98346
20
-5.69527
11
3.96096
21
-5.69527
0
LINE
8
BLACK
6
CONTINUOUS
10
3.96096
20
-5.69527
11
3.95346
21
-5.69152
0
LINE
8
BLACK
6
CONTINUOUS
10
3.95346
20
-5.69152
11
3.94971
21
-5.68777
0
LINE
8
BLACK
6
CONTINUOUS
10
4.03595
20
-5.69527
11
4.05095
21
-5.69527
0
LINE
8
BLACK
6
CONTINUOUS
10
4.05095
20
-5.69527
11
4.05845
21
-5.69152
0
LINE
8
BLACK
6
CONTINUOUS
10
4.05845
20
-5.69152
11
4.0622
21
-5.68777
0
LINE
8
BLACK
6
CONTINUOUS
10
4.0622
20
-5.68777
11
4.06969
21
-5.67652
0
LINE
8
BLACK
6
CONTINUOUS
10
4.06969
20
-5.67652
11
4.07344
21
-5.66152
0
LINE
8
BLACK
6
CONTINUOUS
10
4.07344
20
-5.66152
11
4.07344
21
-5.63152
0
LINE
8
BLACK
6
CONTINUOUS
10
4.07344
20
-5.63152
11
4.06969
21
-5.62403
0
LINE
8
BLACK
6
CONTINUOUS
10
4.06969
20
-5.62403
11
4.06594
21
-5.62028
0
LINE
8
BLACK
6
CONTINUOUS
10
4.06594
20
-5.62028
11
4.05845
21
-5.61653
0
LINE
8
BLACK
6
CONTINUOUS
10
4.05845
20
-5.61653
11
4.04345
21
-5.61653
0
LINE
8
BLACK
6
CONTINUOUS
10
4.04345
20
-5.61653
11
4.03595
21
-5.62028
0
LINE
8
BLACK
6
CONTINUOUS
10
4.03595
20
-5.62028
11
4.0322
21
-5.62403
0
LINE
8
BLACK
6
CONTINUOUS
10
4.0322
20
-5.62403
11
4.02845
21
-5.63152
0
LINE
8
BLACK
6
CONTINUOUS
10
4.02845
20
-5.63152
11
4.02845
21
-5.65027
0
LINE
8
BLACK
6
CONTINUOUS
10
4.02845
20
-5.65027
11
4.0322
21
-5.65777
0
LINE
8
BLACK
6
CONTINUOUS
10
4.0322
20
-5.65777
11
4.03595
21
-5.66152
0
LINE
8
BLACK
6
CONTINUOUS
10
4.03595
20
-5.66152
11
4.04345
21
-5.66527
0
LINE
8
BLACK
6
CONTINUOUS
10
4.04345
20
-5.66527
11
4.05845
21
-5.66527
0
LINE
8
BLACK
6
CONTINUOUS
10
4.05845
20
-5.66527
11
4.06594
21
-5.66152
0
LINE
8
BLACK
6
CONTINUOUS
10
4.06594
20
-5.66152
11
4.06969
21
-5.65777
0
LINE
8
BLACK
6
CONTINUOUS
10
4.06969
20
-5.65777
11
4.07344
21
-5.65027
0
LINE
8
BLACK
6
CONTINUOUS
10
4.14094
20
-5.64277
11
4.14094
21
-5.69527
0
LINE
8
BLACK
6
CONTINUOUS
10
4.12219
20
-5.61278
11
4.10344
21
-5.66902
0
LINE
8
BLACK
6
CONTINUOUS
10
4.10344
20
-5.66902
11
4.15218
21
-5.66902
0
LINE
8
BLACK
6
CONTINUOUS
10
4.17843
20
-5.61653
11
4.17843
21
-5.63152
0
LINE
8
BLACK
6
CONTINUOUS
10
4.20843
20
-5.61653
11
4.20843
21
-5.63152
0
LINE
8
BLACK
6
CONTINUOUS
10
4.31191
20
-5.72526
11
4.30816
21
-5.72151
0
LINE
8
BLACK
6
CONTINUOUS
10
4.30816
20
-5.72151
11
4.30067
21
-5.71026
0
LINE
8
BLACK
6
CONTINUOUS
10
4.30067
20
-5.71026
11
4.29692
21
-5.70277
0
LINE
8
BLACK
6
CONTINUOUS
10
4.29692
20
-5.70277
11
4.29317
21
-5.69152
0
LINE
8
BLACK
6
CONTINUOUS
10
4.29317
20
-5.69152
11
4.28942
21
-5.67277
0
LINE
8
BLACK
6
CONTINUOUS
10
4.28942
20
-5.67277
11
4.28942
21
-5.65777
0
LINE
8
BLACK
6
CONTINUOUS
10
4.28942
20
-5.65777
11
4.29317
21
-5.63902
0
LINE
8
BLACK
6
CONTINUOUS
10
4.29317
20
-5.63902
11
4.29692
21
-5.62777
0
LINE
8
BLACK
6
CONTINUOUS
10
4.29692
20
-5.62777
11
4.30067
21
-5.62028
0
LINE
8
BLACK
6
CONTINUOUS
10
4.30067
20
-5.62028
11
4.30816
21
-5.60903
0
LINE
8
BLACK
6
CONTINUOUS
10
4.30816
20
-5.60903
11
4.31191
21
-5.60528
0
LINE
8
BLACK
6
CONTINUOUS
10
4.33441
20
-5.61653
11
4.3869
21
-5.61653
0
LINE
8
BLACK
6
CONTINUOUS
10
4.3869
20
-5.61653
11
4.35316
21
-5.69527
0
LINE
8
BLACK
6
CONTINUOUS
10
4.46415
20
-5.69527
11
4.46415
21
-5.61653
0
LINE
8
BLACK
6
CONTINUOUS
10
4.49789
20
-5.69527
11
4.49789
21
-5.65402
0
LINE
8
BLACK
6
CONTINUOUS
10
4.49789
20
-5.65402
11
4.49414
21
-5.64652
0
LINE
8
BLACK
6
CONTINUOUS
10
4.49414
20
-5.64652
11
4.48664
21
-5.64277
0
LINE
8
BLACK
6
CONTINUOUS
10
4.48664
20
-5.64277
11
4.47539
21
-5.64277
0
LINE
8
BLACK
6
CONTINUOUS
10
4.47539
20
-5.64277
11
4.46789
21
-5.64652
0
LINE
8
BLACK
6
CONTINUOUS
10
4.46789
20
-5.64652
11
4.46415
21
-5.65027
0
LINE
8
BLACK
6
CONTINUOUS
10
4.54663
20
-5.69527
11
4.53914
21
-5.69152
0
LINE
8
BLACK
6
CONTINUOUS
10
4.53914
20
-5.69152
11
4.53539
21
-5.68777
0
LINE
8
BLACK
6
CONTINUOUS
10
4.53539
20
-5.68777
11
4.53164
21
-5.68027
0
LINE
8
BLACK
6
CONTINUOUS
10
4.53164
20
-5.68027
11
4.53164
21
-5.65777
0
LINE
8
BLACK
6
CONTINUOUS
10
4.53164
20
-5.65777
11
4.53539
21
-5.65027
0
LINE
8
BLACK
6
CONTINUOUS
10
4.53539
20
-5.65027
11
4.53914
21
-5.64652
0
LINE
8
BLACK
6
CONTINUOUS
10
4.53914
20
-5.64652
11
4.54663
21
-5.64277
0
LINE
8
BLACK
6
CONTINUOUS
10
4.54663
20
-5.64277
11
4.55788
21
-5.64277
0
LINE
8
BLACK
6
CONTINUOUS
10
4.55788
20
-5.64277
11
4.56538
21
-5.64652
0
LINE
8
BLACK
6
CONTINUOUS
10
4.56538
20
-5.64652
11
4.56913
21
-5.65027
0
LINE
8
BLACK
6
CONTINUOUS
10
4.56913
20
-5.65027
11
4.57288
21
-5.65777
0
LINE
8
BLACK
6
CONTINUOUS
10
4.57288
20
-5.65777
11
4.57288
21
-5.68027
0
LINE
8
BLACK
6
CONTINUOUS
10
4.57288
20
-5.68027
11
4.56913
21
-5.68777
0
LINE
8
BLACK
6
CONTINUOUS
10
4.56913
20
-5.68777
11
4.56538
21
-5.69152
0
LINE
8
BLACK
6
CONTINUOUS
10
4.56538
20
-5.69152
11
4.55788
21
-5.69527
0
LINE
8
BLACK
6
CONTINUOUS
10
4.55788
20
-5.69527
11
4.54663
21
-5.69527
0
LINE
8
BLACK
6
CONTINUOUS
10
4.61788
20
-5.69527
11
4.61038
21
-5.69152
0
LINE
8
BLACK
6
CONTINUOUS
10
4.61038
20
-5.69152
11
4.60663
21
-5.68402
0
LINE
8
BLACK
6
CONTINUOUS
10
4.60663
20
-5.68402
11
4.60663
21
-5.61653
0
LINE
8
BLACK
6
CONTINUOUS
10
4.67787
20
-5.69152
11
4.67037
21
-5.69527
0
LINE
8
BLACK
6
CONTINUOUS
10
4.67037
20
-5.69527
11
4.65537
21
-5.69527
0
LINE
8
BLACK
6
CONTINUOUS
10
4.65537
20
-5.69527
11
4.64787
21
-5.69152
0
LINE
8
BLACK
6
CONTINUOUS
10
4.64787
20
-5.69152
11
4.64412
21
-5.68402
0
LINE
8
BLACK
6
CONTINUOUS
10
4.64412
20
-5.68402
11
4.64412
21
-5.65402
0
LINE
8
BLACK
6
CONTINUOUS
10
4.64412
20
-5.65402
11
4.64787
21
-5.64652
0
LINE
8
BLACK
6
CONTINUOUS
10
4.64787
20
-5.64652
11
4.65537
21
-5.64277
0
LINE
8
BLACK
6
CONTINUOUS
10
4.65537
20
-5.64277
11
4.67037
21
-5.64277
0
LINE
8
BLACK
6
CONTINUOUS
10
4.67037
20
-5.64277
11
4.67787
21
-5.64652
0
LINE
8
BLACK
6
CONTINUOUS
10
4.67787
20
-5.64652
11
4.68162
21
-5.65402
0
LINE
8
BLACK
6
CONTINUOUS
10
4.68162
20
-5.65402
11
4.68162
21
-5.66152
0
LINE
8
BLACK
6
CONTINUOUS
10
4.68162
20
-5.66152
11
4.64412
21
-5.66902
0
LINE
8
BLACK
6
CONTINUOUS
10
4.71161
20
-5.69152
11
4.71911
21
-5.69527
0
LINE
8
BLACK
6
CONTINUOUS
10
4.71911
20
-5.69527
11
4.73411
21
-5.69527
0
LINE
8
BLACK
6
CONTINUOUS
10
4.73411
20
-5.69527
11
4.74161
21
-5.69152
0
LINE
8
BLACK
6
CONTINUOUS
10
4.74161
20
-5.69152
11
4.74536
21
-5.68402
0
LINE
8
BLACK
6
CONTINUOUS
10
4.74536
20
-5.68402
11
4.74536
21
-5.68027
0
LINE
8
BLACK
6
CONTINUOUS
10
4.74536
20
-5.68027
11
4.74161
21
-5.67277
0
LINE
8
BLACK
6
CONTINUOUS
10
4.74161
20
-5.67277
11
4.73411
21
-5.66902
0
LINE
8
BLACK
6
CONTINUOUS
10
4.73411
20
-5.66902
11
4.72286
21
-5.66902
0
LINE
8
BLACK
6
CONTINUOUS
10
4.72286
20
-5.66902
11
4.71536
21
-5.66527
0
LINE
8
BLACK
6
CONTINUOUS
10
4.71536
20
-5.66527
11
4.71161
21
-5.65777
0
LINE
8
BLACK
6
CONTINUOUS
10
4.71161
20
-5.65777
11
4.71161
21
-5.65402
0
LINE
8
BLACK
6
CONTINUOUS
10
4.71161
20
-5.65402
11
4.71536
21
-5.64652
0
LINE
8
BLACK
6
CONTINUOUS
10
4.71536
20
-5.64652
11
4.72286
21
-5.64277
0
LINE
8
BLACK
6
CONTINUOUS
10
4.72286
20
-5.64277
11
4.73411
21
-5.64277
0
LINE
8
BLACK
6
CONTINUOUS
10
4.73411
20
-5.64277
11
4.74161
21
-5.64652
0
LINE
8
BLACK
6
CONTINUOUS
10
4.82635
20
-5.66527
11
4.88634
21
-5.66527
0
LINE
8
BLACK
6
CONTINUOUS
10
4.85635
20
-5.69527
11
4.85635
21
-5.63527
0
LINE
8
BLACK
6
CONTINUOUS
10
4.96358
20
-5.61653
11
5.01233
21
-5.61653
0
LINE
8
BLACK
6
CONTINUOUS
10
5.01233
20
-5.61653
11
4.98608
21
-5.64652
0
LINE
8
BLACK
6
CONTINUOUS
10
4.98608
20
-5.64652
11
4.99733
21
-5.64652
0
LINE
8
BLACK
6
CONTINUOUS
10
4.99733
20
-5.64652
11
5.00483
21
-5.65027
0
LINE
8
BLACK
6
CONTINUOUS
10
5.00483
20
-5.65027
11
5.00858
21
-5.65402
0
LINE
8
BLACK
6
CONTINUOUS
10
5.00858
20
-5.65402
11
5.01233
21
-5.66152
0
LINE
8
BLACK
6
CONTINUOUS
10
5.01233
20
-5.66152
11
5.01233
21
-5.68027
0
LINE
8
BLACK
6
CONTINUOUS
10
5.01233
20
-5.68027
11
5.00858
21
-5.68777
0
LINE
8
BLACK
6
CONTINUOUS
10
5.00858
20
-5.68777
11
5.00483
21
-5.69152
0
LINE
8
BLACK
6
CONTINUOUS
10
5.00483
20
-5.69152
11
4.99733
21
-5.69527
0
LINE
8
BLACK
6
CONTINUOUS
10
4.99733
20
-5.69527
11
4.97483
21
-5.69527
0
LINE
8
BLACK
6
CONTINUOUS
10
4.97483
20
-5.69527
11
4.96733
21
-5.69152
0
LINE
8
BLACK
6
CONTINUOUS
10
4.96733
20
-5.69152
11
4.96358
21
-5.68777
0
LINE
8
BLACK
6
CONTINUOUS
10
5.08957
20
-5.69152
11
5.09707
21
-5.69527
0
LINE
8
BLACK
6
CONTINUOUS
10
5.09707
20
-5.69527
11
5.11206
21
-5.69527
0
LINE
8
BLACK
6
CONTINUOUS
10
5.11206
20
-5.69527
11
5.11956
21
-5.69152
0
LINE
8
BLACK
6
CONTINUOUS
10
5.11956
20
-5.69152
11
5.12331
21
-5.68402
0
LINE
8
BLACK
6
CONTINUOUS
10
5.12331
20
-5.68402
11
5.12331
21
-5.68027
0
LINE
8
BLACK
6
CONTINUOUS
10
5.12331
20
-5.68027
11
5.11956
21
-5.67277
0
LINE
8
BLACK
6
CONTINUOUS
10
5.11956
20
-5.67277
11
5.11206
21
-5.66902
0
LINE
8
BLACK
6
CONTINUOUS
10
5.11206
20
-5.66902
11
5.10082
21
-5.66902
0
LINE
8
BLACK
6
CONTINUOUS
10
5.10082
20
-5.66902
11
5.09332
21
-5.66527
0
LINE
8
BLACK
6
CONTINUOUS
10
5.09332
20
-5.66527
11
5.08957
21
-5.65777
0
LINE
8
BLACK
6
CONTINUOUS
10
5.08957
20
-5.65777
11
5.08957
21
-5.65402
0
LINE
8
BLACK
6
CONTINUOUS
10
5.08957
20
-5.65402
11
5.09332
21
-5.64652
0
LINE
8
BLACK
6
CONTINUOUS
10
5.09332
20
-5.64652
11
5.10082
21
-5.64277
0
LINE
8
BLACK
6
CONTINUOUS
10
5.10082
20
-5.64277
11
5.11206
21
-5.64277
0
LINE
8
BLACK
6
CONTINUOUS
10
5.11206
20
-5.64277
11
5.11956
21
-5.64652
0
LINE
8
BLACK
6
CONTINUOUS
10
5.16831
20
-5.69527
11
5.16081
21
-5.69152
0
LINE
8
BLACK
6
CONTINUOUS
10
5.16081
20
-5.69152
11
5.15706
21
-5.68402
0
LINE
8
BLACK
6
CONTINUOUS
10
5.15706
20
-5.68402
11
5.15706
21
-5.61653
0
LINE
8
BLACK
6
CONTINUOUS
10
5.20955
20
-5.69527
11
5.20205
21
-5.69152
0
LINE
8
BLACK
6
CONTINUOUS
10
5.20205
20
-5.69152
11
5.1983
21
-5.68777
0
LINE
8
BLACK
6
CONTINUOUS
10
5.1983
20
-5.68777
11
5.19455
21
-5.68027
0
LINE
8
BLACK
6
CONTINUOUS
10
5.19455
20
-5.68027
11
5.19455
21
-5.65777
0
LINE
8
BLACK
6
CONTINUOUS
10
5.19455
20
-5.65777
11
5.1983
21
-5.65027
0
LINE
8
BLACK
6
CONTINUOUS
10
5.1983
20
-5.65027
11
5.20205
21
-5.64652
0
LINE
8
BLACK
6
CONTINUOUS
10
5.20205
20
-5.64652
11
5.20955
21
-5.64277
0
LINE
8
BLACK
6
CONTINUOUS
10
5.20955
20
-5.64277
11
5.2208
21
-5.64277
0
LINE
8
BLACK
6
CONTINUOUS
10
5.2208
20
-5.64277
11
5.2283
21
-5.64652
0
LINE
8
BLACK
6
CONTINUOUS
10
5.2283
20
-5.64652
11
5.23205
21
-5.65027
0
LINE
8
BLACK
6
CONTINUOUS
10
5.23205
20
-5.65027
11
5.2358
21
-5.65777
0
LINE
8
BLACK
6
CONTINUOUS
10
5.2358
20
-5.65777
11
5.2358
21
-5.68027
0
LINE
8
BLACK
6
CONTINUOUS
10
5.2358
20
-5.68027
11
5.23205
21
-5.68777
0
LINE
8
BLACK
6
CONTINUOUS
10
5.23205
20
-5.68777
11
5.2283
21
-5.69152
0
LINE
8
BLACK
6
CONTINUOUS
10
5.2283
20
-5.69152
11
5.2208
21
-5.69527
0
LINE
8
BLACK
6
CONTINUOUS
10
5.2208
20
-5.69527
11
5.20955
21
-5.69527
0
LINE
8
BLACK
6
CONTINUOUS
10
5.2583
20
-5.64277
11
5.28829
21
-5.64277
0
LINE
8
BLACK
6
CONTINUOUS
10
5.26954
20
-5.61653
11
5.26954
21
-5.68402
0
LINE
8
BLACK
6
CONTINUOUS
10
5.26954
20
-5.68402
11
5.27329
21
-5.69152
0
LINE
8
BLACK
6
CONTINUOUS
10
5.27329
20
-5.69152
11
5.28079
21
-5.69527
0
LINE
8
BLACK
6
CONTINUOUS
10
5.28079
20
-5.69527
11
5.28829
21
-5.69527
0
LINE
8
BLACK
6
CONTINUOUS
10
5.31079
20
-5.69152
11
5.31829
21
-5.69527
0
LINE
8
BLACK
6
CONTINUOUS
10
5.31829
20
-5.69527
11
5.33329
21
-5.69527
0
LINE
8
BLACK
6
CONTINUOUS
10
5.33329
20
-5.69527
11
5.34079
21
-5.69152
0
LINE
8
BLACK
6
CONTINUOUS
10
5.34079
20
-5.69152
11
5.34454
21
-5.68402
0
LINE
8
BLACK
6
CONTINUOUS
10
5.34454
20
-5.68402
11
5.34454
21
-5.68027
0
LINE
8
BLACK
6
CONTINUOUS
10
5.34454
20
-5.68027
11
5.34079
21
-5.67277
0
LINE
8
BLACK
6
CONTINUOUS
10
5.34079
20
-5.67277
11
5.33329
21
-5.66902
0
LINE
8
BLACK
6
CONTINUOUS
10
5.33329
20
-5.66902
11
5.32204
21
-5.66902
0
LINE
8
BLACK
6
CONTINUOUS
10
5.32204
20
-5.66902
11
5.31454
21
-5.66527
0
LINE
8
BLACK
6
CONTINUOUS
10
5.31454
20
-5.66527
11
5.31079
21
-5.65777
0
LINE
8
BLACK
6
CONTINUOUS
10
5.31079
20
-5.65777
11
5.31079
21
-5.65402
0
LINE
8
BLACK
6
CONTINUOUS
10
5.31079
20
-5.65402
11
5.31454
21
-5.64652
0
LINE
8
BLACK
6
CONTINUOUS
10
5.31454
20
-5.64652
11
5.32204
21
-5.64277
0
LINE
8
BLACK
6
CONTINUOUS
10
5.32204
20
-5.64277
11
5.33329
21
-5.64277
0
LINE
8
BLACK
6
CONTINUOUS
10
5.33329
20
-5.64277
11
5.34079
21
-5.64652
0
LINE
8
BLACK
6
CONTINUOUS
10
5.37078
20
-5.72526
11
5.37453
21
-5.72151
0
LINE
8
BLACK
6
CONTINUOUS
10
5.37453
20
-5.72151
11
5.38203
21
-5.71026
0
LINE
8
BLACK
6
CONTINUOUS
10
5.38203
20
-5.71026
11
5.38578
21
-5.70277
0
LINE
8
BLACK
6
CONTINUOUS
10
5.38578
20
-5.70277
11
5.38953
21
-5.69152
0
LINE
8
BLACK
6
CONTINUOUS
10
5.38953
20
-5.69152
11
5.39328
21
-5.67277
0
LINE
8
BLACK
6
CONTINUOUS
10
5.39328
20
-5.67277
11
5.39328
21
-5.65777
0
LINE
8
BLACK
6
CONTINUOUS
10
5.39328
20
-5.65777
11
5.38953
21
-5.63902
0
LINE
8
BLACK
6
CONTINUOUS
10
5.38953
20
-5.63902
11
5.38578
21
-5.62777
0
LINE
8
BLACK
6
CONTINUOUS
10
5.38578
20
-5.62777
11
5.38203
21
-5.62028
0
LINE
8
BLACK
6
CONTINUOUS
10
5.38203
20
-5.62028
11
5.37453
21
-5.60903
0
LINE
8
BLACK
6
CONTINUOUS
10
5.37453
20
-5.60903
11
5.37078
21
-5.60528
0
LINE
8
BLACK
6
CONTINUOUS
10
2.89665
20
-5.74469
11
2.94783
21
-5.79587
0
LINE
8
BLACK
6
CONTINUOUS
10
2.94783
20
-5.74469
11
2.89665
21
-5.79587
0
LINE
8
BLACK
6
CONTINUOUS
10
2.92224
20
-5.74469
11
2.92224
21
-5.79587
0
LINE
8
BLACK
6
CONTINUOUS
10
2.89665
20
-5.77028
11
2.94783
21
-5.77028
0
LINE
8
BLACK
6
CONTINUOUS
10
3.08657
20
-5.7992
11
3.04157
21
-5.7992
0
LINE
8
BLACK
6
CONTINUOUS
10
3.06407
20
-5.7992
11
3.06407
21
-5.72046
0
LINE
8
BLACK
6
CONTINUOUS
10
3.06407
20
-5.72046
11
3.05657
21
-5.73171
0
LINE
8
BLACK
6
CONTINUOUS
10
3.05657
20
-5.73171
11
3.04907
21
-5.73921
0
LINE
8
BLACK
6
CONTINUOUS
10
3.04907
20
-5.73921
11
3.04157
21
-5.74296
0
LINE
8
BLACK
6
CONTINUOUS
10
3.12031
20
-5.7917
11
3.12406
21
-5.79545
0
LINE
8
BLACK
6
CONTINUOUS
10
3.12406
20
-5.79545
11
3.12031
21
-5.7992
0
LINE
8
BLACK
6
CONTINUOUS
10
3.12031
20
-5.7992
11
3.11656
21
-5.79545
0
LINE
8
BLACK
6
CONTINUOUS
10
3.11656
20
-5.79545
11
3.12031
21
-5.7917
0
LINE
8
BLACK
6
CONTINUOUS
10
3.12031
20
-5.7917
11
3.12031
21
-5.7992
0
LINE
8
BLACK
6
CONTINUOUS
10
3.15031
20
-5.72046
11
3.19905
21
-5.72046
0
LINE
8
BLACK
6
CONTINUOUS
10
3.19905
20
-5.72046
11
3.17281
21
-5.75046
0
LINE
8
BLACK
6
CONTINUOUS
10
3.17281
20
-5.75046
11
3.18406
21
-5.75046
0
LINE
8
BLACK
6
CONTINUOUS
10
3.18406
20
-5.75046
11
3.19155
21
-5.75421
0
LINE
8
BLACK
6
CONTINUOUS
10
3.19155
20
-5.75421
11
3.1953
21
-5.75796
0
LINE
8
BLACK
6
CONTINUOUS
10
3.1953
20
-5.75796
11
3.19905
21
-5.76546
0
LINE
8
BLACK
6
CONTINUOUS
10
3.19905
20
-5.76546
11
3.19905
21
-5.78421
0
LINE
8
BLACK
6
CONTINUOUS
10
3.19905
20
-5.78421
11
3.1953
21
-5.7917
0
LINE
8
BLACK
6
CONTINUOUS
10
3.1953
20
-5.7917
11
3.19155
21
-5.79545
0
LINE
8
BLACK
6
CONTINUOUS
10
3.19155
20
-5.79545
11
3.18406
21
-5.7992
0
LINE
8
BLACK
6
CONTINUOUS
10
3.18406
20
-5.7992
11
3.16156
21
-5.7992
0
LINE
8
BLACK
6
CONTINUOUS
10
3.16156
20
-5.7992
11
3.15406
21
-5.79545
0
LINE
8
BLACK
6
CONTINUOUS
10
3.15406
20
-5.79545
11
3.15031
21
-5.7917
0
LINE
8
BLACK
6
CONTINUOUS
10
3.2478
20
-5.72046
11
3.2553
21
-5.72046
0
LINE
8
BLACK
6
CONTINUOUS
10
3.2553
20
-5.72046
11
3.2628
21
-5.72421
0
LINE
8
BLACK
6
CONTINUOUS
10
3.2628
20
-5.72421
11
3.26654
21
-5.72796
0
LINE
8
BLACK
6
CONTINUOUS
10
3.26654
20
-5.72796
11
3.27029
21
-5.73546
0
LINE
8
BLACK
6
CONTINUOUS
10
3.27029
20
-5.73546
11
3.27404
21
-5.75046
0
LINE
8
BLACK
6
CONTINUOUS
10
3.27404
20
-5.75046
11
3.27404
21
-5.76921
0
LINE
8
BLACK
6
CONTINUOUS
10
3.27404
20
-5.76921
11
3.27029
21
-5.78421
0
LINE
8
BLACK
6
CONTINUOUS
10
3.27029
20
-5.78421
11
3.26654
21
-5.7917
0
LINE
8
BLACK
6
CONTINUOUS
10
3.26654
20
-5.7917
11
3.2628
21
-5.79545
0
LINE
8
BLACK
6
CONTINUOUS
10
3.2628
20
-5.79545
11
3.2553
21
-5.7992
0
LINE
8
BLACK
6
CONTINUOUS
10
3.2553
20
-5.7992
11
3.2478
21
-5.7992
0
LINE
8
BLACK
6
CONTINUOUS
10
3.2478
20
-5.7992
11
3.2403
21
-5.79545
0
LINE
8
BLACK
6
CONTINUOUS
10
3.2403
20
-5.79545
11
3.23655
21
-5.7917
0
LINE
8
BLACK
6
CONTINUOUS
10
3.23655
20
-5.7917
11
3.2328
21
-5.78421
0
LINE
8
BLACK
6
CONTINUOUS
10
3.2328
20
-5.78421
11
3.22905
21
-5.76921
0
LINE
8
BLACK
6
CONTINUOUS
10
3.22905
20
-5.76921
11
3.22905
21
-5.75046
0
LINE
8
BLACK
6
CONTINUOUS
10
3.22905
20
-5.75046
11
3.2328
21
-5.73546
0
LINE
8
BLACK
6
CONTINUOUS
10
3.2328
20
-5.73546
11
3.23655
21
-5.72796
0
LINE
8
BLACK
6
CONTINUOUS
10
3.23655
20
-5.72796
11
3.2403
21
-5.72421
0
LINE
8
BLACK
6
CONTINUOUS
10
3.2403
20
-5.72421
11
3.2478
21
-5.72046
0
LINE
8
BLACK
6
CONTINUOUS
10
3.32279
20
-5.72046
11
3.33029
21
-5.72046
0
LINE
8
BLACK
6
CONTINUOUS
10
3.33029
20
-5.72046
11
3.33779
21
-5.72421
0
LINE
8
BLACK
6
CONTINUOUS
10
3.33779
20
-5.72421
11
3.34154
21
-5.72796
0
LINE
8
BLACK
6
CONTINUOUS
10
3.34154
20
-5.72796
11
3.34528
21
-5.73546
0
LINE
8
BLACK
6
CONTINUOUS
10
3.34528
20
-5.73546
11
3.34903
21
-5.75046
0
LINE
8
BLACK
6
CONTINUOUS
10
3.34903
20
-5.75046
11
3.34903
21
-5.76921
0
LINE
8
BLACK
6
CONTINUOUS
10
3.34903
20
-5.76921
11
3.34528
21
-5.78421
0
LINE
8
BLACK
6
CONTINUOUS
10
3.34528
20
-5.78421
11
3.34154
21
-5.7917
0
LINE
8
BLACK
6
CONTINUOUS
10
3.34154
20
-5.7917
11
3.33779
21
-5.79545
0
LINE
8
BLACK
6
CONTINUOUS
10
3.33779
20
-5.79545
11
3.33029
21
-5.7992
0
LINE
8
BLACK
6
CONTINUOUS
10
3.33029
20
-5.7992
11
3.32279
21
-5.7992
0
LINE
8
BLACK
6
CONTINUOUS
10
3.32279
20
-5.7992
11
3.31529
21
-5.79545
0
LINE
8
BLACK
6
CONTINUOUS
10
3.31529
20
-5.79545
11
3.31154
21
-5.7917
0
LINE
8
BLACK
6
CONTINUOUS
10
3.31154
20
-5.7917
11
3.30779
21
-5.78421
0
LINE
8
BLACK
6
CONTINUOUS
10
3.30779
20
-5.78421
11
3.30404
21
-5.76921
0
LINE
8
BLACK
6
CONTINUOUS
10
3.30404
20
-5.76921
11
3.30404
21
-5.75046
0
LINE
8
BLACK
6
CONTINUOUS
10
3.30404
20
-5.75046
11
3.30779
21
-5.73546
0
LINE
8
BLACK
6
CONTINUOUS
10
3.30779
20
-5.73546
11
3.31154
21
-5.72796
0
LINE
8
BLACK
6
CONTINUOUS
10
3.31154
20
-5.72796
11
3.31529
21
-5.72421
0
LINE
8
BLACK
6
CONTINUOUS
10
3.31529
20
-5.72421
11
3.32279
21
-5.72046
0
LINE
8
BLACK
6
CONTINUOUS
10
3.38278
20
-5.7992
11
3.38278
21
-5.74671
0
LINE
8
BLACK
6
CONTINUOUS
10
3.38278
20
-5.75421
11
3.38653
21
-5.75046
0
LINE
8
BLACK
6
CONTINUOUS
10
3.38653
20
-5.75046
11
3.39403
21
-5.74671
0
LINE
8
BLACK
6
CONTINUOUS
10
3.39403
20
-5.74671
11
3.40528
21
-5.74671
0
LINE
8
BLACK
6
CONTINUOUS
10
3.40528
20
-5.74671
11
3.41278
21
-5.75046
0
LINE
8
BLACK
6
CONTINUOUS
10
3.41278
20
-5.75046
11
3.41653
21
-5.75796
0
LINE
8
BLACK
6
CONTINUOUS
10
3.41653
20
-5.75796
11
3.41653
21
-5.7992
0
LINE
8
BLACK
6
CONTINUOUS
10
3.41653
20
-5.75796
11
3.42028
21
-5.75046
0
LINE
8
BLACK
6
CONTINUOUS
10
3.42028
20
-5.75046
11
3.42777
21
-5.74671
0
LINE
8
BLACK
6
CONTINUOUS
10
3.42777
20
-5.74671
11
3.43902
21
-5.74671
0
LINE
8
BLACK
6
CONTINUOUS
10
3.43902
20
-5.74671
11
3.44652
21
-5.75046
0
LINE
8
BLACK
6
CONTINUOUS
10
3.44652
20
-5.75046
11
3.45027
21
-5.75796
0
LINE
8
BLACK
6
CONTINUOUS
10
3.45027
20
-5.75796
11
3.45027
21
-5.7992
0
LINE
8
BLACK
6
CONTINUOUS
10
3.48777
20
-5.7992
11
3.48777
21
-5.74671
0
LINE
8
BLACK
6
CONTINUOUS
10
3.48777
20
-5.75421
11
3.49152
21
-5.75046
0
LINE
8
BLACK
6
CONTINUOUS
10
3.49152
20
-5.75046
11
3.49902
21
-5.74671
0
LINE
8
BLACK
6
CONTINUOUS
10
3.49902
20
-5.74671
11
3.51026
21
-5.74671
0
LINE
8
BLACK
6
CONTINUOUS
10
3.51026
20
-5.74671
11
3.51776
21
-5.75046
0
LINE
8
BLACK
6
CONTINUOUS
10
3.51776
20
-5.75046
11
3.52151
21
-5.75796
0
LINE
8
BLACK
6
CONTINUOUS
10
3.52151
20
-5.75796
11
3.52151
21
-5.7992
0
LINE
8
BLACK
6
CONTINUOUS
10
3.52151
20
-5.75796
11
3.52526
21
-5.75046
0
LINE
8
BLACK
6
CONTINUOUS
10
3.52526
20
-5.75046
11
3.53276
21
-5.74671
0
LINE
8
BLACK
6
CONTINUOUS
10
3.53276
20
-5.74671
11
3.54401
21
-5.74671
0
LINE
8
BLACK
6
CONTINUOUS
10
3.54401
20
-5.74671
11
3.55151
21
-5.75046
0
LINE
8
BLACK
6
CONTINUOUS
10
3.55151
20
-5.75046
11
3.55526
21
-5.75796
0
LINE
8
BLACK
6
CONTINUOUS
10
3.55526
20
-5.75796
11
3.55526
21
-5.7992
0
LINE
8
BLACK
6
CONTINUOUS
10
3.69624
20
-5.71671
11
3.62875
21
-5.81795
0
LINE
8
BLACK
6
CONTINUOUS
10
3.78473
20
-5.72046
11
3.79223
21
-5.72046
0
LINE
8
BLACK
6
CONTINUOUS
10
3.79223
20
-5.72046
11
3.79973
21
-5.72421
0
LINE
8
BLACK
6
CONTINUOUS
10
3.79973
20
-5.72421
11
3.80348
21
-5.72796
0
LINE
8
BLACK
6
CONTINUOUS
10
3.80348
20
-5.72796
11
3.80723
21
-5.73546
0
LINE
8
BLACK
6
CONTINUOUS
10
3.80723
20
-5.73546
11
3.81098
21
-5.75046
0
LINE
8
BLACK
6
CONTINUOUS
10
3.81098
20
-5.75046
11
3.81098
21
-5.76921
0
LINE
8
BLACK
6
CONTINUOUS
10
3.81098
20
-5.76921
11
3.80723
21
-5.78421
0
LINE
8
BLACK
6
CONTINUOUS
10
3.80723
20
-5.78421
11
3.80348
21
-5.7917
0
LINE
8
BLACK
6
CONTINUOUS
10
3.80348
20
-5.7917
11
3.79973
21
-5.79545
0
LINE
8
BLACK
6
CONTINUOUS
10
3.79973
20
-5.79545
11
3.79223
21
-5.7992
0
LINE
8
BLACK
6
CONTINUOUS
10
3.79223
20
-5.7992
11
3.78473
21
-5.7992
0
LINE
8
BLACK
6
CONTINUOUS
10
3.78473
20
-5.7992
11
3.77723
21
-5.79545
0
LINE
8
BLACK
6
CONTINUOUS
10
3.77723
20
-5.79545
11
3.77348
21
-5.7917
0
LINE
8
BLACK
6
CONTINUOUS
10
3.77348
20
-5.7917
11
3.76973
21
-5.78421
0
LINE
8
BLACK
6
CONTINUOUS
10
3.76973
20
-5.78421
11
3.76598
21
-5.76921
0
LINE
8
BLACK
6
CONTINUOUS
10
3.76598
20
-5.76921
11
3.76598
21
-5.75046
0
LINE
8
BLACK
6
CONTINUOUS
10
3.76598
20
-5.75046
11
3.76973
21
-5.73546
0
LINE
8
BLACK
6
CONTINUOUS
10
3.76973
20
-5.73546
11
3.77348
21
-5.72796
0
LINE
8
BLACK
6
CONTINUOUS
10
3.77348
20
-5.72796
11
3.77723
21
-5.72421
0
LINE
8
BLACK
6
CONTINUOUS
10
3.77723
20
-5.72421
11
3.78473
21
-5.72046
0
LINE
8
BLACK
6
CONTINUOUS
10
3.84472
20
-5.7917
11
3.84847
21
-5.79545
0
LINE
8
BLACK
6
CONTINUOUS
10
3.84847
20
-5.79545
11
3.84472
21
-5.7992
0
LINE
8
BLACK
6
CONTINUOUS
10
3.84472
20
-5.7992
11
3.84097
21
-5.79545
0
LINE
8
BLACK
6
CONTINUOUS
10
3.84097
20
-5.79545
11
3.84472
21
-5.7917
0
LINE
8
BLACK
6
CONTINUOUS
10
3.84472
20
-5.7917
11
3.84472
21
-5.7992
0
LINE
8
BLACK
6
CONTINUOUS
10
3.89722
20
-5.72046
11
3.90472
21
-5.72046
0
LINE
8
BLACK
6
CONTINUOUS
10
3.90472
20
-5.72046
11
3.91221
21
-5.72421
0
LINE
8
BLACK
6
CONTINUOUS
10
3.91221
20
-5.72421
11
3.91596
21
-5.72796
0
LINE
8
BLACK
6
CONTINUOUS
10
3.91596
20
-5.72796
11
3.91971
21
-5.73546
0
LINE
8
BLACK
6
CONTINUOUS
10
3.91971
20
-5.73546
11
3.92346
21
-5.75046
0
LINE
8
BLACK
6
CONTINUOUS
10
3.92346
20
-5.75046
11
3.92346
21
-5.76921
0
LINE
8
BLACK
6
CONTINUOUS
10
3.92346
20
-5.76921
11
3.91971
21
-5.78421
0
LINE
8
BLACK
6
CONTINUOUS
10
3.91971
20
-5.78421
11
3.91596
21
-5.7917
0
LINE
8
BLACK
6
CONTINUOUS
10
3.91596
20
-5.7917
11
3.91221
21
-5.79545
0
LINE
8
BLACK
6
CONTINUOUS
10
3.91221
20
-5.79545
11
3.90472
21
-5.7992
0
LINE
8
BLACK
6
CONTINUOUS
10
3.90472
20
-5.7992
11
3.89722
21
-5.7992
0
LINE
8
BLACK
6
CONTINUOUS
10
3.89722
20
-5.7992
11
3.88972
21
-5.79545
0
LINE
8
BLACK
6
CONTINUOUS
10
3.88972
20
-5.79545
11
3.88597
21
-5.7917
0
LINE
8
BLACK
6
CONTINUOUS
10
3.88597
20
-5.7917
11
3.88222
21
-5.78421
0
LINE
8
BLACK
6
CONTINUOUS
10
3.88222
20
-5.78421
11
3.87847
21
-5.76921
0
LINE
8
BLACK
6
CONTINUOUS
10
3.87847
20
-5.76921
11
3.87847
21
-5.75046
0
LINE
8
BLACK
6
CONTINUOUS
10
3.87847
20
-5.75046
11
3.88222
21
-5.73546
0
LINE
8
BLACK
6
CONTINUOUS
10
3.88222
20
-5.73546
11
3.88597
21
-5.72796
0
LINE
8
BLACK
6
CONTINUOUS
10
3.88597
20
-5.72796
11
3.88972
21
-5.72421
0
LINE
8
BLACK
6
CONTINUOUS
10
3.88972
20
-5.72421
11
3.89722
21
-5.72046
0
LINE
8
BLACK
6
CONTINUOUS
10
3.9947
20
-5.72046
11
3.95721
21
-5.72046
0
LINE
8
BLACK
6
CONTINUOUS
10
3.95721
20
-5.72046
11
3.95346
21
-5.75796
0
LINE
8
BLACK
6
CONTINUOUS
10
3.95346
20
-5.75796
11
3.95721
21
-5.75421
0
LINE
8
BLACK
6
CONTINUOUS
10
3.95721
20
-5.75421
11
3.96471
21
-5.75046
0
LINE
8
BLACK
6
CONTINUOUS
10
3.96471
20
-5.75046
11
3.98346
21
-5.75046
0
LINE
8
BLACK
6
CONTINUOUS
10
3.98346
20
-5.75046
11
3.99095
21
-5.75421
0
LINE
8
BLACK
6
CONTINUOUS
10
3.99095
20
-5.75421
11
3.9947
21
-5.75796
0
LINE
8
BLACK
6
CONTINUOUS
10
3.9947
20
-5.75796
11
3.99845
21
-5.76546
0
LINE
8
BLACK
6
CONTINUOUS
10
3.99845
20
-5.76546
11
3.99845
21
-5.78421
0
LINE
8
BLACK
6
CONTINUOUS
10
3.99845
20
-5.78421
11
3.9947
21
-5.7917
0
LINE
8
BLACK
6
CONTINUOUS
10
3.9947
20
-5.7917
11
3.99095
21
-5.79545
0
LINE
8
BLACK
6
CONTINUOUS
10
3.99095
20
-5.79545
11
3.98346
21
-5.7992
0
LINE
8
BLACK
6
CONTINUOUS
10
3.98346
20
-5.7992
11
3.96471
21
-5.7992
0
LINE
8
BLACK
6
CONTINUOUS
10
3.96471
20
-5.7992
11
3.95721
21
-5.79545
0
LINE
8
BLACK
6
CONTINUOUS
10
3.95721
20
-5.79545
11
3.95346
21
-5.7917
0
LINE
8
BLACK
6
CONTINUOUS
10
4.07344
20
-5.7992
11
4.02845
21
-5.7992
0
LINE
8
BLACK
6
CONTINUOUS
10
4.05095
20
-5.7992
11
4.05095
21
-5.72046
0
LINE
8
BLACK
6
CONTINUOUS
10
4.05095
20
-5.72046
11
4.04345
21
-5.73171
0
LINE
8
BLACK
6
CONTINUOUS
10
4.04345
20
-5.73171
11
4.03595
21
-5.73921
0
LINE
8
BLACK
6
CONTINUOUS
10
4.03595
20
-5.73921
11
4.02845
21
-5.74296
0
LINE
8
BLACK
6
CONTINUOUS
10
4.10344
20
-5.72796
11
4.10719
21
-5.72421
0
LINE
8
BLACK
6
CONTINUOUS
10
4.10719
20
-5.72421
11
4.11469
21
-5.72046
0
LINE
8
BLACK
6
CONTINUOUS
10
4.11469
20
-5.72046
11
4.13344
21
-5.72046
0
LINE
8
BLACK
6
CONTINUOUS
10
4.13344
20
-5.72046
11
4.14094
21
-5.72421
0
LINE
8
BLACK
6
CONTINUOUS
10
4.14094
20
-5.72421
11
4.14469
21
-5.72796
0
LINE
8
BLACK
6
CONTINUOUS
10
4.14469
20
-5.72796
11
4.14843
21
-5.73546
0
LINE
8
BLACK
6
CONTINUOUS
10
4.14843
20
-5.73546
11
4.14843
21
-5.74296
0
LINE
8
BLACK
6
CONTINUOUS
10
4.14843
20
-5.74296
11
4.14469
21
-5.75421
0
LINE
8
BLACK
6
CONTINUOUS
10
4.14469
20
-5.75421
11
4.09969
21
-5.7992
0
LINE
8
BLACK
6
CONTINUOUS
10
4.09969
20
-5.7992
11
4.14843
21
-5.7992
0
LINE
8
BLACK
6
CONTINUOUS
10
4.17843
20
-5.72046
11
4.17843
21
-5.73546
0
LINE
8
BLACK
6
CONTINUOUS
10
4.20843
20
-5.72046
11
4.20843
21
-5.73546
0
LINE
8
BLACK
6
CONTINUOUS
10
4.31191
20
-5.8292
11
4.30816
21
-5.82545
0
LINE
8
BLACK
6
CONTINUOUS
10
4.30816
20
-5.82545
11
4.30067
21
-5.8142
0
LINE
8
BLACK
6
CONTINUOUS
10
4.30067
20
-5.8142
11
4.29692
21
-5.8067
0
LINE
8
BLACK
6
CONTINUOUS
10
4.29692
20
-5.8067
11
4.29317
21
-5.79545
0
LINE
8
BLACK
6
CONTINUOUS
10
4.29317
20
-5.79545
11
4.28942
21
-5.77671
0
LINE
8
BLACK
6
CONTINUOUS
10
4.28942
20
-5.77671
11
4.28942
21
-5.76171
0
LINE
8
BLACK
6
CONTINUOUS
10
4.28942
20
-5.76171
11
4.29317
21
-5.74296
0
LINE
8
BLACK
6
CONTINUOUS
10
4.29317
20
-5.74296
11
4.29692
21
-5.73171
0
LINE
8
BLACK
6
CONTINUOUS
10
4.29692
20
-5.73171
11
4.30067
21
-5.72421
0
LINE
8
BLACK
6
CONTINUOUS
10
4.30067
20
-5.72421
11
4.30816
21
-5.71296
0
LINE
8
BLACK
6
CONTINUOUS
10
4.30816
20
-5.71296
11
4.31191
21
-5.70921
0
LINE
8
BLACK
6
CONTINUOUS
10
4.33816
20
-5.72796
11
4.34191
21
-5.72421
0
LINE
8
BLACK
6
CONTINUOUS
10
4.34191
20
-5.72421
11
4.34941
21
-5.72046
0
LINE
8
BLACK
6
CONTINUOUS
10
4.34941
20
-5.72046
11
4.36816
21
-5.72046
0
LINE
8
BLACK
6
CONTINUOUS
10
4.36816
20
-5.72046
11
4.37566
21
-5.72421
0
LINE
8
BLACK
6
CONTINUOUS
10
4.37566
20
-5.72421
11
4.37941
21
-5.72796
0
LINE
8
BLACK
6
CONTINUOUS
10
4.37941
20
-5.72796
11
4.38316
21
-5.73546
0
LINE
8
BLACK
6
CONTINUOUS
10
4.38316
20
-5.73546
11
4.38316
21
-5.74296
0
LINE
8
BLACK
6
CONTINUOUS
10
4.38316
20
-5.74296
11
4.37941
21
-5.75421
0
LINE
8
BLACK
6
CONTINUOUS
10
4.37941
20
-5.75421
11
4.33441
21
-5.7992
0
LINE
8
BLACK
6
CONTINUOUS
10
4.33441
20
-5.7992
11
4.38316
21
-5.7992
0
LINE
8
BLACK
6
CONTINUOUS
10
4.46415
20
-5.7992
11
4.46415
21
-5.72046
0
LINE
8
BLACK
6
CONTINUOUS
10
4.49789
20
-5.7992
11
4.49789
21
-5.75796
0
LINE
8
BLACK
6
CONTINUOUS
10
4.49789
20
-5.75796
11
4.49414
21
-5.75046
0
LINE
8
BLACK
6
CONTINUOUS
10
4.49414
20
-5.75046
11
4.48664
21
-5.74671
0
LINE
8
BLACK
6
CONTINUOUS
10
4.48664
20
-5.74671
11
4.47539
21
-5.74671
0
LINE
8
BLACK
6
CONTINUOUS
10
4.47539
20
-5.74671
11
4.46789
21
-5.75046
0
LINE
8
BLACK
6
CONTINUOUS
10
4.46789
20
-5.75046
11
4.46415
21
-5.75421
0
LINE
8
BLACK
6
CONTINUOUS
10
4.54663
20
-5.7992
11
4.53914
21
-5.79545
0
LINE
8
BLACK
6
CONTINUOUS
10
4.53914
20
-5.79545
11
4.53539
21
-5.7917
0
LINE
8
BLACK
6
CONTINUOUS
10
4.53539
20
-5.7917
11
4.53164
21
-5.78421
0
LINE
8
BLACK
6
CONTINUOUS
10
4.53164
20
-5.78421
11
4.53164
21
-5.76171
0
LINE
8
BLACK
6
CONTINUOUS
10
4.53164
20
-5.76171
11
4.53539
21
-5.75421
0
LINE
8
BLACK
6
CONTINUOUS
10
4.53539
20
-5.75421
11
4.53914
21
-5.75046
0
LINE
8
BLACK
6
CONTINUOUS
10
4.53914
20
-5.75046
11
4.54663
21
-5.74671
0
LINE
8
BLACK
6
CONTINUOUS
10
4.54663
20
-5.74671
11
4.55788
21
-5.74671
0
LINE
8
BLACK
6
CONTINUOUS
10
4.55788
20
-5.74671
11
4.56538
21
-5.75046
0
LINE
8
BLACK
6
CONTINUOUS
10
4.56538
20
-5.75046
11
4.56913
21
-5.75421
0
LINE
8
BLACK
6
CONTINUOUS
10
4.56913
20
-5.75421
11
4.57288
21
-5.76171
0
LINE
8
BLACK
6
CONTINUOUS
10
4.57288
20
-5.76171
11
4.57288
21
-5.78421
0
LINE
8
BLACK
6
CONTINUOUS
10
4.57288
20
-5.78421
11
4.56913
21
-5.7917
0
LINE
8
BLACK
6
CONTINUOUS
10
4.56913
20
-5.7917
11
4.56538
21
-5.79545
0
LINE
8
BLACK
6
CONTINUOUS
10
4.56538
20
-5.79545
11
4.55788
21
-5.7992
0
LINE
8
BLACK
6
CONTINUOUS
10
4.55788
20
-5.7992
11
4.54663
21
-5.7992
0
LINE
8
BLACK
6
CONTINUOUS
10
4.61788
20
-5.7992
11
4.61038
21
-5.79545
0
LINE
8
BLACK
6
CONTINUOUS
10
4.61038
20
-5.79545
11
4.60663
21
-5.78795
0
LINE
8
BLACK
6
CONTINUOUS
10
4.60663
20
-5.78795
11
4.60663
21
-5.72046
0
LINE
8
BLACK
6
CONTINUOUS
10
4.67787
20
-5.79545
11
4.67037
21
-5.7992
0
LINE
8
BLACK
6
CONTINUOUS
10
4.67037
20
-5.7992
11
4.65537
21
-5.7992
0
LINE
8
BLACK
6
CONTINUOUS
10
4.65537
20
-5.7992
11
4.64787
21
-5.79545
0
LINE
8
BLACK
6
CONTINUOUS
10
4.64787
20
-5.79545
11
4.64412
21
-5.78795
0
LINE
8
BLACK
6
CONTINUOUS
10
4.64412
20
-5.78795
11
4.64412
21
-5.75796
0
LINE
8
BLACK
6
CONTINUOUS
10
4.64412
20
-5.75796
11
4.64787
21
-5.75046
0
LINE
8
BLACK
6
CONTINUOUS
10
4.64787
20
-5.75046
11
4.65537
21
-5.74671
0
LINE
8
BLACK
6
CONTINUOUS
10
4.65537
20
-5.74671
11
4.67037
21
-5.74671
0
LINE
8
BLACK
6
CONTINUOUS
10
4.67037
20
-5.74671
11
4.67787
21
-5.75046
0
LINE
8
BLACK
6
CONTINUOUS
10
4.67787
20
-5.75046
11
4.68162
21
-5.75796
0
LINE
8
BLACK
6
CONTINUOUS
10
4.68162
20
-5.75796
11
4.68162
21
-5.76546
0
LINE
8
BLACK
6
CONTINUOUS
10
4.68162
20
-5.76546
11
4.64412
21
-5.77296
0
LINE
8
BLACK
6
CONTINUOUS
10
4.71161
20
-5.79545
11
4.71911
21
-5.7992
0
LINE
8
BLACK
6
CONTINUOUS
10
4.71911
20
-5.7992
11
4.73411
21
-5.7992
0
LINE
8
BLACK
6
CONTINUOUS
10
4.73411
20
-5.7992
11
4.74161
21
-5.79545
0
LINE
8
BLACK
6
CONTINUOUS
10
4.74161
20
-5.79545
11
4.74536
21
-5.78795
0
LINE
8
BLACK
6
CONTINUOUS
10
4.74536
20
-5.78795
11
4.74536
21
-5.78421
0
LINE
8
BLACK
6
CONTINUOUS
10
4.74536
20
-5.78421
11
4.74161
21
-5.77671
0
LINE
8
BLACK
6
CONTINUOUS
10
4.74161
20
-5.77671
11
4.73411
21
-5.77296
0
LINE
8
BLACK
6
CONTINUOUS
10
4.73411
20
-5.77296
11
4.72286
21
-5.77296
0
LINE
8
BLACK
6
CONTINUOUS
10
4.72286
20
-5.77296
11
4.71536
21
-5.76921
0
LINE
8
BLACK
6
CONTINUOUS
10
4.71536
20
-5.76921
11
4.71161
21
-5.76171
0
LINE
8
BLACK
6
CONTINUOUS
10
4.71161
20
-5.76171
11
4.71161
21
-5.75796
0
LINE
8
BLACK
6
CONTINUOUS
10
4.71161
20
-5.75796
11
4.71536
21
-5.75046
0
LINE
8
BLACK
6
CONTINUOUS
10
4.71536
20
-5.75046
11
4.72286
21
-5.74671
0
LINE
8
BLACK
6
CONTINUOUS
10
4.72286
20
-5.74671
11
4.73411
21
-5.74671
0
LINE
8
BLACK
6
CONTINUOUS
10
4.73411
20
-5.74671
11
4.74161
21
-5.75046
0
LINE
8
BLACK
6
CONTINUOUS
10
4.77161
20
-5.8292
11
4.77536
21
-5.82545
0
LINE
8
BLACK
6
CONTINUOUS
10
4.77536
20
-5.82545
11
4.78286
21
-5.8142
0
LINE
8
BLACK
6
CONTINUOUS
10
4.78286
20
-5.8142
11
4.7866
21
-5.8067
0
LINE
8
BLACK
6
CONTINUOUS
10
4.7866
20
-5.8067
11
4.79035
21
-5.79545
0
LINE
8
BLACK
6
CONTINUOUS
10
4.79035
20
-5.79545
11
4.7941
21
-5.77671
0
LINE
8
BLACK
6
CONTINUOUS
10
4.7941
20
-5.77671
11
4.7941
21
-5.76171
0
LINE
8
BLACK
6
CONTINUOUS
10
4.7941
20
-5.76171
11
4.79035
21
-5.74296
0
LINE
8
BLACK
6
CONTINUOUS
10
4.79035
20
-5.74296
11
4.7866
21
-5.73171
0
LINE
8
BLACK
6
CONTINUOUS
10
4.7866
20
-5.73171
11
4.78286
21
-5.72421
0
LINE
8
BLACK
6
CONTINUOUS
10
4.78286
20
-5.72421
11
4.77536
21
-5.71296
0
LINE
8
BLACK
6
CONTINUOUS
10
4.77536
20
-5.71296
11
4.77161
21
-5.70921
  0
ENDSEC
  0
EOF
