%TF.GenerationSoftware,KiCad,Pcbnew,7.0.0*%
%TF.CreationDate,2023-10-27T18:40:29+08:00*%
%TF.ProjectId,OpenNixie,4f70656e-4e69-4786-9965-2e6b69636164,v3.0*%
%TF.SameCoordinates,Original*%
%TF.FileFunction,Legend,Top*%
%TF.FilePolarity,Positive*%
%FSLAX46Y46*%
G04 Gerber Fmt 4.6, Leading zero omitted, Abs format (unit mm)*
G04 Created by KiCad (PCBNEW 7.0.0) date 2023-10-27 18:40:29*
%MOMM*%
%LPD*%
G01*
G04 APERTURE LIST*
%ADD10C,0.300000*%
%ADD11C,0.250000*%
%ADD12C,0.150000*%
%ADD13C,0.120000*%
G04 APERTURE END LIST*
D10*
X205505713Y-81610714D02*
X205434285Y-81682142D01*
X205434285Y-81682142D02*
X205219999Y-81753571D01*
X205219999Y-81753571D02*
X205077142Y-81753571D01*
X205077142Y-81753571D02*
X204862856Y-81682142D01*
X204862856Y-81682142D02*
X204719999Y-81539285D01*
X204719999Y-81539285D02*
X204648570Y-81396428D01*
X204648570Y-81396428D02*
X204577142Y-81110714D01*
X204577142Y-81110714D02*
X204577142Y-80896428D01*
X204577142Y-80896428D02*
X204648570Y-80610714D01*
X204648570Y-80610714D02*
X204719999Y-80467857D01*
X204719999Y-80467857D02*
X204862856Y-80325000D01*
X204862856Y-80325000D02*
X205077142Y-80253571D01*
X205077142Y-80253571D02*
X205219999Y-80253571D01*
X205219999Y-80253571D02*
X205434285Y-80325000D01*
X205434285Y-80325000D02*
X205505713Y-80396428D01*
X206077142Y-81325000D02*
X206791428Y-81325000D01*
X205934285Y-81753571D02*
X206434285Y-80253571D01*
X206434285Y-80253571D02*
X206934285Y-81753571D01*
X207434284Y-80253571D02*
X207434284Y-81467857D01*
X207434284Y-81467857D02*
X207505713Y-81610714D01*
X207505713Y-81610714D02*
X207577142Y-81682142D01*
X207577142Y-81682142D02*
X207719999Y-81753571D01*
X207719999Y-81753571D02*
X208005713Y-81753571D01*
X208005713Y-81753571D02*
X208148570Y-81682142D01*
X208148570Y-81682142D02*
X208219999Y-81610714D01*
X208219999Y-81610714D02*
X208291427Y-81467857D01*
X208291427Y-81467857D02*
X208291427Y-80253571D01*
X208791428Y-80253571D02*
X209648571Y-80253571D01*
X209219999Y-81753571D02*
X209219999Y-80253571D01*
X210148570Y-81753571D02*
X210148570Y-80253571D01*
X211148571Y-80253571D02*
X211434285Y-80253571D01*
X211434285Y-80253571D02*
X211577142Y-80325000D01*
X211577142Y-80325000D02*
X211719999Y-80467857D01*
X211719999Y-80467857D02*
X211791428Y-80753571D01*
X211791428Y-80753571D02*
X211791428Y-81253571D01*
X211791428Y-81253571D02*
X211719999Y-81539285D01*
X211719999Y-81539285D02*
X211577142Y-81682142D01*
X211577142Y-81682142D02*
X211434285Y-81753571D01*
X211434285Y-81753571D02*
X211148571Y-81753571D01*
X211148571Y-81753571D02*
X211005714Y-81682142D01*
X211005714Y-81682142D02*
X210862856Y-81539285D01*
X210862856Y-81539285D02*
X210791428Y-81253571D01*
X210791428Y-81253571D02*
X210791428Y-80753571D01*
X210791428Y-80753571D02*
X210862856Y-80467857D01*
X210862856Y-80467857D02*
X211005714Y-80325000D01*
X211005714Y-80325000D02*
X211148571Y-80253571D01*
X212434285Y-81753571D02*
X212434285Y-80253571D01*
X212434285Y-80253571D02*
X213291428Y-81753571D01*
X213291428Y-81753571D02*
X213291428Y-80253571D01*
D11*
X204003333Y-83462380D02*
X204003333Y-82462380D01*
X204003333Y-82938571D02*
X204574761Y-82938571D01*
X204574761Y-83462380D02*
X204574761Y-82462380D01*
X205050952Y-83462380D02*
X205050952Y-82462380D01*
X206050951Y-82510000D02*
X205955713Y-82462380D01*
X205955713Y-82462380D02*
X205812856Y-82462380D01*
X205812856Y-82462380D02*
X205669999Y-82510000D01*
X205669999Y-82510000D02*
X205574761Y-82605238D01*
X205574761Y-82605238D02*
X205527142Y-82700476D01*
X205527142Y-82700476D02*
X205479523Y-82890952D01*
X205479523Y-82890952D02*
X205479523Y-83033809D01*
X205479523Y-83033809D02*
X205527142Y-83224285D01*
X205527142Y-83224285D02*
X205574761Y-83319523D01*
X205574761Y-83319523D02*
X205669999Y-83414761D01*
X205669999Y-83414761D02*
X205812856Y-83462380D01*
X205812856Y-83462380D02*
X205908094Y-83462380D01*
X205908094Y-83462380D02*
X206050951Y-83414761D01*
X206050951Y-83414761D02*
X206098570Y-83367142D01*
X206098570Y-83367142D02*
X206098570Y-83033809D01*
X206098570Y-83033809D02*
X205908094Y-83033809D01*
X206527142Y-83462380D02*
X206527142Y-82462380D01*
X206527142Y-82938571D02*
X207098570Y-82938571D01*
X207098570Y-83462380D02*
X207098570Y-82462380D01*
X208031904Y-82462380D02*
X208365237Y-83462380D01*
X208365237Y-83462380D02*
X208698570Y-82462380D01*
X209222380Y-82462380D02*
X209412856Y-82462380D01*
X209412856Y-82462380D02*
X209508094Y-82510000D01*
X209508094Y-82510000D02*
X209603332Y-82605238D01*
X209603332Y-82605238D02*
X209650951Y-82795714D01*
X209650951Y-82795714D02*
X209650951Y-83129047D01*
X209650951Y-83129047D02*
X209603332Y-83319523D01*
X209603332Y-83319523D02*
X209508094Y-83414761D01*
X209508094Y-83414761D02*
X209412856Y-83462380D01*
X209412856Y-83462380D02*
X209222380Y-83462380D01*
X209222380Y-83462380D02*
X209127142Y-83414761D01*
X209127142Y-83414761D02*
X209031904Y-83319523D01*
X209031904Y-83319523D02*
X208984285Y-83129047D01*
X208984285Y-83129047D02*
X208984285Y-82795714D01*
X208984285Y-82795714D02*
X209031904Y-82605238D01*
X209031904Y-82605238D02*
X209127142Y-82510000D01*
X209127142Y-82510000D02*
X209222380Y-82462380D01*
X210555713Y-83462380D02*
X210079523Y-83462380D01*
X210079523Y-83462380D02*
X210079523Y-82462380D01*
X210746190Y-82462380D02*
X211317618Y-82462380D01*
X211031904Y-83462380D02*
X211031904Y-82462380D01*
X211603333Y-83176666D02*
X212079523Y-83176666D01*
X211508095Y-83462380D02*
X211841428Y-82462380D01*
X211841428Y-82462380D02*
X212174761Y-83462380D01*
X213031904Y-82510000D02*
X212936666Y-82462380D01*
X212936666Y-82462380D02*
X212793809Y-82462380D01*
X212793809Y-82462380D02*
X212650952Y-82510000D01*
X212650952Y-82510000D02*
X212555714Y-82605238D01*
X212555714Y-82605238D02*
X212508095Y-82700476D01*
X212508095Y-82700476D02*
X212460476Y-82890952D01*
X212460476Y-82890952D02*
X212460476Y-83033809D01*
X212460476Y-83033809D02*
X212508095Y-83224285D01*
X212508095Y-83224285D02*
X212555714Y-83319523D01*
X212555714Y-83319523D02*
X212650952Y-83414761D01*
X212650952Y-83414761D02*
X212793809Y-83462380D01*
X212793809Y-83462380D02*
X212889047Y-83462380D01*
X212889047Y-83462380D02*
X213031904Y-83414761D01*
X213031904Y-83414761D02*
X213079523Y-83367142D01*
X213079523Y-83367142D02*
X213079523Y-83033809D01*
X213079523Y-83033809D02*
X212889047Y-83033809D01*
X213508095Y-82938571D02*
X213841428Y-82938571D01*
X213984285Y-83462380D02*
X213508095Y-83462380D01*
X213508095Y-83462380D02*
X213508095Y-82462380D01*
X213508095Y-82462380D02*
X213984285Y-82462380D01*
D12*
%TO.C,C5*%
X98578333Y-76272142D02*
X98530714Y-76319761D01*
X98530714Y-76319761D02*
X98387857Y-76367380D01*
X98387857Y-76367380D02*
X98292619Y-76367380D01*
X98292619Y-76367380D02*
X98149762Y-76319761D01*
X98149762Y-76319761D02*
X98054524Y-76224523D01*
X98054524Y-76224523D02*
X98006905Y-76129285D01*
X98006905Y-76129285D02*
X97959286Y-75938809D01*
X97959286Y-75938809D02*
X97959286Y-75795952D01*
X97959286Y-75795952D02*
X98006905Y-75605476D01*
X98006905Y-75605476D02*
X98054524Y-75510238D01*
X98054524Y-75510238D02*
X98149762Y-75415000D01*
X98149762Y-75415000D02*
X98292619Y-75367380D01*
X98292619Y-75367380D02*
X98387857Y-75367380D01*
X98387857Y-75367380D02*
X98530714Y-75415000D01*
X98530714Y-75415000D02*
X98578333Y-75462619D01*
X99483095Y-75367380D02*
X99006905Y-75367380D01*
X99006905Y-75367380D02*
X98959286Y-75843571D01*
X98959286Y-75843571D02*
X99006905Y-75795952D01*
X99006905Y-75795952D02*
X99102143Y-75748333D01*
X99102143Y-75748333D02*
X99340238Y-75748333D01*
X99340238Y-75748333D02*
X99435476Y-75795952D01*
X99435476Y-75795952D02*
X99483095Y-75843571D01*
X99483095Y-75843571D02*
X99530714Y-75938809D01*
X99530714Y-75938809D02*
X99530714Y-76176904D01*
X99530714Y-76176904D02*
X99483095Y-76272142D01*
X99483095Y-76272142D02*
X99435476Y-76319761D01*
X99435476Y-76319761D02*
X99340238Y-76367380D01*
X99340238Y-76367380D02*
X99102143Y-76367380D01*
X99102143Y-76367380D02*
X99006905Y-76319761D01*
X99006905Y-76319761D02*
X98959286Y-76272142D01*
%TO.C,D1*%
X106893905Y-71278180D02*
X106893905Y-70278180D01*
X106893905Y-70278180D02*
X107132000Y-70278180D01*
X107132000Y-70278180D02*
X107274857Y-70325800D01*
X107274857Y-70325800D02*
X107370095Y-70421038D01*
X107370095Y-70421038D02*
X107417714Y-70516276D01*
X107417714Y-70516276D02*
X107465333Y-70706752D01*
X107465333Y-70706752D02*
X107465333Y-70849609D01*
X107465333Y-70849609D02*
X107417714Y-71040085D01*
X107417714Y-71040085D02*
X107370095Y-71135323D01*
X107370095Y-71135323D02*
X107274857Y-71230561D01*
X107274857Y-71230561D02*
X107132000Y-71278180D01*
X107132000Y-71278180D02*
X106893905Y-71278180D01*
X108417714Y-71278180D02*
X107846286Y-71278180D01*
X108132000Y-71278180D02*
X108132000Y-70278180D01*
X108132000Y-70278180D02*
X108036762Y-70421038D01*
X108036762Y-70421038D02*
X107941524Y-70516276D01*
X107941524Y-70516276D02*
X107846286Y-70563895D01*
%TO.C,L1*%
X86233333Y-72742380D02*
X85757143Y-72742380D01*
X85757143Y-72742380D02*
X85757143Y-71742380D01*
X87090476Y-72742380D02*
X86519048Y-72742380D01*
X86804762Y-72742380D02*
X86804762Y-71742380D01*
X86804762Y-71742380D02*
X86709524Y-71885238D01*
X86709524Y-71885238D02*
X86614286Y-71980476D01*
X86614286Y-71980476D02*
X86519048Y-72028095D01*
%TO.C,Q2*%
X112429761Y-86487619D02*
X112334523Y-86440000D01*
X112334523Y-86440000D02*
X112239285Y-86344761D01*
X112239285Y-86344761D02*
X112096428Y-86201904D01*
X112096428Y-86201904D02*
X112001190Y-86154285D01*
X112001190Y-86154285D02*
X111905952Y-86154285D01*
X111953571Y-86392380D02*
X111858333Y-86344761D01*
X111858333Y-86344761D02*
X111763095Y-86249523D01*
X111763095Y-86249523D02*
X111715476Y-86059047D01*
X111715476Y-86059047D02*
X111715476Y-85725714D01*
X111715476Y-85725714D02*
X111763095Y-85535238D01*
X111763095Y-85535238D02*
X111858333Y-85440000D01*
X111858333Y-85440000D02*
X111953571Y-85392380D01*
X111953571Y-85392380D02*
X112144047Y-85392380D01*
X112144047Y-85392380D02*
X112239285Y-85440000D01*
X112239285Y-85440000D02*
X112334523Y-85535238D01*
X112334523Y-85535238D02*
X112382142Y-85725714D01*
X112382142Y-85725714D02*
X112382142Y-86059047D01*
X112382142Y-86059047D02*
X112334523Y-86249523D01*
X112334523Y-86249523D02*
X112239285Y-86344761D01*
X112239285Y-86344761D02*
X112144047Y-86392380D01*
X112144047Y-86392380D02*
X111953571Y-86392380D01*
X112763095Y-85487619D02*
X112810714Y-85440000D01*
X112810714Y-85440000D02*
X112905952Y-85392380D01*
X112905952Y-85392380D02*
X113144047Y-85392380D01*
X113144047Y-85392380D02*
X113239285Y-85440000D01*
X113239285Y-85440000D02*
X113286904Y-85487619D01*
X113286904Y-85487619D02*
X113334523Y-85582857D01*
X113334523Y-85582857D02*
X113334523Y-85678095D01*
X113334523Y-85678095D02*
X113286904Y-85820952D01*
X113286904Y-85820952D02*
X112715476Y-86392380D01*
X112715476Y-86392380D02*
X113334523Y-86392380D01*
%TO.C,R5*%
X104843333Y-88767380D02*
X104510000Y-88291190D01*
X104271905Y-88767380D02*
X104271905Y-87767380D01*
X104271905Y-87767380D02*
X104652857Y-87767380D01*
X104652857Y-87767380D02*
X104748095Y-87815000D01*
X104748095Y-87815000D02*
X104795714Y-87862619D01*
X104795714Y-87862619D02*
X104843333Y-87957857D01*
X104843333Y-87957857D02*
X104843333Y-88100714D01*
X104843333Y-88100714D02*
X104795714Y-88195952D01*
X104795714Y-88195952D02*
X104748095Y-88243571D01*
X104748095Y-88243571D02*
X104652857Y-88291190D01*
X104652857Y-88291190D02*
X104271905Y-88291190D01*
X105748095Y-87767380D02*
X105271905Y-87767380D01*
X105271905Y-87767380D02*
X105224286Y-88243571D01*
X105224286Y-88243571D02*
X105271905Y-88195952D01*
X105271905Y-88195952D02*
X105367143Y-88148333D01*
X105367143Y-88148333D02*
X105605238Y-88148333D01*
X105605238Y-88148333D02*
X105700476Y-88195952D01*
X105700476Y-88195952D02*
X105748095Y-88243571D01*
X105748095Y-88243571D02*
X105795714Y-88338809D01*
X105795714Y-88338809D02*
X105795714Y-88576904D01*
X105795714Y-88576904D02*
X105748095Y-88672142D01*
X105748095Y-88672142D02*
X105700476Y-88719761D01*
X105700476Y-88719761D02*
X105605238Y-88767380D01*
X105605238Y-88767380D02*
X105367143Y-88767380D01*
X105367143Y-88767380D02*
X105271905Y-88719761D01*
X105271905Y-88719761D02*
X105224286Y-88672142D01*
%TO.C,R6*%
X104843333Y-85367380D02*
X104510000Y-84891190D01*
X104271905Y-85367380D02*
X104271905Y-84367380D01*
X104271905Y-84367380D02*
X104652857Y-84367380D01*
X104652857Y-84367380D02*
X104748095Y-84415000D01*
X104748095Y-84415000D02*
X104795714Y-84462619D01*
X104795714Y-84462619D02*
X104843333Y-84557857D01*
X104843333Y-84557857D02*
X104843333Y-84700714D01*
X104843333Y-84700714D02*
X104795714Y-84795952D01*
X104795714Y-84795952D02*
X104748095Y-84843571D01*
X104748095Y-84843571D02*
X104652857Y-84891190D01*
X104652857Y-84891190D02*
X104271905Y-84891190D01*
X105700476Y-84367380D02*
X105510000Y-84367380D01*
X105510000Y-84367380D02*
X105414762Y-84415000D01*
X105414762Y-84415000D02*
X105367143Y-84462619D01*
X105367143Y-84462619D02*
X105271905Y-84605476D01*
X105271905Y-84605476D02*
X105224286Y-84795952D01*
X105224286Y-84795952D02*
X105224286Y-85176904D01*
X105224286Y-85176904D02*
X105271905Y-85272142D01*
X105271905Y-85272142D02*
X105319524Y-85319761D01*
X105319524Y-85319761D02*
X105414762Y-85367380D01*
X105414762Y-85367380D02*
X105605238Y-85367380D01*
X105605238Y-85367380D02*
X105700476Y-85319761D01*
X105700476Y-85319761D02*
X105748095Y-85272142D01*
X105748095Y-85272142D02*
X105795714Y-85176904D01*
X105795714Y-85176904D02*
X105795714Y-84938809D01*
X105795714Y-84938809D02*
X105748095Y-84843571D01*
X105748095Y-84843571D02*
X105700476Y-84795952D01*
X105700476Y-84795952D02*
X105605238Y-84748333D01*
X105605238Y-84748333D02*
X105414762Y-84748333D01*
X105414762Y-84748333D02*
X105319524Y-84795952D01*
X105319524Y-84795952D02*
X105271905Y-84843571D01*
X105271905Y-84843571D02*
X105224286Y-84938809D01*
%TO.C,R7*%
X115633333Y-81167380D02*
X115300000Y-80691190D01*
X115061905Y-81167380D02*
X115061905Y-80167380D01*
X115061905Y-80167380D02*
X115442857Y-80167380D01*
X115442857Y-80167380D02*
X115538095Y-80215000D01*
X115538095Y-80215000D02*
X115585714Y-80262619D01*
X115585714Y-80262619D02*
X115633333Y-80357857D01*
X115633333Y-80357857D02*
X115633333Y-80500714D01*
X115633333Y-80500714D02*
X115585714Y-80595952D01*
X115585714Y-80595952D02*
X115538095Y-80643571D01*
X115538095Y-80643571D02*
X115442857Y-80691190D01*
X115442857Y-80691190D02*
X115061905Y-80691190D01*
X115966667Y-80167380D02*
X116633333Y-80167380D01*
X116633333Y-80167380D02*
X116204762Y-81167380D01*
%TO.C,R8*%
X96833333Y-73767380D02*
X96500000Y-73291190D01*
X96261905Y-73767380D02*
X96261905Y-72767380D01*
X96261905Y-72767380D02*
X96642857Y-72767380D01*
X96642857Y-72767380D02*
X96738095Y-72815000D01*
X96738095Y-72815000D02*
X96785714Y-72862619D01*
X96785714Y-72862619D02*
X96833333Y-72957857D01*
X96833333Y-72957857D02*
X96833333Y-73100714D01*
X96833333Y-73100714D02*
X96785714Y-73195952D01*
X96785714Y-73195952D02*
X96738095Y-73243571D01*
X96738095Y-73243571D02*
X96642857Y-73291190D01*
X96642857Y-73291190D02*
X96261905Y-73291190D01*
X97404762Y-73195952D02*
X97309524Y-73148333D01*
X97309524Y-73148333D02*
X97261905Y-73100714D01*
X97261905Y-73100714D02*
X97214286Y-73005476D01*
X97214286Y-73005476D02*
X97214286Y-72957857D01*
X97214286Y-72957857D02*
X97261905Y-72862619D01*
X97261905Y-72862619D02*
X97309524Y-72815000D01*
X97309524Y-72815000D02*
X97404762Y-72767380D01*
X97404762Y-72767380D02*
X97595238Y-72767380D01*
X97595238Y-72767380D02*
X97690476Y-72815000D01*
X97690476Y-72815000D02*
X97738095Y-72862619D01*
X97738095Y-72862619D02*
X97785714Y-72957857D01*
X97785714Y-72957857D02*
X97785714Y-73005476D01*
X97785714Y-73005476D02*
X97738095Y-73100714D01*
X97738095Y-73100714D02*
X97690476Y-73148333D01*
X97690476Y-73148333D02*
X97595238Y-73195952D01*
X97595238Y-73195952D02*
X97404762Y-73195952D01*
X97404762Y-73195952D02*
X97309524Y-73243571D01*
X97309524Y-73243571D02*
X97261905Y-73291190D01*
X97261905Y-73291190D02*
X97214286Y-73386428D01*
X97214286Y-73386428D02*
X97214286Y-73576904D01*
X97214286Y-73576904D02*
X97261905Y-73672142D01*
X97261905Y-73672142D02*
X97309524Y-73719761D01*
X97309524Y-73719761D02*
X97404762Y-73767380D01*
X97404762Y-73767380D02*
X97595238Y-73767380D01*
X97595238Y-73767380D02*
X97690476Y-73719761D01*
X97690476Y-73719761D02*
X97738095Y-73672142D01*
X97738095Y-73672142D02*
X97785714Y-73576904D01*
X97785714Y-73576904D02*
X97785714Y-73386428D01*
X97785714Y-73386428D02*
X97738095Y-73291190D01*
X97738095Y-73291190D02*
X97690476Y-73243571D01*
X97690476Y-73243571D02*
X97595238Y-73195952D01*
%TO.C,U3*%
X105288095Y-78497380D02*
X105288095Y-79306904D01*
X105288095Y-79306904D02*
X105335714Y-79402142D01*
X105335714Y-79402142D02*
X105383333Y-79449761D01*
X105383333Y-79449761D02*
X105478571Y-79497380D01*
X105478571Y-79497380D02*
X105669047Y-79497380D01*
X105669047Y-79497380D02*
X105764285Y-79449761D01*
X105764285Y-79449761D02*
X105811904Y-79402142D01*
X105811904Y-79402142D02*
X105859523Y-79306904D01*
X105859523Y-79306904D02*
X105859523Y-78497380D01*
X106240476Y-78497380D02*
X106859523Y-78497380D01*
X106859523Y-78497380D02*
X106526190Y-78878333D01*
X106526190Y-78878333D02*
X106669047Y-78878333D01*
X106669047Y-78878333D02*
X106764285Y-78925952D01*
X106764285Y-78925952D02*
X106811904Y-78973571D01*
X106811904Y-78973571D02*
X106859523Y-79068809D01*
X106859523Y-79068809D02*
X106859523Y-79306904D01*
X106859523Y-79306904D02*
X106811904Y-79402142D01*
X106811904Y-79402142D02*
X106764285Y-79449761D01*
X106764285Y-79449761D02*
X106669047Y-79497380D01*
X106669047Y-79497380D02*
X106383333Y-79497380D01*
X106383333Y-79497380D02*
X106288095Y-79449761D01*
X106288095Y-79449761D02*
X106240476Y-79402142D01*
%TO.C,U6*%
X192292380Y-112581904D02*
X193101904Y-112581904D01*
X193101904Y-112581904D02*
X193197142Y-112534285D01*
X193197142Y-112534285D02*
X193244761Y-112486666D01*
X193244761Y-112486666D02*
X193292380Y-112391428D01*
X193292380Y-112391428D02*
X193292380Y-112200952D01*
X193292380Y-112200952D02*
X193244761Y-112105714D01*
X193244761Y-112105714D02*
X193197142Y-112058095D01*
X193197142Y-112058095D02*
X193101904Y-112010476D01*
X193101904Y-112010476D02*
X192292380Y-112010476D01*
X192292380Y-111105714D02*
X192292380Y-111296190D01*
X192292380Y-111296190D02*
X192340000Y-111391428D01*
X192340000Y-111391428D02*
X192387619Y-111439047D01*
X192387619Y-111439047D02*
X192530476Y-111534285D01*
X192530476Y-111534285D02*
X192720952Y-111581904D01*
X192720952Y-111581904D02*
X193101904Y-111581904D01*
X193101904Y-111581904D02*
X193197142Y-111534285D01*
X193197142Y-111534285D02*
X193244761Y-111486666D01*
X193244761Y-111486666D02*
X193292380Y-111391428D01*
X193292380Y-111391428D02*
X193292380Y-111200952D01*
X193292380Y-111200952D02*
X193244761Y-111105714D01*
X193244761Y-111105714D02*
X193197142Y-111058095D01*
X193197142Y-111058095D02*
X193101904Y-111010476D01*
X193101904Y-111010476D02*
X192863809Y-111010476D01*
X192863809Y-111010476D02*
X192768571Y-111058095D01*
X192768571Y-111058095D02*
X192720952Y-111105714D01*
X192720952Y-111105714D02*
X192673333Y-111200952D01*
X192673333Y-111200952D02*
X192673333Y-111391428D01*
X192673333Y-111391428D02*
X192720952Y-111486666D01*
X192720952Y-111486666D02*
X192768571Y-111534285D01*
X192768571Y-111534285D02*
X192863809Y-111581904D01*
%TO.C,R12*%
X144767380Y-112242857D02*
X144291190Y-112576190D01*
X144767380Y-112814285D02*
X143767380Y-112814285D01*
X143767380Y-112814285D02*
X143767380Y-112433333D01*
X143767380Y-112433333D02*
X143815000Y-112338095D01*
X143815000Y-112338095D02*
X143862619Y-112290476D01*
X143862619Y-112290476D02*
X143957857Y-112242857D01*
X143957857Y-112242857D02*
X144100714Y-112242857D01*
X144100714Y-112242857D02*
X144195952Y-112290476D01*
X144195952Y-112290476D02*
X144243571Y-112338095D01*
X144243571Y-112338095D02*
X144291190Y-112433333D01*
X144291190Y-112433333D02*
X144291190Y-112814285D01*
X144767380Y-111290476D02*
X144767380Y-111861904D01*
X144767380Y-111576190D02*
X143767380Y-111576190D01*
X143767380Y-111576190D02*
X143910238Y-111671428D01*
X143910238Y-111671428D02*
X144005476Y-111766666D01*
X144005476Y-111766666D02*
X144053095Y-111861904D01*
X143862619Y-110909523D02*
X143815000Y-110861904D01*
X143815000Y-110861904D02*
X143767380Y-110766666D01*
X143767380Y-110766666D02*
X143767380Y-110528571D01*
X143767380Y-110528571D02*
X143815000Y-110433333D01*
X143815000Y-110433333D02*
X143862619Y-110385714D01*
X143862619Y-110385714D02*
X143957857Y-110338095D01*
X143957857Y-110338095D02*
X144053095Y-110338095D01*
X144053095Y-110338095D02*
X144195952Y-110385714D01*
X144195952Y-110385714D02*
X144767380Y-110957142D01*
X144767380Y-110957142D02*
X144767380Y-110338095D01*
%TO.C,Q8*%
X124714761Y-108817772D02*
X124619523Y-108770153D01*
X124619523Y-108770153D02*
X124524285Y-108674914D01*
X124524285Y-108674914D02*
X124381428Y-108532057D01*
X124381428Y-108532057D02*
X124286190Y-108484438D01*
X124286190Y-108484438D02*
X124190952Y-108484438D01*
X124238571Y-108722533D02*
X124143333Y-108674914D01*
X124143333Y-108674914D02*
X124048095Y-108579676D01*
X124048095Y-108579676D02*
X124000476Y-108389200D01*
X124000476Y-108389200D02*
X124000476Y-108055867D01*
X124000476Y-108055867D02*
X124048095Y-107865391D01*
X124048095Y-107865391D02*
X124143333Y-107770153D01*
X124143333Y-107770153D02*
X124238571Y-107722533D01*
X124238571Y-107722533D02*
X124429047Y-107722533D01*
X124429047Y-107722533D02*
X124524285Y-107770153D01*
X124524285Y-107770153D02*
X124619523Y-107865391D01*
X124619523Y-107865391D02*
X124667142Y-108055867D01*
X124667142Y-108055867D02*
X124667142Y-108389200D01*
X124667142Y-108389200D02*
X124619523Y-108579676D01*
X124619523Y-108579676D02*
X124524285Y-108674914D01*
X124524285Y-108674914D02*
X124429047Y-108722533D01*
X124429047Y-108722533D02*
X124238571Y-108722533D01*
X125238571Y-108151105D02*
X125143333Y-108103486D01*
X125143333Y-108103486D02*
X125095714Y-108055867D01*
X125095714Y-108055867D02*
X125048095Y-107960629D01*
X125048095Y-107960629D02*
X125048095Y-107913010D01*
X125048095Y-107913010D02*
X125095714Y-107817772D01*
X125095714Y-107817772D02*
X125143333Y-107770153D01*
X125143333Y-107770153D02*
X125238571Y-107722533D01*
X125238571Y-107722533D02*
X125429047Y-107722533D01*
X125429047Y-107722533D02*
X125524285Y-107770153D01*
X125524285Y-107770153D02*
X125571904Y-107817772D01*
X125571904Y-107817772D02*
X125619523Y-107913010D01*
X125619523Y-107913010D02*
X125619523Y-107960629D01*
X125619523Y-107960629D02*
X125571904Y-108055867D01*
X125571904Y-108055867D02*
X125524285Y-108103486D01*
X125524285Y-108103486D02*
X125429047Y-108151105D01*
X125429047Y-108151105D02*
X125238571Y-108151105D01*
X125238571Y-108151105D02*
X125143333Y-108198724D01*
X125143333Y-108198724D02*
X125095714Y-108246343D01*
X125095714Y-108246343D02*
X125048095Y-108341581D01*
X125048095Y-108341581D02*
X125048095Y-108532057D01*
X125048095Y-108532057D02*
X125095714Y-108627295D01*
X125095714Y-108627295D02*
X125143333Y-108674914D01*
X125143333Y-108674914D02*
X125238571Y-108722533D01*
X125238571Y-108722533D02*
X125429047Y-108722533D01*
X125429047Y-108722533D02*
X125524285Y-108674914D01*
X125524285Y-108674914D02*
X125571904Y-108627295D01*
X125571904Y-108627295D02*
X125619523Y-108532057D01*
X125619523Y-108532057D02*
X125619523Y-108341581D01*
X125619523Y-108341581D02*
X125571904Y-108246343D01*
X125571904Y-108246343D02*
X125524285Y-108198724D01*
X125524285Y-108198724D02*
X125429047Y-108151105D01*
%TO.C,Q9*%
X124714761Y-117427772D02*
X124619523Y-117380153D01*
X124619523Y-117380153D02*
X124524285Y-117284914D01*
X124524285Y-117284914D02*
X124381428Y-117142057D01*
X124381428Y-117142057D02*
X124286190Y-117094438D01*
X124286190Y-117094438D02*
X124190952Y-117094438D01*
X124238571Y-117332533D02*
X124143333Y-117284914D01*
X124143333Y-117284914D02*
X124048095Y-117189676D01*
X124048095Y-117189676D02*
X124000476Y-116999200D01*
X124000476Y-116999200D02*
X124000476Y-116665867D01*
X124000476Y-116665867D02*
X124048095Y-116475391D01*
X124048095Y-116475391D02*
X124143333Y-116380153D01*
X124143333Y-116380153D02*
X124238571Y-116332533D01*
X124238571Y-116332533D02*
X124429047Y-116332533D01*
X124429047Y-116332533D02*
X124524285Y-116380153D01*
X124524285Y-116380153D02*
X124619523Y-116475391D01*
X124619523Y-116475391D02*
X124667142Y-116665867D01*
X124667142Y-116665867D02*
X124667142Y-116999200D01*
X124667142Y-116999200D02*
X124619523Y-117189676D01*
X124619523Y-117189676D02*
X124524285Y-117284914D01*
X124524285Y-117284914D02*
X124429047Y-117332533D01*
X124429047Y-117332533D02*
X124238571Y-117332533D01*
X125143333Y-117332533D02*
X125333809Y-117332533D01*
X125333809Y-117332533D02*
X125429047Y-117284914D01*
X125429047Y-117284914D02*
X125476666Y-117237295D01*
X125476666Y-117237295D02*
X125571904Y-117094438D01*
X125571904Y-117094438D02*
X125619523Y-116903962D01*
X125619523Y-116903962D02*
X125619523Y-116523010D01*
X125619523Y-116523010D02*
X125571904Y-116427772D01*
X125571904Y-116427772D02*
X125524285Y-116380153D01*
X125524285Y-116380153D02*
X125429047Y-116332533D01*
X125429047Y-116332533D02*
X125238571Y-116332533D01*
X125238571Y-116332533D02*
X125143333Y-116380153D01*
X125143333Y-116380153D02*
X125095714Y-116427772D01*
X125095714Y-116427772D02*
X125048095Y-116523010D01*
X125048095Y-116523010D02*
X125048095Y-116761105D01*
X125048095Y-116761105D02*
X125095714Y-116856343D01*
X125095714Y-116856343D02*
X125143333Y-116903962D01*
X125143333Y-116903962D02*
X125238571Y-116951581D01*
X125238571Y-116951581D02*
X125429047Y-116951581D01*
X125429047Y-116951581D02*
X125524285Y-116903962D01*
X125524285Y-116903962D02*
X125571904Y-116856343D01*
X125571904Y-116856343D02*
X125619523Y-116761105D01*
%TO.C,R20*%
X109761142Y-103407380D02*
X109427809Y-102931190D01*
X109189714Y-103407380D02*
X109189714Y-102407380D01*
X109189714Y-102407380D02*
X109570666Y-102407380D01*
X109570666Y-102407380D02*
X109665904Y-102455000D01*
X109665904Y-102455000D02*
X109713523Y-102502619D01*
X109713523Y-102502619D02*
X109761142Y-102597857D01*
X109761142Y-102597857D02*
X109761142Y-102740714D01*
X109761142Y-102740714D02*
X109713523Y-102835952D01*
X109713523Y-102835952D02*
X109665904Y-102883571D01*
X109665904Y-102883571D02*
X109570666Y-102931190D01*
X109570666Y-102931190D02*
X109189714Y-102931190D01*
X110142095Y-102502619D02*
X110189714Y-102455000D01*
X110189714Y-102455000D02*
X110284952Y-102407380D01*
X110284952Y-102407380D02*
X110523047Y-102407380D01*
X110523047Y-102407380D02*
X110618285Y-102455000D01*
X110618285Y-102455000D02*
X110665904Y-102502619D01*
X110665904Y-102502619D02*
X110713523Y-102597857D01*
X110713523Y-102597857D02*
X110713523Y-102693095D01*
X110713523Y-102693095D02*
X110665904Y-102835952D01*
X110665904Y-102835952D02*
X110094476Y-103407380D01*
X110094476Y-103407380D02*
X110713523Y-103407380D01*
X111332571Y-102407380D02*
X111427809Y-102407380D01*
X111427809Y-102407380D02*
X111523047Y-102455000D01*
X111523047Y-102455000D02*
X111570666Y-102502619D01*
X111570666Y-102502619D02*
X111618285Y-102597857D01*
X111618285Y-102597857D02*
X111665904Y-102788333D01*
X111665904Y-102788333D02*
X111665904Y-103026428D01*
X111665904Y-103026428D02*
X111618285Y-103216904D01*
X111618285Y-103216904D02*
X111570666Y-103312142D01*
X111570666Y-103312142D02*
X111523047Y-103359761D01*
X111523047Y-103359761D02*
X111427809Y-103407380D01*
X111427809Y-103407380D02*
X111332571Y-103407380D01*
X111332571Y-103407380D02*
X111237333Y-103359761D01*
X111237333Y-103359761D02*
X111189714Y-103312142D01*
X111189714Y-103312142D02*
X111142095Y-103216904D01*
X111142095Y-103216904D02*
X111094476Y-103026428D01*
X111094476Y-103026428D02*
X111094476Y-102788333D01*
X111094476Y-102788333D02*
X111142095Y-102597857D01*
X111142095Y-102597857D02*
X111189714Y-102502619D01*
X111189714Y-102502619D02*
X111237333Y-102455000D01*
X111237333Y-102455000D02*
X111332571Y-102407380D01*
%TO.C,R27*%
X198567380Y-96642857D02*
X198091190Y-96976190D01*
X198567380Y-97214285D02*
X197567380Y-97214285D01*
X197567380Y-97214285D02*
X197567380Y-96833333D01*
X197567380Y-96833333D02*
X197615000Y-96738095D01*
X197615000Y-96738095D02*
X197662619Y-96690476D01*
X197662619Y-96690476D02*
X197757857Y-96642857D01*
X197757857Y-96642857D02*
X197900714Y-96642857D01*
X197900714Y-96642857D02*
X197995952Y-96690476D01*
X197995952Y-96690476D02*
X198043571Y-96738095D01*
X198043571Y-96738095D02*
X198091190Y-96833333D01*
X198091190Y-96833333D02*
X198091190Y-97214285D01*
X197662619Y-96261904D02*
X197615000Y-96214285D01*
X197615000Y-96214285D02*
X197567380Y-96119047D01*
X197567380Y-96119047D02*
X197567380Y-95880952D01*
X197567380Y-95880952D02*
X197615000Y-95785714D01*
X197615000Y-95785714D02*
X197662619Y-95738095D01*
X197662619Y-95738095D02*
X197757857Y-95690476D01*
X197757857Y-95690476D02*
X197853095Y-95690476D01*
X197853095Y-95690476D02*
X197995952Y-95738095D01*
X197995952Y-95738095D02*
X198567380Y-96309523D01*
X198567380Y-96309523D02*
X198567380Y-95690476D01*
X197567380Y-95357142D02*
X197567380Y-94690476D01*
X197567380Y-94690476D02*
X198567380Y-95119047D01*
%TO.C,Q14*%
X106358571Y-93302619D02*
X106263333Y-93255000D01*
X106263333Y-93255000D02*
X106168095Y-93159761D01*
X106168095Y-93159761D02*
X106025238Y-93016904D01*
X106025238Y-93016904D02*
X105930000Y-92969285D01*
X105930000Y-92969285D02*
X105834762Y-92969285D01*
X105882381Y-93207380D02*
X105787143Y-93159761D01*
X105787143Y-93159761D02*
X105691905Y-93064523D01*
X105691905Y-93064523D02*
X105644286Y-92874047D01*
X105644286Y-92874047D02*
X105644286Y-92540714D01*
X105644286Y-92540714D02*
X105691905Y-92350238D01*
X105691905Y-92350238D02*
X105787143Y-92255000D01*
X105787143Y-92255000D02*
X105882381Y-92207380D01*
X105882381Y-92207380D02*
X106072857Y-92207380D01*
X106072857Y-92207380D02*
X106168095Y-92255000D01*
X106168095Y-92255000D02*
X106263333Y-92350238D01*
X106263333Y-92350238D02*
X106310952Y-92540714D01*
X106310952Y-92540714D02*
X106310952Y-92874047D01*
X106310952Y-92874047D02*
X106263333Y-93064523D01*
X106263333Y-93064523D02*
X106168095Y-93159761D01*
X106168095Y-93159761D02*
X106072857Y-93207380D01*
X106072857Y-93207380D02*
X105882381Y-93207380D01*
X107263333Y-93207380D02*
X106691905Y-93207380D01*
X106977619Y-93207380D02*
X106977619Y-92207380D01*
X106977619Y-92207380D02*
X106882381Y-92350238D01*
X106882381Y-92350238D02*
X106787143Y-92445476D01*
X106787143Y-92445476D02*
X106691905Y-92493095D01*
X108120476Y-92540714D02*
X108120476Y-93207380D01*
X107882381Y-92159761D02*
X107644286Y-92874047D01*
X107644286Y-92874047D02*
X108263333Y-92874047D01*
%TO.C,R14*%
X164367380Y-112242857D02*
X163891190Y-112576190D01*
X164367380Y-112814285D02*
X163367380Y-112814285D01*
X163367380Y-112814285D02*
X163367380Y-112433333D01*
X163367380Y-112433333D02*
X163415000Y-112338095D01*
X163415000Y-112338095D02*
X163462619Y-112290476D01*
X163462619Y-112290476D02*
X163557857Y-112242857D01*
X163557857Y-112242857D02*
X163700714Y-112242857D01*
X163700714Y-112242857D02*
X163795952Y-112290476D01*
X163795952Y-112290476D02*
X163843571Y-112338095D01*
X163843571Y-112338095D02*
X163891190Y-112433333D01*
X163891190Y-112433333D02*
X163891190Y-112814285D01*
X164367380Y-111290476D02*
X164367380Y-111861904D01*
X164367380Y-111576190D02*
X163367380Y-111576190D01*
X163367380Y-111576190D02*
X163510238Y-111671428D01*
X163510238Y-111671428D02*
X163605476Y-111766666D01*
X163605476Y-111766666D02*
X163653095Y-111861904D01*
X163700714Y-110433333D02*
X164367380Y-110433333D01*
X163319761Y-110671428D02*
X164034047Y-110909523D01*
X164034047Y-110909523D02*
X164034047Y-110290476D01*
%TO.C,Q16*%
X188958571Y-93902619D02*
X188863333Y-93855000D01*
X188863333Y-93855000D02*
X188768095Y-93759761D01*
X188768095Y-93759761D02*
X188625238Y-93616904D01*
X188625238Y-93616904D02*
X188530000Y-93569285D01*
X188530000Y-93569285D02*
X188434762Y-93569285D01*
X188482381Y-93807380D02*
X188387143Y-93759761D01*
X188387143Y-93759761D02*
X188291905Y-93664523D01*
X188291905Y-93664523D02*
X188244286Y-93474047D01*
X188244286Y-93474047D02*
X188244286Y-93140714D01*
X188244286Y-93140714D02*
X188291905Y-92950238D01*
X188291905Y-92950238D02*
X188387143Y-92855000D01*
X188387143Y-92855000D02*
X188482381Y-92807380D01*
X188482381Y-92807380D02*
X188672857Y-92807380D01*
X188672857Y-92807380D02*
X188768095Y-92855000D01*
X188768095Y-92855000D02*
X188863333Y-92950238D01*
X188863333Y-92950238D02*
X188910952Y-93140714D01*
X188910952Y-93140714D02*
X188910952Y-93474047D01*
X188910952Y-93474047D02*
X188863333Y-93664523D01*
X188863333Y-93664523D02*
X188768095Y-93759761D01*
X188768095Y-93759761D02*
X188672857Y-93807380D01*
X188672857Y-93807380D02*
X188482381Y-93807380D01*
X189863333Y-93807380D02*
X189291905Y-93807380D01*
X189577619Y-93807380D02*
X189577619Y-92807380D01*
X189577619Y-92807380D02*
X189482381Y-92950238D01*
X189482381Y-92950238D02*
X189387143Y-93045476D01*
X189387143Y-93045476D02*
X189291905Y-93093095D01*
X190720476Y-92807380D02*
X190530000Y-92807380D01*
X190530000Y-92807380D02*
X190434762Y-92855000D01*
X190434762Y-92855000D02*
X190387143Y-92902619D01*
X190387143Y-92902619D02*
X190291905Y-93045476D01*
X190291905Y-93045476D02*
X190244286Y-93235952D01*
X190244286Y-93235952D02*
X190244286Y-93616904D01*
X190244286Y-93616904D02*
X190291905Y-93712142D01*
X190291905Y-93712142D02*
X190339524Y-93759761D01*
X190339524Y-93759761D02*
X190434762Y-93807380D01*
X190434762Y-93807380D02*
X190625238Y-93807380D01*
X190625238Y-93807380D02*
X190720476Y-93759761D01*
X190720476Y-93759761D02*
X190768095Y-93712142D01*
X190768095Y-93712142D02*
X190815714Y-93616904D01*
X190815714Y-93616904D02*
X190815714Y-93378809D01*
X190815714Y-93378809D02*
X190768095Y-93283571D01*
X190768095Y-93283571D02*
X190720476Y-93235952D01*
X190720476Y-93235952D02*
X190625238Y-93188333D01*
X190625238Y-93188333D02*
X190434762Y-93188333D01*
X190434762Y-93188333D02*
X190339524Y-93235952D01*
X190339524Y-93235952D02*
X190291905Y-93283571D01*
X190291905Y-93283571D02*
X190244286Y-93378809D01*
%TO.C,Q5*%
X149034761Y-108902619D02*
X148939523Y-108855000D01*
X148939523Y-108855000D02*
X148844285Y-108759761D01*
X148844285Y-108759761D02*
X148701428Y-108616904D01*
X148701428Y-108616904D02*
X148606190Y-108569285D01*
X148606190Y-108569285D02*
X148510952Y-108569285D01*
X148558571Y-108807380D02*
X148463333Y-108759761D01*
X148463333Y-108759761D02*
X148368095Y-108664523D01*
X148368095Y-108664523D02*
X148320476Y-108474047D01*
X148320476Y-108474047D02*
X148320476Y-108140714D01*
X148320476Y-108140714D02*
X148368095Y-107950238D01*
X148368095Y-107950238D02*
X148463333Y-107855000D01*
X148463333Y-107855000D02*
X148558571Y-107807380D01*
X148558571Y-107807380D02*
X148749047Y-107807380D01*
X148749047Y-107807380D02*
X148844285Y-107855000D01*
X148844285Y-107855000D02*
X148939523Y-107950238D01*
X148939523Y-107950238D02*
X148987142Y-108140714D01*
X148987142Y-108140714D02*
X148987142Y-108474047D01*
X148987142Y-108474047D02*
X148939523Y-108664523D01*
X148939523Y-108664523D02*
X148844285Y-108759761D01*
X148844285Y-108759761D02*
X148749047Y-108807380D01*
X148749047Y-108807380D02*
X148558571Y-108807380D01*
X149891904Y-107807380D02*
X149415714Y-107807380D01*
X149415714Y-107807380D02*
X149368095Y-108283571D01*
X149368095Y-108283571D02*
X149415714Y-108235952D01*
X149415714Y-108235952D02*
X149510952Y-108188333D01*
X149510952Y-108188333D02*
X149749047Y-108188333D01*
X149749047Y-108188333D02*
X149844285Y-108235952D01*
X149844285Y-108235952D02*
X149891904Y-108283571D01*
X149891904Y-108283571D02*
X149939523Y-108378809D01*
X149939523Y-108378809D02*
X149939523Y-108616904D01*
X149939523Y-108616904D02*
X149891904Y-108712142D01*
X149891904Y-108712142D02*
X149844285Y-108759761D01*
X149844285Y-108759761D02*
X149749047Y-108807380D01*
X149749047Y-108807380D02*
X149510952Y-108807380D01*
X149510952Y-108807380D02*
X149415714Y-108759761D01*
X149415714Y-108759761D02*
X149368095Y-108712142D01*
%TO.C,R9*%
X128423333Y-87967380D02*
X128090000Y-87491190D01*
X127851905Y-87967380D02*
X127851905Y-86967380D01*
X127851905Y-86967380D02*
X128232857Y-86967380D01*
X128232857Y-86967380D02*
X128328095Y-87015000D01*
X128328095Y-87015000D02*
X128375714Y-87062619D01*
X128375714Y-87062619D02*
X128423333Y-87157857D01*
X128423333Y-87157857D02*
X128423333Y-87300714D01*
X128423333Y-87300714D02*
X128375714Y-87395952D01*
X128375714Y-87395952D02*
X128328095Y-87443571D01*
X128328095Y-87443571D02*
X128232857Y-87491190D01*
X128232857Y-87491190D02*
X127851905Y-87491190D01*
X128899524Y-87967380D02*
X129090000Y-87967380D01*
X129090000Y-87967380D02*
X129185238Y-87919761D01*
X129185238Y-87919761D02*
X129232857Y-87872142D01*
X129232857Y-87872142D02*
X129328095Y-87729285D01*
X129328095Y-87729285D02*
X129375714Y-87538809D01*
X129375714Y-87538809D02*
X129375714Y-87157857D01*
X129375714Y-87157857D02*
X129328095Y-87062619D01*
X129328095Y-87062619D02*
X129280476Y-87015000D01*
X129280476Y-87015000D02*
X129185238Y-86967380D01*
X129185238Y-86967380D02*
X128994762Y-86967380D01*
X128994762Y-86967380D02*
X128899524Y-87015000D01*
X128899524Y-87015000D02*
X128851905Y-87062619D01*
X128851905Y-87062619D02*
X128804286Y-87157857D01*
X128804286Y-87157857D02*
X128804286Y-87395952D01*
X128804286Y-87395952D02*
X128851905Y-87491190D01*
X128851905Y-87491190D02*
X128899524Y-87538809D01*
X128899524Y-87538809D02*
X128994762Y-87586428D01*
X128994762Y-87586428D02*
X129185238Y-87586428D01*
X129185238Y-87586428D02*
X129280476Y-87538809D01*
X129280476Y-87538809D02*
X129328095Y-87491190D01*
X129328095Y-87491190D02*
X129375714Y-87395952D01*
%TO.C,C2*%
X128910984Y-83372142D02*
X128863365Y-83419761D01*
X128863365Y-83419761D02*
X128720508Y-83467380D01*
X128720508Y-83467380D02*
X128625270Y-83467380D01*
X128625270Y-83467380D02*
X128482413Y-83419761D01*
X128482413Y-83419761D02*
X128387175Y-83324523D01*
X128387175Y-83324523D02*
X128339556Y-83229285D01*
X128339556Y-83229285D02*
X128291937Y-83038809D01*
X128291937Y-83038809D02*
X128291937Y-82895952D01*
X128291937Y-82895952D02*
X128339556Y-82705476D01*
X128339556Y-82705476D02*
X128387175Y-82610238D01*
X128387175Y-82610238D02*
X128482413Y-82515000D01*
X128482413Y-82515000D02*
X128625270Y-82467380D01*
X128625270Y-82467380D02*
X128720508Y-82467380D01*
X128720508Y-82467380D02*
X128863365Y-82515000D01*
X128863365Y-82515000D02*
X128910984Y-82562619D01*
X129291937Y-82562619D02*
X129339556Y-82515000D01*
X129339556Y-82515000D02*
X129434794Y-82467380D01*
X129434794Y-82467380D02*
X129672889Y-82467380D01*
X129672889Y-82467380D02*
X129768127Y-82515000D01*
X129768127Y-82515000D02*
X129815746Y-82562619D01*
X129815746Y-82562619D02*
X129863365Y-82657857D01*
X129863365Y-82657857D02*
X129863365Y-82753095D01*
X129863365Y-82753095D02*
X129815746Y-82895952D01*
X129815746Y-82895952D02*
X129244318Y-83467380D01*
X129244318Y-83467380D02*
X129863365Y-83467380D01*
%TO.C,H1*%
X77622495Y-68963780D02*
X77622495Y-67963780D01*
X77622495Y-68439971D02*
X78193923Y-68439971D01*
X78193923Y-68963780D02*
X78193923Y-67963780D01*
X79193923Y-68963780D02*
X78622495Y-68963780D01*
X78908209Y-68963780D02*
X78908209Y-67963780D01*
X78908209Y-67963780D02*
X78812971Y-68106638D01*
X78812971Y-68106638D02*
X78717733Y-68201876D01*
X78717733Y-68201876D02*
X78622495Y-68249495D01*
%TO.C,C1*%
X93353333Y-76272142D02*
X93305714Y-76319761D01*
X93305714Y-76319761D02*
X93162857Y-76367380D01*
X93162857Y-76367380D02*
X93067619Y-76367380D01*
X93067619Y-76367380D02*
X92924762Y-76319761D01*
X92924762Y-76319761D02*
X92829524Y-76224523D01*
X92829524Y-76224523D02*
X92781905Y-76129285D01*
X92781905Y-76129285D02*
X92734286Y-75938809D01*
X92734286Y-75938809D02*
X92734286Y-75795952D01*
X92734286Y-75795952D02*
X92781905Y-75605476D01*
X92781905Y-75605476D02*
X92829524Y-75510238D01*
X92829524Y-75510238D02*
X92924762Y-75415000D01*
X92924762Y-75415000D02*
X93067619Y-75367380D01*
X93067619Y-75367380D02*
X93162857Y-75367380D01*
X93162857Y-75367380D02*
X93305714Y-75415000D01*
X93305714Y-75415000D02*
X93353333Y-75462619D01*
X94305714Y-76367380D02*
X93734286Y-76367380D01*
X94020000Y-76367380D02*
X94020000Y-75367380D01*
X94020000Y-75367380D02*
X93924762Y-75510238D01*
X93924762Y-75510238D02*
X93829524Y-75605476D01*
X93829524Y-75605476D02*
X93734286Y-75653095D01*
%TO.C,R1*%
X150833333Y-103767380D02*
X150500000Y-103291190D01*
X150261905Y-103767380D02*
X150261905Y-102767380D01*
X150261905Y-102767380D02*
X150642857Y-102767380D01*
X150642857Y-102767380D02*
X150738095Y-102815000D01*
X150738095Y-102815000D02*
X150785714Y-102862619D01*
X150785714Y-102862619D02*
X150833333Y-102957857D01*
X150833333Y-102957857D02*
X150833333Y-103100714D01*
X150833333Y-103100714D02*
X150785714Y-103195952D01*
X150785714Y-103195952D02*
X150738095Y-103243571D01*
X150738095Y-103243571D02*
X150642857Y-103291190D01*
X150642857Y-103291190D02*
X150261905Y-103291190D01*
X151785714Y-103767380D02*
X151214286Y-103767380D01*
X151500000Y-103767380D02*
X151500000Y-102767380D01*
X151500000Y-102767380D02*
X151404762Y-102910238D01*
X151404762Y-102910238D02*
X151309524Y-103005476D01*
X151309524Y-103005476D02*
X151214286Y-103053095D01*
%TO.C,J4*%
X178066666Y-96067380D02*
X178066666Y-96781666D01*
X178066666Y-96781666D02*
X178019047Y-96924523D01*
X178019047Y-96924523D02*
X177923809Y-97019761D01*
X177923809Y-97019761D02*
X177780952Y-97067380D01*
X177780952Y-97067380D02*
X177685714Y-97067380D01*
X178971428Y-96400714D02*
X178971428Y-97067380D01*
X178733333Y-96019761D02*
X178495238Y-96734047D01*
X178495238Y-96734047D02*
X179114285Y-96734047D01*
%TO.C,R11*%
X134967380Y-112042857D02*
X134491190Y-112376190D01*
X134967380Y-112614285D02*
X133967380Y-112614285D01*
X133967380Y-112614285D02*
X133967380Y-112233333D01*
X133967380Y-112233333D02*
X134015000Y-112138095D01*
X134015000Y-112138095D02*
X134062619Y-112090476D01*
X134062619Y-112090476D02*
X134157857Y-112042857D01*
X134157857Y-112042857D02*
X134300714Y-112042857D01*
X134300714Y-112042857D02*
X134395952Y-112090476D01*
X134395952Y-112090476D02*
X134443571Y-112138095D01*
X134443571Y-112138095D02*
X134491190Y-112233333D01*
X134491190Y-112233333D02*
X134491190Y-112614285D01*
X134967380Y-111090476D02*
X134967380Y-111661904D01*
X134967380Y-111376190D02*
X133967380Y-111376190D01*
X133967380Y-111376190D02*
X134110238Y-111471428D01*
X134110238Y-111471428D02*
X134205476Y-111566666D01*
X134205476Y-111566666D02*
X134253095Y-111661904D01*
X134967380Y-110138095D02*
X134967380Y-110709523D01*
X134967380Y-110423809D02*
X133967380Y-110423809D01*
X133967380Y-110423809D02*
X134110238Y-110519047D01*
X134110238Y-110519047D02*
X134205476Y-110614285D01*
X134205476Y-110614285D02*
X134253095Y-110709523D01*
%TO.C,R15*%
X119832142Y-112522533D02*
X119498809Y-112046343D01*
X119260714Y-112522533D02*
X119260714Y-111522533D01*
X119260714Y-111522533D02*
X119641666Y-111522533D01*
X119641666Y-111522533D02*
X119736904Y-111570153D01*
X119736904Y-111570153D02*
X119784523Y-111617772D01*
X119784523Y-111617772D02*
X119832142Y-111713010D01*
X119832142Y-111713010D02*
X119832142Y-111855867D01*
X119832142Y-111855867D02*
X119784523Y-111951105D01*
X119784523Y-111951105D02*
X119736904Y-111998724D01*
X119736904Y-111998724D02*
X119641666Y-112046343D01*
X119641666Y-112046343D02*
X119260714Y-112046343D01*
X120784523Y-112522533D02*
X120213095Y-112522533D01*
X120498809Y-112522533D02*
X120498809Y-111522533D01*
X120498809Y-111522533D02*
X120403571Y-111665391D01*
X120403571Y-111665391D02*
X120308333Y-111760629D01*
X120308333Y-111760629D02*
X120213095Y-111808248D01*
X121689285Y-111522533D02*
X121213095Y-111522533D01*
X121213095Y-111522533D02*
X121165476Y-111998724D01*
X121165476Y-111998724D02*
X121213095Y-111951105D01*
X121213095Y-111951105D02*
X121308333Y-111903486D01*
X121308333Y-111903486D02*
X121546428Y-111903486D01*
X121546428Y-111903486D02*
X121641666Y-111951105D01*
X121641666Y-111951105D02*
X121689285Y-111998724D01*
X121689285Y-111998724D02*
X121736904Y-112093962D01*
X121736904Y-112093962D02*
X121736904Y-112332057D01*
X121736904Y-112332057D02*
X121689285Y-112427295D01*
X121689285Y-112427295D02*
X121641666Y-112474914D01*
X121641666Y-112474914D02*
X121546428Y-112522533D01*
X121546428Y-112522533D02*
X121308333Y-112522533D01*
X121308333Y-112522533D02*
X121213095Y-112474914D01*
X121213095Y-112474914D02*
X121165476Y-112427295D01*
%TO.C,H3*%
X222707295Y-117020580D02*
X222707295Y-116020580D01*
X222707295Y-116496771D02*
X223278723Y-116496771D01*
X223278723Y-117020580D02*
X223278723Y-116020580D01*
X223659676Y-116020580D02*
X224278723Y-116020580D01*
X224278723Y-116020580D02*
X223945390Y-116401533D01*
X223945390Y-116401533D02*
X224088247Y-116401533D01*
X224088247Y-116401533D02*
X224183485Y-116449152D01*
X224183485Y-116449152D02*
X224231104Y-116496771D01*
X224231104Y-116496771D02*
X224278723Y-116592009D01*
X224278723Y-116592009D02*
X224278723Y-116830104D01*
X224278723Y-116830104D02*
X224231104Y-116925342D01*
X224231104Y-116925342D02*
X224183485Y-116972961D01*
X224183485Y-116972961D02*
X224088247Y-117020580D01*
X224088247Y-117020580D02*
X223802533Y-117020580D01*
X223802533Y-117020580D02*
X223707295Y-116972961D01*
X223707295Y-116972961D02*
X223659676Y-116925342D01*
%TO.C,U7*%
X214319380Y-112571904D02*
X215128904Y-112571904D01*
X215128904Y-112571904D02*
X215224142Y-112524285D01*
X215224142Y-112524285D02*
X215271761Y-112476666D01*
X215271761Y-112476666D02*
X215319380Y-112381428D01*
X215319380Y-112381428D02*
X215319380Y-112190952D01*
X215319380Y-112190952D02*
X215271761Y-112095714D01*
X215271761Y-112095714D02*
X215224142Y-112048095D01*
X215224142Y-112048095D02*
X215128904Y-112000476D01*
X215128904Y-112000476D02*
X214319380Y-112000476D01*
X214319380Y-111619523D02*
X214319380Y-110952857D01*
X214319380Y-110952857D02*
X215319380Y-111381428D01*
%TO.C,Q15*%
X161228571Y-93892619D02*
X161133333Y-93845000D01*
X161133333Y-93845000D02*
X161038095Y-93749761D01*
X161038095Y-93749761D02*
X160895238Y-93606904D01*
X160895238Y-93606904D02*
X160800000Y-93559285D01*
X160800000Y-93559285D02*
X160704762Y-93559285D01*
X160752381Y-93797380D02*
X160657143Y-93749761D01*
X160657143Y-93749761D02*
X160561905Y-93654523D01*
X160561905Y-93654523D02*
X160514286Y-93464047D01*
X160514286Y-93464047D02*
X160514286Y-93130714D01*
X160514286Y-93130714D02*
X160561905Y-92940238D01*
X160561905Y-92940238D02*
X160657143Y-92845000D01*
X160657143Y-92845000D02*
X160752381Y-92797380D01*
X160752381Y-92797380D02*
X160942857Y-92797380D01*
X160942857Y-92797380D02*
X161038095Y-92845000D01*
X161038095Y-92845000D02*
X161133333Y-92940238D01*
X161133333Y-92940238D02*
X161180952Y-93130714D01*
X161180952Y-93130714D02*
X161180952Y-93464047D01*
X161180952Y-93464047D02*
X161133333Y-93654523D01*
X161133333Y-93654523D02*
X161038095Y-93749761D01*
X161038095Y-93749761D02*
X160942857Y-93797380D01*
X160942857Y-93797380D02*
X160752381Y-93797380D01*
X162133333Y-93797380D02*
X161561905Y-93797380D01*
X161847619Y-93797380D02*
X161847619Y-92797380D01*
X161847619Y-92797380D02*
X161752381Y-92940238D01*
X161752381Y-92940238D02*
X161657143Y-93035476D01*
X161657143Y-93035476D02*
X161561905Y-93083095D01*
X163038095Y-92797380D02*
X162561905Y-92797380D01*
X162561905Y-92797380D02*
X162514286Y-93273571D01*
X162514286Y-93273571D02*
X162561905Y-93225952D01*
X162561905Y-93225952D02*
X162657143Y-93178333D01*
X162657143Y-93178333D02*
X162895238Y-93178333D01*
X162895238Y-93178333D02*
X162990476Y-93225952D01*
X162990476Y-93225952D02*
X163038095Y-93273571D01*
X163038095Y-93273571D02*
X163085714Y-93368809D01*
X163085714Y-93368809D02*
X163085714Y-93606904D01*
X163085714Y-93606904D02*
X163038095Y-93702142D01*
X163038095Y-93702142D02*
X162990476Y-93749761D01*
X162990476Y-93749761D02*
X162895238Y-93797380D01*
X162895238Y-93797380D02*
X162657143Y-93797380D01*
X162657143Y-93797380D02*
X162561905Y-93749761D01*
X162561905Y-93749761D02*
X162514286Y-93702142D01*
%TO.C,J5*%
X205566666Y-96067380D02*
X205566666Y-96781666D01*
X205566666Y-96781666D02*
X205519047Y-96924523D01*
X205519047Y-96924523D02*
X205423809Y-97019761D01*
X205423809Y-97019761D02*
X205280952Y-97067380D01*
X205280952Y-97067380D02*
X205185714Y-97067380D01*
X206519047Y-96067380D02*
X206042857Y-96067380D01*
X206042857Y-96067380D02*
X205995238Y-96543571D01*
X205995238Y-96543571D02*
X206042857Y-96495952D01*
X206042857Y-96495952D02*
X206138095Y-96448333D01*
X206138095Y-96448333D02*
X206376190Y-96448333D01*
X206376190Y-96448333D02*
X206471428Y-96495952D01*
X206471428Y-96495952D02*
X206519047Y-96543571D01*
X206519047Y-96543571D02*
X206566666Y-96638809D01*
X206566666Y-96638809D02*
X206566666Y-96876904D01*
X206566666Y-96876904D02*
X206519047Y-96972142D01*
X206519047Y-96972142D02*
X206471428Y-97019761D01*
X206471428Y-97019761D02*
X206376190Y-97067380D01*
X206376190Y-97067380D02*
X206138095Y-97067380D01*
X206138095Y-97067380D02*
X206042857Y-97019761D01*
X206042857Y-97019761D02*
X205995238Y-96972142D01*
%TO.C,J3*%
X123066666Y-96067380D02*
X123066666Y-96781666D01*
X123066666Y-96781666D02*
X123019047Y-96924523D01*
X123019047Y-96924523D02*
X122923809Y-97019761D01*
X122923809Y-97019761D02*
X122780952Y-97067380D01*
X122780952Y-97067380D02*
X122685714Y-97067380D01*
X123447619Y-96067380D02*
X124066666Y-96067380D01*
X124066666Y-96067380D02*
X123733333Y-96448333D01*
X123733333Y-96448333D02*
X123876190Y-96448333D01*
X123876190Y-96448333D02*
X123971428Y-96495952D01*
X123971428Y-96495952D02*
X124019047Y-96543571D01*
X124019047Y-96543571D02*
X124066666Y-96638809D01*
X124066666Y-96638809D02*
X124066666Y-96876904D01*
X124066666Y-96876904D02*
X124019047Y-96972142D01*
X124019047Y-96972142D02*
X123971428Y-97019761D01*
X123971428Y-97019761D02*
X123876190Y-97067380D01*
X123876190Y-97067380D02*
X123590476Y-97067380D01*
X123590476Y-97067380D02*
X123495238Y-97019761D01*
X123495238Y-97019761D02*
X123447619Y-96972142D01*
%TO.C,NE1*%
X149685714Y-93797380D02*
X149685714Y-92797380D01*
X149685714Y-92797380D02*
X150257142Y-93797380D01*
X150257142Y-93797380D02*
X150257142Y-92797380D01*
X150733333Y-93273571D02*
X151066666Y-93273571D01*
X151209523Y-93797380D02*
X150733333Y-93797380D01*
X150733333Y-93797380D02*
X150733333Y-92797380D01*
X150733333Y-92797380D02*
X151209523Y-92797380D01*
X152161904Y-93797380D02*
X151590476Y-93797380D01*
X151876190Y-93797380D02*
X151876190Y-92797380D01*
X151876190Y-92797380D02*
X151780952Y-92940238D01*
X151780952Y-92940238D02*
X151685714Y-93035476D01*
X151685714Y-93035476D02*
X151590476Y-93083095D01*
%TO.C,J2*%
X95566666Y-96067380D02*
X95566666Y-96781666D01*
X95566666Y-96781666D02*
X95519047Y-96924523D01*
X95519047Y-96924523D02*
X95423809Y-97019761D01*
X95423809Y-97019761D02*
X95280952Y-97067380D01*
X95280952Y-97067380D02*
X95185714Y-97067380D01*
X95995238Y-96162619D02*
X96042857Y-96115000D01*
X96042857Y-96115000D02*
X96138095Y-96067380D01*
X96138095Y-96067380D02*
X96376190Y-96067380D01*
X96376190Y-96067380D02*
X96471428Y-96115000D01*
X96471428Y-96115000D02*
X96519047Y-96162619D01*
X96519047Y-96162619D02*
X96566666Y-96257857D01*
X96566666Y-96257857D02*
X96566666Y-96353095D01*
X96566666Y-96353095D02*
X96519047Y-96495952D01*
X96519047Y-96495952D02*
X95947619Y-97067380D01*
X95947619Y-97067380D02*
X96566666Y-97067380D01*
%TO.C,Q11*%
X111308571Y-117427772D02*
X111213333Y-117380153D01*
X111213333Y-117380153D02*
X111118095Y-117284914D01*
X111118095Y-117284914D02*
X110975238Y-117142057D01*
X110975238Y-117142057D02*
X110880000Y-117094438D01*
X110880000Y-117094438D02*
X110784762Y-117094438D01*
X110832381Y-117332533D02*
X110737143Y-117284914D01*
X110737143Y-117284914D02*
X110641905Y-117189676D01*
X110641905Y-117189676D02*
X110594286Y-116999200D01*
X110594286Y-116999200D02*
X110594286Y-116665867D01*
X110594286Y-116665867D02*
X110641905Y-116475391D01*
X110641905Y-116475391D02*
X110737143Y-116380153D01*
X110737143Y-116380153D02*
X110832381Y-116332533D01*
X110832381Y-116332533D02*
X111022857Y-116332533D01*
X111022857Y-116332533D02*
X111118095Y-116380153D01*
X111118095Y-116380153D02*
X111213333Y-116475391D01*
X111213333Y-116475391D02*
X111260952Y-116665867D01*
X111260952Y-116665867D02*
X111260952Y-116999200D01*
X111260952Y-116999200D02*
X111213333Y-117189676D01*
X111213333Y-117189676D02*
X111118095Y-117284914D01*
X111118095Y-117284914D02*
X111022857Y-117332533D01*
X111022857Y-117332533D02*
X110832381Y-117332533D01*
X112213333Y-117332533D02*
X111641905Y-117332533D01*
X111927619Y-117332533D02*
X111927619Y-116332533D01*
X111927619Y-116332533D02*
X111832381Y-116475391D01*
X111832381Y-116475391D02*
X111737143Y-116570629D01*
X111737143Y-116570629D02*
X111641905Y-116618248D01*
X113165714Y-117332533D02*
X112594286Y-117332533D01*
X112880000Y-117332533D02*
X112880000Y-116332533D01*
X112880000Y-116332533D02*
X112784762Y-116475391D01*
X112784762Y-116475391D02*
X112689524Y-116570629D01*
X112689524Y-116570629D02*
X112594286Y-116618248D01*
%TO.C,U1*%
X94638095Y-84167380D02*
X94638095Y-84976904D01*
X94638095Y-84976904D02*
X94685714Y-85072142D01*
X94685714Y-85072142D02*
X94733333Y-85119761D01*
X94733333Y-85119761D02*
X94828571Y-85167380D01*
X94828571Y-85167380D02*
X95019047Y-85167380D01*
X95019047Y-85167380D02*
X95114285Y-85119761D01*
X95114285Y-85119761D02*
X95161904Y-85072142D01*
X95161904Y-85072142D02*
X95209523Y-84976904D01*
X95209523Y-84976904D02*
X95209523Y-84167380D01*
X96209523Y-85167380D02*
X95638095Y-85167380D01*
X95923809Y-85167380D02*
X95923809Y-84167380D01*
X95923809Y-84167380D02*
X95828571Y-84310238D01*
X95828571Y-84310238D02*
X95733333Y-84405476D01*
X95733333Y-84405476D02*
X95638095Y-84453095D01*
%TO.C,R24*%
X88167380Y-96852857D02*
X87691190Y-97186190D01*
X88167380Y-97424285D02*
X87167380Y-97424285D01*
X87167380Y-97424285D02*
X87167380Y-97043333D01*
X87167380Y-97043333D02*
X87215000Y-96948095D01*
X87215000Y-96948095D02*
X87262619Y-96900476D01*
X87262619Y-96900476D02*
X87357857Y-96852857D01*
X87357857Y-96852857D02*
X87500714Y-96852857D01*
X87500714Y-96852857D02*
X87595952Y-96900476D01*
X87595952Y-96900476D02*
X87643571Y-96948095D01*
X87643571Y-96948095D02*
X87691190Y-97043333D01*
X87691190Y-97043333D02*
X87691190Y-97424285D01*
X87262619Y-96471904D02*
X87215000Y-96424285D01*
X87215000Y-96424285D02*
X87167380Y-96329047D01*
X87167380Y-96329047D02*
X87167380Y-96090952D01*
X87167380Y-96090952D02*
X87215000Y-95995714D01*
X87215000Y-95995714D02*
X87262619Y-95948095D01*
X87262619Y-95948095D02*
X87357857Y-95900476D01*
X87357857Y-95900476D02*
X87453095Y-95900476D01*
X87453095Y-95900476D02*
X87595952Y-95948095D01*
X87595952Y-95948095D02*
X88167380Y-96519523D01*
X88167380Y-96519523D02*
X88167380Y-95900476D01*
X87500714Y-95043333D02*
X88167380Y-95043333D01*
X87119761Y-95281428D02*
X87834047Y-95519523D01*
X87834047Y-95519523D02*
X87834047Y-94900476D01*
%TO.C,R19*%
X93027142Y-112522533D02*
X92693809Y-112046343D01*
X92455714Y-112522533D02*
X92455714Y-111522533D01*
X92455714Y-111522533D02*
X92836666Y-111522533D01*
X92836666Y-111522533D02*
X92931904Y-111570153D01*
X92931904Y-111570153D02*
X92979523Y-111617772D01*
X92979523Y-111617772D02*
X93027142Y-111713010D01*
X93027142Y-111713010D02*
X93027142Y-111855867D01*
X93027142Y-111855867D02*
X92979523Y-111951105D01*
X92979523Y-111951105D02*
X92931904Y-111998724D01*
X92931904Y-111998724D02*
X92836666Y-112046343D01*
X92836666Y-112046343D02*
X92455714Y-112046343D01*
X93979523Y-112522533D02*
X93408095Y-112522533D01*
X93693809Y-112522533D02*
X93693809Y-111522533D01*
X93693809Y-111522533D02*
X93598571Y-111665391D01*
X93598571Y-111665391D02*
X93503333Y-111760629D01*
X93503333Y-111760629D02*
X93408095Y-111808248D01*
X94455714Y-112522533D02*
X94646190Y-112522533D01*
X94646190Y-112522533D02*
X94741428Y-112474914D01*
X94741428Y-112474914D02*
X94789047Y-112427295D01*
X94789047Y-112427295D02*
X94884285Y-112284438D01*
X94884285Y-112284438D02*
X94931904Y-112093962D01*
X94931904Y-112093962D02*
X94931904Y-111713010D01*
X94931904Y-111713010D02*
X94884285Y-111617772D01*
X94884285Y-111617772D02*
X94836666Y-111570153D01*
X94836666Y-111570153D02*
X94741428Y-111522533D01*
X94741428Y-111522533D02*
X94550952Y-111522533D01*
X94550952Y-111522533D02*
X94455714Y-111570153D01*
X94455714Y-111570153D02*
X94408095Y-111617772D01*
X94408095Y-111617772D02*
X94360476Y-111713010D01*
X94360476Y-111713010D02*
X94360476Y-111951105D01*
X94360476Y-111951105D02*
X94408095Y-112046343D01*
X94408095Y-112046343D02*
X94455714Y-112093962D01*
X94455714Y-112093962D02*
X94550952Y-112141581D01*
X94550952Y-112141581D02*
X94741428Y-112141581D01*
X94741428Y-112141581D02*
X94836666Y-112093962D01*
X94836666Y-112093962D02*
X94884285Y-112046343D01*
X94884285Y-112046343D02*
X94931904Y-111951105D01*
%TO.C,H2*%
X222656495Y-68963780D02*
X222656495Y-67963780D01*
X222656495Y-68439971D02*
X223227923Y-68439971D01*
X223227923Y-68963780D02*
X223227923Y-67963780D01*
X223656495Y-68059019D02*
X223704114Y-68011400D01*
X223704114Y-68011400D02*
X223799352Y-67963780D01*
X223799352Y-67963780D02*
X224037447Y-67963780D01*
X224037447Y-67963780D02*
X224132685Y-68011400D01*
X224132685Y-68011400D02*
X224180304Y-68059019D01*
X224180304Y-68059019D02*
X224227923Y-68154257D01*
X224227923Y-68154257D02*
X224227923Y-68249495D01*
X224227923Y-68249495D02*
X224180304Y-68392352D01*
X224180304Y-68392352D02*
X223608876Y-68963780D01*
X223608876Y-68963780D02*
X224227923Y-68963780D01*
%TO.C,Q7*%
X168644761Y-108912619D02*
X168549523Y-108865000D01*
X168549523Y-108865000D02*
X168454285Y-108769761D01*
X168454285Y-108769761D02*
X168311428Y-108626904D01*
X168311428Y-108626904D02*
X168216190Y-108579285D01*
X168216190Y-108579285D02*
X168120952Y-108579285D01*
X168168571Y-108817380D02*
X168073333Y-108769761D01*
X168073333Y-108769761D02*
X167978095Y-108674523D01*
X167978095Y-108674523D02*
X167930476Y-108484047D01*
X167930476Y-108484047D02*
X167930476Y-108150714D01*
X167930476Y-108150714D02*
X167978095Y-107960238D01*
X167978095Y-107960238D02*
X168073333Y-107865000D01*
X168073333Y-107865000D02*
X168168571Y-107817380D01*
X168168571Y-107817380D02*
X168359047Y-107817380D01*
X168359047Y-107817380D02*
X168454285Y-107865000D01*
X168454285Y-107865000D02*
X168549523Y-107960238D01*
X168549523Y-107960238D02*
X168597142Y-108150714D01*
X168597142Y-108150714D02*
X168597142Y-108484047D01*
X168597142Y-108484047D02*
X168549523Y-108674523D01*
X168549523Y-108674523D02*
X168454285Y-108769761D01*
X168454285Y-108769761D02*
X168359047Y-108817380D01*
X168359047Y-108817380D02*
X168168571Y-108817380D01*
X168930476Y-107817380D02*
X169597142Y-107817380D01*
X169597142Y-107817380D02*
X169168571Y-108817380D01*
%TO.C,Q12*%
X98158571Y-108607772D02*
X98063333Y-108560153D01*
X98063333Y-108560153D02*
X97968095Y-108464914D01*
X97968095Y-108464914D02*
X97825238Y-108322057D01*
X97825238Y-108322057D02*
X97730000Y-108274438D01*
X97730000Y-108274438D02*
X97634762Y-108274438D01*
X97682381Y-108512533D02*
X97587143Y-108464914D01*
X97587143Y-108464914D02*
X97491905Y-108369676D01*
X97491905Y-108369676D02*
X97444286Y-108179200D01*
X97444286Y-108179200D02*
X97444286Y-107845867D01*
X97444286Y-107845867D02*
X97491905Y-107655391D01*
X97491905Y-107655391D02*
X97587143Y-107560153D01*
X97587143Y-107560153D02*
X97682381Y-107512533D01*
X97682381Y-107512533D02*
X97872857Y-107512533D01*
X97872857Y-107512533D02*
X97968095Y-107560153D01*
X97968095Y-107560153D02*
X98063333Y-107655391D01*
X98063333Y-107655391D02*
X98110952Y-107845867D01*
X98110952Y-107845867D02*
X98110952Y-108179200D01*
X98110952Y-108179200D02*
X98063333Y-108369676D01*
X98063333Y-108369676D02*
X97968095Y-108464914D01*
X97968095Y-108464914D02*
X97872857Y-108512533D01*
X97872857Y-108512533D02*
X97682381Y-108512533D01*
X99063333Y-108512533D02*
X98491905Y-108512533D01*
X98777619Y-108512533D02*
X98777619Y-107512533D01*
X98777619Y-107512533D02*
X98682381Y-107655391D01*
X98682381Y-107655391D02*
X98587143Y-107750629D01*
X98587143Y-107750629D02*
X98491905Y-107798248D01*
X99444286Y-107607772D02*
X99491905Y-107560153D01*
X99491905Y-107560153D02*
X99587143Y-107512533D01*
X99587143Y-107512533D02*
X99825238Y-107512533D01*
X99825238Y-107512533D02*
X99920476Y-107560153D01*
X99920476Y-107560153D02*
X99968095Y-107607772D01*
X99968095Y-107607772D02*
X100015714Y-107703010D01*
X100015714Y-107703010D02*
X100015714Y-107798248D01*
X100015714Y-107798248D02*
X99968095Y-107941105D01*
X99968095Y-107941105D02*
X99396667Y-108512533D01*
X99396667Y-108512533D02*
X100015714Y-108512533D01*
%TO.C,R22*%
X82157142Y-103367380D02*
X81823809Y-102891190D01*
X81585714Y-103367380D02*
X81585714Y-102367380D01*
X81585714Y-102367380D02*
X81966666Y-102367380D01*
X81966666Y-102367380D02*
X82061904Y-102415000D01*
X82061904Y-102415000D02*
X82109523Y-102462619D01*
X82109523Y-102462619D02*
X82157142Y-102557857D01*
X82157142Y-102557857D02*
X82157142Y-102700714D01*
X82157142Y-102700714D02*
X82109523Y-102795952D01*
X82109523Y-102795952D02*
X82061904Y-102843571D01*
X82061904Y-102843571D02*
X81966666Y-102891190D01*
X81966666Y-102891190D02*
X81585714Y-102891190D01*
X82538095Y-102462619D02*
X82585714Y-102415000D01*
X82585714Y-102415000D02*
X82680952Y-102367380D01*
X82680952Y-102367380D02*
X82919047Y-102367380D01*
X82919047Y-102367380D02*
X83014285Y-102415000D01*
X83014285Y-102415000D02*
X83061904Y-102462619D01*
X83061904Y-102462619D02*
X83109523Y-102557857D01*
X83109523Y-102557857D02*
X83109523Y-102653095D01*
X83109523Y-102653095D02*
X83061904Y-102795952D01*
X83061904Y-102795952D02*
X82490476Y-103367380D01*
X82490476Y-103367380D02*
X83109523Y-103367380D01*
X83490476Y-102462619D02*
X83538095Y-102415000D01*
X83538095Y-102415000D02*
X83633333Y-102367380D01*
X83633333Y-102367380D02*
X83871428Y-102367380D01*
X83871428Y-102367380D02*
X83966666Y-102415000D01*
X83966666Y-102415000D02*
X84014285Y-102462619D01*
X84014285Y-102462619D02*
X84061904Y-102557857D01*
X84061904Y-102557857D02*
X84061904Y-102653095D01*
X84061904Y-102653095D02*
X84014285Y-102795952D01*
X84014285Y-102795952D02*
X83442857Y-103367380D01*
X83442857Y-103367380D02*
X84061904Y-103367380D01*
%TO.C,Q3*%
X97974761Y-117007772D02*
X97879523Y-116960153D01*
X97879523Y-116960153D02*
X97784285Y-116864914D01*
X97784285Y-116864914D02*
X97641428Y-116722057D01*
X97641428Y-116722057D02*
X97546190Y-116674438D01*
X97546190Y-116674438D02*
X97450952Y-116674438D01*
X97498571Y-116912533D02*
X97403333Y-116864914D01*
X97403333Y-116864914D02*
X97308095Y-116769676D01*
X97308095Y-116769676D02*
X97260476Y-116579200D01*
X97260476Y-116579200D02*
X97260476Y-116245867D01*
X97260476Y-116245867D02*
X97308095Y-116055391D01*
X97308095Y-116055391D02*
X97403333Y-115960153D01*
X97403333Y-115960153D02*
X97498571Y-115912533D01*
X97498571Y-115912533D02*
X97689047Y-115912533D01*
X97689047Y-115912533D02*
X97784285Y-115960153D01*
X97784285Y-115960153D02*
X97879523Y-116055391D01*
X97879523Y-116055391D02*
X97927142Y-116245867D01*
X97927142Y-116245867D02*
X97927142Y-116579200D01*
X97927142Y-116579200D02*
X97879523Y-116769676D01*
X97879523Y-116769676D02*
X97784285Y-116864914D01*
X97784285Y-116864914D02*
X97689047Y-116912533D01*
X97689047Y-116912533D02*
X97498571Y-116912533D01*
X98260476Y-115912533D02*
X98879523Y-115912533D01*
X98879523Y-115912533D02*
X98546190Y-116293486D01*
X98546190Y-116293486D02*
X98689047Y-116293486D01*
X98689047Y-116293486D02*
X98784285Y-116341105D01*
X98784285Y-116341105D02*
X98831904Y-116388724D01*
X98831904Y-116388724D02*
X98879523Y-116483962D01*
X98879523Y-116483962D02*
X98879523Y-116722057D01*
X98879523Y-116722057D02*
X98831904Y-116817295D01*
X98831904Y-116817295D02*
X98784285Y-116864914D01*
X98784285Y-116864914D02*
X98689047Y-116912533D01*
X98689047Y-116912533D02*
X98403333Y-116912533D01*
X98403333Y-116912533D02*
X98308095Y-116864914D01*
X98308095Y-116864914D02*
X98260476Y-116817295D01*
%TO.C,C4*%
X135478221Y-76922142D02*
X135430602Y-76969761D01*
X135430602Y-76969761D02*
X135287745Y-77017380D01*
X135287745Y-77017380D02*
X135192507Y-77017380D01*
X135192507Y-77017380D02*
X135049650Y-76969761D01*
X135049650Y-76969761D02*
X134954412Y-76874523D01*
X134954412Y-76874523D02*
X134906793Y-76779285D01*
X134906793Y-76779285D02*
X134859174Y-76588809D01*
X134859174Y-76588809D02*
X134859174Y-76445952D01*
X134859174Y-76445952D02*
X134906793Y-76255476D01*
X134906793Y-76255476D02*
X134954412Y-76160238D01*
X134954412Y-76160238D02*
X135049650Y-76065000D01*
X135049650Y-76065000D02*
X135192507Y-76017380D01*
X135192507Y-76017380D02*
X135287745Y-76017380D01*
X135287745Y-76017380D02*
X135430602Y-76065000D01*
X135430602Y-76065000D02*
X135478221Y-76112619D01*
X136335364Y-76350714D02*
X136335364Y-77017380D01*
X136097269Y-75969761D02*
X135859174Y-76684047D01*
X135859174Y-76684047D02*
X136478221Y-76684047D01*
%TO.C,R3*%
X174097380Y-111756666D02*
X173621190Y-112089999D01*
X174097380Y-112328094D02*
X173097380Y-112328094D01*
X173097380Y-112328094D02*
X173097380Y-111947142D01*
X173097380Y-111947142D02*
X173145000Y-111851904D01*
X173145000Y-111851904D02*
X173192619Y-111804285D01*
X173192619Y-111804285D02*
X173287857Y-111756666D01*
X173287857Y-111756666D02*
X173430714Y-111756666D01*
X173430714Y-111756666D02*
X173525952Y-111804285D01*
X173525952Y-111804285D02*
X173573571Y-111851904D01*
X173573571Y-111851904D02*
X173621190Y-111947142D01*
X173621190Y-111947142D02*
X173621190Y-112328094D01*
X173097380Y-111423332D02*
X173097380Y-110804285D01*
X173097380Y-110804285D02*
X173478333Y-111137618D01*
X173478333Y-111137618D02*
X173478333Y-110994761D01*
X173478333Y-110994761D02*
X173525952Y-110899523D01*
X173525952Y-110899523D02*
X173573571Y-110851904D01*
X173573571Y-110851904D02*
X173668809Y-110804285D01*
X173668809Y-110804285D02*
X173906904Y-110804285D01*
X173906904Y-110804285D02*
X174002142Y-110851904D01*
X174002142Y-110851904D02*
X174049761Y-110899523D01*
X174049761Y-110899523D02*
X174097380Y-110994761D01*
X174097380Y-110994761D02*
X174097380Y-111280475D01*
X174097380Y-111280475D02*
X174049761Y-111375713D01*
X174049761Y-111375713D02*
X174002142Y-111423332D01*
%TO.C,R21*%
X192277142Y-103289380D02*
X191943809Y-102813190D01*
X191705714Y-103289380D02*
X191705714Y-102289380D01*
X191705714Y-102289380D02*
X192086666Y-102289380D01*
X192086666Y-102289380D02*
X192181904Y-102337000D01*
X192181904Y-102337000D02*
X192229523Y-102384619D01*
X192229523Y-102384619D02*
X192277142Y-102479857D01*
X192277142Y-102479857D02*
X192277142Y-102622714D01*
X192277142Y-102622714D02*
X192229523Y-102717952D01*
X192229523Y-102717952D02*
X192181904Y-102765571D01*
X192181904Y-102765571D02*
X192086666Y-102813190D01*
X192086666Y-102813190D02*
X191705714Y-102813190D01*
X192658095Y-102384619D02*
X192705714Y-102337000D01*
X192705714Y-102337000D02*
X192800952Y-102289380D01*
X192800952Y-102289380D02*
X193039047Y-102289380D01*
X193039047Y-102289380D02*
X193134285Y-102337000D01*
X193134285Y-102337000D02*
X193181904Y-102384619D01*
X193181904Y-102384619D02*
X193229523Y-102479857D01*
X193229523Y-102479857D02*
X193229523Y-102575095D01*
X193229523Y-102575095D02*
X193181904Y-102717952D01*
X193181904Y-102717952D02*
X192610476Y-103289380D01*
X192610476Y-103289380D02*
X193229523Y-103289380D01*
X194181904Y-103289380D02*
X193610476Y-103289380D01*
X193896190Y-103289380D02*
X193896190Y-102289380D01*
X193896190Y-102289380D02*
X193800952Y-102432238D01*
X193800952Y-102432238D02*
X193705714Y-102527476D01*
X193705714Y-102527476D02*
X193610476Y-102575095D01*
%TO.C,J1*%
X80216666Y-88917380D02*
X80216666Y-89631666D01*
X80216666Y-89631666D02*
X80169047Y-89774523D01*
X80169047Y-89774523D02*
X80073809Y-89869761D01*
X80073809Y-89869761D02*
X79930952Y-89917380D01*
X79930952Y-89917380D02*
X79835714Y-89917380D01*
X81216666Y-89917380D02*
X80645238Y-89917380D01*
X80930952Y-89917380D02*
X80930952Y-88917380D01*
X80930952Y-88917380D02*
X80835714Y-89060238D01*
X80835714Y-89060238D02*
X80740476Y-89155476D01*
X80740476Y-89155476D02*
X80645238Y-89203095D01*
%TO.C,Q4*%
X139304761Y-108912619D02*
X139209523Y-108865000D01*
X139209523Y-108865000D02*
X139114285Y-108769761D01*
X139114285Y-108769761D02*
X138971428Y-108626904D01*
X138971428Y-108626904D02*
X138876190Y-108579285D01*
X138876190Y-108579285D02*
X138780952Y-108579285D01*
X138828571Y-108817380D02*
X138733333Y-108769761D01*
X138733333Y-108769761D02*
X138638095Y-108674523D01*
X138638095Y-108674523D02*
X138590476Y-108484047D01*
X138590476Y-108484047D02*
X138590476Y-108150714D01*
X138590476Y-108150714D02*
X138638095Y-107960238D01*
X138638095Y-107960238D02*
X138733333Y-107865000D01*
X138733333Y-107865000D02*
X138828571Y-107817380D01*
X138828571Y-107817380D02*
X139019047Y-107817380D01*
X139019047Y-107817380D02*
X139114285Y-107865000D01*
X139114285Y-107865000D02*
X139209523Y-107960238D01*
X139209523Y-107960238D02*
X139257142Y-108150714D01*
X139257142Y-108150714D02*
X139257142Y-108484047D01*
X139257142Y-108484047D02*
X139209523Y-108674523D01*
X139209523Y-108674523D02*
X139114285Y-108769761D01*
X139114285Y-108769761D02*
X139019047Y-108817380D01*
X139019047Y-108817380D02*
X138828571Y-108817380D01*
X140114285Y-108150714D02*
X140114285Y-108817380D01*
X139876190Y-107769761D02*
X139638095Y-108484047D01*
X139638095Y-108484047D02*
X140257142Y-108484047D01*
%TO.C,R18*%
X106437142Y-121132533D02*
X106103809Y-120656343D01*
X105865714Y-121132533D02*
X105865714Y-120132533D01*
X105865714Y-120132533D02*
X106246666Y-120132533D01*
X106246666Y-120132533D02*
X106341904Y-120180153D01*
X106341904Y-120180153D02*
X106389523Y-120227772D01*
X106389523Y-120227772D02*
X106437142Y-120323010D01*
X106437142Y-120323010D02*
X106437142Y-120465867D01*
X106437142Y-120465867D02*
X106389523Y-120561105D01*
X106389523Y-120561105D02*
X106341904Y-120608724D01*
X106341904Y-120608724D02*
X106246666Y-120656343D01*
X106246666Y-120656343D02*
X105865714Y-120656343D01*
X107389523Y-121132533D02*
X106818095Y-121132533D01*
X107103809Y-121132533D02*
X107103809Y-120132533D01*
X107103809Y-120132533D02*
X107008571Y-120275391D01*
X107008571Y-120275391D02*
X106913333Y-120370629D01*
X106913333Y-120370629D02*
X106818095Y-120418248D01*
X107960952Y-120561105D02*
X107865714Y-120513486D01*
X107865714Y-120513486D02*
X107818095Y-120465867D01*
X107818095Y-120465867D02*
X107770476Y-120370629D01*
X107770476Y-120370629D02*
X107770476Y-120323010D01*
X107770476Y-120323010D02*
X107818095Y-120227772D01*
X107818095Y-120227772D02*
X107865714Y-120180153D01*
X107865714Y-120180153D02*
X107960952Y-120132533D01*
X107960952Y-120132533D02*
X108151428Y-120132533D01*
X108151428Y-120132533D02*
X108246666Y-120180153D01*
X108246666Y-120180153D02*
X108294285Y-120227772D01*
X108294285Y-120227772D02*
X108341904Y-120323010D01*
X108341904Y-120323010D02*
X108341904Y-120370629D01*
X108341904Y-120370629D02*
X108294285Y-120465867D01*
X108294285Y-120465867D02*
X108246666Y-120513486D01*
X108246666Y-120513486D02*
X108151428Y-120561105D01*
X108151428Y-120561105D02*
X107960952Y-120561105D01*
X107960952Y-120561105D02*
X107865714Y-120608724D01*
X107865714Y-120608724D02*
X107818095Y-120656343D01*
X107818095Y-120656343D02*
X107770476Y-120751581D01*
X107770476Y-120751581D02*
X107770476Y-120942057D01*
X107770476Y-120942057D02*
X107818095Y-121037295D01*
X107818095Y-121037295D02*
X107865714Y-121084914D01*
X107865714Y-121084914D02*
X107960952Y-121132533D01*
X107960952Y-121132533D02*
X108151428Y-121132533D01*
X108151428Y-121132533D02*
X108246666Y-121084914D01*
X108246666Y-121084914D02*
X108294285Y-121037295D01*
X108294285Y-121037295D02*
X108341904Y-120942057D01*
X108341904Y-120942057D02*
X108341904Y-120751581D01*
X108341904Y-120751581D02*
X108294285Y-120656343D01*
X108294285Y-120656343D02*
X108246666Y-120608724D01*
X108246666Y-120608724D02*
X108151428Y-120561105D01*
%TO.C,U4*%
X164357380Y-80761904D02*
X165166904Y-80761904D01*
X165166904Y-80761904D02*
X165262142Y-80714285D01*
X165262142Y-80714285D02*
X165309761Y-80666666D01*
X165309761Y-80666666D02*
X165357380Y-80571428D01*
X165357380Y-80571428D02*
X165357380Y-80380952D01*
X165357380Y-80380952D02*
X165309761Y-80285714D01*
X165309761Y-80285714D02*
X165262142Y-80238095D01*
X165262142Y-80238095D02*
X165166904Y-80190476D01*
X165166904Y-80190476D02*
X164357380Y-80190476D01*
X164690714Y-79285714D02*
X165357380Y-79285714D01*
X164309761Y-79523809D02*
X165024047Y-79761904D01*
X165024047Y-79761904D02*
X165024047Y-79142857D01*
%TO.C,R17*%
X106417142Y-112522533D02*
X106083809Y-112046343D01*
X105845714Y-112522533D02*
X105845714Y-111522533D01*
X105845714Y-111522533D02*
X106226666Y-111522533D01*
X106226666Y-111522533D02*
X106321904Y-111570153D01*
X106321904Y-111570153D02*
X106369523Y-111617772D01*
X106369523Y-111617772D02*
X106417142Y-111713010D01*
X106417142Y-111713010D02*
X106417142Y-111855867D01*
X106417142Y-111855867D02*
X106369523Y-111951105D01*
X106369523Y-111951105D02*
X106321904Y-111998724D01*
X106321904Y-111998724D02*
X106226666Y-112046343D01*
X106226666Y-112046343D02*
X105845714Y-112046343D01*
X107369523Y-112522533D02*
X106798095Y-112522533D01*
X107083809Y-112522533D02*
X107083809Y-111522533D01*
X107083809Y-111522533D02*
X106988571Y-111665391D01*
X106988571Y-111665391D02*
X106893333Y-111760629D01*
X106893333Y-111760629D02*
X106798095Y-111808248D01*
X107702857Y-111522533D02*
X108369523Y-111522533D01*
X108369523Y-111522533D02*
X107940952Y-112522533D01*
%TO.C,H4*%
X77622495Y-117020580D02*
X77622495Y-116020580D01*
X77622495Y-116496771D02*
X78193923Y-116496771D01*
X78193923Y-117020580D02*
X78193923Y-116020580D01*
X79098685Y-116353914D02*
X79098685Y-117020580D01*
X78860590Y-115972961D02*
X78622495Y-116687247D01*
X78622495Y-116687247D02*
X79241542Y-116687247D01*
%TO.C,R23*%
X164677142Y-103403380D02*
X164343809Y-102927190D01*
X164105714Y-103403380D02*
X164105714Y-102403380D01*
X164105714Y-102403380D02*
X164486666Y-102403380D01*
X164486666Y-102403380D02*
X164581904Y-102451000D01*
X164581904Y-102451000D02*
X164629523Y-102498619D01*
X164629523Y-102498619D02*
X164677142Y-102593857D01*
X164677142Y-102593857D02*
X164677142Y-102736714D01*
X164677142Y-102736714D02*
X164629523Y-102831952D01*
X164629523Y-102831952D02*
X164581904Y-102879571D01*
X164581904Y-102879571D02*
X164486666Y-102927190D01*
X164486666Y-102927190D02*
X164105714Y-102927190D01*
X165058095Y-102498619D02*
X165105714Y-102451000D01*
X165105714Y-102451000D02*
X165200952Y-102403380D01*
X165200952Y-102403380D02*
X165439047Y-102403380D01*
X165439047Y-102403380D02*
X165534285Y-102451000D01*
X165534285Y-102451000D02*
X165581904Y-102498619D01*
X165581904Y-102498619D02*
X165629523Y-102593857D01*
X165629523Y-102593857D02*
X165629523Y-102689095D01*
X165629523Y-102689095D02*
X165581904Y-102831952D01*
X165581904Y-102831952D02*
X165010476Y-103403380D01*
X165010476Y-103403380D02*
X165629523Y-103403380D01*
X165962857Y-102403380D02*
X166581904Y-102403380D01*
X166581904Y-102403380D02*
X166248571Y-102784333D01*
X166248571Y-102784333D02*
X166391428Y-102784333D01*
X166391428Y-102784333D02*
X166486666Y-102831952D01*
X166486666Y-102831952D02*
X166534285Y-102879571D01*
X166534285Y-102879571D02*
X166581904Y-102974809D01*
X166581904Y-102974809D02*
X166581904Y-103212904D01*
X166581904Y-103212904D02*
X166534285Y-103308142D01*
X166534285Y-103308142D02*
X166486666Y-103355761D01*
X166486666Y-103355761D02*
X166391428Y-103403380D01*
X166391428Y-103403380D02*
X166105714Y-103403380D01*
X166105714Y-103403380D02*
X166010476Y-103355761D01*
X166010476Y-103355761D02*
X165962857Y-103308142D01*
%TO.C,Q10*%
X111308571Y-108617772D02*
X111213333Y-108570153D01*
X111213333Y-108570153D02*
X111118095Y-108474914D01*
X111118095Y-108474914D02*
X110975238Y-108332057D01*
X110975238Y-108332057D02*
X110880000Y-108284438D01*
X110880000Y-108284438D02*
X110784762Y-108284438D01*
X110832381Y-108522533D02*
X110737143Y-108474914D01*
X110737143Y-108474914D02*
X110641905Y-108379676D01*
X110641905Y-108379676D02*
X110594286Y-108189200D01*
X110594286Y-108189200D02*
X110594286Y-107855867D01*
X110594286Y-107855867D02*
X110641905Y-107665391D01*
X110641905Y-107665391D02*
X110737143Y-107570153D01*
X110737143Y-107570153D02*
X110832381Y-107522533D01*
X110832381Y-107522533D02*
X111022857Y-107522533D01*
X111022857Y-107522533D02*
X111118095Y-107570153D01*
X111118095Y-107570153D02*
X111213333Y-107665391D01*
X111213333Y-107665391D02*
X111260952Y-107855867D01*
X111260952Y-107855867D02*
X111260952Y-108189200D01*
X111260952Y-108189200D02*
X111213333Y-108379676D01*
X111213333Y-108379676D02*
X111118095Y-108474914D01*
X111118095Y-108474914D02*
X111022857Y-108522533D01*
X111022857Y-108522533D02*
X110832381Y-108522533D01*
X112213333Y-108522533D02*
X111641905Y-108522533D01*
X111927619Y-108522533D02*
X111927619Y-107522533D01*
X111927619Y-107522533D02*
X111832381Y-107665391D01*
X111832381Y-107665391D02*
X111737143Y-107760629D01*
X111737143Y-107760629D02*
X111641905Y-107808248D01*
X112832381Y-107522533D02*
X112927619Y-107522533D01*
X112927619Y-107522533D02*
X113022857Y-107570153D01*
X113022857Y-107570153D02*
X113070476Y-107617772D01*
X113070476Y-107617772D02*
X113118095Y-107713010D01*
X113118095Y-107713010D02*
X113165714Y-107903486D01*
X113165714Y-107903486D02*
X113165714Y-108141581D01*
X113165714Y-108141581D02*
X113118095Y-108332057D01*
X113118095Y-108332057D02*
X113070476Y-108427295D01*
X113070476Y-108427295D02*
X113022857Y-108474914D01*
X113022857Y-108474914D02*
X112927619Y-108522533D01*
X112927619Y-108522533D02*
X112832381Y-108522533D01*
X112832381Y-108522533D02*
X112737143Y-108474914D01*
X112737143Y-108474914D02*
X112689524Y-108427295D01*
X112689524Y-108427295D02*
X112641905Y-108332057D01*
X112641905Y-108332057D02*
X112594286Y-108141581D01*
X112594286Y-108141581D02*
X112594286Y-107903486D01*
X112594286Y-107903486D02*
X112641905Y-107713010D01*
X112641905Y-107713010D02*
X112689524Y-107617772D01*
X112689524Y-107617772D02*
X112737143Y-107570153D01*
X112737143Y-107570153D02*
X112832381Y-107522533D01*
%TO.C,R25*%
X115967380Y-96832857D02*
X115491190Y-97166190D01*
X115967380Y-97404285D02*
X114967380Y-97404285D01*
X114967380Y-97404285D02*
X114967380Y-97023333D01*
X114967380Y-97023333D02*
X115015000Y-96928095D01*
X115015000Y-96928095D02*
X115062619Y-96880476D01*
X115062619Y-96880476D02*
X115157857Y-96832857D01*
X115157857Y-96832857D02*
X115300714Y-96832857D01*
X115300714Y-96832857D02*
X115395952Y-96880476D01*
X115395952Y-96880476D02*
X115443571Y-96928095D01*
X115443571Y-96928095D02*
X115491190Y-97023333D01*
X115491190Y-97023333D02*
X115491190Y-97404285D01*
X115062619Y-96451904D02*
X115015000Y-96404285D01*
X115015000Y-96404285D02*
X114967380Y-96309047D01*
X114967380Y-96309047D02*
X114967380Y-96070952D01*
X114967380Y-96070952D02*
X115015000Y-95975714D01*
X115015000Y-95975714D02*
X115062619Y-95928095D01*
X115062619Y-95928095D02*
X115157857Y-95880476D01*
X115157857Y-95880476D02*
X115253095Y-95880476D01*
X115253095Y-95880476D02*
X115395952Y-95928095D01*
X115395952Y-95928095D02*
X115967380Y-96499523D01*
X115967380Y-96499523D02*
X115967380Y-95880476D01*
X114967380Y-94975714D02*
X114967380Y-95451904D01*
X114967380Y-95451904D02*
X115443571Y-95499523D01*
X115443571Y-95499523D02*
X115395952Y-95451904D01*
X115395952Y-95451904D02*
X115348333Y-95356666D01*
X115348333Y-95356666D02*
X115348333Y-95118571D01*
X115348333Y-95118571D02*
X115395952Y-95023333D01*
X115395952Y-95023333D02*
X115443571Y-94975714D01*
X115443571Y-94975714D02*
X115538809Y-94928095D01*
X115538809Y-94928095D02*
X115776904Y-94928095D01*
X115776904Y-94928095D02*
X115872142Y-94975714D01*
X115872142Y-94975714D02*
X115919761Y-95023333D01*
X115919761Y-95023333D02*
X115967380Y-95118571D01*
X115967380Y-95118571D02*
X115967380Y-95356666D01*
X115967380Y-95356666D02*
X115919761Y-95451904D01*
X115919761Y-95451904D02*
X115872142Y-95499523D01*
%TO.C,R26*%
X170967380Y-96832857D02*
X170491190Y-97166190D01*
X170967380Y-97404285D02*
X169967380Y-97404285D01*
X169967380Y-97404285D02*
X169967380Y-97023333D01*
X169967380Y-97023333D02*
X170015000Y-96928095D01*
X170015000Y-96928095D02*
X170062619Y-96880476D01*
X170062619Y-96880476D02*
X170157857Y-96832857D01*
X170157857Y-96832857D02*
X170300714Y-96832857D01*
X170300714Y-96832857D02*
X170395952Y-96880476D01*
X170395952Y-96880476D02*
X170443571Y-96928095D01*
X170443571Y-96928095D02*
X170491190Y-97023333D01*
X170491190Y-97023333D02*
X170491190Y-97404285D01*
X170062619Y-96451904D02*
X170015000Y-96404285D01*
X170015000Y-96404285D02*
X169967380Y-96309047D01*
X169967380Y-96309047D02*
X169967380Y-96070952D01*
X169967380Y-96070952D02*
X170015000Y-95975714D01*
X170015000Y-95975714D02*
X170062619Y-95928095D01*
X170062619Y-95928095D02*
X170157857Y-95880476D01*
X170157857Y-95880476D02*
X170253095Y-95880476D01*
X170253095Y-95880476D02*
X170395952Y-95928095D01*
X170395952Y-95928095D02*
X170967380Y-96499523D01*
X170967380Y-96499523D02*
X170967380Y-95880476D01*
X169967380Y-95023333D02*
X169967380Y-95213809D01*
X169967380Y-95213809D02*
X170015000Y-95309047D01*
X170015000Y-95309047D02*
X170062619Y-95356666D01*
X170062619Y-95356666D02*
X170205476Y-95451904D01*
X170205476Y-95451904D02*
X170395952Y-95499523D01*
X170395952Y-95499523D02*
X170776904Y-95499523D01*
X170776904Y-95499523D02*
X170872142Y-95451904D01*
X170872142Y-95451904D02*
X170919761Y-95404285D01*
X170919761Y-95404285D02*
X170967380Y-95309047D01*
X170967380Y-95309047D02*
X170967380Y-95118571D01*
X170967380Y-95118571D02*
X170919761Y-95023333D01*
X170919761Y-95023333D02*
X170872142Y-94975714D01*
X170872142Y-94975714D02*
X170776904Y-94928095D01*
X170776904Y-94928095D02*
X170538809Y-94928095D01*
X170538809Y-94928095D02*
X170443571Y-94975714D01*
X170443571Y-94975714D02*
X170395952Y-95023333D01*
X170395952Y-95023333D02*
X170348333Y-95118571D01*
X170348333Y-95118571D02*
X170348333Y-95309047D01*
X170348333Y-95309047D02*
X170395952Y-95404285D01*
X170395952Y-95404285D02*
X170443571Y-95451904D01*
X170443571Y-95451904D02*
X170538809Y-95499523D01*
%TO.C,Q1*%
X178434761Y-108902619D02*
X178339523Y-108855000D01*
X178339523Y-108855000D02*
X178244285Y-108759761D01*
X178244285Y-108759761D02*
X178101428Y-108616904D01*
X178101428Y-108616904D02*
X178006190Y-108569285D01*
X178006190Y-108569285D02*
X177910952Y-108569285D01*
X177958571Y-108807380D02*
X177863333Y-108759761D01*
X177863333Y-108759761D02*
X177768095Y-108664523D01*
X177768095Y-108664523D02*
X177720476Y-108474047D01*
X177720476Y-108474047D02*
X177720476Y-108140714D01*
X177720476Y-108140714D02*
X177768095Y-107950238D01*
X177768095Y-107950238D02*
X177863333Y-107855000D01*
X177863333Y-107855000D02*
X177958571Y-107807380D01*
X177958571Y-107807380D02*
X178149047Y-107807380D01*
X178149047Y-107807380D02*
X178244285Y-107855000D01*
X178244285Y-107855000D02*
X178339523Y-107950238D01*
X178339523Y-107950238D02*
X178387142Y-108140714D01*
X178387142Y-108140714D02*
X178387142Y-108474047D01*
X178387142Y-108474047D02*
X178339523Y-108664523D01*
X178339523Y-108664523D02*
X178244285Y-108759761D01*
X178244285Y-108759761D02*
X178149047Y-108807380D01*
X178149047Y-108807380D02*
X177958571Y-108807380D01*
X179339523Y-108807380D02*
X178768095Y-108807380D01*
X179053809Y-108807380D02*
X179053809Y-107807380D01*
X179053809Y-107807380D02*
X178958571Y-107950238D01*
X178958571Y-107950238D02*
X178863333Y-108045476D01*
X178863333Y-108045476D02*
X178768095Y-108093095D01*
%TO.C,Q13*%
X78698571Y-93302619D02*
X78603333Y-93255000D01*
X78603333Y-93255000D02*
X78508095Y-93159761D01*
X78508095Y-93159761D02*
X78365238Y-93016904D01*
X78365238Y-93016904D02*
X78270000Y-92969285D01*
X78270000Y-92969285D02*
X78174762Y-92969285D01*
X78222381Y-93207380D02*
X78127143Y-93159761D01*
X78127143Y-93159761D02*
X78031905Y-93064523D01*
X78031905Y-93064523D02*
X77984286Y-92874047D01*
X77984286Y-92874047D02*
X77984286Y-92540714D01*
X77984286Y-92540714D02*
X78031905Y-92350238D01*
X78031905Y-92350238D02*
X78127143Y-92255000D01*
X78127143Y-92255000D02*
X78222381Y-92207380D01*
X78222381Y-92207380D02*
X78412857Y-92207380D01*
X78412857Y-92207380D02*
X78508095Y-92255000D01*
X78508095Y-92255000D02*
X78603333Y-92350238D01*
X78603333Y-92350238D02*
X78650952Y-92540714D01*
X78650952Y-92540714D02*
X78650952Y-92874047D01*
X78650952Y-92874047D02*
X78603333Y-93064523D01*
X78603333Y-93064523D02*
X78508095Y-93159761D01*
X78508095Y-93159761D02*
X78412857Y-93207380D01*
X78412857Y-93207380D02*
X78222381Y-93207380D01*
X79603333Y-93207380D02*
X79031905Y-93207380D01*
X79317619Y-93207380D02*
X79317619Y-92207380D01*
X79317619Y-92207380D02*
X79222381Y-92350238D01*
X79222381Y-92350238D02*
X79127143Y-92445476D01*
X79127143Y-92445476D02*
X79031905Y-92493095D01*
X79936667Y-92207380D02*
X80555714Y-92207380D01*
X80555714Y-92207380D02*
X80222381Y-92588333D01*
X80222381Y-92588333D02*
X80365238Y-92588333D01*
X80365238Y-92588333D02*
X80460476Y-92635952D01*
X80460476Y-92635952D02*
X80508095Y-92683571D01*
X80508095Y-92683571D02*
X80555714Y-92778809D01*
X80555714Y-92778809D02*
X80555714Y-93016904D01*
X80555714Y-93016904D02*
X80508095Y-93112142D01*
X80508095Y-93112142D02*
X80460476Y-93159761D01*
X80460476Y-93159761D02*
X80365238Y-93207380D01*
X80365238Y-93207380D02*
X80079524Y-93207380D01*
X80079524Y-93207380D02*
X79984286Y-93159761D01*
X79984286Y-93159761D02*
X79936667Y-93112142D01*
%TO.C,Q6*%
X158914761Y-108912619D02*
X158819523Y-108865000D01*
X158819523Y-108865000D02*
X158724285Y-108769761D01*
X158724285Y-108769761D02*
X158581428Y-108626904D01*
X158581428Y-108626904D02*
X158486190Y-108579285D01*
X158486190Y-108579285D02*
X158390952Y-108579285D01*
X158438571Y-108817380D02*
X158343333Y-108769761D01*
X158343333Y-108769761D02*
X158248095Y-108674523D01*
X158248095Y-108674523D02*
X158200476Y-108484047D01*
X158200476Y-108484047D02*
X158200476Y-108150714D01*
X158200476Y-108150714D02*
X158248095Y-107960238D01*
X158248095Y-107960238D02*
X158343333Y-107865000D01*
X158343333Y-107865000D02*
X158438571Y-107817380D01*
X158438571Y-107817380D02*
X158629047Y-107817380D01*
X158629047Y-107817380D02*
X158724285Y-107865000D01*
X158724285Y-107865000D02*
X158819523Y-107960238D01*
X158819523Y-107960238D02*
X158867142Y-108150714D01*
X158867142Y-108150714D02*
X158867142Y-108484047D01*
X158867142Y-108484047D02*
X158819523Y-108674523D01*
X158819523Y-108674523D02*
X158724285Y-108769761D01*
X158724285Y-108769761D02*
X158629047Y-108817380D01*
X158629047Y-108817380D02*
X158438571Y-108817380D01*
X159724285Y-107817380D02*
X159533809Y-107817380D01*
X159533809Y-107817380D02*
X159438571Y-107865000D01*
X159438571Y-107865000D02*
X159390952Y-107912619D01*
X159390952Y-107912619D02*
X159295714Y-108055476D01*
X159295714Y-108055476D02*
X159248095Y-108245952D01*
X159248095Y-108245952D02*
X159248095Y-108626904D01*
X159248095Y-108626904D02*
X159295714Y-108722142D01*
X159295714Y-108722142D02*
X159343333Y-108769761D01*
X159343333Y-108769761D02*
X159438571Y-108817380D01*
X159438571Y-108817380D02*
X159629047Y-108817380D01*
X159629047Y-108817380D02*
X159724285Y-108769761D01*
X159724285Y-108769761D02*
X159771904Y-108722142D01*
X159771904Y-108722142D02*
X159819523Y-108626904D01*
X159819523Y-108626904D02*
X159819523Y-108388809D01*
X159819523Y-108388809D02*
X159771904Y-108293571D01*
X159771904Y-108293571D02*
X159724285Y-108245952D01*
X159724285Y-108245952D02*
X159629047Y-108198333D01*
X159629047Y-108198333D02*
X159438571Y-108198333D01*
X159438571Y-108198333D02*
X159343333Y-108245952D01*
X159343333Y-108245952D02*
X159295714Y-108293571D01*
X159295714Y-108293571D02*
X159248095Y-108388809D01*
%TO.C,R10*%
X93027142Y-121112533D02*
X92693809Y-120636343D01*
X92455714Y-121112533D02*
X92455714Y-120112533D01*
X92455714Y-120112533D02*
X92836666Y-120112533D01*
X92836666Y-120112533D02*
X92931904Y-120160153D01*
X92931904Y-120160153D02*
X92979523Y-120207772D01*
X92979523Y-120207772D02*
X93027142Y-120303010D01*
X93027142Y-120303010D02*
X93027142Y-120445867D01*
X93027142Y-120445867D02*
X92979523Y-120541105D01*
X92979523Y-120541105D02*
X92931904Y-120588724D01*
X92931904Y-120588724D02*
X92836666Y-120636343D01*
X92836666Y-120636343D02*
X92455714Y-120636343D01*
X93979523Y-121112533D02*
X93408095Y-121112533D01*
X93693809Y-121112533D02*
X93693809Y-120112533D01*
X93693809Y-120112533D02*
X93598571Y-120255391D01*
X93598571Y-120255391D02*
X93503333Y-120350629D01*
X93503333Y-120350629D02*
X93408095Y-120398248D01*
X94598571Y-120112533D02*
X94693809Y-120112533D01*
X94693809Y-120112533D02*
X94789047Y-120160153D01*
X94789047Y-120160153D02*
X94836666Y-120207772D01*
X94836666Y-120207772D02*
X94884285Y-120303010D01*
X94884285Y-120303010D02*
X94931904Y-120493486D01*
X94931904Y-120493486D02*
X94931904Y-120731581D01*
X94931904Y-120731581D02*
X94884285Y-120922057D01*
X94884285Y-120922057D02*
X94836666Y-121017295D01*
X94836666Y-121017295D02*
X94789047Y-121064914D01*
X94789047Y-121064914D02*
X94693809Y-121112533D01*
X94693809Y-121112533D02*
X94598571Y-121112533D01*
X94598571Y-121112533D02*
X94503333Y-121064914D01*
X94503333Y-121064914D02*
X94455714Y-121017295D01*
X94455714Y-121017295D02*
X94408095Y-120922057D01*
X94408095Y-120922057D02*
X94360476Y-120731581D01*
X94360476Y-120731581D02*
X94360476Y-120493486D01*
X94360476Y-120493486D02*
X94408095Y-120303010D01*
X94408095Y-120303010D02*
X94455714Y-120207772D01*
X94455714Y-120207772D02*
X94503333Y-120160153D01*
X94503333Y-120160153D02*
X94598571Y-120112533D01*
%TO.C,R13*%
X154567380Y-112242857D02*
X154091190Y-112576190D01*
X154567380Y-112814285D02*
X153567380Y-112814285D01*
X153567380Y-112814285D02*
X153567380Y-112433333D01*
X153567380Y-112433333D02*
X153615000Y-112338095D01*
X153615000Y-112338095D02*
X153662619Y-112290476D01*
X153662619Y-112290476D02*
X153757857Y-112242857D01*
X153757857Y-112242857D02*
X153900714Y-112242857D01*
X153900714Y-112242857D02*
X153995952Y-112290476D01*
X153995952Y-112290476D02*
X154043571Y-112338095D01*
X154043571Y-112338095D02*
X154091190Y-112433333D01*
X154091190Y-112433333D02*
X154091190Y-112814285D01*
X154567380Y-111290476D02*
X154567380Y-111861904D01*
X154567380Y-111576190D02*
X153567380Y-111576190D01*
X153567380Y-111576190D02*
X153710238Y-111671428D01*
X153710238Y-111671428D02*
X153805476Y-111766666D01*
X153805476Y-111766666D02*
X153853095Y-111861904D01*
X153567380Y-110957142D02*
X153567380Y-110338095D01*
X153567380Y-110338095D02*
X153948333Y-110671428D01*
X153948333Y-110671428D02*
X153948333Y-110528571D01*
X153948333Y-110528571D02*
X153995952Y-110433333D01*
X153995952Y-110433333D02*
X154043571Y-110385714D01*
X154043571Y-110385714D02*
X154138809Y-110338095D01*
X154138809Y-110338095D02*
X154376904Y-110338095D01*
X154376904Y-110338095D02*
X154472142Y-110385714D01*
X154472142Y-110385714D02*
X154519761Y-110433333D01*
X154519761Y-110433333D02*
X154567380Y-110528571D01*
X154567380Y-110528571D02*
X154567380Y-110814285D01*
X154567380Y-110814285D02*
X154519761Y-110909523D01*
X154519761Y-110909523D02*
X154472142Y-110957142D01*
%TO.C,SW1*%
X127476667Y-73719761D02*
X127619524Y-73767380D01*
X127619524Y-73767380D02*
X127857619Y-73767380D01*
X127857619Y-73767380D02*
X127952857Y-73719761D01*
X127952857Y-73719761D02*
X128000476Y-73672142D01*
X128000476Y-73672142D02*
X128048095Y-73576904D01*
X128048095Y-73576904D02*
X128048095Y-73481666D01*
X128048095Y-73481666D02*
X128000476Y-73386428D01*
X128000476Y-73386428D02*
X127952857Y-73338809D01*
X127952857Y-73338809D02*
X127857619Y-73291190D01*
X127857619Y-73291190D02*
X127667143Y-73243571D01*
X127667143Y-73243571D02*
X127571905Y-73195952D01*
X127571905Y-73195952D02*
X127524286Y-73148333D01*
X127524286Y-73148333D02*
X127476667Y-73053095D01*
X127476667Y-73053095D02*
X127476667Y-72957857D01*
X127476667Y-72957857D02*
X127524286Y-72862619D01*
X127524286Y-72862619D02*
X127571905Y-72815000D01*
X127571905Y-72815000D02*
X127667143Y-72767380D01*
X127667143Y-72767380D02*
X127905238Y-72767380D01*
X127905238Y-72767380D02*
X128048095Y-72815000D01*
X128381429Y-72767380D02*
X128619524Y-73767380D01*
X128619524Y-73767380D02*
X128810000Y-73053095D01*
X128810000Y-73053095D02*
X129000476Y-73767380D01*
X129000476Y-73767380D02*
X129238572Y-72767380D01*
X130143333Y-73767380D02*
X129571905Y-73767380D01*
X129857619Y-73767380D02*
X129857619Y-72767380D01*
X129857619Y-72767380D02*
X129762381Y-72910238D01*
X129762381Y-72910238D02*
X129667143Y-73005476D01*
X129667143Y-73005476D02*
X129571905Y-73053095D01*
%TO.C,R16*%
X119957142Y-121132533D02*
X119623809Y-120656343D01*
X119385714Y-121132533D02*
X119385714Y-120132533D01*
X119385714Y-120132533D02*
X119766666Y-120132533D01*
X119766666Y-120132533D02*
X119861904Y-120180153D01*
X119861904Y-120180153D02*
X119909523Y-120227772D01*
X119909523Y-120227772D02*
X119957142Y-120323010D01*
X119957142Y-120323010D02*
X119957142Y-120465867D01*
X119957142Y-120465867D02*
X119909523Y-120561105D01*
X119909523Y-120561105D02*
X119861904Y-120608724D01*
X119861904Y-120608724D02*
X119766666Y-120656343D01*
X119766666Y-120656343D02*
X119385714Y-120656343D01*
X120909523Y-121132533D02*
X120338095Y-121132533D01*
X120623809Y-121132533D02*
X120623809Y-120132533D01*
X120623809Y-120132533D02*
X120528571Y-120275391D01*
X120528571Y-120275391D02*
X120433333Y-120370629D01*
X120433333Y-120370629D02*
X120338095Y-120418248D01*
X121766666Y-120132533D02*
X121576190Y-120132533D01*
X121576190Y-120132533D02*
X121480952Y-120180153D01*
X121480952Y-120180153D02*
X121433333Y-120227772D01*
X121433333Y-120227772D02*
X121338095Y-120370629D01*
X121338095Y-120370629D02*
X121290476Y-120561105D01*
X121290476Y-120561105D02*
X121290476Y-120942057D01*
X121290476Y-120942057D02*
X121338095Y-121037295D01*
X121338095Y-121037295D02*
X121385714Y-121084914D01*
X121385714Y-121084914D02*
X121480952Y-121132533D01*
X121480952Y-121132533D02*
X121671428Y-121132533D01*
X121671428Y-121132533D02*
X121766666Y-121084914D01*
X121766666Y-121084914D02*
X121814285Y-121037295D01*
X121814285Y-121037295D02*
X121861904Y-120942057D01*
X121861904Y-120942057D02*
X121861904Y-120703962D01*
X121861904Y-120703962D02*
X121814285Y-120608724D01*
X121814285Y-120608724D02*
X121766666Y-120561105D01*
X121766666Y-120561105D02*
X121671428Y-120513486D01*
X121671428Y-120513486D02*
X121480952Y-120513486D01*
X121480952Y-120513486D02*
X121385714Y-120561105D01*
X121385714Y-120561105D02*
X121338095Y-120608724D01*
X121338095Y-120608724D02*
X121290476Y-120703962D01*
%TO.C,C3*%
X117858333Y-76747142D02*
X117810714Y-76794761D01*
X117810714Y-76794761D02*
X117667857Y-76842380D01*
X117667857Y-76842380D02*
X117572619Y-76842380D01*
X117572619Y-76842380D02*
X117429762Y-76794761D01*
X117429762Y-76794761D02*
X117334524Y-76699523D01*
X117334524Y-76699523D02*
X117286905Y-76604285D01*
X117286905Y-76604285D02*
X117239286Y-76413809D01*
X117239286Y-76413809D02*
X117239286Y-76270952D01*
X117239286Y-76270952D02*
X117286905Y-76080476D01*
X117286905Y-76080476D02*
X117334524Y-75985238D01*
X117334524Y-75985238D02*
X117429762Y-75890000D01*
X117429762Y-75890000D02*
X117572619Y-75842380D01*
X117572619Y-75842380D02*
X117667857Y-75842380D01*
X117667857Y-75842380D02*
X117810714Y-75890000D01*
X117810714Y-75890000D02*
X117858333Y-75937619D01*
X118191667Y-75842380D02*
X118810714Y-75842380D01*
X118810714Y-75842380D02*
X118477381Y-76223333D01*
X118477381Y-76223333D02*
X118620238Y-76223333D01*
X118620238Y-76223333D02*
X118715476Y-76270952D01*
X118715476Y-76270952D02*
X118763095Y-76318571D01*
X118763095Y-76318571D02*
X118810714Y-76413809D01*
X118810714Y-76413809D02*
X118810714Y-76651904D01*
X118810714Y-76651904D02*
X118763095Y-76747142D01*
X118763095Y-76747142D02*
X118715476Y-76794761D01*
X118715476Y-76794761D02*
X118620238Y-76842380D01*
X118620238Y-76842380D02*
X118334524Y-76842380D01*
X118334524Y-76842380D02*
X118239286Y-76794761D01*
X118239286Y-76794761D02*
X118191667Y-76747142D01*
D13*
%TO.C,C5*%
X97100000Y-77080000D02*
X97100000Y-77145000D01*
X97100000Y-77080000D02*
X100340000Y-77080000D01*
X97100000Y-79255000D02*
X97100000Y-79320000D01*
X97100000Y-79320000D02*
X100340000Y-79320000D01*
X100340000Y-77080000D02*
X100340000Y-77145000D01*
X100340000Y-79255000D02*
X100340000Y-79320000D01*
%TO.C,D1*%
X104090000Y-71750000D02*
X104090000Y-75050000D01*
X104090000Y-71750000D02*
X109600000Y-71750000D01*
X104090000Y-75050000D02*
X109600000Y-75050000D01*
%TO.C,L1*%
X90020000Y-74600000D02*
G75*
G03*
X90020000Y-74600000I-3620000J0D01*
G01*
%TO.C,Q2*%
X114130000Y-82670000D02*
X114130000Y-82940000D01*
X114130000Y-82940000D02*
X111300000Y-82940000D01*
X114130000Y-89300000D02*
X113030000Y-89300000D01*
X114130000Y-89570000D02*
X114130000Y-89300000D01*
X120550000Y-82670000D02*
X114130000Y-82670000D01*
X120550000Y-89570000D02*
X114130000Y-89570000D01*
%TO.C,R5*%
X102140000Y-88400000D02*
X103090000Y-88400000D01*
X103090000Y-87480000D02*
X103090000Y-89320000D01*
X103090000Y-89320000D02*
X106930000Y-89320000D01*
X106930000Y-87480000D02*
X103090000Y-87480000D01*
X106930000Y-89320000D02*
X106930000Y-87480000D01*
X107880000Y-88400000D02*
X106930000Y-88400000D01*
%TO.C,R6*%
X102140000Y-85000000D02*
X103090000Y-85000000D01*
X103090000Y-84080000D02*
X103090000Y-85920000D01*
X103090000Y-85920000D02*
X106930000Y-85920000D01*
X106930000Y-84080000D02*
X103090000Y-84080000D01*
X106930000Y-85920000D02*
X106930000Y-84080000D01*
X107880000Y-85000000D02*
X106930000Y-85000000D01*
%TO.C,R7*%
X112930000Y-80800000D02*
X113880000Y-80800000D01*
X113880000Y-79880000D02*
X113880000Y-81720000D01*
X113880000Y-81720000D02*
X117720000Y-81720000D01*
X117720000Y-79880000D02*
X113880000Y-79880000D01*
X117720000Y-81720000D02*
X117720000Y-79880000D01*
X118670000Y-80800000D02*
X117720000Y-80800000D01*
%TO.C,R8*%
X92960000Y-73400000D02*
X93730000Y-73400000D01*
X93730000Y-72030000D02*
X93730000Y-74770000D01*
X93730000Y-74770000D02*
X100270000Y-74770000D01*
X100270000Y-72030000D02*
X93730000Y-72030000D01*
X100270000Y-74770000D02*
X100270000Y-72030000D01*
X101040000Y-73400000D02*
X100270000Y-73400000D01*
%TO.C,U3*%
X106025000Y-76545000D02*
X102575000Y-76545000D01*
X106025000Y-76545000D02*
X107975000Y-76545000D01*
X106025000Y-81665000D02*
X104075000Y-81665000D01*
X106025000Y-81665000D02*
X107975000Y-81665000D01*
%TO.C,U6*%
X182680000Y-114460000D02*
X203120000Y-114460000D01*
X203120000Y-114460000D02*
X203120000Y-109160000D01*
X182680000Y-112810000D02*
X182680000Y-114460000D01*
X182680000Y-109160000D02*
X182680000Y-110810000D01*
X203120000Y-109160000D02*
X182680000Y-109160000D01*
X182680000Y-112810000D02*
G75*
G03*
X182680000Y-110810000I0J1000000D01*
G01*
%TO.C,R12*%
X144260000Y-114480000D02*
X144260000Y-113530000D01*
X143340000Y-113530000D02*
X145180000Y-113530000D01*
X145180000Y-113530000D02*
X145180000Y-109690000D01*
X143340000Y-109690000D02*
X143340000Y-113530000D01*
X145180000Y-109690000D02*
X143340000Y-109690000D01*
X144260000Y-108740000D02*
X144260000Y-109690000D01*
%TO.C,Q8*%
X118725000Y-110180153D02*
X122325000Y-110180153D01*
X120525000Y-105730153D02*
G75*
G03*
X118686522Y-110168631I0J-2600000D01*
G01*
X122363478Y-110168631D02*
G75*
G03*
X120525000Y-105730153I-1838478J1838478D01*
G01*
%TO.C,Q9*%
X118730000Y-118765153D02*
X122330000Y-118765153D01*
X120530000Y-114315153D02*
G75*
G03*
X118691522Y-118753631I0J-2600000D01*
G01*
X122368478Y-118753631D02*
G75*
G03*
X120530000Y-114315153I-1838478J1838478D01*
G01*
%TO.C,R20*%
X114440000Y-103000000D02*
X113670000Y-103000000D01*
X113670000Y-104370000D02*
X113670000Y-101630000D01*
X113670000Y-101630000D02*
X107130000Y-101630000D01*
X107130000Y-104370000D02*
X113670000Y-104370000D01*
X107130000Y-101630000D02*
X107130000Y-104370000D01*
X106360000Y-103000000D02*
X107130000Y-103000000D01*
%TO.C,R27*%
X198000000Y-93140000D02*
X198000000Y-94090000D01*
X198920000Y-94090000D02*
X197080000Y-94090000D01*
X197080000Y-94090000D02*
X197080000Y-97930000D01*
X198920000Y-97930000D02*
X198920000Y-94090000D01*
X197080000Y-97930000D02*
X198920000Y-97930000D01*
X198000000Y-98880000D02*
X198000000Y-97930000D01*
%TO.C,G\u002A\u002A\u002A*%
G36*
X209145346Y-77630000D02*
G01*
X209145346Y-78406529D01*
X208982181Y-78422254D01*
X208848138Y-78413904D01*
X208792873Y-78369851D01*
X208784454Y-78297378D01*
X208779134Y-78144659D01*
X208777219Y-77931604D01*
X208779017Y-77678127D01*
X208780693Y-77577598D01*
X208794655Y-76853472D01*
X208970000Y-76853472D01*
X209145346Y-76853472D01*
X209145346Y-77630000D01*
G37*
G36*
X209087522Y-78764975D02*
G01*
X209135719Y-78808730D01*
X209145324Y-78919218D01*
X209145346Y-78932565D01*
X209136106Y-79051582D01*
X209089320Y-79104292D01*
X208982181Y-79123634D01*
X208843119Y-79113680D01*
X208790349Y-79064654D01*
X208773986Y-78956200D01*
X208778169Y-78873585D01*
X208807462Y-78793358D01*
X208884857Y-78761268D01*
X208970000Y-78757219D01*
X209087522Y-78764975D01*
G37*
G36*
X206578505Y-79480660D02*
G01*
X206788885Y-79480660D01*
X206789044Y-79480953D01*
X206845312Y-79495740D01*
X206995083Y-79508059D01*
X207239533Y-79517939D01*
X207579836Y-79525406D01*
X208017167Y-79530491D01*
X208552701Y-79533222D01*
X208970000Y-79533748D01*
X209572441Y-79532590D01*
X210075886Y-79529096D01*
X210481511Y-79523239D01*
X210790489Y-79514989D01*
X211003997Y-79504319D01*
X211123208Y-79491200D01*
X211150957Y-79480953D01*
X211134682Y-79426349D01*
X211073529Y-79296403D01*
X210973687Y-79101981D01*
X210841341Y-78853949D01*
X210682681Y-78563172D01*
X210503895Y-78240517D01*
X210311168Y-77896848D01*
X210110691Y-77543033D01*
X209908649Y-77189937D01*
X209711231Y-76848425D01*
X209524625Y-76529364D01*
X209355018Y-76243620D01*
X209208598Y-76002058D01*
X209091553Y-75815544D01*
X209010069Y-75694944D01*
X208970336Y-75651124D01*
X208970000Y-75651105D01*
X208931193Y-75693229D01*
X208850507Y-75812356D01*
X208734132Y-75997622D01*
X208588255Y-76238159D01*
X208419063Y-76523103D01*
X208232745Y-76841587D01*
X208035487Y-77182746D01*
X207833479Y-77535713D01*
X207632906Y-77889623D01*
X207439958Y-78233610D01*
X207260821Y-78556808D01*
X207101684Y-78848351D01*
X206968735Y-79097374D01*
X206868160Y-79293010D01*
X206806147Y-79424394D01*
X206788885Y-79480660D01*
X206578505Y-79480660D01*
X206565267Y-79431978D01*
X206589226Y-79371503D01*
X206657009Y-79235156D01*
X206762469Y-79033913D01*
X206899463Y-78778752D01*
X207061845Y-78480650D01*
X207243472Y-78150582D01*
X207438198Y-77799526D01*
X207639879Y-77438459D01*
X207842370Y-77078357D01*
X208039527Y-76730198D01*
X208225205Y-76404957D01*
X208393260Y-76113613D01*
X208537546Y-75867141D01*
X208651919Y-75676519D01*
X208730235Y-75552723D01*
X208758856Y-75513334D01*
X208865737Y-75446177D01*
X208970000Y-75425661D01*
X209100648Y-75457132D01*
X209181145Y-75513334D01*
X209232783Y-75587906D01*
X209324464Y-75736426D01*
X209450045Y-75947917D01*
X209603380Y-76211402D01*
X209778325Y-76515903D01*
X209968735Y-76850445D01*
X210168466Y-77204050D01*
X210371372Y-77565741D01*
X210571311Y-77924542D01*
X210762136Y-78269477D01*
X210937703Y-78589567D01*
X211091867Y-78873837D01*
X211218484Y-79111309D01*
X211311410Y-79291007D01*
X211364499Y-79401953D01*
X211374734Y-79431978D01*
X211340679Y-79542318D01*
X211274537Y-79633945D01*
X211247483Y-79657926D01*
X211212630Y-79677742D01*
X211160854Y-79693791D01*
X211083032Y-79706468D01*
X210970039Y-79716171D01*
X210812753Y-79723297D01*
X210602050Y-79728241D01*
X210328805Y-79731401D01*
X209983897Y-79733173D01*
X209558200Y-79733954D01*
X209042592Y-79734141D01*
X208970000Y-79734142D01*
X208442286Y-79734003D01*
X208005644Y-79733319D01*
X207650953Y-79731695D01*
X207369088Y-79728734D01*
X207150926Y-79724039D01*
X206987343Y-79717214D01*
X206869216Y-79707861D01*
X206787421Y-79695584D01*
X206732834Y-79679987D01*
X206696333Y-79660673D01*
X206668793Y-79637245D01*
X206665464Y-79633945D01*
X206590358Y-79524250D01*
X206578505Y-79480660D01*
G37*
%TO.C,Q14*%
X105130000Y-98250000D02*
X108730000Y-98250000D01*
X106930000Y-93800000D02*
G75*
G03*
X105091522Y-98238478I0J-2600000D01*
G01*
X108768478Y-98238478D02*
G75*
G03*
X106930000Y-93800000I-1838478J1838478D01*
G01*
%TO.C,R14*%
X163940000Y-114470000D02*
X163940000Y-113520000D01*
X163020000Y-113520000D02*
X164860000Y-113520000D01*
X164860000Y-113520000D02*
X164860000Y-109680000D01*
X163020000Y-109680000D02*
X163020000Y-113520000D01*
X164860000Y-109680000D02*
X163020000Y-109680000D01*
X163940000Y-108730000D02*
X163940000Y-109680000D01*
%TO.C,Q16*%
X187730000Y-98850000D02*
X191330000Y-98850000D01*
X189530000Y-94400000D02*
G75*
G03*
X187691522Y-98838478I0J-2600000D01*
G01*
X191368478Y-98838478D02*
G75*
G03*
X189530000Y-94400000I-1838478J1838478D01*
G01*
%TO.C,Q5*%
X147330000Y-113850000D02*
X150930000Y-113850000D01*
X149130000Y-109400000D02*
G75*
G03*
X147291522Y-113838478I0J-2600000D01*
G01*
X150968478Y-113838478D02*
G75*
G03*
X149130000Y-109400000I-1838478J1838478D01*
G01*
%TO.C,R9*%
X131460000Y-87600000D02*
X130510000Y-87600000D01*
X130510000Y-88520000D02*
X130510000Y-86680000D01*
X130510000Y-86680000D02*
X126670000Y-86680000D01*
X126670000Y-88520000D02*
X130510000Y-88520000D01*
X126670000Y-86680000D02*
X126670000Y-88520000D01*
X125720000Y-87600000D02*
X126670000Y-87600000D01*
%TO.C,C2*%
X131712349Y-83515000D02*
X130912349Y-83515000D01*
X131312349Y-83915000D02*
X131312349Y-83115000D01*
X127302651Y-85280000D02*
X127302651Y-77120000D01*
X127262651Y-85280000D02*
X127262651Y-77120000D01*
X127222651Y-85280000D02*
X127222651Y-77120000D01*
X127182651Y-85279000D02*
X127182651Y-77121000D01*
X127142651Y-85277000D02*
X127142651Y-77123000D01*
X127102651Y-85276000D02*
X127102651Y-77124000D01*
X127062651Y-85274000D02*
X127062651Y-77126000D01*
X127022651Y-85271000D02*
X127022651Y-77129000D01*
X126982651Y-85268000D02*
X126982651Y-77132000D01*
X126942651Y-85265000D02*
X126942651Y-77135000D01*
X126902651Y-85261000D02*
X126902651Y-77139000D01*
X126862651Y-85257000D02*
X126862651Y-77143000D01*
X126822651Y-85252000D02*
X126822651Y-77148000D01*
X126782651Y-85248000D02*
X126782651Y-77152000D01*
X126742651Y-85242000D02*
X126742651Y-77158000D01*
X126702651Y-85237000D02*
X126702651Y-77163000D01*
X126662651Y-85230000D02*
X126662651Y-77170000D01*
X126622651Y-85224000D02*
X126622651Y-77176000D01*
X126581651Y-85217000D02*
X126581651Y-82240000D01*
X126581651Y-80160000D02*
X126581651Y-77183000D01*
X126541651Y-85210000D02*
X126541651Y-82240000D01*
X126541651Y-80160000D02*
X126541651Y-77190000D01*
X126501651Y-85202000D02*
X126501651Y-82240000D01*
X126501651Y-80160000D02*
X126501651Y-77198000D01*
X126461651Y-85194000D02*
X126461651Y-82240000D01*
X126461651Y-80160000D02*
X126461651Y-77206000D01*
X126421651Y-85185000D02*
X126421651Y-82240000D01*
X126421651Y-80160000D02*
X126421651Y-77215000D01*
X126381651Y-85176000D02*
X126381651Y-82240000D01*
X126381651Y-80160000D02*
X126381651Y-77224000D01*
X126341651Y-85167000D02*
X126341651Y-82240000D01*
X126341651Y-80160000D02*
X126341651Y-77233000D01*
X126301651Y-85157000D02*
X126301651Y-82240000D01*
X126301651Y-80160000D02*
X126301651Y-77243000D01*
X126261651Y-85147000D02*
X126261651Y-82240000D01*
X126261651Y-80160000D02*
X126261651Y-77253000D01*
X126221651Y-85136000D02*
X126221651Y-82240000D01*
X126221651Y-80160000D02*
X126221651Y-77264000D01*
X126181651Y-85125000D02*
X126181651Y-82240000D01*
X126181651Y-80160000D02*
X126181651Y-77275000D01*
X126141651Y-85114000D02*
X126141651Y-82240000D01*
X126141651Y-80160000D02*
X126141651Y-77286000D01*
X126101651Y-85102000D02*
X126101651Y-82240000D01*
X126101651Y-80160000D02*
X126101651Y-77298000D01*
X126061651Y-85089000D02*
X126061651Y-82240000D01*
X126061651Y-80160000D02*
X126061651Y-77311000D01*
X126021651Y-85077000D02*
X126021651Y-82240000D01*
X126021651Y-80160000D02*
X126021651Y-77323000D01*
X125981651Y-85063000D02*
X125981651Y-82240000D01*
X125981651Y-80160000D02*
X125981651Y-77337000D01*
X125941651Y-85050000D02*
X125941651Y-82240000D01*
X125941651Y-80160000D02*
X125941651Y-77350000D01*
X125901651Y-85035000D02*
X125901651Y-82240000D01*
X125901651Y-80160000D02*
X125901651Y-77365000D01*
X125861651Y-85021000D02*
X125861651Y-82240000D01*
X125861651Y-80160000D02*
X125861651Y-77379000D01*
X125821651Y-85005000D02*
X125821651Y-82240000D01*
X125821651Y-80160000D02*
X125821651Y-77395000D01*
X125781651Y-84990000D02*
X125781651Y-82240000D01*
X125781651Y-80160000D02*
X125781651Y-77410000D01*
X125741651Y-84974000D02*
X125741651Y-82240000D01*
X125741651Y-80160000D02*
X125741651Y-77426000D01*
X125701651Y-84957000D02*
X125701651Y-82240000D01*
X125701651Y-80160000D02*
X125701651Y-77443000D01*
X125661651Y-84940000D02*
X125661651Y-82240000D01*
X125661651Y-80160000D02*
X125661651Y-77460000D01*
X125621651Y-84922000D02*
X125621651Y-82240000D01*
X125621651Y-80160000D02*
X125621651Y-77478000D01*
X125581651Y-84904000D02*
X125581651Y-82240000D01*
X125581651Y-80160000D02*
X125581651Y-77496000D01*
X125541651Y-84886000D02*
X125541651Y-82240000D01*
X125541651Y-80160000D02*
X125541651Y-77514000D01*
X125501651Y-84866000D02*
X125501651Y-82240000D01*
X125501651Y-80160000D02*
X125501651Y-77534000D01*
X125461651Y-84847000D02*
X125461651Y-82240000D01*
X125461651Y-80160000D02*
X125461651Y-77553000D01*
X125421651Y-84827000D02*
X125421651Y-82240000D01*
X125421651Y-80160000D02*
X125421651Y-77573000D01*
X125381651Y-84806000D02*
X125381651Y-82240000D01*
X125381651Y-80160000D02*
X125381651Y-77594000D01*
X125341651Y-84784000D02*
X125341651Y-82240000D01*
X125341651Y-80160000D02*
X125341651Y-77616000D01*
X125301651Y-84762000D02*
X125301651Y-82240000D01*
X125301651Y-80160000D02*
X125301651Y-77638000D01*
X125261651Y-84740000D02*
X125261651Y-82240000D01*
X125261651Y-80160000D02*
X125261651Y-77660000D01*
X125221651Y-84717000D02*
X125221651Y-82240000D01*
X125221651Y-80160000D02*
X125221651Y-77683000D01*
X125181651Y-84693000D02*
X125181651Y-82240000D01*
X125181651Y-80160000D02*
X125181651Y-77707000D01*
X125141651Y-84669000D02*
X125141651Y-82240000D01*
X125141651Y-80160000D02*
X125141651Y-77731000D01*
X125101651Y-84644000D02*
X125101651Y-82240000D01*
X125101651Y-80160000D02*
X125101651Y-77756000D01*
X125061651Y-84618000D02*
X125061651Y-82240000D01*
X125061651Y-80160000D02*
X125061651Y-77782000D01*
X125021651Y-84592000D02*
X125021651Y-82240000D01*
X125021651Y-80160000D02*
X125021651Y-77808000D01*
X124981651Y-84565000D02*
X124981651Y-82240000D01*
X124981651Y-80160000D02*
X124981651Y-77835000D01*
X124941651Y-84538000D02*
X124941651Y-82240000D01*
X124941651Y-80160000D02*
X124941651Y-77862000D01*
X124901651Y-84509000D02*
X124901651Y-82240000D01*
X124901651Y-80160000D02*
X124901651Y-77891000D01*
X124861651Y-84480000D02*
X124861651Y-82240000D01*
X124861651Y-80160000D02*
X124861651Y-77920000D01*
X124821651Y-84450000D02*
X124821651Y-82240000D01*
X124821651Y-80160000D02*
X124821651Y-77950000D01*
X124781651Y-84420000D02*
X124781651Y-82240000D01*
X124781651Y-80160000D02*
X124781651Y-77980000D01*
X124741651Y-84389000D02*
X124741651Y-82240000D01*
X124741651Y-80160000D02*
X124741651Y-78011000D01*
X124701651Y-84356000D02*
X124701651Y-82240000D01*
X124701651Y-80160000D02*
X124701651Y-78044000D01*
X124661651Y-84324000D02*
X124661651Y-82240000D01*
X124661651Y-80160000D02*
X124661651Y-78076000D01*
X124621651Y-84290000D02*
X124621651Y-82240000D01*
X124621651Y-80160000D02*
X124621651Y-78110000D01*
X124581651Y-84255000D02*
X124581651Y-82240000D01*
X124581651Y-80160000D02*
X124581651Y-78145000D01*
X124541651Y-84219000D02*
X124541651Y-82240000D01*
X124541651Y-80160000D02*
X124541651Y-78181000D01*
X124501651Y-84183000D02*
X124501651Y-78217000D01*
X124461651Y-84145000D02*
X124461651Y-78255000D01*
X124421651Y-84107000D02*
X124421651Y-78293000D01*
X124381651Y-84067000D02*
X124381651Y-78333000D01*
X124341651Y-84026000D02*
X124341651Y-78374000D01*
X124301651Y-83984000D02*
X124301651Y-78416000D01*
X124261651Y-83941000D02*
X124261651Y-78459000D01*
X124221651Y-83897000D02*
X124221651Y-78503000D01*
X124181651Y-83851000D02*
X124181651Y-78549000D01*
X124141651Y-83804000D02*
X124141651Y-78596000D01*
X124101651Y-83756000D02*
X124101651Y-78644000D01*
X124061651Y-83705000D02*
X124061651Y-78695000D01*
X124021651Y-83654000D02*
X124021651Y-78746000D01*
X123981651Y-83600000D02*
X123981651Y-78800000D01*
X123941651Y-83545000D02*
X123941651Y-78855000D01*
X123901651Y-83487000D02*
X123901651Y-78913000D01*
X123861651Y-83428000D02*
X123861651Y-78972000D01*
X123821651Y-83366000D02*
X123821651Y-79034000D01*
X123781651Y-83302000D02*
X123781651Y-79098000D01*
X123741651Y-83234000D02*
X123741651Y-79166000D01*
X123701651Y-83164000D02*
X123701651Y-79236000D01*
X123661651Y-83090000D02*
X123661651Y-79310000D01*
X123621651Y-83013000D02*
X123621651Y-79387000D01*
X123581651Y-82931000D02*
X123581651Y-79469000D01*
X123541651Y-82845000D02*
X123541651Y-79555000D01*
X123501651Y-82752000D02*
X123501651Y-79648000D01*
X123461651Y-82653000D02*
X123461651Y-79747000D01*
X123421651Y-82546000D02*
X123421651Y-79854000D01*
X123381651Y-82429000D02*
X123381651Y-79971000D01*
X123341651Y-82298000D02*
X123341651Y-80102000D01*
X123301651Y-82148000D02*
X123301651Y-80252000D01*
X123261651Y-81968000D02*
X123261651Y-80432000D01*
X123221651Y-81733000D02*
X123221651Y-80667000D01*
X131422651Y-81200000D02*
G75*
G03*
X131422651Y-81200000I-4120000J0D01*
G01*
%TO.C,C1*%
X91900000Y-77080000D02*
X91900000Y-77145000D01*
X91900000Y-77080000D02*
X95140000Y-77080000D01*
X91900000Y-79255000D02*
X91900000Y-79320000D01*
X91900000Y-79320000D02*
X95140000Y-79320000D01*
X95140000Y-77080000D02*
X95140000Y-77145000D01*
X95140000Y-79255000D02*
X95140000Y-79320000D01*
%TO.C,R1*%
X153870000Y-103400000D02*
X152920000Y-103400000D01*
X152920000Y-104320000D02*
X152920000Y-102480000D01*
X152920000Y-102480000D02*
X149080000Y-102480000D01*
X149080000Y-104320000D02*
X152920000Y-104320000D01*
X149080000Y-102480000D02*
X149080000Y-104320000D01*
X148130000Y-103400000D02*
X149080000Y-103400000D01*
%TO.C,J4*%
X172400000Y-102200000D02*
X172400000Y-90200000D01*
X172400000Y-102200000D02*
X184400000Y-102200000D01*
X184400000Y-90200000D02*
X172400000Y-90200000D01*
X184400000Y-102200000D02*
X184400000Y-90200000D01*
%TO.C,R11*%
X134530000Y-114470000D02*
X134530000Y-113520000D01*
X133610000Y-113520000D02*
X135450000Y-113520000D01*
X135450000Y-113520000D02*
X135450000Y-109680000D01*
X133610000Y-109680000D02*
X133610000Y-113520000D01*
X135450000Y-109680000D02*
X133610000Y-109680000D01*
X134530000Y-108730000D02*
X134530000Y-109680000D01*
%TO.C,R15*%
X123345000Y-112155153D02*
X122395000Y-112155153D01*
X122395000Y-113075153D02*
X122395000Y-111235153D01*
X122395000Y-111235153D02*
X118555000Y-111235153D01*
X118555000Y-113075153D02*
X122395000Y-113075153D01*
X118555000Y-111235153D02*
X118555000Y-113075153D01*
X117605000Y-112155153D02*
X118555000Y-112155153D01*
%TO.C,U7*%
X204732000Y-114460000D02*
X225172000Y-114460000D01*
X225172000Y-114460000D02*
X225172000Y-109160000D01*
X204732000Y-112810000D02*
X204732000Y-114460000D01*
X204732000Y-109160000D02*
X204732000Y-110810000D01*
X225172000Y-109160000D02*
X204732000Y-109160000D01*
X204732000Y-112810000D02*
G75*
G03*
X204732000Y-110810000I0J1000000D01*
G01*
%TO.C,Q15*%
X160000000Y-98840000D02*
X163600000Y-98840000D01*
X161800000Y-94390000D02*
G75*
G03*
X159961522Y-98828478I0J-2600000D01*
G01*
X163638478Y-98828478D02*
G75*
G03*
X161800000Y-94390000I-1838478J1838478D01*
G01*
%TO.C,J5*%
X199900000Y-102200000D02*
X199900000Y-90200000D01*
X199900000Y-102200000D02*
X211900000Y-102200000D01*
X211900000Y-90200000D02*
X199900000Y-90200000D01*
X211900000Y-102200000D02*
X211900000Y-90200000D01*
%TO.C,J3*%
X117400000Y-102200000D02*
X117400000Y-90200000D01*
X117400000Y-102200000D02*
X129400000Y-102200000D01*
X129400000Y-90200000D02*
X117400000Y-90200000D01*
X129400000Y-102200000D02*
X129400000Y-90200000D01*
%TO.C,NE1*%
X149570000Y-97470000D02*
X149570000Y-100070000D01*
X149570000Y-97470000D02*
X152230000Y-97470000D01*
X149570000Y-100070000D02*
X152230000Y-100070000D01*
X150900000Y-94870000D02*
X152230000Y-94870000D01*
X152230000Y-94870000D02*
X152230000Y-96200000D01*
X152230000Y-97470000D02*
X152230000Y-100070000D01*
%TO.C,J2*%
X89900000Y-102200000D02*
X89900000Y-90200000D01*
X89900000Y-102200000D02*
X101900000Y-102200000D01*
X101900000Y-90200000D02*
X89900000Y-90200000D01*
X101900000Y-102200000D02*
X101900000Y-90200000D01*
%TO.C,Q11*%
X105210000Y-118785943D02*
X108810000Y-118785943D01*
X107010000Y-114335943D02*
G75*
G03*
X105171522Y-118774421I0J-2600000D01*
G01*
X108848478Y-118774421D02*
G75*
G03*
X107010000Y-114335943I-1838478J1838478D01*
G01*
%TO.C,U1*%
X91990000Y-88900000D02*
X91990000Y-82890000D01*
X98810000Y-86650000D02*
X98810000Y-82890000D01*
X91990000Y-82890000D02*
X93250000Y-82890000D01*
X98810000Y-82890000D02*
X97550000Y-82890000D01*
%TO.C,R24*%
X87800000Y-93340000D02*
X87800000Y-94290000D01*
X88720000Y-94290000D02*
X86880000Y-94290000D01*
X86880000Y-94290000D02*
X86880000Y-98130000D01*
X88720000Y-98130000D02*
X88720000Y-94290000D01*
X86880000Y-98130000D02*
X88720000Y-98130000D01*
X87800000Y-99080000D02*
X87800000Y-98130000D01*
%TO.C,R19*%
X96530000Y-112155153D02*
X95580000Y-112155153D01*
X95580000Y-113075153D02*
X95580000Y-111235153D01*
X95580000Y-111235153D02*
X91740000Y-111235153D01*
X91740000Y-113075153D02*
X95580000Y-113075153D01*
X91740000Y-111235153D02*
X91740000Y-113075153D01*
X90790000Y-112155153D02*
X91740000Y-112155153D01*
%TO.C,Q7*%
X166940000Y-113860000D02*
X170540000Y-113860000D01*
X168740000Y-109410000D02*
G75*
G03*
X166901522Y-113848478I0J-2600000D01*
G01*
X170578478Y-113848478D02*
G75*
G03*
X168740000Y-109410000I-1838478J1838478D01*
G01*
%TO.C,Q12*%
X91800000Y-110005153D02*
X95400000Y-110005153D01*
X93600000Y-105555153D02*
G75*
G03*
X91761522Y-109993631I0J-2600000D01*
G01*
X95438478Y-109993631D02*
G75*
G03*
X93600000Y-105555153I-1838478J1838478D01*
G01*
%TO.C,R22*%
X86840000Y-103000000D02*
X86070000Y-103000000D01*
X86070000Y-104370000D02*
X86070000Y-101630000D01*
X86070000Y-101630000D02*
X79530000Y-101630000D01*
X79530000Y-104370000D02*
X86070000Y-104370000D01*
X79530000Y-101630000D02*
X79530000Y-104370000D01*
X78760000Y-103000000D02*
X79530000Y-103000000D01*
%TO.C,Q3*%
X91740000Y-118595153D02*
X95340000Y-118595153D01*
X93540000Y-114145153D02*
G75*
G03*
X91701522Y-118583631I0J-2600000D01*
G01*
X95378478Y-118583631D02*
G75*
G03*
X93540000Y-114145153I-1838478J1838478D01*
G01*
%TO.C,C4*%
X132840113Y-78925000D02*
X133340113Y-78925000D01*
X133090113Y-78675000D02*
X133090113Y-79175000D01*
X135644888Y-77820000D02*
X135644888Y-82980000D01*
X135684888Y-77820000D02*
X135684888Y-82980000D01*
X135724888Y-77821000D02*
X135724888Y-82979000D01*
X135764888Y-77822000D02*
X135764888Y-82978000D01*
X135804888Y-77824000D02*
X135804888Y-82976000D01*
X135844888Y-77827000D02*
X135844888Y-82973000D01*
X135884888Y-77831000D02*
X135884888Y-79360000D01*
X135884888Y-81440000D02*
X135884888Y-82969000D01*
X135924888Y-77835000D02*
X135924888Y-79360000D01*
X135924888Y-81440000D02*
X135924888Y-82965000D01*
X135964888Y-77839000D02*
X135964888Y-79360000D01*
X135964888Y-81440000D02*
X135964888Y-82961000D01*
X136004888Y-77844000D02*
X136004888Y-79360000D01*
X136004888Y-81440000D02*
X136004888Y-82956000D01*
X136044888Y-77850000D02*
X136044888Y-79360000D01*
X136044888Y-81440000D02*
X136044888Y-82950000D01*
X136084888Y-77857000D02*
X136084888Y-79360000D01*
X136084888Y-81440000D02*
X136084888Y-82943000D01*
X136124888Y-77864000D02*
X136124888Y-79360000D01*
X136124888Y-81440000D02*
X136124888Y-82936000D01*
X136164888Y-77872000D02*
X136164888Y-79360000D01*
X136164888Y-81440000D02*
X136164888Y-82928000D01*
X136204888Y-77880000D02*
X136204888Y-79360000D01*
X136204888Y-81440000D02*
X136204888Y-82920000D01*
X136244888Y-77889000D02*
X136244888Y-79360000D01*
X136244888Y-81440000D02*
X136244888Y-82911000D01*
X136284888Y-77899000D02*
X136284888Y-79360000D01*
X136284888Y-81440000D02*
X136284888Y-82901000D01*
X136324888Y-77909000D02*
X136324888Y-79360000D01*
X136324888Y-81440000D02*
X136324888Y-82891000D01*
X136365888Y-77920000D02*
X136365888Y-79360000D01*
X136365888Y-81440000D02*
X136365888Y-82880000D01*
X136405888Y-77932000D02*
X136405888Y-79360000D01*
X136405888Y-81440000D02*
X136405888Y-82868000D01*
X136445888Y-77945000D02*
X136445888Y-79360000D01*
X136445888Y-81440000D02*
X136445888Y-82855000D01*
X136485888Y-77958000D02*
X136485888Y-79360000D01*
X136485888Y-81440000D02*
X136485888Y-82842000D01*
X136525888Y-77972000D02*
X136525888Y-79360000D01*
X136525888Y-81440000D02*
X136525888Y-82828000D01*
X136565888Y-77986000D02*
X136565888Y-79360000D01*
X136565888Y-81440000D02*
X136565888Y-82814000D01*
X136605888Y-78002000D02*
X136605888Y-79360000D01*
X136605888Y-81440000D02*
X136605888Y-82798000D01*
X136645888Y-78018000D02*
X136645888Y-79360000D01*
X136645888Y-81440000D02*
X136645888Y-82782000D01*
X136685888Y-78035000D02*
X136685888Y-79360000D01*
X136685888Y-81440000D02*
X136685888Y-82765000D01*
X136725888Y-78052000D02*
X136725888Y-79360000D01*
X136725888Y-81440000D02*
X136725888Y-82748000D01*
X136765888Y-78071000D02*
X136765888Y-79360000D01*
X136765888Y-81440000D02*
X136765888Y-82729000D01*
X136805888Y-78090000D02*
X136805888Y-79360000D01*
X136805888Y-81440000D02*
X136805888Y-82710000D01*
X136845888Y-78110000D02*
X136845888Y-79360000D01*
X136845888Y-81440000D02*
X136845888Y-82690000D01*
X136885888Y-78132000D02*
X136885888Y-79360000D01*
X136885888Y-81440000D02*
X136885888Y-82668000D01*
X136925888Y-78153000D02*
X136925888Y-79360000D01*
X136925888Y-81440000D02*
X136925888Y-82647000D01*
X136965888Y-78176000D02*
X136965888Y-79360000D01*
X136965888Y-81440000D02*
X136965888Y-82624000D01*
X137005888Y-78200000D02*
X137005888Y-79360000D01*
X137005888Y-81440000D02*
X137005888Y-82600000D01*
X137045888Y-78225000D02*
X137045888Y-79360000D01*
X137045888Y-81440000D02*
X137045888Y-82575000D01*
X137085888Y-78251000D02*
X137085888Y-79360000D01*
X137085888Y-81440000D02*
X137085888Y-82549000D01*
X137125888Y-78278000D02*
X137125888Y-79360000D01*
X137125888Y-81440000D02*
X137125888Y-82522000D01*
X137165888Y-78305000D02*
X137165888Y-79360000D01*
X137165888Y-81440000D02*
X137165888Y-82495000D01*
X137205888Y-78335000D02*
X137205888Y-79360000D01*
X137205888Y-81440000D02*
X137205888Y-82465000D01*
X137245888Y-78365000D02*
X137245888Y-79360000D01*
X137245888Y-81440000D02*
X137245888Y-82435000D01*
X137285888Y-78396000D02*
X137285888Y-79360000D01*
X137285888Y-81440000D02*
X137285888Y-82404000D01*
X137325888Y-78429000D02*
X137325888Y-79360000D01*
X137325888Y-81440000D02*
X137325888Y-82371000D01*
X137365888Y-78463000D02*
X137365888Y-79360000D01*
X137365888Y-81440000D02*
X137365888Y-82337000D01*
X137405888Y-78499000D02*
X137405888Y-79360000D01*
X137405888Y-81440000D02*
X137405888Y-82301000D01*
X137445888Y-78536000D02*
X137445888Y-79360000D01*
X137445888Y-81440000D02*
X137445888Y-82264000D01*
X137485888Y-78574000D02*
X137485888Y-79360000D01*
X137485888Y-81440000D02*
X137485888Y-82226000D01*
X137525888Y-78615000D02*
X137525888Y-79360000D01*
X137525888Y-81440000D02*
X137525888Y-82185000D01*
X137565888Y-78657000D02*
X137565888Y-79360000D01*
X137565888Y-81440000D02*
X137565888Y-82143000D01*
X137605888Y-78701000D02*
X137605888Y-79360000D01*
X137605888Y-81440000D02*
X137605888Y-82099000D01*
X137645888Y-78747000D02*
X137645888Y-79360000D01*
X137645888Y-81440000D02*
X137645888Y-82053000D01*
X137685888Y-78795000D02*
X137685888Y-79360000D01*
X137685888Y-81440000D02*
X137685888Y-82005000D01*
X137725888Y-78846000D02*
X137725888Y-79360000D01*
X137725888Y-81440000D02*
X137725888Y-81954000D01*
X137765888Y-78900000D02*
X137765888Y-79360000D01*
X137765888Y-81440000D02*
X137765888Y-81900000D01*
X137805888Y-78957000D02*
X137805888Y-79360000D01*
X137805888Y-81440000D02*
X137805888Y-81843000D01*
X137845888Y-79017000D02*
X137845888Y-79360000D01*
X137845888Y-81440000D02*
X137845888Y-81783000D01*
X137885888Y-79081000D02*
X137885888Y-79360000D01*
X137885888Y-81440000D02*
X137885888Y-81719000D01*
X137925888Y-79149000D02*
X137925888Y-79360000D01*
X137925888Y-81440000D02*
X137925888Y-81651000D01*
X137965888Y-79222000D02*
X137965888Y-81578000D01*
X138005888Y-79302000D02*
X138005888Y-81498000D01*
X138045888Y-79389000D02*
X138045888Y-81411000D01*
X138085888Y-79485000D02*
X138085888Y-81315000D01*
X138125888Y-79595000D02*
X138125888Y-81205000D01*
X138165888Y-79723000D02*
X138165888Y-81077000D01*
X138205888Y-79882000D02*
X138205888Y-80918000D01*
X138245888Y-80116000D02*
X138245888Y-80684000D01*
X138264888Y-80400000D02*
G75*
G03*
X138264888Y-80400000I-2620000J0D01*
G01*
%TO.C,R3*%
X173730000Y-114460000D02*
X173730000Y-113510000D01*
X172810000Y-113510000D02*
X174650000Y-113510000D01*
X174650000Y-113510000D02*
X174650000Y-109670000D01*
X172810000Y-109670000D02*
X172810000Y-113510000D01*
X174650000Y-109670000D02*
X172810000Y-109670000D01*
X173730000Y-108720000D02*
X173730000Y-109670000D01*
%TO.C,R21*%
X196960000Y-103000000D02*
X196190000Y-103000000D01*
X196190000Y-104370000D02*
X196190000Y-101630000D01*
X196190000Y-101630000D02*
X189650000Y-101630000D01*
X189650000Y-104370000D02*
X196190000Y-104370000D01*
X189650000Y-101630000D02*
X189650000Y-104370000D01*
X188880000Y-103000000D02*
X189650000Y-103000000D01*
%TO.C,J1*%
X75200000Y-79200000D02*
X89900000Y-79200000D01*
X75200000Y-88400000D02*
X75200000Y-79200000D01*
X84000000Y-88400000D02*
X75200000Y-88400000D01*
X89050000Y-79000000D02*
X90100000Y-79000000D01*
X89900000Y-79200000D02*
X89900000Y-81800000D01*
X89900000Y-85700000D02*
X89900000Y-88400000D01*
X89900000Y-88400000D02*
X88000000Y-88400000D01*
X90100000Y-80050000D02*
X90100000Y-79000000D01*
%TO.C,Q4*%
X137600000Y-113860000D02*
X141200000Y-113860000D01*
X139400000Y-109410000D02*
G75*
G03*
X137561522Y-113848478I0J-2600000D01*
G01*
X141238478Y-113848478D02*
G75*
G03*
X139400000Y-109410000I-1838478J1838478D01*
G01*
%TO.C,R18*%
X109940000Y-120765153D02*
X108990000Y-120765153D01*
X108990000Y-121685153D02*
X108990000Y-119845153D01*
X108990000Y-119845153D02*
X105150000Y-119845153D01*
X105150000Y-121685153D02*
X108990000Y-121685153D01*
X105150000Y-119845153D02*
X105150000Y-121685153D01*
X104200000Y-120765153D02*
X105150000Y-120765153D01*
%TO.C,U4*%
X139440000Y-86440000D02*
X190360000Y-86440000D01*
X190360000Y-86440000D02*
X190360000Y-73520000D01*
X139440000Y-80980000D02*
X139440000Y-86440000D01*
X139440000Y-73520000D02*
X139440000Y-78980000D01*
X190360000Y-73520000D02*
X139440000Y-73520000D01*
X139440000Y-80980000D02*
G75*
G03*
X139440000Y-78980000I0J1000000D01*
G01*
%TO.C,R17*%
X109930000Y-112155153D02*
X108980000Y-112155153D01*
X108980000Y-113075153D02*
X108980000Y-111235153D01*
X108980000Y-111235153D02*
X105140000Y-111235153D01*
X105140000Y-113075153D02*
X108980000Y-113075153D01*
X105140000Y-111235153D02*
X105140000Y-113075153D01*
X104190000Y-112155153D02*
X105140000Y-112155153D01*
%TO.C,R23*%
X169360000Y-103000000D02*
X168590000Y-103000000D01*
X168590000Y-104370000D02*
X168590000Y-101630000D01*
X168590000Y-101630000D02*
X162050000Y-101630000D01*
X162050000Y-104370000D02*
X168590000Y-104370000D01*
X162050000Y-101630000D02*
X162050000Y-104370000D01*
X161280000Y-103000000D02*
X162050000Y-103000000D01*
%TO.C,Q10*%
X105340000Y-109975943D02*
X108940000Y-109975943D01*
X107140000Y-105525943D02*
G75*
G03*
X105301522Y-109964421I0J-2600000D01*
G01*
X108978478Y-109964421D02*
G75*
G03*
X107140000Y-105525943I-1838478J1838478D01*
G01*
%TO.C,R25*%
X115400000Y-93320000D02*
X115400000Y-94270000D01*
X116320000Y-94270000D02*
X114480000Y-94270000D01*
X114480000Y-94270000D02*
X114480000Y-98110000D01*
X116320000Y-98110000D02*
X116320000Y-94270000D01*
X114480000Y-98110000D02*
X116320000Y-98110000D01*
X115400000Y-99060000D02*
X115400000Y-98110000D01*
%TO.C,R26*%
X170400000Y-93320000D02*
X170400000Y-94270000D01*
X171320000Y-94270000D02*
X169480000Y-94270000D01*
X169480000Y-94270000D02*
X169480000Y-98110000D01*
X171320000Y-98110000D02*
X171320000Y-94270000D01*
X169480000Y-98110000D02*
X171320000Y-98110000D01*
X170400000Y-99060000D02*
X170400000Y-98110000D01*
%TO.C,Q1*%
X176730000Y-113850000D02*
X180330000Y-113850000D01*
X178530000Y-109400000D02*
G75*
G03*
X176691522Y-113838478I0J-2600000D01*
G01*
X180368478Y-113838478D02*
G75*
G03*
X178530000Y-109400000I-1838478J1838478D01*
G01*
%TO.C,Q13*%
X77470000Y-98250000D02*
X81070000Y-98250000D01*
X79270000Y-93800000D02*
G75*
G03*
X77431522Y-98238478I0J-2600000D01*
G01*
X81108478Y-98238478D02*
G75*
G03*
X79270000Y-93800000I-1838478J1838478D01*
G01*
%TO.C,Q6*%
X157210000Y-113860000D02*
X160810000Y-113860000D01*
X159010000Y-109410000D02*
G75*
G03*
X157171522Y-113848478I0J-2600000D01*
G01*
X160848478Y-113848478D02*
G75*
G03*
X159010000Y-109410000I-1838478J1838478D01*
G01*
%TO.C,R10*%
X96530000Y-120745153D02*
X95580000Y-120745153D01*
X95580000Y-121665153D02*
X95580000Y-119825153D01*
X95580000Y-119825153D02*
X91740000Y-119825153D01*
X91740000Y-121665153D02*
X95580000Y-121665153D01*
X91740000Y-119825153D02*
X91740000Y-121665153D01*
X90790000Y-120745153D02*
X91740000Y-120745153D01*
%TO.C,R13*%
X154140000Y-114470000D02*
X154140000Y-113520000D01*
X153220000Y-113520000D02*
X155060000Y-113520000D01*
X155060000Y-113520000D02*
X155060000Y-109680000D01*
X153220000Y-109680000D02*
X153220000Y-113520000D01*
X155060000Y-109680000D02*
X153220000Y-109680000D01*
X154140000Y-108730000D02*
X154140000Y-109680000D01*
%TO.C,SW1*%
X125750000Y-71590000D02*
X131870000Y-71590000D01*
X125750000Y-75210000D02*
X125750000Y-71590000D01*
X131870000Y-71590000D02*
X131870000Y-75210000D01*
X131870000Y-75210000D02*
X125750000Y-75210000D01*
%TO.C,R16*%
X123470000Y-120765153D02*
X122520000Y-120765153D01*
X122520000Y-121685153D02*
X122520000Y-119845153D01*
X122520000Y-119845153D02*
X118680000Y-119845153D01*
X118680000Y-121685153D02*
X122520000Y-121685153D01*
X118680000Y-119845153D02*
X118680000Y-121685153D01*
X117730000Y-120765153D02*
X118680000Y-120765153D01*
%TO.C,C3*%
X120512349Y-76915000D02*
X119712349Y-76915000D01*
X120112349Y-77315000D02*
X120112349Y-76515000D01*
X116102651Y-78680000D02*
X116102651Y-70520000D01*
X116062651Y-78680000D02*
X116062651Y-70520000D01*
X116022651Y-78680000D02*
X116022651Y-70520000D01*
X115982651Y-78679000D02*
X115982651Y-70521000D01*
X115942651Y-78677000D02*
X115942651Y-70523000D01*
X115902651Y-78676000D02*
X115902651Y-70524000D01*
X115862651Y-78674000D02*
X115862651Y-70526000D01*
X115822651Y-78671000D02*
X115822651Y-70529000D01*
X115782651Y-78668000D02*
X115782651Y-70532000D01*
X115742651Y-78665000D02*
X115742651Y-70535000D01*
X115702651Y-78661000D02*
X115702651Y-70539000D01*
X115662651Y-78657000D02*
X115662651Y-70543000D01*
X115622651Y-78652000D02*
X115622651Y-70548000D01*
X115582651Y-78648000D02*
X115582651Y-70552000D01*
X115542651Y-78642000D02*
X115542651Y-70558000D01*
X115502651Y-78637000D02*
X115502651Y-70563000D01*
X115462651Y-78630000D02*
X115462651Y-70570000D01*
X115422651Y-78624000D02*
X115422651Y-70576000D01*
X115381651Y-78617000D02*
X115381651Y-70583000D01*
X115341651Y-78610000D02*
X115341651Y-70590000D01*
X115301651Y-78602000D02*
X115301651Y-70598000D01*
X115261651Y-78594000D02*
X115261651Y-70606000D01*
X115221651Y-78585000D02*
X115221651Y-75640000D01*
X115221651Y-73560000D02*
X115221651Y-70615000D01*
X115181651Y-78576000D02*
X115181651Y-75640000D01*
X115181651Y-73560000D02*
X115181651Y-70624000D01*
X115141651Y-78567000D02*
X115141651Y-75640000D01*
X115141651Y-73560000D02*
X115141651Y-70633000D01*
X115101651Y-78557000D02*
X115101651Y-75640000D01*
X115101651Y-73560000D02*
X115101651Y-70643000D01*
X115061651Y-78547000D02*
X115061651Y-75640000D01*
X115061651Y-73560000D02*
X115061651Y-70653000D01*
X115021651Y-78536000D02*
X115021651Y-75640000D01*
X115021651Y-73560000D02*
X115021651Y-70664000D01*
X114981651Y-78525000D02*
X114981651Y-75640000D01*
X114981651Y-73560000D02*
X114981651Y-70675000D01*
X114941651Y-78514000D02*
X114941651Y-75640000D01*
X114941651Y-73560000D02*
X114941651Y-70686000D01*
X114901651Y-78502000D02*
X114901651Y-75640000D01*
X114901651Y-73560000D02*
X114901651Y-70698000D01*
X114861651Y-78489000D02*
X114861651Y-75640000D01*
X114861651Y-73560000D02*
X114861651Y-70711000D01*
X114821651Y-78477000D02*
X114821651Y-75640000D01*
X114821651Y-73560000D02*
X114821651Y-70723000D01*
X114781651Y-78463000D02*
X114781651Y-75640000D01*
X114781651Y-73560000D02*
X114781651Y-70737000D01*
X114741651Y-78450000D02*
X114741651Y-75640000D01*
X114741651Y-73560000D02*
X114741651Y-70750000D01*
X114701651Y-78435000D02*
X114701651Y-75640000D01*
X114701651Y-73560000D02*
X114701651Y-70765000D01*
X114661651Y-78421000D02*
X114661651Y-75640000D01*
X114661651Y-73560000D02*
X114661651Y-70779000D01*
X114621651Y-78405000D02*
X114621651Y-75640000D01*
X114621651Y-73560000D02*
X114621651Y-70795000D01*
X114581651Y-78390000D02*
X114581651Y-75640000D01*
X114581651Y-73560000D02*
X114581651Y-70810000D01*
X114541651Y-78374000D02*
X114541651Y-75640000D01*
X114541651Y-73560000D02*
X114541651Y-70826000D01*
X114501651Y-78357000D02*
X114501651Y-75640000D01*
X114501651Y-73560000D02*
X114501651Y-70843000D01*
X114461651Y-78340000D02*
X114461651Y-75640000D01*
X114461651Y-73560000D02*
X114461651Y-70860000D01*
X114421651Y-78322000D02*
X114421651Y-75640000D01*
X114421651Y-73560000D02*
X114421651Y-70878000D01*
X114381651Y-78304000D02*
X114381651Y-75640000D01*
X114381651Y-73560000D02*
X114381651Y-70896000D01*
X114341651Y-78286000D02*
X114341651Y-75640000D01*
X114341651Y-73560000D02*
X114341651Y-70914000D01*
X114301651Y-78266000D02*
X114301651Y-75640000D01*
X114301651Y-73560000D02*
X114301651Y-70934000D01*
X114261651Y-78247000D02*
X114261651Y-75640000D01*
X114261651Y-73560000D02*
X114261651Y-70953000D01*
X114221651Y-78227000D02*
X114221651Y-75640000D01*
X114221651Y-73560000D02*
X114221651Y-70973000D01*
X114181651Y-78206000D02*
X114181651Y-75640000D01*
X114181651Y-73560000D02*
X114181651Y-70994000D01*
X114141651Y-78184000D02*
X114141651Y-75640000D01*
X114141651Y-73560000D02*
X114141651Y-71016000D01*
X114101651Y-78162000D02*
X114101651Y-75640000D01*
X114101651Y-73560000D02*
X114101651Y-71038000D01*
X114061651Y-78140000D02*
X114061651Y-75640000D01*
X114061651Y-73560000D02*
X114061651Y-71060000D01*
X114021651Y-78117000D02*
X114021651Y-75640000D01*
X114021651Y-73560000D02*
X114021651Y-71083000D01*
X113981651Y-78093000D02*
X113981651Y-75640000D01*
X113981651Y-73560000D02*
X113981651Y-71107000D01*
X113941651Y-78069000D02*
X113941651Y-75640000D01*
X113941651Y-73560000D02*
X113941651Y-71131000D01*
X113901651Y-78044000D02*
X113901651Y-75640000D01*
X113901651Y-73560000D02*
X113901651Y-71156000D01*
X113861651Y-78018000D02*
X113861651Y-75640000D01*
X113861651Y-73560000D02*
X113861651Y-71182000D01*
X113821651Y-77992000D02*
X113821651Y-75640000D01*
X113821651Y-73560000D02*
X113821651Y-71208000D01*
X113781651Y-77965000D02*
X113781651Y-75640000D01*
X113781651Y-73560000D02*
X113781651Y-71235000D01*
X113741651Y-77938000D02*
X113741651Y-75640000D01*
X113741651Y-73560000D02*
X113741651Y-71262000D01*
X113701651Y-77909000D02*
X113701651Y-75640000D01*
X113701651Y-73560000D02*
X113701651Y-71291000D01*
X113661651Y-77880000D02*
X113661651Y-75640000D01*
X113661651Y-73560000D02*
X113661651Y-71320000D01*
X113621651Y-77850000D02*
X113621651Y-75640000D01*
X113621651Y-73560000D02*
X113621651Y-71350000D01*
X113581651Y-77820000D02*
X113581651Y-75640000D01*
X113581651Y-73560000D02*
X113581651Y-71380000D01*
X113541651Y-77789000D02*
X113541651Y-75640000D01*
X113541651Y-73560000D02*
X113541651Y-71411000D01*
X113501651Y-77756000D02*
X113501651Y-75640000D01*
X113501651Y-73560000D02*
X113501651Y-71444000D01*
X113461651Y-77724000D02*
X113461651Y-75640000D01*
X113461651Y-73560000D02*
X113461651Y-71476000D01*
X113421651Y-77690000D02*
X113421651Y-75640000D01*
X113421651Y-73560000D02*
X113421651Y-71510000D01*
X113381651Y-77655000D02*
X113381651Y-75640000D01*
X113381651Y-73560000D02*
X113381651Y-71545000D01*
X113341651Y-77619000D02*
X113341651Y-75640000D01*
X113341651Y-73560000D02*
X113341651Y-71581000D01*
X113301651Y-77583000D02*
X113301651Y-75640000D01*
X113301651Y-73560000D02*
X113301651Y-71617000D01*
X113261651Y-77545000D02*
X113261651Y-75640000D01*
X113261651Y-73560000D02*
X113261651Y-71655000D01*
X113221651Y-77507000D02*
X113221651Y-75640000D01*
X113221651Y-73560000D02*
X113221651Y-71693000D01*
X113181651Y-77467000D02*
X113181651Y-75640000D01*
X113181651Y-73560000D02*
X113181651Y-71733000D01*
X113141651Y-77426000D02*
X113141651Y-71774000D01*
X113101651Y-77384000D02*
X113101651Y-71816000D01*
X113061651Y-77341000D02*
X113061651Y-71859000D01*
X113021651Y-77297000D02*
X113021651Y-71903000D01*
X112981651Y-77251000D02*
X112981651Y-71949000D01*
X112941651Y-77204000D02*
X112941651Y-71996000D01*
X112901651Y-77156000D02*
X112901651Y-72044000D01*
X112861651Y-77105000D02*
X112861651Y-72095000D01*
X112821651Y-77054000D02*
X112821651Y-72146000D01*
X112781651Y-77000000D02*
X112781651Y-72200000D01*
X112741651Y-76945000D02*
X112741651Y-72255000D01*
X112701651Y-76887000D02*
X112701651Y-72313000D01*
X112661651Y-76828000D02*
X112661651Y-72372000D01*
X112621651Y-76766000D02*
X112621651Y-72434000D01*
X112581651Y-76702000D02*
X112581651Y-72498000D01*
X112541651Y-76634000D02*
X112541651Y-72566000D01*
X112501651Y-76564000D02*
X112501651Y-72636000D01*
X112461651Y-76490000D02*
X112461651Y-72710000D01*
X112421651Y-76413000D02*
X112421651Y-72787000D01*
X112381651Y-76331000D02*
X112381651Y-72869000D01*
X112341651Y-76245000D02*
X112341651Y-72955000D01*
X112301651Y-76152000D02*
X112301651Y-73048000D01*
X112261651Y-76053000D02*
X112261651Y-73147000D01*
X112221651Y-75946000D02*
X112221651Y-73254000D01*
X112181651Y-75829000D02*
X112181651Y-73371000D01*
X112141651Y-75698000D02*
X112141651Y-73502000D01*
X112101651Y-75548000D02*
X112101651Y-73652000D01*
X112061651Y-75368000D02*
X112061651Y-73832000D01*
X112021651Y-75133000D02*
X112021651Y-74067000D01*
X120222651Y-74600000D02*
G75*
G03*
X120222651Y-74600000I-4120000J0D01*
G01*
%TD*%
M02*
