%TF.GenerationSoftware,KiCad,Pcbnew,7.0.0*%
%TF.CreationDate,2023-07-26T19:00:20+08:00*%
%TF.ProjectId,OpenNixie,4f70656e-4e69-4786-9965-2e6b69636164,v3.0*%
%TF.SameCoordinates,Original*%
%TF.FileFunction,Legend,Top*%
%TF.FilePolarity,Positive*%
%FSLAX46Y46*%
G04 Gerber Fmt 4.6, Leading zero omitted, Abs format (unit mm)*
G04 Created by KiCad (PCBNEW 7.0.0) date 2023-07-26 19:00:20*
%MOMM*%
%LPD*%
G01*
G04 APERTURE LIST*
%ADD10C,0.250000*%
%ADD11C,0.200000*%
%ADD12C,0.150000*%
%ADD13C,0.120000*%
G04 APERTURE END LIST*
D10*
X151585714Y-75594857D02*
X151776190Y-75594857D01*
X151776190Y-75594857D02*
X151864285Y-75652000D01*
X151864285Y-75652000D02*
X151945238Y-75766285D01*
X151945238Y-75766285D02*
X151964285Y-75994857D01*
X151964285Y-75994857D02*
X151914285Y-76394857D01*
X151914285Y-76394857D02*
X151838095Y-76623428D01*
X151838095Y-76623428D02*
X151728571Y-76737714D01*
X151728571Y-76737714D02*
X151626190Y-76794857D01*
X151626190Y-76794857D02*
X151435714Y-76794857D01*
X151435714Y-76794857D02*
X151347619Y-76737714D01*
X151347619Y-76737714D02*
X151266666Y-76623428D01*
X151266666Y-76623428D02*
X151247619Y-76394857D01*
X151247619Y-76394857D02*
X151297619Y-75994857D01*
X151297619Y-75994857D02*
X151373809Y-75766285D01*
X151373809Y-75766285D02*
X151483333Y-75652000D01*
X151483333Y-75652000D02*
X151585714Y-75594857D01*
X152392857Y-75994857D02*
X152242857Y-77194857D01*
X152385714Y-76052000D02*
X152488095Y-75994857D01*
X152488095Y-75994857D02*
X152678571Y-75994857D01*
X152678571Y-75994857D02*
X152766666Y-76052000D01*
X152766666Y-76052000D02*
X152807142Y-76109142D01*
X152807142Y-76109142D02*
X152840476Y-76223428D01*
X152840476Y-76223428D02*
X152797619Y-76566285D01*
X152797619Y-76566285D02*
X152735714Y-76680571D01*
X152735714Y-76680571D02*
X152680952Y-76737714D01*
X152680952Y-76737714D02*
X152578571Y-76794857D01*
X152578571Y-76794857D02*
X152388095Y-76794857D01*
X152388095Y-76794857D02*
X152299999Y-76737714D01*
X153542857Y-76737714D02*
X153440476Y-76794857D01*
X153440476Y-76794857D02*
X153250000Y-76794857D01*
X153250000Y-76794857D02*
X153161904Y-76737714D01*
X153161904Y-76737714D02*
X153128571Y-76623428D01*
X153128571Y-76623428D02*
X153185714Y-76166285D01*
X153185714Y-76166285D02*
X153247619Y-76052000D01*
X153247619Y-76052000D02*
X153350000Y-75994857D01*
X153350000Y-75994857D02*
X153540476Y-75994857D01*
X153540476Y-75994857D02*
X153628571Y-76052000D01*
X153628571Y-76052000D02*
X153661904Y-76166285D01*
X153661904Y-76166285D02*
X153647619Y-76280571D01*
X153647619Y-76280571D02*
X153157143Y-76394857D01*
X154111905Y-75994857D02*
X154011905Y-76794857D01*
X154097619Y-76109142D02*
X154152381Y-76052000D01*
X154152381Y-76052000D02*
X154254762Y-75994857D01*
X154254762Y-75994857D02*
X154397619Y-75994857D01*
X154397619Y-75994857D02*
X154485714Y-76052000D01*
X154485714Y-76052000D02*
X154519047Y-76166285D01*
X154519047Y-76166285D02*
X154440476Y-76794857D01*
X154916667Y-76794857D02*
X155066667Y-75594857D01*
X155066667Y-75594857D02*
X155488095Y-76794857D01*
X155488095Y-76794857D02*
X155638095Y-75594857D01*
X155964286Y-76794857D02*
X156064286Y-75994857D01*
X156114286Y-75594857D02*
X156059524Y-75652000D01*
X156059524Y-75652000D02*
X156100000Y-75709142D01*
X156100000Y-75709142D02*
X156154762Y-75652000D01*
X156154762Y-75652000D02*
X156114286Y-75594857D01*
X156114286Y-75594857D02*
X156100000Y-75709142D01*
X156345238Y-76794857D02*
X156969047Y-75994857D01*
X156445238Y-75994857D02*
X156869047Y-76794857D01*
X157250000Y-76794857D02*
X157350000Y-75994857D01*
X157400000Y-75594857D02*
X157345238Y-75652000D01*
X157345238Y-75652000D02*
X157385714Y-75709142D01*
X157385714Y-75709142D02*
X157440476Y-75652000D01*
X157440476Y-75652000D02*
X157400000Y-75594857D01*
X157400000Y-75594857D02*
X157385714Y-75709142D01*
X158114285Y-76737714D02*
X158011904Y-76794857D01*
X158011904Y-76794857D02*
X157821428Y-76794857D01*
X157821428Y-76794857D02*
X157733332Y-76737714D01*
X157733332Y-76737714D02*
X157699999Y-76623428D01*
X157699999Y-76623428D02*
X157757142Y-76166285D01*
X157757142Y-76166285D02*
X157819047Y-76052000D01*
X157819047Y-76052000D02*
X157921428Y-75994857D01*
X157921428Y-75994857D02*
X158111904Y-75994857D01*
X158111904Y-75994857D02*
X158199999Y-76052000D01*
X158199999Y-76052000D02*
X158233332Y-76166285D01*
X158233332Y-76166285D02*
X158219047Y-76280571D01*
X158219047Y-76280571D02*
X157728571Y-76394857D01*
X159273809Y-76223428D02*
X159233333Y-76166285D01*
X159233333Y-76166285D02*
X159145237Y-76109142D01*
X159145237Y-76109142D02*
X159049999Y-76109142D01*
X159049999Y-76109142D02*
X158947618Y-76166285D01*
X158947618Y-76166285D02*
X158892856Y-76223428D01*
X158892856Y-76223428D02*
X158830952Y-76337714D01*
X158830952Y-76337714D02*
X158816666Y-76452000D01*
X158816666Y-76452000D02*
X158849999Y-76566285D01*
X158849999Y-76566285D02*
X158890475Y-76623428D01*
X158890475Y-76623428D02*
X158978571Y-76680571D01*
X158978571Y-76680571D02*
X159073809Y-76680571D01*
X159073809Y-76680571D02*
X159176190Y-76623428D01*
X159176190Y-76623428D02*
X159230952Y-76566285D01*
X159288095Y-76109142D02*
X159230952Y-76566285D01*
X159230952Y-76566285D02*
X159271428Y-76623428D01*
X159271428Y-76623428D02*
X159319047Y-76623428D01*
X159319047Y-76623428D02*
X159421428Y-76566285D01*
X159421428Y-76566285D02*
X159483333Y-76452000D01*
X159483333Y-76452000D02*
X159519047Y-76166285D01*
X159519047Y-76166285D02*
X159445237Y-75994857D01*
X159445237Y-75994857D02*
X159316666Y-75880571D01*
X159316666Y-75880571D02*
X159133333Y-75823428D01*
X159133333Y-75823428D02*
X158935714Y-75880571D01*
X158935714Y-75880571D02*
X158778571Y-75994857D01*
X158778571Y-75994857D02*
X158661904Y-76166285D01*
X158661904Y-76166285D02*
X158585714Y-76394857D01*
X158585714Y-76394857D02*
X158604761Y-76623428D01*
X158604761Y-76623428D02*
X158678571Y-76794857D01*
X158678571Y-76794857D02*
X158807142Y-76909142D01*
X158807142Y-76909142D02*
X158990475Y-76966285D01*
X158990475Y-76966285D02*
X159188095Y-76909142D01*
X159188095Y-76909142D02*
X159345237Y-76794857D01*
X159854762Y-76794857D02*
X159954762Y-75994857D01*
X160004762Y-75594857D02*
X159950000Y-75652000D01*
X159950000Y-75652000D02*
X159990476Y-75709142D01*
X159990476Y-75709142D02*
X160045238Y-75652000D01*
X160045238Y-75652000D02*
X160004762Y-75594857D01*
X160004762Y-75594857D02*
X159990476Y-75709142D01*
X160330952Y-76794857D02*
X160480952Y-75594857D01*
X160423809Y-76052000D02*
X160526190Y-75994857D01*
X160526190Y-75994857D02*
X160716666Y-75994857D01*
X160716666Y-75994857D02*
X160804761Y-76052000D01*
X160804761Y-76052000D02*
X160845237Y-76109142D01*
X160845237Y-76109142D02*
X160878571Y-76223428D01*
X160878571Y-76223428D02*
X160835714Y-76566285D01*
X160835714Y-76566285D02*
X160773809Y-76680571D01*
X160773809Y-76680571D02*
X160719047Y-76737714D01*
X160719047Y-76737714D02*
X160616666Y-76794857D01*
X160616666Y-76794857D02*
X160426190Y-76794857D01*
X160426190Y-76794857D02*
X160338094Y-76737714D01*
X161671428Y-76737714D02*
X161569047Y-76794857D01*
X161569047Y-76794857D02*
X161378571Y-76794857D01*
X161378571Y-76794857D02*
X161290476Y-76737714D01*
X161290476Y-76737714D02*
X161249999Y-76680571D01*
X161249999Y-76680571D02*
X161216666Y-76566285D01*
X161216666Y-76566285D02*
X161259523Y-76223428D01*
X161259523Y-76223428D02*
X161321428Y-76109142D01*
X161321428Y-76109142D02*
X161376190Y-76052000D01*
X161376190Y-76052000D02*
X161478571Y-75994857D01*
X161478571Y-75994857D02*
X161669047Y-75994857D01*
X161669047Y-75994857D02*
X161757142Y-76052000D01*
X162235714Y-76794857D02*
X162147619Y-76737714D01*
X162147619Y-76737714D02*
X162114285Y-76623428D01*
X162114285Y-76623428D02*
X162242857Y-75594857D01*
X162630952Y-76680571D02*
X162671429Y-76737714D01*
X162671429Y-76737714D02*
X162616667Y-76794857D01*
X162616667Y-76794857D02*
X162576190Y-76737714D01*
X162576190Y-76737714D02*
X162630952Y-76680571D01*
X162630952Y-76680571D02*
X162616667Y-76794857D01*
X163621428Y-75994857D02*
X163521428Y-76794857D01*
X163192857Y-75994857D02*
X163114285Y-76623428D01*
X163114285Y-76623428D02*
X163147619Y-76737714D01*
X163147619Y-76737714D02*
X163235714Y-76794857D01*
X163235714Y-76794857D02*
X163378571Y-76794857D01*
X163378571Y-76794857D02*
X163480952Y-76737714D01*
X163480952Y-76737714D02*
X163535714Y-76680571D01*
X163957142Y-76737714D02*
X164045238Y-76794857D01*
X164045238Y-76794857D02*
X164235714Y-76794857D01*
X164235714Y-76794857D02*
X164338095Y-76737714D01*
X164338095Y-76737714D02*
X164400000Y-76623428D01*
X164400000Y-76623428D02*
X164407142Y-76566285D01*
X164407142Y-76566285D02*
X164373809Y-76452000D01*
X164373809Y-76452000D02*
X164285714Y-76394857D01*
X164285714Y-76394857D02*
X164142857Y-76394857D01*
X164142857Y-76394857D02*
X164054761Y-76337714D01*
X164054761Y-76337714D02*
X164021428Y-76223428D01*
X164021428Y-76223428D02*
X164028571Y-76166285D01*
X164028571Y-76166285D02*
X164090476Y-76052000D01*
X164090476Y-76052000D02*
X164192857Y-75994857D01*
X164192857Y-75994857D02*
X164335714Y-75994857D01*
X164335714Y-75994857D02*
X164423809Y-76052000D01*
X151773809Y-77938857D02*
X151652380Y-78910285D01*
X151652380Y-78910285D02*
X151590476Y-79024571D01*
X151590476Y-79024571D02*
X151535714Y-79081714D01*
X151535714Y-79081714D02*
X151433333Y-79138857D01*
X151433333Y-79138857D02*
X151290476Y-79138857D01*
X151290476Y-79138857D02*
X151202380Y-79081714D01*
X151680952Y-78681714D02*
X151578571Y-78738857D01*
X151578571Y-78738857D02*
X151388095Y-78738857D01*
X151388095Y-78738857D02*
X151300000Y-78681714D01*
X151300000Y-78681714D02*
X151259523Y-78624571D01*
X151259523Y-78624571D02*
X151226190Y-78510285D01*
X151226190Y-78510285D02*
X151269047Y-78167428D01*
X151269047Y-78167428D02*
X151330952Y-78053142D01*
X151330952Y-78053142D02*
X151385714Y-77996000D01*
X151385714Y-77996000D02*
X151488095Y-77938857D01*
X151488095Y-77938857D02*
X151678571Y-77938857D01*
X151678571Y-77938857D02*
X151766666Y-77996000D01*
X152107143Y-78738857D02*
X152207143Y-77938857D01*
X152257143Y-77538857D02*
X152202381Y-77596000D01*
X152202381Y-77596000D02*
X152242857Y-77653142D01*
X152242857Y-77653142D02*
X152297619Y-77596000D01*
X152297619Y-77596000D02*
X152257143Y-77538857D01*
X152257143Y-77538857D02*
X152242857Y-77653142D01*
X152540475Y-77938857D02*
X152921428Y-77938857D01*
X152733333Y-77538857D02*
X152604761Y-78567428D01*
X152604761Y-78567428D02*
X152638095Y-78681714D01*
X152638095Y-78681714D02*
X152726190Y-78738857D01*
X152726190Y-78738857D02*
X152821428Y-78738857D01*
X153154762Y-78738857D02*
X153304762Y-77538857D01*
X153583333Y-78738857D02*
X153661904Y-78110285D01*
X153661904Y-78110285D02*
X153628571Y-77996000D01*
X153628571Y-77996000D02*
X153540476Y-77938857D01*
X153540476Y-77938857D02*
X153397619Y-77938857D01*
X153397619Y-77938857D02*
X153295238Y-77996000D01*
X153295238Y-77996000D02*
X153240476Y-78053142D01*
X154588095Y-77938857D02*
X154488095Y-78738857D01*
X154159524Y-77938857D02*
X154080952Y-78567428D01*
X154080952Y-78567428D02*
X154114286Y-78681714D01*
X154114286Y-78681714D02*
X154202381Y-78738857D01*
X154202381Y-78738857D02*
X154345238Y-78738857D01*
X154345238Y-78738857D02*
X154447619Y-78681714D01*
X154447619Y-78681714D02*
X154502381Y-78624571D01*
X154964286Y-78738857D02*
X155114286Y-77538857D01*
X155057143Y-77996000D02*
X155159524Y-77938857D01*
X155159524Y-77938857D02*
X155350000Y-77938857D01*
X155350000Y-77938857D02*
X155438095Y-77996000D01*
X155438095Y-77996000D02*
X155478571Y-78053142D01*
X155478571Y-78053142D02*
X155511905Y-78167428D01*
X155511905Y-78167428D02*
X155469048Y-78510285D01*
X155469048Y-78510285D02*
X155407143Y-78624571D01*
X155407143Y-78624571D02*
X155352381Y-78681714D01*
X155352381Y-78681714D02*
X155250000Y-78738857D01*
X155250000Y-78738857D02*
X155059524Y-78738857D01*
X155059524Y-78738857D02*
X154971428Y-78681714D01*
X155883333Y-78624571D02*
X155923810Y-78681714D01*
X155923810Y-78681714D02*
X155869048Y-78738857D01*
X155869048Y-78738857D02*
X155828571Y-78681714D01*
X155828571Y-78681714D02*
X155883333Y-78624571D01*
X155883333Y-78624571D02*
X155869048Y-78738857D01*
X156780952Y-78681714D02*
X156678571Y-78738857D01*
X156678571Y-78738857D02*
X156488095Y-78738857D01*
X156488095Y-78738857D02*
X156400000Y-78681714D01*
X156400000Y-78681714D02*
X156359523Y-78624571D01*
X156359523Y-78624571D02*
X156326190Y-78510285D01*
X156326190Y-78510285D02*
X156369047Y-78167428D01*
X156369047Y-78167428D02*
X156430952Y-78053142D01*
X156430952Y-78053142D02*
X156485714Y-77996000D01*
X156485714Y-77996000D02*
X156588095Y-77938857D01*
X156588095Y-77938857D02*
X156778571Y-77938857D01*
X156778571Y-77938857D02*
X156866666Y-77996000D01*
X157345238Y-78738857D02*
X157257143Y-78681714D01*
X157257143Y-78681714D02*
X157216666Y-78624571D01*
X157216666Y-78624571D02*
X157183333Y-78510285D01*
X157183333Y-78510285D02*
X157226190Y-78167428D01*
X157226190Y-78167428D02*
X157288095Y-78053142D01*
X157288095Y-78053142D02*
X157342857Y-77996000D01*
X157342857Y-77996000D02*
X157445238Y-77938857D01*
X157445238Y-77938857D02*
X157588095Y-77938857D01*
X157588095Y-77938857D02*
X157676190Y-77996000D01*
X157676190Y-77996000D02*
X157716666Y-78053142D01*
X157716666Y-78053142D02*
X157750000Y-78167428D01*
X157750000Y-78167428D02*
X157707143Y-78510285D01*
X157707143Y-78510285D02*
X157645238Y-78624571D01*
X157645238Y-78624571D02*
X157590476Y-78681714D01*
X157590476Y-78681714D02*
X157488095Y-78738857D01*
X157488095Y-78738857D02*
X157345238Y-78738857D01*
X158107143Y-78738857D02*
X158207143Y-77938857D01*
X158192857Y-78053142D02*
X158247619Y-77996000D01*
X158247619Y-77996000D02*
X158350000Y-77938857D01*
X158350000Y-77938857D02*
X158492857Y-77938857D01*
X158492857Y-77938857D02*
X158580952Y-77996000D01*
X158580952Y-77996000D02*
X158614285Y-78110285D01*
X158614285Y-78110285D02*
X158535714Y-78738857D01*
X158614285Y-78110285D02*
X158676190Y-77996000D01*
X158676190Y-77996000D02*
X158778571Y-77938857D01*
X158778571Y-77938857D02*
X158921428Y-77938857D01*
X158921428Y-77938857D02*
X159009524Y-77996000D01*
X159009524Y-77996000D02*
X159042857Y-78110285D01*
X159042857Y-78110285D02*
X158964285Y-78738857D01*
X160311904Y-77481714D02*
X159261904Y-79024571D01*
X160459524Y-78738857D02*
X160609524Y-77538857D01*
X160552381Y-77996000D02*
X160654762Y-77938857D01*
X160654762Y-77938857D02*
X160845238Y-77938857D01*
X160845238Y-77938857D02*
X160933333Y-77996000D01*
X160933333Y-77996000D02*
X160973809Y-78053142D01*
X160973809Y-78053142D02*
X161007143Y-78167428D01*
X161007143Y-78167428D02*
X160964286Y-78510285D01*
X160964286Y-78510285D02*
X160902381Y-78624571D01*
X160902381Y-78624571D02*
X160847619Y-78681714D01*
X160847619Y-78681714D02*
X160745238Y-78738857D01*
X160745238Y-78738857D02*
X160554762Y-78738857D01*
X160554762Y-78738857D02*
X160466666Y-78681714D01*
X161800000Y-78681714D02*
X161697619Y-78738857D01*
X161697619Y-78738857D02*
X161507143Y-78738857D01*
X161507143Y-78738857D02*
X161419048Y-78681714D01*
X161419048Y-78681714D02*
X161378571Y-78624571D01*
X161378571Y-78624571D02*
X161345238Y-78510285D01*
X161345238Y-78510285D02*
X161388095Y-78167428D01*
X161388095Y-78167428D02*
X161450000Y-78053142D01*
X161450000Y-78053142D02*
X161504762Y-77996000D01*
X161504762Y-77996000D02*
X161607143Y-77938857D01*
X161607143Y-77938857D02*
X161797619Y-77938857D01*
X161797619Y-77938857D02*
X161885714Y-77996000D01*
X162364286Y-78738857D02*
X162276191Y-78681714D01*
X162276191Y-78681714D02*
X162242857Y-78567428D01*
X162242857Y-78567428D02*
X162371429Y-77538857D01*
X162704762Y-78681714D02*
X162792858Y-78738857D01*
X162792858Y-78738857D02*
X162983334Y-78738857D01*
X162983334Y-78738857D02*
X163085715Y-78681714D01*
X163085715Y-78681714D02*
X163147620Y-78567428D01*
X163147620Y-78567428D02*
X163154762Y-78510285D01*
X163154762Y-78510285D02*
X163121429Y-78396000D01*
X163121429Y-78396000D02*
X163033334Y-78338857D01*
X163033334Y-78338857D02*
X162890477Y-78338857D01*
X162890477Y-78338857D02*
X162802381Y-78281714D01*
X162802381Y-78281714D02*
X162769048Y-78167428D01*
X162769048Y-78167428D02*
X162776191Y-78110285D01*
X162776191Y-78110285D02*
X162838096Y-77996000D01*
X162838096Y-77996000D02*
X162940477Y-77938857D01*
X162940477Y-77938857D02*
X163083334Y-77938857D01*
X163083334Y-77938857D02*
X163171429Y-77996000D01*
X163559525Y-77938857D02*
X163650001Y-78738857D01*
X163650001Y-78738857D02*
X163911905Y-78167428D01*
X163911905Y-78167428D02*
X164030953Y-78738857D01*
X164030953Y-78738857D02*
X164321429Y-77938857D01*
X164745239Y-78738857D02*
X164657144Y-78681714D01*
X164657144Y-78681714D02*
X164623810Y-78567428D01*
X164623810Y-78567428D02*
X164752382Y-77538857D01*
X165466668Y-77538857D02*
X165561906Y-77538857D01*
X165561906Y-77538857D02*
X165650001Y-77596000D01*
X165650001Y-77596000D02*
X165690477Y-77653142D01*
X165690477Y-77653142D02*
X165723811Y-77767428D01*
X165723811Y-77767428D02*
X165742858Y-77996000D01*
X165742858Y-77996000D02*
X165707144Y-78281714D01*
X165707144Y-78281714D02*
X165630954Y-78510285D01*
X165630954Y-78510285D02*
X165569049Y-78624571D01*
X165569049Y-78624571D02*
X165514287Y-78681714D01*
X165514287Y-78681714D02*
X165411906Y-78738857D01*
X165411906Y-78738857D02*
X165316668Y-78738857D01*
X165316668Y-78738857D02*
X165228573Y-78681714D01*
X165228573Y-78681714D02*
X165188096Y-78624571D01*
X165188096Y-78624571D02*
X165154763Y-78510285D01*
X165154763Y-78510285D02*
X165135715Y-78281714D01*
X165135715Y-78281714D02*
X165171430Y-77996000D01*
X165171430Y-77996000D02*
X165247620Y-77767428D01*
X165247620Y-77767428D02*
X165309525Y-77653142D01*
X165309525Y-77653142D02*
X165364287Y-77596000D01*
X165364287Y-77596000D02*
X165466668Y-77538857D01*
X166307144Y-78053142D02*
X166219049Y-77996000D01*
X166219049Y-77996000D02*
X166178573Y-77938857D01*
X166178573Y-77938857D02*
X166145239Y-77824571D01*
X166145239Y-77824571D02*
X166152382Y-77767428D01*
X166152382Y-77767428D02*
X166214287Y-77653142D01*
X166214287Y-77653142D02*
X166269049Y-77596000D01*
X166269049Y-77596000D02*
X166371430Y-77538857D01*
X166371430Y-77538857D02*
X166561906Y-77538857D01*
X166561906Y-77538857D02*
X166650001Y-77596000D01*
X166650001Y-77596000D02*
X166690477Y-77653142D01*
X166690477Y-77653142D02*
X166723811Y-77767428D01*
X166723811Y-77767428D02*
X166716668Y-77824571D01*
X166716668Y-77824571D02*
X166654763Y-77938857D01*
X166654763Y-77938857D02*
X166600001Y-77996000D01*
X166600001Y-77996000D02*
X166497620Y-78053142D01*
X166497620Y-78053142D02*
X166307144Y-78053142D01*
X166307144Y-78053142D02*
X166204763Y-78110285D01*
X166204763Y-78110285D02*
X166150001Y-78167428D01*
X166150001Y-78167428D02*
X166088096Y-78281714D01*
X166088096Y-78281714D02*
X166059525Y-78510285D01*
X166059525Y-78510285D02*
X166092858Y-78624571D01*
X166092858Y-78624571D02*
X166133335Y-78681714D01*
X166133335Y-78681714D02*
X166221430Y-78738857D01*
X166221430Y-78738857D02*
X166411906Y-78738857D01*
X166411906Y-78738857D02*
X166514287Y-78681714D01*
X166514287Y-78681714D02*
X166569049Y-78624571D01*
X166569049Y-78624571D02*
X166630954Y-78510285D01*
X166630954Y-78510285D02*
X166659525Y-78281714D01*
X166659525Y-78281714D02*
X166626192Y-78167428D01*
X166626192Y-78167428D02*
X166585715Y-78110285D01*
X166585715Y-78110285D02*
X166497620Y-78053142D01*
X167119049Y-77653142D02*
X167173811Y-77596000D01*
X167173811Y-77596000D02*
X167276192Y-77538857D01*
X167276192Y-77538857D02*
X167514287Y-77538857D01*
X167514287Y-77538857D02*
X167602382Y-77596000D01*
X167602382Y-77596000D02*
X167642858Y-77653142D01*
X167642858Y-77653142D02*
X167676192Y-77767428D01*
X167676192Y-77767428D02*
X167661906Y-77881714D01*
X167661906Y-77881714D02*
X167592858Y-78053142D01*
X167592858Y-78053142D02*
X166935716Y-78738857D01*
X166935716Y-78738857D02*
X167554763Y-78738857D01*
X168038097Y-77538857D02*
X168704763Y-77538857D01*
X168704763Y-77538857D02*
X168126192Y-78738857D01*
X169807144Y-77481714D02*
X168757144Y-79024571D01*
X170295240Y-77538857D02*
X170485716Y-77538857D01*
X170485716Y-77538857D02*
X170573811Y-77596000D01*
X170573811Y-77596000D02*
X170654764Y-77710285D01*
X170654764Y-77710285D02*
X170673811Y-77938857D01*
X170673811Y-77938857D02*
X170623811Y-78338857D01*
X170623811Y-78338857D02*
X170547621Y-78567428D01*
X170547621Y-78567428D02*
X170438097Y-78681714D01*
X170438097Y-78681714D02*
X170335716Y-78738857D01*
X170335716Y-78738857D02*
X170145240Y-78738857D01*
X170145240Y-78738857D02*
X170057145Y-78681714D01*
X170057145Y-78681714D02*
X169976192Y-78567428D01*
X169976192Y-78567428D02*
X169957145Y-78338857D01*
X169957145Y-78338857D02*
X170007145Y-77938857D01*
X170007145Y-77938857D02*
X170083335Y-77710285D01*
X170083335Y-77710285D02*
X170192859Y-77596000D01*
X170192859Y-77596000D02*
X170295240Y-77538857D01*
X171102383Y-77938857D02*
X170952383Y-79138857D01*
X171095240Y-77996000D02*
X171197621Y-77938857D01*
X171197621Y-77938857D02*
X171388097Y-77938857D01*
X171388097Y-77938857D02*
X171476192Y-77996000D01*
X171476192Y-77996000D02*
X171516668Y-78053142D01*
X171516668Y-78053142D02*
X171550002Y-78167428D01*
X171550002Y-78167428D02*
X171507145Y-78510285D01*
X171507145Y-78510285D02*
X171445240Y-78624571D01*
X171445240Y-78624571D02*
X171390478Y-78681714D01*
X171390478Y-78681714D02*
X171288097Y-78738857D01*
X171288097Y-78738857D02*
X171097621Y-78738857D01*
X171097621Y-78738857D02*
X171009525Y-78681714D01*
X172252383Y-78681714D02*
X172150002Y-78738857D01*
X172150002Y-78738857D02*
X171959526Y-78738857D01*
X171959526Y-78738857D02*
X171871430Y-78681714D01*
X171871430Y-78681714D02*
X171838097Y-78567428D01*
X171838097Y-78567428D02*
X171895240Y-78110285D01*
X171895240Y-78110285D02*
X171957145Y-77996000D01*
X171957145Y-77996000D02*
X172059526Y-77938857D01*
X172059526Y-77938857D02*
X172250002Y-77938857D01*
X172250002Y-77938857D02*
X172338097Y-77996000D01*
X172338097Y-77996000D02*
X172371430Y-78110285D01*
X172371430Y-78110285D02*
X172357145Y-78224571D01*
X172357145Y-78224571D02*
X171866669Y-78338857D01*
X172821431Y-77938857D02*
X172721431Y-78738857D01*
X172807145Y-78053142D02*
X172861907Y-77996000D01*
X172861907Y-77996000D02*
X172964288Y-77938857D01*
X172964288Y-77938857D02*
X173107145Y-77938857D01*
X173107145Y-77938857D02*
X173195240Y-77996000D01*
X173195240Y-77996000D02*
X173228573Y-78110285D01*
X173228573Y-78110285D02*
X173150002Y-78738857D01*
X173626193Y-78738857D02*
X173776193Y-77538857D01*
X173776193Y-77538857D02*
X174197621Y-78738857D01*
X174197621Y-78738857D02*
X174347621Y-77538857D01*
X174673812Y-78738857D02*
X174773812Y-77938857D01*
X174823812Y-77538857D02*
X174769050Y-77596000D01*
X174769050Y-77596000D02*
X174809526Y-77653142D01*
X174809526Y-77653142D02*
X174864288Y-77596000D01*
X174864288Y-77596000D02*
X174823812Y-77538857D01*
X174823812Y-77538857D02*
X174809526Y-77653142D01*
X175054764Y-78738857D02*
X175678573Y-77938857D01*
X175154764Y-77938857D02*
X175578573Y-78738857D01*
X175959526Y-78738857D02*
X176059526Y-77938857D01*
X176109526Y-77538857D02*
X176054764Y-77596000D01*
X176054764Y-77596000D02*
X176095240Y-77653142D01*
X176095240Y-77653142D02*
X176150002Y-77596000D01*
X176150002Y-77596000D02*
X176109526Y-77538857D01*
X176109526Y-77538857D02*
X176095240Y-77653142D01*
X176823811Y-78681714D02*
X176721430Y-78738857D01*
X176721430Y-78738857D02*
X176530954Y-78738857D01*
X176530954Y-78738857D02*
X176442858Y-78681714D01*
X176442858Y-78681714D02*
X176409525Y-78567428D01*
X176409525Y-78567428D02*
X176466668Y-78110285D01*
X176466668Y-78110285D02*
X176528573Y-77996000D01*
X176528573Y-77996000D02*
X176630954Y-77938857D01*
X176630954Y-77938857D02*
X176821430Y-77938857D01*
X176821430Y-77938857D02*
X176909525Y-77996000D01*
X176909525Y-77996000D02*
X176942858Y-78110285D01*
X176942858Y-78110285D02*
X176928573Y-78224571D01*
X176928573Y-78224571D02*
X176438097Y-78338857D01*
D11*
X78955828Y-94613904D02*
X78574876Y-94613904D01*
X78574876Y-94613904D02*
X78574876Y-93813904D01*
X79679638Y-94537714D02*
X79641542Y-94575809D01*
X79641542Y-94575809D02*
X79527257Y-94613904D01*
X79527257Y-94613904D02*
X79451066Y-94613904D01*
X79451066Y-94613904D02*
X79336780Y-94575809D01*
X79336780Y-94575809D02*
X79260590Y-94499619D01*
X79260590Y-94499619D02*
X79222495Y-94423428D01*
X79222495Y-94423428D02*
X79184399Y-94271047D01*
X79184399Y-94271047D02*
X79184399Y-94156761D01*
X79184399Y-94156761D02*
X79222495Y-94004380D01*
X79222495Y-94004380D02*
X79260590Y-93928190D01*
X79260590Y-93928190D02*
X79336780Y-93852000D01*
X79336780Y-93852000D02*
X79451066Y-93813904D01*
X79451066Y-93813904D02*
X79527257Y-93813904D01*
X79527257Y-93813904D02*
X79641542Y-93852000D01*
X79641542Y-93852000D02*
X79679638Y-93890095D01*
X80022495Y-94613904D02*
X80022495Y-93813904D01*
X80022495Y-94194857D02*
X80479638Y-94194857D01*
X80479638Y-94613904D02*
X80479638Y-93813904D01*
X78574876Y-97205904D02*
X78574876Y-96405904D01*
X78574876Y-96405904D02*
X78765352Y-96405904D01*
X78765352Y-96405904D02*
X78879638Y-96444000D01*
X78879638Y-96444000D02*
X78955828Y-96520190D01*
X78955828Y-96520190D02*
X78993923Y-96596380D01*
X78993923Y-96596380D02*
X79032019Y-96748761D01*
X79032019Y-96748761D02*
X79032019Y-96863047D01*
X79032019Y-96863047D02*
X78993923Y-97015428D01*
X78993923Y-97015428D02*
X78955828Y-97091619D01*
X78955828Y-97091619D02*
X78879638Y-97167809D01*
X78879638Y-97167809D02*
X78765352Y-97205904D01*
X78765352Y-97205904D02*
X78574876Y-97205904D01*
X79336780Y-96977333D02*
X79717733Y-96977333D01*
X79260590Y-97205904D02*
X79527257Y-96405904D01*
X79527257Y-96405904D02*
X79793923Y-97205904D01*
X79946304Y-96405904D02*
X80403447Y-96405904D01*
X80174875Y-97205904D02*
X80174875Y-96405904D01*
X79032019Y-99721714D02*
X78993923Y-99759809D01*
X78993923Y-99759809D02*
X78879638Y-99797904D01*
X78879638Y-99797904D02*
X78803447Y-99797904D01*
X78803447Y-99797904D02*
X78689161Y-99759809D01*
X78689161Y-99759809D02*
X78612971Y-99683619D01*
X78612971Y-99683619D02*
X78574876Y-99607428D01*
X78574876Y-99607428D02*
X78536780Y-99455047D01*
X78536780Y-99455047D02*
X78536780Y-99340761D01*
X78536780Y-99340761D02*
X78574876Y-99188380D01*
X78574876Y-99188380D02*
X78612971Y-99112190D01*
X78612971Y-99112190D02*
X78689161Y-99036000D01*
X78689161Y-99036000D02*
X78803447Y-98997904D01*
X78803447Y-98997904D02*
X78879638Y-98997904D01*
X78879638Y-98997904D02*
X78993923Y-99036000D01*
X78993923Y-99036000D02*
X79032019Y-99074095D01*
X79755828Y-99797904D02*
X79374876Y-99797904D01*
X79374876Y-99797904D02*
X79374876Y-98997904D01*
X80022495Y-99797904D02*
X80022495Y-98997904D01*
X80479638Y-99797904D02*
X80136780Y-99340761D01*
X80479638Y-98997904D02*
X80022495Y-99455047D01*
X78574876Y-102085142D02*
X79184400Y-102085142D01*
X78879638Y-102389904D02*
X78879638Y-101780380D01*
X79946304Y-101589904D02*
X79565352Y-101589904D01*
X79565352Y-101589904D02*
X79527256Y-101970857D01*
X79527256Y-101970857D02*
X79565352Y-101932761D01*
X79565352Y-101932761D02*
X79641542Y-101894666D01*
X79641542Y-101894666D02*
X79832018Y-101894666D01*
X79832018Y-101894666D02*
X79908209Y-101932761D01*
X79908209Y-101932761D02*
X79946304Y-101970857D01*
X79946304Y-101970857D02*
X79984399Y-102047047D01*
X79984399Y-102047047D02*
X79984399Y-102237523D01*
X79984399Y-102237523D02*
X79946304Y-102313714D01*
X79946304Y-102313714D02*
X79908209Y-102351809D01*
X79908209Y-102351809D02*
X79832018Y-102389904D01*
X79832018Y-102389904D02*
X79641542Y-102389904D01*
X79641542Y-102389904D02*
X79565352Y-102351809D01*
X79565352Y-102351809D02*
X79527256Y-102313714D01*
X80212971Y-101589904D02*
X80479638Y-102389904D01*
X80479638Y-102389904D02*
X80746304Y-101589904D01*
X78993923Y-104220000D02*
X78917733Y-104181904D01*
X78917733Y-104181904D02*
X78803447Y-104181904D01*
X78803447Y-104181904D02*
X78689161Y-104220000D01*
X78689161Y-104220000D02*
X78612971Y-104296190D01*
X78612971Y-104296190D02*
X78574876Y-104372380D01*
X78574876Y-104372380D02*
X78536780Y-104524761D01*
X78536780Y-104524761D02*
X78536780Y-104639047D01*
X78536780Y-104639047D02*
X78574876Y-104791428D01*
X78574876Y-104791428D02*
X78612971Y-104867619D01*
X78612971Y-104867619D02*
X78689161Y-104943809D01*
X78689161Y-104943809D02*
X78803447Y-104981904D01*
X78803447Y-104981904D02*
X78879638Y-104981904D01*
X78879638Y-104981904D02*
X78993923Y-104943809D01*
X78993923Y-104943809D02*
X79032019Y-104905714D01*
X79032019Y-104905714D02*
X79032019Y-104639047D01*
X79032019Y-104639047D02*
X78879638Y-104639047D01*
X79374876Y-104981904D02*
X79374876Y-104181904D01*
X79374876Y-104181904D02*
X79832019Y-104981904D01*
X79832019Y-104981904D02*
X79832019Y-104181904D01*
X80212971Y-104981904D02*
X80212971Y-104181904D01*
X80212971Y-104181904D02*
X80403447Y-104181904D01*
X80403447Y-104181904D02*
X80517733Y-104220000D01*
X80517733Y-104220000D02*
X80593923Y-104296190D01*
X80593923Y-104296190D02*
X80632018Y-104372380D01*
X80632018Y-104372380D02*
X80670114Y-104524761D01*
X80670114Y-104524761D02*
X80670114Y-104639047D01*
X80670114Y-104639047D02*
X80632018Y-104791428D01*
X80632018Y-104791428D02*
X80593923Y-104867619D01*
X80593923Y-104867619D02*
X80517733Y-104943809D01*
X80517733Y-104943809D02*
X80403447Y-104981904D01*
X80403447Y-104981904D02*
X80212971Y-104981904D01*
D10*
X187245238Y-76794857D02*
X187395238Y-75594857D01*
X187323809Y-76166285D02*
X187895238Y-76166285D01*
X187816666Y-76794857D02*
X187966666Y-75594857D01*
X188292857Y-76794857D02*
X188442857Y-75594857D01*
X189435713Y-75652000D02*
X189347618Y-75594857D01*
X189347618Y-75594857D02*
X189204761Y-75594857D01*
X189204761Y-75594857D02*
X189054761Y-75652000D01*
X189054761Y-75652000D02*
X188945237Y-75766285D01*
X188945237Y-75766285D02*
X188883332Y-75880571D01*
X188883332Y-75880571D02*
X188807142Y-76109142D01*
X188807142Y-76109142D02*
X188785713Y-76280571D01*
X188785713Y-76280571D02*
X188804761Y-76509142D01*
X188804761Y-76509142D02*
X188838094Y-76623428D01*
X188838094Y-76623428D02*
X188919047Y-76737714D01*
X188919047Y-76737714D02*
X189054761Y-76794857D01*
X189054761Y-76794857D02*
X189149999Y-76794857D01*
X189149999Y-76794857D02*
X189299999Y-76737714D01*
X189299999Y-76737714D02*
X189354761Y-76680571D01*
X189354761Y-76680571D02*
X189404761Y-76280571D01*
X189404761Y-76280571D02*
X189214285Y-76280571D01*
X189769047Y-76794857D02*
X189919047Y-75594857D01*
X189847618Y-76166285D02*
X190419047Y-76166285D01*
X190340475Y-76794857D02*
X190490475Y-75594857D01*
X191423808Y-75594857D02*
X191607142Y-76794857D01*
X191607142Y-76794857D02*
X192090475Y-75594857D01*
X192614285Y-75594857D02*
X192804761Y-75594857D01*
X192804761Y-75594857D02*
X192892856Y-75652000D01*
X192892856Y-75652000D02*
X192973809Y-75766285D01*
X192973809Y-75766285D02*
X192992856Y-75994857D01*
X192992856Y-75994857D02*
X192942856Y-76394857D01*
X192942856Y-76394857D02*
X192866666Y-76623428D01*
X192866666Y-76623428D02*
X192757142Y-76737714D01*
X192757142Y-76737714D02*
X192654761Y-76794857D01*
X192654761Y-76794857D02*
X192464285Y-76794857D01*
X192464285Y-76794857D02*
X192376190Y-76737714D01*
X192376190Y-76737714D02*
X192295237Y-76623428D01*
X192295237Y-76623428D02*
X192276190Y-76394857D01*
X192276190Y-76394857D02*
X192326190Y-75994857D01*
X192326190Y-75994857D02*
X192402380Y-75766285D01*
X192402380Y-75766285D02*
X192511904Y-75652000D01*
X192511904Y-75652000D02*
X192614285Y-75594857D01*
X193797618Y-76794857D02*
X193321428Y-76794857D01*
X193321428Y-76794857D02*
X193471428Y-75594857D01*
X194138094Y-75594857D02*
X194709523Y-75594857D01*
X194273809Y-76794857D02*
X194423809Y-75594857D01*
X194888095Y-76452000D02*
X195364285Y-76452000D01*
X194749999Y-76794857D02*
X195233333Y-75594857D01*
X195233333Y-75594857D02*
X195416666Y-76794857D01*
X196416666Y-75652000D02*
X196328571Y-75594857D01*
X196328571Y-75594857D02*
X196185714Y-75594857D01*
X196185714Y-75594857D02*
X196035714Y-75652000D01*
X196035714Y-75652000D02*
X195926190Y-75766285D01*
X195926190Y-75766285D02*
X195864285Y-75880571D01*
X195864285Y-75880571D02*
X195788095Y-76109142D01*
X195788095Y-76109142D02*
X195766666Y-76280571D01*
X195766666Y-76280571D02*
X195785714Y-76509142D01*
X195785714Y-76509142D02*
X195819047Y-76623428D01*
X195819047Y-76623428D02*
X195900000Y-76737714D01*
X195900000Y-76737714D02*
X196035714Y-76794857D01*
X196035714Y-76794857D02*
X196130952Y-76794857D01*
X196130952Y-76794857D02*
X196280952Y-76737714D01*
X196280952Y-76737714D02*
X196335714Y-76680571D01*
X196335714Y-76680571D02*
X196385714Y-76280571D01*
X196385714Y-76280571D02*
X196195238Y-76280571D01*
X196828571Y-76166285D02*
X197161904Y-76166285D01*
X197226190Y-76794857D02*
X196750000Y-76794857D01*
X196750000Y-76794857D02*
X196900000Y-75594857D01*
X196900000Y-75594857D02*
X197376190Y-75594857D01*
X198254762Y-76794857D02*
X198404762Y-75594857D01*
X198404762Y-75594857D02*
X198642857Y-75594857D01*
X198642857Y-75594857D02*
X198778571Y-75652000D01*
X198778571Y-75652000D02*
X198859524Y-75766285D01*
X198859524Y-75766285D02*
X198892857Y-75880571D01*
X198892857Y-75880571D02*
X198911904Y-76109142D01*
X198911904Y-76109142D02*
X198890476Y-76280571D01*
X198890476Y-76280571D02*
X198814285Y-76509142D01*
X198814285Y-76509142D02*
X198752381Y-76623428D01*
X198752381Y-76623428D02*
X198642857Y-76737714D01*
X198642857Y-76737714D02*
X198492857Y-76794857D01*
X198492857Y-76794857D02*
X198254762Y-76794857D01*
X199250000Y-76452000D02*
X199726190Y-76452000D01*
X199111904Y-76794857D02*
X199595238Y-75594857D01*
X199595238Y-75594857D02*
X199778571Y-76794857D01*
X200111905Y-76794857D02*
X200261905Y-75594857D01*
X200261905Y-75594857D02*
X200683333Y-76794857D01*
X200683333Y-76794857D02*
X200833333Y-75594857D01*
X201826190Y-75652000D02*
X201738095Y-75594857D01*
X201738095Y-75594857D02*
X201595238Y-75594857D01*
X201595238Y-75594857D02*
X201445238Y-75652000D01*
X201445238Y-75652000D02*
X201335714Y-75766285D01*
X201335714Y-75766285D02*
X201273809Y-75880571D01*
X201273809Y-75880571D02*
X201197619Y-76109142D01*
X201197619Y-76109142D02*
X201176190Y-76280571D01*
X201176190Y-76280571D02*
X201195238Y-76509142D01*
X201195238Y-76509142D02*
X201228571Y-76623428D01*
X201228571Y-76623428D02*
X201309524Y-76737714D01*
X201309524Y-76737714D02*
X201445238Y-76794857D01*
X201445238Y-76794857D02*
X201540476Y-76794857D01*
X201540476Y-76794857D02*
X201690476Y-76737714D01*
X201690476Y-76737714D02*
X201745238Y-76680571D01*
X201745238Y-76680571D02*
X201795238Y-76280571D01*
X201795238Y-76280571D02*
X201604762Y-76280571D01*
X202238095Y-76166285D02*
X202571428Y-76166285D01*
X202635714Y-76794857D02*
X202159524Y-76794857D01*
X202159524Y-76794857D02*
X202309524Y-75594857D01*
X202309524Y-75594857D02*
X202785714Y-75594857D01*
X203635714Y-76794857D02*
X203373809Y-76223428D01*
X203064286Y-76794857D02*
X203214286Y-75594857D01*
X203214286Y-75594857D02*
X203595238Y-75594857D01*
X203595238Y-75594857D02*
X203683333Y-75652000D01*
X203683333Y-75652000D02*
X203723809Y-75709142D01*
X203723809Y-75709142D02*
X203757143Y-75823428D01*
X203757143Y-75823428D02*
X203735714Y-75994857D01*
X203735714Y-75994857D02*
X203673809Y-76109142D01*
X203673809Y-76109142D02*
X203619048Y-76166285D01*
X203619048Y-76166285D02*
X203516667Y-76223428D01*
X203516667Y-76223428D02*
X203135714Y-76223428D01*
X187245238Y-78738857D02*
X187395238Y-77538857D01*
X187395238Y-77538857D02*
X187633333Y-77538857D01*
X187633333Y-77538857D02*
X187769047Y-77596000D01*
X187769047Y-77596000D02*
X187850000Y-77710285D01*
X187850000Y-77710285D02*
X187883333Y-77824571D01*
X187883333Y-77824571D02*
X187902380Y-78053142D01*
X187902380Y-78053142D02*
X187880952Y-78224571D01*
X187880952Y-78224571D02*
X187804761Y-78453142D01*
X187804761Y-78453142D02*
X187742857Y-78567428D01*
X187742857Y-78567428D02*
X187633333Y-78681714D01*
X187633333Y-78681714D02*
X187483333Y-78738857D01*
X187483333Y-78738857D02*
X187245238Y-78738857D01*
X188585714Y-77538857D02*
X188776190Y-77538857D01*
X188776190Y-77538857D02*
X188864285Y-77596000D01*
X188864285Y-77596000D02*
X188945238Y-77710285D01*
X188945238Y-77710285D02*
X188964285Y-77938857D01*
X188964285Y-77938857D02*
X188914285Y-78338857D01*
X188914285Y-78338857D02*
X188838095Y-78567428D01*
X188838095Y-78567428D02*
X188728571Y-78681714D01*
X188728571Y-78681714D02*
X188626190Y-78738857D01*
X188626190Y-78738857D02*
X188435714Y-78738857D01*
X188435714Y-78738857D02*
X188347619Y-78681714D01*
X188347619Y-78681714D02*
X188266666Y-78567428D01*
X188266666Y-78567428D02*
X188247619Y-78338857D01*
X188247619Y-78338857D02*
X188297619Y-77938857D01*
X188297619Y-77938857D02*
X188373809Y-77710285D01*
X188373809Y-77710285D02*
X188483333Y-77596000D01*
X188483333Y-77596000D02*
X188585714Y-77538857D01*
X189892857Y-78738857D02*
X190042857Y-77538857D01*
X190042857Y-77538857D02*
X190464285Y-78738857D01*
X190464285Y-78738857D02*
X190614285Y-77538857D01*
X191280952Y-77538857D02*
X191471428Y-77538857D01*
X191471428Y-77538857D02*
X191559523Y-77596000D01*
X191559523Y-77596000D02*
X191640476Y-77710285D01*
X191640476Y-77710285D02*
X191659523Y-77938857D01*
X191659523Y-77938857D02*
X191609523Y-78338857D01*
X191609523Y-78338857D02*
X191533333Y-78567428D01*
X191533333Y-78567428D02*
X191423809Y-78681714D01*
X191423809Y-78681714D02*
X191321428Y-78738857D01*
X191321428Y-78738857D02*
X191130952Y-78738857D01*
X191130952Y-78738857D02*
X191042857Y-78681714D01*
X191042857Y-78681714D02*
X190961904Y-78567428D01*
X190961904Y-78567428D02*
X190942857Y-78338857D01*
X190942857Y-78338857D02*
X190992857Y-77938857D01*
X190992857Y-77938857D02*
X191069047Y-77710285D01*
X191069047Y-77710285D02*
X191178571Y-77596000D01*
X191178571Y-77596000D02*
X191280952Y-77538857D01*
X191995237Y-77538857D02*
X192566666Y-77538857D01*
X192130952Y-78738857D02*
X192280952Y-77538857D01*
X193357142Y-77538857D02*
X193928571Y-77538857D01*
X193492857Y-78738857D02*
X193642857Y-77538857D01*
X194452381Y-77538857D02*
X194642857Y-77538857D01*
X194642857Y-77538857D02*
X194730952Y-77596000D01*
X194730952Y-77596000D02*
X194811905Y-77710285D01*
X194811905Y-77710285D02*
X194830952Y-77938857D01*
X194830952Y-77938857D02*
X194780952Y-78338857D01*
X194780952Y-78338857D02*
X194704762Y-78567428D01*
X194704762Y-78567428D02*
X194595238Y-78681714D01*
X194595238Y-78681714D02*
X194492857Y-78738857D01*
X194492857Y-78738857D02*
X194302381Y-78738857D01*
X194302381Y-78738857D02*
X194214286Y-78681714D01*
X194214286Y-78681714D02*
X194133333Y-78567428D01*
X194133333Y-78567428D02*
X194114286Y-78338857D01*
X194114286Y-78338857D02*
X194164286Y-77938857D01*
X194164286Y-77938857D02*
X194240476Y-77710285D01*
X194240476Y-77710285D02*
X194350000Y-77596000D01*
X194350000Y-77596000D02*
X194452381Y-77538857D01*
X195309524Y-77538857D02*
X195188095Y-78510285D01*
X195188095Y-78510285D02*
X195221428Y-78624571D01*
X195221428Y-78624571D02*
X195261905Y-78681714D01*
X195261905Y-78681714D02*
X195350000Y-78738857D01*
X195350000Y-78738857D02*
X195540476Y-78738857D01*
X195540476Y-78738857D02*
X195642857Y-78681714D01*
X195642857Y-78681714D02*
X195697619Y-78624571D01*
X195697619Y-78624571D02*
X195759524Y-78510285D01*
X195759524Y-78510285D02*
X195880952Y-77538857D01*
X196792857Y-78624571D02*
X196738095Y-78681714D01*
X196738095Y-78681714D02*
X196588095Y-78738857D01*
X196588095Y-78738857D02*
X196492857Y-78738857D01*
X196492857Y-78738857D02*
X196357143Y-78681714D01*
X196357143Y-78681714D02*
X196276190Y-78567428D01*
X196276190Y-78567428D02*
X196242857Y-78453142D01*
X196242857Y-78453142D02*
X196223809Y-78224571D01*
X196223809Y-78224571D02*
X196245238Y-78053142D01*
X196245238Y-78053142D02*
X196321428Y-77824571D01*
X196321428Y-77824571D02*
X196383333Y-77710285D01*
X196383333Y-77710285D02*
X196492857Y-77596000D01*
X196492857Y-77596000D02*
X196642857Y-77538857D01*
X196642857Y-77538857D02*
X196738095Y-77538857D01*
X196738095Y-77538857D02*
X196873809Y-77596000D01*
X196873809Y-77596000D02*
X196914285Y-77653142D01*
X197207143Y-78738857D02*
X197357143Y-77538857D01*
X197285714Y-78110285D02*
X197857143Y-78110285D01*
X197778571Y-78738857D02*
X197928571Y-77538857D01*
X198854762Y-78738857D02*
X199004762Y-77538857D01*
X199004762Y-77538857D02*
X199242857Y-77538857D01*
X199242857Y-77538857D02*
X199378571Y-77596000D01*
X199378571Y-77596000D02*
X199459524Y-77710285D01*
X199459524Y-77710285D02*
X199492857Y-77824571D01*
X199492857Y-77824571D02*
X199511904Y-78053142D01*
X199511904Y-78053142D02*
X199490476Y-78224571D01*
X199490476Y-78224571D02*
X199414285Y-78453142D01*
X199414285Y-78453142D02*
X199352381Y-78567428D01*
X199352381Y-78567428D02*
X199242857Y-78681714D01*
X199242857Y-78681714D02*
X199092857Y-78738857D01*
X199092857Y-78738857D02*
X198854762Y-78738857D01*
X200004762Y-77538857D02*
X199883333Y-78510285D01*
X199883333Y-78510285D02*
X199916666Y-78624571D01*
X199916666Y-78624571D02*
X199957143Y-78681714D01*
X199957143Y-78681714D02*
X200045238Y-78738857D01*
X200045238Y-78738857D02*
X200235714Y-78738857D01*
X200235714Y-78738857D02*
X200338095Y-78681714D01*
X200338095Y-78681714D02*
X200392857Y-78624571D01*
X200392857Y-78624571D02*
X200454762Y-78510285D01*
X200454762Y-78510285D02*
X200576190Y-77538857D01*
X201473809Y-78738857D02*
X201211904Y-78167428D01*
X200902381Y-78738857D02*
X201052381Y-77538857D01*
X201052381Y-77538857D02*
X201433333Y-77538857D01*
X201433333Y-77538857D02*
X201521428Y-77596000D01*
X201521428Y-77596000D02*
X201561904Y-77653142D01*
X201561904Y-77653142D02*
X201595238Y-77767428D01*
X201595238Y-77767428D02*
X201573809Y-77938857D01*
X201573809Y-77938857D02*
X201511904Y-78053142D01*
X201511904Y-78053142D02*
X201457143Y-78110285D01*
X201457143Y-78110285D02*
X201354762Y-78167428D01*
X201354762Y-78167428D02*
X200973809Y-78167428D01*
X201902381Y-78738857D02*
X202052381Y-77538857D01*
X202378571Y-78738857D02*
X202528571Y-77538857D01*
X202528571Y-77538857D02*
X202949999Y-78738857D01*
X202949999Y-78738857D02*
X203099999Y-77538857D01*
X204092856Y-77596000D02*
X204004761Y-77538857D01*
X204004761Y-77538857D02*
X203861904Y-77538857D01*
X203861904Y-77538857D02*
X203711904Y-77596000D01*
X203711904Y-77596000D02*
X203602380Y-77710285D01*
X203602380Y-77710285D02*
X203540475Y-77824571D01*
X203540475Y-77824571D02*
X203464285Y-78053142D01*
X203464285Y-78053142D02*
X203442856Y-78224571D01*
X203442856Y-78224571D02*
X203461904Y-78453142D01*
X203461904Y-78453142D02*
X203495237Y-78567428D01*
X203495237Y-78567428D02*
X203576190Y-78681714D01*
X203576190Y-78681714D02*
X203711904Y-78738857D01*
X203711904Y-78738857D02*
X203807142Y-78738857D01*
X203807142Y-78738857D02*
X203957142Y-78681714D01*
X203957142Y-78681714D02*
X204011904Y-78624571D01*
X204011904Y-78624571D02*
X204061904Y-78224571D01*
X204061904Y-78224571D02*
X203871428Y-78224571D01*
X205366666Y-77538857D02*
X205557142Y-77538857D01*
X205557142Y-77538857D02*
X205645237Y-77596000D01*
X205645237Y-77596000D02*
X205726190Y-77710285D01*
X205726190Y-77710285D02*
X205745237Y-77938857D01*
X205745237Y-77938857D02*
X205695237Y-78338857D01*
X205695237Y-78338857D02*
X205619047Y-78567428D01*
X205619047Y-78567428D02*
X205509523Y-78681714D01*
X205509523Y-78681714D02*
X205407142Y-78738857D01*
X205407142Y-78738857D02*
X205216666Y-78738857D01*
X205216666Y-78738857D02*
X205128571Y-78681714D01*
X205128571Y-78681714D02*
X205047618Y-78567428D01*
X205047618Y-78567428D02*
X205028571Y-78338857D01*
X205028571Y-78338857D02*
X205078571Y-77938857D01*
X205078571Y-77938857D02*
X205154761Y-77710285D01*
X205154761Y-77710285D02*
X205264285Y-77596000D01*
X205264285Y-77596000D02*
X205366666Y-77538857D01*
X206073809Y-78738857D02*
X206223809Y-77538857D01*
X206223809Y-77538857D02*
X206604761Y-77538857D01*
X206604761Y-77538857D02*
X206692856Y-77596000D01*
X206692856Y-77596000D02*
X206733332Y-77653142D01*
X206733332Y-77653142D02*
X206766666Y-77767428D01*
X206766666Y-77767428D02*
X206745237Y-77938857D01*
X206745237Y-77938857D02*
X206683332Y-78053142D01*
X206683332Y-78053142D02*
X206628571Y-78110285D01*
X206628571Y-78110285D02*
X206526190Y-78167428D01*
X206526190Y-78167428D02*
X206145237Y-78167428D01*
X207152380Y-78110285D02*
X207485713Y-78110285D01*
X207549999Y-78738857D02*
X207073809Y-78738857D01*
X207073809Y-78738857D02*
X207223809Y-77538857D01*
X207223809Y-77538857D02*
X207699999Y-77538857D01*
X208549999Y-78738857D02*
X208288094Y-78167428D01*
X207978571Y-78738857D02*
X208128571Y-77538857D01*
X208128571Y-77538857D02*
X208509523Y-77538857D01*
X208509523Y-77538857D02*
X208597618Y-77596000D01*
X208597618Y-77596000D02*
X208638094Y-77653142D01*
X208638094Y-77653142D02*
X208671428Y-77767428D01*
X208671428Y-77767428D02*
X208649999Y-77938857D01*
X208649999Y-77938857D02*
X208588094Y-78053142D01*
X208588094Y-78053142D02*
X208533333Y-78110285D01*
X208533333Y-78110285D02*
X208430952Y-78167428D01*
X208430952Y-78167428D02*
X208049999Y-78167428D01*
X208973809Y-78396000D02*
X209449999Y-78396000D01*
X208835713Y-78738857D02*
X209319047Y-77538857D01*
X209319047Y-77538857D02*
X209502380Y-78738857D01*
X209842856Y-77538857D02*
X210414285Y-77538857D01*
X209978571Y-78738857D02*
X210128571Y-77538857D01*
X210597619Y-78738857D02*
X210747619Y-77538857D01*
X211414285Y-77538857D02*
X211604761Y-77538857D01*
X211604761Y-77538857D02*
X211692856Y-77596000D01*
X211692856Y-77596000D02*
X211773809Y-77710285D01*
X211773809Y-77710285D02*
X211792856Y-77938857D01*
X211792856Y-77938857D02*
X211742856Y-78338857D01*
X211742856Y-78338857D02*
X211666666Y-78567428D01*
X211666666Y-78567428D02*
X211557142Y-78681714D01*
X211557142Y-78681714D02*
X211454761Y-78738857D01*
X211454761Y-78738857D02*
X211264285Y-78738857D01*
X211264285Y-78738857D02*
X211176190Y-78681714D01*
X211176190Y-78681714D02*
X211095237Y-78567428D01*
X211095237Y-78567428D02*
X211076190Y-78338857D01*
X211076190Y-78338857D02*
X211126190Y-77938857D01*
X211126190Y-77938857D02*
X211202380Y-77710285D01*
X211202380Y-77710285D02*
X211311904Y-77596000D01*
X211311904Y-77596000D02*
X211414285Y-77538857D01*
X212121428Y-78738857D02*
X212271428Y-77538857D01*
X212271428Y-77538857D02*
X212692856Y-78738857D01*
X212692856Y-78738857D02*
X212842856Y-77538857D01*
D12*
%TO.C,C4*%
X121270333Y-82167142D02*
X121222714Y-82214761D01*
X121222714Y-82214761D02*
X121079857Y-82262380D01*
X121079857Y-82262380D02*
X120984619Y-82262380D01*
X120984619Y-82262380D02*
X120841762Y-82214761D01*
X120841762Y-82214761D02*
X120746524Y-82119523D01*
X120746524Y-82119523D02*
X120698905Y-82024285D01*
X120698905Y-82024285D02*
X120651286Y-81833809D01*
X120651286Y-81833809D02*
X120651286Y-81690952D01*
X120651286Y-81690952D02*
X120698905Y-81500476D01*
X120698905Y-81500476D02*
X120746524Y-81405238D01*
X120746524Y-81405238D02*
X120841762Y-81310000D01*
X120841762Y-81310000D02*
X120984619Y-81262380D01*
X120984619Y-81262380D02*
X121079857Y-81262380D01*
X121079857Y-81262380D02*
X121222714Y-81310000D01*
X121222714Y-81310000D02*
X121270333Y-81357619D01*
X122127476Y-81595714D02*
X122127476Y-82262380D01*
X121889381Y-81214761D02*
X121651286Y-81929047D01*
X121651286Y-81929047D02*
X122270333Y-81929047D01*
%TO.C,D1*%
X103288180Y-96686094D02*
X102288180Y-96686094D01*
X102288180Y-96686094D02*
X102288180Y-96447999D01*
X102288180Y-96447999D02*
X102335800Y-96305142D01*
X102335800Y-96305142D02*
X102431038Y-96209904D01*
X102431038Y-96209904D02*
X102526276Y-96162285D01*
X102526276Y-96162285D02*
X102716752Y-96114666D01*
X102716752Y-96114666D02*
X102859609Y-96114666D01*
X102859609Y-96114666D02*
X103050085Y-96162285D01*
X103050085Y-96162285D02*
X103145323Y-96209904D01*
X103145323Y-96209904D02*
X103240561Y-96305142D01*
X103240561Y-96305142D02*
X103288180Y-96447999D01*
X103288180Y-96447999D02*
X103288180Y-96686094D01*
X103288180Y-95162285D02*
X103288180Y-95733713D01*
X103288180Y-95447999D02*
X102288180Y-95447999D01*
X102288180Y-95447999D02*
X102431038Y-95543237D01*
X102431038Y-95543237D02*
X102526276Y-95638475D01*
X102526276Y-95638475D02*
X102573895Y-95733713D01*
%TO.C,L1*%
X129397333Y-82470380D02*
X128921143Y-82470380D01*
X128921143Y-82470380D02*
X128921143Y-81470380D01*
X130254476Y-82470380D02*
X129683048Y-82470380D01*
X129968762Y-82470380D02*
X129968762Y-81470380D01*
X129968762Y-81470380D02*
X129873524Y-81613238D01*
X129873524Y-81613238D02*
X129778286Y-81708476D01*
X129778286Y-81708476D02*
X129683048Y-81756095D01*
%TO.C,Q2*%
X112888619Y-100655238D02*
X112841000Y-100750476D01*
X112841000Y-100750476D02*
X112745761Y-100845714D01*
X112745761Y-100845714D02*
X112602904Y-100988571D01*
X112602904Y-100988571D02*
X112555285Y-101083809D01*
X112555285Y-101083809D02*
X112555285Y-101179047D01*
X112793380Y-101131428D02*
X112745761Y-101226666D01*
X112745761Y-101226666D02*
X112650523Y-101321904D01*
X112650523Y-101321904D02*
X112460047Y-101369523D01*
X112460047Y-101369523D02*
X112126714Y-101369523D01*
X112126714Y-101369523D02*
X111936238Y-101321904D01*
X111936238Y-101321904D02*
X111841000Y-101226666D01*
X111841000Y-101226666D02*
X111793380Y-101131428D01*
X111793380Y-101131428D02*
X111793380Y-100940952D01*
X111793380Y-100940952D02*
X111841000Y-100845714D01*
X111841000Y-100845714D02*
X111936238Y-100750476D01*
X111936238Y-100750476D02*
X112126714Y-100702857D01*
X112126714Y-100702857D02*
X112460047Y-100702857D01*
X112460047Y-100702857D02*
X112650523Y-100750476D01*
X112650523Y-100750476D02*
X112745761Y-100845714D01*
X112745761Y-100845714D02*
X112793380Y-100940952D01*
X112793380Y-100940952D02*
X112793380Y-101131428D01*
X111888619Y-100321904D02*
X111841000Y-100274285D01*
X111841000Y-100274285D02*
X111793380Y-100179047D01*
X111793380Y-100179047D02*
X111793380Y-99940952D01*
X111793380Y-99940952D02*
X111841000Y-99845714D01*
X111841000Y-99845714D02*
X111888619Y-99798095D01*
X111888619Y-99798095D02*
X111983857Y-99750476D01*
X111983857Y-99750476D02*
X112079095Y-99750476D01*
X112079095Y-99750476D02*
X112221952Y-99798095D01*
X112221952Y-99798095D02*
X112793380Y-100369523D01*
X112793380Y-100369523D02*
X112793380Y-99750476D01*
%TO.C,R3*%
X106259333Y-81748980D02*
X105926000Y-81272790D01*
X105687905Y-81748980D02*
X105687905Y-80748980D01*
X105687905Y-80748980D02*
X106068857Y-80748980D01*
X106068857Y-80748980D02*
X106164095Y-80796600D01*
X106164095Y-80796600D02*
X106211714Y-80844219D01*
X106211714Y-80844219D02*
X106259333Y-80939457D01*
X106259333Y-80939457D02*
X106259333Y-81082314D01*
X106259333Y-81082314D02*
X106211714Y-81177552D01*
X106211714Y-81177552D02*
X106164095Y-81225171D01*
X106164095Y-81225171D02*
X106068857Y-81272790D01*
X106068857Y-81272790D02*
X105687905Y-81272790D01*
X106592667Y-80748980D02*
X107211714Y-80748980D01*
X107211714Y-80748980D02*
X106878381Y-81129933D01*
X106878381Y-81129933D02*
X107021238Y-81129933D01*
X107021238Y-81129933D02*
X107116476Y-81177552D01*
X107116476Y-81177552D02*
X107164095Y-81225171D01*
X107164095Y-81225171D02*
X107211714Y-81320409D01*
X107211714Y-81320409D02*
X107211714Y-81558504D01*
X107211714Y-81558504D02*
X107164095Y-81653742D01*
X107164095Y-81653742D02*
X107116476Y-81701361D01*
X107116476Y-81701361D02*
X107021238Y-81748980D01*
X107021238Y-81748980D02*
X106735524Y-81748980D01*
X106735524Y-81748980D02*
X106640286Y-81701361D01*
X106640286Y-81701361D02*
X106592667Y-81653742D01*
%TO.C,R4*%
X114387333Y-81901380D02*
X114054000Y-81425190D01*
X113815905Y-81901380D02*
X113815905Y-80901380D01*
X113815905Y-80901380D02*
X114196857Y-80901380D01*
X114196857Y-80901380D02*
X114292095Y-80949000D01*
X114292095Y-80949000D02*
X114339714Y-80996619D01*
X114339714Y-80996619D02*
X114387333Y-81091857D01*
X114387333Y-81091857D02*
X114387333Y-81234714D01*
X114387333Y-81234714D02*
X114339714Y-81329952D01*
X114339714Y-81329952D02*
X114292095Y-81377571D01*
X114292095Y-81377571D02*
X114196857Y-81425190D01*
X114196857Y-81425190D02*
X113815905Y-81425190D01*
X115244476Y-81234714D02*
X115244476Y-81901380D01*
X115006381Y-80853761D02*
X114768286Y-81568047D01*
X114768286Y-81568047D02*
X115387333Y-81568047D01*
%TO.C,R5*%
X97115333Y-78294580D02*
X96782000Y-77818390D01*
X96543905Y-78294580D02*
X96543905Y-77294580D01*
X96543905Y-77294580D02*
X96924857Y-77294580D01*
X96924857Y-77294580D02*
X97020095Y-77342200D01*
X97020095Y-77342200D02*
X97067714Y-77389819D01*
X97067714Y-77389819D02*
X97115333Y-77485057D01*
X97115333Y-77485057D02*
X97115333Y-77627914D01*
X97115333Y-77627914D02*
X97067714Y-77723152D01*
X97067714Y-77723152D02*
X97020095Y-77770771D01*
X97020095Y-77770771D02*
X96924857Y-77818390D01*
X96924857Y-77818390D02*
X96543905Y-77818390D01*
X98020095Y-77294580D02*
X97543905Y-77294580D01*
X97543905Y-77294580D02*
X97496286Y-77770771D01*
X97496286Y-77770771D02*
X97543905Y-77723152D01*
X97543905Y-77723152D02*
X97639143Y-77675533D01*
X97639143Y-77675533D02*
X97877238Y-77675533D01*
X97877238Y-77675533D02*
X97972476Y-77723152D01*
X97972476Y-77723152D02*
X98020095Y-77770771D01*
X98020095Y-77770771D02*
X98067714Y-77866009D01*
X98067714Y-77866009D02*
X98067714Y-78104104D01*
X98067714Y-78104104D02*
X98020095Y-78199342D01*
X98020095Y-78199342D02*
X97972476Y-78246961D01*
X97972476Y-78246961D02*
X97877238Y-78294580D01*
X97877238Y-78294580D02*
X97639143Y-78294580D01*
X97639143Y-78294580D02*
X97543905Y-78246961D01*
X97543905Y-78246961D02*
X97496286Y-78199342D01*
%TO.C,R6*%
X110831333Y-77075380D02*
X110498000Y-76599190D01*
X110259905Y-77075380D02*
X110259905Y-76075380D01*
X110259905Y-76075380D02*
X110640857Y-76075380D01*
X110640857Y-76075380D02*
X110736095Y-76123000D01*
X110736095Y-76123000D02*
X110783714Y-76170619D01*
X110783714Y-76170619D02*
X110831333Y-76265857D01*
X110831333Y-76265857D02*
X110831333Y-76408714D01*
X110831333Y-76408714D02*
X110783714Y-76503952D01*
X110783714Y-76503952D02*
X110736095Y-76551571D01*
X110736095Y-76551571D02*
X110640857Y-76599190D01*
X110640857Y-76599190D02*
X110259905Y-76599190D01*
X111688476Y-76075380D02*
X111498000Y-76075380D01*
X111498000Y-76075380D02*
X111402762Y-76123000D01*
X111402762Y-76123000D02*
X111355143Y-76170619D01*
X111355143Y-76170619D02*
X111259905Y-76313476D01*
X111259905Y-76313476D02*
X111212286Y-76503952D01*
X111212286Y-76503952D02*
X111212286Y-76884904D01*
X111212286Y-76884904D02*
X111259905Y-76980142D01*
X111259905Y-76980142D02*
X111307524Y-77027761D01*
X111307524Y-77027761D02*
X111402762Y-77075380D01*
X111402762Y-77075380D02*
X111593238Y-77075380D01*
X111593238Y-77075380D02*
X111688476Y-77027761D01*
X111688476Y-77027761D02*
X111736095Y-76980142D01*
X111736095Y-76980142D02*
X111783714Y-76884904D01*
X111783714Y-76884904D02*
X111783714Y-76646809D01*
X111783714Y-76646809D02*
X111736095Y-76551571D01*
X111736095Y-76551571D02*
X111688476Y-76503952D01*
X111688476Y-76503952D02*
X111593238Y-76456333D01*
X111593238Y-76456333D02*
X111402762Y-76456333D01*
X111402762Y-76456333D02*
X111307524Y-76503952D01*
X111307524Y-76503952D02*
X111259905Y-76551571D01*
X111259905Y-76551571D02*
X111212286Y-76646809D01*
%TO.C,U2*%
X112766095Y-85625380D02*
X112766095Y-86434904D01*
X112766095Y-86434904D02*
X112813714Y-86530142D01*
X112813714Y-86530142D02*
X112861333Y-86577761D01*
X112861333Y-86577761D02*
X112956571Y-86625380D01*
X112956571Y-86625380D02*
X113147047Y-86625380D01*
X113147047Y-86625380D02*
X113242285Y-86577761D01*
X113242285Y-86577761D02*
X113289904Y-86530142D01*
X113289904Y-86530142D02*
X113337523Y-86434904D01*
X113337523Y-86434904D02*
X113337523Y-85625380D01*
X113766095Y-85720619D02*
X113813714Y-85673000D01*
X113813714Y-85673000D02*
X113908952Y-85625380D01*
X113908952Y-85625380D02*
X114147047Y-85625380D01*
X114147047Y-85625380D02*
X114242285Y-85673000D01*
X114242285Y-85673000D02*
X114289904Y-85720619D01*
X114289904Y-85720619D02*
X114337523Y-85815857D01*
X114337523Y-85815857D02*
X114337523Y-85911095D01*
X114337523Y-85911095D02*
X114289904Y-86053952D01*
X114289904Y-86053952D02*
X113718476Y-86625380D01*
X113718476Y-86625380D02*
X114337523Y-86625380D01*
%TO.C,U3*%
X101246380Y-113801904D02*
X102055904Y-113801904D01*
X102055904Y-113801904D02*
X102151142Y-113754285D01*
X102151142Y-113754285D02*
X102198761Y-113706666D01*
X102198761Y-113706666D02*
X102246380Y-113611428D01*
X102246380Y-113611428D02*
X102246380Y-113420952D01*
X102246380Y-113420952D02*
X102198761Y-113325714D01*
X102198761Y-113325714D02*
X102151142Y-113278095D01*
X102151142Y-113278095D02*
X102055904Y-113230476D01*
X102055904Y-113230476D02*
X101246380Y-113230476D01*
X101246380Y-112849523D02*
X101246380Y-112230476D01*
X101246380Y-112230476D02*
X101627333Y-112563809D01*
X101627333Y-112563809D02*
X101627333Y-112420952D01*
X101627333Y-112420952D02*
X101674952Y-112325714D01*
X101674952Y-112325714D02*
X101722571Y-112278095D01*
X101722571Y-112278095D02*
X101817809Y-112230476D01*
X101817809Y-112230476D02*
X102055904Y-112230476D01*
X102055904Y-112230476D02*
X102151142Y-112278095D01*
X102151142Y-112278095D02*
X102198761Y-112325714D01*
X102198761Y-112325714D02*
X102246380Y-112420952D01*
X102246380Y-112420952D02*
X102246380Y-112706666D01*
X102246380Y-112706666D02*
X102198761Y-112801904D01*
X102198761Y-112801904D02*
X102151142Y-112849523D01*
%TO.C,R9*%
X218391333Y-91791380D02*
X218058000Y-91315190D01*
X217819905Y-91791380D02*
X217819905Y-90791380D01*
X217819905Y-90791380D02*
X218200857Y-90791380D01*
X218200857Y-90791380D02*
X218296095Y-90839000D01*
X218296095Y-90839000D02*
X218343714Y-90886619D01*
X218343714Y-90886619D02*
X218391333Y-90981857D01*
X218391333Y-90981857D02*
X218391333Y-91124714D01*
X218391333Y-91124714D02*
X218343714Y-91219952D01*
X218343714Y-91219952D02*
X218296095Y-91267571D01*
X218296095Y-91267571D02*
X218200857Y-91315190D01*
X218200857Y-91315190D02*
X217819905Y-91315190D01*
X218867524Y-91791380D02*
X219058000Y-91791380D01*
X219058000Y-91791380D02*
X219153238Y-91743761D01*
X219153238Y-91743761D02*
X219200857Y-91696142D01*
X219200857Y-91696142D02*
X219296095Y-91553285D01*
X219296095Y-91553285D02*
X219343714Y-91362809D01*
X219343714Y-91362809D02*
X219343714Y-90981857D01*
X219343714Y-90981857D02*
X219296095Y-90886619D01*
X219296095Y-90886619D02*
X219248476Y-90839000D01*
X219248476Y-90839000D02*
X219153238Y-90791380D01*
X219153238Y-90791380D02*
X218962762Y-90791380D01*
X218962762Y-90791380D02*
X218867524Y-90839000D01*
X218867524Y-90839000D02*
X218819905Y-90886619D01*
X218819905Y-90886619D02*
X218772286Y-90981857D01*
X218772286Y-90981857D02*
X218772286Y-91219952D01*
X218772286Y-91219952D02*
X218819905Y-91315190D01*
X218819905Y-91315190D02*
X218867524Y-91362809D01*
X218867524Y-91362809D02*
X218962762Y-91410428D01*
X218962762Y-91410428D02*
X219153238Y-91410428D01*
X219153238Y-91410428D02*
X219248476Y-91362809D01*
X219248476Y-91362809D02*
X219296095Y-91315190D01*
X219296095Y-91315190D02*
X219343714Y-91219952D01*
%TO.C,Q8*%
X194423761Y-108018619D02*
X194328523Y-107971000D01*
X194328523Y-107971000D02*
X194233285Y-107875761D01*
X194233285Y-107875761D02*
X194090428Y-107732904D01*
X194090428Y-107732904D02*
X193995190Y-107685285D01*
X193995190Y-107685285D02*
X193899952Y-107685285D01*
X193947571Y-107923380D02*
X193852333Y-107875761D01*
X193852333Y-107875761D02*
X193757095Y-107780523D01*
X193757095Y-107780523D02*
X193709476Y-107590047D01*
X193709476Y-107590047D02*
X193709476Y-107256714D01*
X193709476Y-107256714D02*
X193757095Y-107066238D01*
X193757095Y-107066238D02*
X193852333Y-106971000D01*
X193852333Y-106971000D02*
X193947571Y-106923380D01*
X193947571Y-106923380D02*
X194138047Y-106923380D01*
X194138047Y-106923380D02*
X194233285Y-106971000D01*
X194233285Y-106971000D02*
X194328523Y-107066238D01*
X194328523Y-107066238D02*
X194376142Y-107256714D01*
X194376142Y-107256714D02*
X194376142Y-107590047D01*
X194376142Y-107590047D02*
X194328523Y-107780523D01*
X194328523Y-107780523D02*
X194233285Y-107875761D01*
X194233285Y-107875761D02*
X194138047Y-107923380D01*
X194138047Y-107923380D02*
X193947571Y-107923380D01*
X194947571Y-107351952D02*
X194852333Y-107304333D01*
X194852333Y-107304333D02*
X194804714Y-107256714D01*
X194804714Y-107256714D02*
X194757095Y-107161476D01*
X194757095Y-107161476D02*
X194757095Y-107113857D01*
X194757095Y-107113857D02*
X194804714Y-107018619D01*
X194804714Y-107018619D02*
X194852333Y-106971000D01*
X194852333Y-106971000D02*
X194947571Y-106923380D01*
X194947571Y-106923380D02*
X195138047Y-106923380D01*
X195138047Y-106923380D02*
X195233285Y-106971000D01*
X195233285Y-106971000D02*
X195280904Y-107018619D01*
X195280904Y-107018619D02*
X195328523Y-107113857D01*
X195328523Y-107113857D02*
X195328523Y-107161476D01*
X195328523Y-107161476D02*
X195280904Y-107256714D01*
X195280904Y-107256714D02*
X195233285Y-107304333D01*
X195233285Y-107304333D02*
X195138047Y-107351952D01*
X195138047Y-107351952D02*
X194947571Y-107351952D01*
X194947571Y-107351952D02*
X194852333Y-107399571D01*
X194852333Y-107399571D02*
X194804714Y-107447190D01*
X194804714Y-107447190D02*
X194757095Y-107542428D01*
X194757095Y-107542428D02*
X194757095Y-107732904D01*
X194757095Y-107732904D02*
X194804714Y-107828142D01*
X194804714Y-107828142D02*
X194852333Y-107875761D01*
X194852333Y-107875761D02*
X194947571Y-107923380D01*
X194947571Y-107923380D02*
X195138047Y-107923380D01*
X195138047Y-107923380D02*
X195233285Y-107875761D01*
X195233285Y-107875761D02*
X195280904Y-107828142D01*
X195280904Y-107828142D02*
X195328523Y-107732904D01*
X195328523Y-107732904D02*
X195328523Y-107542428D01*
X195328523Y-107542428D02*
X195280904Y-107447190D01*
X195280904Y-107447190D02*
X195233285Y-107399571D01*
X195233285Y-107399571D02*
X195138047Y-107351952D01*
%TO.C,Q9*%
X185564761Y-108018619D02*
X185469523Y-107971000D01*
X185469523Y-107971000D02*
X185374285Y-107875761D01*
X185374285Y-107875761D02*
X185231428Y-107732904D01*
X185231428Y-107732904D02*
X185136190Y-107685285D01*
X185136190Y-107685285D02*
X185040952Y-107685285D01*
X185088571Y-107923380D02*
X184993333Y-107875761D01*
X184993333Y-107875761D02*
X184898095Y-107780523D01*
X184898095Y-107780523D02*
X184850476Y-107590047D01*
X184850476Y-107590047D02*
X184850476Y-107256714D01*
X184850476Y-107256714D02*
X184898095Y-107066238D01*
X184898095Y-107066238D02*
X184993333Y-106971000D01*
X184993333Y-106971000D02*
X185088571Y-106923380D01*
X185088571Y-106923380D02*
X185279047Y-106923380D01*
X185279047Y-106923380D02*
X185374285Y-106971000D01*
X185374285Y-106971000D02*
X185469523Y-107066238D01*
X185469523Y-107066238D02*
X185517142Y-107256714D01*
X185517142Y-107256714D02*
X185517142Y-107590047D01*
X185517142Y-107590047D02*
X185469523Y-107780523D01*
X185469523Y-107780523D02*
X185374285Y-107875761D01*
X185374285Y-107875761D02*
X185279047Y-107923380D01*
X185279047Y-107923380D02*
X185088571Y-107923380D01*
X185993333Y-107923380D02*
X186183809Y-107923380D01*
X186183809Y-107923380D02*
X186279047Y-107875761D01*
X186279047Y-107875761D02*
X186326666Y-107828142D01*
X186326666Y-107828142D02*
X186421904Y-107685285D01*
X186421904Y-107685285D02*
X186469523Y-107494809D01*
X186469523Y-107494809D02*
X186469523Y-107113857D01*
X186469523Y-107113857D02*
X186421904Y-107018619D01*
X186421904Y-107018619D02*
X186374285Y-106971000D01*
X186374285Y-106971000D02*
X186279047Y-106923380D01*
X186279047Y-106923380D02*
X186088571Y-106923380D01*
X186088571Y-106923380D02*
X185993333Y-106971000D01*
X185993333Y-106971000D02*
X185945714Y-107018619D01*
X185945714Y-107018619D02*
X185898095Y-107113857D01*
X185898095Y-107113857D02*
X185898095Y-107351952D01*
X185898095Y-107351952D02*
X185945714Y-107447190D01*
X185945714Y-107447190D02*
X185993333Y-107494809D01*
X185993333Y-107494809D02*
X186088571Y-107542428D01*
X186088571Y-107542428D02*
X186279047Y-107542428D01*
X186279047Y-107542428D02*
X186374285Y-107494809D01*
X186374285Y-107494809D02*
X186421904Y-107447190D01*
X186421904Y-107447190D02*
X186469523Y-107351952D01*
%TO.C,R17*%
X142607380Y-98178857D02*
X142131190Y-98512190D01*
X142607380Y-98750285D02*
X141607380Y-98750285D01*
X141607380Y-98750285D02*
X141607380Y-98369333D01*
X141607380Y-98369333D02*
X141655000Y-98274095D01*
X141655000Y-98274095D02*
X141702619Y-98226476D01*
X141702619Y-98226476D02*
X141797857Y-98178857D01*
X141797857Y-98178857D02*
X141940714Y-98178857D01*
X141940714Y-98178857D02*
X142035952Y-98226476D01*
X142035952Y-98226476D02*
X142083571Y-98274095D01*
X142083571Y-98274095D02*
X142131190Y-98369333D01*
X142131190Y-98369333D02*
X142131190Y-98750285D01*
X142607380Y-97226476D02*
X142607380Y-97797904D01*
X142607380Y-97512190D02*
X141607380Y-97512190D01*
X141607380Y-97512190D02*
X141750238Y-97607428D01*
X141750238Y-97607428D02*
X141845476Y-97702666D01*
X141845476Y-97702666D02*
X141893095Y-97797904D01*
X141607380Y-96893142D02*
X141607380Y-96226476D01*
X141607380Y-96226476D02*
X142607380Y-96655047D01*
%TO.C,R24*%
X193921142Y-100443380D02*
X193587809Y-99967190D01*
X193349714Y-100443380D02*
X193349714Y-99443380D01*
X193349714Y-99443380D02*
X193730666Y-99443380D01*
X193730666Y-99443380D02*
X193825904Y-99491000D01*
X193825904Y-99491000D02*
X193873523Y-99538619D01*
X193873523Y-99538619D02*
X193921142Y-99633857D01*
X193921142Y-99633857D02*
X193921142Y-99776714D01*
X193921142Y-99776714D02*
X193873523Y-99871952D01*
X193873523Y-99871952D02*
X193825904Y-99919571D01*
X193825904Y-99919571D02*
X193730666Y-99967190D01*
X193730666Y-99967190D02*
X193349714Y-99967190D01*
X194302095Y-99538619D02*
X194349714Y-99491000D01*
X194349714Y-99491000D02*
X194444952Y-99443380D01*
X194444952Y-99443380D02*
X194683047Y-99443380D01*
X194683047Y-99443380D02*
X194778285Y-99491000D01*
X194778285Y-99491000D02*
X194825904Y-99538619D01*
X194825904Y-99538619D02*
X194873523Y-99633857D01*
X194873523Y-99633857D02*
X194873523Y-99729095D01*
X194873523Y-99729095D02*
X194825904Y-99871952D01*
X194825904Y-99871952D02*
X194254476Y-100443380D01*
X194254476Y-100443380D02*
X194873523Y-100443380D01*
X195730666Y-99776714D02*
X195730666Y-100443380D01*
X195492571Y-99395761D02*
X195254476Y-100110047D01*
X195254476Y-100110047D02*
X195873523Y-100110047D01*
%TO.C,Q14*%
X134302571Y-92152619D02*
X134207333Y-92105000D01*
X134207333Y-92105000D02*
X134112095Y-92009761D01*
X134112095Y-92009761D02*
X133969238Y-91866904D01*
X133969238Y-91866904D02*
X133874000Y-91819285D01*
X133874000Y-91819285D02*
X133778762Y-91819285D01*
X133826381Y-92057380D02*
X133731143Y-92009761D01*
X133731143Y-92009761D02*
X133635905Y-91914523D01*
X133635905Y-91914523D02*
X133588286Y-91724047D01*
X133588286Y-91724047D02*
X133588286Y-91390714D01*
X133588286Y-91390714D02*
X133635905Y-91200238D01*
X133635905Y-91200238D02*
X133731143Y-91105000D01*
X133731143Y-91105000D02*
X133826381Y-91057380D01*
X133826381Y-91057380D02*
X134016857Y-91057380D01*
X134016857Y-91057380D02*
X134112095Y-91105000D01*
X134112095Y-91105000D02*
X134207333Y-91200238D01*
X134207333Y-91200238D02*
X134254952Y-91390714D01*
X134254952Y-91390714D02*
X134254952Y-91724047D01*
X134254952Y-91724047D02*
X134207333Y-91914523D01*
X134207333Y-91914523D02*
X134112095Y-92009761D01*
X134112095Y-92009761D02*
X134016857Y-92057380D01*
X134016857Y-92057380D02*
X133826381Y-92057380D01*
X135207333Y-92057380D02*
X134635905Y-92057380D01*
X134921619Y-92057380D02*
X134921619Y-91057380D01*
X134921619Y-91057380D02*
X134826381Y-91200238D01*
X134826381Y-91200238D02*
X134731143Y-91295476D01*
X134731143Y-91295476D02*
X134635905Y-91343095D01*
X136064476Y-91390714D02*
X136064476Y-92057380D01*
X135826381Y-91009761D02*
X135588286Y-91724047D01*
X135588286Y-91724047D02*
X136207333Y-91724047D01*
%TO.C,R11*%
X202647142Y-116965380D02*
X202313809Y-116489190D01*
X202075714Y-116965380D02*
X202075714Y-115965380D01*
X202075714Y-115965380D02*
X202456666Y-115965380D01*
X202456666Y-115965380D02*
X202551904Y-116013000D01*
X202551904Y-116013000D02*
X202599523Y-116060619D01*
X202599523Y-116060619D02*
X202647142Y-116155857D01*
X202647142Y-116155857D02*
X202647142Y-116298714D01*
X202647142Y-116298714D02*
X202599523Y-116393952D01*
X202599523Y-116393952D02*
X202551904Y-116441571D01*
X202551904Y-116441571D02*
X202456666Y-116489190D01*
X202456666Y-116489190D02*
X202075714Y-116489190D01*
X203599523Y-116965380D02*
X203028095Y-116965380D01*
X203313809Y-116965380D02*
X203313809Y-115965380D01*
X203313809Y-115965380D02*
X203218571Y-116108238D01*
X203218571Y-116108238D02*
X203123333Y-116203476D01*
X203123333Y-116203476D02*
X203028095Y-116251095D01*
X204551904Y-116965380D02*
X203980476Y-116965380D01*
X204266190Y-116965380D02*
X204266190Y-115965380D01*
X204266190Y-115965380D02*
X204170952Y-116108238D01*
X204170952Y-116108238D02*
X204075714Y-116203476D01*
X204075714Y-116203476D02*
X203980476Y-116251095D01*
%TO.C,J6*%
X83080266Y-91271380D02*
X83080266Y-91985666D01*
X83080266Y-91985666D02*
X83032647Y-92128523D01*
X83032647Y-92128523D02*
X82937409Y-92223761D01*
X82937409Y-92223761D02*
X82794552Y-92271380D01*
X82794552Y-92271380D02*
X82699314Y-92271380D01*
X83985028Y-91271380D02*
X83794552Y-91271380D01*
X83794552Y-91271380D02*
X83699314Y-91319000D01*
X83699314Y-91319000D02*
X83651695Y-91366619D01*
X83651695Y-91366619D02*
X83556457Y-91509476D01*
X83556457Y-91509476D02*
X83508838Y-91699952D01*
X83508838Y-91699952D02*
X83508838Y-92080904D01*
X83508838Y-92080904D02*
X83556457Y-92176142D01*
X83556457Y-92176142D02*
X83604076Y-92223761D01*
X83604076Y-92223761D02*
X83699314Y-92271380D01*
X83699314Y-92271380D02*
X83889790Y-92271380D01*
X83889790Y-92271380D02*
X83985028Y-92223761D01*
X83985028Y-92223761D02*
X84032647Y-92176142D01*
X84032647Y-92176142D02*
X84080266Y-92080904D01*
X84080266Y-92080904D02*
X84080266Y-91842809D01*
X84080266Y-91842809D02*
X84032647Y-91747571D01*
X84032647Y-91747571D02*
X83985028Y-91699952D01*
X83985028Y-91699952D02*
X83889790Y-91652333D01*
X83889790Y-91652333D02*
X83699314Y-91652333D01*
X83699314Y-91652333D02*
X83604076Y-91699952D01*
X83604076Y-91699952D02*
X83556457Y-91747571D01*
X83556457Y-91747571D02*
X83508838Y-91842809D01*
%TO.C,Q16*%
X194150571Y-92202619D02*
X194055333Y-92155000D01*
X194055333Y-92155000D02*
X193960095Y-92059761D01*
X193960095Y-92059761D02*
X193817238Y-91916904D01*
X193817238Y-91916904D02*
X193722000Y-91869285D01*
X193722000Y-91869285D02*
X193626762Y-91869285D01*
X193674381Y-92107380D02*
X193579143Y-92059761D01*
X193579143Y-92059761D02*
X193483905Y-91964523D01*
X193483905Y-91964523D02*
X193436286Y-91774047D01*
X193436286Y-91774047D02*
X193436286Y-91440714D01*
X193436286Y-91440714D02*
X193483905Y-91250238D01*
X193483905Y-91250238D02*
X193579143Y-91155000D01*
X193579143Y-91155000D02*
X193674381Y-91107380D01*
X193674381Y-91107380D02*
X193864857Y-91107380D01*
X193864857Y-91107380D02*
X193960095Y-91155000D01*
X193960095Y-91155000D02*
X194055333Y-91250238D01*
X194055333Y-91250238D02*
X194102952Y-91440714D01*
X194102952Y-91440714D02*
X194102952Y-91774047D01*
X194102952Y-91774047D02*
X194055333Y-91964523D01*
X194055333Y-91964523D02*
X193960095Y-92059761D01*
X193960095Y-92059761D02*
X193864857Y-92107380D01*
X193864857Y-92107380D02*
X193674381Y-92107380D01*
X195055333Y-92107380D02*
X194483905Y-92107380D01*
X194769619Y-92107380D02*
X194769619Y-91107380D01*
X194769619Y-91107380D02*
X194674381Y-91250238D01*
X194674381Y-91250238D02*
X194579143Y-91345476D01*
X194579143Y-91345476D02*
X194483905Y-91393095D01*
X195912476Y-91107380D02*
X195722000Y-91107380D01*
X195722000Y-91107380D02*
X195626762Y-91155000D01*
X195626762Y-91155000D02*
X195579143Y-91202619D01*
X195579143Y-91202619D02*
X195483905Y-91345476D01*
X195483905Y-91345476D02*
X195436286Y-91535952D01*
X195436286Y-91535952D02*
X195436286Y-91916904D01*
X195436286Y-91916904D02*
X195483905Y-92012142D01*
X195483905Y-92012142D02*
X195531524Y-92059761D01*
X195531524Y-92059761D02*
X195626762Y-92107380D01*
X195626762Y-92107380D02*
X195817238Y-92107380D01*
X195817238Y-92107380D02*
X195912476Y-92059761D01*
X195912476Y-92059761D02*
X195960095Y-92012142D01*
X195960095Y-92012142D02*
X196007714Y-91916904D01*
X196007714Y-91916904D02*
X196007714Y-91678809D01*
X196007714Y-91678809D02*
X195960095Y-91583571D01*
X195960095Y-91583571D02*
X195912476Y-91535952D01*
X195912476Y-91535952D02*
X195817238Y-91488333D01*
X195817238Y-91488333D02*
X195626762Y-91488333D01*
X195626762Y-91488333D02*
X195531524Y-91535952D01*
X195531524Y-91535952D02*
X195483905Y-91583571D01*
X195483905Y-91583571D02*
X195436286Y-91678809D01*
%TO.C,Q5*%
X218174761Y-82961819D02*
X218079523Y-82914200D01*
X218079523Y-82914200D02*
X217984285Y-82818961D01*
X217984285Y-82818961D02*
X217841428Y-82676104D01*
X217841428Y-82676104D02*
X217746190Y-82628485D01*
X217746190Y-82628485D02*
X217650952Y-82628485D01*
X217698571Y-82866580D02*
X217603333Y-82818961D01*
X217603333Y-82818961D02*
X217508095Y-82723723D01*
X217508095Y-82723723D02*
X217460476Y-82533247D01*
X217460476Y-82533247D02*
X217460476Y-82199914D01*
X217460476Y-82199914D02*
X217508095Y-82009438D01*
X217508095Y-82009438D02*
X217603333Y-81914200D01*
X217603333Y-81914200D02*
X217698571Y-81866580D01*
X217698571Y-81866580D02*
X217889047Y-81866580D01*
X217889047Y-81866580D02*
X217984285Y-81914200D01*
X217984285Y-81914200D02*
X218079523Y-82009438D01*
X218079523Y-82009438D02*
X218127142Y-82199914D01*
X218127142Y-82199914D02*
X218127142Y-82533247D01*
X218127142Y-82533247D02*
X218079523Y-82723723D01*
X218079523Y-82723723D02*
X217984285Y-82818961D01*
X217984285Y-82818961D02*
X217889047Y-82866580D01*
X217889047Y-82866580D02*
X217698571Y-82866580D01*
X219031904Y-81866580D02*
X218555714Y-81866580D01*
X218555714Y-81866580D02*
X218508095Y-82342771D01*
X218508095Y-82342771D02*
X218555714Y-82295152D01*
X218555714Y-82295152D02*
X218650952Y-82247533D01*
X218650952Y-82247533D02*
X218889047Y-82247533D01*
X218889047Y-82247533D02*
X218984285Y-82295152D01*
X218984285Y-82295152D02*
X219031904Y-82342771D01*
X219031904Y-82342771D02*
X219079523Y-82438009D01*
X219079523Y-82438009D02*
X219079523Y-82676104D01*
X219079523Y-82676104D02*
X219031904Y-82771342D01*
X219031904Y-82771342D02*
X218984285Y-82818961D01*
X218984285Y-82818961D02*
X218889047Y-82866580D01*
X218889047Y-82866580D02*
X218650952Y-82866580D01*
X218650952Y-82866580D02*
X218555714Y-82818961D01*
X218555714Y-82818961D02*
X218508095Y-82771342D01*
%TO.C,C2*%
X125716984Y-78372142D02*
X125669365Y-78419761D01*
X125669365Y-78419761D02*
X125526508Y-78467380D01*
X125526508Y-78467380D02*
X125431270Y-78467380D01*
X125431270Y-78467380D02*
X125288413Y-78419761D01*
X125288413Y-78419761D02*
X125193175Y-78324523D01*
X125193175Y-78324523D02*
X125145556Y-78229285D01*
X125145556Y-78229285D02*
X125097937Y-78038809D01*
X125097937Y-78038809D02*
X125097937Y-77895952D01*
X125097937Y-77895952D02*
X125145556Y-77705476D01*
X125145556Y-77705476D02*
X125193175Y-77610238D01*
X125193175Y-77610238D02*
X125288413Y-77515000D01*
X125288413Y-77515000D02*
X125431270Y-77467380D01*
X125431270Y-77467380D02*
X125526508Y-77467380D01*
X125526508Y-77467380D02*
X125669365Y-77515000D01*
X125669365Y-77515000D02*
X125716984Y-77562619D01*
X126097937Y-77562619D02*
X126145556Y-77515000D01*
X126145556Y-77515000D02*
X126240794Y-77467380D01*
X126240794Y-77467380D02*
X126478889Y-77467380D01*
X126478889Y-77467380D02*
X126574127Y-77515000D01*
X126574127Y-77515000D02*
X126621746Y-77562619D01*
X126621746Y-77562619D02*
X126669365Y-77657857D01*
X126669365Y-77657857D02*
X126669365Y-77753095D01*
X126669365Y-77753095D02*
X126621746Y-77895952D01*
X126621746Y-77895952D02*
X126050318Y-78467380D01*
X126050318Y-78467380D02*
X126669365Y-78467380D01*
%TO.C,C1*%
X103940142Y-86780666D02*
X103987761Y-86828285D01*
X103987761Y-86828285D02*
X104035380Y-86971142D01*
X104035380Y-86971142D02*
X104035380Y-87066380D01*
X104035380Y-87066380D02*
X103987761Y-87209237D01*
X103987761Y-87209237D02*
X103892523Y-87304475D01*
X103892523Y-87304475D02*
X103797285Y-87352094D01*
X103797285Y-87352094D02*
X103606809Y-87399713D01*
X103606809Y-87399713D02*
X103463952Y-87399713D01*
X103463952Y-87399713D02*
X103273476Y-87352094D01*
X103273476Y-87352094D02*
X103178238Y-87304475D01*
X103178238Y-87304475D02*
X103083000Y-87209237D01*
X103083000Y-87209237D02*
X103035380Y-87066380D01*
X103035380Y-87066380D02*
X103035380Y-86971142D01*
X103035380Y-86971142D02*
X103083000Y-86828285D01*
X103083000Y-86828285D02*
X103130619Y-86780666D01*
X104035380Y-85828285D02*
X104035380Y-86399713D01*
X104035380Y-86113999D02*
X103035380Y-86113999D01*
X103035380Y-86113999D02*
X103178238Y-86209237D01*
X103178238Y-86209237D02*
X103273476Y-86304475D01*
X103273476Y-86304475D02*
X103321095Y-86399713D01*
%TO.C,R1*%
X146417380Y-97702666D02*
X145941190Y-98035999D01*
X146417380Y-98274094D02*
X145417380Y-98274094D01*
X145417380Y-98274094D02*
X145417380Y-97893142D01*
X145417380Y-97893142D02*
X145465000Y-97797904D01*
X145465000Y-97797904D02*
X145512619Y-97750285D01*
X145512619Y-97750285D02*
X145607857Y-97702666D01*
X145607857Y-97702666D02*
X145750714Y-97702666D01*
X145750714Y-97702666D02*
X145845952Y-97750285D01*
X145845952Y-97750285D02*
X145893571Y-97797904D01*
X145893571Y-97797904D02*
X145941190Y-97893142D01*
X145941190Y-97893142D02*
X145941190Y-98274094D01*
X146417380Y-96750285D02*
X146417380Y-97321713D01*
X146417380Y-97035999D02*
X145417380Y-97035999D01*
X145417380Y-97035999D02*
X145560238Y-97131237D01*
X145560238Y-97131237D02*
X145655476Y-97226475D01*
X145655476Y-97226475D02*
X145703095Y-97321713D01*
%TO.C,J4*%
X178066666Y-96067380D02*
X178066666Y-96781666D01*
X178066666Y-96781666D02*
X178019047Y-96924523D01*
X178019047Y-96924523D02*
X177923809Y-97019761D01*
X177923809Y-97019761D02*
X177780952Y-97067380D01*
X177780952Y-97067380D02*
X177685714Y-97067380D01*
X178971428Y-96400714D02*
X178971428Y-97067380D01*
X178733333Y-96019761D02*
X178495238Y-96734047D01*
X178495238Y-96734047D02*
X179114285Y-96734047D01*
%TO.C,R8*%
X218373333Y-103751380D02*
X218040000Y-103275190D01*
X217801905Y-103751380D02*
X217801905Y-102751380D01*
X217801905Y-102751380D02*
X218182857Y-102751380D01*
X218182857Y-102751380D02*
X218278095Y-102799000D01*
X218278095Y-102799000D02*
X218325714Y-102846619D01*
X218325714Y-102846619D02*
X218373333Y-102941857D01*
X218373333Y-102941857D02*
X218373333Y-103084714D01*
X218373333Y-103084714D02*
X218325714Y-103179952D01*
X218325714Y-103179952D02*
X218278095Y-103227571D01*
X218278095Y-103227571D02*
X218182857Y-103275190D01*
X218182857Y-103275190D02*
X217801905Y-103275190D01*
X218944762Y-103179952D02*
X218849524Y-103132333D01*
X218849524Y-103132333D02*
X218801905Y-103084714D01*
X218801905Y-103084714D02*
X218754286Y-102989476D01*
X218754286Y-102989476D02*
X218754286Y-102941857D01*
X218754286Y-102941857D02*
X218801905Y-102846619D01*
X218801905Y-102846619D02*
X218849524Y-102799000D01*
X218849524Y-102799000D02*
X218944762Y-102751380D01*
X218944762Y-102751380D02*
X219135238Y-102751380D01*
X219135238Y-102751380D02*
X219230476Y-102799000D01*
X219230476Y-102799000D02*
X219278095Y-102846619D01*
X219278095Y-102846619D02*
X219325714Y-102941857D01*
X219325714Y-102941857D02*
X219325714Y-102989476D01*
X219325714Y-102989476D02*
X219278095Y-103084714D01*
X219278095Y-103084714D02*
X219230476Y-103132333D01*
X219230476Y-103132333D02*
X219135238Y-103179952D01*
X219135238Y-103179952D02*
X218944762Y-103179952D01*
X218944762Y-103179952D02*
X218849524Y-103227571D01*
X218849524Y-103227571D02*
X218801905Y-103275190D01*
X218801905Y-103275190D02*
X218754286Y-103370428D01*
X218754286Y-103370428D02*
X218754286Y-103560904D01*
X218754286Y-103560904D02*
X218801905Y-103656142D01*
X218801905Y-103656142D02*
X218849524Y-103703761D01*
X218849524Y-103703761D02*
X218944762Y-103751380D01*
X218944762Y-103751380D02*
X219135238Y-103751380D01*
X219135238Y-103751380D02*
X219230476Y-103703761D01*
X219230476Y-103703761D02*
X219278095Y-103656142D01*
X219278095Y-103656142D02*
X219325714Y-103560904D01*
X219325714Y-103560904D02*
X219325714Y-103370428D01*
X219325714Y-103370428D02*
X219278095Y-103275190D01*
X219278095Y-103275190D02*
X219230476Y-103227571D01*
X219230476Y-103227571D02*
X219135238Y-103179952D01*
%TO.C,R12*%
X193622142Y-116817380D02*
X193288809Y-116341190D01*
X193050714Y-116817380D02*
X193050714Y-115817380D01*
X193050714Y-115817380D02*
X193431666Y-115817380D01*
X193431666Y-115817380D02*
X193526904Y-115865000D01*
X193526904Y-115865000D02*
X193574523Y-115912619D01*
X193574523Y-115912619D02*
X193622142Y-116007857D01*
X193622142Y-116007857D02*
X193622142Y-116150714D01*
X193622142Y-116150714D02*
X193574523Y-116245952D01*
X193574523Y-116245952D02*
X193526904Y-116293571D01*
X193526904Y-116293571D02*
X193431666Y-116341190D01*
X193431666Y-116341190D02*
X193050714Y-116341190D01*
X194574523Y-116817380D02*
X194003095Y-116817380D01*
X194288809Y-116817380D02*
X194288809Y-115817380D01*
X194288809Y-115817380D02*
X194193571Y-115960238D01*
X194193571Y-115960238D02*
X194098333Y-116055476D01*
X194098333Y-116055476D02*
X194003095Y-116103095D01*
X194955476Y-115912619D02*
X195003095Y-115865000D01*
X195003095Y-115865000D02*
X195098333Y-115817380D01*
X195098333Y-115817380D02*
X195336428Y-115817380D01*
X195336428Y-115817380D02*
X195431666Y-115865000D01*
X195431666Y-115865000D02*
X195479285Y-115912619D01*
X195479285Y-115912619D02*
X195526904Y-116007857D01*
X195526904Y-116007857D02*
X195526904Y-116103095D01*
X195526904Y-116103095D02*
X195479285Y-116245952D01*
X195479285Y-116245952D02*
X194907857Y-116817380D01*
X194907857Y-116817380D02*
X195526904Y-116817380D01*
%TO.C,U4*%
X126113380Y-113791904D02*
X126922904Y-113791904D01*
X126922904Y-113791904D02*
X127018142Y-113744285D01*
X127018142Y-113744285D02*
X127065761Y-113696666D01*
X127065761Y-113696666D02*
X127113380Y-113601428D01*
X127113380Y-113601428D02*
X127113380Y-113410952D01*
X127113380Y-113410952D02*
X127065761Y-113315714D01*
X127065761Y-113315714D02*
X127018142Y-113268095D01*
X127018142Y-113268095D02*
X126922904Y-113220476D01*
X126922904Y-113220476D02*
X126113380Y-113220476D01*
X126446714Y-112315714D02*
X127113380Y-112315714D01*
X126065761Y-112553809D02*
X126780047Y-112791904D01*
X126780047Y-112791904D02*
X126780047Y-112172857D01*
%TO.C,Q15*%
X166052571Y-92152619D02*
X165957333Y-92105000D01*
X165957333Y-92105000D02*
X165862095Y-92009761D01*
X165862095Y-92009761D02*
X165719238Y-91866904D01*
X165719238Y-91866904D02*
X165624000Y-91819285D01*
X165624000Y-91819285D02*
X165528762Y-91819285D01*
X165576381Y-92057380D02*
X165481143Y-92009761D01*
X165481143Y-92009761D02*
X165385905Y-91914523D01*
X165385905Y-91914523D02*
X165338286Y-91724047D01*
X165338286Y-91724047D02*
X165338286Y-91390714D01*
X165338286Y-91390714D02*
X165385905Y-91200238D01*
X165385905Y-91200238D02*
X165481143Y-91105000D01*
X165481143Y-91105000D02*
X165576381Y-91057380D01*
X165576381Y-91057380D02*
X165766857Y-91057380D01*
X165766857Y-91057380D02*
X165862095Y-91105000D01*
X165862095Y-91105000D02*
X165957333Y-91200238D01*
X165957333Y-91200238D02*
X166004952Y-91390714D01*
X166004952Y-91390714D02*
X166004952Y-91724047D01*
X166004952Y-91724047D02*
X165957333Y-91914523D01*
X165957333Y-91914523D02*
X165862095Y-92009761D01*
X165862095Y-92009761D02*
X165766857Y-92057380D01*
X165766857Y-92057380D02*
X165576381Y-92057380D01*
X166957333Y-92057380D02*
X166385905Y-92057380D01*
X166671619Y-92057380D02*
X166671619Y-91057380D01*
X166671619Y-91057380D02*
X166576381Y-91200238D01*
X166576381Y-91200238D02*
X166481143Y-91295476D01*
X166481143Y-91295476D02*
X166385905Y-91343095D01*
X167862095Y-91057380D02*
X167385905Y-91057380D01*
X167385905Y-91057380D02*
X167338286Y-91533571D01*
X167338286Y-91533571D02*
X167385905Y-91485952D01*
X167385905Y-91485952D02*
X167481143Y-91438333D01*
X167481143Y-91438333D02*
X167719238Y-91438333D01*
X167719238Y-91438333D02*
X167814476Y-91485952D01*
X167814476Y-91485952D02*
X167862095Y-91533571D01*
X167862095Y-91533571D02*
X167909714Y-91628809D01*
X167909714Y-91628809D02*
X167909714Y-91866904D01*
X167909714Y-91866904D02*
X167862095Y-91962142D01*
X167862095Y-91962142D02*
X167814476Y-92009761D01*
X167814476Y-92009761D02*
X167719238Y-92057380D01*
X167719238Y-92057380D02*
X167481143Y-92057380D01*
X167481143Y-92057380D02*
X167385905Y-92009761D01*
X167385905Y-92009761D02*
X167338286Y-91962142D01*
%TO.C,J5*%
X205566666Y-96067380D02*
X205566666Y-96781666D01*
X205566666Y-96781666D02*
X205519047Y-96924523D01*
X205519047Y-96924523D02*
X205423809Y-97019761D01*
X205423809Y-97019761D02*
X205280952Y-97067380D01*
X205280952Y-97067380D02*
X205185714Y-97067380D01*
X206519047Y-96067380D02*
X206042857Y-96067380D01*
X206042857Y-96067380D02*
X205995238Y-96543571D01*
X205995238Y-96543571D02*
X206042857Y-96495952D01*
X206042857Y-96495952D02*
X206138095Y-96448333D01*
X206138095Y-96448333D02*
X206376190Y-96448333D01*
X206376190Y-96448333D02*
X206471428Y-96495952D01*
X206471428Y-96495952D02*
X206519047Y-96543571D01*
X206519047Y-96543571D02*
X206566666Y-96638809D01*
X206566666Y-96638809D02*
X206566666Y-96876904D01*
X206566666Y-96876904D02*
X206519047Y-96972142D01*
X206519047Y-96972142D02*
X206471428Y-97019761D01*
X206471428Y-97019761D02*
X206376190Y-97067380D01*
X206376190Y-97067380D02*
X206138095Y-97067380D01*
X206138095Y-97067380D02*
X206042857Y-97019761D01*
X206042857Y-97019761D02*
X205995238Y-96972142D01*
%TO.C,J3*%
X123066666Y-96067380D02*
X123066666Y-96781666D01*
X123066666Y-96781666D02*
X123019047Y-96924523D01*
X123019047Y-96924523D02*
X122923809Y-97019761D01*
X122923809Y-97019761D02*
X122780952Y-97067380D01*
X122780952Y-97067380D02*
X122685714Y-97067380D01*
X123447619Y-96067380D02*
X124066666Y-96067380D01*
X124066666Y-96067380D02*
X123733333Y-96448333D01*
X123733333Y-96448333D02*
X123876190Y-96448333D01*
X123876190Y-96448333D02*
X123971428Y-96495952D01*
X123971428Y-96495952D02*
X124019047Y-96543571D01*
X124019047Y-96543571D02*
X124066666Y-96638809D01*
X124066666Y-96638809D02*
X124066666Y-96876904D01*
X124066666Y-96876904D02*
X124019047Y-96972142D01*
X124019047Y-96972142D02*
X123971428Y-97019761D01*
X123971428Y-97019761D02*
X123876190Y-97067380D01*
X123876190Y-97067380D02*
X123590476Y-97067380D01*
X123590476Y-97067380D02*
X123495238Y-97019761D01*
X123495238Y-97019761D02*
X123447619Y-96972142D01*
%TO.C,NE1*%
X149685714Y-93797380D02*
X149685714Y-92797380D01*
X149685714Y-92797380D02*
X150257142Y-93797380D01*
X150257142Y-93797380D02*
X150257142Y-92797380D01*
X150733333Y-93273571D02*
X151066666Y-93273571D01*
X151209523Y-93797380D02*
X150733333Y-93797380D01*
X150733333Y-93797380D02*
X150733333Y-92797380D01*
X150733333Y-92797380D02*
X151209523Y-92797380D01*
X152161904Y-93797380D02*
X151590476Y-93797380D01*
X151876190Y-93797380D02*
X151876190Y-92797380D01*
X151876190Y-92797380D02*
X151780952Y-92940238D01*
X151780952Y-92940238D02*
X151685714Y-93035476D01*
X151685714Y-93035476D02*
X151590476Y-93083095D01*
%TO.C,J2*%
X95566666Y-96067380D02*
X95566666Y-96781666D01*
X95566666Y-96781666D02*
X95519047Y-96924523D01*
X95519047Y-96924523D02*
X95423809Y-97019761D01*
X95423809Y-97019761D02*
X95280952Y-97067380D01*
X95280952Y-97067380D02*
X95185714Y-97067380D01*
X95995238Y-96162619D02*
X96042857Y-96115000D01*
X96042857Y-96115000D02*
X96138095Y-96067380D01*
X96138095Y-96067380D02*
X96376190Y-96067380D01*
X96376190Y-96067380D02*
X96471428Y-96115000D01*
X96471428Y-96115000D02*
X96519047Y-96162619D01*
X96519047Y-96162619D02*
X96566666Y-96257857D01*
X96566666Y-96257857D02*
X96566666Y-96353095D01*
X96566666Y-96353095D02*
X96519047Y-96495952D01*
X96519047Y-96495952D02*
X95947619Y-97067380D01*
X95947619Y-97067380D02*
X96566666Y-97067380D01*
%TO.C,Q11*%
X159503571Y-108118619D02*
X159408333Y-108071000D01*
X159408333Y-108071000D02*
X159313095Y-107975761D01*
X159313095Y-107975761D02*
X159170238Y-107832904D01*
X159170238Y-107832904D02*
X159075000Y-107785285D01*
X159075000Y-107785285D02*
X158979762Y-107785285D01*
X159027381Y-108023380D02*
X158932143Y-107975761D01*
X158932143Y-107975761D02*
X158836905Y-107880523D01*
X158836905Y-107880523D02*
X158789286Y-107690047D01*
X158789286Y-107690047D02*
X158789286Y-107356714D01*
X158789286Y-107356714D02*
X158836905Y-107166238D01*
X158836905Y-107166238D02*
X158932143Y-107071000D01*
X158932143Y-107071000D02*
X159027381Y-107023380D01*
X159027381Y-107023380D02*
X159217857Y-107023380D01*
X159217857Y-107023380D02*
X159313095Y-107071000D01*
X159313095Y-107071000D02*
X159408333Y-107166238D01*
X159408333Y-107166238D02*
X159455952Y-107356714D01*
X159455952Y-107356714D02*
X159455952Y-107690047D01*
X159455952Y-107690047D02*
X159408333Y-107880523D01*
X159408333Y-107880523D02*
X159313095Y-107975761D01*
X159313095Y-107975761D02*
X159217857Y-108023380D01*
X159217857Y-108023380D02*
X159027381Y-108023380D01*
X160408333Y-108023380D02*
X159836905Y-108023380D01*
X160122619Y-108023380D02*
X160122619Y-107023380D01*
X160122619Y-107023380D02*
X160027381Y-107166238D01*
X160027381Y-107166238D02*
X159932143Y-107261476D01*
X159932143Y-107261476D02*
X159836905Y-107309095D01*
X161360714Y-108023380D02*
X160789286Y-108023380D01*
X161075000Y-108023380D02*
X161075000Y-107023380D01*
X161075000Y-107023380D02*
X160979762Y-107166238D01*
X160979762Y-107166238D02*
X160884524Y-107261476D01*
X160884524Y-107261476D02*
X160789286Y-107309095D01*
%TO.C,U1*%
X96395380Y-84581904D02*
X97204904Y-84581904D01*
X97204904Y-84581904D02*
X97300142Y-84534285D01*
X97300142Y-84534285D02*
X97347761Y-84486666D01*
X97347761Y-84486666D02*
X97395380Y-84391428D01*
X97395380Y-84391428D02*
X97395380Y-84200952D01*
X97395380Y-84200952D02*
X97347761Y-84105714D01*
X97347761Y-84105714D02*
X97300142Y-84058095D01*
X97300142Y-84058095D02*
X97204904Y-84010476D01*
X97204904Y-84010476D02*
X96395380Y-84010476D01*
X97395380Y-83010476D02*
X97395380Y-83581904D01*
X97395380Y-83296190D02*
X96395380Y-83296190D01*
X96395380Y-83296190D02*
X96538238Y-83391428D01*
X96538238Y-83391428D02*
X96633476Y-83486666D01*
X96633476Y-83486666D02*
X96681095Y-83581904D01*
%TO.C,R21*%
X84955142Y-116953380D02*
X84621809Y-116477190D01*
X84383714Y-116953380D02*
X84383714Y-115953380D01*
X84383714Y-115953380D02*
X84764666Y-115953380D01*
X84764666Y-115953380D02*
X84859904Y-116001000D01*
X84859904Y-116001000D02*
X84907523Y-116048619D01*
X84907523Y-116048619D02*
X84955142Y-116143857D01*
X84955142Y-116143857D02*
X84955142Y-116286714D01*
X84955142Y-116286714D02*
X84907523Y-116381952D01*
X84907523Y-116381952D02*
X84859904Y-116429571D01*
X84859904Y-116429571D02*
X84764666Y-116477190D01*
X84764666Y-116477190D02*
X84383714Y-116477190D01*
X85336095Y-116048619D02*
X85383714Y-116001000D01*
X85383714Y-116001000D02*
X85478952Y-115953380D01*
X85478952Y-115953380D02*
X85717047Y-115953380D01*
X85717047Y-115953380D02*
X85812285Y-116001000D01*
X85812285Y-116001000D02*
X85859904Y-116048619D01*
X85859904Y-116048619D02*
X85907523Y-116143857D01*
X85907523Y-116143857D02*
X85907523Y-116239095D01*
X85907523Y-116239095D02*
X85859904Y-116381952D01*
X85859904Y-116381952D02*
X85288476Y-116953380D01*
X85288476Y-116953380D02*
X85907523Y-116953380D01*
X86859904Y-116953380D02*
X86288476Y-116953380D01*
X86574190Y-116953380D02*
X86574190Y-115953380D01*
X86574190Y-115953380D02*
X86478952Y-116096238D01*
X86478952Y-116096238D02*
X86383714Y-116191476D01*
X86383714Y-116191476D02*
X86288476Y-116239095D01*
%TO.C,R16*%
X167807142Y-116892380D02*
X167473809Y-116416190D01*
X167235714Y-116892380D02*
X167235714Y-115892380D01*
X167235714Y-115892380D02*
X167616666Y-115892380D01*
X167616666Y-115892380D02*
X167711904Y-115940000D01*
X167711904Y-115940000D02*
X167759523Y-115987619D01*
X167759523Y-115987619D02*
X167807142Y-116082857D01*
X167807142Y-116082857D02*
X167807142Y-116225714D01*
X167807142Y-116225714D02*
X167759523Y-116320952D01*
X167759523Y-116320952D02*
X167711904Y-116368571D01*
X167711904Y-116368571D02*
X167616666Y-116416190D01*
X167616666Y-116416190D02*
X167235714Y-116416190D01*
X168759523Y-116892380D02*
X168188095Y-116892380D01*
X168473809Y-116892380D02*
X168473809Y-115892380D01*
X168473809Y-115892380D02*
X168378571Y-116035238D01*
X168378571Y-116035238D02*
X168283333Y-116130476D01*
X168283333Y-116130476D02*
X168188095Y-116178095D01*
X169616666Y-115892380D02*
X169426190Y-115892380D01*
X169426190Y-115892380D02*
X169330952Y-115940000D01*
X169330952Y-115940000D02*
X169283333Y-115987619D01*
X169283333Y-115987619D02*
X169188095Y-116130476D01*
X169188095Y-116130476D02*
X169140476Y-116320952D01*
X169140476Y-116320952D02*
X169140476Y-116701904D01*
X169140476Y-116701904D02*
X169188095Y-116797142D01*
X169188095Y-116797142D02*
X169235714Y-116844761D01*
X169235714Y-116844761D02*
X169330952Y-116892380D01*
X169330952Y-116892380D02*
X169521428Y-116892380D01*
X169521428Y-116892380D02*
X169616666Y-116844761D01*
X169616666Y-116844761D02*
X169664285Y-116797142D01*
X169664285Y-116797142D02*
X169711904Y-116701904D01*
X169711904Y-116701904D02*
X169711904Y-116463809D01*
X169711904Y-116463809D02*
X169664285Y-116368571D01*
X169664285Y-116368571D02*
X169616666Y-116320952D01*
X169616666Y-116320952D02*
X169521428Y-116273333D01*
X169521428Y-116273333D02*
X169330952Y-116273333D01*
X169330952Y-116273333D02*
X169235714Y-116320952D01*
X169235714Y-116320952D02*
X169188095Y-116368571D01*
X169188095Y-116368571D02*
X169140476Y-116463809D01*
%TO.C,Q7*%
X203209761Y-108002619D02*
X203114523Y-107955000D01*
X203114523Y-107955000D02*
X203019285Y-107859761D01*
X203019285Y-107859761D02*
X202876428Y-107716904D01*
X202876428Y-107716904D02*
X202781190Y-107669285D01*
X202781190Y-107669285D02*
X202685952Y-107669285D01*
X202733571Y-107907380D02*
X202638333Y-107859761D01*
X202638333Y-107859761D02*
X202543095Y-107764523D01*
X202543095Y-107764523D02*
X202495476Y-107574047D01*
X202495476Y-107574047D02*
X202495476Y-107240714D01*
X202495476Y-107240714D02*
X202543095Y-107050238D01*
X202543095Y-107050238D02*
X202638333Y-106955000D01*
X202638333Y-106955000D02*
X202733571Y-106907380D01*
X202733571Y-106907380D02*
X202924047Y-106907380D01*
X202924047Y-106907380D02*
X203019285Y-106955000D01*
X203019285Y-106955000D02*
X203114523Y-107050238D01*
X203114523Y-107050238D02*
X203162142Y-107240714D01*
X203162142Y-107240714D02*
X203162142Y-107574047D01*
X203162142Y-107574047D02*
X203114523Y-107764523D01*
X203114523Y-107764523D02*
X203019285Y-107859761D01*
X203019285Y-107859761D02*
X202924047Y-107907380D01*
X202924047Y-107907380D02*
X202733571Y-107907380D01*
X203495476Y-106907380D02*
X204162142Y-106907380D01*
X204162142Y-106907380D02*
X203733571Y-107907380D01*
%TO.C,Q12*%
X167903571Y-108077619D02*
X167808333Y-108030000D01*
X167808333Y-108030000D02*
X167713095Y-107934761D01*
X167713095Y-107934761D02*
X167570238Y-107791904D01*
X167570238Y-107791904D02*
X167475000Y-107744285D01*
X167475000Y-107744285D02*
X167379762Y-107744285D01*
X167427381Y-107982380D02*
X167332143Y-107934761D01*
X167332143Y-107934761D02*
X167236905Y-107839523D01*
X167236905Y-107839523D02*
X167189286Y-107649047D01*
X167189286Y-107649047D02*
X167189286Y-107315714D01*
X167189286Y-107315714D02*
X167236905Y-107125238D01*
X167236905Y-107125238D02*
X167332143Y-107030000D01*
X167332143Y-107030000D02*
X167427381Y-106982380D01*
X167427381Y-106982380D02*
X167617857Y-106982380D01*
X167617857Y-106982380D02*
X167713095Y-107030000D01*
X167713095Y-107030000D02*
X167808333Y-107125238D01*
X167808333Y-107125238D02*
X167855952Y-107315714D01*
X167855952Y-107315714D02*
X167855952Y-107649047D01*
X167855952Y-107649047D02*
X167808333Y-107839523D01*
X167808333Y-107839523D02*
X167713095Y-107934761D01*
X167713095Y-107934761D02*
X167617857Y-107982380D01*
X167617857Y-107982380D02*
X167427381Y-107982380D01*
X168808333Y-107982380D02*
X168236905Y-107982380D01*
X168522619Y-107982380D02*
X168522619Y-106982380D01*
X168522619Y-106982380D02*
X168427381Y-107125238D01*
X168427381Y-107125238D02*
X168332143Y-107220476D01*
X168332143Y-107220476D02*
X168236905Y-107268095D01*
X169189286Y-107077619D02*
X169236905Y-107030000D01*
X169236905Y-107030000D02*
X169332143Y-106982380D01*
X169332143Y-106982380D02*
X169570238Y-106982380D01*
X169570238Y-106982380D02*
X169665476Y-107030000D01*
X169665476Y-107030000D02*
X169713095Y-107077619D01*
X169713095Y-107077619D02*
X169760714Y-107172857D01*
X169760714Y-107172857D02*
X169760714Y-107268095D01*
X169760714Y-107268095D02*
X169713095Y-107410952D01*
X169713095Y-107410952D02*
X169141667Y-107982380D01*
X169141667Y-107982380D02*
X169760714Y-107982380D01*
%TO.C,R19*%
X79869380Y-113164857D02*
X79393190Y-113498190D01*
X79869380Y-113736285D02*
X78869380Y-113736285D01*
X78869380Y-113736285D02*
X78869380Y-113355333D01*
X78869380Y-113355333D02*
X78917000Y-113260095D01*
X78917000Y-113260095D02*
X78964619Y-113212476D01*
X78964619Y-113212476D02*
X79059857Y-113164857D01*
X79059857Y-113164857D02*
X79202714Y-113164857D01*
X79202714Y-113164857D02*
X79297952Y-113212476D01*
X79297952Y-113212476D02*
X79345571Y-113260095D01*
X79345571Y-113260095D02*
X79393190Y-113355333D01*
X79393190Y-113355333D02*
X79393190Y-113736285D01*
X79869380Y-112212476D02*
X79869380Y-112783904D01*
X79869380Y-112498190D02*
X78869380Y-112498190D01*
X78869380Y-112498190D02*
X79012238Y-112593428D01*
X79012238Y-112593428D02*
X79107476Y-112688666D01*
X79107476Y-112688666D02*
X79155095Y-112783904D01*
X79869380Y-111736285D02*
X79869380Y-111545809D01*
X79869380Y-111545809D02*
X79821761Y-111450571D01*
X79821761Y-111450571D02*
X79774142Y-111402952D01*
X79774142Y-111402952D02*
X79631285Y-111307714D01*
X79631285Y-111307714D02*
X79440809Y-111260095D01*
X79440809Y-111260095D02*
X79059857Y-111260095D01*
X79059857Y-111260095D02*
X78964619Y-111307714D01*
X78964619Y-111307714D02*
X78917000Y-111355333D01*
X78917000Y-111355333D02*
X78869380Y-111450571D01*
X78869380Y-111450571D02*
X78869380Y-111641047D01*
X78869380Y-111641047D02*
X78917000Y-111736285D01*
X78917000Y-111736285D02*
X78964619Y-111783904D01*
X78964619Y-111783904D02*
X79059857Y-111831523D01*
X79059857Y-111831523D02*
X79297952Y-111831523D01*
X79297952Y-111831523D02*
X79393190Y-111783904D01*
X79393190Y-111783904D02*
X79440809Y-111736285D01*
X79440809Y-111736285D02*
X79488428Y-111641047D01*
X79488428Y-111641047D02*
X79488428Y-111450571D01*
X79488428Y-111450571D02*
X79440809Y-111355333D01*
X79440809Y-111355333D02*
X79393190Y-111307714D01*
X79393190Y-111307714D02*
X79297952Y-111260095D01*
%TO.C,Q3*%
X151444761Y-108252619D02*
X151349523Y-108205000D01*
X151349523Y-108205000D02*
X151254285Y-108109761D01*
X151254285Y-108109761D02*
X151111428Y-107966904D01*
X151111428Y-107966904D02*
X151016190Y-107919285D01*
X151016190Y-107919285D02*
X150920952Y-107919285D01*
X150968571Y-108157380D02*
X150873333Y-108109761D01*
X150873333Y-108109761D02*
X150778095Y-108014523D01*
X150778095Y-108014523D02*
X150730476Y-107824047D01*
X150730476Y-107824047D02*
X150730476Y-107490714D01*
X150730476Y-107490714D02*
X150778095Y-107300238D01*
X150778095Y-107300238D02*
X150873333Y-107205000D01*
X150873333Y-107205000D02*
X150968571Y-107157380D01*
X150968571Y-107157380D02*
X151159047Y-107157380D01*
X151159047Y-107157380D02*
X151254285Y-107205000D01*
X151254285Y-107205000D02*
X151349523Y-107300238D01*
X151349523Y-107300238D02*
X151397142Y-107490714D01*
X151397142Y-107490714D02*
X151397142Y-107824047D01*
X151397142Y-107824047D02*
X151349523Y-108014523D01*
X151349523Y-108014523D02*
X151254285Y-108109761D01*
X151254285Y-108109761D02*
X151159047Y-108157380D01*
X151159047Y-108157380D02*
X150968571Y-108157380D01*
X151730476Y-107157380D02*
X152349523Y-107157380D01*
X152349523Y-107157380D02*
X152016190Y-107538333D01*
X152016190Y-107538333D02*
X152159047Y-107538333D01*
X152159047Y-107538333D02*
X152254285Y-107585952D01*
X152254285Y-107585952D02*
X152301904Y-107633571D01*
X152301904Y-107633571D02*
X152349523Y-107728809D01*
X152349523Y-107728809D02*
X152349523Y-107966904D01*
X152349523Y-107966904D02*
X152301904Y-108062142D01*
X152301904Y-108062142D02*
X152254285Y-108109761D01*
X152254285Y-108109761D02*
X152159047Y-108157380D01*
X152159047Y-108157380D02*
X151873333Y-108157380D01*
X151873333Y-108157380D02*
X151778095Y-108109761D01*
X151778095Y-108109761D02*
X151730476Y-108062142D01*
%TO.C,R2*%
X142835333Y-116953380D02*
X142502000Y-116477190D01*
X142263905Y-116953380D02*
X142263905Y-115953380D01*
X142263905Y-115953380D02*
X142644857Y-115953380D01*
X142644857Y-115953380D02*
X142740095Y-116001000D01*
X142740095Y-116001000D02*
X142787714Y-116048619D01*
X142787714Y-116048619D02*
X142835333Y-116143857D01*
X142835333Y-116143857D02*
X142835333Y-116286714D01*
X142835333Y-116286714D02*
X142787714Y-116381952D01*
X142787714Y-116381952D02*
X142740095Y-116429571D01*
X142740095Y-116429571D02*
X142644857Y-116477190D01*
X142644857Y-116477190D02*
X142263905Y-116477190D01*
X143216286Y-116048619D02*
X143263905Y-116001000D01*
X143263905Y-116001000D02*
X143359143Y-115953380D01*
X143359143Y-115953380D02*
X143597238Y-115953380D01*
X143597238Y-115953380D02*
X143692476Y-116001000D01*
X143692476Y-116001000D02*
X143740095Y-116048619D01*
X143740095Y-116048619D02*
X143787714Y-116143857D01*
X143787714Y-116143857D02*
X143787714Y-116239095D01*
X143787714Y-116239095D02*
X143740095Y-116381952D01*
X143740095Y-116381952D02*
X143168667Y-116953380D01*
X143168667Y-116953380D02*
X143787714Y-116953380D01*
%TO.C,R18*%
X189089380Y-96654857D02*
X188613190Y-96988190D01*
X189089380Y-97226285D02*
X188089380Y-97226285D01*
X188089380Y-97226285D02*
X188089380Y-96845333D01*
X188089380Y-96845333D02*
X188137000Y-96750095D01*
X188137000Y-96750095D02*
X188184619Y-96702476D01*
X188184619Y-96702476D02*
X188279857Y-96654857D01*
X188279857Y-96654857D02*
X188422714Y-96654857D01*
X188422714Y-96654857D02*
X188517952Y-96702476D01*
X188517952Y-96702476D02*
X188565571Y-96750095D01*
X188565571Y-96750095D02*
X188613190Y-96845333D01*
X188613190Y-96845333D02*
X188613190Y-97226285D01*
X189089380Y-95702476D02*
X189089380Y-96273904D01*
X189089380Y-95988190D02*
X188089380Y-95988190D01*
X188089380Y-95988190D02*
X188232238Y-96083428D01*
X188232238Y-96083428D02*
X188327476Y-96178666D01*
X188327476Y-96178666D02*
X188375095Y-96273904D01*
X188517952Y-95131047D02*
X188470333Y-95226285D01*
X188470333Y-95226285D02*
X188422714Y-95273904D01*
X188422714Y-95273904D02*
X188327476Y-95321523D01*
X188327476Y-95321523D02*
X188279857Y-95321523D01*
X188279857Y-95321523D02*
X188184619Y-95273904D01*
X188184619Y-95273904D02*
X188137000Y-95226285D01*
X188137000Y-95226285D02*
X188089380Y-95131047D01*
X188089380Y-95131047D02*
X188089380Y-94940571D01*
X188089380Y-94940571D02*
X188137000Y-94845333D01*
X188137000Y-94845333D02*
X188184619Y-94797714D01*
X188184619Y-94797714D02*
X188279857Y-94750095D01*
X188279857Y-94750095D02*
X188327476Y-94750095D01*
X188327476Y-94750095D02*
X188422714Y-94797714D01*
X188422714Y-94797714D02*
X188470333Y-94845333D01*
X188470333Y-94845333D02*
X188517952Y-94940571D01*
X188517952Y-94940571D02*
X188517952Y-95131047D01*
X188517952Y-95131047D02*
X188565571Y-95226285D01*
X188565571Y-95226285D02*
X188613190Y-95273904D01*
X188613190Y-95273904D02*
X188708428Y-95321523D01*
X188708428Y-95321523D02*
X188898904Y-95321523D01*
X188898904Y-95321523D02*
X188994142Y-95273904D01*
X188994142Y-95273904D02*
X189041761Y-95226285D01*
X189041761Y-95226285D02*
X189089380Y-95131047D01*
X189089380Y-95131047D02*
X189089380Y-94940571D01*
X189089380Y-94940571D02*
X189041761Y-94845333D01*
X189041761Y-94845333D02*
X188994142Y-94797714D01*
X188994142Y-94797714D02*
X188898904Y-94750095D01*
X188898904Y-94750095D02*
X188708428Y-94750095D01*
X188708428Y-94750095D02*
X188613190Y-94797714D01*
X188613190Y-94797714D02*
X188565571Y-94845333D01*
X188565571Y-94845333D02*
X188517952Y-94940571D01*
%TO.C,J1*%
X80274666Y-88429380D02*
X80274666Y-89143666D01*
X80274666Y-89143666D02*
X80227047Y-89286523D01*
X80227047Y-89286523D02*
X80131809Y-89381761D01*
X80131809Y-89381761D02*
X79988952Y-89429380D01*
X79988952Y-89429380D02*
X79893714Y-89429380D01*
X81274666Y-89429380D02*
X80703238Y-89429380D01*
X80988952Y-89429380D02*
X80988952Y-88429380D01*
X80988952Y-88429380D02*
X80893714Y-88572238D01*
X80893714Y-88572238D02*
X80798476Y-88667476D01*
X80798476Y-88667476D02*
X80703238Y-88715095D01*
%TO.C,Q4*%
X218174761Y-94952619D02*
X218079523Y-94905000D01*
X218079523Y-94905000D02*
X217984285Y-94809761D01*
X217984285Y-94809761D02*
X217841428Y-94666904D01*
X217841428Y-94666904D02*
X217746190Y-94619285D01*
X217746190Y-94619285D02*
X217650952Y-94619285D01*
X217698571Y-94857380D02*
X217603333Y-94809761D01*
X217603333Y-94809761D02*
X217508095Y-94714523D01*
X217508095Y-94714523D02*
X217460476Y-94524047D01*
X217460476Y-94524047D02*
X217460476Y-94190714D01*
X217460476Y-94190714D02*
X217508095Y-94000238D01*
X217508095Y-94000238D02*
X217603333Y-93905000D01*
X217603333Y-93905000D02*
X217698571Y-93857380D01*
X217698571Y-93857380D02*
X217889047Y-93857380D01*
X217889047Y-93857380D02*
X217984285Y-93905000D01*
X217984285Y-93905000D02*
X218079523Y-94000238D01*
X218079523Y-94000238D02*
X218127142Y-94190714D01*
X218127142Y-94190714D02*
X218127142Y-94524047D01*
X218127142Y-94524047D02*
X218079523Y-94714523D01*
X218079523Y-94714523D02*
X217984285Y-94809761D01*
X217984285Y-94809761D02*
X217889047Y-94857380D01*
X217889047Y-94857380D02*
X217698571Y-94857380D01*
X218984285Y-94190714D02*
X218984285Y-94857380D01*
X218746190Y-93809761D02*
X218508095Y-94524047D01*
X218508095Y-94524047D02*
X219127142Y-94524047D01*
%TO.C,R15*%
X159432142Y-117117380D02*
X159098809Y-116641190D01*
X158860714Y-117117380D02*
X158860714Y-116117380D01*
X158860714Y-116117380D02*
X159241666Y-116117380D01*
X159241666Y-116117380D02*
X159336904Y-116165000D01*
X159336904Y-116165000D02*
X159384523Y-116212619D01*
X159384523Y-116212619D02*
X159432142Y-116307857D01*
X159432142Y-116307857D02*
X159432142Y-116450714D01*
X159432142Y-116450714D02*
X159384523Y-116545952D01*
X159384523Y-116545952D02*
X159336904Y-116593571D01*
X159336904Y-116593571D02*
X159241666Y-116641190D01*
X159241666Y-116641190D02*
X158860714Y-116641190D01*
X160384523Y-117117380D02*
X159813095Y-117117380D01*
X160098809Y-117117380D02*
X160098809Y-116117380D01*
X160098809Y-116117380D02*
X160003571Y-116260238D01*
X160003571Y-116260238D02*
X159908333Y-116355476D01*
X159908333Y-116355476D02*
X159813095Y-116403095D01*
X161289285Y-116117380D02*
X160813095Y-116117380D01*
X160813095Y-116117380D02*
X160765476Y-116593571D01*
X160765476Y-116593571D02*
X160813095Y-116545952D01*
X160813095Y-116545952D02*
X160908333Y-116498333D01*
X160908333Y-116498333D02*
X161146428Y-116498333D01*
X161146428Y-116498333D02*
X161241666Y-116545952D01*
X161241666Y-116545952D02*
X161289285Y-116593571D01*
X161289285Y-116593571D02*
X161336904Y-116688809D01*
X161336904Y-116688809D02*
X161336904Y-116926904D01*
X161336904Y-116926904D02*
X161289285Y-117022142D01*
X161289285Y-117022142D02*
X161241666Y-117069761D01*
X161241666Y-117069761D02*
X161146428Y-117117380D01*
X161146428Y-117117380D02*
X160908333Y-117117380D01*
X160908333Y-117117380D02*
X160813095Y-117069761D01*
X160813095Y-117069761D02*
X160765476Y-117022142D01*
%TO.C,R14*%
X176182142Y-116842380D02*
X175848809Y-116366190D01*
X175610714Y-116842380D02*
X175610714Y-115842380D01*
X175610714Y-115842380D02*
X175991666Y-115842380D01*
X175991666Y-115842380D02*
X176086904Y-115890000D01*
X176086904Y-115890000D02*
X176134523Y-115937619D01*
X176134523Y-115937619D02*
X176182142Y-116032857D01*
X176182142Y-116032857D02*
X176182142Y-116175714D01*
X176182142Y-116175714D02*
X176134523Y-116270952D01*
X176134523Y-116270952D02*
X176086904Y-116318571D01*
X176086904Y-116318571D02*
X175991666Y-116366190D01*
X175991666Y-116366190D02*
X175610714Y-116366190D01*
X177134523Y-116842380D02*
X176563095Y-116842380D01*
X176848809Y-116842380D02*
X176848809Y-115842380D01*
X176848809Y-115842380D02*
X176753571Y-115985238D01*
X176753571Y-115985238D02*
X176658333Y-116080476D01*
X176658333Y-116080476D02*
X176563095Y-116128095D01*
X177991666Y-116175714D02*
X177991666Y-116842380D01*
X177753571Y-115794761D02*
X177515476Y-116509047D01*
X177515476Y-116509047D02*
X178134523Y-116509047D01*
%TO.C,R20*%
X161403380Y-96654857D02*
X160927190Y-96988190D01*
X161403380Y-97226285D02*
X160403380Y-97226285D01*
X160403380Y-97226285D02*
X160403380Y-96845333D01*
X160403380Y-96845333D02*
X160451000Y-96750095D01*
X160451000Y-96750095D02*
X160498619Y-96702476D01*
X160498619Y-96702476D02*
X160593857Y-96654857D01*
X160593857Y-96654857D02*
X160736714Y-96654857D01*
X160736714Y-96654857D02*
X160831952Y-96702476D01*
X160831952Y-96702476D02*
X160879571Y-96750095D01*
X160879571Y-96750095D02*
X160927190Y-96845333D01*
X160927190Y-96845333D02*
X160927190Y-97226285D01*
X160498619Y-96273904D02*
X160451000Y-96226285D01*
X160451000Y-96226285D02*
X160403380Y-96131047D01*
X160403380Y-96131047D02*
X160403380Y-95892952D01*
X160403380Y-95892952D02*
X160451000Y-95797714D01*
X160451000Y-95797714D02*
X160498619Y-95750095D01*
X160498619Y-95750095D02*
X160593857Y-95702476D01*
X160593857Y-95702476D02*
X160689095Y-95702476D01*
X160689095Y-95702476D02*
X160831952Y-95750095D01*
X160831952Y-95750095D02*
X161403380Y-96321523D01*
X161403380Y-96321523D02*
X161403380Y-95702476D01*
X160403380Y-95083428D02*
X160403380Y-94988190D01*
X160403380Y-94988190D02*
X160451000Y-94892952D01*
X160451000Y-94892952D02*
X160498619Y-94845333D01*
X160498619Y-94845333D02*
X160593857Y-94797714D01*
X160593857Y-94797714D02*
X160784333Y-94750095D01*
X160784333Y-94750095D02*
X161022428Y-94750095D01*
X161022428Y-94750095D02*
X161212904Y-94797714D01*
X161212904Y-94797714D02*
X161308142Y-94845333D01*
X161308142Y-94845333D02*
X161355761Y-94892952D01*
X161355761Y-94892952D02*
X161403380Y-94988190D01*
X161403380Y-94988190D02*
X161403380Y-95083428D01*
X161403380Y-95083428D02*
X161355761Y-95178666D01*
X161355761Y-95178666D02*
X161308142Y-95226285D01*
X161308142Y-95226285D02*
X161212904Y-95273904D01*
X161212904Y-95273904D02*
X161022428Y-95321523D01*
X161022428Y-95321523D02*
X160784333Y-95321523D01*
X160784333Y-95321523D02*
X160593857Y-95273904D01*
X160593857Y-95273904D02*
X160498619Y-95226285D01*
X160498619Y-95226285D02*
X160451000Y-95178666D01*
X160451000Y-95178666D02*
X160403380Y-95083428D01*
%TO.C,Q10*%
X176258571Y-108077619D02*
X176163333Y-108030000D01*
X176163333Y-108030000D02*
X176068095Y-107934761D01*
X176068095Y-107934761D02*
X175925238Y-107791904D01*
X175925238Y-107791904D02*
X175830000Y-107744285D01*
X175830000Y-107744285D02*
X175734762Y-107744285D01*
X175782381Y-107982380D02*
X175687143Y-107934761D01*
X175687143Y-107934761D02*
X175591905Y-107839523D01*
X175591905Y-107839523D02*
X175544286Y-107649047D01*
X175544286Y-107649047D02*
X175544286Y-107315714D01*
X175544286Y-107315714D02*
X175591905Y-107125238D01*
X175591905Y-107125238D02*
X175687143Y-107030000D01*
X175687143Y-107030000D02*
X175782381Y-106982380D01*
X175782381Y-106982380D02*
X175972857Y-106982380D01*
X175972857Y-106982380D02*
X176068095Y-107030000D01*
X176068095Y-107030000D02*
X176163333Y-107125238D01*
X176163333Y-107125238D02*
X176210952Y-107315714D01*
X176210952Y-107315714D02*
X176210952Y-107649047D01*
X176210952Y-107649047D02*
X176163333Y-107839523D01*
X176163333Y-107839523D02*
X176068095Y-107934761D01*
X176068095Y-107934761D02*
X175972857Y-107982380D01*
X175972857Y-107982380D02*
X175782381Y-107982380D01*
X177163333Y-107982380D02*
X176591905Y-107982380D01*
X176877619Y-107982380D02*
X176877619Y-106982380D01*
X176877619Y-106982380D02*
X176782381Y-107125238D01*
X176782381Y-107125238D02*
X176687143Y-107220476D01*
X176687143Y-107220476D02*
X176591905Y-107268095D01*
X177782381Y-106982380D02*
X177877619Y-106982380D01*
X177877619Y-106982380D02*
X177972857Y-107030000D01*
X177972857Y-107030000D02*
X178020476Y-107077619D01*
X178020476Y-107077619D02*
X178068095Y-107172857D01*
X178068095Y-107172857D02*
X178115714Y-107363333D01*
X178115714Y-107363333D02*
X178115714Y-107601428D01*
X178115714Y-107601428D02*
X178068095Y-107791904D01*
X178068095Y-107791904D02*
X178020476Y-107887142D01*
X178020476Y-107887142D02*
X177972857Y-107934761D01*
X177972857Y-107934761D02*
X177877619Y-107982380D01*
X177877619Y-107982380D02*
X177782381Y-107982380D01*
X177782381Y-107982380D02*
X177687143Y-107934761D01*
X177687143Y-107934761D02*
X177639524Y-107887142D01*
X177639524Y-107887142D02*
X177591905Y-107791904D01*
X177591905Y-107791904D02*
X177544286Y-107601428D01*
X177544286Y-107601428D02*
X177544286Y-107363333D01*
X177544286Y-107363333D02*
X177591905Y-107172857D01*
X177591905Y-107172857D02*
X177639524Y-107077619D01*
X177639524Y-107077619D02*
X177687143Y-107030000D01*
X177687143Y-107030000D02*
X177782381Y-106982380D01*
%TO.C,R22*%
X134231142Y-100443380D02*
X133897809Y-99967190D01*
X133659714Y-100443380D02*
X133659714Y-99443380D01*
X133659714Y-99443380D02*
X134040666Y-99443380D01*
X134040666Y-99443380D02*
X134135904Y-99491000D01*
X134135904Y-99491000D02*
X134183523Y-99538619D01*
X134183523Y-99538619D02*
X134231142Y-99633857D01*
X134231142Y-99633857D02*
X134231142Y-99776714D01*
X134231142Y-99776714D02*
X134183523Y-99871952D01*
X134183523Y-99871952D02*
X134135904Y-99919571D01*
X134135904Y-99919571D02*
X134040666Y-99967190D01*
X134040666Y-99967190D02*
X133659714Y-99967190D01*
X134612095Y-99538619D02*
X134659714Y-99491000D01*
X134659714Y-99491000D02*
X134754952Y-99443380D01*
X134754952Y-99443380D02*
X134993047Y-99443380D01*
X134993047Y-99443380D02*
X135088285Y-99491000D01*
X135088285Y-99491000D02*
X135135904Y-99538619D01*
X135135904Y-99538619D02*
X135183523Y-99633857D01*
X135183523Y-99633857D02*
X135183523Y-99729095D01*
X135183523Y-99729095D02*
X135135904Y-99871952D01*
X135135904Y-99871952D02*
X134564476Y-100443380D01*
X134564476Y-100443380D02*
X135183523Y-100443380D01*
X135564476Y-99538619D02*
X135612095Y-99491000D01*
X135612095Y-99491000D02*
X135707333Y-99443380D01*
X135707333Y-99443380D02*
X135945428Y-99443380D01*
X135945428Y-99443380D02*
X136040666Y-99491000D01*
X136040666Y-99491000D02*
X136088285Y-99538619D01*
X136088285Y-99538619D02*
X136135904Y-99633857D01*
X136135904Y-99633857D02*
X136135904Y-99729095D01*
X136135904Y-99729095D02*
X136088285Y-99871952D01*
X136088285Y-99871952D02*
X135516857Y-100443380D01*
X135516857Y-100443380D02*
X136135904Y-100443380D01*
%TO.C,R23*%
X165727142Y-100951380D02*
X165393809Y-100475190D01*
X165155714Y-100951380D02*
X165155714Y-99951380D01*
X165155714Y-99951380D02*
X165536666Y-99951380D01*
X165536666Y-99951380D02*
X165631904Y-99999000D01*
X165631904Y-99999000D02*
X165679523Y-100046619D01*
X165679523Y-100046619D02*
X165727142Y-100141857D01*
X165727142Y-100141857D02*
X165727142Y-100284714D01*
X165727142Y-100284714D02*
X165679523Y-100379952D01*
X165679523Y-100379952D02*
X165631904Y-100427571D01*
X165631904Y-100427571D02*
X165536666Y-100475190D01*
X165536666Y-100475190D02*
X165155714Y-100475190D01*
X166108095Y-100046619D02*
X166155714Y-99999000D01*
X166155714Y-99999000D02*
X166250952Y-99951380D01*
X166250952Y-99951380D02*
X166489047Y-99951380D01*
X166489047Y-99951380D02*
X166584285Y-99999000D01*
X166584285Y-99999000D02*
X166631904Y-100046619D01*
X166631904Y-100046619D02*
X166679523Y-100141857D01*
X166679523Y-100141857D02*
X166679523Y-100237095D01*
X166679523Y-100237095D02*
X166631904Y-100379952D01*
X166631904Y-100379952D02*
X166060476Y-100951380D01*
X166060476Y-100951380D02*
X166679523Y-100951380D01*
X167012857Y-99951380D02*
X167631904Y-99951380D01*
X167631904Y-99951380D02*
X167298571Y-100332333D01*
X167298571Y-100332333D02*
X167441428Y-100332333D01*
X167441428Y-100332333D02*
X167536666Y-100379952D01*
X167536666Y-100379952D02*
X167584285Y-100427571D01*
X167584285Y-100427571D02*
X167631904Y-100522809D01*
X167631904Y-100522809D02*
X167631904Y-100760904D01*
X167631904Y-100760904D02*
X167584285Y-100856142D01*
X167584285Y-100856142D02*
X167536666Y-100903761D01*
X167536666Y-100903761D02*
X167441428Y-100951380D01*
X167441428Y-100951380D02*
X167155714Y-100951380D01*
X167155714Y-100951380D02*
X167060476Y-100903761D01*
X167060476Y-100903761D02*
X167012857Y-100856142D01*
%TO.C,Q1*%
X142906761Y-108260619D02*
X142811523Y-108213000D01*
X142811523Y-108213000D02*
X142716285Y-108117761D01*
X142716285Y-108117761D02*
X142573428Y-107974904D01*
X142573428Y-107974904D02*
X142478190Y-107927285D01*
X142478190Y-107927285D02*
X142382952Y-107927285D01*
X142430571Y-108165380D02*
X142335333Y-108117761D01*
X142335333Y-108117761D02*
X142240095Y-108022523D01*
X142240095Y-108022523D02*
X142192476Y-107832047D01*
X142192476Y-107832047D02*
X142192476Y-107498714D01*
X142192476Y-107498714D02*
X142240095Y-107308238D01*
X142240095Y-107308238D02*
X142335333Y-107213000D01*
X142335333Y-107213000D02*
X142430571Y-107165380D01*
X142430571Y-107165380D02*
X142621047Y-107165380D01*
X142621047Y-107165380D02*
X142716285Y-107213000D01*
X142716285Y-107213000D02*
X142811523Y-107308238D01*
X142811523Y-107308238D02*
X142859142Y-107498714D01*
X142859142Y-107498714D02*
X142859142Y-107832047D01*
X142859142Y-107832047D02*
X142811523Y-108022523D01*
X142811523Y-108022523D02*
X142716285Y-108117761D01*
X142716285Y-108117761D02*
X142621047Y-108165380D01*
X142621047Y-108165380D02*
X142430571Y-108165380D01*
X143811523Y-108165380D02*
X143240095Y-108165380D01*
X143525809Y-108165380D02*
X143525809Y-107165380D01*
X143525809Y-107165380D02*
X143430571Y-107308238D01*
X143430571Y-107308238D02*
X143335333Y-107403476D01*
X143335333Y-107403476D02*
X143240095Y-107451095D01*
%TO.C,Q13*%
X85026571Y-108662619D02*
X84931333Y-108615000D01*
X84931333Y-108615000D02*
X84836095Y-108519761D01*
X84836095Y-108519761D02*
X84693238Y-108376904D01*
X84693238Y-108376904D02*
X84598000Y-108329285D01*
X84598000Y-108329285D02*
X84502762Y-108329285D01*
X84550381Y-108567380D02*
X84455143Y-108519761D01*
X84455143Y-108519761D02*
X84359905Y-108424523D01*
X84359905Y-108424523D02*
X84312286Y-108234047D01*
X84312286Y-108234047D02*
X84312286Y-107900714D01*
X84312286Y-107900714D02*
X84359905Y-107710238D01*
X84359905Y-107710238D02*
X84455143Y-107615000D01*
X84455143Y-107615000D02*
X84550381Y-107567380D01*
X84550381Y-107567380D02*
X84740857Y-107567380D01*
X84740857Y-107567380D02*
X84836095Y-107615000D01*
X84836095Y-107615000D02*
X84931333Y-107710238D01*
X84931333Y-107710238D02*
X84978952Y-107900714D01*
X84978952Y-107900714D02*
X84978952Y-108234047D01*
X84978952Y-108234047D02*
X84931333Y-108424523D01*
X84931333Y-108424523D02*
X84836095Y-108519761D01*
X84836095Y-108519761D02*
X84740857Y-108567380D01*
X84740857Y-108567380D02*
X84550381Y-108567380D01*
X85931333Y-108567380D02*
X85359905Y-108567380D01*
X85645619Y-108567380D02*
X85645619Y-107567380D01*
X85645619Y-107567380D02*
X85550381Y-107710238D01*
X85550381Y-107710238D02*
X85455143Y-107805476D01*
X85455143Y-107805476D02*
X85359905Y-107853095D01*
X86264667Y-107567380D02*
X86883714Y-107567380D01*
X86883714Y-107567380D02*
X86550381Y-107948333D01*
X86550381Y-107948333D02*
X86693238Y-107948333D01*
X86693238Y-107948333D02*
X86788476Y-107995952D01*
X86788476Y-107995952D02*
X86836095Y-108043571D01*
X86836095Y-108043571D02*
X86883714Y-108138809D01*
X86883714Y-108138809D02*
X86883714Y-108376904D01*
X86883714Y-108376904D02*
X86836095Y-108472142D01*
X86836095Y-108472142D02*
X86788476Y-108519761D01*
X86788476Y-108519761D02*
X86693238Y-108567380D01*
X86693238Y-108567380D02*
X86407524Y-108567380D01*
X86407524Y-108567380D02*
X86312286Y-108519761D01*
X86312286Y-108519761D02*
X86264667Y-108472142D01*
%TO.C,Q6*%
X212021161Y-108031419D02*
X211925923Y-107983800D01*
X211925923Y-107983800D02*
X211830685Y-107888561D01*
X211830685Y-107888561D02*
X211687828Y-107745704D01*
X211687828Y-107745704D02*
X211592590Y-107698085D01*
X211592590Y-107698085D02*
X211497352Y-107698085D01*
X211544971Y-107936180D02*
X211449733Y-107888561D01*
X211449733Y-107888561D02*
X211354495Y-107793323D01*
X211354495Y-107793323D02*
X211306876Y-107602847D01*
X211306876Y-107602847D02*
X211306876Y-107269514D01*
X211306876Y-107269514D02*
X211354495Y-107079038D01*
X211354495Y-107079038D02*
X211449733Y-106983800D01*
X211449733Y-106983800D02*
X211544971Y-106936180D01*
X211544971Y-106936180D02*
X211735447Y-106936180D01*
X211735447Y-106936180D02*
X211830685Y-106983800D01*
X211830685Y-106983800D02*
X211925923Y-107079038D01*
X211925923Y-107079038D02*
X211973542Y-107269514D01*
X211973542Y-107269514D02*
X211973542Y-107602847D01*
X211973542Y-107602847D02*
X211925923Y-107793323D01*
X211925923Y-107793323D02*
X211830685Y-107888561D01*
X211830685Y-107888561D02*
X211735447Y-107936180D01*
X211735447Y-107936180D02*
X211544971Y-107936180D01*
X212830685Y-106936180D02*
X212640209Y-106936180D01*
X212640209Y-106936180D02*
X212544971Y-106983800D01*
X212544971Y-106983800D02*
X212497352Y-107031419D01*
X212497352Y-107031419D02*
X212402114Y-107174276D01*
X212402114Y-107174276D02*
X212354495Y-107364752D01*
X212354495Y-107364752D02*
X212354495Y-107745704D01*
X212354495Y-107745704D02*
X212402114Y-107840942D01*
X212402114Y-107840942D02*
X212449733Y-107888561D01*
X212449733Y-107888561D02*
X212544971Y-107936180D01*
X212544971Y-107936180D02*
X212735447Y-107936180D01*
X212735447Y-107936180D02*
X212830685Y-107888561D01*
X212830685Y-107888561D02*
X212878304Y-107840942D01*
X212878304Y-107840942D02*
X212925923Y-107745704D01*
X212925923Y-107745704D02*
X212925923Y-107507609D01*
X212925923Y-107507609D02*
X212878304Y-107412371D01*
X212878304Y-107412371D02*
X212830685Y-107364752D01*
X212830685Y-107364752D02*
X212735447Y-107317133D01*
X212735447Y-107317133D02*
X212544971Y-107317133D01*
X212544971Y-107317133D02*
X212449733Y-107364752D01*
X212449733Y-107364752D02*
X212402114Y-107412371D01*
X212402114Y-107412371D02*
X212354495Y-107507609D01*
%TO.C,R7*%
X151373333Y-116942380D02*
X151040000Y-116466190D01*
X150801905Y-116942380D02*
X150801905Y-115942380D01*
X150801905Y-115942380D02*
X151182857Y-115942380D01*
X151182857Y-115942380D02*
X151278095Y-115990000D01*
X151278095Y-115990000D02*
X151325714Y-116037619D01*
X151325714Y-116037619D02*
X151373333Y-116132857D01*
X151373333Y-116132857D02*
X151373333Y-116275714D01*
X151373333Y-116275714D02*
X151325714Y-116370952D01*
X151325714Y-116370952D02*
X151278095Y-116418571D01*
X151278095Y-116418571D02*
X151182857Y-116466190D01*
X151182857Y-116466190D02*
X150801905Y-116466190D01*
X151706667Y-115942380D02*
X152373333Y-115942380D01*
X152373333Y-115942380D02*
X151944762Y-116942380D01*
%TO.C,R10*%
X211382142Y-116796380D02*
X211048809Y-116320190D01*
X210810714Y-116796380D02*
X210810714Y-115796380D01*
X210810714Y-115796380D02*
X211191666Y-115796380D01*
X211191666Y-115796380D02*
X211286904Y-115844000D01*
X211286904Y-115844000D02*
X211334523Y-115891619D01*
X211334523Y-115891619D02*
X211382142Y-115986857D01*
X211382142Y-115986857D02*
X211382142Y-116129714D01*
X211382142Y-116129714D02*
X211334523Y-116224952D01*
X211334523Y-116224952D02*
X211286904Y-116272571D01*
X211286904Y-116272571D02*
X211191666Y-116320190D01*
X211191666Y-116320190D02*
X210810714Y-116320190D01*
X212334523Y-116796380D02*
X211763095Y-116796380D01*
X212048809Y-116796380D02*
X212048809Y-115796380D01*
X212048809Y-115796380D02*
X211953571Y-115939238D01*
X211953571Y-115939238D02*
X211858333Y-116034476D01*
X211858333Y-116034476D02*
X211763095Y-116082095D01*
X212953571Y-115796380D02*
X213048809Y-115796380D01*
X213048809Y-115796380D02*
X213144047Y-115844000D01*
X213144047Y-115844000D02*
X213191666Y-115891619D01*
X213191666Y-115891619D02*
X213239285Y-115986857D01*
X213239285Y-115986857D02*
X213286904Y-116177333D01*
X213286904Y-116177333D02*
X213286904Y-116415428D01*
X213286904Y-116415428D02*
X213239285Y-116605904D01*
X213239285Y-116605904D02*
X213191666Y-116701142D01*
X213191666Y-116701142D02*
X213144047Y-116748761D01*
X213144047Y-116748761D02*
X213048809Y-116796380D01*
X213048809Y-116796380D02*
X212953571Y-116796380D01*
X212953571Y-116796380D02*
X212858333Y-116748761D01*
X212858333Y-116748761D02*
X212810714Y-116701142D01*
X212810714Y-116701142D02*
X212763095Y-116605904D01*
X212763095Y-116605904D02*
X212715476Y-116415428D01*
X212715476Y-116415428D02*
X212715476Y-116177333D01*
X212715476Y-116177333D02*
X212763095Y-115986857D01*
X212763095Y-115986857D02*
X212810714Y-115891619D01*
X212810714Y-115891619D02*
X212858333Y-115844000D01*
X212858333Y-115844000D02*
X212953571Y-115796380D01*
%TO.C,R13*%
X185017142Y-116817380D02*
X184683809Y-116341190D01*
X184445714Y-116817380D02*
X184445714Y-115817380D01*
X184445714Y-115817380D02*
X184826666Y-115817380D01*
X184826666Y-115817380D02*
X184921904Y-115865000D01*
X184921904Y-115865000D02*
X184969523Y-115912619D01*
X184969523Y-115912619D02*
X185017142Y-116007857D01*
X185017142Y-116007857D02*
X185017142Y-116150714D01*
X185017142Y-116150714D02*
X184969523Y-116245952D01*
X184969523Y-116245952D02*
X184921904Y-116293571D01*
X184921904Y-116293571D02*
X184826666Y-116341190D01*
X184826666Y-116341190D02*
X184445714Y-116341190D01*
X185969523Y-116817380D02*
X185398095Y-116817380D01*
X185683809Y-116817380D02*
X185683809Y-115817380D01*
X185683809Y-115817380D02*
X185588571Y-115960238D01*
X185588571Y-115960238D02*
X185493333Y-116055476D01*
X185493333Y-116055476D02*
X185398095Y-116103095D01*
X186302857Y-115817380D02*
X186921904Y-115817380D01*
X186921904Y-115817380D02*
X186588571Y-116198333D01*
X186588571Y-116198333D02*
X186731428Y-116198333D01*
X186731428Y-116198333D02*
X186826666Y-116245952D01*
X186826666Y-116245952D02*
X186874285Y-116293571D01*
X186874285Y-116293571D02*
X186921904Y-116388809D01*
X186921904Y-116388809D02*
X186921904Y-116626904D01*
X186921904Y-116626904D02*
X186874285Y-116722142D01*
X186874285Y-116722142D02*
X186826666Y-116769761D01*
X186826666Y-116769761D02*
X186731428Y-116817380D01*
X186731428Y-116817380D02*
X186445714Y-116817380D01*
X186445714Y-116817380D02*
X186350476Y-116769761D01*
X186350476Y-116769761D02*
X186302857Y-116722142D01*
%TO.C,C3*%
X136507682Y-78347142D02*
X136460063Y-78394761D01*
X136460063Y-78394761D02*
X136317206Y-78442380D01*
X136317206Y-78442380D02*
X136221968Y-78442380D01*
X136221968Y-78442380D02*
X136079111Y-78394761D01*
X136079111Y-78394761D02*
X135983873Y-78299523D01*
X135983873Y-78299523D02*
X135936254Y-78204285D01*
X135936254Y-78204285D02*
X135888635Y-78013809D01*
X135888635Y-78013809D02*
X135888635Y-77870952D01*
X135888635Y-77870952D02*
X135936254Y-77680476D01*
X135936254Y-77680476D02*
X135983873Y-77585238D01*
X135983873Y-77585238D02*
X136079111Y-77490000D01*
X136079111Y-77490000D02*
X136221968Y-77442380D01*
X136221968Y-77442380D02*
X136317206Y-77442380D01*
X136317206Y-77442380D02*
X136460063Y-77490000D01*
X136460063Y-77490000D02*
X136507682Y-77537619D01*
X136841016Y-77442380D02*
X137460063Y-77442380D01*
X137460063Y-77442380D02*
X137126730Y-77823333D01*
X137126730Y-77823333D02*
X137269587Y-77823333D01*
X137269587Y-77823333D02*
X137364825Y-77870952D01*
X137364825Y-77870952D02*
X137412444Y-77918571D01*
X137412444Y-77918571D02*
X137460063Y-78013809D01*
X137460063Y-78013809D02*
X137460063Y-78251904D01*
X137460063Y-78251904D02*
X137412444Y-78347142D01*
X137412444Y-78347142D02*
X137364825Y-78394761D01*
X137364825Y-78394761D02*
X137269587Y-78442380D01*
X137269587Y-78442380D02*
X136983873Y-78442380D01*
X136983873Y-78442380D02*
X136888635Y-78394761D01*
X136888635Y-78394761D02*
X136841016Y-78347142D01*
D13*
%TO.C,C4*%
X119792000Y-82700000D02*
X119792000Y-82765000D01*
X119792000Y-82700000D02*
X123032000Y-82700000D01*
X119792000Y-84875000D02*
X119792000Y-84940000D01*
X119792000Y-84940000D02*
X123032000Y-84940000D01*
X123032000Y-82700000D02*
X123032000Y-82765000D01*
X123032000Y-84875000D02*
X123032000Y-84940000D01*
%TO.C,D1*%
X103760000Y-99490000D02*
X107060000Y-99490000D01*
X103760000Y-99490000D02*
X103760000Y-93980000D01*
X107060000Y-99490000D02*
X107060000Y-93980000D01*
%TO.C,L1*%
X133184000Y-84328000D02*
G75*
G03*
X133184000Y-84328000I-3620000J0D01*
G01*
%TO.C,Q2*%
X109071000Y-98955000D02*
X109341000Y-98955000D01*
X109341000Y-98955000D02*
X109341000Y-101785000D01*
X115701000Y-98955000D02*
X115701000Y-100055000D01*
X115971000Y-98955000D02*
X115701000Y-98955000D01*
X109071000Y-92535000D02*
X109071000Y-98955000D01*
X115971000Y-92535000D02*
X115971000Y-98955000D01*
%TO.C,R3*%
X104506000Y-80360000D02*
X108346000Y-80360000D01*
X104506000Y-82200000D02*
X108346000Y-82200000D01*
%TO.C,R4*%
X112634000Y-80360000D02*
X116474000Y-80360000D01*
X112634000Y-82200000D02*
X116474000Y-82200000D01*
%TO.C,R5*%
X99202000Y-78898000D02*
X95362000Y-78898000D01*
X99202000Y-77058000D02*
X95362000Y-77058000D01*
%TO.C,R6*%
X106958000Y-76708000D02*
X107728000Y-76708000D01*
X107728000Y-75338000D02*
X107728000Y-78078000D01*
X107728000Y-78078000D02*
X114268000Y-78078000D01*
X114268000Y-75338000D02*
X107728000Y-75338000D01*
X114268000Y-78078000D02*
X114268000Y-75338000D01*
X115038000Y-76708000D02*
X114268000Y-76708000D01*
%TO.C,U2*%
X113503000Y-83673000D02*
X110053000Y-83673000D01*
X113503000Y-83673000D02*
X115453000Y-83673000D01*
X113503000Y-88793000D02*
X111553000Y-88793000D01*
X113503000Y-88793000D02*
X115453000Y-88793000D01*
%TO.C,U3*%
X91634000Y-115680000D02*
X112074000Y-115680000D01*
X112074000Y-115680000D02*
X112074000Y-110380000D01*
X91634000Y-114030000D02*
X91634000Y-115680000D01*
X91634000Y-110380000D02*
X91634000Y-112030000D01*
X112074000Y-110380000D02*
X91634000Y-110380000D01*
X91634000Y-114030000D02*
G75*
G03*
X91634000Y-112030000I0J1000000D01*
G01*
%TO.C,R9*%
X216620000Y-90430000D02*
X220460000Y-90430000D01*
X216620000Y-92270000D02*
X220460000Y-92270000D01*
%TO.C,Q8*%
X192719000Y-112966000D02*
X196319000Y-112966000D01*
X194519000Y-108516000D02*
G75*
G03*
X192680522Y-112954478I0J-2600000D01*
G01*
X196357478Y-112954478D02*
G75*
G03*
X194519000Y-108516000I-1838478J1838478D01*
G01*
%TO.C,Q9*%
X183860000Y-112966000D02*
X187460000Y-112966000D01*
X185660000Y-108516000D02*
G75*
G03*
X183821522Y-112954478I0J-2600000D01*
G01*
X187498478Y-112954478D02*
G75*
G03*
X185660000Y-108516000I-1838478J1838478D01*
G01*
%TO.C,R17*%
X141320000Y-99456000D02*
X141320000Y-95616000D01*
X143160000Y-99456000D02*
X143160000Y-95616000D01*
%TO.C,R24*%
X192644000Y-99156000D02*
X196484000Y-99156000D01*
X192644000Y-100996000D02*
X196484000Y-100996000D01*
%TO.C,Q14*%
X133074000Y-97100000D02*
X136674000Y-97100000D01*
X134874000Y-92650000D02*
G75*
G03*
X133035522Y-97088478I0J-2600000D01*
G01*
X136712478Y-97088478D02*
G75*
G03*
X134874000Y-92650000I-1838478J1838478D01*
G01*
%TO.C,R11*%
X201370000Y-115530000D02*
X205210000Y-115530000D01*
X201370000Y-117370000D02*
X205210000Y-117370000D01*
%TO.C,J6*%
X82083600Y-92904000D02*
X83413600Y-92904000D01*
X82083600Y-94234000D02*
X82083600Y-92904000D01*
X82083600Y-95504000D02*
X82083600Y-105724000D01*
X82083600Y-95504000D02*
X84743600Y-95504000D01*
X82083600Y-105724000D02*
X84743600Y-105724000D01*
X84743600Y-95504000D02*
X84743600Y-105724000D01*
%TO.C,Q16*%
X192922000Y-97150000D02*
X196522000Y-97150000D01*
X194722000Y-92700000D02*
G75*
G03*
X192883522Y-97138478I0J-2600000D01*
G01*
X196560478Y-97138478D02*
G75*
G03*
X194722000Y-92700000I-1838478J1838478D01*
G01*
%TO.C,Q5*%
X216470000Y-87909200D02*
X220070000Y-87909200D01*
X218270000Y-83459200D02*
G75*
G03*
X216431522Y-87897678I0J-2600000D01*
G01*
X220108478Y-87897678D02*
G75*
G03*
X218270000Y-83459200I-1838478J1838478D01*
G01*
%TO.C,C2*%
X128518349Y-78515000D02*
X127718349Y-78515000D01*
X128118349Y-78915000D02*
X128118349Y-78115000D01*
X124108651Y-80280000D02*
X124108651Y-72120000D01*
X124068651Y-80280000D02*
X124068651Y-72120000D01*
X124028651Y-80280000D02*
X124028651Y-72120000D01*
X123988651Y-80279000D02*
X123988651Y-72121000D01*
X123948651Y-80277000D02*
X123948651Y-72123000D01*
X123908651Y-80276000D02*
X123908651Y-72124000D01*
X123868651Y-80274000D02*
X123868651Y-72126000D01*
X123828651Y-80271000D02*
X123828651Y-72129000D01*
X123788651Y-80268000D02*
X123788651Y-72132000D01*
X123748651Y-80265000D02*
X123748651Y-72135000D01*
X123708651Y-80261000D02*
X123708651Y-72139000D01*
X123668651Y-80257000D02*
X123668651Y-72143000D01*
X123628651Y-80252000D02*
X123628651Y-72148000D01*
X123588651Y-80248000D02*
X123588651Y-72152000D01*
X123548651Y-80242000D02*
X123548651Y-72158000D01*
X123508651Y-80237000D02*
X123508651Y-72163000D01*
X123468651Y-80230000D02*
X123468651Y-72170000D01*
X123428651Y-80224000D02*
X123428651Y-72176000D01*
X123387651Y-80217000D02*
X123387651Y-77240000D01*
X123387651Y-75160000D02*
X123387651Y-72183000D01*
X123347651Y-80210000D02*
X123347651Y-77240000D01*
X123347651Y-75160000D02*
X123347651Y-72190000D01*
X123307651Y-80202000D02*
X123307651Y-77240000D01*
X123307651Y-75160000D02*
X123307651Y-72198000D01*
X123267651Y-80194000D02*
X123267651Y-77240000D01*
X123267651Y-75160000D02*
X123267651Y-72206000D01*
X123227651Y-80185000D02*
X123227651Y-77240000D01*
X123227651Y-75160000D02*
X123227651Y-72215000D01*
X123187651Y-80176000D02*
X123187651Y-77240000D01*
X123187651Y-75160000D02*
X123187651Y-72224000D01*
X123147651Y-80167000D02*
X123147651Y-77240000D01*
X123147651Y-75160000D02*
X123147651Y-72233000D01*
X123107651Y-80157000D02*
X123107651Y-77240000D01*
X123107651Y-75160000D02*
X123107651Y-72243000D01*
X123067651Y-80147000D02*
X123067651Y-77240000D01*
X123067651Y-75160000D02*
X123067651Y-72253000D01*
X123027651Y-80136000D02*
X123027651Y-77240000D01*
X123027651Y-75160000D02*
X123027651Y-72264000D01*
X122987651Y-80125000D02*
X122987651Y-77240000D01*
X122987651Y-75160000D02*
X122987651Y-72275000D01*
X122947651Y-80114000D02*
X122947651Y-77240000D01*
X122947651Y-75160000D02*
X122947651Y-72286000D01*
X122907651Y-80102000D02*
X122907651Y-77240000D01*
X122907651Y-75160000D02*
X122907651Y-72298000D01*
X122867651Y-80089000D02*
X122867651Y-77240000D01*
X122867651Y-75160000D02*
X122867651Y-72311000D01*
X122827651Y-80077000D02*
X122827651Y-77240000D01*
X122827651Y-75160000D02*
X122827651Y-72323000D01*
X122787651Y-80063000D02*
X122787651Y-77240000D01*
X122787651Y-75160000D02*
X122787651Y-72337000D01*
X122747651Y-80050000D02*
X122747651Y-77240000D01*
X122747651Y-75160000D02*
X122747651Y-72350000D01*
X122707651Y-80035000D02*
X122707651Y-77240000D01*
X122707651Y-75160000D02*
X122707651Y-72365000D01*
X122667651Y-80021000D02*
X122667651Y-77240000D01*
X122667651Y-75160000D02*
X122667651Y-72379000D01*
X122627651Y-80005000D02*
X122627651Y-77240000D01*
X122627651Y-75160000D02*
X122627651Y-72395000D01*
X122587651Y-79990000D02*
X122587651Y-77240000D01*
X122587651Y-75160000D02*
X122587651Y-72410000D01*
X122547651Y-79974000D02*
X122547651Y-77240000D01*
X122547651Y-75160000D02*
X122547651Y-72426000D01*
X122507651Y-79957000D02*
X122507651Y-77240000D01*
X122507651Y-75160000D02*
X122507651Y-72443000D01*
X122467651Y-79940000D02*
X122467651Y-77240000D01*
X122467651Y-75160000D02*
X122467651Y-72460000D01*
X122427651Y-79922000D02*
X122427651Y-77240000D01*
X122427651Y-75160000D02*
X122427651Y-72478000D01*
X122387651Y-79904000D02*
X122387651Y-77240000D01*
X122387651Y-75160000D02*
X122387651Y-72496000D01*
X122347651Y-79886000D02*
X122347651Y-77240000D01*
X122347651Y-75160000D02*
X122347651Y-72514000D01*
X122307651Y-79866000D02*
X122307651Y-77240000D01*
X122307651Y-75160000D02*
X122307651Y-72534000D01*
X122267651Y-79847000D02*
X122267651Y-77240000D01*
X122267651Y-75160000D02*
X122267651Y-72553000D01*
X122227651Y-79827000D02*
X122227651Y-77240000D01*
X122227651Y-75160000D02*
X122227651Y-72573000D01*
X122187651Y-79806000D02*
X122187651Y-77240000D01*
X122187651Y-75160000D02*
X122187651Y-72594000D01*
X122147651Y-79784000D02*
X122147651Y-77240000D01*
X122147651Y-75160000D02*
X122147651Y-72616000D01*
X122107651Y-79762000D02*
X122107651Y-77240000D01*
X122107651Y-75160000D02*
X122107651Y-72638000D01*
X122067651Y-79740000D02*
X122067651Y-77240000D01*
X122067651Y-75160000D02*
X122067651Y-72660000D01*
X122027651Y-79717000D02*
X122027651Y-77240000D01*
X122027651Y-75160000D02*
X122027651Y-72683000D01*
X121987651Y-79693000D02*
X121987651Y-77240000D01*
X121987651Y-75160000D02*
X121987651Y-72707000D01*
X121947651Y-79669000D02*
X121947651Y-77240000D01*
X121947651Y-75160000D02*
X121947651Y-72731000D01*
X121907651Y-79644000D02*
X121907651Y-77240000D01*
X121907651Y-75160000D02*
X121907651Y-72756000D01*
X121867651Y-79618000D02*
X121867651Y-77240000D01*
X121867651Y-75160000D02*
X121867651Y-72782000D01*
X121827651Y-79592000D02*
X121827651Y-77240000D01*
X121827651Y-75160000D02*
X121827651Y-72808000D01*
X121787651Y-79565000D02*
X121787651Y-77240000D01*
X121787651Y-75160000D02*
X121787651Y-72835000D01*
X121747651Y-79538000D02*
X121747651Y-77240000D01*
X121747651Y-75160000D02*
X121747651Y-72862000D01*
X121707651Y-79509000D02*
X121707651Y-77240000D01*
X121707651Y-75160000D02*
X121707651Y-72891000D01*
X121667651Y-79480000D02*
X121667651Y-77240000D01*
X121667651Y-75160000D02*
X121667651Y-72920000D01*
X121627651Y-79450000D02*
X121627651Y-77240000D01*
X121627651Y-75160000D02*
X121627651Y-72950000D01*
X121587651Y-79420000D02*
X121587651Y-77240000D01*
X121587651Y-75160000D02*
X121587651Y-72980000D01*
X121547651Y-79389000D02*
X121547651Y-77240000D01*
X121547651Y-75160000D02*
X121547651Y-73011000D01*
X121507651Y-79356000D02*
X121507651Y-77240000D01*
X121507651Y-75160000D02*
X121507651Y-73044000D01*
X121467651Y-79324000D02*
X121467651Y-77240000D01*
X121467651Y-75160000D02*
X121467651Y-73076000D01*
X121427651Y-79290000D02*
X121427651Y-77240000D01*
X121427651Y-75160000D02*
X121427651Y-73110000D01*
X121387651Y-79255000D02*
X121387651Y-77240000D01*
X121387651Y-75160000D02*
X121387651Y-73145000D01*
X121347651Y-79219000D02*
X121347651Y-77240000D01*
X121347651Y-75160000D02*
X121347651Y-73181000D01*
X121307651Y-79183000D02*
X121307651Y-73217000D01*
X121267651Y-79145000D02*
X121267651Y-73255000D01*
X121227651Y-79107000D02*
X121227651Y-73293000D01*
X121187651Y-79067000D02*
X121187651Y-73333000D01*
X121147651Y-79026000D02*
X121147651Y-73374000D01*
X121107651Y-78984000D02*
X121107651Y-73416000D01*
X121067651Y-78941000D02*
X121067651Y-73459000D01*
X121027651Y-78897000D02*
X121027651Y-73503000D01*
X120987651Y-78851000D02*
X120987651Y-73549000D01*
X120947651Y-78804000D02*
X120947651Y-73596000D01*
X120907651Y-78756000D02*
X120907651Y-73644000D01*
X120867651Y-78705000D02*
X120867651Y-73695000D01*
X120827651Y-78654000D02*
X120827651Y-73746000D01*
X120787651Y-78600000D02*
X120787651Y-73800000D01*
X120747651Y-78545000D02*
X120747651Y-73855000D01*
X120707651Y-78487000D02*
X120707651Y-73913000D01*
X120667651Y-78428000D02*
X120667651Y-73972000D01*
X120627651Y-78366000D02*
X120627651Y-74034000D01*
X120587651Y-78302000D02*
X120587651Y-74098000D01*
X120547651Y-78234000D02*
X120547651Y-74166000D01*
X120507651Y-78164000D02*
X120507651Y-74236000D01*
X120467651Y-78090000D02*
X120467651Y-74310000D01*
X120427651Y-78013000D02*
X120427651Y-74387000D01*
X120387651Y-77931000D02*
X120387651Y-74469000D01*
X120347651Y-77845000D02*
X120347651Y-74555000D01*
X120307651Y-77752000D02*
X120307651Y-74648000D01*
X120267651Y-77653000D02*
X120267651Y-74747000D01*
X120227651Y-77546000D02*
X120227651Y-74854000D01*
X120187651Y-77429000D02*
X120187651Y-74971000D01*
X120147651Y-77298000D02*
X120147651Y-75102000D01*
X120107651Y-77148000D02*
X120107651Y-75252000D01*
X120067651Y-76968000D02*
X120067651Y-75432000D01*
X120027651Y-76733000D02*
X120027651Y-75667000D01*
X128228651Y-76200000D02*
G75*
G03*
X128228651Y-76200000I-4120000J0D01*
G01*
%TO.C,C1*%
X104798000Y-88234000D02*
X104863000Y-88234000D01*
X104798000Y-88234000D02*
X104798000Y-84994000D01*
X106973000Y-88234000D02*
X107038000Y-88234000D01*
X107038000Y-88234000D02*
X107038000Y-84994000D01*
X104798000Y-84994000D02*
X104863000Y-84994000D01*
X106973000Y-84994000D02*
X107038000Y-84994000D01*
%TO.C,R1*%
X145130000Y-99456000D02*
X145130000Y-95616000D01*
X146970000Y-99456000D02*
X146970000Y-95616000D01*
%TO.C,J4*%
X172400000Y-102200000D02*
X172400000Y-90200000D01*
X172400000Y-102200000D02*
X184400000Y-102200000D01*
X184400000Y-90200000D02*
X172400000Y-90200000D01*
X184400000Y-102200000D02*
X184400000Y-90200000D01*
%TO.C,G\u002A\u002A\u002A*%
G36*
X145000896Y-77097643D02*
G01*
X145314428Y-77097643D01*
X145320775Y-77234461D01*
X145347169Y-77443215D01*
X145391691Y-77645532D01*
X145453877Y-77840581D01*
X145533265Y-78027530D01*
X145629389Y-78205546D01*
X145741786Y-78373799D01*
X145869993Y-78531456D01*
X146013546Y-78677686D01*
X146171981Y-78811657D01*
X146220230Y-78847795D01*
X146261762Y-78876906D01*
X146308946Y-78908100D01*
X146358960Y-78939724D01*
X146408985Y-78970126D01*
X146456200Y-78997654D01*
X146497786Y-79020655D01*
X146530920Y-79037476D01*
X146552784Y-79046467D01*
X146560207Y-79046971D01*
X146563590Y-79037348D01*
X146572292Y-79010633D01*
X146585820Y-78968392D01*
X146603681Y-78912185D01*
X146625379Y-78843577D01*
X146650422Y-78764131D01*
X146678315Y-78675409D01*
X146708563Y-78578974D01*
X146740674Y-78476389D01*
X146751995Y-78440173D01*
X146940626Y-77836532D01*
X146858615Y-77758902D01*
X146768600Y-77660912D01*
X146694605Y-77553610D01*
X146636854Y-77438836D01*
X146595571Y-77318433D01*
X146570977Y-77194242D01*
X146563296Y-77068104D01*
X146572751Y-76941862D01*
X146599565Y-76817355D01*
X146643962Y-76696427D01*
X146706162Y-76580918D01*
X146714428Y-76568125D01*
X146758479Y-76508878D01*
X146813668Y-76446310D01*
X146874724Y-76385694D01*
X146936372Y-76332304D01*
X146987115Y-76295365D01*
X147088797Y-76239013D01*
X147200364Y-76193834D01*
X147316445Y-76161451D01*
X147431667Y-76143489D01*
X147500000Y-76140307D01*
X147612011Y-76148560D01*
X147728197Y-76172236D01*
X147843184Y-76209711D01*
X147951601Y-76259361D01*
X148012884Y-76295365D01*
X148070668Y-76337981D01*
X148132518Y-76392483D01*
X148193162Y-76453598D01*
X148247325Y-76516051D01*
X148285571Y-76568125D01*
X148349830Y-76682904D01*
X148396256Y-76803309D01*
X148425072Y-76927500D01*
X148436502Y-77053636D01*
X148430767Y-77179879D01*
X148408091Y-77304386D01*
X148368697Y-77425319D01*
X148312808Y-77540838D01*
X148240647Y-77649101D01*
X148152436Y-77748269D01*
X148141305Y-77758977D01*
X148059216Y-77836681D01*
X148229064Y-78378167D01*
X148260729Y-78479163D01*
X148291165Y-78576319D01*
X148319772Y-78667722D01*
X148345954Y-78751458D01*
X148369112Y-78825615D01*
X148388650Y-78888277D01*
X148403969Y-78937533D01*
X148414472Y-78971468D01*
X148418775Y-78985536D01*
X148438638Y-79051419D01*
X148499299Y-79021056D01*
X148651996Y-78934985D01*
X148801609Y-78831839D01*
X148945212Y-78714084D01*
X149079882Y-78584183D01*
X149202693Y-78444600D01*
X149239993Y-78397000D01*
X149355781Y-78229027D01*
X149454367Y-78053051D01*
X149535632Y-77870346D01*
X149599456Y-77682185D01*
X149645721Y-77489841D01*
X149674308Y-77294588D01*
X149685097Y-77097699D01*
X149677969Y-76900447D01*
X149652805Y-76704106D01*
X149609485Y-76509950D01*
X149547891Y-76319251D01*
X149467903Y-76133284D01*
X149454431Y-76106115D01*
X149350961Y-75921835D01*
X149233475Y-75751034D01*
X149102358Y-75594063D01*
X148957993Y-75451272D01*
X148800762Y-75323011D01*
X148631051Y-75209629D01*
X148449241Y-75111476D01*
X148287334Y-75041007D01*
X148104967Y-74978978D01*
X147919364Y-74934574D01*
X147728086Y-74907349D01*
X147528697Y-74896856D01*
X147500000Y-74896697D01*
X147292453Y-74905627D01*
X147091999Y-74932525D01*
X146897685Y-74977557D01*
X146747769Y-75026105D01*
X146618234Y-75079633D01*
X146483723Y-75146546D01*
X146349719Y-75223729D01*
X146221709Y-75308066D01*
X146127423Y-75378496D01*
X145980012Y-75507775D01*
X145845478Y-75650705D01*
X145724501Y-75805719D01*
X145617762Y-75971251D01*
X145525941Y-76145736D01*
X145449718Y-76327607D01*
X145389776Y-76515300D01*
X145346793Y-76707247D01*
X145321450Y-76901884D01*
X145314428Y-77097643D01*
X145000896Y-77097643D01*
X145006016Y-76902615D01*
X145031057Y-76681648D01*
X145058745Y-76532805D01*
X145105115Y-76356756D01*
X145168288Y-76178216D01*
X145246499Y-76000783D01*
X145337986Y-75828055D01*
X145440985Y-75663629D01*
X145553732Y-75511102D01*
X145568446Y-75493024D01*
X145674774Y-75373491D01*
X145795556Y-75254668D01*
X145926019Y-75140749D01*
X146061391Y-75035932D01*
X146181153Y-74954322D01*
X146230983Y-74924741D01*
X146294164Y-74890387D01*
X146365860Y-74853623D01*
X146441233Y-74816809D01*
X146515448Y-74782308D01*
X146583667Y-74752482D01*
X146641052Y-74729693D01*
X146641432Y-74729554D01*
X146734961Y-74698261D01*
X146841078Y-74667811D01*
X146952855Y-74639977D01*
X147063363Y-74616532D01*
X147128769Y-74604885D01*
X147215826Y-74593878D01*
X147316840Y-74586366D01*
X147426543Y-74582348D01*
X147539669Y-74581824D01*
X147650951Y-74584795D01*
X147755122Y-74591260D01*
X147846915Y-74601219D01*
X147871230Y-74604885D01*
X148054817Y-74640564D01*
X148226797Y-74686548D01*
X148393210Y-74744752D01*
X148560098Y-74817094D01*
X148599038Y-74835863D01*
X148771332Y-74928029D01*
X148929926Y-75029446D01*
X149079632Y-75143492D01*
X149225267Y-75273543D01*
X149231070Y-75279120D01*
X149385658Y-75441225D01*
X149523543Y-75613426D01*
X149644596Y-75795475D01*
X149748689Y-75987125D01*
X149835696Y-76188131D01*
X149905490Y-76398245D01*
X149957942Y-76617220D01*
X149976595Y-76723305D01*
X149985275Y-76793638D01*
X149991984Y-76877705D01*
X149996564Y-76969787D01*
X149998859Y-77064163D01*
X149998710Y-77155114D01*
X149995959Y-77236919D01*
X149992158Y-77288192D01*
X149961595Y-77510065D01*
X149914318Y-77722711D01*
X149849837Y-77927390D01*
X149767663Y-78125358D01*
X149667308Y-78317873D01*
X149548281Y-78506192D01*
X149482923Y-78597413D01*
X149401978Y-78697410D01*
X149306419Y-78800670D01*
X149200003Y-78903802D01*
X149086485Y-79003415D01*
X148969624Y-79096121D01*
X148853175Y-79178528D01*
X148804192Y-79209936D01*
X148744475Y-79245279D01*
X148679566Y-79280839D01*
X148612453Y-79315245D01*
X148546124Y-79347129D01*
X148483564Y-79375122D01*
X148427763Y-79397856D01*
X148381706Y-79413961D01*
X148348381Y-79422069D01*
X148339686Y-79422769D01*
X148294048Y-79414148D01*
X148250268Y-79390985D01*
X148218412Y-79360336D01*
X148212346Y-79346937D01*
X148201077Y-79316573D01*
X148185146Y-79270951D01*
X148165095Y-79211781D01*
X148141467Y-79140772D01*
X148114802Y-79059632D01*
X148085644Y-78970071D01*
X148054534Y-78873796D01*
X148022014Y-78772518D01*
X147988625Y-78667944D01*
X147954911Y-78561783D01*
X147921412Y-78455745D01*
X147888671Y-78351538D01*
X147857229Y-78250871D01*
X147827629Y-78155453D01*
X147800413Y-78066992D01*
X147776122Y-77987197D01*
X147755298Y-77917778D01*
X147738484Y-77860442D01*
X147726221Y-77816899D01*
X147719051Y-77788858D01*
X147717505Y-77780894D01*
X147719771Y-77733465D01*
X147740099Y-77688774D01*
X147779029Y-77645941D01*
X147819327Y-77615461D01*
X147909262Y-77544972D01*
X147984262Y-77464498D01*
X148043712Y-77375830D01*
X148087001Y-77280757D01*
X148113516Y-77181069D01*
X148122644Y-77078556D01*
X148113773Y-76975007D01*
X148086289Y-76872213D01*
X148079706Y-76854904D01*
X148030009Y-76754716D01*
X147966392Y-76667461D01*
X147890311Y-76594131D01*
X147803222Y-76535718D01*
X147706583Y-76493216D01*
X147601849Y-76467617D01*
X147500000Y-76459847D01*
X147391817Y-76468737D01*
X147291330Y-76494287D01*
X147199489Y-76534825D01*
X147117244Y-76588673D01*
X147045543Y-76654158D01*
X146985338Y-76729604D01*
X146937577Y-76813337D01*
X146903210Y-76903680D01*
X146883187Y-76998959D01*
X146878457Y-77097498D01*
X146889970Y-77197623D01*
X146918676Y-77297659D01*
X146965524Y-77395930D01*
X146967451Y-77399226D01*
X147015923Y-77467453D01*
X147079142Y-77534452D01*
X147152606Y-77595660D01*
X147180788Y-77615461D01*
X147233636Y-77657650D01*
X147267442Y-77701094D01*
X147282697Y-77746590D01*
X147282530Y-77780630D01*
X147278271Y-77799752D01*
X147268633Y-77835283D01*
X147254158Y-77885512D01*
X147235387Y-77948731D01*
X147212862Y-78023232D01*
X147187125Y-78107306D01*
X147158718Y-78199245D01*
X147128183Y-78297340D01*
X147096061Y-78399883D01*
X147062895Y-78505164D01*
X147029226Y-78611477D01*
X146995596Y-78717111D01*
X146962547Y-78820360D01*
X146930620Y-78919513D01*
X146900359Y-79012863D01*
X146872303Y-79098700D01*
X146846996Y-79175318D01*
X146824979Y-79241006D01*
X146806794Y-79294056D01*
X146792983Y-79332761D01*
X146784088Y-79355411D01*
X146781540Y-79360336D01*
X146745572Y-79393950D01*
X146700301Y-79415845D01*
X146658369Y-79422396D01*
X146635850Y-79418417D01*
X146600959Y-79407969D01*
X146559057Y-79392791D01*
X146527961Y-79380085D01*
X146361343Y-79302595D01*
X146208887Y-79218563D01*
X146066436Y-79125163D01*
X145929829Y-79019565D01*
X145794909Y-78898942D01*
X145736443Y-78841817D01*
X145606777Y-78703694D01*
X145493245Y-78564169D01*
X145392671Y-78418837D01*
X145301883Y-78263292D01*
X145257625Y-78177192D01*
X145168264Y-77974275D01*
X145097763Y-77766643D01*
X145046205Y-77554978D01*
X145013673Y-77339963D01*
X145000249Y-77122281D01*
X145000896Y-77097643D01*
G37*
%TO.C,R8*%
X216620000Y-102413200D02*
X220460000Y-102413200D01*
X216620000Y-104253200D02*
X220460000Y-104253200D01*
%TO.C,R12*%
X192345000Y-115530000D02*
X196185000Y-115530000D01*
X192345000Y-117370000D02*
X196185000Y-117370000D01*
%TO.C,G\u002A\u002A\u002A*%
G36*
X183675346Y-77000000D02*
G01*
X183675346Y-77776529D01*
X183512181Y-77792254D01*
X183378138Y-77783904D01*
X183322873Y-77739851D01*
X183314454Y-77667378D01*
X183309134Y-77514659D01*
X183307219Y-77301604D01*
X183309017Y-77048127D01*
X183310693Y-76947598D01*
X183324655Y-76223472D01*
X183500000Y-76223472D01*
X183675346Y-76223472D01*
X183675346Y-77000000D01*
G37*
G36*
X183617522Y-78134975D02*
G01*
X183665719Y-78178730D01*
X183675324Y-78289218D01*
X183675346Y-78302565D01*
X183666106Y-78421582D01*
X183619320Y-78474292D01*
X183512181Y-78493634D01*
X183373119Y-78483680D01*
X183320349Y-78434654D01*
X183303986Y-78326200D01*
X183308169Y-78243585D01*
X183337462Y-78163358D01*
X183414857Y-78131268D01*
X183500000Y-78127219D01*
X183617522Y-78134975D01*
G37*
G36*
X181108505Y-78850660D02*
G01*
X181318885Y-78850660D01*
X181319044Y-78850953D01*
X181375312Y-78865740D01*
X181525083Y-78878059D01*
X181769533Y-78887939D01*
X182109836Y-78895406D01*
X182547167Y-78900491D01*
X183082701Y-78903222D01*
X183500000Y-78903748D01*
X184102441Y-78902590D01*
X184605886Y-78899096D01*
X185011511Y-78893239D01*
X185320489Y-78884989D01*
X185533997Y-78874319D01*
X185653208Y-78861200D01*
X185680957Y-78850953D01*
X185664682Y-78796349D01*
X185603529Y-78666403D01*
X185503687Y-78471981D01*
X185371341Y-78223949D01*
X185212681Y-77933172D01*
X185033895Y-77610517D01*
X184841168Y-77266848D01*
X184640691Y-76913033D01*
X184438649Y-76559937D01*
X184241231Y-76218425D01*
X184054625Y-75899364D01*
X183885018Y-75613620D01*
X183738598Y-75372058D01*
X183621553Y-75185544D01*
X183540069Y-75064944D01*
X183500336Y-75021124D01*
X183500000Y-75021105D01*
X183461193Y-75063229D01*
X183380507Y-75182356D01*
X183264132Y-75367622D01*
X183118255Y-75608159D01*
X182949063Y-75893103D01*
X182762745Y-76211587D01*
X182565487Y-76552746D01*
X182363479Y-76905713D01*
X182162906Y-77259623D01*
X181969958Y-77603610D01*
X181790821Y-77926808D01*
X181631684Y-78218351D01*
X181498735Y-78467374D01*
X181398160Y-78663010D01*
X181336147Y-78794394D01*
X181318885Y-78850660D01*
X181108505Y-78850660D01*
X181095267Y-78801978D01*
X181119226Y-78741503D01*
X181187009Y-78605156D01*
X181292469Y-78403913D01*
X181429463Y-78148752D01*
X181591845Y-77850650D01*
X181773472Y-77520582D01*
X181968198Y-77169526D01*
X182169879Y-76808459D01*
X182372370Y-76448357D01*
X182569527Y-76100198D01*
X182755205Y-75774957D01*
X182923260Y-75483613D01*
X183067546Y-75237141D01*
X183181919Y-75046519D01*
X183260235Y-74922723D01*
X183288856Y-74883334D01*
X183395737Y-74816177D01*
X183500000Y-74795661D01*
X183630648Y-74827132D01*
X183711145Y-74883334D01*
X183762783Y-74957906D01*
X183854464Y-75106426D01*
X183980045Y-75317917D01*
X184133380Y-75581402D01*
X184308325Y-75885903D01*
X184498735Y-76220445D01*
X184698466Y-76574050D01*
X184901372Y-76935741D01*
X185101311Y-77294542D01*
X185292136Y-77639477D01*
X185467703Y-77959567D01*
X185621867Y-78243837D01*
X185748484Y-78481309D01*
X185841410Y-78661007D01*
X185894499Y-78771953D01*
X185904734Y-78801978D01*
X185870679Y-78912318D01*
X185804537Y-79003945D01*
X185777483Y-79027926D01*
X185742630Y-79047742D01*
X185690854Y-79063791D01*
X185613032Y-79076468D01*
X185500039Y-79086171D01*
X185342753Y-79093297D01*
X185132050Y-79098241D01*
X184858805Y-79101401D01*
X184513897Y-79103173D01*
X184088200Y-79103954D01*
X183572592Y-79104141D01*
X183500000Y-79104142D01*
X182972286Y-79104003D01*
X182535644Y-79103319D01*
X182180953Y-79101695D01*
X181899088Y-79098734D01*
X181680926Y-79094039D01*
X181517343Y-79087214D01*
X181399216Y-79077861D01*
X181317421Y-79065584D01*
X181262834Y-79049987D01*
X181226333Y-79030673D01*
X181198793Y-79007245D01*
X181195464Y-79003945D01*
X181120358Y-78894250D01*
X181108505Y-78850660D01*
G37*
%TO.C,U4*%
X116526000Y-115680000D02*
X136966000Y-115680000D01*
X136966000Y-115680000D02*
X136966000Y-110380000D01*
X116526000Y-114030000D02*
X116526000Y-115680000D01*
X116526000Y-110380000D02*
X116526000Y-112030000D01*
X136966000Y-110380000D02*
X116526000Y-110380000D01*
X116526000Y-114030000D02*
G75*
G03*
X116526000Y-112030000I0J1000000D01*
G01*
%TO.C,Q15*%
X164824000Y-97100000D02*
X168424000Y-97100000D01*
X166624000Y-92650000D02*
G75*
G03*
X164785522Y-97088478I0J-2600000D01*
G01*
X168462478Y-97088478D02*
G75*
G03*
X166624000Y-92650000I-1838478J1838478D01*
G01*
%TO.C,J5*%
X199900000Y-102200000D02*
X199900000Y-90200000D01*
X199900000Y-102200000D02*
X211900000Y-102200000D01*
X211900000Y-90200000D02*
X199900000Y-90200000D01*
X211900000Y-102200000D02*
X211900000Y-90200000D01*
%TO.C,J3*%
X117400000Y-102200000D02*
X117400000Y-90200000D01*
X117400000Y-102200000D02*
X129400000Y-102200000D01*
X129400000Y-90200000D02*
X117400000Y-90200000D01*
X129400000Y-102200000D02*
X129400000Y-90200000D01*
%TO.C,NE1*%
X149570000Y-97470000D02*
X149570000Y-100070000D01*
X149570000Y-97470000D02*
X152230000Y-97470000D01*
X149570000Y-100070000D02*
X152230000Y-100070000D01*
X150900000Y-94870000D02*
X152230000Y-94870000D01*
X152230000Y-94870000D02*
X152230000Y-96200000D01*
X152230000Y-97470000D02*
X152230000Y-100070000D01*
%TO.C,J2*%
X89900000Y-102200000D02*
X89900000Y-90200000D01*
X89900000Y-102200000D02*
X101900000Y-102200000D01*
X101900000Y-90200000D02*
X89900000Y-90200000D01*
X101900000Y-102200000D02*
X101900000Y-90200000D01*
%TO.C,Q11*%
X158275000Y-113066000D02*
X161875000Y-113066000D01*
X160075000Y-108616000D02*
G75*
G03*
X158236522Y-113054478I0J-2600000D01*
G01*
X161913478Y-113054478D02*
G75*
G03*
X160075000Y-108616000I-1838478J1838478D01*
G01*
%TO.C,U1*%
X92928000Y-80410000D02*
X98938000Y-80410000D01*
X95178000Y-87230000D02*
X98938000Y-87230000D01*
X98938000Y-80410000D02*
X98938000Y-81670000D01*
X98938000Y-87230000D02*
X98938000Y-85970000D01*
%TO.C,R21*%
X83678000Y-115666000D02*
X87518000Y-115666000D01*
X83678000Y-117506000D02*
X87518000Y-117506000D01*
%TO.C,R16*%
X166530000Y-115605000D02*
X170370000Y-115605000D01*
X166530000Y-117445000D02*
X170370000Y-117445000D01*
%TO.C,Q7*%
X201505000Y-112950000D02*
X205105000Y-112950000D01*
X203305000Y-108500000D02*
G75*
G03*
X201466522Y-112938478I0J-2600000D01*
G01*
X205143478Y-112938478D02*
G75*
G03*
X203305000Y-108500000I-1838478J1838478D01*
G01*
%TO.C,Q12*%
X166675000Y-113025000D02*
X170275000Y-113025000D01*
X168475000Y-108575000D02*
G75*
G03*
X166636522Y-113013478I0J-2600000D01*
G01*
X170313478Y-113013478D02*
G75*
G03*
X168475000Y-108575000I-1838478J1838478D01*
G01*
%TO.C,R19*%
X78582000Y-114442000D02*
X78582000Y-110602000D01*
X80422000Y-114442000D02*
X80422000Y-110602000D01*
%TO.C,Q3*%
X149740000Y-113200000D02*
X153340000Y-113200000D01*
X151540000Y-108750000D02*
G75*
G03*
X149701522Y-113188478I0J-2600000D01*
G01*
X153378478Y-113188478D02*
G75*
G03*
X151540000Y-108750000I-1838478J1838478D01*
G01*
%TO.C,R2*%
X141082000Y-115666000D02*
X144922000Y-115666000D01*
X141082000Y-117506000D02*
X144922000Y-117506000D01*
%TO.C,R18*%
X187802000Y-97932000D02*
X187802000Y-94092000D01*
X189642000Y-97932000D02*
X189642000Y-94092000D01*
%TO.C,J1*%
X75258000Y-78712000D02*
X89958000Y-78712000D01*
X75258000Y-87912000D02*
X75258000Y-78712000D01*
X84058000Y-87912000D02*
X75258000Y-87912000D01*
X89108000Y-78512000D02*
X90158000Y-78512000D01*
X89958000Y-78712000D02*
X89958000Y-81312000D01*
X89958000Y-85212000D02*
X89958000Y-87912000D01*
X89958000Y-87912000D02*
X88058000Y-87912000D01*
X90158000Y-79562000D02*
X90158000Y-78512000D01*
%TO.C,Q4*%
X216470000Y-99900000D02*
X220070000Y-99900000D01*
X218270000Y-95450000D02*
G75*
G03*
X216431522Y-99888478I0J-2600000D01*
G01*
X220108478Y-99888478D02*
G75*
G03*
X218270000Y-95450000I-1838478J1838478D01*
G01*
%TO.C,R15*%
X158155000Y-115630000D02*
X161995000Y-115630000D01*
X158155000Y-117470000D02*
X161995000Y-117470000D01*
%TO.C,R14*%
X174905000Y-115555000D02*
X178745000Y-115555000D01*
X174905000Y-117395000D02*
X178745000Y-117395000D01*
%TO.C,R20*%
X160116000Y-97932000D02*
X160116000Y-94092000D01*
X161956000Y-97932000D02*
X161956000Y-94092000D01*
%TO.C,Q10*%
X175030000Y-113025000D02*
X178630000Y-113025000D01*
X176830000Y-108575000D02*
G75*
G03*
X174991522Y-113013478I0J-2600000D01*
G01*
X178668478Y-113013478D02*
G75*
G03*
X176830000Y-108575000I-1838478J1838478D01*
G01*
%TO.C,R22*%
X132954000Y-99156000D02*
X136794000Y-99156000D01*
X132954000Y-100996000D02*
X136794000Y-100996000D01*
%TO.C,R23*%
X164450000Y-99664000D02*
X168290000Y-99664000D01*
X164450000Y-101504000D02*
X168290000Y-101504000D01*
%TO.C,Q1*%
X141202000Y-113208000D02*
X144802000Y-113208000D01*
X143002000Y-108758000D02*
G75*
G03*
X141163522Y-113196478I0J-2600000D01*
G01*
X144840478Y-113196478D02*
G75*
G03*
X143002000Y-108758000I-1838478J1838478D01*
G01*
%TO.C,Q13*%
X83798000Y-113610000D02*
X87398000Y-113610000D01*
X85598000Y-109160000D02*
G75*
G03*
X83759522Y-113598478I0J-2600000D01*
G01*
X87436478Y-113598478D02*
G75*
G03*
X85598000Y-109160000I-1838478J1838478D01*
G01*
%TO.C,Q6*%
X210316400Y-112978800D02*
X213916400Y-112978800D01*
X212116400Y-108528800D02*
G75*
G03*
X210277922Y-112967278I0J-2600000D01*
G01*
X213954878Y-112967278D02*
G75*
G03*
X212116400Y-108528800I-1838478J1838478D01*
G01*
%TO.C,R7*%
X149620000Y-115655000D02*
X153460000Y-115655000D01*
X149620000Y-117495000D02*
X153460000Y-117495000D01*
%TO.C,R10*%
X210105000Y-115505000D02*
X213945000Y-115505000D01*
X210105000Y-117345000D02*
X213945000Y-117345000D01*
%TO.C,R13*%
X183740000Y-115530000D02*
X187580000Y-115530000D01*
X183740000Y-117370000D02*
X187580000Y-117370000D01*
%TO.C,C3*%
X139161698Y-78515000D02*
X138361698Y-78515000D01*
X138761698Y-78915000D02*
X138761698Y-78115000D01*
X134752000Y-80280000D02*
X134752000Y-72120000D01*
X134712000Y-80280000D02*
X134712000Y-72120000D01*
X134672000Y-80280000D02*
X134672000Y-72120000D01*
X134632000Y-80279000D02*
X134632000Y-72121000D01*
X134592000Y-80277000D02*
X134592000Y-72123000D01*
X134552000Y-80276000D02*
X134552000Y-72124000D01*
X134512000Y-80274000D02*
X134512000Y-72126000D01*
X134472000Y-80271000D02*
X134472000Y-72129000D01*
X134432000Y-80268000D02*
X134432000Y-72132000D01*
X134392000Y-80265000D02*
X134392000Y-72135000D01*
X134352000Y-80261000D02*
X134352000Y-72139000D01*
X134312000Y-80257000D02*
X134312000Y-72143000D01*
X134272000Y-80252000D02*
X134272000Y-72148000D01*
X134232000Y-80248000D02*
X134232000Y-72152000D01*
X134192000Y-80242000D02*
X134192000Y-72158000D01*
X134152000Y-80237000D02*
X134152000Y-72163000D01*
X134112000Y-80230000D02*
X134112000Y-72170000D01*
X134072000Y-80224000D02*
X134072000Y-72176000D01*
X134031000Y-80217000D02*
X134031000Y-72183000D01*
X133991000Y-80210000D02*
X133991000Y-72190000D01*
X133951000Y-80202000D02*
X133951000Y-72198000D01*
X133911000Y-80194000D02*
X133911000Y-72206000D01*
X133871000Y-80185000D02*
X133871000Y-77240000D01*
X133871000Y-75160000D02*
X133871000Y-72215000D01*
X133831000Y-80176000D02*
X133831000Y-77240000D01*
X133831000Y-75160000D02*
X133831000Y-72224000D01*
X133791000Y-80167000D02*
X133791000Y-77240000D01*
X133791000Y-75160000D02*
X133791000Y-72233000D01*
X133751000Y-80157000D02*
X133751000Y-77240000D01*
X133751000Y-75160000D02*
X133751000Y-72243000D01*
X133711000Y-80147000D02*
X133711000Y-77240000D01*
X133711000Y-75160000D02*
X133711000Y-72253000D01*
X133671000Y-80136000D02*
X133671000Y-77240000D01*
X133671000Y-75160000D02*
X133671000Y-72264000D01*
X133631000Y-80125000D02*
X133631000Y-77240000D01*
X133631000Y-75160000D02*
X133631000Y-72275000D01*
X133591000Y-80114000D02*
X133591000Y-77240000D01*
X133591000Y-75160000D02*
X133591000Y-72286000D01*
X133551000Y-80102000D02*
X133551000Y-77240000D01*
X133551000Y-75160000D02*
X133551000Y-72298000D01*
X133511000Y-80089000D02*
X133511000Y-77240000D01*
X133511000Y-75160000D02*
X133511000Y-72311000D01*
X133471000Y-80077000D02*
X133471000Y-77240000D01*
X133471000Y-75160000D02*
X133471000Y-72323000D01*
X133431000Y-80063000D02*
X133431000Y-77240000D01*
X133431000Y-75160000D02*
X133431000Y-72337000D01*
X133391000Y-80050000D02*
X133391000Y-77240000D01*
X133391000Y-75160000D02*
X133391000Y-72350000D01*
X133351000Y-80035000D02*
X133351000Y-77240000D01*
X133351000Y-75160000D02*
X133351000Y-72365000D01*
X133311000Y-80021000D02*
X133311000Y-77240000D01*
X133311000Y-75160000D02*
X133311000Y-72379000D01*
X133271000Y-80005000D02*
X133271000Y-77240000D01*
X133271000Y-75160000D02*
X133271000Y-72395000D01*
X133231000Y-79990000D02*
X133231000Y-77240000D01*
X133231000Y-75160000D02*
X133231000Y-72410000D01*
X133191000Y-79974000D02*
X133191000Y-77240000D01*
X133191000Y-75160000D02*
X133191000Y-72426000D01*
X133151000Y-79957000D02*
X133151000Y-77240000D01*
X133151000Y-75160000D02*
X133151000Y-72443000D01*
X133111000Y-79940000D02*
X133111000Y-77240000D01*
X133111000Y-75160000D02*
X133111000Y-72460000D01*
X133071000Y-79922000D02*
X133071000Y-77240000D01*
X133071000Y-75160000D02*
X133071000Y-72478000D01*
X133031000Y-79904000D02*
X133031000Y-77240000D01*
X133031000Y-75160000D02*
X133031000Y-72496000D01*
X132991000Y-79886000D02*
X132991000Y-77240000D01*
X132991000Y-75160000D02*
X132991000Y-72514000D01*
X132951000Y-79866000D02*
X132951000Y-77240000D01*
X132951000Y-75160000D02*
X132951000Y-72534000D01*
X132911000Y-79847000D02*
X132911000Y-77240000D01*
X132911000Y-75160000D02*
X132911000Y-72553000D01*
X132871000Y-79827000D02*
X132871000Y-77240000D01*
X132871000Y-75160000D02*
X132871000Y-72573000D01*
X132831000Y-79806000D02*
X132831000Y-77240000D01*
X132831000Y-75160000D02*
X132831000Y-72594000D01*
X132791000Y-79784000D02*
X132791000Y-77240000D01*
X132791000Y-75160000D02*
X132791000Y-72616000D01*
X132751000Y-79762000D02*
X132751000Y-77240000D01*
X132751000Y-75160000D02*
X132751000Y-72638000D01*
X132711000Y-79740000D02*
X132711000Y-77240000D01*
X132711000Y-75160000D02*
X132711000Y-72660000D01*
X132671000Y-79717000D02*
X132671000Y-77240000D01*
X132671000Y-75160000D02*
X132671000Y-72683000D01*
X132631000Y-79693000D02*
X132631000Y-77240000D01*
X132631000Y-75160000D02*
X132631000Y-72707000D01*
X132591000Y-79669000D02*
X132591000Y-77240000D01*
X132591000Y-75160000D02*
X132591000Y-72731000D01*
X132551000Y-79644000D02*
X132551000Y-77240000D01*
X132551000Y-75160000D02*
X132551000Y-72756000D01*
X132511000Y-79618000D02*
X132511000Y-77240000D01*
X132511000Y-75160000D02*
X132511000Y-72782000D01*
X132471000Y-79592000D02*
X132471000Y-77240000D01*
X132471000Y-75160000D02*
X132471000Y-72808000D01*
X132431000Y-79565000D02*
X132431000Y-77240000D01*
X132431000Y-75160000D02*
X132431000Y-72835000D01*
X132391000Y-79538000D02*
X132391000Y-77240000D01*
X132391000Y-75160000D02*
X132391000Y-72862000D01*
X132351000Y-79509000D02*
X132351000Y-77240000D01*
X132351000Y-75160000D02*
X132351000Y-72891000D01*
X132311000Y-79480000D02*
X132311000Y-77240000D01*
X132311000Y-75160000D02*
X132311000Y-72920000D01*
X132271000Y-79450000D02*
X132271000Y-77240000D01*
X132271000Y-75160000D02*
X132271000Y-72950000D01*
X132231000Y-79420000D02*
X132231000Y-77240000D01*
X132231000Y-75160000D02*
X132231000Y-72980000D01*
X132191000Y-79389000D02*
X132191000Y-77240000D01*
X132191000Y-75160000D02*
X132191000Y-73011000D01*
X132151000Y-79356000D02*
X132151000Y-77240000D01*
X132151000Y-75160000D02*
X132151000Y-73044000D01*
X132111000Y-79324000D02*
X132111000Y-77240000D01*
X132111000Y-75160000D02*
X132111000Y-73076000D01*
X132071000Y-79290000D02*
X132071000Y-77240000D01*
X132071000Y-75160000D02*
X132071000Y-73110000D01*
X132031000Y-79255000D02*
X132031000Y-77240000D01*
X132031000Y-75160000D02*
X132031000Y-73145000D01*
X131991000Y-79219000D02*
X131991000Y-77240000D01*
X131991000Y-75160000D02*
X131991000Y-73181000D01*
X131951000Y-79183000D02*
X131951000Y-77240000D01*
X131951000Y-75160000D02*
X131951000Y-73217000D01*
X131911000Y-79145000D02*
X131911000Y-77240000D01*
X131911000Y-75160000D02*
X131911000Y-73255000D01*
X131871000Y-79107000D02*
X131871000Y-77240000D01*
X131871000Y-75160000D02*
X131871000Y-73293000D01*
X131831000Y-79067000D02*
X131831000Y-77240000D01*
X131831000Y-75160000D02*
X131831000Y-73333000D01*
X131791000Y-79026000D02*
X131791000Y-73374000D01*
X131751000Y-78984000D02*
X131751000Y-73416000D01*
X131711000Y-78941000D02*
X131711000Y-73459000D01*
X131671000Y-78897000D02*
X131671000Y-73503000D01*
X131631000Y-78851000D02*
X131631000Y-73549000D01*
X131591000Y-78804000D02*
X131591000Y-73596000D01*
X131551000Y-78756000D02*
X131551000Y-73644000D01*
X131511000Y-78705000D02*
X131511000Y-73695000D01*
X131471000Y-78654000D02*
X131471000Y-73746000D01*
X131431000Y-78600000D02*
X131431000Y-73800000D01*
X131391000Y-78545000D02*
X131391000Y-73855000D01*
X131351000Y-78487000D02*
X131351000Y-73913000D01*
X131311000Y-78428000D02*
X131311000Y-73972000D01*
X131271000Y-78366000D02*
X131271000Y-74034000D01*
X131231000Y-78302000D02*
X131231000Y-74098000D01*
X131191000Y-78234000D02*
X131191000Y-74166000D01*
X131151000Y-78164000D02*
X131151000Y-74236000D01*
X131111000Y-78090000D02*
X131111000Y-74310000D01*
X131071000Y-78013000D02*
X131071000Y-74387000D01*
X131031000Y-77931000D02*
X131031000Y-74469000D01*
X130991000Y-77845000D02*
X130991000Y-74555000D01*
X130951000Y-77752000D02*
X130951000Y-74648000D01*
X130911000Y-77653000D02*
X130911000Y-74747000D01*
X130871000Y-77546000D02*
X130871000Y-74854000D01*
X130831000Y-77429000D02*
X130831000Y-74971000D01*
X130791000Y-77298000D02*
X130791000Y-75102000D01*
X130751000Y-77148000D02*
X130751000Y-75252000D01*
X130711000Y-76968000D02*
X130711000Y-75432000D01*
X130671000Y-76733000D02*
X130671000Y-75667000D01*
X138872000Y-76200000D02*
G75*
G03*
X138872000Y-76200000I-4120000J0D01*
G01*
%TD*%
M02*
