%TF.GenerationSoftware,KiCad,Pcbnew,7.0.0*%
%TF.CreationDate,2023-09-15T14:52:37+08:00*%
%TF.ProjectId,OpenNixie,4f70656e-4e69-4786-9965-2e6b69636164,v3.0*%
%TF.SameCoordinates,Original*%
%TF.FileFunction,Legend,Bot*%
%TF.FilePolarity,Positive*%
%FSLAX46Y46*%
G04 Gerber Fmt 4.6, Leading zero omitted, Abs format (unit mm)*
G04 Created by KiCad (PCBNEW 7.0.0) date 2023-09-15 14:52:37*
%MOMM*%
%LPD*%
G01*
G04 APERTURE LIST*
%ADD10C,0.150000*%
%ADD11C,0.120000*%
G04 APERTURE END LIST*
D10*
%TO.C,R2*%
X162516666Y-78767380D02*
X162849999Y-78291190D01*
X163088094Y-78767380D02*
X163088094Y-77767380D01*
X163088094Y-77767380D02*
X162707142Y-77767380D01*
X162707142Y-77767380D02*
X162611904Y-77815000D01*
X162611904Y-77815000D02*
X162564285Y-77862619D01*
X162564285Y-77862619D02*
X162516666Y-77957857D01*
X162516666Y-77957857D02*
X162516666Y-78100714D01*
X162516666Y-78100714D02*
X162564285Y-78195952D01*
X162564285Y-78195952D02*
X162611904Y-78243571D01*
X162611904Y-78243571D02*
X162707142Y-78291190D01*
X162707142Y-78291190D02*
X163088094Y-78291190D01*
X162135713Y-77862619D02*
X162088094Y-77815000D01*
X162088094Y-77815000D02*
X161992856Y-77767380D01*
X161992856Y-77767380D02*
X161754761Y-77767380D01*
X161754761Y-77767380D02*
X161659523Y-77815000D01*
X161659523Y-77815000D02*
X161611904Y-77862619D01*
X161611904Y-77862619D02*
X161564285Y-77957857D01*
X161564285Y-77957857D02*
X161564285Y-78053095D01*
X161564285Y-78053095D02*
X161611904Y-78195952D01*
X161611904Y-78195952D02*
X162183332Y-78767380D01*
X162183332Y-78767380D02*
X161564285Y-78767380D01*
%TO.C,BT1*%
X134132176Y-100302234D02*
X134019508Y-100202325D01*
X134019508Y-100202325D02*
X133954459Y-100184896D01*
X133954459Y-100184896D02*
X133848171Y-100191275D01*
X133848171Y-100191275D02*
X133724453Y-100262704D01*
X133724453Y-100262704D02*
X133665784Y-100351562D01*
X133665784Y-100351562D02*
X133648354Y-100416611D01*
X133648354Y-100416611D02*
X133654734Y-100522899D01*
X133654734Y-100522899D02*
X133845210Y-100852814D01*
X133845210Y-100852814D02*
X134711236Y-100352814D01*
X134711236Y-100352814D02*
X134544569Y-100064139D01*
X134544569Y-100064139D02*
X134455711Y-100005470D01*
X134455711Y-100005470D02*
X134390662Y-99988040D01*
X134390662Y-99988040D02*
X134284374Y-99994420D01*
X134284374Y-99994420D02*
X134201895Y-100042039D01*
X134201895Y-100042039D02*
X134143226Y-100130897D01*
X134143226Y-100130897D02*
X134125796Y-100195946D01*
X134125796Y-100195946D02*
X134132176Y-100302234D01*
X134132176Y-100302234D02*
X134298842Y-100590909D01*
X134282664Y-99610506D02*
X133996950Y-99115635D01*
X133273782Y-99863070D02*
X134139807Y-99363070D01*
X132702353Y-98873327D02*
X132988067Y-99368199D01*
X132845210Y-99120763D02*
X133711235Y-98620763D01*
X133711235Y-98620763D02*
X133635137Y-98774670D01*
X133635137Y-98774670D02*
X133600277Y-98904768D01*
X133600277Y-98904768D02*
X133606657Y-99011056D01*
%TO.C,U5*%
X151311904Y-79367380D02*
X151311904Y-80176904D01*
X151311904Y-80176904D02*
X151264285Y-80272142D01*
X151264285Y-80272142D02*
X151216666Y-80319761D01*
X151216666Y-80319761D02*
X151121428Y-80367380D01*
X151121428Y-80367380D02*
X150930952Y-80367380D01*
X150930952Y-80367380D02*
X150835714Y-80319761D01*
X150835714Y-80319761D02*
X150788095Y-80272142D01*
X150788095Y-80272142D02*
X150740476Y-80176904D01*
X150740476Y-80176904D02*
X150740476Y-79367380D01*
X149788095Y-79367380D02*
X150264285Y-79367380D01*
X150264285Y-79367380D02*
X150311904Y-79843571D01*
X150311904Y-79843571D02*
X150264285Y-79795952D01*
X150264285Y-79795952D02*
X150169047Y-79748333D01*
X150169047Y-79748333D02*
X149930952Y-79748333D01*
X149930952Y-79748333D02*
X149835714Y-79795952D01*
X149835714Y-79795952D02*
X149788095Y-79843571D01*
X149788095Y-79843571D02*
X149740476Y-79938809D01*
X149740476Y-79938809D02*
X149740476Y-80176904D01*
X149740476Y-80176904D02*
X149788095Y-80272142D01*
X149788095Y-80272142D02*
X149835714Y-80319761D01*
X149835714Y-80319761D02*
X149930952Y-80367380D01*
X149930952Y-80367380D02*
X150169047Y-80367380D01*
X150169047Y-80367380D02*
X150264285Y-80319761D01*
X150264285Y-80319761D02*
X150311904Y-80272142D01*
%TO.C,C8*%
X172716666Y-85122142D02*
X172764285Y-85169761D01*
X172764285Y-85169761D02*
X172907142Y-85217380D01*
X172907142Y-85217380D02*
X173002380Y-85217380D01*
X173002380Y-85217380D02*
X173145237Y-85169761D01*
X173145237Y-85169761D02*
X173240475Y-85074523D01*
X173240475Y-85074523D02*
X173288094Y-84979285D01*
X173288094Y-84979285D02*
X173335713Y-84788809D01*
X173335713Y-84788809D02*
X173335713Y-84645952D01*
X173335713Y-84645952D02*
X173288094Y-84455476D01*
X173288094Y-84455476D02*
X173240475Y-84360238D01*
X173240475Y-84360238D02*
X173145237Y-84265000D01*
X173145237Y-84265000D02*
X173002380Y-84217380D01*
X173002380Y-84217380D02*
X172907142Y-84217380D01*
X172907142Y-84217380D02*
X172764285Y-84265000D01*
X172764285Y-84265000D02*
X172716666Y-84312619D01*
X172145237Y-84645952D02*
X172240475Y-84598333D01*
X172240475Y-84598333D02*
X172288094Y-84550714D01*
X172288094Y-84550714D02*
X172335713Y-84455476D01*
X172335713Y-84455476D02*
X172335713Y-84407857D01*
X172335713Y-84407857D02*
X172288094Y-84312619D01*
X172288094Y-84312619D02*
X172240475Y-84265000D01*
X172240475Y-84265000D02*
X172145237Y-84217380D01*
X172145237Y-84217380D02*
X171954761Y-84217380D01*
X171954761Y-84217380D02*
X171859523Y-84265000D01*
X171859523Y-84265000D02*
X171811904Y-84312619D01*
X171811904Y-84312619D02*
X171764285Y-84407857D01*
X171764285Y-84407857D02*
X171764285Y-84455476D01*
X171764285Y-84455476D02*
X171811904Y-84550714D01*
X171811904Y-84550714D02*
X171859523Y-84598333D01*
X171859523Y-84598333D02*
X171954761Y-84645952D01*
X171954761Y-84645952D02*
X172145237Y-84645952D01*
X172145237Y-84645952D02*
X172240475Y-84693571D01*
X172240475Y-84693571D02*
X172288094Y-84741190D01*
X172288094Y-84741190D02*
X172335713Y-84836428D01*
X172335713Y-84836428D02*
X172335713Y-85026904D01*
X172335713Y-85026904D02*
X172288094Y-85122142D01*
X172288094Y-85122142D02*
X172240475Y-85169761D01*
X172240475Y-85169761D02*
X172145237Y-85217380D01*
X172145237Y-85217380D02*
X171954761Y-85217380D01*
X171954761Y-85217380D02*
X171859523Y-85169761D01*
X171859523Y-85169761D02*
X171811904Y-85122142D01*
X171811904Y-85122142D02*
X171764285Y-85026904D01*
X171764285Y-85026904D02*
X171764285Y-84836428D01*
X171764285Y-84836428D02*
X171811904Y-84741190D01*
X171811904Y-84741190D02*
X171859523Y-84693571D01*
X171859523Y-84693571D02*
X171954761Y-84645952D01*
%TO.C,Y1*%
X164026190Y-82491190D02*
X164026190Y-82967380D01*
X164359523Y-81967380D02*
X164026190Y-82491190D01*
X164026190Y-82491190D02*
X163692857Y-81967380D01*
X162835714Y-82967380D02*
X163407142Y-82967380D01*
X163121428Y-82967380D02*
X163121428Y-81967380D01*
X163121428Y-81967380D02*
X163216666Y-82110238D01*
X163216666Y-82110238D02*
X163311904Y-82205476D01*
X163311904Y-82205476D02*
X163407142Y-82253095D01*
%TO.C,C7*%
X140122142Y-79233333D02*
X140169761Y-79185714D01*
X140169761Y-79185714D02*
X140217380Y-79042857D01*
X140217380Y-79042857D02*
X140217380Y-78947619D01*
X140217380Y-78947619D02*
X140169761Y-78804762D01*
X140169761Y-78804762D02*
X140074523Y-78709524D01*
X140074523Y-78709524D02*
X139979285Y-78661905D01*
X139979285Y-78661905D02*
X139788809Y-78614286D01*
X139788809Y-78614286D02*
X139645952Y-78614286D01*
X139645952Y-78614286D02*
X139455476Y-78661905D01*
X139455476Y-78661905D02*
X139360238Y-78709524D01*
X139360238Y-78709524D02*
X139265000Y-78804762D01*
X139265000Y-78804762D02*
X139217380Y-78947619D01*
X139217380Y-78947619D02*
X139217380Y-79042857D01*
X139217380Y-79042857D02*
X139265000Y-79185714D01*
X139265000Y-79185714D02*
X139312619Y-79233333D01*
X139217380Y-79566667D02*
X139217380Y-80233333D01*
X139217380Y-80233333D02*
X140217380Y-79804762D01*
%TO.C,C6*%
X178116666Y-85122142D02*
X178164285Y-85169761D01*
X178164285Y-85169761D02*
X178307142Y-85217380D01*
X178307142Y-85217380D02*
X178402380Y-85217380D01*
X178402380Y-85217380D02*
X178545237Y-85169761D01*
X178545237Y-85169761D02*
X178640475Y-85074523D01*
X178640475Y-85074523D02*
X178688094Y-84979285D01*
X178688094Y-84979285D02*
X178735713Y-84788809D01*
X178735713Y-84788809D02*
X178735713Y-84645952D01*
X178735713Y-84645952D02*
X178688094Y-84455476D01*
X178688094Y-84455476D02*
X178640475Y-84360238D01*
X178640475Y-84360238D02*
X178545237Y-84265000D01*
X178545237Y-84265000D02*
X178402380Y-84217380D01*
X178402380Y-84217380D02*
X178307142Y-84217380D01*
X178307142Y-84217380D02*
X178164285Y-84265000D01*
X178164285Y-84265000D02*
X178116666Y-84312619D01*
X177259523Y-84217380D02*
X177449999Y-84217380D01*
X177449999Y-84217380D02*
X177545237Y-84265000D01*
X177545237Y-84265000D02*
X177592856Y-84312619D01*
X177592856Y-84312619D02*
X177688094Y-84455476D01*
X177688094Y-84455476D02*
X177735713Y-84645952D01*
X177735713Y-84645952D02*
X177735713Y-85026904D01*
X177735713Y-85026904D02*
X177688094Y-85122142D01*
X177688094Y-85122142D02*
X177640475Y-85169761D01*
X177640475Y-85169761D02*
X177545237Y-85217380D01*
X177545237Y-85217380D02*
X177354761Y-85217380D01*
X177354761Y-85217380D02*
X177259523Y-85169761D01*
X177259523Y-85169761D02*
X177211904Y-85122142D01*
X177211904Y-85122142D02*
X177164285Y-85026904D01*
X177164285Y-85026904D02*
X177164285Y-84788809D01*
X177164285Y-84788809D02*
X177211904Y-84693571D01*
X177211904Y-84693571D02*
X177259523Y-84645952D01*
X177259523Y-84645952D02*
X177354761Y-84598333D01*
X177354761Y-84598333D02*
X177545237Y-84598333D01*
X177545237Y-84598333D02*
X177640475Y-84645952D01*
X177640475Y-84645952D02*
X177688094Y-84693571D01*
X177688094Y-84693571D02*
X177735713Y-84788809D01*
%TO.C,R4*%
X162526666Y-75967380D02*
X162859999Y-75491190D01*
X163098094Y-75967380D02*
X163098094Y-74967380D01*
X163098094Y-74967380D02*
X162717142Y-74967380D01*
X162717142Y-74967380D02*
X162621904Y-75015000D01*
X162621904Y-75015000D02*
X162574285Y-75062619D01*
X162574285Y-75062619D02*
X162526666Y-75157857D01*
X162526666Y-75157857D02*
X162526666Y-75300714D01*
X162526666Y-75300714D02*
X162574285Y-75395952D01*
X162574285Y-75395952D02*
X162621904Y-75443571D01*
X162621904Y-75443571D02*
X162717142Y-75491190D01*
X162717142Y-75491190D02*
X163098094Y-75491190D01*
X161669523Y-75300714D02*
X161669523Y-75967380D01*
X161907618Y-74919761D02*
X162145713Y-75634047D01*
X162145713Y-75634047D02*
X161526666Y-75634047D01*
D11*
%TO.C,R2*%
X165220000Y-78200000D02*
X164270000Y-78200000D01*
X164270000Y-79120000D02*
X160430000Y-79120000D01*
X164270000Y-77280000D02*
X164270000Y-79120000D01*
X160430000Y-79120000D02*
X160430000Y-77280000D01*
X160430000Y-77280000D02*
X164270000Y-77280000D01*
X159480000Y-78200000D02*
X160430000Y-78200000D01*
%TO.C,BT1*%
X139606828Y-103797466D02*
X137862693Y-103476537D01*
X144456570Y-100997466D02*
X145060512Y-98743524D01*
X145060512Y-98743524D02*
X144110512Y-97098076D01*
X140160512Y-90256476D02*
X141110512Y-91901924D01*
X140160512Y-90256476D02*
X137906570Y-89652534D01*
X133056828Y-92452534D02*
X132462693Y-94123463D01*
X135983802Y-101217416D02*
G75*
G03*
X137862693Y-103476536I2537737J199725D01*
G01*
X132462694Y-94123463D02*
G75*
G03*
X133481900Y-96881699I2458845J-658846D01*
G01*
%TO.C,U5*%
X154410000Y-85260000D02*
X154410000Y-85005000D01*
X154410000Y-74995000D02*
X156225000Y-74995000D01*
X154410000Y-74740000D02*
X154410000Y-74995000D01*
X150550000Y-85260000D02*
X154410000Y-85260000D01*
X150550000Y-85260000D02*
X146690000Y-85260000D01*
X150550000Y-74740000D02*
X154410000Y-74740000D01*
X150550000Y-74740000D02*
X146690000Y-74740000D01*
X146690000Y-85260000D02*
X146690000Y-85005000D01*
X146690000Y-74740000D02*
X146690000Y-74995000D01*
%TO.C,C8*%
X170930000Y-81480000D02*
X174170000Y-81480000D01*
X170930000Y-81545000D02*
X170930000Y-81480000D01*
X170930000Y-83720000D02*
X170930000Y-83655000D01*
X170930000Y-83720000D02*
X174170000Y-83720000D01*
X174170000Y-81545000D02*
X174170000Y-81480000D01*
X174170000Y-83720000D02*
X174170000Y-83655000D01*
%TO.C,Y1*%
X160425000Y-80075000D02*
X166675000Y-80075000D01*
X160425000Y-85125000D02*
X166675000Y-85125000D01*
X160425000Y-80075000D02*
G75*
G03*
X160425000Y-85125000I0J-2525000D01*
G01*
X166675000Y-85125000D02*
G75*
G03*
X166675000Y-80075000I0J2525000D01*
G01*
%TO.C,C7*%
X143220000Y-77780000D02*
X143220000Y-81020000D01*
X143155000Y-77780000D02*
X143220000Y-77780000D01*
X140980000Y-77780000D02*
X141045000Y-77780000D01*
X140980000Y-77780000D02*
X140980000Y-81020000D01*
X143155000Y-81020000D02*
X143220000Y-81020000D01*
X140980000Y-81020000D02*
X141045000Y-81020000D01*
%TO.C,C6*%
X176330000Y-81480000D02*
X179570000Y-81480000D01*
X176330000Y-81545000D02*
X176330000Y-81480000D01*
X176330000Y-83720000D02*
X176330000Y-83655000D01*
X176330000Y-83720000D02*
X179570000Y-83720000D01*
X179570000Y-81545000D02*
X179570000Y-81480000D01*
X179570000Y-83720000D02*
X179570000Y-83655000D01*
%TO.C,R4*%
X165220000Y-75600000D02*
X164270000Y-75600000D01*
X164270000Y-76520000D02*
X160430000Y-76520000D01*
X164270000Y-74680000D02*
X164270000Y-76520000D01*
X160430000Y-76520000D02*
X160430000Y-74680000D01*
X160430000Y-74680000D02*
X164270000Y-74680000D01*
X159480000Y-75600000D02*
X160430000Y-75600000D01*
%TD*%
M02*
