M48
; DRILL file {KiCad 7.0.0} date 西元2023年08月22日 (週二) 22時14分15秒
; FORMAT={-:-/ absolute / inch / decimal}
; #@! TF.CreationDate,2023-08-22T22:14:15+08:00
; #@! TF.GenerationSoftware,Kicad,Pcbnew,7.0.0
; #@! TF.FileFunction,Plated,1,2,PTH
FMAT,2
INCH
; #@! TA.AperFunction,Plated,PTH,ViaDrill
T1C0.0157
; #@! TA.AperFunction,Plated,PTH,ComponentDrill
T2C0.0276
; #@! TA.AperFunction,Plated,PTH,ComponentDrill
T3C0.0295
; #@! TA.AperFunction,Plated,PTH,ComponentDrill
T4C0.0300
; #@! TA.AperFunction,Plated,PTH,ComponentDrill
T5C0.0315
; #@! TA.AperFunction,Plated,PTH,ComponentDrill
T6C0.0394
; #@! TA.AperFunction,Plated,PTH,ComponentDrill
T7C0.0512
%
G90
G05
T1
X3.2835Y-3.8819
X3.374Y-4.0472
X3.4961Y-3.7165
X3.4961Y-3.8661
X3.5512Y-3.7402
X3.6811Y-3.3661
X3.7697Y-3.2874
X4.4331Y-4.4094
X4.439Y-2.874
X4.4567Y-4.5236
X4.4724Y-4.2874
X4.5197Y-4.2362
X4.5354Y-4.2992
X4.5669Y-4.2362
X4.6142Y-4.2362
X4.6378Y-3.9843
X4.6693Y-4.4252
X4.8189Y-4.4173
X4.9606Y-4.4252
X5.0039Y-4.1732
X5.0157Y-4.7165
X5.0394Y-4.4094
X5.1181Y-4.1142
X5.1535Y-3.7205
X5.5197Y-4.5433
X5.8031Y-4.2323
X5.8425Y-4.2008
X5.8858Y-4.1693
X5.9449Y-4.5512
X6.2992Y-4.5591
X6.5276Y-4.1811
X6.5906Y-4.0079
X6.6614Y-4.5512
X6.7165Y-4.2283
X6.748Y-4.126
X6.7874Y-4.1417
X6.8268Y-4.1575
X6.8661Y-4.1732
X7.0669Y-3.6732
X7.0787Y-3.7874
X7.0945Y-4.2677
X7.1102Y-3.7008
X7.2165Y-3.6063
X7.2913Y-4.378
X7.5787Y-3.8189
X7.5984Y-3.937
X7.6339Y-3.752
X7.9055Y-3.9764
X8.5276Y-4.378
X8.6654Y-4.6063
X8.7756Y-4.1929
T2
X3.4567Y-3.6378
X3.4567Y-3.9378
X3.5374Y-4.4156
X3.5374Y-4.7537
X3.8374Y-4.4156
X3.8374Y-4.7537
X3.9843Y-3.3465
X3.9843Y-3.4803
X4.065Y-4.4156
X4.0654Y-4.7545
X4.2843Y-3.3465
X4.2843Y-3.4803
X4.365Y-4.4156
X4.3654Y-4.7545
X4.4091Y-3.1811
X4.5433Y-3.637
X4.5433Y-3.937
X4.5931Y-4.4156
X4.598Y-4.7545
X4.7091Y-3.1811
X4.8931Y-4.4156
X4.898Y-4.7545
X4.9126Y-3.4488
X5.2126Y-3.4488
X5.2965Y-4.2437
X5.2965Y-4.5437
X5.6795Y-4.2441
X5.6795Y-4.5441
X5.7949Y-4.0709
X6.0685Y-4.2437
X6.0685Y-4.5437
X6.0949Y-4.0709
X6.2417Y-2.9764
X6.2417Y-3.0787
X6.4543Y-4.2437
X6.4543Y-4.5437
X6.5417Y-2.9764
X6.5417Y-3.0787
X6.7087Y-3.637
X6.7087Y-3.937
X6.8398Y-4.2433
X6.8398Y-4.5433
X7.7953Y-3.6299
X7.7953Y-3.9299
T3
X3.0709Y-3.7953
X3.1209Y-3.7953
X3.1709Y-3.7953
X3.6327Y-4.5963
X3.635Y-4.2581
X3.6827Y-4.5963
X3.685Y-4.2581
X3.7327Y-4.5963
X3.735Y-4.2581
X4.1598Y-3.7953
X4.163Y-4.6038
X4.1681Y-4.2569
X4.2098Y-3.7953
X4.213Y-4.6038
X4.2181Y-4.2569
X4.2598Y-3.7953
X4.263Y-4.6038
X4.2681Y-4.2569
X4.6951Y-4.265
X4.6953Y-4.603
X4.7451Y-4.265
X4.7453Y-4.603
X4.7951Y-4.265
X4.7953Y-4.603
X5.4382Y-4.4098
X5.4882Y-4.4098
X5.5382Y-4.4098
X5.8213Y-4.4094
X5.8713Y-4.4094
X5.9213Y-4.4094
X6.2102Y-4.4098
X6.2602Y-4.4098
X6.3102Y-4.4098
X6.3201Y-3.8185
X6.3701Y-3.8185
X6.4201Y-3.8185
X6.5933Y-4.4098
X6.6433Y-4.4098
X6.6933Y-4.4098
X6.9787Y-4.4094
X7.0287Y-4.4094
X7.0787Y-4.4094
X7.4118Y-3.8189
X7.4618Y-3.8189
X7.5118Y-3.8189
T4
X3.6181Y-3.6874
X3.6181Y-3.7874
X3.6181Y-3.8874
X3.6756Y-3.5906
X3.6756Y-3.9843
X3.7756Y-3.5906
X3.7756Y-3.9843
X3.8756Y-3.5906
X3.8756Y-3.9843
X3.9331Y-3.6874
X3.9331Y-3.7874
X3.9331Y-3.8874
X4.7008Y-3.6874
X4.7008Y-3.7874
X4.7008Y-3.8874
X4.7583Y-3.5906
X4.7583Y-3.9843
X4.8583Y-3.5906
X4.8583Y-3.9843
X4.9583Y-3.5906
X4.9583Y-3.9843
X5.0157Y-3.6874
X5.0157Y-3.7874
X5.0157Y-3.8874
X6.8661Y-3.6874
X6.8661Y-3.7874
X6.8661Y-3.8874
X6.9236Y-3.5906
X6.9236Y-3.9843
X7.0236Y-3.5906
X7.0236Y-3.9843
X7.1236Y-3.5906
X7.1236Y-3.9843
X7.1811Y-3.6874
X7.1811Y-3.7874
X7.1811Y-3.8874
X7.9488Y-3.6874
X7.9488Y-3.7874
X7.9488Y-3.8874
X8.0063Y-3.5906
X8.0063Y-3.9843
X8.1063Y-3.5906
X8.1063Y-3.9843
X8.2063Y-3.5906
X8.2063Y-3.9843
X8.2638Y-3.6874
X8.2638Y-3.7874
X8.2638Y-3.8874
T5
X3.0598Y-4.0551
X3.4598Y-4.0551
X3.6189Y-2.8898
X3.6327Y-3.0787
X3.7311Y-3.0787
X3.8374Y-3.0787
X3.9358Y-3.0787
X4.0189Y-2.8898
X4.1465Y-4.0551
X4.4962Y-2.937
X4.5465Y-4.0551
X4.6458Y-2.937
X4.943Y-3.1969
X5.0808Y-3.1969
X5.2911Y-3.1654
X5.3896Y-3.1654
X5.5421Y-2.8488
X5.5421Y-3.4488
X5.5945Y-3.0768
X5.5945Y-3.1752
X5.6421Y-2.8488
X5.6421Y-3.4488
X5.7421Y-2.8488
X5.7421Y-3.4488
X5.8421Y-2.8488
X5.8421Y-3.4488
X5.9421Y-2.8488
X5.9421Y-3.4488
X6.0421Y-2.8488
X6.0421Y-3.4488
X6.1421Y-2.8488
X6.1421Y-3.4488
X6.2421Y-2.8488
X6.2421Y-3.4488
X6.3087Y-4.0551
X6.3421Y-2.8488
X6.3421Y-3.4488
X6.3425Y-3.252
X6.4421Y-2.8488
X6.4421Y-3.4488
X6.5354Y-3.252
X6.5421Y-2.8488
X6.5421Y-3.4488
X6.6421Y-2.8488
X6.6421Y-3.4488
X6.7087Y-4.0551
X6.7421Y-2.8488
X6.7421Y-3.4488
X6.7441Y-3.252
X6.8421Y-2.8488
X6.8421Y-3.4488
X6.8425Y-3.252
X6.9421Y-2.8488
X6.9421Y-3.4488
X6.9567Y-3.252
X7.0421Y-2.8488
X7.0421Y-3.4488
X7.0551Y-3.252
X7.1421Y-2.8488
X7.1421Y-3.4488
X7.2421Y-2.8488
X7.2421Y-3.4488
X7.2445Y-4.252
X7.2445Y-4.552
X7.3421Y-2.8488
X7.3421Y-3.4488
X7.3445Y-4.252
X7.3445Y-4.552
X7.3953Y-4.0551
X7.4421Y-2.8488
X7.4421Y-3.4488
X7.4445Y-4.252
X7.4445Y-4.552
X7.5445Y-4.252
X7.5445Y-4.552
X7.6445Y-4.252
X7.6445Y-4.552
X7.7445Y-4.252
X7.7445Y-4.552
X7.7953Y-4.0551
X7.8445Y-4.252
X7.8445Y-4.552
X7.9445Y-4.252
X7.9445Y-4.552
X8.1127Y-4.252
X8.1127Y-4.552
X8.2127Y-4.252
X8.2127Y-4.552
X8.3127Y-4.252
X8.3127Y-4.552
X8.4127Y-4.252
X8.4127Y-4.552
X8.5127Y-4.252
X8.5127Y-4.552
X8.6127Y-4.252
X8.6127Y-4.552
X8.7127Y-4.252
X8.7127Y-4.552
X8.8127Y-4.252
X8.8127Y-4.552
T6
X5.9409Y-3.7874
X5.9409Y-3.8874
X7.628Y-2.948
X7.628Y-3.048
X7.628Y-3.148
X7.628Y-3.248
X7.628Y-3.348
T7
X3.3425Y-2.937
X3.4606Y-2.937
T6
G00X3.2677Y-3.2598
M15
G01X3.2677Y-3.3386
M16
G05
G00X3.3465Y-3.4843
M15
G01X3.4252Y-3.4843
M16
G05
G00X3.5039Y-3.2598
M15
G01X3.5039Y-3.3386
M16
G05
T0
M30
