  0
SECTION
  2
HEADER
  9
$ANGBASE
  50
0.0
  9
$ANGDIR
  70
1
  9
$MEASUREMENT
  70
0
  0
ENDSEC
  0
SECTION
  2
TABLES
  0
TABLE
  2
LTYPE
  70
4
  0
LTYPE
  5
40F
  2
CONTINUOUS
  70
0
  3
Solid line
  72
65
  73
0
  40
0.0
  0
LTYPE
  5
410
  2
DASHDOT
 70
0
  3
Dash Dot ____ _ ____ _
 72
65
 73
4
 40
2.0
 49
1.25
 49
-0.25
 49
0.25
 49
-0.25
  0
LTYPE
  5
411
  2
DASHED
 70
0
  3
Dashed __ __ __ __ __
 72
65
 73
2
 40
0.75
 49
0.5
 49
-0.25
  0
LTYPE
  5
43B
  2
DOTTED
 70
0
  3
Dotted .  .  .  .
 72
65
 73
2
 40
0.2
 49
0.0
 49
-0.2
  0
ENDTAB
  0
TABLE
  2
STYLE
  70
4
  0
STYLE
  2
KICAD
  70
0
  40
0
  41
1
  42
1
  50
0
  71
0
  3
isocp.shx
  0
STYLE
  2
KICADB
  70
0
  40
0
  41
1
  42
1
  50
0
  71
0
  3
isocp.shx
  0
STYLE
  2
KICADI
  70
0
  40
0
  41
1
  42
1
  50
15
  71
0
  3
isocp.shx
  0
STYLE
  2
KICADBI
  70
0
  40
0
  41
1
  42
1
  50
15
  71
0
  3
isocp.shx
  0
ENDTAB
  0
TABLE
  2
LAYER
  70
1
  0
LAYER
  2
BLACK
  70
0
  62
7
  6
CONTINUOUS
  0
ENDTAB
  0
ENDSEC
  0
SECTION
  2
ENTITIES
0
ARC
8
BLACK
10
3.32874
20
-4.89567
40
0.0984252
50
90
51
180
0
ARC
8
BLACK
10
3.32874
20
-6.86417
40
0.0984252
50
-180
51
-90
0
ARC
8
BLACK
10
6.69291
20
-6.86417
40
0.0984252
50
-90
51
-0
0
ARC
8
BLACK
10
6.69291
20
-4.89567
40
0.0984252
50
-0
51
90
0
LINE
8
BLACK
6
CONTINUOUS
10
3.32874
20
-6.9626
11
6.69291
21
-6.9626
0
LINE
8
BLACK
6
CONTINUOUS
10
3.32874
20
-4.79724
11
6.69291
21
-4.79724
0
LINE
8
BLACK
6
CONTINUOUS
10
3.23031
20
-6.86417
11
3.23031
21
-4.89567
0
LINE
8
BLACK
6
CONTINUOUS
10
6.79134
20
-6.86417
11
6.79134
21
-4.89567
0
LINE
8
BLACK
6
CONTINUOUS
10
3.94213
20
-6.26713
11
3.95787
21
-6.28287
0
LINE
8
BLACK
6
CONTINUOUS
10
3.95787
20
-6.26713
11
3.94213
21
-6.28287
0
CIRCLE
8
BLACK
10
3.725
20
-6.625
40
0.0137795
0
CIRCLE
8
BLACK
10
3.925
20
-6.625
40
0.0137795
0
CIRCLE
8
BLACK
10
4.64252
20
-5.86654
40
0.0137795
0
CIRCLE
8
BLACK
10
4.64252
20
-6.00827
40
0.0137795
0
CIRCLE
8
BLACK
10
4.84252
20
-5.86654
40
0.0137795
0
CIRCLE
8
BLACK
10
4.84252
20
-6.00827
40
0.0137795
0
LINE
8
BLACK
6
CONTINUOUS
10
3.47657
20
-6.50425
11
3.47657
21
-6.53575
0
LINE
8
BLACK
6
CONTINUOUS
10
3.46083
20
-6.52
11
3.49232
21
-6.52
0
LINE
8
BLACK
6
CONTINUOUS
10
3.575
20
-6.50425
11
3.575
21
-6.53575
0
LINE
8
BLACK
6
CONTINUOUS
10
3.55925
20
-6.52
11
3.59075
21
-6.52
0
LINE
8
BLACK
6
CONTINUOUS
10
3.71969
20
-5.09882
11
3.71969
21
-5.13031
0
LINE
8
BLACK
6
CONTINUOUS
10
3.70394
20
-5.11457
11
3.73543
21
-5.11457
0
LINE
8
BLACK
6
CONTINUOUS
10
3.71969
20
-5.69882
11
3.71969
21
-5.73031
0
LINE
8
BLACK
6
CONTINUOUS
10
3.70394
20
-5.71457
11
3.73543
21
-5.71457
0
LINE
8
BLACK
6
CONTINUOUS
10
3.72579
20
-6.40925
11
3.72579
21
-6.44075
0
LINE
8
BLACK
6
CONTINUOUS
10
3.71004
20
-6.425
11
3.74154
21
-6.425
0
LINE
8
BLACK
6
CONTINUOUS
10
3.81969
20
-5.09882
11
3.81969
21
-5.13031
0
LINE
8
BLACK
6
CONTINUOUS
10
3.80394
20
-5.11457
11
3.83543
21
-5.11457
0
LINE
8
BLACK
6
CONTINUOUS
10
3.81969
20
-5.69882
11
3.81969
21
-5.73031
0
LINE
8
BLACK
6
CONTINUOUS
10
3.80394
20
-5.71457
11
3.83543
21
-5.71457
0
LINE
8
BLACK
6
CONTINUOUS
10
3.82421
20
-6.40925
11
3.82421
21
-6.44075
0
LINE
8
BLACK
6
CONTINUOUS
10
3.80846
20
-6.425
11
3.83996
21
-6.425
0
LINE
8
BLACK
6
CONTINUOUS
10
3.91969
20
-5.09882
11
3.91969
21
-5.13031
0
LINE
8
BLACK
6
CONTINUOUS
10
3.90394
20
-5.11457
11
3.93543
21
-5.11457
0
LINE
8
BLACK
6
CONTINUOUS
10
3.91969
20
-5.69882
11
3.91969
21
-5.73031
0
LINE
8
BLACK
6
CONTINUOUS
10
3.90394
20
-5.71457
11
3.93543
21
-5.71457
0
LINE
8
BLACK
6
CONTINUOUS
10
3.97657
20
-6.40925
11
3.97657
21
-6.44075
0
LINE
8
BLACK
6
CONTINUOUS
10
3.96083
20
-6.425
11
3.99232
21
-6.425
0
LINE
8
BLACK
6
CONTINUOUS
10
4.01969
20
-5.09882
11
4.01969
21
-5.13031
0
LINE
8
BLACK
6
CONTINUOUS
10
4.00394
20
-5.11457
11
4.03543
21
-5.11457
0
LINE
8
BLACK
6
CONTINUOUS
10
4.01969
20
-5.69882
11
4.01969
21
-5.73031
0
LINE
8
BLACK
6
CONTINUOUS
10
4.00394
20
-5.71457
11
4.03543
21
-5.71457
0
LINE
8
BLACK
6
CONTINUOUS
10
4.075
20
-6.40925
11
4.075
21
-6.44075
0
LINE
8
BLACK
6
CONTINUOUS
10
4.05925
20
-6.425
11
4.09075
21
-6.425
0
LINE
8
BLACK
6
CONTINUOUS
10
4.11969
20
-5.09882
11
4.11969
21
-5.13031
0
LINE
8
BLACK
6
CONTINUOUS
10
4.10394
20
-5.11457
11
4.13543
21
-5.11457
0
LINE
8
BLACK
6
CONTINUOUS
10
4.11969
20
-5.69882
11
4.11969
21
-5.73031
0
LINE
8
BLACK
6
CONTINUOUS
10
4.10394
20
-5.71457
11
4.13543
21
-5.71457
0
LINE
8
BLACK
6
CONTINUOUS
10
4.21969
20
-5.09882
11
4.21969
21
-5.13031
0
LINE
8
BLACK
6
CONTINUOUS
10
4.20394
20
-5.11457
11
4.23543
21
-5.11457
0
LINE
8
BLACK
6
CONTINUOUS
10
4.21969
20
-5.69882
11
4.21969
21
-5.73031
0
LINE
8
BLACK
6
CONTINUOUS
10
4.20394
20
-5.71457
11
4.23543
21
-5.71457
0
LINE
8
BLACK
6
CONTINUOUS
10
4.31969
20
-5.09882
11
4.31969
21
-5.13031
0
LINE
8
BLACK
6
CONTINUOUS
10
4.30394
20
-5.11457
11
4.33543
21
-5.11457
0
LINE
8
BLACK
6
CONTINUOUS
10
4.31969
20
-5.69882
11
4.31969
21
-5.73031
0
LINE
8
BLACK
6
CONTINUOUS
10
4.30394
20
-5.71457
11
4.33543
21
-5.71457
0
LINE
8
BLACK
6
CONTINUOUS
10
4.41969
20
-5.09882
11
4.41969
21
-5.13031
0
LINE
8
BLACK
6
CONTINUOUS
10
4.40394
20
-5.11457
11
4.43543
21
-5.11457
0
LINE
8
BLACK
6
CONTINUOUS
10
4.41969
20
-5.69882
11
4.41969
21
-5.73031
0
LINE
8
BLACK
6
CONTINUOUS
10
4.40394
20
-5.71457
11
4.43543
21
-5.71457
0
LINE
8
BLACK
6
CONTINUOUS
10
4.51969
20
-5.09882
11
4.51969
21
-5.13031
0
LINE
8
BLACK
6
CONTINUOUS
10
4.50394
20
-5.11457
11
4.53543
21
-5.11457
0
LINE
8
BLACK
6
CONTINUOUS
10
4.51969
20
-5.69882
11
4.51969
21
-5.73031
0
LINE
8
BLACK
6
CONTINUOUS
10
4.50394
20
-5.71457
11
4.53543
21
-5.71457
0
LINE
8
BLACK
6
CONTINUOUS
10
4.61969
20
-5.09882
11
4.61969
21
-5.13031
0
LINE
8
BLACK
6
CONTINUOUS
10
4.60394
20
-5.11457
11
4.63543
21
-5.11457
0
LINE
8
BLACK
6
CONTINUOUS
10
4.61969
20
-5.69882
11
4.61969
21
-5.73031
0
LINE
8
BLACK
6
CONTINUOUS
10
4.60394
20
-5.71457
11
4.63543
21
-5.71457
0
LINE
8
BLACK
6
CONTINUOUS
10
4.65
20
-6.22087
11
4.65
21
-6.25236
0
LINE
8
BLACK
6
CONTINUOUS
10
4.63425
20
-6.23661
11
4.66575
21
-6.23661
0
LINE
8
BLACK
6
CONTINUOUS
10
4.71969
20
-5.09882
11
4.71969
21
-5.13031
0
LINE
8
BLACK
6
CONTINUOUS
10
4.70394
20
-5.11457
11
4.73543
21
-5.11457
0
LINE
8
BLACK
6
CONTINUOUS
10
4.71969
20
-5.69882
11
4.71969
21
-5.73031
0
LINE
8
BLACK
6
CONTINUOUS
10
4.70394
20
-5.71457
11
4.73543
21
-5.71457
0
LINE
8
BLACK
6
CONTINUOUS
10
4.74843
20
-6.22087
11
4.74843
21
-6.25236
0
LINE
8
BLACK
6
CONTINUOUS
10
4.73268
20
-6.23661
11
4.76417
21
-6.23661
0
LINE
8
BLACK
6
CONTINUOUS
10
4.81969
20
-5.09882
11
4.81969
21
-5.13031
0
LINE
8
BLACK
6
CONTINUOUS
10
4.80394
20
-5.11457
11
4.83543
21
-5.11457
0
LINE
8
BLACK
6
CONTINUOUS
10
4.81969
20
-5.69882
11
4.81969
21
-5.73031
0
LINE
8
BLACK
6
CONTINUOUS
10
4.80394
20
-5.71457
11
4.83543
21
-5.71457
0
LINE
8
BLACK
6
CONTINUOUS
10
4.91969
20
-5.09882
11
4.91969
21
-5.13031
0
LINE
8
BLACK
6
CONTINUOUS
10
4.90394
20
-5.11457
11
4.93543
21
-5.11457
0
LINE
8
BLACK
6
CONTINUOUS
10
4.91969
20
-5.69882
11
4.91969
21
-5.73031
0
LINE
8
BLACK
6
CONTINUOUS
10
4.90394
20
-5.71457
11
4.93543
21
-5.71457
0
LINE
8
BLACK
6
CONTINUOUS
10
5.01969
20
-5.09882
11
5.01969
21
-5.13031
0
LINE
8
BLACK
6
CONTINUOUS
10
5.00394
20
-5.11457
11
5.03543
21
-5.11457
0
LINE
8
BLACK
6
CONTINUOUS
10
5.01969
20
-5.69882
11
5.01969
21
-5.73031
0
LINE
8
BLACK
6
CONTINUOUS
10
5.00394
20
-5.71457
11
5.03543
21
-5.71457
0
LINE
8
BLACK
6
CONTINUOUS
10
5.11969
20
-5.09882
11
5.11969
21
-5.13031
0
LINE
8
BLACK
6
CONTINUOUS
10
5.10394
20
-5.11457
11
5.13543
21
-5.11457
0
LINE
8
BLACK
6
CONTINUOUS
10
5.11969
20
-5.69882
11
5.11969
21
-5.73031
0
LINE
8
BLACK
6
CONTINUOUS
10
5.10394
20
-5.71457
11
5.13543
21
-5.71457
0
LINE
8
BLACK
6
CONTINUOUS
10
5.21969
20
-5.09882
11
5.21969
21
-5.13031
0
LINE
8
BLACK
6
CONTINUOUS
10
5.20394
20
-5.11457
11
5.23543
21
-5.11457
0
LINE
8
BLACK
6
CONTINUOUS
10
5.21969
20
-5.69882
11
5.21969
21
-5.73031
0
LINE
8
BLACK
6
CONTINUOUS
10
5.20394
20
-5.71457
11
5.23543
21
-5.71457
0
LINE
8
BLACK
6
CONTINUOUS
10
5.31969
20
-5.09882
11
5.31969
21
-5.13031
0
LINE
8
BLACK
6
CONTINUOUS
10
5.30394
20
-5.11457
11
5.33543
21
-5.11457
0
LINE
8
BLACK
6
CONTINUOUS
10
5.31969
20
-5.69882
11
5.31969
21
-5.73031
0
LINE
8
BLACK
6
CONTINUOUS
10
5.30394
20
-5.71457
11
5.33543
21
-5.71457
0
LINE
8
BLACK
6
CONTINUOUS
10
5.41969
20
-5.09882
11
5.41969
21
-5.13031
0
LINE
8
BLACK
6
CONTINUOUS
10
5.40394
20
-5.11457
11
5.43543
21
-5.11457
0
LINE
8
BLACK
6
CONTINUOUS
10
5.41969
20
-5.69882
11
5.41969
21
-5.73031
0
LINE
8
BLACK
6
CONTINUOUS
10
5.40394
20
-5.71457
11
5.43543
21
-5.71457
0
LINE
8
BLACK
6
CONTINUOUS
10
5.51969
20
-5.09882
11
5.51969
21
-5.13031
0
LINE
8
BLACK
6
CONTINUOUS
10
5.50394
20
-5.11457
11
5.53543
21
-5.11457
0
LINE
8
BLACK
6
CONTINUOUS
10
5.51969
20
-5.69882
11
5.51969
21
-5.73031
0
LINE
8
BLACK
6
CONTINUOUS
10
5.50394
20
-5.71457
11
5.53543
21
-5.71457
0
LINE
8
BLACK
6
CONTINUOUS
10
5.61969
20
-5.09882
11
5.61969
21
-5.13031
0
LINE
8
BLACK
6
CONTINUOUS
10
5.60394
20
-5.11457
11
5.63543
21
-5.11457
0
LINE
8
BLACK
6
CONTINUOUS
10
5.61969
20
-5.69882
11
5.61969
21
-5.73031
0
LINE
8
BLACK
6
CONTINUOUS
10
5.60394
20
-5.71457
11
5.63543
21
-5.71457
0
LINE
8
BLACK
6
CONTINUOUS
10
5.86378
20
-5.31732
11
5.86378
21
-5.34882
0
LINE
8
BLACK
6
CONTINUOUS
10
5.84803
20
-5.33307
11
5.87953
21
-5.33307
0
LINE
8
BLACK
6
CONTINUOUS
10
5.86378
20
-5.51024
11
5.86378
21
-5.54173
0
LINE
8
BLACK
6
CONTINUOUS
10
5.84803
20
-5.52598
11
5.87953
21
-5.52598
0
LINE
8
BLACK
6
CONTINUOUS
10
6.15709
20
-5.2563
11
6.15709
21
-5.2878
0
LINE
8
BLACK
6
CONTINUOUS
10
6.14134
20
-5.27205
11
6.17283
21
-5.27205
0
LINE
8
BLACK
6
CONTINUOUS
10
6.25551
20
-5.2563
11
6.25551
21
-5.2878
0
LINE
8
BLACK
6
CONTINUOUS
10
6.23976
20
-5.27205
11
6.27126
21
-5.27205
0
LINE
8
BLACK
6
CONTINUOUS
10
6.41693
20
-5.2563
11
6.41693
21
-5.2878
0
LINE
8
BLACK
6
CONTINUOUS
10
6.40118
20
-5.27205
11
6.43268
21
-5.27205
0
LINE
8
BLACK
6
CONTINUOUS
10
6.51535
20
-5.2563
11
6.51535
21
-5.2878
0
LINE
8
BLACK
6
CONTINUOUS
10
6.49961
20
-5.27205
11
6.5311
21
-5.27205
0
LINE
8
BLACK
6
CONTINUOUS
10
3.52022
20
-5.25998
11
3.52022
21
-5.23214
0
LINE
8
BLACK
6
CONTINUOUS
10
3.52022
20
-5.23214
11
3.49238
21
-5.23214
0
LINE
8
BLACK
6
CONTINUOUS
10
3.49238
20
-5.23214
11
3.49238
21
-5.25998
0
LINE
8
BLACK
6
CONTINUOUS
10
3.49238
20
-5.25998
11
3.52022
21
-5.25998
0
LINE
8
BLACK
6
CONTINUOUS
10
3.52022
20
-5.35998
11
3.52022
21
-5.33214
0
LINE
8
BLACK
6
CONTINUOUS
10
3.52022
20
-5.33214
11
3.49238
21
-5.33214
0
LINE
8
BLACK
6
CONTINUOUS
10
3.49238
20
-5.33214
11
3.49238
21
-5.35998
0
LINE
8
BLACK
6
CONTINUOUS
10
3.49238
20
-5.35998
11
3.52022
21
-5.35998
0
LINE
8
BLACK
6
CONTINUOUS
10
3.52022
20
-5.45998
11
3.52022
21
-5.43214
0
LINE
8
BLACK
6
CONTINUOUS
10
3.52022
20
-5.43214
11
3.49238
21
-5.43214
0
LINE
8
BLACK
6
CONTINUOUS
10
3.49238
20
-5.43214
11
3.49238
21
-5.45998
0
LINE
8
BLACK
6
CONTINUOUS
10
3.49238
20
-5.45998
11
3.52022
21
-5.45998
0
LINE
8
BLACK
6
CONTINUOUS
10
3.52022
20
-5.55998
11
3.52022
21
-5.53214
0
LINE
8
BLACK
6
CONTINUOUS
10
3.52022
20
-5.53214
11
3.49238
21
-5.53214
0
LINE
8
BLACK
6
CONTINUOUS
10
3.49238
20
-5.53214
11
3.49238
21
-5.55998
0
LINE
8
BLACK
6
CONTINUOUS
10
3.49238
20
-5.55998
11
3.52022
21
-5.55998
0
LINE
8
BLACK
6
CONTINUOUS
10
3.52022
20
-5.65998
11
3.52022
21
-5.63214
0
LINE
8
BLACK
6
CONTINUOUS
10
3.52022
20
-5.63214
11
3.49238
21
-5.63214
0
LINE
8
BLACK
6
CONTINUOUS
10
3.49238
20
-5.63214
11
3.49238
21
-5.65998
0
LINE
8
BLACK
6
CONTINUOUS
10
3.49238
20
-5.65998
11
3.52022
21
-5.65998
0
LINE
8
BLACK
6
CONTINUOUS
10
4.21392
20
-6.69392
11
4.21392
21
-6.66608
0
LINE
8
BLACK
6
CONTINUOUS
10
4.21392
20
-6.66608
11
4.18608
21
-6.66608
0
LINE
8
BLACK
6
CONTINUOUS
10
4.18608
20
-6.66608
11
4.18608
21
-6.69392
0
LINE
8
BLACK
6
CONTINUOUS
10
4.18608
20
-6.69392
11
4.21392
21
-6.69392
0
LINE
8
BLACK
6
CONTINUOUS
10
4.31392
20
-6.69392
11
4.31392
21
-6.66608
0
LINE
8
BLACK
6
CONTINUOUS
10
4.31392
20
-6.66608
11
4.28608
21
-6.66608
0
LINE
8
BLACK
6
CONTINUOUS
10
4.28608
20
-6.66608
11
4.28608
21
-6.69392
0
LINE
8
BLACK
6
CONTINUOUS
10
4.28608
20
-6.69392
11
4.31392
21
-6.69392
0
LINE
8
BLACK
6
CONTINUOUS
10
4.41392
20
-6.69392
11
4.41392
21
-6.66608
0
LINE
8
BLACK
6
CONTINUOUS
10
4.41392
20
-6.66608
11
4.38608
21
-6.66608
0
LINE
8
BLACK
6
CONTINUOUS
10
4.38608
20
-6.66608
11
4.38608
21
-6.69392
0
LINE
8
BLACK
6
CONTINUOUS
10
4.38608
20
-6.69392
11
4.41392
21
-6.69392
0
LINE
8
BLACK
6
CONTINUOUS
10
6.1525
20
-5.51038
11
6.1525
21
-5.48254
0
LINE
8
BLACK
6
CONTINUOUS
10
6.1525
20
-5.48254
11
6.12466
21
-5.48254
0
LINE
8
BLACK
6
CONTINUOUS
10
6.12466
20
-5.48254
11
6.12466
21
-5.51038
0
LINE
8
BLACK
6
CONTINUOUS
10
6.12466
20
-5.51038
11
6.1525
21
-5.51038
0
LINE
8
BLACK
6
CONTINUOUS
10
6.2525
20
-5.51038
11
6.2525
21
-5.48254
0
LINE
8
BLACK
6
CONTINUOUS
10
6.2525
20
-5.48254
11
6.22466
21
-5.48254
0
LINE
8
BLACK
6
CONTINUOUS
10
6.22466
20
-5.48254
11
6.22466
21
-5.51038
0
LINE
8
BLACK
6
CONTINUOUS
10
6.22466
20
-5.51038
11
6.2525
21
-5.51038
0
LINE
8
BLACK
6
CONTINUOUS
10
6.3525
20
-5.51038
11
6.3525
21
-5.48254
0
LINE
8
BLACK
6
CONTINUOUS
10
6.3525
20
-5.48254
11
6.32466
21
-5.48254
0
LINE
8
BLACK
6
CONTINUOUS
10
6.32466
20
-5.48254
11
6.32466
21
-5.51038
0
LINE
8
BLACK
6
CONTINUOUS
10
6.32466
20
-5.51038
11
6.3525
21
-5.51038
0
LINE
8
BLACK
6
CONTINUOUS
10
6.4525
20
-5.51038
11
6.4525
21
-5.48254
0
LINE
8
BLACK
6
CONTINUOUS
10
6.4525
20
-5.48254
11
6.42466
21
-5.48254
0
LINE
8
BLACK
6
CONTINUOUS
10
6.42466
20
-5.48254
11
6.42466
21
-5.51038
0
LINE
8
BLACK
6
CONTINUOUS
10
6.42466
20
-5.51038
11
6.4525
21
-5.51038
0
LINE
8
BLACK
6
CONTINUOUS
10
6.5525
20
-5.51038
11
6.5525
21
-5.48254
0
LINE
8
BLACK
6
CONTINUOUS
10
6.5525
20
-5.48254
11
6.52466
21
-5.48254
0
LINE
8
BLACK
6
CONTINUOUS
10
6.52466
20
-5.48254
11
6.52466
21
-5.51038
0
LINE
8
BLACK
6
CONTINUOUS
10
6.52466
20
-5.51038
11
6.5525
21
-5.51038
0
LINE
8
BLACK
6
CONTINUOUS
10
3.32682
20
-7.07912
11
3.32682
21
-7.00038
0
LINE
8
BLACK
6
CONTINUOUS
10
3.32682
20
-7.00038
11
3.34557
21
-7.00038
0
LINE
8
BLACK
6
CONTINUOUS
10
3.34557
20
-7.00038
11
3.35681
21
-7.00413
0
LINE
8
BLACK
6
CONTINUOUS
10
3.35681
20
-7.00413
11
3.36431
21
-7.01163
0
LINE
8
BLACK
6
CONTINUOUS
10
3.36431
20
-7.01163
11
3.36806
21
-7.01913
0
LINE
8
BLACK
6
CONTINUOUS
10
3.36806
20
-7.01913
11
3.37181
21
-7.03413
0
LINE
8
BLACK
6
CONTINUOUS
10
3.37181
20
-7.03413
11
3.37181
21
-7.04538
0
LINE
8
BLACK
6
CONTINUOUS
10
3.37181
20
-7.04538
11
3.36806
21
-7.06038
0
LINE
8
BLACK
6
CONTINUOUS
10
3.36806
20
-7.06038
11
3.36431
21
-7.06788
0
LINE
8
BLACK
6
CONTINUOUS
10
3.36431
20
-7.06788
11
3.35681
21
-7.07537
0
LINE
8
BLACK
6
CONTINUOUS
10
3.35681
20
-7.07537
11
3.34557
21
-7.07912
0
LINE
8
BLACK
6
CONTINUOUS
10
3.34557
20
-7.07912
11
3.32682
21
-7.07912
0
LINE
8
BLACK
6
CONTINUOUS
10
3.40556
20
-7.07912
11
3.40556
21
-7.02663
0
LINE
8
BLACK
6
CONTINUOUS
10
3.40556
20
-7.04163
11
3.40931
21
-7.03413
0
LINE
8
BLACK
6
CONTINUOUS
10
3.40931
20
-7.03413
11
3.41306
21
-7.03038
0
LINE
8
BLACK
6
CONTINUOUS
10
3.41306
20
-7.03038
11
3.42056
21
-7.02663
0
LINE
8
BLACK
6
CONTINUOUS
10
3.42056
20
-7.02663
11
3.42806
21
-7.02663
0
LINE
8
BLACK
6
CONTINUOUS
10
3.4543
20
-7.07912
11
3.4543
21
-7.02663
0
LINE
8
BLACK
6
CONTINUOUS
10
3.4543
20
-7.00038
11
3.45055
21
-7.00413
0
LINE
8
BLACK
6
CONTINUOUS
10
3.45055
20
-7.00413
11
3.4543
21
-7.00788
0
LINE
8
BLACK
6
CONTINUOUS
10
3.4543
20
-7.00788
11
3.45805
21
-7.00413
0
LINE
8
BLACK
6
CONTINUOUS
10
3.45805
20
-7.00413
11
3.4543
21
-7.00038
0
LINE
8
BLACK
6
CONTINUOUS
10
3.4543
20
-7.00038
11
3.4543
21
-7.00788
0
LINE
8
BLACK
6
CONTINUOUS
10
3.50305
20
-7.07912
11
3.49555
21
-7.07537
0
LINE
8
BLACK
6
CONTINUOUS
10
3.49555
20
-7.07537
11
3.4918
21
-7.06788
0
LINE
8
BLACK
6
CONTINUOUS
10
3.4918
20
-7.06788
11
3.4918
21
-7.00038
0
LINE
8
BLACK
6
CONTINUOUS
10
3.54429
20
-7.07912
11
3.53679
21
-7.07537
0
LINE
8
BLACK
6
CONTINUOUS
10
3.53679
20
-7.07537
11
3.53304
21
-7.06788
0
LINE
8
BLACK
6
CONTINUOUS
10
3.53304
20
-7.06788
11
3.53304
21
-7.00038
0
LINE
8
BLACK
6
CONTINUOUS
10
3.62153
20
-7.07912
11
3.62153
21
-7.00038
0
LINE
8
BLACK
6
CONTINUOUS
10
3.62153
20
-7.00038
11
3.64778
21
-7.05663
0
LINE
8
BLACK
6
CONTINUOUS
10
3.64778
20
-7.05663
11
3.67403
21
-7.00038
0
LINE
8
BLACK
6
CONTINUOUS
10
3.67403
20
-7.00038
11
3.67403
21
-7.07912
0
LINE
8
BLACK
6
CONTINUOUS
10
3.74527
20
-7.07912
11
3.74527
21
-7.03788
0
LINE
8
BLACK
6
CONTINUOUS
10
3.74527
20
-7.03788
11
3.74152
21
-7.03038
0
LINE
8
BLACK
6
CONTINUOUS
10
3.74152
20
-7.03038
11
3.73402
21
-7.02663
0
LINE
8
BLACK
6
CONTINUOUS
10
3.73402
20
-7.02663
11
3.71902
21
-7.02663
0
LINE
8
BLACK
6
CONTINUOUS
10
3.71902
20
-7.02663
11
3.71152
21
-7.03038
0
LINE
8
BLACK
6
CONTINUOUS
10
3.74527
20
-7.07537
11
3.73777
21
-7.07912
0
LINE
8
BLACK
6
CONTINUOUS
10
3.73777
20
-7.07912
11
3.71902
21
-7.07912
0
LINE
8
BLACK
6
CONTINUOUS
10
3.71902
20
-7.07912
11
3.71152
21
-7.07537
0
LINE
8
BLACK
6
CONTINUOUS
10
3.71152
20
-7.07537
11
3.70777
21
-7.06788
0
LINE
8
BLACK
6
CONTINUOUS
10
3.70777
20
-7.06788
11
3.70777
21
-7.06038
0
LINE
8
BLACK
6
CONTINUOUS
10
3.70777
20
-7.06038
11
3.71152
21
-7.05288
0
LINE
8
BLACK
6
CONTINUOUS
10
3.71152
20
-7.05288
11
3.71902
21
-7.04913
0
LINE
8
BLACK
6
CONTINUOUS
10
3.71902
20
-7.04913
11
3.73777
21
-7.04913
0
LINE
8
BLACK
6
CONTINUOUS
10
3.73777
20
-7.04913
11
3.74527
21
-7.04538
0
LINE
8
BLACK
6
CONTINUOUS
10
3.78276
20
-7.02663
11
3.78276
21
-7.10537
0
LINE
8
BLACK
6
CONTINUOUS
10
3.78276
20
-7.03038
11
3.79026
21
-7.02663
0
LINE
8
BLACK
6
CONTINUOUS
10
3.79026
20
-7.02663
11
3.80526
21
-7.02663
0
LINE
8
BLACK
6
CONTINUOUS
10
3.80526
20
-7.02663
11
3.81276
21
-7.03038
0
LINE
8
BLACK
6
CONTINUOUS
10
3.81276
20
-7.03038
11
3.81651
21
-7.03413
0
LINE
8
BLACK
6
CONTINUOUS
10
3.81651
20
-7.03413
11
3.82026
21
-7.04163
0
LINE
8
BLACK
6
CONTINUOUS
10
3.82026
20
-7.04163
11
3.82026
21
-7.06413
0
LINE
8
BLACK
6
CONTINUOUS
10
3.82026
20
-7.06413
11
3.81651
21
-7.07163
0
LINE
8
BLACK
6
CONTINUOUS
10
3.81651
20
-7.07163
11
3.81276
21
-7.07537
0
LINE
8
BLACK
6
CONTINUOUS
10
3.81276
20
-7.07537
11
3.80526
21
-7.07912
0
LINE
8
BLACK
6
CONTINUOUS
10
3.80526
20
-7.07912
11
3.79026
21
-7.07912
0
LINE
8
BLACK
6
CONTINUOUS
10
3.79026
20
-7.07912
11
3.78276
21
-7.07537
0
LINE
8
BLACK
6
CONTINUOUS
10
3.854
20
-7.07163
11
3.85775
21
-7.07537
0
LINE
8
BLACK
6
CONTINUOUS
10
3.85775
20
-7.07537
11
3.854
21
-7.07912
0
LINE
8
BLACK
6
CONTINUOUS
10
3.854
20
-7.07912
11
3.85025
21
-7.07537
0
LINE
8
BLACK
6
CONTINUOUS
10
3.85025
20
-7.07537
11
3.854
21
-7.07163
0
LINE
8
BLACK
6
CONTINUOUS
10
3.854
20
-7.07163
11
3.854
21
-7.07912
0
LINE
8
BLACK
6
CONTINUOUS
10
3.854
20
-7.03038
11
3.85775
21
-7.03413
0
LINE
8
BLACK
6
CONTINUOUS
10
3.85775
20
-7.03413
11
3.854
21
-7.03788
0
LINE
8
BLACK
6
CONTINUOUS
10
3.854
20
-7.03788
11
3.85025
21
-7.03413
0
LINE
8
BLACK
6
CONTINUOUS
10
3.85025
20
-7.03413
11
3.854
21
-7.03038
0
LINE
8
BLACK
6
CONTINUOUS
10
3.854
20
-7.03038
11
3.854
21
-7.03788
0
LINE
8
BLACK
6
CONTINUOUS
10
3.21358
20
-7.20768
11
3.22933
21
-7.22343
0
LINE
8
BLACK
6
CONTINUOUS
10
3.22933
20
-7.20768
11
3.21358
21
-7.22343
0
LINE
8
BLACK
6
CONTINUOUS
10
3.34182
20
-7.16574
11
3.34932
21
-7.16574
0
LINE
8
BLACK
6
CONTINUOUS
10
3.34932
20
-7.16574
11
3.35681
21
-7.16949
0
LINE
8
BLACK
6
CONTINUOUS
10
3.35681
20
-7.16949
11
3.36056
21
-7.17324
0
LINE
8
BLACK
6
CONTINUOUS
10
3.36056
20
-7.17324
11
3.36431
21
-7.18074
0
LINE
8
BLACK
6
CONTINUOUS
10
3.36431
20
-7.18074
11
3.36806
21
-7.19573
0
LINE
8
BLACK
6
CONTINUOUS
10
3.36806
20
-7.19573
11
3.36806
21
-7.21448
0
LINE
8
BLACK
6
CONTINUOUS
10
3.36806
20
-7.21448
11
3.36431
21
-7.22948
0
LINE
8
BLACK
6
CONTINUOUS
10
3.36431
20
-7.22948
11
3.36056
21
-7.23698
0
LINE
8
BLACK
6
CONTINUOUS
10
3.36056
20
-7.23698
11
3.35681
21
-7.24073
0
LINE
8
BLACK
6
CONTINUOUS
10
3.35681
20
-7.24073
11
3.34932
21
-7.24448
0
LINE
8
BLACK
6
CONTINUOUS
10
3.34932
20
-7.24448
11
3.34182
21
-7.24448
0
LINE
8
BLACK
6
CONTINUOUS
10
3.34182
20
-7.24448
11
3.33432
21
-7.24073
0
LINE
8
BLACK
6
CONTINUOUS
10
3.33432
20
-7.24073
11
3.33057
21
-7.23698
0
LINE
8
BLACK
6
CONTINUOUS
10
3.33057
20
-7.23698
11
3.32682
21
-7.22948
0
LINE
8
BLACK
6
CONTINUOUS
10
3.32682
20
-7.22948
11
3.32307
21
-7.21448
0
LINE
8
BLACK
6
CONTINUOUS
10
3.32307
20
-7.21448
11
3.32307
21
-7.19573
0
LINE
8
BLACK
6
CONTINUOUS
10
3.32307
20
-7.19573
11
3.32682
21
-7.18074
0
LINE
8
BLACK
6
CONTINUOUS
10
3.32682
20
-7.18074
11
3.33057
21
-7.17324
0
LINE
8
BLACK
6
CONTINUOUS
10
3.33057
20
-7.17324
11
3.33432
21
-7.16949
0
LINE
8
BLACK
6
CONTINUOUS
10
3.33432
20
-7.16949
11
3.34182
21
-7.16574
0
LINE
8
BLACK
6
CONTINUOUS
10
3.40181
20
-7.23698
11
3.40556
21
-7.24073
0
LINE
8
BLACK
6
CONTINUOUS
10
3.40556
20
-7.24073
11
3.40181
21
-7.24448
0
LINE
8
BLACK
6
CONTINUOUS
10
3.40181
20
-7.24448
11
3.39806
21
-7.24073
0
LINE
8
BLACK
6
CONTINUOUS
10
3.39806
20
-7.24073
11
3.40181
21
-7.23698
0
LINE
8
BLACK
6
CONTINUOUS
10
3.40181
20
-7.23698
11
3.40181
21
-7.24448
0
LINE
8
BLACK
6
CONTINUOUS
10
3.47305
20
-7.19199
11
3.47305
21
-7.24448
0
LINE
8
BLACK
6
CONTINUOUS
10
3.4543
20
-7.16199
11
3.43555
21
-7.21823
0
LINE
8
BLACK
6
CONTINUOUS
10
3.43555
20
-7.21823
11
3.4843
21
-7.21823
0
LINE
8
BLACK
6
CONTINUOUS
10
3.52929
20
-7.16574
11
3.53679
21
-7.16574
0
LINE
8
BLACK
6
CONTINUOUS
10
3.53679
20
-7.16574
11
3.54429
21
-7.16949
0
LINE
8
BLACK
6
CONTINUOUS
10
3.54429
20
-7.16949
11
3.54804
21
-7.17324
0
LINE
8
BLACK
6
CONTINUOUS
10
3.54804
20
-7.17324
11
3.55179
21
-7.18074
0
LINE
8
BLACK
6
CONTINUOUS
10
3.55179
20
-7.18074
11
3.55554
21
-7.19573
0
LINE
8
BLACK
6
CONTINUOUS
10
3.55554
20
-7.19573
11
3.55554
21
-7.21448
0
LINE
8
BLACK
6
CONTINUOUS
10
3.55554
20
-7.21448
11
3.55179
21
-7.22948
0
LINE
8
BLACK
6
CONTINUOUS
10
3.55179
20
-7.22948
11
3.54804
21
-7.23698
0
LINE
8
BLACK
6
CONTINUOUS
10
3.54804
20
-7.23698
11
3.54429
21
-7.24073
0
LINE
8
BLACK
6
CONTINUOUS
10
3.54429
20
-7.24073
11
3.53679
21
-7.24448
0
LINE
8
BLACK
6
CONTINUOUS
10
3.53679
20
-7.24448
11
3.52929
21
-7.24448
0
LINE
8
BLACK
6
CONTINUOUS
10
3.52929
20
-7.24448
11
3.52179
21
-7.24073
0
LINE
8
BLACK
6
CONTINUOUS
10
3.52179
20
-7.24073
11
3.51804
21
-7.23698
0
LINE
8
BLACK
6
CONTINUOUS
10
3.51804
20
-7.23698
11
3.5143
21
-7.22948
0
LINE
8
BLACK
6
CONTINUOUS
10
3.5143
20
-7.22948
11
3.51055
21
-7.21448
0
LINE
8
BLACK
6
CONTINUOUS
10
3.51055
20
-7.21448
11
3.51055
21
-7.19573
0
LINE
8
BLACK
6
CONTINUOUS
10
3.51055
20
-7.19573
11
3.5143
21
-7.18074
0
LINE
8
BLACK
6
CONTINUOUS
10
3.5143
20
-7.18074
11
3.51804
21
-7.17324
0
LINE
8
BLACK
6
CONTINUOUS
10
3.51804
20
-7.17324
11
3.52179
21
-7.16949
0
LINE
8
BLACK
6
CONTINUOUS
10
3.52179
20
-7.16949
11
3.52929
21
-7.16574
0
LINE
8
BLACK
6
CONTINUOUS
10
3.60428
20
-7.16574
11
3.61178
21
-7.16574
0
LINE
8
BLACK
6
CONTINUOUS
10
3.61178
20
-7.16574
11
3.61928
21
-7.16949
0
LINE
8
BLACK
6
CONTINUOUS
10
3.61928
20
-7.16949
11
3.62303
21
-7.17324
0
LINE
8
BLACK
6
CONTINUOUS
10
3.62303
20
-7.17324
11
3.62678
21
-7.18074
0
LINE
8
BLACK
6
CONTINUOUS
10
3.62678
20
-7.18074
11
3.63053
21
-7.19573
0
LINE
8
BLACK
6
CONTINUOUS
10
3.63053
20
-7.19573
11
3.63053
21
-7.21448
0
LINE
8
BLACK
6
CONTINUOUS
10
3.63053
20
-7.21448
11
3.62678
21
-7.22948
0
LINE
8
BLACK
6
CONTINUOUS
10
3.62678
20
-7.22948
11
3.62303
21
-7.23698
0
LINE
8
BLACK
6
CONTINUOUS
10
3.62303
20
-7.23698
11
3.61928
21
-7.24073
0
LINE
8
BLACK
6
CONTINUOUS
10
3.61928
20
-7.24073
11
3.61178
21
-7.24448
0
LINE
8
BLACK
6
CONTINUOUS
10
3.61178
20
-7.24448
11
3.60428
21
-7.24448
0
LINE
8
BLACK
6
CONTINUOUS
10
3.60428
20
-7.24448
11
3.59678
21
-7.24073
0
LINE
8
BLACK
6
CONTINUOUS
10
3.59678
20
-7.24073
11
3.59304
21
-7.23698
0
LINE
8
BLACK
6
CONTINUOUS
10
3.59304
20
-7.23698
11
3.58929
21
-7.22948
0
LINE
8
BLACK
6
CONTINUOUS
10
3.58929
20
-7.22948
11
3.58554
21
-7.21448
0
LINE
8
BLACK
6
CONTINUOUS
10
3.58554
20
-7.21448
11
3.58554
21
-7.19573
0
LINE
8
BLACK
6
CONTINUOUS
10
3.58554
20
-7.19573
11
3.58929
21
-7.18074
0
LINE
8
BLACK
6
CONTINUOUS
10
3.58929
20
-7.18074
11
3.59304
21
-7.17324
0
LINE
8
BLACK
6
CONTINUOUS
10
3.59304
20
-7.17324
11
3.59678
21
-7.16949
0
LINE
8
BLACK
6
CONTINUOUS
10
3.59678
20
-7.16949
11
3.60428
21
-7.16574
0
LINE
8
BLACK
6
CONTINUOUS
10
3.66428
20
-7.24448
11
3.66428
21
-7.19199
0
LINE
8
BLACK
6
CONTINUOUS
10
3.66428
20
-7.19948
11
3.66803
21
-7.19573
0
LINE
8
BLACK
6
CONTINUOUS
10
3.66803
20
-7.19573
11
3.67552
21
-7.19199
0
LINE
8
BLACK
6
CONTINUOUS
10
3.67552
20
-7.19199
11
3.68677
21
-7.19199
0
LINE
8
BLACK
6
CONTINUOUS
10
3.68677
20
-7.19199
11
3.69427
21
-7.19573
0
LINE
8
BLACK
6
CONTINUOUS
10
3.69427
20
-7.19573
11
3.69802
21
-7.20323
0
LINE
8
BLACK
6
CONTINUOUS
10
3.69802
20
-7.20323
11
3.69802
21
-7.24448
0
LINE
8
BLACK
6
CONTINUOUS
10
3.69802
20
-7.20323
11
3.70177
21
-7.19573
0
LINE
8
BLACK
6
CONTINUOUS
10
3.70177
20
-7.19573
11
3.70927
21
-7.19199
0
LINE
8
BLACK
6
CONTINUOUS
10
3.70927
20
-7.19199
11
3.72052
21
-7.19199
0
LINE
8
BLACK
6
CONTINUOUS
10
3.72052
20
-7.19199
11
3.72802
21
-7.19573
0
LINE
8
BLACK
6
CONTINUOUS
10
3.72802
20
-7.19573
11
3.73177
21
-7.20323
0
LINE
8
BLACK
6
CONTINUOUS
10
3.73177
20
-7.20323
11
3.73177
21
-7.24448
0
LINE
8
BLACK
6
CONTINUOUS
10
3.76926
20
-7.24448
11
3.76926
21
-7.19199
0
LINE
8
BLACK
6
CONTINUOUS
10
3.76926
20
-7.19948
11
3.77301
21
-7.19573
0
LINE
8
BLACK
6
CONTINUOUS
10
3.77301
20
-7.19573
11
3.78051
21
-7.19199
0
LINE
8
BLACK
6
CONTINUOUS
10
3.78051
20
-7.19199
11
3.79176
21
-7.19199
0
LINE
8
BLACK
6
CONTINUOUS
10
3.79176
20
-7.19199
11
3.79926
21
-7.19573
0
LINE
8
BLACK
6
CONTINUOUS
10
3.79926
20
-7.19573
11
3.80301
21
-7.20323
0
LINE
8
BLACK
6
CONTINUOUS
10
3.80301
20
-7.20323
11
3.80301
21
-7.24448
0
LINE
8
BLACK
6
CONTINUOUS
10
3.80301
20
-7.20323
11
3.80676
21
-7.19573
0
LINE
8
BLACK
6
CONTINUOUS
10
3.80676
20
-7.19573
11
3.81426
21
-7.19199
0
LINE
8
BLACK
6
CONTINUOUS
10
3.81426
20
-7.19199
11
3.82551
21
-7.19199
0
LINE
8
BLACK
6
CONTINUOUS
10
3.82551
20
-7.19199
11
3.83301
21
-7.19573
0
LINE
8
BLACK
6
CONTINUOUS
10
3.83301
20
-7.19573
11
3.83675
21
-7.20323
0
LINE
8
BLACK
6
CONTINUOUS
10
3.83675
20
-7.20323
11
3.83675
21
-7.24448
0
LINE
8
BLACK
6
CONTINUOUS
10
3.97774
20
-7.16199
11
3.91025
21
-7.26323
0
LINE
8
BLACK
6
CONTINUOUS
10
4.06623
20
-7.16574
11
4.07373
21
-7.16574
0
LINE
8
BLACK
6
CONTINUOUS
10
4.07373
20
-7.16574
11
4.08122
21
-7.16949
0
LINE
8
BLACK
6
CONTINUOUS
10
4.08122
20
-7.16949
11
4.08497
21
-7.17324
0
LINE
8
BLACK
6
CONTINUOUS
10
4.08497
20
-7.17324
11
4.08872
21
-7.18074
0
LINE
8
BLACK
6
CONTINUOUS
10
4.08872
20
-7.18074
11
4.09247
21
-7.19573
0
LINE
8
BLACK
6
CONTINUOUS
10
4.09247
20
-7.19573
11
4.09247
21
-7.21448
0
LINE
8
BLACK
6
CONTINUOUS
10
4.09247
20
-7.21448
11
4.08872
21
-7.22948
0
LINE
8
BLACK
6
CONTINUOUS
10
4.08872
20
-7.22948
11
4.08497
21
-7.23698
0
LINE
8
BLACK
6
CONTINUOUS
10
4.08497
20
-7.23698
11
4.08122
21
-7.24073
0
LINE
8
BLACK
6
CONTINUOUS
10
4.08122
20
-7.24073
11
4.07373
21
-7.24448
0
LINE
8
BLACK
6
CONTINUOUS
10
4.07373
20
-7.24448
11
4.06623
21
-7.24448
0
LINE
8
BLACK
6
CONTINUOUS
10
4.06623
20
-7.24448
11
4.05873
21
-7.24073
0
LINE
8
BLACK
6
CONTINUOUS
10
4.05873
20
-7.24073
11
4.05498
21
-7.23698
0
LINE
8
BLACK
6
CONTINUOUS
10
4.05498
20
-7.23698
11
4.05123
21
-7.22948
0
LINE
8
BLACK
6
CONTINUOUS
10
4.05123
20
-7.22948
11
4.04748
21
-7.21448
0
LINE
8
BLACK
6
CONTINUOUS
10
4.04748
20
-7.21448
11
4.04748
21
-7.19573
0
LINE
8
BLACK
6
CONTINUOUS
10
4.04748
20
-7.19573
11
4.05123
21
-7.18074
0
LINE
8
BLACK
6
CONTINUOUS
10
4.05123
20
-7.18074
11
4.05498
21
-7.17324
0
LINE
8
BLACK
6
CONTINUOUS
10
4.05498
20
-7.17324
11
4.05873
21
-7.16949
0
LINE
8
BLACK
6
CONTINUOUS
10
4.05873
20
-7.16949
11
4.06623
21
-7.16574
0
LINE
8
BLACK
6
CONTINUOUS
10
4.12622
20
-7.23698
11
4.12997
21
-7.24073
0
LINE
8
BLACK
6
CONTINUOUS
10
4.12997
20
-7.24073
11
4.12622
21
-7.24448
0
LINE
8
BLACK
6
CONTINUOUS
10
4.12622
20
-7.24448
11
4.12247
21
-7.24073
0
LINE
8
BLACK
6
CONTINUOUS
10
4.12247
20
-7.24073
11
4.12622
21
-7.23698
0
LINE
8
BLACK
6
CONTINUOUS
10
4.12622
20
-7.23698
11
4.12622
21
-7.24448
0
LINE
8
BLACK
6
CONTINUOUS
10
4.17871
20
-7.16574
11
4.18621
21
-7.16574
0
LINE
8
BLACK
6
CONTINUOUS
10
4.18621
20
-7.16574
11
4.19371
21
-7.16949
0
LINE
8
BLACK
6
CONTINUOUS
10
4.19371
20
-7.16949
11
4.19746
21
-7.17324
0
LINE
8
BLACK
6
CONTINUOUS
10
4.19746
20
-7.17324
11
4.20121
21
-7.18074
0
LINE
8
BLACK
6
CONTINUOUS
10
4.20121
20
-7.18074
11
4.20496
21
-7.19573
0
LINE
8
BLACK
6
CONTINUOUS
10
4.20496
20
-7.19573
11
4.20496
21
-7.21448
0
LINE
8
BLACK
6
CONTINUOUS
10
4.20496
20
-7.21448
11
4.20121
21
-7.22948
0
LINE
8
BLACK
6
CONTINUOUS
10
4.20121
20
-7.22948
11
4.19746
21
-7.23698
0
LINE
8
BLACK
6
CONTINUOUS
10
4.19746
20
-7.23698
11
4.19371
21
-7.24073
0
LINE
8
BLACK
6
CONTINUOUS
10
4.19371
20
-7.24073
11
4.18621
21
-7.24448
0
LINE
8
BLACK
6
CONTINUOUS
10
4.18621
20
-7.24448
11
4.17871
21
-7.24448
0
LINE
8
BLACK
6
CONTINUOUS
10
4.17871
20
-7.24448
11
4.17121
21
-7.24073
0
LINE
8
BLACK
6
CONTINUOUS
10
4.17121
20
-7.24073
11
4.16746
21
-7.23698
0
LINE
8
BLACK
6
CONTINUOUS
10
4.16746
20
-7.23698
11
4.16371
21
-7.22948
0
LINE
8
BLACK
6
CONTINUOUS
10
4.16371
20
-7.22948
11
4.15996
21
-7.21448
0
LINE
8
BLACK
6
CONTINUOUS
10
4.15996
20
-7.21448
11
4.15996
21
-7.19573
0
LINE
8
BLACK
6
CONTINUOUS
10
4.15996
20
-7.19573
11
4.16371
21
-7.18074
0
LINE
8
BLACK
6
CONTINUOUS
10
4.16371
20
-7.18074
11
4.16746
21
-7.17324
0
LINE
8
BLACK
6
CONTINUOUS
10
4.16746
20
-7.17324
11
4.17121
21
-7.16949
0
LINE
8
BLACK
6
CONTINUOUS
10
4.17121
20
-7.16949
11
4.17871
21
-7.16574
0
LINE
8
BLACK
6
CONTINUOUS
10
4.27995
20
-7.24448
11
4.23496
21
-7.24448
0
LINE
8
BLACK
6
CONTINUOUS
10
4.25745
20
-7.24448
11
4.25745
21
-7.16574
0
LINE
8
BLACK
6
CONTINUOUS
10
4.25745
20
-7.16574
11
4.24995
21
-7.17699
0
LINE
8
BLACK
6
CONTINUOUS
10
4.24995
20
-7.17699
11
4.24245
21
-7.18449
0
LINE
8
BLACK
6
CONTINUOUS
10
4.24245
20
-7.18449
11
4.23496
21
-7.18824
0
LINE
8
BLACK
6
CONTINUOUS
10
4.35119
20
-7.16574
11
4.3137
21
-7.16574
0
LINE
8
BLACK
6
CONTINUOUS
10
4.3137
20
-7.16574
11
4.30995
21
-7.20323
0
LINE
8
BLACK
6
CONTINUOUS
10
4.30995
20
-7.20323
11
4.3137
21
-7.19948
0
LINE
8
BLACK
6
CONTINUOUS
10
4.3137
20
-7.19948
11
4.32119
21
-7.19573
0
LINE
8
BLACK
6
CONTINUOUS
10
4.32119
20
-7.19573
11
4.33994
21
-7.19573
0
LINE
8
BLACK
6
CONTINUOUS
10
4.33994
20
-7.19573
11
4.34744
21
-7.19948
0
LINE
8
BLACK
6
CONTINUOUS
10
4.34744
20
-7.19948
11
4.35119
21
-7.20323
0
LINE
8
BLACK
6
CONTINUOUS
10
4.35119
20
-7.20323
11
4.35494
21
-7.21073
0
LINE
8
BLACK
6
CONTINUOUS
10
4.35494
20
-7.21073
11
4.35494
21
-7.22948
0
LINE
8
BLACK
6
CONTINUOUS
10
4.35494
20
-7.22948
11
4.35119
21
-7.23698
0
LINE
8
BLACK
6
CONTINUOUS
10
4.35119
20
-7.23698
11
4.34744
21
-7.24073
0
LINE
8
BLACK
6
CONTINUOUS
10
4.34744
20
-7.24073
11
4.33994
21
-7.24448
0
LINE
8
BLACK
6
CONTINUOUS
10
4.33994
20
-7.24448
11
4.32119
21
-7.24448
0
LINE
8
BLACK
6
CONTINUOUS
10
4.32119
20
-7.24448
11
4.3137
21
-7.24073
0
LINE
8
BLACK
6
CONTINUOUS
10
4.3137
20
-7.24073
11
4.30995
21
-7.23698
0
LINE
8
BLACK
6
CONTINUOUS
10
4.38119
20
-7.16574
11
4.43368
21
-7.16574
0
LINE
8
BLACK
6
CONTINUOUS
10
4.43368
20
-7.16574
11
4.39993
21
-7.24448
0
LINE
8
BLACK
6
CONTINUOUS
10
4.45993
20
-7.16574
11
4.45993
21
-7.18074
0
LINE
8
BLACK
6
CONTINUOUS
10
4.48992
20
-7.16574
11
4.48992
21
-7.18074
0
LINE
8
BLACK
6
CONTINUOUS
10
4.59341
20
-7.27448
11
4.58966
21
-7.27073
0
LINE
8
BLACK
6
CONTINUOUS
10
4.58966
20
-7.27073
11
4.58216
21
-7.25948
0
LINE
8
BLACK
6
CONTINUOUS
10
4.58216
20
-7.25948
11
4.57841
21
-7.25198
0
LINE
8
BLACK
6
CONTINUOUS
10
4.57841
20
-7.25198
11
4.57466
21
-7.24073
0
LINE
8
BLACK
6
CONTINUOUS
10
4.57466
20
-7.24073
11
4.57091
21
-7.22198
0
LINE
8
BLACK
6
CONTINUOUS
10
4.57091
20
-7.22198
11
4.57091
21
-7.20698
0
LINE
8
BLACK
6
CONTINUOUS
10
4.57091
20
-7.20698
11
4.57466
21
-7.18824
0
LINE
8
BLACK
6
CONTINUOUS
10
4.57466
20
-7.18824
11
4.57841
21
-7.17699
0
LINE
8
BLACK
6
CONTINUOUS
10
4.57841
20
-7.17699
11
4.58216
21
-7.16949
0
LINE
8
BLACK
6
CONTINUOUS
10
4.58216
20
-7.16949
11
4.58966
21
-7.15824
0
LINE
8
BLACK
6
CONTINUOUS
10
4.58966
20
-7.15824
11
4.59341
21
-7.15449
0
LINE
8
BLACK
6
CONTINUOUS
10
4.66465
20
-7.24448
11
4.61966
21
-7.24448
0
LINE
8
BLACK
6
CONTINUOUS
10
4.64215
20
-7.24448
11
4.64215
21
-7.16574
0
LINE
8
BLACK
6
CONTINUOUS
10
4.64215
20
-7.16574
11
4.63466
21
-7.17699
0
LINE
8
BLACK
6
CONTINUOUS
10
4.63466
20
-7.17699
11
4.62716
21
-7.18449
0
LINE
8
BLACK
6
CONTINUOUS
10
4.62716
20
-7.18449
11
4.61966
21
-7.18824
0
LINE
8
BLACK
6
CONTINUOUS
10
4.74564
20
-7.24448
11
4.74564
21
-7.16574
0
LINE
8
BLACK
6
CONTINUOUS
10
4.77939
20
-7.24448
11
4.77939
21
-7.20323
0
LINE
8
BLACK
6
CONTINUOUS
10
4.77939
20
-7.20323
11
4.77564
21
-7.19573
0
LINE
8
BLACK
6
CONTINUOUS
10
4.77564
20
-7.19573
11
4.76814
21
-7.19199
0
LINE
8
BLACK
6
CONTINUOUS
10
4.76814
20
-7.19199
11
4.75689
21
-7.19199
0
LINE
8
BLACK
6
CONTINUOUS
10
4.75689
20
-7.19199
11
4.74939
21
-7.19573
0
LINE
8
BLACK
6
CONTINUOUS
10
4.74939
20
-7.19573
11
4.74564
21
-7.19948
0
LINE
8
BLACK
6
CONTINUOUS
10
4.82813
20
-7.24448
11
4.82063
21
-7.24073
0
LINE
8
BLACK
6
CONTINUOUS
10
4.82063
20
-7.24073
11
4.81688
21
-7.23698
0
LINE
8
BLACK
6
CONTINUOUS
10
4.81688
20
-7.23698
11
4.81313
21
-7.22948
0
LINE
8
BLACK
6
CONTINUOUS
10
4.81313
20
-7.22948
11
4.81313
21
-7.20698
0
LINE
8
BLACK
6
CONTINUOUS
10
4.81313
20
-7.20698
11
4.81688
21
-7.19948
0
LINE
8
BLACK
6
CONTINUOUS
10
4.81688
20
-7.19948
11
4.82063
21
-7.19573
0
LINE
8
BLACK
6
CONTINUOUS
10
4.82063
20
-7.19573
11
4.82813
21
-7.19199
0
LINE
8
BLACK
6
CONTINUOUS
10
4.82813
20
-7.19199
11
4.83938
21
-7.19199
0
LINE
8
BLACK
6
CONTINUOUS
10
4.83938
20
-7.19199
11
4.84688
21
-7.19573
0
LINE
8
BLACK
6
CONTINUOUS
10
4.84688
20
-7.19573
11
4.85063
21
-7.19948
0
LINE
8
BLACK
6
CONTINUOUS
10
4.85063
20
-7.19948
11
4.85438
21
-7.20698
0
LINE
8
BLACK
6
CONTINUOUS
10
4.85438
20
-7.20698
11
4.85438
21
-7.22948
0
LINE
8
BLACK
6
CONTINUOUS
10
4.85438
20
-7.22948
11
4.85063
21
-7.23698
0
LINE
8
BLACK
6
CONTINUOUS
10
4.85063
20
-7.23698
11
4.84688
21
-7.24073
0
LINE
8
BLACK
6
CONTINUOUS
10
4.84688
20
-7.24073
11
4.83938
21
-7.24448
0
LINE
8
BLACK
6
CONTINUOUS
10
4.83938
20
-7.24448
11
4.82813
21
-7.24448
0
LINE
8
BLACK
6
CONTINUOUS
10
4.89937
20
-7.24448
11
4.89187
21
-7.24073
0
LINE
8
BLACK
6
CONTINUOUS
10
4.89187
20
-7.24073
11
4.88812
21
-7.23323
0
LINE
8
BLACK
6
CONTINUOUS
10
4.88812
20
-7.23323
11
4.88812
21
-7.16574
0
LINE
8
BLACK
6
CONTINUOUS
10
4.95936
20
-7.24073
11
4.95187
21
-7.24448
0
LINE
8
BLACK
6
CONTINUOUS
10
4.95187
20
-7.24448
11
4.93687
21
-7.24448
0
LINE
8
BLACK
6
CONTINUOUS
10
4.93687
20
-7.24448
11
4.92937
21
-7.24073
0
LINE
8
BLACK
6
CONTINUOUS
10
4.92937
20
-7.24073
11
4.92562
21
-7.23323
0
LINE
8
BLACK
6
CONTINUOUS
10
4.92562
20
-7.23323
11
4.92562
21
-7.20323
0
LINE
8
BLACK
6
CONTINUOUS
10
4.92562
20
-7.20323
11
4.92937
21
-7.19573
0
LINE
8
BLACK
6
CONTINUOUS
10
4.92937
20
-7.19573
11
4.93687
21
-7.19199
0
LINE
8
BLACK
6
CONTINUOUS
10
4.93687
20
-7.19199
11
4.95187
21
-7.19199
0
LINE
8
BLACK
6
CONTINUOUS
10
4.95187
20
-7.19199
11
4.95936
21
-7.19573
0
LINE
8
BLACK
6
CONTINUOUS
10
4.95936
20
-7.19573
11
4.96311
21
-7.20323
0
LINE
8
BLACK
6
CONTINUOUS
10
4.96311
20
-7.20323
11
4.96311
21
-7.21073
0
LINE
8
BLACK
6
CONTINUOUS
10
4.96311
20
-7.21073
11
4.92562
21
-7.21823
0
LINE
8
BLACK
6
CONTINUOUS
10
4.98936
20
-7.27448
11
4.99311
21
-7.27073
0
LINE
8
BLACK
6
CONTINUOUS
10
4.99311
20
-7.27073
11
5.00061
21
-7.25948
0
LINE
8
BLACK
6
CONTINUOUS
10
5.00061
20
-7.25948
11
5.00436
21
-7.25198
0
LINE
8
BLACK
6
CONTINUOUS
10
5.00436
20
-7.25198
11
5.00811
21
-7.24073
0
LINE
8
BLACK
6
CONTINUOUS
10
5.00811
20
-7.24073
11
5.01186
21
-7.22198
0
LINE
8
BLACK
6
CONTINUOUS
10
5.01186
20
-7.22198
11
5.01186
21
-7.20698
0
LINE
8
BLACK
6
CONTINUOUS
10
5.01186
20
-7.20698
11
5.00811
21
-7.18824
0
LINE
8
BLACK
6
CONTINUOUS
10
5.00811
20
-7.18824
11
5.00436
21
-7.17699
0
LINE
8
BLACK
6
CONTINUOUS
10
5.00436
20
-7.17699
11
5.00061
21
-7.16949
0
LINE
8
BLACK
6
CONTINUOUS
10
5.00061
20
-7.16949
11
4.99311
21
-7.15824
0
LINE
8
BLACK
6
CONTINUOUS
10
4.99311
20
-7.15824
11
4.98936
21
-7.15449
0
CIRCLE
8
BLACK
10
3.21555
20
-7.31949
40
0.0137795
0
LINE
8
BLACK
6
CONTINUOUS
10
3.34182
20
-7.26968
11
3.34932
21
-7.26968
0
LINE
8
BLACK
6
CONTINUOUS
10
3.34932
20
-7.26968
11
3.35681
21
-7.27343
0
LINE
8
BLACK
6
CONTINUOUS
10
3.35681
20
-7.27343
11
3.36056
21
-7.27717
0
LINE
8
BLACK
6
CONTINUOUS
10
3.36056
20
-7.27717
11
3.36431
21
-7.28467
0
LINE
8
BLACK
6
CONTINUOUS
10
3.36431
20
-7.28467
11
3.36806
21
-7.29967
0
LINE
8
BLACK
6
CONTINUOUS
10
3.36806
20
-7.29967
11
3.36806
21
-7.31842
0
LINE
8
BLACK
6
CONTINUOUS
10
3.36806
20
-7.31842
11
3.36431
21
-7.33342
0
LINE
8
BLACK
6
CONTINUOUS
10
3.36431
20
-7.33342
11
3.36056
21
-7.34092
0
LINE
8
BLACK
6
CONTINUOUS
10
3.36056
20
-7.34092
11
3.35681
21
-7.34467
0
LINE
8
BLACK
6
CONTINUOUS
10
3.35681
20
-7.34467
11
3.34932
21
-7.34842
0
LINE
8
BLACK
6
CONTINUOUS
10
3.34932
20
-7.34842
11
3.34182
21
-7.34842
0
LINE
8
BLACK
6
CONTINUOUS
10
3.34182
20
-7.34842
11
3.33432
21
-7.34467
0
LINE
8
BLACK
6
CONTINUOUS
10
3.33432
20
-7.34467
11
3.33057
21
-7.34092
0
LINE
8
BLACK
6
CONTINUOUS
10
3.33057
20
-7.34092
11
3.32682
21
-7.33342
0
LINE
8
BLACK
6
CONTINUOUS
10
3.32682
20
-7.33342
11
3.32307
21
-7.31842
0
LINE
8
BLACK
6
CONTINUOUS
10
3.32307
20
-7.31842
11
3.32307
21
-7.29967
0
LINE
8
BLACK
6
CONTINUOUS
10
3.32307
20
-7.29967
11
3.32682
21
-7.28467
0
LINE
8
BLACK
6
CONTINUOUS
10
3.32682
20
-7.28467
11
3.33057
21
-7.27717
0
LINE
8
BLACK
6
CONTINUOUS
10
3.33057
20
-7.27717
11
3.33432
21
-7.27343
0
LINE
8
BLACK
6
CONTINUOUS
10
3.33432
20
-7.27343
11
3.34182
21
-7.26968
0
LINE
8
BLACK
6
CONTINUOUS
10
3.40181
20
-7.34092
11
3.40556
21
-7.34467
0
LINE
8
BLACK
6
CONTINUOUS
10
3.40556
20
-7.34467
11
3.40181
21
-7.34842
0
LINE
8
BLACK
6
CONTINUOUS
10
3.40181
20
-7.34842
11
3.39806
21
-7.34467
0
LINE
8
BLACK
6
CONTINUOUS
10
3.39806
20
-7.34467
11
3.40181
21
-7.34092
0
LINE
8
BLACK
6
CONTINUOUS
10
3.40181
20
-7.34092
11
3.40181
21
-7.34842
0
LINE
8
BLACK
6
CONTINUOUS
10
3.43181
20
-7.26968
11
3.4843
21
-7.26968
0
LINE
8
BLACK
6
CONTINUOUS
10
3.4843
20
-7.26968
11
3.45055
21
-7.34842
0
LINE
8
BLACK
6
CONTINUOUS
10
3.52929
20
-7.26968
11
3.53679
21
-7.26968
0
LINE
8
BLACK
6
CONTINUOUS
10
3.53679
20
-7.26968
11
3.54429
21
-7.27343
0
LINE
8
BLACK
6
CONTINUOUS
10
3.54429
20
-7.27343
11
3.54804
21
-7.27717
0
LINE
8
BLACK
6
CONTINUOUS
10
3.54804
20
-7.27717
11
3.55179
21
-7.28467
0
LINE
8
BLACK
6
CONTINUOUS
10
3.55179
20
-7.28467
11
3.55554
21
-7.29967
0
LINE
8
BLACK
6
CONTINUOUS
10
3.55554
20
-7.29967
11
3.55554
21
-7.31842
0
LINE
8
BLACK
6
CONTINUOUS
10
3.55554
20
-7.31842
11
3.55179
21
-7.33342
0
LINE
8
BLACK
6
CONTINUOUS
10
3.55179
20
-7.33342
11
3.54804
21
-7.34092
0
LINE
8
BLACK
6
CONTINUOUS
10
3.54804
20
-7.34092
11
3.54429
21
-7.34467
0
LINE
8
BLACK
6
CONTINUOUS
10
3.54429
20
-7.34467
11
3.53679
21
-7.34842
0
LINE
8
BLACK
6
CONTINUOUS
10
3.53679
20
-7.34842
11
3.52929
21
-7.34842
0
LINE
8
BLACK
6
CONTINUOUS
10
3.52929
20
-7.34842
11
3.52179
21
-7.34467
0
LINE
8
BLACK
6
CONTINUOUS
10
3.52179
20
-7.34467
11
3.51804
21
-7.34092
0
LINE
8
BLACK
6
CONTINUOUS
10
3.51804
20
-7.34092
11
3.5143
21
-7.33342
0
LINE
8
BLACK
6
CONTINUOUS
10
3.5143
20
-7.33342
11
3.51055
21
-7.31842
0
LINE
8
BLACK
6
CONTINUOUS
10
3.51055
20
-7.31842
11
3.51055
21
-7.29967
0
LINE
8
BLACK
6
CONTINUOUS
10
3.51055
20
-7.29967
11
3.5143
21
-7.28467
0
LINE
8
BLACK
6
CONTINUOUS
10
3.5143
20
-7.28467
11
3.51804
21
-7.27717
0
LINE
8
BLACK
6
CONTINUOUS
10
3.51804
20
-7.27717
11
3.52179
21
-7.27343
0
LINE
8
BLACK
6
CONTINUOUS
10
3.52179
20
-7.27343
11
3.52929
21
-7.26968
0
LINE
8
BLACK
6
CONTINUOUS
10
3.60428
20
-7.26968
11
3.61178
21
-7.26968
0
LINE
8
BLACK
6
CONTINUOUS
10
3.61178
20
-7.26968
11
3.61928
21
-7.27343
0
LINE
8
BLACK
6
CONTINUOUS
10
3.61928
20
-7.27343
11
3.62303
21
-7.27717
0
LINE
8
BLACK
6
CONTINUOUS
10
3.62303
20
-7.27717
11
3.62678
21
-7.28467
0
LINE
8
BLACK
6
CONTINUOUS
10
3.62678
20
-7.28467
11
3.63053
21
-7.29967
0
LINE
8
BLACK
6
CONTINUOUS
10
3.63053
20
-7.29967
11
3.63053
21
-7.31842
0
LINE
8
BLACK
6
CONTINUOUS
10
3.63053
20
-7.31842
11
3.62678
21
-7.33342
0
LINE
8
BLACK
6
CONTINUOUS
10
3.62678
20
-7.33342
11
3.62303
21
-7.34092
0
LINE
8
BLACK
6
CONTINUOUS
10
3.62303
20
-7.34092
11
3.61928
21
-7.34467
0
LINE
8
BLACK
6
CONTINUOUS
10
3.61928
20
-7.34467
11
3.61178
21
-7.34842
0
LINE
8
BLACK
6
CONTINUOUS
10
3.61178
20
-7.34842
11
3.60428
21
-7.34842
0
LINE
8
BLACK
6
CONTINUOUS
10
3.60428
20
-7.34842
11
3.59678
21
-7.34467
0
LINE
8
BLACK
6
CONTINUOUS
10
3.59678
20
-7.34467
11
3.59304
21
-7.34092
0
LINE
8
BLACK
6
CONTINUOUS
10
3.59304
20
-7.34092
11
3.58929
21
-7.33342
0
LINE
8
BLACK
6
CONTINUOUS
10
3.58929
20
-7.33342
11
3.58554
21
-7.31842
0
LINE
8
BLACK
6
CONTINUOUS
10
3.58554
20
-7.31842
11
3.58554
21
-7.29967
0
LINE
8
BLACK
6
CONTINUOUS
10
3.58554
20
-7.29967
11
3.58929
21
-7.28467
0
LINE
8
BLACK
6
CONTINUOUS
10
3.58929
20
-7.28467
11
3.59304
21
-7.27717
0
LINE
8
BLACK
6
CONTINUOUS
10
3.59304
20
-7.27717
11
3.59678
21
-7.27343
0
LINE
8
BLACK
6
CONTINUOUS
10
3.59678
20
-7.27343
11
3.60428
21
-7.26968
0
LINE
8
BLACK
6
CONTINUOUS
10
3.66428
20
-7.34842
11
3.66428
21
-7.29592
0
LINE
8
BLACK
6
CONTINUOUS
10
3.66428
20
-7.30342
11
3.66803
21
-7.29967
0
LINE
8
BLACK
6
CONTINUOUS
10
3.66803
20
-7.29967
11
3.67552
21
-7.29592
0
LINE
8
BLACK
6
CONTINUOUS
10
3.67552
20
-7.29592
11
3.68677
21
-7.29592
0
LINE
8
BLACK
6
CONTINUOUS
10
3.68677
20
-7.29592
11
3.69427
21
-7.29967
0
LINE
8
BLACK
6
CONTINUOUS
10
3.69427
20
-7.29967
11
3.69802
21
-7.30717
0
LINE
8
BLACK
6
CONTINUOUS
10
3.69802
20
-7.30717
11
3.69802
21
-7.34842
0
LINE
8
BLACK
6
CONTINUOUS
10
3.69802
20
-7.30717
11
3.70177
21
-7.29967
0
LINE
8
BLACK
6
CONTINUOUS
10
3.70177
20
-7.29967
11
3.70927
21
-7.29592
0
LINE
8
BLACK
6
CONTINUOUS
10
3.70927
20
-7.29592
11
3.72052
21
-7.29592
0
LINE
8
BLACK
6
CONTINUOUS
10
3.72052
20
-7.29592
11
3.72802
21
-7.29967
0
LINE
8
BLACK
6
CONTINUOUS
10
3.72802
20
-7.29967
11
3.73177
21
-7.30717
0
LINE
8
BLACK
6
CONTINUOUS
10
3.73177
20
-7.30717
11
3.73177
21
-7.34842
0
LINE
8
BLACK
6
CONTINUOUS
10
3.76926
20
-7.34842
11
3.76926
21
-7.29592
0
LINE
8
BLACK
6
CONTINUOUS
10
3.76926
20
-7.30342
11
3.77301
21
-7.29967
0
LINE
8
BLACK
6
CONTINUOUS
10
3.77301
20
-7.29967
11
3.78051
21
-7.29592
0
LINE
8
BLACK
6
CONTINUOUS
10
3.78051
20
-7.29592
11
3.79176
21
-7.29592
0
LINE
8
BLACK
6
CONTINUOUS
10
3.79176
20
-7.29592
11
3.79926
21
-7.29967
0
LINE
8
BLACK
6
CONTINUOUS
10
3.79926
20
-7.29967
11
3.80301
21
-7.30717
0
LINE
8
BLACK
6
CONTINUOUS
10
3.80301
20
-7.30717
11
3.80301
21
-7.34842
0
LINE
8
BLACK
6
CONTINUOUS
10
3.80301
20
-7.30717
11
3.80676
21
-7.29967
0
LINE
8
BLACK
6
CONTINUOUS
10
3.80676
20
-7.29967
11
3.81426
21
-7.29592
0
LINE
8
BLACK
6
CONTINUOUS
10
3.81426
20
-7.29592
11
3.82551
21
-7.29592
0
LINE
8
BLACK
6
CONTINUOUS
10
3.82551
20
-7.29592
11
3.83301
21
-7.29967
0
LINE
8
BLACK
6
CONTINUOUS
10
3.83301
20
-7.29967
11
3.83675
21
-7.30717
0
LINE
8
BLACK
6
CONTINUOUS
10
3.83675
20
-7.30717
11
3.83675
21
-7.34842
0
LINE
8
BLACK
6
CONTINUOUS
10
3.97774
20
-7.26593
11
3.91025
21
-7.36716
0
LINE
8
BLACK
6
CONTINUOUS
10
4.06623
20
-7.26968
11
4.07373
21
-7.26968
0
LINE
8
BLACK
6
CONTINUOUS
10
4.07373
20
-7.26968
11
4.08122
21
-7.27343
0
LINE
8
BLACK
6
CONTINUOUS
10
4.08122
20
-7.27343
11
4.08497
21
-7.27717
0
LINE
8
BLACK
6
CONTINUOUS
10
4.08497
20
-7.27717
11
4.08872
21
-7.28467
0
LINE
8
BLACK
6
CONTINUOUS
10
4.08872
20
-7.28467
11
4.09247
21
-7.29967
0
LINE
8
BLACK
6
CONTINUOUS
10
4.09247
20
-7.29967
11
4.09247
21
-7.31842
0
LINE
8
BLACK
6
CONTINUOUS
10
4.09247
20
-7.31842
11
4.08872
21
-7.33342
0
LINE
8
BLACK
6
CONTINUOUS
10
4.08872
20
-7.33342
11
4.08497
21
-7.34092
0
LINE
8
BLACK
6
CONTINUOUS
10
4.08497
20
-7.34092
11
4.08122
21
-7.34467
0
LINE
8
BLACK
6
CONTINUOUS
10
4.08122
20
-7.34467
11
4.07373
21
-7.34842
0
LINE
8
BLACK
6
CONTINUOUS
10
4.07373
20
-7.34842
11
4.06623
21
-7.34842
0
LINE
8
BLACK
6
CONTINUOUS
10
4.06623
20
-7.34842
11
4.05873
21
-7.34467
0
LINE
8
BLACK
6
CONTINUOUS
10
4.05873
20
-7.34467
11
4.05498
21
-7.34092
0
LINE
8
BLACK
6
CONTINUOUS
10
4.05498
20
-7.34092
11
4.05123
21
-7.33342
0
LINE
8
BLACK
6
CONTINUOUS
10
4.05123
20
-7.33342
11
4.04748
21
-7.31842
0
LINE
8
BLACK
6
CONTINUOUS
10
4.04748
20
-7.31842
11
4.04748
21
-7.29967
0
LINE
8
BLACK
6
CONTINUOUS
10
4.04748
20
-7.29967
11
4.05123
21
-7.28467
0
LINE
8
BLACK
6
CONTINUOUS
10
4.05123
20
-7.28467
11
4.05498
21
-7.27717
0
LINE
8
BLACK
6
CONTINUOUS
10
4.05498
20
-7.27717
11
4.05873
21
-7.27343
0
LINE
8
BLACK
6
CONTINUOUS
10
4.05873
20
-7.27343
11
4.06623
21
-7.26968
0
LINE
8
BLACK
6
CONTINUOUS
10
4.12622
20
-7.34092
11
4.12997
21
-7.34467
0
LINE
8
BLACK
6
CONTINUOUS
10
4.12997
20
-7.34467
11
4.12622
21
-7.34842
0
LINE
8
BLACK
6
CONTINUOUS
10
4.12622
20
-7.34842
11
4.12247
21
-7.34467
0
LINE
8
BLACK
6
CONTINUOUS
10
4.12247
20
-7.34467
11
4.12622
21
-7.34092
0
LINE
8
BLACK
6
CONTINUOUS
10
4.12622
20
-7.34092
11
4.12622
21
-7.34842
0
LINE
8
BLACK
6
CONTINUOUS
10
4.17871
20
-7.26968
11
4.18621
21
-7.26968
0
LINE
8
BLACK
6
CONTINUOUS
10
4.18621
20
-7.26968
11
4.19371
21
-7.27343
0
LINE
8
BLACK
6
CONTINUOUS
10
4.19371
20
-7.27343
11
4.19746
21
-7.27717
0
LINE
8
BLACK
6
CONTINUOUS
10
4.19746
20
-7.27717
11
4.20121
21
-7.28467
0
LINE
8
BLACK
6
CONTINUOUS
10
4.20121
20
-7.28467
11
4.20496
21
-7.29967
0
LINE
8
BLACK
6
CONTINUOUS
10
4.20496
20
-7.29967
11
4.20496
21
-7.31842
0
LINE
8
BLACK
6
CONTINUOUS
10
4.20496
20
-7.31842
11
4.20121
21
-7.33342
0
LINE
8
BLACK
6
CONTINUOUS
10
4.20121
20
-7.33342
11
4.19746
21
-7.34092
0
LINE
8
BLACK
6
CONTINUOUS
10
4.19746
20
-7.34092
11
4.19371
21
-7.34467
0
LINE
8
BLACK
6
CONTINUOUS
10
4.19371
20
-7.34467
11
4.18621
21
-7.34842
0
LINE
8
BLACK
6
CONTINUOUS
10
4.18621
20
-7.34842
11
4.17871
21
-7.34842
0
LINE
8
BLACK
6
CONTINUOUS
10
4.17871
20
-7.34842
11
4.17121
21
-7.34467
0
LINE
8
BLACK
6
CONTINUOUS
10
4.17121
20
-7.34467
11
4.16746
21
-7.34092
0
LINE
8
BLACK
6
CONTINUOUS
10
4.16746
20
-7.34092
11
4.16371
21
-7.33342
0
LINE
8
BLACK
6
CONTINUOUS
10
4.16371
20
-7.33342
11
4.15996
21
-7.31842
0
LINE
8
BLACK
6
CONTINUOUS
10
4.15996
20
-7.31842
11
4.15996
21
-7.29967
0
LINE
8
BLACK
6
CONTINUOUS
10
4.15996
20
-7.29967
11
4.16371
21
-7.28467
0
LINE
8
BLACK
6
CONTINUOUS
10
4.16371
20
-7.28467
11
4.16746
21
-7.27717
0
LINE
8
BLACK
6
CONTINUOUS
10
4.16746
20
-7.27717
11
4.17121
21
-7.27343
0
LINE
8
BLACK
6
CONTINUOUS
10
4.17121
20
-7.27343
11
4.17871
21
-7.26968
0
LINE
8
BLACK
6
CONTINUOUS
10
4.23496
20
-7.27717
11
4.2387
21
-7.27343
0
LINE
8
BLACK
6
CONTINUOUS
10
4.2387
20
-7.27343
11
4.2462
21
-7.26968
0
LINE
8
BLACK
6
CONTINUOUS
10
4.2462
20
-7.26968
11
4.26495
21
-7.26968
0
LINE
8
BLACK
6
CONTINUOUS
10
4.26495
20
-7.26968
11
4.27245
21
-7.27343
0
LINE
8
BLACK
6
CONTINUOUS
10
4.27245
20
-7.27343
11
4.2762
21
-7.27717
0
LINE
8
BLACK
6
CONTINUOUS
10
4.2762
20
-7.27717
11
4.27995
21
-7.28467
0
LINE
8
BLACK
6
CONTINUOUS
10
4.27995
20
-7.28467
11
4.27995
21
-7.29217
0
LINE
8
BLACK
6
CONTINUOUS
10
4.27995
20
-7.29217
11
4.2762
21
-7.30342
0
LINE
8
BLACK
6
CONTINUOUS
10
4.2762
20
-7.30342
11
4.23121
21
-7.34842
0
LINE
8
BLACK
6
CONTINUOUS
10
4.23121
20
-7.34842
11
4.27995
21
-7.34842
0
LINE
8
BLACK
6
CONTINUOUS
10
4.3062
20
-7.26968
11
4.35869
21
-7.26968
0
LINE
8
BLACK
6
CONTINUOUS
10
4.35869
20
-7.26968
11
4.32494
21
-7.34842
0
LINE
8
BLACK
6
CONTINUOUS
10
4.42243
20
-7.26968
11
4.40743
21
-7.26968
0
LINE
8
BLACK
6
CONTINUOUS
10
4.40743
20
-7.26968
11
4.39993
21
-7.27343
0
LINE
8
BLACK
6
CONTINUOUS
10
4.39993
20
-7.27343
11
4.39618
21
-7.27717
0
LINE
8
BLACK
6
CONTINUOUS
10
4.39618
20
-7.27717
11
4.38869
21
-7.28842
0
LINE
8
BLACK
6
CONTINUOUS
10
4.38869
20
-7.28842
11
4.38494
21
-7.30342
0
LINE
8
BLACK
6
CONTINUOUS
10
4.38494
20
-7.30342
11
4.38494
21
-7.33342
0
LINE
8
BLACK
6
CONTINUOUS
10
4.38494
20
-7.33342
11
4.38869
21
-7.34092
0
LINE
8
BLACK
6
CONTINUOUS
10
4.38869
20
-7.34092
11
4.39244
21
-7.34467
0
LINE
8
BLACK
6
CONTINUOUS
10
4.39244
20
-7.34467
11
4.39993
21
-7.34842
0
LINE
8
BLACK
6
CONTINUOUS
10
4.39993
20
-7.34842
11
4.41493
21
-7.34842
0
LINE
8
BLACK
6
CONTINUOUS
10
4.41493
20
-7.34842
11
4.42243
21
-7.34467
0
LINE
8
BLACK
6
CONTINUOUS
10
4.42243
20
-7.34467
11
4.42618
21
-7.34092
0
LINE
8
BLACK
6
CONTINUOUS
10
4.42618
20
-7.34092
11
4.42993
21
-7.33342
0
LINE
8
BLACK
6
CONTINUOUS
10
4.42993
20
-7.33342
11
4.42993
21
-7.31467
0
LINE
8
BLACK
6
CONTINUOUS
10
4.42993
20
-7.31467
11
4.42618
21
-7.30717
0
LINE
8
BLACK
6
CONTINUOUS
10
4.42618
20
-7.30717
11
4.42243
21
-7.30342
0
LINE
8
BLACK
6
CONTINUOUS
10
4.42243
20
-7.30342
11
4.41493
21
-7.29967
0
LINE
8
BLACK
6
CONTINUOUS
10
4.41493
20
-7.29967
11
4.39993
21
-7.29967
0
LINE
8
BLACK
6
CONTINUOUS
10
4.39993
20
-7.29967
11
4.39244
21
-7.30342
0
LINE
8
BLACK
6
CONTINUOUS
10
4.39244
20
-7.30342
11
4.38869
21
-7.30717
0
LINE
8
BLACK
6
CONTINUOUS
10
4.38869
20
-7.30717
11
4.38494
21
-7.31467
0
LINE
8
BLACK
6
CONTINUOUS
10
4.45993
20
-7.26968
11
4.45993
21
-7.28467
0
LINE
8
BLACK
6
CONTINUOUS
10
4.48992
20
-7.26968
11
4.48992
21
-7.28467
0
LINE
8
BLACK
6
CONTINUOUS
10
4.59341
20
-7.37841
11
4.58966
21
-7.37466
0
LINE
8
BLACK
6
CONTINUOUS
10
4.58966
20
-7.37466
11
4.58216
21
-7.36341
0
LINE
8
BLACK
6
CONTINUOUS
10
4.58216
20
-7.36341
11
4.57841
21
-7.35591
0
LINE
8
BLACK
6
CONTINUOUS
10
4.57841
20
-7.35591
11
4.57466
21
-7.34467
0
LINE
8
BLACK
6
CONTINUOUS
10
4.57466
20
-7.34467
11
4.57091
21
-7.32592
0
LINE
8
BLACK
6
CONTINUOUS
10
4.57091
20
-7.32592
11
4.57091
21
-7.31092
0
LINE
8
BLACK
6
CONTINUOUS
10
4.57091
20
-7.31092
11
4.57466
21
-7.29217
0
LINE
8
BLACK
6
CONTINUOUS
10
4.57466
20
-7.29217
11
4.57841
21
-7.28092
0
LINE
8
BLACK
6
CONTINUOUS
10
4.57841
20
-7.28092
11
4.58216
21
-7.27343
0
LINE
8
BLACK
6
CONTINUOUS
10
4.58216
20
-7.27343
11
4.58966
21
-7.26218
0
LINE
8
BLACK
6
CONTINUOUS
10
4.58966
20
-7.26218
11
4.59341
21
-7.25843
0
LINE
8
BLACK
6
CONTINUOUS
10
4.65715
20
-7.26968
11
4.64215
21
-7.26968
0
LINE
8
BLACK
6
CONTINUOUS
10
4.64215
20
-7.26968
11
4.63466
21
-7.27343
0
LINE
8
BLACK
6
CONTINUOUS
10
4.63466
20
-7.27343
11
4.63091
21
-7.27717
0
LINE
8
BLACK
6
CONTINUOUS
10
4.63091
20
-7.27717
11
4.62341
21
-7.28842
0
LINE
8
BLACK
6
CONTINUOUS
10
4.62341
20
-7.28842
11
4.61966
21
-7.30342
0
LINE
8
BLACK
6
CONTINUOUS
10
4.61966
20
-7.30342
11
4.61966
21
-7.33342
0
LINE
8
BLACK
6
CONTINUOUS
10
4.61966
20
-7.33342
11
4.62341
21
-7.34092
0
LINE
8
BLACK
6
CONTINUOUS
10
4.62341
20
-7.34092
11
4.62716
21
-7.34467
0
LINE
8
BLACK
6
CONTINUOUS
10
4.62716
20
-7.34467
11
4.63466
21
-7.34842
0
LINE
8
BLACK
6
CONTINUOUS
10
4.63466
20
-7.34842
11
4.64965
21
-7.34842
0
LINE
8
BLACK
6
CONTINUOUS
10
4.64965
20
-7.34842
11
4.65715
21
-7.34467
0
LINE
8
BLACK
6
CONTINUOUS
10
4.65715
20
-7.34467
11
4.6609
21
-7.34092
0
LINE
8
BLACK
6
CONTINUOUS
10
4.6609
20
-7.34092
11
4.66465
21
-7.33342
0
LINE
8
BLACK
6
CONTINUOUS
10
4.66465
20
-7.33342
11
4.66465
21
-7.31467
0
LINE
8
BLACK
6
CONTINUOUS
10
4.66465
20
-7.31467
11
4.6609
21
-7.30717
0
LINE
8
BLACK
6
CONTINUOUS
10
4.6609
20
-7.30717
11
4.65715
21
-7.30342
0
LINE
8
BLACK
6
CONTINUOUS
10
4.65715
20
-7.30342
11
4.64965
21
-7.29967
0
LINE
8
BLACK
6
CONTINUOUS
10
4.64965
20
-7.29967
11
4.63466
21
-7.29967
0
LINE
8
BLACK
6
CONTINUOUS
10
4.63466
20
-7.29967
11
4.62716
21
-7.30342
0
LINE
8
BLACK
6
CONTINUOUS
10
4.62716
20
-7.30342
11
4.62341
21
-7.30717
0
LINE
8
BLACK
6
CONTINUOUS
10
4.62341
20
-7.30717
11
4.61966
21
-7.31467
0
LINE
8
BLACK
6
CONTINUOUS
10
4.74564
20
-7.34842
11
4.74564
21
-7.26968
0
LINE
8
BLACK
6
CONTINUOUS
10
4.77939
20
-7.34842
11
4.77939
21
-7.30717
0
LINE
8
BLACK
6
CONTINUOUS
10
4.77939
20
-7.30717
11
4.77564
21
-7.29967
0
LINE
8
BLACK
6
CONTINUOUS
10
4.77564
20
-7.29967
11
4.76814
21
-7.29592
0
LINE
8
BLACK
6
CONTINUOUS
10
4.76814
20
-7.29592
11
4.75689
21
-7.29592
0
LINE
8
BLACK
6
CONTINUOUS
10
4.75689
20
-7.29592
11
4.74939
21
-7.29967
0
LINE
8
BLACK
6
CONTINUOUS
10
4.74939
20
-7.29967
11
4.74564
21
-7.30342
0
LINE
8
BLACK
6
CONTINUOUS
10
4.82813
20
-7.34842
11
4.82063
21
-7.34467
0
LINE
8
BLACK
6
CONTINUOUS
10
4.82063
20
-7.34467
11
4.81688
21
-7.34092
0
LINE
8
BLACK
6
CONTINUOUS
10
4.81688
20
-7.34092
11
4.81313
21
-7.33342
0
LINE
8
BLACK
6
CONTINUOUS
10
4.81313
20
-7.33342
11
4.81313
21
-7.31092
0
LINE
8
BLACK
6
CONTINUOUS
10
4.81313
20
-7.31092
11
4.81688
21
-7.30342
0
LINE
8
BLACK
6
CONTINUOUS
10
4.81688
20
-7.30342
11
4.82063
21
-7.29967
0
LINE
8
BLACK
6
CONTINUOUS
10
4.82063
20
-7.29967
11
4.82813
21
-7.29592
0
LINE
8
BLACK
6
CONTINUOUS
10
4.82813
20
-7.29592
11
4.83938
21
-7.29592
0
LINE
8
BLACK
6
CONTINUOUS
10
4.83938
20
-7.29592
11
4.84688
21
-7.29967
0
LINE
8
BLACK
6
CONTINUOUS
10
4.84688
20
-7.29967
11
4.85063
21
-7.30342
0
LINE
8
BLACK
6
CONTINUOUS
10
4.85063
20
-7.30342
11
4.85438
21
-7.31092
0
LINE
8
BLACK
6
CONTINUOUS
10
4.85438
20
-7.31092
11
4.85438
21
-7.33342
0
LINE
8
BLACK
6
CONTINUOUS
10
4.85438
20
-7.33342
11
4.85063
21
-7.34092
0
LINE
8
BLACK
6
CONTINUOUS
10
4.85063
20
-7.34092
11
4.84688
21
-7.34467
0
LINE
8
BLACK
6
CONTINUOUS
10
4.84688
20
-7.34467
11
4.83938
21
-7.34842
0
LINE
8
BLACK
6
CONTINUOUS
10
4.83938
20
-7.34842
11
4.82813
21
-7.34842
0
LINE
8
BLACK
6
CONTINUOUS
10
4.89937
20
-7.34842
11
4.89187
21
-7.34467
0
LINE
8
BLACK
6
CONTINUOUS
10
4.89187
20
-7.34467
11
4.88812
21
-7.33717
0
LINE
8
BLACK
6
CONTINUOUS
10
4.88812
20
-7.33717
11
4.88812
21
-7.26968
0
LINE
8
BLACK
6
CONTINUOUS
10
4.95936
20
-7.34467
11
4.95187
21
-7.34842
0
LINE
8
BLACK
6
CONTINUOUS
10
4.95187
20
-7.34842
11
4.93687
21
-7.34842
0
LINE
8
BLACK
6
CONTINUOUS
10
4.93687
20
-7.34842
11
4.92937
21
-7.34467
0
LINE
8
BLACK
6
CONTINUOUS
10
4.92937
20
-7.34467
11
4.92562
21
-7.33717
0
LINE
8
BLACK
6
CONTINUOUS
10
4.92562
20
-7.33717
11
4.92562
21
-7.30717
0
LINE
8
BLACK
6
CONTINUOUS
10
4.92562
20
-7.30717
11
4.92937
21
-7.29967
0
LINE
8
BLACK
6
CONTINUOUS
10
4.92937
20
-7.29967
11
4.93687
21
-7.29592
0
LINE
8
BLACK
6
CONTINUOUS
10
4.93687
20
-7.29592
11
4.95187
21
-7.29592
0
LINE
8
BLACK
6
CONTINUOUS
10
4.95187
20
-7.29592
11
4.95936
21
-7.29967
0
LINE
8
BLACK
6
CONTINUOUS
10
4.95936
20
-7.29967
11
4.96311
21
-7.30717
0
LINE
8
BLACK
6
CONTINUOUS
10
4.96311
20
-7.30717
11
4.96311
21
-7.31467
0
LINE
8
BLACK
6
CONTINUOUS
10
4.96311
20
-7.31467
11
4.92562
21
-7.32217
0
LINE
8
BLACK
6
CONTINUOUS
10
4.99311
20
-7.34467
11
5.00061
21
-7.34842
0
LINE
8
BLACK
6
CONTINUOUS
10
5.00061
20
-7.34842
11
5.01561
21
-7.34842
0
LINE
8
BLACK
6
CONTINUOUS
10
5.01561
20
-7.34842
11
5.02311
21
-7.34467
0
LINE
8
BLACK
6
CONTINUOUS
10
5.02311
20
-7.34467
11
5.02686
21
-7.33717
0
LINE
8
BLACK
6
CONTINUOUS
10
5.02686
20
-7.33717
11
5.02686
21
-7.33342
0
LINE
8
BLACK
6
CONTINUOUS
10
5.02686
20
-7.33342
11
5.02311
21
-7.32592
0
LINE
8
BLACK
6
CONTINUOUS
10
5.02311
20
-7.32592
11
5.01561
21
-7.32217
0
LINE
8
BLACK
6
CONTINUOUS
10
5.01561
20
-7.32217
11
5.00436
21
-7.32217
0
LINE
8
BLACK
6
CONTINUOUS
10
5.00436
20
-7.32217
11
4.99686
21
-7.31842
0
LINE
8
BLACK
6
CONTINUOUS
10
4.99686
20
-7.31842
11
4.99311
21
-7.31092
0
LINE
8
BLACK
6
CONTINUOUS
10
4.99311
20
-7.31092
11
4.99311
21
-7.30717
0
LINE
8
BLACK
6
CONTINUOUS
10
4.99311
20
-7.30717
11
4.99686
21
-7.29967
0
LINE
8
BLACK
6
CONTINUOUS
10
4.99686
20
-7.29967
11
5.00436
21
-7.29592
0
LINE
8
BLACK
6
CONTINUOUS
10
5.00436
20
-7.29592
11
5.01561
21
-7.29592
0
LINE
8
BLACK
6
CONTINUOUS
10
5.01561
20
-7.29592
11
5.02311
21
-7.29967
0
LINE
8
BLACK
6
CONTINUOUS
10
5.0531
20
-7.37841
11
5.05685
21
-7.37466
0
LINE
8
BLACK
6
CONTINUOUS
10
5.05685
20
-7.37466
11
5.06435
21
-7.36341
0
LINE
8
BLACK
6
CONTINUOUS
10
5.06435
20
-7.36341
11
5.0681
21
-7.35591
0
LINE
8
BLACK
6
CONTINUOUS
10
5.0681
20
-7.35591
11
5.07185
21
-7.34467
0
LINE
8
BLACK
6
CONTINUOUS
10
5.07185
20
-7.34467
11
5.0756
21
-7.32592
0
LINE
8
BLACK
6
CONTINUOUS
10
5.0756
20
-7.32592
11
5.0756
21
-7.31092
0
LINE
8
BLACK
6
CONTINUOUS
10
5.0756
20
-7.31092
11
5.07185
21
-7.29217
0
LINE
8
BLACK
6
CONTINUOUS
10
5.07185
20
-7.29217
11
5.0681
21
-7.28092
0
LINE
8
BLACK
6
CONTINUOUS
10
5.0681
20
-7.28092
11
5.06435
21
-7.27343
0
LINE
8
BLACK
6
CONTINUOUS
10
5.06435
20
-7.27343
11
5.05685
21
-7.26218
0
LINE
8
BLACK
6
CONTINUOUS
10
5.05685
20
-7.26218
11
5.0531
21
-7.25843
0
LINE
8
BLACK
6
CONTINUOUS
10
3.21358
20
-7.40768
11
3.21358
21
-7.43917
0
LINE
8
BLACK
6
CONTINUOUS
10
3.19783
20
-7.42343
11
3.22933
21
-7.42343
0
LINE
8
BLACK
6
CONTINUOUS
10
3.34182
20
-7.37361
11
3.34932
21
-7.37361
0
LINE
8
BLACK
6
CONTINUOUS
10
3.34932
20
-7.37361
11
3.35681
21
-7.37736
0
LINE
8
BLACK
6
CONTINUOUS
10
3.35681
20
-7.37736
11
3.36056
21
-7.38111
0
LINE
8
BLACK
6
CONTINUOUS
10
3.36056
20
-7.38111
11
3.36431
21
-7.38861
0
LINE
8
BLACK
6
CONTINUOUS
10
3.36431
20
-7.38861
11
3.36806
21
-7.40361
0
LINE
8
BLACK
6
CONTINUOUS
10
3.36806
20
-7.40361
11
3.36806
21
-7.42236
0
LINE
8
BLACK
6
CONTINUOUS
10
3.36806
20
-7.42236
11
3.36431
21
-7.43735
0
LINE
8
BLACK
6
CONTINUOUS
10
3.36431
20
-7.43735
11
3.36056
21
-7.44485
0
LINE
8
BLACK
6
CONTINUOUS
10
3.36056
20
-7.44485
11
3.35681
21
-7.4486
0
LINE
8
BLACK
6
CONTINUOUS
10
3.35681
20
-7.4486
11
3.34932
21
-7.45235
0
LINE
8
BLACK
6
CONTINUOUS
10
3.34932
20
-7.45235
11
3.34182
21
-7.45235
0
LINE
8
BLACK
6
CONTINUOUS
10
3.34182
20
-7.45235
11
3.33432
21
-7.4486
0
LINE
8
BLACK
6
CONTINUOUS
10
3.33432
20
-7.4486
11
3.33057
21
-7.44485
0
LINE
8
BLACK
6
CONTINUOUS
10
3.33057
20
-7.44485
11
3.32682
21
-7.43735
0
LINE
8
BLACK
6
CONTINUOUS
10
3.32682
20
-7.43735
11
3.32307
21
-7.42236
0
LINE
8
BLACK
6
CONTINUOUS
10
3.32307
20
-7.42236
11
3.32307
21
-7.40361
0
LINE
8
BLACK
6
CONTINUOUS
10
3.32307
20
-7.40361
11
3.32682
21
-7.38861
0
LINE
8
BLACK
6
CONTINUOUS
10
3.32682
20
-7.38861
11
3.33057
21
-7.38111
0
LINE
8
BLACK
6
CONTINUOUS
10
3.33057
20
-7.38111
11
3.33432
21
-7.37736
0
LINE
8
BLACK
6
CONTINUOUS
10
3.33432
20
-7.37736
11
3.34182
21
-7.37361
0
LINE
8
BLACK
6
CONTINUOUS
10
3.40181
20
-7.44485
11
3.40556
21
-7.4486
0
LINE
8
BLACK
6
CONTINUOUS
10
3.40556
20
-7.4486
11
3.40181
21
-7.45235
0
LINE
8
BLACK
6
CONTINUOUS
10
3.40181
20
-7.45235
11
3.39806
21
-7.4486
0
LINE
8
BLACK
6
CONTINUOUS
10
3.39806
20
-7.4486
11
3.40181
21
-7.44485
0
LINE
8
BLACK
6
CONTINUOUS
10
3.40181
20
-7.44485
11
3.40181
21
-7.45235
0
LINE
8
BLACK
6
CONTINUOUS
10
3.45055
20
-7.40736
11
3.44305
21
-7.40361
0
LINE
8
BLACK
6
CONTINUOUS
10
3.44305
20
-7.40361
11
3.4393
21
-7.39986
0
LINE
8
BLACK
6
CONTINUOUS
10
3.4393
20
-7.39986
11
3.43555
21
-7.39236
0
LINE
8
BLACK
6
CONTINUOUS
10
3.43555
20
-7.39236
11
3.43555
21
-7.38861
0
LINE
8
BLACK
6
CONTINUOUS
10
3.43555
20
-7.38861
11
3.4393
21
-7.38111
0
LINE
8
BLACK
6
CONTINUOUS
10
3.4393
20
-7.38111
11
3.44305
21
-7.37736
0
LINE
8
BLACK
6
CONTINUOUS
10
3.44305
20
-7.37736
11
3.45055
21
-7.37361
0
LINE
8
BLACK
6
CONTINUOUS
10
3.45055
20
-7.37361
11
3.46555
21
-7.37361
0
LINE
8
BLACK
6
CONTINUOUS
10
3.46555
20
-7.37361
11
3.47305
21
-7.37736
0
LINE
8
BLACK
6
CONTINUOUS
10
3.47305
20
-7.37736
11
3.4768
21
-7.38111
0
LINE
8
BLACK
6
CONTINUOUS
10
3.4768
20
-7.38111
11
3.48055
21
-7.38861
0
LINE
8
BLACK
6
CONTINUOUS
10
3.48055
20
-7.38861
11
3.48055
21
-7.39236
0
LINE
8
BLACK
6
CONTINUOUS
10
3.48055
20
-7.39236
11
3.4768
21
-7.39986
0
LINE
8
BLACK
6
CONTINUOUS
10
3.4768
20
-7.39986
11
3.47305
21
-7.40361
0
LINE
8
BLACK
6
CONTINUOUS
10
3.47305
20
-7.40361
11
3.46555
21
-7.40736
0
LINE
8
BLACK
6
CONTINUOUS
10
3.46555
20
-7.40736
11
3.45055
21
-7.40736
0
LINE
8
BLACK
6
CONTINUOUS
10
3.45055
20
-7.40736
11
3.44305
21
-7.41111
0
LINE
8
BLACK
6
CONTINUOUS
10
3.44305
20
-7.41111
11
3.4393
21
-7.41486
0
LINE
8
BLACK
6
CONTINUOUS
10
3.4393
20
-7.41486
11
3.43555
21
-7.42236
0
LINE
8
BLACK
6
CONTINUOUS
10
3.43555
20
-7.42236
11
3.43555
21
-7.43735
0
LINE
8
BLACK
6
CONTINUOUS
10
3.43555
20
-7.43735
11
3.4393
21
-7.44485
0
LINE
8
BLACK
6
CONTINUOUS
10
3.4393
20
-7.44485
11
3.44305
21
-7.4486
0
LINE
8
BLACK
6
CONTINUOUS
10
3.44305
20
-7.4486
11
3.45055
21
-7.45235
0
LINE
8
BLACK
6
CONTINUOUS
10
3.45055
20
-7.45235
11
3.46555
21
-7.45235
0
LINE
8
BLACK
6
CONTINUOUS
10
3.46555
20
-7.45235
11
3.47305
21
-7.4486
0
LINE
8
BLACK
6
CONTINUOUS
10
3.47305
20
-7.4486
11
3.4768
21
-7.44485
0
LINE
8
BLACK
6
CONTINUOUS
10
3.4768
20
-7.44485
11
3.48055
21
-7.43735
0
LINE
8
BLACK
6
CONTINUOUS
10
3.48055
20
-7.43735
11
3.48055
21
-7.42236
0
LINE
8
BLACK
6
CONTINUOUS
10
3.48055
20
-7.42236
11
3.4768
21
-7.41486
0
LINE
8
BLACK
6
CONTINUOUS
10
3.4768
20
-7.41486
11
3.47305
21
-7.41111
0
LINE
8
BLACK
6
CONTINUOUS
10
3.47305
20
-7.41111
11
3.46555
21
-7.40736
0
LINE
8
BLACK
6
CONTINUOUS
10
3.52929
20
-7.37361
11
3.53679
21
-7.37361
0
LINE
8
BLACK
6
CONTINUOUS
10
3.53679
20
-7.37361
11
3.54429
21
-7.37736
0
LINE
8
BLACK
6
CONTINUOUS
10
3.54429
20
-7.37736
11
3.54804
21
-7.38111
0
LINE
8
BLACK
6
CONTINUOUS
10
3.54804
20
-7.38111
11
3.55179
21
-7.38861
0
LINE
8
BLACK
6
CONTINUOUS
10
3.55179
20
-7.38861
11
3.55554
21
-7.40361
0
LINE
8
BLACK
6
CONTINUOUS
10
3.55554
20
-7.40361
11
3.55554
21
-7.42236
0
LINE
8
BLACK
6
CONTINUOUS
10
3.55554
20
-7.42236
11
3.55179
21
-7.43735
0
LINE
8
BLACK
6
CONTINUOUS
10
3.55179
20
-7.43735
11
3.54804
21
-7.44485
0
LINE
8
BLACK
6
CONTINUOUS
10
3.54804
20
-7.44485
11
3.54429
21
-7.4486
0
LINE
8
BLACK
6
CONTINUOUS
10
3.54429
20
-7.4486
11
3.53679
21
-7.45235
0
LINE
8
BLACK
6
CONTINUOUS
10
3.53679
20
-7.45235
11
3.52929
21
-7.45235
0
LINE
8
BLACK
6
CONTINUOUS
10
3.52929
20
-7.45235
11
3.52179
21
-7.4486
0
LINE
8
BLACK
6
CONTINUOUS
10
3.52179
20
-7.4486
11
3.51804
21
-7.44485
0
LINE
8
BLACK
6
CONTINUOUS
10
3.51804
20
-7.44485
11
3.5143
21
-7.43735
0
LINE
8
BLACK
6
CONTINUOUS
10
3.5143
20
-7.43735
11
3.51055
21
-7.42236
0
LINE
8
BLACK
6
CONTINUOUS
10
3.51055
20
-7.42236
11
3.51055
21
-7.40361
0
LINE
8
BLACK
6
CONTINUOUS
10
3.51055
20
-7.40361
11
3.5143
21
-7.38861
0
LINE
8
BLACK
6
CONTINUOUS
10
3.5143
20
-7.38861
11
3.51804
21
-7.38111
0
LINE
8
BLACK
6
CONTINUOUS
10
3.51804
20
-7.38111
11
3.52179
21
-7.37736
0
LINE
8
BLACK
6
CONTINUOUS
10
3.52179
20
-7.37736
11
3.52929
21
-7.37361
0
LINE
8
BLACK
6
CONTINUOUS
10
3.60428
20
-7.37361
11
3.61178
21
-7.37361
0
LINE
8
BLACK
6
CONTINUOUS
10
3.61178
20
-7.37361
11
3.61928
21
-7.37736
0
LINE
8
BLACK
6
CONTINUOUS
10
3.61928
20
-7.37736
11
3.62303
21
-7.38111
0
LINE
8
BLACK
6
CONTINUOUS
10
3.62303
20
-7.38111
11
3.62678
21
-7.38861
0
LINE
8
BLACK
6
CONTINUOUS
10
3.62678
20
-7.38861
11
3.63053
21
-7.40361
0
LINE
8
BLACK
6
CONTINUOUS
10
3.63053
20
-7.40361
11
3.63053
21
-7.42236
0
LINE
8
BLACK
6
CONTINUOUS
10
3.63053
20
-7.42236
11
3.62678
21
-7.43735
0
LINE
8
BLACK
6
CONTINUOUS
10
3.62678
20
-7.43735
11
3.62303
21
-7.44485
0
LINE
8
BLACK
6
CONTINUOUS
10
3.62303
20
-7.44485
11
3.61928
21
-7.4486
0
LINE
8
BLACK
6
CONTINUOUS
10
3.61928
20
-7.4486
11
3.61178
21
-7.45235
0
LINE
8
BLACK
6
CONTINUOUS
10
3.61178
20
-7.45235
11
3.60428
21
-7.45235
0
LINE
8
BLACK
6
CONTINUOUS
10
3.60428
20
-7.45235
11
3.59678
21
-7.4486
0
LINE
8
BLACK
6
CONTINUOUS
10
3.59678
20
-7.4486
11
3.59304
21
-7.44485
0
LINE
8
BLACK
6
CONTINUOUS
10
3.59304
20
-7.44485
11
3.58929
21
-7.43735
0
LINE
8
BLACK
6
CONTINUOUS
10
3.58929
20
-7.43735
11
3.58554
21
-7.42236
0
LINE
8
BLACK
6
CONTINUOUS
10
3.58554
20
-7.42236
11
3.58554
21
-7.40361
0
LINE
8
BLACK
6
CONTINUOUS
10
3.58554
20
-7.40361
11
3.58929
21
-7.38861
0
LINE
8
BLACK
6
CONTINUOUS
10
3.58929
20
-7.38861
11
3.59304
21
-7.38111
0
LINE
8
BLACK
6
CONTINUOUS
10
3.59304
20
-7.38111
11
3.59678
21
-7.37736
0
LINE
8
BLACK
6
CONTINUOUS
10
3.59678
20
-7.37736
11
3.60428
21
-7.37361
0
LINE
8
BLACK
6
CONTINUOUS
10
3.66428
20
-7.45235
11
3.66428
21
-7.39986
0
LINE
8
BLACK
6
CONTINUOUS
10
3.66428
20
-7.40736
11
3.66803
21
-7.40361
0
LINE
8
BLACK
6
CONTINUOUS
10
3.66803
20
-7.40361
11
3.67552
21
-7.39986
0
LINE
8
BLACK
6
CONTINUOUS
10
3.67552
20
-7.39986
11
3.68677
21
-7.39986
0
LINE
8
BLACK
6
CONTINUOUS
10
3.68677
20
-7.39986
11
3.69427
21
-7.40361
0
LINE
8
BLACK
6
CONTINUOUS
10
3.69427
20
-7.40361
11
3.69802
21
-7.41111
0
LINE
8
BLACK
6
CONTINUOUS
10
3.69802
20
-7.41111
11
3.69802
21
-7.45235
0
LINE
8
BLACK
6
CONTINUOUS
10
3.69802
20
-7.41111
11
3.70177
21
-7.40361
0
LINE
8
BLACK
6
CONTINUOUS
10
3.70177
20
-7.40361
11
3.70927
21
-7.39986
0
LINE
8
BLACK
6
CONTINUOUS
10
3.70927
20
-7.39986
11
3.72052
21
-7.39986
0
LINE
8
BLACK
6
CONTINUOUS
10
3.72052
20
-7.39986
11
3.72802
21
-7.40361
0
LINE
8
BLACK
6
CONTINUOUS
10
3.72802
20
-7.40361
11
3.73177
21
-7.41111
0
LINE
8
BLACK
6
CONTINUOUS
10
3.73177
20
-7.41111
11
3.73177
21
-7.45235
0
LINE
8
BLACK
6
CONTINUOUS
10
3.76926
20
-7.45235
11
3.76926
21
-7.39986
0
LINE
8
BLACK
6
CONTINUOUS
10
3.76926
20
-7.40736
11
3.77301
21
-7.40361
0
LINE
8
BLACK
6
CONTINUOUS
10
3.77301
20
-7.40361
11
3.78051
21
-7.39986
0
LINE
8
BLACK
6
CONTINUOUS
10
3.78051
20
-7.39986
11
3.79176
21
-7.39986
0
LINE
8
BLACK
6
CONTINUOUS
10
3.79176
20
-7.39986
11
3.79926
21
-7.40361
0
LINE
8
BLACK
6
CONTINUOUS
10
3.79926
20
-7.40361
11
3.80301
21
-7.41111
0
LINE
8
BLACK
6
CONTINUOUS
10
3.80301
20
-7.41111
11
3.80301
21
-7.45235
0
LINE
8
BLACK
6
CONTINUOUS
10
3.80301
20
-7.41111
11
3.80676
21
-7.40361
0
LINE
8
BLACK
6
CONTINUOUS
10
3.80676
20
-7.40361
11
3.81426
21
-7.39986
0
LINE
8
BLACK
6
CONTINUOUS
10
3.81426
20
-7.39986
11
3.82551
21
-7.39986
0
LINE
8
BLACK
6
CONTINUOUS
10
3.82551
20
-7.39986
11
3.83301
21
-7.40361
0
LINE
8
BLACK
6
CONTINUOUS
10
3.83301
20
-7.40361
11
3.83675
21
-7.41111
0
LINE
8
BLACK
6
CONTINUOUS
10
3.83675
20
-7.41111
11
3.83675
21
-7.45235
0
LINE
8
BLACK
6
CONTINUOUS
10
3.97774
20
-7.36986
11
3.91025
21
-7.4711
0
LINE
8
BLACK
6
CONTINUOUS
10
4.06623
20
-7.37361
11
4.07373
21
-7.37361
0
LINE
8
BLACK
6
CONTINUOUS
10
4.07373
20
-7.37361
11
4.08122
21
-7.37736
0
LINE
8
BLACK
6
CONTINUOUS
10
4.08122
20
-7.37736
11
4.08497
21
-7.38111
0
LINE
8
BLACK
6
CONTINUOUS
10
4.08497
20
-7.38111
11
4.08872
21
-7.38861
0
LINE
8
BLACK
6
CONTINUOUS
10
4.08872
20
-7.38861
11
4.09247
21
-7.40361
0
LINE
8
BLACK
6
CONTINUOUS
10
4.09247
20
-7.40361
11
4.09247
21
-7.42236
0
LINE
8
BLACK
6
CONTINUOUS
10
4.09247
20
-7.42236
11
4.08872
21
-7.43735
0
LINE
8
BLACK
6
CONTINUOUS
10
4.08872
20
-7.43735
11
4.08497
21
-7.44485
0
LINE
8
BLACK
6
CONTINUOUS
10
4.08497
20
-7.44485
11
4.08122
21
-7.4486
0
LINE
8
BLACK
6
CONTINUOUS
10
4.08122
20
-7.4486
11
4.07373
21
-7.45235
0
LINE
8
BLACK
6
CONTINUOUS
10
4.07373
20
-7.45235
11
4.06623
21
-7.45235
0
LINE
8
BLACK
6
CONTINUOUS
10
4.06623
20
-7.45235
11
4.05873
21
-7.4486
0
LINE
8
BLACK
6
CONTINUOUS
10
4.05873
20
-7.4486
11
4.05498
21
-7.44485
0
LINE
8
BLACK
6
CONTINUOUS
10
4.05498
20
-7.44485
11
4.05123
21
-7.43735
0
LINE
8
BLACK
6
CONTINUOUS
10
4.05123
20
-7.43735
11
4.04748
21
-7.42236
0
LINE
8
BLACK
6
CONTINUOUS
10
4.04748
20
-7.42236
11
4.04748
21
-7.40361
0
LINE
8
BLACK
6
CONTINUOUS
10
4.04748
20
-7.40361
11
4.05123
21
-7.38861
0
LINE
8
BLACK
6
CONTINUOUS
10
4.05123
20
-7.38861
11
4.05498
21
-7.38111
0
LINE
8
BLACK
6
CONTINUOUS
10
4.05498
20
-7.38111
11
4.05873
21
-7.37736
0
LINE
8
BLACK
6
CONTINUOUS
10
4.05873
20
-7.37736
11
4.06623
21
-7.37361
0
LINE
8
BLACK
6
CONTINUOUS
10
4.12622
20
-7.44485
11
4.12997
21
-7.4486
0
LINE
8
BLACK
6
CONTINUOUS
10
4.12997
20
-7.4486
11
4.12622
21
-7.45235
0
LINE
8
BLACK
6
CONTINUOUS
10
4.12622
20
-7.45235
11
4.12247
21
-7.4486
0
LINE
8
BLACK
6
CONTINUOUS
10
4.12247
20
-7.4486
11
4.12622
21
-7.44485
0
LINE
8
BLACK
6
CONTINUOUS
10
4.12622
20
-7.44485
11
4.12622
21
-7.45235
0
LINE
8
BLACK
6
CONTINUOUS
10
4.17871
20
-7.37361
11
4.18621
21
-7.37361
0
LINE
8
BLACK
6
CONTINUOUS
10
4.18621
20
-7.37361
11
4.19371
21
-7.37736
0
LINE
8
BLACK
6
CONTINUOUS
10
4.19371
20
-7.37736
11
4.19746
21
-7.38111
0
LINE
8
BLACK
6
CONTINUOUS
10
4.19746
20
-7.38111
11
4.20121
21
-7.38861
0
LINE
8
BLACK
6
CONTINUOUS
10
4.20121
20
-7.38861
11
4.20496
21
-7.40361
0
LINE
8
BLACK
6
CONTINUOUS
10
4.20496
20
-7.40361
11
4.20496
21
-7.42236
0
LINE
8
BLACK
6
CONTINUOUS
10
4.20496
20
-7.42236
11
4.20121
21
-7.43735
0
LINE
8
BLACK
6
CONTINUOUS
10
4.20121
20
-7.43735
11
4.19746
21
-7.44485
0
LINE
8
BLACK
6
CONTINUOUS
10
4.19746
20
-7.44485
11
4.19371
21
-7.4486
0
LINE
8
BLACK
6
CONTINUOUS
10
4.19371
20
-7.4486
11
4.18621
21
-7.45235
0
LINE
8
BLACK
6
CONTINUOUS
10
4.18621
20
-7.45235
11
4.17871
21
-7.45235
0
LINE
8
BLACK
6
CONTINUOUS
10
4.17871
20
-7.45235
11
4.17121
21
-7.4486
0
LINE
8
BLACK
6
CONTINUOUS
10
4.17121
20
-7.4486
11
4.16746
21
-7.44485
0
LINE
8
BLACK
6
CONTINUOUS
10
4.16746
20
-7.44485
11
4.16371
21
-7.43735
0
LINE
8
BLACK
6
CONTINUOUS
10
4.16371
20
-7.43735
11
4.15996
21
-7.42236
0
LINE
8
BLACK
6
CONTINUOUS
10
4.15996
20
-7.42236
11
4.15996
21
-7.40361
0
LINE
8
BLACK
6
CONTINUOUS
10
4.15996
20
-7.40361
11
4.16371
21
-7.38861
0
LINE
8
BLACK
6
CONTINUOUS
10
4.16371
20
-7.38861
11
4.16746
21
-7.38111
0
LINE
8
BLACK
6
CONTINUOUS
10
4.16746
20
-7.38111
11
4.17121
21
-7.37736
0
LINE
8
BLACK
6
CONTINUOUS
10
4.17121
20
-7.37736
11
4.17871
21
-7.37361
0
LINE
8
BLACK
6
CONTINUOUS
10
4.23121
20
-7.37361
11
4.27995
21
-7.37361
0
LINE
8
BLACK
6
CONTINUOUS
10
4.27995
20
-7.37361
11
4.2537
21
-7.40361
0
LINE
8
BLACK
6
CONTINUOUS
10
4.2537
20
-7.40361
11
4.26495
21
-7.40361
0
LINE
8
BLACK
6
CONTINUOUS
10
4.26495
20
-7.40361
11
4.27245
21
-7.40736
0
LINE
8
BLACK
6
CONTINUOUS
10
4.27245
20
-7.40736
11
4.2762
21
-7.41111
0
LINE
8
BLACK
6
CONTINUOUS
10
4.2762
20
-7.41111
11
4.27995
21
-7.41861
0
LINE
8
BLACK
6
CONTINUOUS
10
4.27995
20
-7.41861
11
4.27995
21
-7.43735
0
LINE
8
BLACK
6
CONTINUOUS
10
4.27995
20
-7.43735
11
4.2762
21
-7.44485
0
LINE
8
BLACK
6
CONTINUOUS
10
4.2762
20
-7.44485
11
4.27245
21
-7.4486
0
LINE
8
BLACK
6
CONTINUOUS
10
4.27245
20
-7.4486
11
4.26495
21
-7.45235
0
LINE
8
BLACK
6
CONTINUOUS
10
4.26495
20
-7.45235
11
4.24245
21
-7.45235
0
LINE
8
BLACK
6
CONTINUOUS
10
4.24245
20
-7.45235
11
4.23496
21
-7.4486
0
LINE
8
BLACK
6
CONTINUOUS
10
4.23496
20
-7.4486
11
4.23121
21
-7.44485
0
LINE
8
BLACK
6
CONTINUOUS
10
4.35494
20
-7.45235
11
4.30995
21
-7.45235
0
LINE
8
BLACK
6
CONTINUOUS
10
4.33244
20
-7.45235
11
4.33244
21
-7.37361
0
LINE
8
BLACK
6
CONTINUOUS
10
4.33244
20
-7.37361
11
4.32494
21
-7.38486
0
LINE
8
BLACK
6
CONTINUOUS
10
4.32494
20
-7.38486
11
4.31744
21
-7.39236
0
LINE
8
BLACK
6
CONTINUOUS
10
4.31744
20
-7.39236
11
4.30995
21
-7.39611
0
LINE
8
BLACK
6
CONTINUOUS
10
4.42618
20
-7.37361
11
4.38869
21
-7.37361
0
LINE
8
BLACK
6
CONTINUOUS
10
4.38869
20
-7.37361
11
4.38494
21
-7.41111
0
LINE
8
BLACK
6
CONTINUOUS
10
4.38494
20
-7.41111
11
4.38869
21
-7.40736
0
LINE
8
BLACK
6
CONTINUOUS
10
4.38869
20
-7.40736
11
4.39618
21
-7.40361
0
LINE
8
BLACK
6
CONTINUOUS
10
4.39618
20
-7.40361
11
4.41493
21
-7.40361
0
LINE
8
BLACK
6
CONTINUOUS
10
4.41493
20
-7.40361
11
4.42243
21
-7.40736
0
LINE
8
BLACK
6
CONTINUOUS
10
4.42243
20
-7.40736
11
4.42618
21
-7.41111
0
LINE
8
BLACK
6
CONTINUOUS
10
4.42618
20
-7.41111
11
4.42993
21
-7.41861
0
LINE
8
BLACK
6
CONTINUOUS
10
4.42993
20
-7.41861
11
4.42993
21
-7.43735
0
LINE
8
BLACK
6
CONTINUOUS
10
4.42993
20
-7.43735
11
4.42618
21
-7.44485
0
LINE
8
BLACK
6
CONTINUOUS
10
4.42618
20
-7.44485
11
4.42243
21
-7.4486
0
LINE
8
BLACK
6
CONTINUOUS
10
4.42243
20
-7.4486
11
4.41493
21
-7.45235
0
LINE
8
BLACK
6
CONTINUOUS
10
4.41493
20
-7.45235
11
4.39618
21
-7.45235
0
LINE
8
BLACK
6
CONTINUOUS
10
4.39618
20
-7.45235
11
4.38869
21
-7.4486
0
LINE
8
BLACK
6
CONTINUOUS
10
4.38869
20
-7.4486
11
4.38494
21
-7.44485
0
LINE
8
BLACK
6
CONTINUOUS
10
4.45993
20
-7.37361
11
4.45993
21
-7.38861
0
LINE
8
BLACK
6
CONTINUOUS
10
4.48992
20
-7.37361
11
4.48992
21
-7.38861
0
LINE
8
BLACK
6
CONTINUOUS
10
4.59341
20
-7.48235
11
4.58966
21
-7.4786
0
LINE
8
BLACK
6
CONTINUOUS
10
4.58966
20
-7.4786
11
4.58216
21
-7.46735
0
LINE
8
BLACK
6
CONTINUOUS
10
4.58216
20
-7.46735
11
4.57841
21
-7.45985
0
LINE
8
BLACK
6
CONTINUOUS
10
4.57841
20
-7.45985
11
4.57466
21
-7.4486
0
LINE
8
BLACK
6
CONTINUOUS
10
4.57466
20
-7.4486
11
4.57091
21
-7.42986
0
LINE
8
BLACK
6
CONTINUOUS
10
4.57091
20
-7.42986
11
4.57091
21
-7.41486
0
LINE
8
BLACK
6
CONTINUOUS
10
4.57091
20
-7.41486
11
4.57466
21
-7.39611
0
LINE
8
BLACK
6
CONTINUOUS
10
4.57466
20
-7.39611
11
4.57841
21
-7.38486
0
LINE
8
BLACK
6
CONTINUOUS
10
4.57841
20
-7.38486
11
4.58216
21
-7.37736
0
LINE
8
BLACK
6
CONTINUOUS
10
4.58216
20
-7.37736
11
4.58966
21
-7.36611
0
LINE
8
BLACK
6
CONTINUOUS
10
4.58966
20
-7.36611
11
4.59341
21
-7.36236
0
LINE
8
BLACK
6
CONTINUOUS
10
4.6609
20
-7.37361
11
4.62341
21
-7.37361
0
LINE
8
BLACK
6
CONTINUOUS
10
4.62341
20
-7.37361
11
4.61966
21
-7.41111
0
LINE
8
BLACK
6
CONTINUOUS
10
4.61966
20
-7.41111
11
4.62341
21
-7.40736
0
LINE
8
BLACK
6
CONTINUOUS
10
4.62341
20
-7.40736
11
4.63091
21
-7.40361
0
LINE
8
BLACK
6
CONTINUOUS
10
4.63091
20
-7.40361
11
4.64965
21
-7.40361
0
LINE
8
BLACK
6
CONTINUOUS
10
4.64965
20
-7.40361
11
4.65715
21
-7.40736
0
LINE
8
BLACK
6
CONTINUOUS
10
4.65715
20
-7.40736
11
4.6609
21
-7.41111
0
LINE
8
BLACK
6
CONTINUOUS
10
4.6609
20
-7.41111
11
4.66465
21
-7.41861
0
LINE
8
BLACK
6
CONTINUOUS
10
4.66465
20
-7.41861
11
4.66465
21
-7.43735
0
LINE
8
BLACK
6
CONTINUOUS
10
4.66465
20
-7.43735
11
4.6609
21
-7.44485
0
LINE
8
BLACK
6
CONTINUOUS
10
4.6609
20
-7.44485
11
4.65715
21
-7.4486
0
LINE
8
BLACK
6
CONTINUOUS
10
4.65715
20
-7.4486
11
4.64965
21
-7.45235
0
LINE
8
BLACK
6
CONTINUOUS
10
4.64965
20
-7.45235
11
4.63091
21
-7.45235
0
LINE
8
BLACK
6
CONTINUOUS
10
4.63091
20
-7.45235
11
4.62341
21
-7.4486
0
LINE
8
BLACK
6
CONTINUOUS
10
4.62341
20
-7.4486
11
4.61966
21
-7.44485
0
LINE
8
BLACK
6
CONTINUOUS
10
4.73214
20
-7.39986
11
4.73214
21
-7.45235
0
LINE
8
BLACK
6
CONTINUOUS
10
4.7134
20
-7.36986
11
4.69465
21
-7.42611
0
LINE
8
BLACK
6
CONTINUOUS
10
4.69465
20
-7.42611
11
4.74339
21
-7.42611
0
LINE
8
BLACK
6
CONTINUOUS
10
4.82063
20
-7.45235
11
4.82063
21
-7.37361
0
LINE
8
BLACK
6
CONTINUOUS
10
4.85438
20
-7.45235
11
4.85438
21
-7.41111
0
LINE
8
BLACK
6
CONTINUOUS
10
4.85438
20
-7.41111
11
4.85063
21
-7.40361
0
LINE
8
BLACK
6
CONTINUOUS
10
4.85063
20
-7.40361
11
4.84313
21
-7.39986
0
LINE
8
BLACK
6
CONTINUOUS
10
4.84313
20
-7.39986
11
4.83188
21
-7.39986
0
LINE
8
BLACK
6
CONTINUOUS
10
4.83188
20
-7.39986
11
4.82438
21
-7.40361
0
LINE
8
BLACK
6
CONTINUOUS
10
4.82438
20
-7.40361
11
4.82063
21
-7.40736
0
LINE
8
BLACK
6
CONTINUOUS
10
4.90312
20
-7.45235
11
4.89562
21
-7.4486
0
LINE
8
BLACK
6
CONTINUOUS
10
4.89562
20
-7.4486
11
4.89187
21
-7.44485
0
LINE
8
BLACK
6
CONTINUOUS
10
4.89187
20
-7.44485
11
4.88812
21
-7.43735
0
LINE
8
BLACK
6
CONTINUOUS
10
4.88812
20
-7.43735
11
4.88812
21
-7.41486
0
LINE
8
BLACK
6
CONTINUOUS
10
4.88812
20
-7.41486
11
4.89187
21
-7.40736
0
LINE
8
BLACK
6
CONTINUOUS
10
4.89187
20
-7.40736
11
4.89562
21
-7.40361
0
LINE
8
BLACK
6
CONTINUOUS
10
4.89562
20
-7.40361
11
4.90312
21
-7.39986
0
LINE
8
BLACK
6
CONTINUOUS
10
4.90312
20
-7.39986
11
4.91437
21
-7.39986
0
LINE
8
BLACK
6
CONTINUOUS
10
4.91437
20
-7.39986
11
4.92187
21
-7.40361
0
LINE
8
BLACK
6
CONTINUOUS
10
4.92187
20
-7.40361
11
4.92562
21
-7.40736
0
LINE
8
BLACK
6
CONTINUOUS
10
4.92562
20
-7.40736
11
4.92937
21
-7.41486
0
LINE
8
BLACK
6
CONTINUOUS
10
4.92937
20
-7.41486
11
4.92937
21
-7.43735
0
LINE
8
BLACK
6
CONTINUOUS
10
4.92937
20
-7.43735
11
4.92562
21
-7.44485
0
LINE
8
BLACK
6
CONTINUOUS
10
4.92562
20
-7.44485
11
4.92187
21
-7.4486
0
LINE
8
BLACK
6
CONTINUOUS
10
4.92187
20
-7.4486
11
4.91437
21
-7.45235
0
LINE
8
BLACK
6
CONTINUOUS
10
4.91437
20
-7.45235
11
4.90312
21
-7.45235
0
LINE
8
BLACK
6
CONTINUOUS
10
4.97436
20
-7.45235
11
4.96686
21
-7.4486
0
LINE
8
BLACK
6
CONTINUOUS
10
4.96686
20
-7.4486
11
4.96311
21
-7.4411
0
LINE
8
BLACK
6
CONTINUOUS
10
4.96311
20
-7.4411
11
4.96311
21
-7.37361
0
LINE
8
BLACK
6
CONTINUOUS
10
5.03436
20
-7.4486
11
5.02686
21
-7.45235
0
LINE
8
BLACK
6
CONTINUOUS
10
5.02686
20
-7.45235
11
5.01186
21
-7.45235
0
LINE
8
BLACK
6
CONTINUOUS
10
5.01186
20
-7.45235
11
5.00436
21
-7.4486
0
LINE
8
BLACK
6
CONTINUOUS
10
5.00436
20
-7.4486
11
5.00061
21
-7.4411
0
LINE
8
BLACK
6
CONTINUOUS
10
5.00061
20
-7.4411
11
5.00061
21
-7.41111
0
LINE
8
BLACK
6
CONTINUOUS
10
5.00061
20
-7.41111
11
5.00436
21
-7.40361
0
LINE
8
BLACK
6
CONTINUOUS
10
5.00436
20
-7.40361
11
5.01186
21
-7.39986
0
LINE
8
BLACK
6
CONTINUOUS
10
5.01186
20
-7.39986
11
5.02686
21
-7.39986
0
LINE
8
BLACK
6
CONTINUOUS
10
5.02686
20
-7.39986
11
5.03436
21
-7.40361
0
LINE
8
BLACK
6
CONTINUOUS
10
5.03436
20
-7.40361
11
5.0381
21
-7.41111
0
LINE
8
BLACK
6
CONTINUOUS
10
5.0381
20
-7.41111
11
5.0381
21
-7.41861
0
LINE
8
BLACK
6
CONTINUOUS
10
5.0381
20
-7.41861
11
5.00061
21
-7.42611
0
LINE
8
BLACK
6
CONTINUOUS
10
5.0681
20
-7.4486
11
5.0756
21
-7.45235
0
LINE
8
BLACK
6
CONTINUOUS
10
5.0756
20
-7.45235
11
5.0906
21
-7.45235
0
LINE
8
BLACK
6
CONTINUOUS
10
5.0906
20
-7.45235
11
5.0981
21
-7.4486
0
LINE
8
BLACK
6
CONTINUOUS
10
5.0981
20
-7.4486
11
5.10185
21
-7.4411
0
LINE
8
BLACK
6
CONTINUOUS
10
5.10185
20
-7.4411
11
5.10185
21
-7.43735
0
LINE
8
BLACK
6
CONTINUOUS
10
5.10185
20
-7.43735
11
5.0981
21
-7.42986
0
LINE
8
BLACK
6
CONTINUOUS
10
5.0981
20
-7.42986
11
5.0906
21
-7.42611
0
LINE
8
BLACK
6
CONTINUOUS
10
5.0906
20
-7.42611
11
5.07935
21
-7.42611
0
LINE
8
BLACK
6
CONTINUOUS
10
5.07935
20
-7.42611
11
5.07185
21
-7.42236
0
LINE
8
BLACK
6
CONTINUOUS
10
5.07185
20
-7.42236
11
5.0681
21
-7.41486
0
LINE
8
BLACK
6
CONTINUOUS
10
5.0681
20
-7.41486
11
5.0681
21
-7.41111
0
LINE
8
BLACK
6
CONTINUOUS
10
5.0681
20
-7.41111
11
5.07185
21
-7.40361
0
LINE
8
BLACK
6
CONTINUOUS
10
5.07185
20
-7.40361
11
5.07935
21
-7.39986
0
LINE
8
BLACK
6
CONTINUOUS
10
5.07935
20
-7.39986
11
5.0906
21
-7.39986
0
LINE
8
BLACK
6
CONTINUOUS
10
5.0906
20
-7.39986
11
5.0981
21
-7.40361
0
LINE
8
BLACK
6
CONTINUOUS
10
5.12809
20
-7.48235
11
5.13184
21
-7.4786
0
LINE
8
BLACK
6
CONTINUOUS
10
5.13184
20
-7.4786
11
5.13934
21
-7.46735
0
LINE
8
BLACK
6
CONTINUOUS
10
5.13934
20
-7.46735
11
5.14309
21
-7.45985
0
LINE
8
BLACK
6
CONTINUOUS
10
5.14309
20
-7.45985
11
5.14684
21
-7.4486
0
LINE
8
BLACK
6
CONTINUOUS
10
5.14684
20
-7.4486
11
5.15059
21
-7.42986
0
LINE
8
BLACK
6
CONTINUOUS
10
5.15059
20
-7.42986
11
5.15059
21
-7.41486
0
LINE
8
BLACK
6
CONTINUOUS
10
5.15059
20
-7.41486
11
5.14684
21
-7.39611
0
LINE
8
BLACK
6
CONTINUOUS
10
5.14684
20
-7.39611
11
5.14309
21
-7.38486
0
LINE
8
BLACK
6
CONTINUOUS
10
5.14309
20
-7.38486
11
5.13934
21
-7.37736
0
LINE
8
BLACK
6
CONTINUOUS
10
5.13934
20
-7.37736
11
5.13184
21
-7.36611
0
LINE
8
BLACK
6
CONTINUOUS
10
5.13184
20
-7.36611
11
5.12809
21
-7.36236
0
LINE
8
BLACK
6
CONTINUOUS
10
3.22357
20
-7.54128
11
3.22357
21
-7.51344
0
LINE
8
BLACK
6
CONTINUOUS
10
3.22357
20
-7.51344
11
3.19573
21
-7.51344
0
LINE
8
BLACK
6
CONTINUOUS
10
3.19573
20
-7.51344
11
3.19573
21
-7.54128
0
LINE
8
BLACK
6
CONTINUOUS
10
3.19573
20
-7.54128
11
3.22357
21
-7.54128
0
LINE
8
BLACK
6
CONTINUOUS
10
3.36806
20
-7.55629
11
3.32307
21
-7.55629
0
LINE
8
BLACK
6
CONTINUOUS
10
3.34557
20
-7.55629
11
3.34557
21
-7.47755
0
LINE
8
BLACK
6
CONTINUOUS
10
3.34557
20
-7.47755
11
3.33807
21
-7.4888
0
LINE
8
BLACK
6
CONTINUOUS
10
3.33807
20
-7.4888
11
3.33057
21
-7.4963
0
LINE
8
BLACK
6
CONTINUOUS
10
3.33057
20
-7.4963
11
3.32307
21
-7.50005
0
LINE
8
BLACK
6
CONTINUOUS
10
3.40181
20
-7.54879
11
3.40556
21
-7.55254
0
LINE
8
BLACK
6
CONTINUOUS
10
3.40556
20
-7.55254
11
3.40181
21
-7.55629
0
LINE
8
BLACK
6
CONTINUOUS
10
3.40181
20
-7.55629
11
3.39806
21
-7.55254
0
LINE
8
BLACK
6
CONTINUOUS
10
3.39806
20
-7.55254
11
3.40181
21
-7.54879
0
LINE
8
BLACK
6
CONTINUOUS
10
3.40181
20
-7.54879
11
3.40181
21
-7.55629
0
LINE
8
BLACK
6
CONTINUOUS
10
3.4543
20
-7.47755
11
3.4618
21
-7.47755
0
LINE
8
BLACK
6
CONTINUOUS
10
3.4618
20
-7.47755
11
3.4693
21
-7.4813
0
LINE
8
BLACK
6
CONTINUOUS
10
3.4693
20
-7.4813
11
3.47305
21
-7.48505
0
LINE
8
BLACK
6
CONTINUOUS
10
3.47305
20
-7.48505
11
3.4768
21
-7.49255
0
LINE
8
BLACK
6
CONTINUOUS
10
3.4768
20
-7.49255
11
3.48055
21
-7.50755
0
LINE
8
BLACK
6
CONTINUOUS
10
3.48055
20
-7.50755
11
3.48055
21
-7.52629
0
LINE
8
BLACK
6
CONTINUOUS
10
3.48055
20
-7.52629
11
3.4768
21
-7.54129
0
LINE
8
BLACK
6
CONTINUOUS
10
3.4768
20
-7.54129
11
3.47305
21
-7.54879
0
LINE
8
BLACK
6
CONTINUOUS
10
3.47305
20
-7.54879
11
3.4693
21
-7.55254
0
LINE
8
BLACK
6
CONTINUOUS
10
3.4693
20
-7.55254
11
3.4618
21
-7.55629
0
LINE
8
BLACK
6
CONTINUOUS
10
3.4618
20
-7.55629
11
3.4543
21
-7.55629
0
LINE
8
BLACK
6
CONTINUOUS
10
3.4543
20
-7.55629
11
3.4468
21
-7.55254
0
LINE
8
BLACK
6
CONTINUOUS
10
3.4468
20
-7.55254
11
3.44305
21
-7.54879
0
LINE
8
BLACK
6
CONTINUOUS
10
3.44305
20
-7.54879
11
3.4393
21
-7.54129
0
LINE
8
BLACK
6
CONTINUOUS
10
3.4393
20
-7.54129
11
3.43555
21
-7.52629
0
LINE
8
BLACK
6
CONTINUOUS
10
3.43555
20
-7.52629
11
3.43555
21
-7.50755
0
LINE
8
BLACK
6
CONTINUOUS
10
3.43555
20
-7.50755
11
3.4393
21
-7.49255
0
LINE
8
BLACK
6
CONTINUOUS
10
3.4393
20
-7.49255
11
3.44305
21
-7.48505
0
LINE
8
BLACK
6
CONTINUOUS
10
3.44305
20
-7.48505
11
3.4468
21
-7.4813
0
LINE
8
BLACK
6
CONTINUOUS
10
3.4468
20
-7.4813
11
3.4543
21
-7.47755
0
LINE
8
BLACK
6
CONTINUOUS
10
3.52929
20
-7.47755
11
3.53679
21
-7.47755
0
LINE
8
BLACK
6
CONTINUOUS
10
3.53679
20
-7.47755
11
3.54429
21
-7.4813
0
LINE
8
BLACK
6
CONTINUOUS
10
3.54429
20
-7.4813
11
3.54804
21
-7.48505
0
LINE
8
BLACK
6
CONTINUOUS
10
3.54804
20
-7.48505
11
3.55179
21
-7.49255
0
LINE
8
BLACK
6
CONTINUOUS
10
3.55179
20
-7.49255
11
3.55554
21
-7.50755
0
LINE
8
BLACK
6
CONTINUOUS
10
3.55554
20
-7.50755
11
3.55554
21
-7.52629
0
LINE
8
BLACK
6
CONTINUOUS
10
3.55554
20
-7.52629
11
3.55179
21
-7.54129
0
LINE
8
BLACK
6
CONTINUOUS
10
3.55179
20
-7.54129
11
3.54804
21
-7.54879
0
LINE
8
BLACK
6
CONTINUOUS
10
3.54804
20
-7.54879
11
3.54429
21
-7.55254
0
LINE
8
BLACK
6
CONTINUOUS
10
3.54429
20
-7.55254
11
3.53679
21
-7.55629
0
LINE
8
BLACK
6
CONTINUOUS
10
3.53679
20
-7.55629
11
3.52929
21
-7.55629
0
LINE
8
BLACK
6
CONTINUOUS
10
3.52929
20
-7.55629
11
3.52179
21
-7.55254
0
LINE
8
BLACK
6
CONTINUOUS
10
3.52179
20
-7.55254
11
3.51804
21
-7.54879
0
LINE
8
BLACK
6
CONTINUOUS
10
3.51804
20
-7.54879
11
3.5143
21
-7.54129
0
LINE
8
BLACK
6
CONTINUOUS
10
3.5143
20
-7.54129
11
3.51055
21
-7.52629
0
LINE
8
BLACK
6
CONTINUOUS
10
3.51055
20
-7.52629
11
3.51055
21
-7.50755
0
LINE
8
BLACK
6
CONTINUOUS
10
3.51055
20
-7.50755
11
3.5143
21
-7.49255
0
LINE
8
BLACK
6
CONTINUOUS
10
3.5143
20
-7.49255
11
3.51804
21
-7.48505
0
LINE
8
BLACK
6
CONTINUOUS
10
3.51804
20
-7.48505
11
3.52179
21
-7.4813
0
LINE
8
BLACK
6
CONTINUOUS
10
3.52179
20
-7.4813
11
3.52929
21
-7.47755
0
LINE
8
BLACK
6
CONTINUOUS
10
3.60428
20
-7.47755
11
3.61178
21
-7.47755
0
LINE
8
BLACK
6
CONTINUOUS
10
3.61178
20
-7.47755
11
3.61928
21
-7.4813
0
LINE
8
BLACK
6
CONTINUOUS
10
3.61928
20
-7.4813
11
3.62303
21
-7.48505
0
LINE
8
BLACK
6
CONTINUOUS
10
3.62303
20
-7.48505
11
3.62678
21
-7.49255
0
LINE
8
BLACK
6
CONTINUOUS
10
3.62678
20
-7.49255
11
3.63053
21
-7.50755
0
LINE
8
BLACK
6
CONTINUOUS
10
3.63053
20
-7.50755
11
3.63053
21
-7.52629
0
LINE
8
BLACK
6
CONTINUOUS
10
3.63053
20
-7.52629
11
3.62678
21
-7.54129
0
LINE
8
BLACK
6
CONTINUOUS
10
3.62678
20
-7.54129
11
3.62303
21
-7.54879
0
LINE
8
BLACK
6
CONTINUOUS
10
3.62303
20
-7.54879
11
3.61928
21
-7.55254
0
LINE
8
BLACK
6
CONTINUOUS
10
3.61928
20
-7.55254
11
3.61178
21
-7.55629
0
LINE
8
BLACK
6
CONTINUOUS
10
3.61178
20
-7.55629
11
3.60428
21
-7.55629
0
LINE
8
BLACK
6
CONTINUOUS
10
3.60428
20
-7.55629
11
3.59678
21
-7.55254
0
LINE
8
BLACK
6
CONTINUOUS
10
3.59678
20
-7.55254
11
3.59304
21
-7.54879
0
LINE
8
BLACK
6
CONTINUOUS
10
3.59304
20
-7.54879
11
3.58929
21
-7.54129
0
LINE
8
BLACK
6
CONTINUOUS
10
3.58929
20
-7.54129
11
3.58554
21
-7.52629
0
LINE
8
BLACK
6
CONTINUOUS
10
3.58554
20
-7.52629
11
3.58554
21
-7.50755
0
LINE
8
BLACK
6
CONTINUOUS
10
3.58554
20
-7.50755
11
3.58929
21
-7.49255
0
LINE
8
BLACK
6
CONTINUOUS
10
3.58929
20
-7.49255
11
3.59304
21
-7.48505
0
LINE
8
BLACK
6
CONTINUOUS
10
3.59304
20
-7.48505
11
3.59678
21
-7.4813
0
LINE
8
BLACK
6
CONTINUOUS
10
3.59678
20
-7.4813
11
3.60428
21
-7.47755
0
LINE
8
BLACK
6
CONTINUOUS
10
3.66428
20
-7.55629
11
3.66428
21
-7.5038
0
LINE
8
BLACK
6
CONTINUOUS
10
3.66428
20
-7.5113
11
3.66803
21
-7.50755
0
LINE
8
BLACK
6
CONTINUOUS
10
3.66803
20
-7.50755
11
3.67552
21
-7.5038
0
LINE
8
BLACK
6
CONTINUOUS
10
3.67552
20
-7.5038
11
3.68677
21
-7.5038
0
LINE
8
BLACK
6
CONTINUOUS
10
3.68677
20
-7.5038
11
3.69427
21
-7.50755
0
LINE
8
BLACK
6
CONTINUOUS
10
3.69427
20
-7.50755
11
3.69802
21
-7.51504
0
LINE
8
BLACK
6
CONTINUOUS
10
3.69802
20
-7.51504
11
3.69802
21
-7.55629
0
LINE
8
BLACK
6
CONTINUOUS
10
3.69802
20
-7.51504
11
3.70177
21
-7.50755
0
LINE
8
BLACK
6
CONTINUOUS
10
3.70177
20
-7.50755
11
3.70927
21
-7.5038
0
LINE
8
BLACK
6
CONTINUOUS
10
3.70927
20
-7.5038
11
3.72052
21
-7.5038
0
LINE
8
BLACK
6
CONTINUOUS
10
3.72052
20
-7.5038
11
3.72802
21
-7.50755
0
LINE
8
BLACK
6
CONTINUOUS
10
3.72802
20
-7.50755
11
3.73177
21
-7.51504
0
LINE
8
BLACK
6
CONTINUOUS
10
3.73177
20
-7.51504
11
3.73177
21
-7.55629
0
LINE
8
BLACK
6
CONTINUOUS
10
3.76926
20
-7.55629
11
3.76926
21
-7.5038
0
LINE
8
BLACK
6
CONTINUOUS
10
3.76926
20
-7.5113
11
3.77301
21
-7.50755
0
LINE
8
BLACK
6
CONTINUOUS
10
3.77301
20
-7.50755
11
3.78051
21
-7.5038
0
LINE
8
BLACK
6
CONTINUOUS
10
3.78051
20
-7.5038
11
3.79176
21
-7.5038
0
LINE
8
BLACK
6
CONTINUOUS
10
3.79176
20
-7.5038
11
3.79926
21
-7.50755
0
LINE
8
BLACK
6
CONTINUOUS
10
3.79926
20
-7.50755
11
3.80301
21
-7.51504
0
LINE
8
BLACK
6
CONTINUOUS
10
3.80301
20
-7.51504
11
3.80301
21
-7.55629
0
LINE
8
BLACK
6
CONTINUOUS
10
3.80301
20
-7.51504
11
3.80676
21
-7.50755
0
LINE
8
BLACK
6
CONTINUOUS
10
3.80676
20
-7.50755
11
3.81426
21
-7.5038
0
LINE
8
BLACK
6
CONTINUOUS
10
3.81426
20
-7.5038
11
3.82551
21
-7.5038
0
LINE
8
BLACK
6
CONTINUOUS
10
3.82551
20
-7.5038
11
3.83301
21
-7.50755
0
LINE
8
BLACK
6
CONTINUOUS
10
3.83301
20
-7.50755
11
3.83675
21
-7.51504
0
LINE
8
BLACK
6
CONTINUOUS
10
3.83675
20
-7.51504
11
3.83675
21
-7.55629
0
LINE
8
BLACK
6
CONTINUOUS
10
3.97774
20
-7.4738
11
3.91025
21
-7.57504
0
LINE
8
BLACK
6
CONTINUOUS
10
4.06623
20
-7.47755
11
4.07373
21
-7.47755
0
LINE
8
BLACK
6
CONTINUOUS
10
4.07373
20
-7.47755
11
4.08122
21
-7.4813
0
LINE
8
BLACK
6
CONTINUOUS
10
4.08122
20
-7.4813
11
4.08497
21
-7.48505
0
LINE
8
BLACK
6
CONTINUOUS
10
4.08497
20
-7.48505
11
4.08872
21
-7.49255
0
LINE
8
BLACK
6
CONTINUOUS
10
4.08872
20
-7.49255
11
4.09247
21
-7.50755
0
LINE
8
BLACK
6
CONTINUOUS
10
4.09247
20
-7.50755
11
4.09247
21
-7.52629
0
LINE
8
BLACK
6
CONTINUOUS
10
4.09247
20
-7.52629
11
4.08872
21
-7.54129
0
LINE
8
BLACK
6
CONTINUOUS
10
4.08872
20
-7.54129
11
4.08497
21
-7.54879
0
LINE
8
BLACK
6
CONTINUOUS
10
4.08497
20
-7.54879
11
4.08122
21
-7.55254
0
LINE
8
BLACK
6
CONTINUOUS
10
4.08122
20
-7.55254
11
4.07373
21
-7.55629
0
LINE
8
BLACK
6
CONTINUOUS
10
4.07373
20
-7.55629
11
4.06623
21
-7.55629
0
LINE
8
BLACK
6
CONTINUOUS
10
4.06623
20
-7.55629
11
4.05873
21
-7.55254
0
LINE
8
BLACK
6
CONTINUOUS
10
4.05873
20
-7.55254
11
4.05498
21
-7.54879
0
LINE
8
BLACK
6
CONTINUOUS
10
4.05498
20
-7.54879
11
4.05123
21
-7.54129
0
LINE
8
BLACK
6
CONTINUOUS
10
4.05123
20
-7.54129
11
4.04748
21
-7.52629
0
LINE
8
BLACK
6
CONTINUOUS
10
4.04748
20
-7.52629
11
4.04748
21
-7.50755
0
LINE
8
BLACK
6
CONTINUOUS
10
4.04748
20
-7.50755
11
4.05123
21
-7.49255
0
LINE
8
BLACK
6
CONTINUOUS
10
4.05123
20
-7.49255
11
4.05498
21
-7.48505
0
LINE
8
BLACK
6
CONTINUOUS
10
4.05498
20
-7.48505
11
4.05873
21
-7.4813
0
LINE
8
BLACK
6
CONTINUOUS
10
4.05873
20
-7.4813
11
4.06623
21
-7.47755
0
LINE
8
BLACK
6
CONTINUOUS
10
4.12622
20
-7.54879
11
4.12997
21
-7.55254
0
LINE
8
BLACK
6
CONTINUOUS
10
4.12997
20
-7.55254
11
4.12622
21
-7.55629
0
LINE
8
BLACK
6
CONTINUOUS
10
4.12622
20
-7.55629
11
4.12247
21
-7.55254
0
LINE
8
BLACK
6
CONTINUOUS
10
4.12247
20
-7.55254
11
4.12622
21
-7.54879
0
LINE
8
BLACK
6
CONTINUOUS
10
4.12622
20
-7.54879
11
4.12622
21
-7.55629
0
LINE
8
BLACK
6
CONTINUOUS
10
4.17871
20
-7.47755
11
4.18621
21
-7.47755
0
LINE
8
BLACK
6
CONTINUOUS
10
4.18621
20
-7.47755
11
4.19371
21
-7.4813
0
LINE
8
BLACK
6
CONTINUOUS
10
4.19371
20
-7.4813
11
4.19746
21
-7.48505
0
LINE
8
BLACK
6
CONTINUOUS
10
4.19746
20
-7.48505
11
4.20121
21
-7.49255
0
LINE
8
BLACK
6
CONTINUOUS
10
4.20121
20
-7.49255
11
4.20496
21
-7.50755
0
LINE
8
BLACK
6
CONTINUOUS
10
4.20496
20
-7.50755
11
4.20496
21
-7.52629
0
LINE
8
BLACK
6
CONTINUOUS
10
4.20496
20
-7.52629
11
4.20121
21
-7.54129
0
LINE
8
BLACK
6
CONTINUOUS
10
4.20121
20
-7.54129
11
4.19746
21
-7.54879
0
LINE
8
BLACK
6
CONTINUOUS
10
4.19746
20
-7.54879
11
4.19371
21
-7.55254
0
LINE
8
BLACK
6
CONTINUOUS
10
4.19371
20
-7.55254
11
4.18621
21
-7.55629
0
LINE
8
BLACK
6
CONTINUOUS
10
4.18621
20
-7.55629
11
4.17871
21
-7.55629
0
LINE
8
BLACK
6
CONTINUOUS
10
4.17871
20
-7.55629
11
4.17121
21
-7.55254
0
LINE
8
BLACK
6
CONTINUOUS
10
4.17121
20
-7.55254
11
4.16746
21
-7.54879
0
LINE
8
BLACK
6
CONTINUOUS
10
4.16746
20
-7.54879
11
4.16371
21
-7.54129
0
LINE
8
BLACK
6
CONTINUOUS
10
4.16371
20
-7.54129
11
4.15996
21
-7.52629
0
LINE
8
BLACK
6
CONTINUOUS
10
4.15996
20
-7.52629
11
4.15996
21
-7.50755
0
LINE
8
BLACK
6
CONTINUOUS
10
4.15996
20
-7.50755
11
4.16371
21
-7.49255
0
LINE
8
BLACK
6
CONTINUOUS
10
4.16371
20
-7.49255
11
4.16746
21
-7.48505
0
LINE
8
BLACK
6
CONTINUOUS
10
4.16746
20
-7.48505
11
4.17121
21
-7.4813
0
LINE
8
BLACK
6
CONTINUOUS
10
4.17121
20
-7.4813
11
4.17871
21
-7.47755
0
LINE
8
BLACK
6
CONTINUOUS
10
4.23121
20
-7.47755
11
4.27995
21
-7.47755
0
LINE
8
BLACK
6
CONTINUOUS
10
4.27995
20
-7.47755
11
4.2537
21
-7.50755
0
LINE
8
BLACK
6
CONTINUOUS
10
4.2537
20
-7.50755
11
4.26495
21
-7.50755
0
LINE
8
BLACK
6
CONTINUOUS
10
4.26495
20
-7.50755
11
4.27245
21
-7.5113
0
LINE
8
BLACK
6
CONTINUOUS
10
4.27245
20
-7.5113
11
4.2762
21
-7.51504
0
LINE
8
BLACK
6
CONTINUOUS
10
4.2762
20
-7.51504
11
4.27995
21
-7.52254
0
LINE
8
BLACK
6
CONTINUOUS
10
4.27995
20
-7.52254
11
4.27995
21
-7.54129
0
LINE
8
BLACK
6
CONTINUOUS
10
4.27995
20
-7.54129
11
4.2762
21
-7.54879
0
LINE
8
BLACK
6
CONTINUOUS
10
4.2762
20
-7.54879
11
4.27245
21
-7.55254
0
LINE
8
BLACK
6
CONTINUOUS
10
4.27245
20
-7.55254
11
4.26495
21
-7.55629
0
LINE
8
BLACK
6
CONTINUOUS
10
4.26495
20
-7.55629
11
4.24245
21
-7.55629
0
LINE
8
BLACK
6
CONTINUOUS
10
4.24245
20
-7.55629
11
4.23496
21
-7.55254
0
LINE
8
BLACK
6
CONTINUOUS
10
4.23496
20
-7.55254
11
4.23121
21
-7.54879
0
LINE
8
BLACK
6
CONTINUOUS
10
4.31744
20
-7.55629
11
4.33244
21
-7.55629
0
LINE
8
BLACK
6
CONTINUOUS
10
4.33244
20
-7.55629
11
4.33994
21
-7.55254
0
LINE
8
BLACK
6
CONTINUOUS
10
4.33994
20
-7.55254
11
4.34369
21
-7.54879
0
LINE
8
BLACK
6
CONTINUOUS
10
4.34369
20
-7.54879
11
4.35119
21
-7.53754
0
LINE
8
BLACK
6
CONTINUOUS
10
4.35119
20
-7.53754
11
4.35494
21
-7.52254
0
LINE
8
BLACK
6
CONTINUOUS
10
4.35494
20
-7.52254
11
4.35494
21
-7.49255
0
LINE
8
BLACK
6
CONTINUOUS
10
4.35494
20
-7.49255
11
4.35119
21
-7.48505
0
LINE
8
BLACK
6
CONTINUOUS
10
4.35119
20
-7.48505
11
4.34744
21
-7.4813
0
LINE
8
BLACK
6
CONTINUOUS
10
4.34744
20
-7.4813
11
4.33994
21
-7.47755
0
LINE
8
BLACK
6
CONTINUOUS
10
4.33994
20
-7.47755
11
4.32494
21
-7.47755
0
LINE
8
BLACK
6
CONTINUOUS
10
4.32494
20
-7.47755
11
4.31744
21
-7.4813
0
LINE
8
BLACK
6
CONTINUOUS
10
4.31744
20
-7.4813
11
4.3137
21
-7.48505
0
LINE
8
BLACK
6
CONTINUOUS
10
4.3137
20
-7.48505
11
4.30995
21
-7.49255
0
LINE
8
BLACK
6
CONTINUOUS
10
4.30995
20
-7.49255
11
4.30995
21
-7.5113
0
LINE
8
BLACK
6
CONTINUOUS
10
4.30995
20
-7.5113
11
4.3137
21
-7.51879
0
LINE
8
BLACK
6
CONTINUOUS
10
4.3137
20
-7.51879
11
4.31744
21
-7.52254
0
LINE
8
BLACK
6
CONTINUOUS
10
4.31744
20
-7.52254
11
4.32494
21
-7.52629
0
LINE
8
BLACK
6
CONTINUOUS
10
4.32494
20
-7.52629
11
4.33994
21
-7.52629
0
LINE
8
BLACK
6
CONTINUOUS
10
4.33994
20
-7.52629
11
4.34744
21
-7.52254
0
LINE
8
BLACK
6
CONTINUOUS
10
4.34744
20
-7.52254
11
4.35119
21
-7.51879
0
LINE
8
BLACK
6
CONTINUOUS
10
4.35119
20
-7.51879
11
4.35494
21
-7.5113
0
LINE
8
BLACK
6
CONTINUOUS
10
4.42243
20
-7.5038
11
4.42243
21
-7.55629
0
LINE
8
BLACK
6
CONTINUOUS
10
4.40368
20
-7.4738
11
4.38494
21
-7.53004
0
LINE
8
BLACK
6
CONTINUOUS
10
4.38494
20
-7.53004
11
4.43368
21
-7.53004
0
LINE
8
BLACK
6
CONTINUOUS
10
4.45993
20
-7.47755
11
4.45993
21
-7.49255
0
LINE
8
BLACK
6
CONTINUOUS
10
4.48992
20
-7.47755
11
4.48992
21
-7.49255
0
LINE
8
BLACK
6
CONTINUOUS
10
4.59341
20
-7.58629
11
4.58966
21
-7.58254
0
LINE
8
BLACK
6
CONTINUOUS
10
4.58966
20
-7.58254
11
4.58216
21
-7.57129
0
LINE
8
BLACK
6
CONTINUOUS
10
4.58216
20
-7.57129
11
4.57841
21
-7.56379
0
LINE
8
BLACK
6
CONTINUOUS
10
4.57841
20
-7.56379
11
4.57466
21
-7.55254
0
LINE
8
BLACK
6
CONTINUOUS
10
4.57466
20
-7.55254
11
4.57091
21
-7.53379
0
LINE
8
BLACK
6
CONTINUOUS
10
4.57091
20
-7.53379
11
4.57091
21
-7.51879
0
LINE
8
BLACK
6
CONTINUOUS
10
4.57091
20
-7.51879
11
4.57466
21
-7.50005
0
LINE
8
BLACK
6
CONTINUOUS
10
4.57466
20
-7.50005
11
4.57841
21
-7.4888
0
LINE
8
BLACK
6
CONTINUOUS
10
4.57841
20
-7.4888
11
4.58216
21
-7.4813
0
LINE
8
BLACK
6
CONTINUOUS
10
4.58216
20
-7.4813
11
4.58966
21
-7.47005
0
LINE
8
BLACK
6
CONTINUOUS
10
4.58966
20
-7.47005
11
4.59341
21
-7.4663
0
LINE
8
BLACK
6
CONTINUOUS
10
4.66465
20
-7.55629
11
4.61966
21
-7.55629
0
LINE
8
BLACK
6
CONTINUOUS
10
4.64215
20
-7.55629
11
4.64215
21
-7.47755
0
LINE
8
BLACK
6
CONTINUOUS
10
4.64215
20
-7.47755
11
4.63466
21
-7.4888
0
LINE
8
BLACK
6
CONTINUOUS
10
4.63466
20
-7.4888
11
4.62716
21
-7.4963
0
LINE
8
BLACK
6
CONTINUOUS
10
4.62716
20
-7.4963
11
4.61966
21
-7.50005
0
LINE
8
BLACK
6
CONTINUOUS
10
4.6909
20
-7.47755
11
4.73964
21
-7.47755
0
LINE
8
BLACK
6
CONTINUOUS
10
4.73964
20
-7.47755
11
4.7134
21
-7.50755
0
LINE
8
BLACK
6
CONTINUOUS
10
4.7134
20
-7.50755
11
4.72464
21
-7.50755
0
LINE
8
BLACK
6
CONTINUOUS
10
4.72464
20
-7.50755
11
4.73214
21
-7.5113
0
LINE
8
BLACK
6
CONTINUOUS
10
4.73214
20
-7.5113
11
4.73589
21
-7.51504
0
LINE
8
BLACK
6
CONTINUOUS
10
4.73589
20
-7.51504
11
4.73964
21
-7.52254
0
LINE
8
BLACK
6
CONTINUOUS
10
4.73964
20
-7.52254
11
4.73964
21
-7.54129
0
LINE
8
BLACK
6
CONTINUOUS
10
4.73964
20
-7.54129
11
4.73589
21
-7.54879
0
LINE
8
BLACK
6
CONTINUOUS
10
4.73589
20
-7.54879
11
4.73214
21
-7.55254
0
LINE
8
BLACK
6
CONTINUOUS
10
4.73214
20
-7.55254
11
4.72464
21
-7.55629
0
LINE
8
BLACK
6
CONTINUOUS
10
4.72464
20
-7.55629
11
4.70215
21
-7.55629
0
LINE
8
BLACK
6
CONTINUOUS
10
4.70215
20
-7.55629
11
4.69465
21
-7.55254
0
LINE
8
BLACK
6
CONTINUOUS
10
4.69465
20
-7.55254
11
4.6909
21
-7.54879
0
LINE
8
BLACK
6
CONTINUOUS
10
4.82063
20
-7.55629
11
4.82063
21
-7.47755
0
LINE
8
BLACK
6
CONTINUOUS
10
4.85438
20
-7.55629
11
4.85438
21
-7.51504
0
LINE
8
BLACK
6
CONTINUOUS
10
4.85438
20
-7.51504
11
4.85063
21
-7.50755
0
LINE
8
BLACK
6
CONTINUOUS
10
4.85063
20
-7.50755
11
4.84313
21
-7.5038
0
LINE
8
BLACK
6
CONTINUOUS
10
4.84313
20
-7.5038
11
4.83188
21
-7.5038
0
LINE
8
BLACK
6
CONTINUOUS
10
4.83188
20
-7.5038
11
4.82438
21
-7.50755
0
LINE
8
BLACK
6
CONTINUOUS
10
4.82438
20
-7.50755
11
4.82063
21
-7.5113
0
LINE
8
BLACK
6
CONTINUOUS
10
4.90312
20
-7.55629
11
4.89562
21
-7.55254
0
LINE
8
BLACK
6
CONTINUOUS
10
4.89562
20
-7.55254
11
4.89187
21
-7.54879
0
LINE
8
BLACK
6
CONTINUOUS
10
4.89187
20
-7.54879
11
4.88812
21
-7.54129
0
LINE
8
BLACK
6
CONTINUOUS
10
4.88812
20
-7.54129
11
4.88812
21
-7.51879
0
LINE
8
BLACK
6
CONTINUOUS
10
4.88812
20
-7.51879
11
4.89187
21
-7.5113
0
LINE
8
BLACK
6
CONTINUOUS
10
4.89187
20
-7.5113
11
4.89562
21
-7.50755
0
LINE
8
BLACK
6
CONTINUOUS
10
4.89562
20
-7.50755
11
4.90312
21
-7.5038
0
LINE
8
BLACK
6
CONTINUOUS
10
4.90312
20
-7.5038
11
4.91437
21
-7.5038
0
LINE
8
BLACK
6
CONTINUOUS
10
4.91437
20
-7.5038
11
4.92187
21
-7.50755
0
LINE
8
BLACK
6
CONTINUOUS
10
4.92187
20
-7.50755
11
4.92562
21
-7.5113
0
LINE
8
BLACK
6
CONTINUOUS
10
4.92562
20
-7.5113
11
4.92937
21
-7.51879
0
LINE
8
BLACK
6
CONTINUOUS
10
4.92937
20
-7.51879
11
4.92937
21
-7.54129
0
LINE
8
BLACK
6
CONTINUOUS
10
4.92937
20
-7.54129
11
4.92562
21
-7.54879
0
LINE
8
BLACK
6
CONTINUOUS
10
4.92562
20
-7.54879
11
4.92187
21
-7.55254
0
LINE
8
BLACK
6
CONTINUOUS
10
4.92187
20
-7.55254
11
4.91437
21
-7.55629
0
LINE
8
BLACK
6
CONTINUOUS
10
4.91437
20
-7.55629
11
4.90312
21
-7.55629
0
LINE
8
BLACK
6
CONTINUOUS
10
4.97436
20
-7.55629
11
4.96686
21
-7.55254
0
LINE
8
BLACK
6
CONTINUOUS
10
4.96686
20
-7.55254
11
4.96311
21
-7.54504
0
LINE
8
BLACK
6
CONTINUOUS
10
4.96311
20
-7.54504
11
4.96311
21
-7.47755
0
LINE
8
BLACK
6
CONTINUOUS
10
5.03436
20
-7.55254
11
5.02686
21
-7.55629
0
LINE
8
BLACK
6
CONTINUOUS
10
5.02686
20
-7.55629
11
5.01186
21
-7.55629
0
LINE
8
BLACK
6
CONTINUOUS
10
5.01186
20
-7.55629
11
5.00436
21
-7.55254
0
LINE
8
BLACK
6
CONTINUOUS
10
5.00436
20
-7.55254
11
5.00061
21
-7.54504
0
LINE
8
BLACK
6
CONTINUOUS
10
5.00061
20
-7.54504
11
5.00061
21
-7.51504
0
LINE
8
BLACK
6
CONTINUOUS
10
5.00061
20
-7.51504
11
5.00436
21
-7.50755
0
LINE
8
BLACK
6
CONTINUOUS
10
5.00436
20
-7.50755
11
5.01186
21
-7.5038
0
LINE
8
BLACK
6
CONTINUOUS
10
5.01186
20
-7.5038
11
5.02686
21
-7.5038
0
LINE
8
BLACK
6
CONTINUOUS
10
5.02686
20
-7.5038
11
5.03436
21
-7.50755
0
LINE
8
BLACK
6
CONTINUOUS
10
5.03436
20
-7.50755
11
5.0381
21
-7.51504
0
LINE
8
BLACK
6
CONTINUOUS
10
5.0381
20
-7.51504
11
5.0381
21
-7.52254
0
LINE
8
BLACK
6
CONTINUOUS
10
5.0381
20
-7.52254
11
5.00061
21
-7.53004
0
LINE
8
BLACK
6
CONTINUOUS
10
5.0681
20
-7.55254
11
5.0756
21
-7.55629
0
LINE
8
BLACK
6
CONTINUOUS
10
5.0756
20
-7.55629
11
5.0906
21
-7.55629
0
LINE
8
BLACK
6
CONTINUOUS
10
5.0906
20
-7.55629
11
5.0981
21
-7.55254
0
LINE
8
BLACK
6
CONTINUOUS
10
5.0981
20
-7.55254
11
5.10185
21
-7.54504
0
LINE
8
BLACK
6
CONTINUOUS
10
5.10185
20
-7.54504
11
5.10185
21
-7.54129
0
LINE
8
BLACK
6
CONTINUOUS
10
5.10185
20
-7.54129
11
5.0981
21
-7.53379
0
LINE
8
BLACK
6
CONTINUOUS
10
5.0981
20
-7.53379
11
5.0906
21
-7.53004
0
LINE
8
BLACK
6
CONTINUOUS
10
5.0906
20
-7.53004
11
5.07935
21
-7.53004
0
LINE
8
BLACK
6
CONTINUOUS
10
5.07935
20
-7.53004
11
5.07185
21
-7.52629
0
LINE
8
BLACK
6
CONTINUOUS
10
5.07185
20
-7.52629
11
5.0681
21
-7.51879
0
LINE
8
BLACK
6
CONTINUOUS
10
5.0681
20
-7.51879
11
5.0681
21
-7.51504
0
LINE
8
BLACK
6
CONTINUOUS
10
5.0681
20
-7.51504
11
5.07185
21
-7.50755
0
LINE
8
BLACK
6
CONTINUOUS
10
5.07185
20
-7.50755
11
5.07935
21
-7.5038
0
LINE
8
BLACK
6
CONTINUOUS
10
5.07935
20
-7.5038
11
5.0906
21
-7.5038
0
LINE
8
BLACK
6
CONTINUOUS
10
5.0906
20
-7.5038
11
5.0981
21
-7.50755
0
LINE
8
BLACK
6
CONTINUOUS
10
5.12809
20
-7.58629
11
5.13184
21
-7.58254
0
LINE
8
BLACK
6
CONTINUOUS
10
5.13184
20
-7.58254
11
5.13934
21
-7.57129
0
LINE
8
BLACK
6
CONTINUOUS
10
5.13934
20
-7.57129
11
5.14309
21
-7.56379
0
LINE
8
BLACK
6
CONTINUOUS
10
5.14309
20
-7.56379
11
5.14684
21
-7.55254
0
LINE
8
BLACK
6
CONTINUOUS
10
5.14684
20
-7.55254
11
5.15059
21
-7.53379
0
LINE
8
BLACK
6
CONTINUOUS
10
5.15059
20
-7.53379
11
5.15059
21
-7.51879
0
LINE
8
BLACK
6
CONTINUOUS
10
5.15059
20
-7.51879
11
5.14684
21
-7.50005
0
LINE
8
BLACK
6
CONTINUOUS
10
5.14684
20
-7.50005
11
5.14309
21
-7.4888
0
LINE
8
BLACK
6
CONTINUOUS
10
5.14309
20
-7.4888
11
5.13934
21
-7.4813
0
LINE
8
BLACK
6
CONTINUOUS
10
5.13934
20
-7.4813
11
5.13184
21
-7.47005
0
LINE
8
BLACK
6
CONTINUOUS
10
5.13184
20
-7.47005
11
5.12809
21
-7.4663
  0
ENDSEC
  0
EOF
