%TF.GenerationSoftware,KiCad,Pcbnew,7.0.0*%
%TF.CreationDate,2023-07-13T20:29:25+08:00*%
%TF.ProjectId,Controller,436f6e74-726f-46c6-9c65-722e6b696361,rev?*%
%TF.SameCoordinates,Original*%
%TF.FileFunction,Soldermask,Top*%
%TF.FilePolarity,Negative*%
%FSLAX46Y46*%
G04 Gerber Fmt 4.6, Leading zero omitted, Abs format (unit mm)*
G04 Created by KiCad (PCBNEW 7.0.0) date 2023-07-13 20:29:25*
%MOMM*%
%LPD*%
G01*
G04 APERTURE LIST*
G04 Aperture macros list*
%AMRoundRect*
0 Rectangle with rounded corners*
0 $1 Rounding radius*
0 $2 $3 $4 $5 $6 $7 $8 $9 X,Y pos of 4 corners*
0 Add a 4 corners polygon primitive as box body*
4,1,4,$2,$3,$4,$5,$6,$7,$8,$9,$2,$3,0*
0 Add four circle primitives for the rounded corners*
1,1,$1+$1,$2,$3*
1,1,$1+$1,$4,$5*
1,1,$1+$1,$6,$7*
1,1,$1+$1,$8,$9*
0 Add four rect primitives between the rounded corners*
20,1,$1+$1,$2,$3,$4,$5,0*
20,1,$1+$1,$4,$5,$6,$7,0*
20,1,$1+$1,$6,$7,$8,$9,0*
20,1,$1+$1,$8,$9,$2,$3,0*%
%AMRotRect*
0 Rectangle, with rotation*
0 The origin of the aperture is its center*
0 $1 length*
0 $2 width*
0 $3 Rotation angle, in degrees counterclockwise*
0 Add horizontal line*
21,1,$1,$2,0,0,$3*%
G04 Aperture macros list end*
%ADD10R,1.700000X1.700000*%
%ADD11O,1.700000X1.700000*%
%ADD12C,1.400000*%
%ADD13O,1.400000X1.400000*%
%ADD14C,1.600000*%
%ADD15R,1.600000X1.600000*%
%ADD16C,3.200000*%
%ADD17C,1.500000*%
%ADD18RotRect,2.540000X3.510000X35.000000*%
%ADD19R,1.500000X2.000000*%
%ADD20R,3.800000X2.000000*%
%ADD21RoundRect,0.150000X-0.875000X-0.150000X0.875000X-0.150000X0.875000X0.150000X-0.875000X0.150000X0*%
%ADD22O,1.600000X1.600000*%
%ADD23R,1.600000X2.180000*%
G04 APERTURE END LIST*
D10*
%TO.C,U2*%
X155919999Y-139609999D03*
D11*
X158459999Y-139609999D03*
X160999999Y-139609999D03*
X163539999Y-139609999D03*
X166079999Y-139609999D03*
%TD*%
D12*
%TO.C,R1*%
X117920000Y-152610000D03*
D13*
X122999999Y-152609999D03*
%TD*%
D14*
%TO.C,C6*%
X162990000Y-133910000D03*
X165490000Y-133910000D03*
%TD*%
D15*
%TO.C,C3*%
X88304999Y-165607999D03*
D14*
X90805000Y-165608000D03*
%TD*%
D16*
%TO.C,H1*%
X85500000Y-125300000D03*
%TD*%
D17*
%TO.C,Y1*%
X148940000Y-140360000D03*
X148940000Y-135460000D03*
%TD*%
D10*
%TO.C,J1*%
X89059999Y-133249999D03*
D11*
X89059999Y-135789999D03*
X89059999Y-138329999D03*
X89059999Y-140869999D03*
X89059999Y-143409999D03*
%TD*%
D18*
%TO.C,BT1*%
X123434847Y-168530101D03*
X147485151Y-151689897D03*
%TD*%
D16*
%TO.C,H3*%
X85500000Y-173400000D03*
%TD*%
D14*
%TO.C,C1*%
X94635000Y-163195000D03*
X97135000Y-163195000D03*
%TD*%
D19*
%TO.C,U1*%
X94727999Y-156819999D03*
X97027999Y-156819999D03*
D20*
X97027999Y-150519999D03*
D19*
X99327999Y-156819999D03*
%TD*%
D10*
%TO.C,U3*%
X111759999Y-169671999D03*
D11*
X109219999Y-169671999D03*
X106679999Y-169671999D03*
%TD*%
D16*
%TO.C,H4*%
X169060000Y-173400000D03*
%TD*%
D12*
%TO.C,R3*%
X94615000Y-168275000D03*
D13*
X99694999Y-168274999D03*
%TD*%
D21*
%TO.C,U5*%
X104410000Y-150165000D03*
X104410000Y-151435000D03*
X104410000Y-152705000D03*
X104410000Y-153975000D03*
X104410000Y-155245000D03*
X104410000Y-156515000D03*
X104410000Y-157785000D03*
X104410000Y-159055000D03*
X113710000Y-159055000D03*
X113710000Y-157785000D03*
X113710000Y-156515000D03*
X113710000Y-155245000D03*
X113710000Y-153975000D03*
X113710000Y-152705000D03*
X113710000Y-151435000D03*
X113710000Y-150165000D03*
%TD*%
D14*
%TO.C,C4*%
X156390000Y-133910000D03*
X158890000Y-133910000D03*
%TD*%
D16*
%TO.C,H2*%
X169040000Y-125300000D03*
%TD*%
D12*
%TO.C,R2*%
X117920000Y-149010000D03*
D13*
X122999999Y-149009999D03*
%TD*%
D15*
%TO.C,U4*%
X94479999Y-145149999D03*
D22*
X97019999Y-145149999D03*
X99559999Y-145149999D03*
X102099999Y-145149999D03*
X104639999Y-145149999D03*
X107179999Y-145149999D03*
X109719999Y-145149999D03*
X112259999Y-145149999D03*
X114799999Y-145149999D03*
X117339999Y-145149999D03*
X119879999Y-145149999D03*
X122419999Y-145149999D03*
X124959999Y-145149999D03*
X127499999Y-145149999D03*
X130039999Y-145149999D03*
X132579999Y-145149999D03*
X135119999Y-145149999D03*
X137659999Y-145149999D03*
X140199999Y-145149999D03*
X142739999Y-145149999D03*
X142739999Y-129909999D03*
X140199999Y-129909999D03*
X137659999Y-129909999D03*
X135119999Y-129909999D03*
X132579999Y-129909999D03*
X130039999Y-129909999D03*
X127499999Y-129909999D03*
X124959999Y-129909999D03*
X122419999Y-129909999D03*
X119879999Y-129909999D03*
X117339999Y-129909999D03*
X114799999Y-129909999D03*
X112259999Y-129909999D03*
X109719999Y-129909999D03*
X107179999Y-129909999D03*
X104639999Y-129909999D03*
X102099999Y-129909999D03*
X99559999Y-129909999D03*
X97019999Y-129909999D03*
X94479999Y-129909999D03*
%TD*%
D14*
%TO.C,C2*%
X101005000Y-163195000D03*
X103505000Y-163195000D03*
%TD*%
%TO.C,C5*%
X118110000Y-158410000D03*
X120610000Y-158410000D03*
%TD*%
D23*
%TO.C,SW1*%
X89359999Y-157689999D03*
X89359999Y-148509999D03*
%TD*%
M02*
