M48
; DRILL file {KiCad 7.0.0} date 西元2023年07月13日 (週四) 20時29分23秒
; FORMAT={-:-/ absolute / inch / decimal}
; #@! TF.CreationDate,2023-07-13T20:29:23+08:00
; #@! TF.GenerationSoftware,Kicad,Pcbnew,7.0.0
; #@! TF.FileFunction,Plated,1,2,PTH
FMAT,2
INCH
; #@! TA.AperFunction,Plated,PTH,ViaDrill
T1C0.0157
; #@! TA.AperFunction,Plated,PTH,ComponentDrill
T2C0.0276
; #@! TA.AperFunction,Plated,PTH,ComponentDrill
T3C0.0315
; #@! TA.AperFunction,Plated,PTH,ComponentDrill
T4C0.0394
%
G90
G05
T1
X3.95Y-6.275
T2
X3.725Y-6.625
X3.925Y-6.625
X4.6425Y-5.8665
X4.6425Y-6.0083
X4.8425Y-5.8665
X4.8425Y-6.0083
T3
X3.4766Y-6.52
X3.575Y-6.52
X3.7197Y-5.1146
X3.7197Y-5.7146
X3.7258Y-6.425
X3.8197Y-5.1146
X3.8197Y-5.7146
X3.8242Y-6.425
X3.9197Y-5.1146
X3.9197Y-5.7146
X3.9766Y-6.425
X4.0197Y-5.1146
X4.0197Y-5.7146
X4.075Y-6.425
X4.1197Y-5.1146
X4.1197Y-5.7146
X4.2197Y-5.1146
X4.2197Y-5.7146
X4.3197Y-5.1146
X4.3197Y-5.7146
X4.4197Y-5.1146
X4.4197Y-5.7146
X4.5197Y-5.1146
X4.5197Y-5.7146
X4.6197Y-5.1146
X4.6197Y-5.7146
X4.65Y-6.2366
X4.7197Y-5.1146
X4.7197Y-5.7146
X4.7484Y-6.2366
X4.8197Y-5.1146
X4.8197Y-5.7146
X4.9197Y-5.1146
X4.9197Y-5.7146
X5.0197Y-5.1146
X5.0197Y-5.7146
X5.1197Y-5.1146
X5.1197Y-5.7146
X5.2197Y-5.1146
X5.2197Y-5.7146
X5.3197Y-5.1146
X5.3197Y-5.7146
X5.4197Y-5.1146
X5.4197Y-5.7146
X5.5197Y-5.1146
X5.5197Y-5.7146
X5.6197Y-5.1146
X5.6197Y-5.7146
X5.8638Y-5.3331
X5.8638Y-5.526
X6.1571Y-5.272
X6.2555Y-5.272
X6.4169Y-5.272
X6.5154Y-5.272
T4
X3.5063Y-5.2461
X3.5063Y-5.3461
X3.5063Y-5.4461
X3.5063Y-5.5461
X3.5063Y-5.6461
X4.2Y-6.68
X4.3Y-6.68
X4.4Y-6.68
X6.1386Y-5.4965
X6.2386Y-5.4965
X6.3386Y-5.4965
X6.4386Y-5.4965
X6.5386Y-5.4965
T0
M30
