%TF.GenerationSoftware,KiCad,Pcbnew,7.0.0*%
%TF.CreationDate,2023-02-15T18:08:52+08:00*%
%TF.ProjectId,QS-27,51532d32-372e-46b6-9963-61645f706362,rev?*%
%TF.SameCoordinates,Original*%
%TF.FileFunction,Copper,L1,Top*%
%TF.FilePolarity,Positive*%
%FSLAX46Y46*%
G04 Gerber Fmt 4.6, Leading zero omitted, Abs format (unit mm)*
G04 Created by KiCad (PCBNEW 7.0.0) date 2023-02-15 18:08:52*
%MOMM*%
%LPD*%
G01*
G04 APERTURE LIST*
%TA.AperFunction,ComponentPad*%
%ADD10C,1.524000*%
%TD*%
%TA.AperFunction,ComponentPad*%
%ADD11C,1.000000*%
%TD*%
%TA.AperFunction,Conductor*%
%ADD12C,0.250000*%
%TD*%
G04 APERTURE END LIST*
D10*
%TO.P,J1,0,0*%
%TO.N,P0*%
X151456000Y-110896000D03*
%TO.P,J1,1,1*%
%TO.N,P1*%
X151456000Y-113436000D03*
%TO.P,J1,2,2*%
%TO.N,P2*%
X152916000Y-115396000D03*
%TO.P,J1,3,3*%
%TO.N,P3*%
X155456000Y-115396000D03*
%TO.P,J1,4,4*%
%TO.N,P4*%
X157996000Y-115396000D03*
%TO.P,J1,5,5*%
%TO.N,P5*%
X159456000Y-113436000D03*
%TO.P,J1,6,6*%
%TO.N,P6*%
X159456000Y-110896000D03*
%TO.P,J1,7,7*%
%TO.N,P7*%
X159456000Y-108356000D03*
%TO.P,J1,8,8*%
%TO.N,P8*%
X157996000Y-106396000D03*
%TO.P,J1,9,9*%
%TO.N,P9*%
X155456000Y-106396000D03*
%TO.P,J1,10,10*%
%TO.N,unconnected-(J1-Pad10)*%
X152916000Y-106396000D03*
%TO.P,J1,A,A*%
%TO.N,PA*%
X151456000Y-108356000D03*
%TD*%
D11*
%TO.P,NX1,0,0*%
%TO.N,P0*%
X160756000Y-114496000D03*
%TO.P,NX1,1,1*%
%TO.N,P1*%
X152056000Y-117596000D03*
%TO.P,NX1,2,2*%
%TO.N,P2*%
X150156000Y-114496000D03*
%TO.P,NX1,3,3*%
%TO.N,P3*%
X149956000Y-110896000D03*
%TO.P,NX1,4,4*%
%TO.N,P4*%
X150156000Y-107296000D03*
%TO.P,NX1,5,5*%
%TO.N,P5*%
X152056000Y-104096000D03*
%TO.P,NX1,6,6*%
%TO.N,P6*%
X155456000Y-102896000D03*
%TO.P,NX1,7,7*%
%TO.N,P7*%
X158856000Y-104096000D03*
%TO.P,NX1,8,8*%
%TO.N,P8*%
X160756000Y-107296000D03*
%TO.P,NX1,9,9*%
%TO.N,P9*%
X160956000Y-110896000D03*
%TO.P,NX1,A,A*%
%TO.N,PA*%
X158856000Y-117596000D03*
%TD*%
D12*
%TO.N,PA*%
X157061000Y-119391000D02*
X158856000Y-117596000D01*
X149986273Y-106299000D02*
X148431000Y-107854273D01*
X150476630Y-106299000D02*
X149986273Y-106299000D01*
X151456000Y-107278370D02*
X150476630Y-106299000D01*
X151456000Y-108356000D02*
X151456000Y-107278370D01*
X148431000Y-107854273D02*
X148431000Y-116429792D01*
X148431000Y-116429792D02*
X151392208Y-119391000D01*
X151392208Y-119391000D02*
X157061000Y-119391000D01*
%TO.N,P1*%
X151456000Y-116996000D02*
X151456000Y-113436000D01*
X152056000Y-117596000D02*
X151456000Y-116996000D01*
%TO.N,P3*%
X151765000Y-118491000D02*
X152361000Y-118491000D01*
X149331000Y-116057000D02*
X151765000Y-118491000D01*
X149956000Y-110896000D02*
X149331000Y-111521000D01*
X149331000Y-111521000D02*
X149331000Y-116057000D01*
X152361000Y-118491000D02*
X155456000Y-115396000D01*
%TO.N,P4*%
X148881000Y-108571000D02*
X148881000Y-116243396D01*
X154451000Y-118941000D02*
X157996000Y-115396000D01*
X150156000Y-107296000D02*
X148881000Y-108571000D01*
X151578604Y-118941000D02*
X154451000Y-118941000D01*
X148881000Y-116243396D02*
X151578604Y-118941000D01*
%TO.N,P5*%
X162031000Y-111527000D02*
X160122000Y-113436000D01*
X152056000Y-104096000D02*
X157014604Y-104096000D01*
X159364123Y-102801000D02*
X162031000Y-105467877D01*
X158309604Y-102801000D02*
X159364123Y-102801000D01*
X160122000Y-113436000D02*
X159456000Y-113436000D01*
X157014604Y-104096000D02*
X158309604Y-102801000D01*
X162031000Y-105467877D02*
X162031000Y-111527000D01*
%TO.N,P7*%
X159456000Y-108356000D02*
X159456000Y-104696000D01*
X159456000Y-104696000D02*
X158856000Y-104096000D01*
%TO.N,P9*%
X161581000Y-105654273D02*
X159177727Y-103251000D01*
X159177727Y-103251000D02*
X158496000Y-103251000D01*
X155456000Y-106291000D02*
X155456000Y-106396000D01*
X161581000Y-110271000D02*
X161581000Y-105654273D01*
X160956000Y-110896000D02*
X161581000Y-110271000D01*
X158496000Y-103251000D02*
X155456000Y-106291000D01*
%TD*%
M02*
