%TF.GenerationSoftware,KiCad,Pcbnew,7.0.0*%
%TF.CreationDate,2023-02-16T14:19:05+08:00*%
%TF.ProjectId,QS-27,51532d32-372e-46b6-9963-61645f706362,rev?*%
%TF.SameCoordinates,Original*%
%TF.FileFunction,Copper,L1,Top*%
%TF.FilePolarity,Positive*%
%FSLAX46Y46*%
G04 Gerber Fmt 4.6, Leading zero omitted, Abs format (unit mm)*
G04 Created by KiCad (PCBNEW 7.0.0) date 2023-02-16 14:19:05*
%MOMM*%
%LPD*%
G01*
G04 APERTURE LIST*
%TA.AperFunction,ComponentPad*%
%ADD10C,1.524000*%
%TD*%
%TA.AperFunction,ComponentPad*%
%ADD11C,1.000000*%
%TD*%
%TA.AperFunction,Conductor*%
%ADD12C,0.250000*%
%TD*%
G04 APERTURE END LIST*
D10*
%TO.P,J1,0,0*%
%TO.N,P0*%
X151456000Y-110896000D03*
%TO.P,J1,1,1*%
%TO.N,P1*%
X151456000Y-113436000D03*
%TO.P,J1,2,2*%
%TO.N,P2*%
X152916000Y-115396000D03*
%TO.P,J1,3,3*%
%TO.N,P3*%
X155456000Y-115396000D03*
%TO.P,J1,4,4*%
%TO.N,P4*%
X157996000Y-115396000D03*
%TO.P,J1,5,5*%
%TO.N,P5*%
X159456000Y-113436000D03*
%TO.P,J1,6,6*%
%TO.N,P6*%
X159456000Y-110896000D03*
%TO.P,J1,7,7*%
%TO.N,P7*%
X159456000Y-108356000D03*
%TO.P,J1,8,8*%
%TO.N,P8*%
X157996000Y-106396000D03*
%TO.P,J1,9,9*%
%TO.N,P9*%
X155456000Y-106396000D03*
%TO.P,J1,10,10*%
%TO.N,unconnected-(J1-Pad10)*%
X152916000Y-106396000D03*
%TO.P,J1,A,A*%
%TO.N,PA*%
X151456000Y-108356000D03*
%TD*%
D11*
%TO.P,NX1,0,0*%
%TO.N,P0*%
X160756000Y-114496000D03*
%TO.P,NX1,1,1*%
%TO.N,P1*%
X152056000Y-117596000D03*
%TO.P,NX1,2,2*%
%TO.N,P2*%
X150156000Y-114496000D03*
%TO.P,NX1,3,3*%
%TO.N,P3*%
X149956000Y-110896000D03*
%TO.P,NX1,4,4*%
%TO.N,P4*%
X150156000Y-107296000D03*
%TO.P,NX1,5,5*%
%TO.N,P5*%
X152056000Y-104096000D03*
%TO.P,NX1,6,6*%
%TO.N,P6*%
X155456000Y-102896000D03*
%TO.P,NX1,7,7*%
%TO.N,P7*%
X158856000Y-104096000D03*
%TO.P,NX1,8,8*%
%TO.N,P8*%
X160756000Y-107296000D03*
%TO.P,NX1,9,9*%
%TO.N,P9*%
X160956000Y-110896000D03*
%TO.P,NX1,A,A*%
%TO.N,PA*%
X158856000Y-117596000D03*
%TD*%
D12*
%TO.N,P9*%
X160956000Y-110896000D02*
X160956000Y-110188894D01*
X160956000Y-110188894D02*
X160576106Y-109809000D01*
X160576106Y-109809000D02*
X158869000Y-109809000D01*
X158869000Y-109809000D02*
X155456000Y-106396000D01*
%TO.N,PA*%
X151456000Y-108356000D02*
X150378370Y-108356000D01*
X150378370Y-108356000D02*
X149131000Y-109603370D01*
X149131000Y-109603370D02*
X149131000Y-114637727D01*
X149131000Y-114637727D02*
X151130073Y-116636800D01*
X151130073Y-116636800D02*
X157896800Y-116636800D01*
X157896800Y-116636800D02*
X158856000Y-117596000D01*
%TO.N,P0*%
X151456000Y-110896000D02*
X151592396Y-110896000D01*
X151592396Y-110896000D02*
X155005396Y-114309000D01*
X155005396Y-114309000D02*
X158708200Y-114309000D01*
X158708200Y-114309000D02*
X159395199Y-114995999D01*
X159395199Y-114995999D02*
X160256001Y-114995999D01*
X160256001Y-114995999D02*
X160756000Y-114496000D01*
%TO.N,P3*%
X155456000Y-115396000D02*
X152409000Y-112349000D01*
X152409000Y-112349000D02*
X150701894Y-112349000D01*
X150701894Y-112349000D02*
X149956000Y-111603106D01*
X149956000Y-111603106D02*
X149956000Y-110896000D01*
%TO.N,P2*%
X152916000Y-115396000D02*
X151056000Y-115396000D01*
X151056000Y-115396000D02*
X150156000Y-114496000D01*
%TO.N,P8*%
X160756000Y-107296000D02*
X159856000Y-106396000D01*
X159856000Y-106396000D02*
X157996000Y-106396000D01*
%TD*%
M02*
