%TF.GenerationSoftware,KiCad,Pcbnew,7.0.0*%
%TF.CreationDate,2023-02-15T18:08:52+08:00*%
%TF.ProjectId,QS-27,51532d32-372e-46b6-9963-61645f706362,rev?*%
%TF.SameCoordinates,Original*%
%TF.FileFunction,Legend,Top*%
%TF.FilePolarity,Positive*%
%FSLAX46Y46*%
G04 Gerber Fmt 4.6, Leading zero omitted, Abs format (unit mm)*
G04 Created by KiCad (PCBNEW 7.0.0) date 2023-02-15 18:08:52*
%MOMM*%
%LPD*%
G01*
G04 APERTURE LIST*
%ADD10C,0.150000*%
%ADD11C,0.120000*%
G04 APERTURE END LIST*
D10*
%TO.C,J1*%
X155122666Y-110763380D02*
X155122666Y-111477666D01*
X155122666Y-111477666D02*
X155075047Y-111620523D01*
X155075047Y-111620523D02*
X154979809Y-111715761D01*
X154979809Y-111715761D02*
X154836952Y-111763380D01*
X154836952Y-111763380D02*
X154741714Y-111763380D01*
X156122666Y-111763380D02*
X155551238Y-111763380D01*
X155836952Y-111763380D02*
X155836952Y-110763380D01*
X155836952Y-110763380D02*
X155741714Y-110906238D01*
X155741714Y-110906238D02*
X155646476Y-111001476D01*
X155646476Y-111001476D02*
X155551238Y-111049095D01*
%TO.C,NX1*%
X154217905Y-108012180D02*
X154217905Y-107012180D01*
X154217905Y-107012180D02*
X154789333Y-108012180D01*
X154789333Y-108012180D02*
X154789333Y-107012180D01*
X155170286Y-107012180D02*
X155836952Y-108012180D01*
X155836952Y-107012180D02*
X155170286Y-108012180D01*
X156741714Y-108012180D02*
X156170286Y-108012180D01*
X156456000Y-108012180D02*
X156456000Y-107012180D01*
X156456000Y-107012180D02*
X156360762Y-107155038D01*
X156360762Y-107155038D02*
X156265524Y-107250276D01*
X156265524Y-107250276D02*
X156170286Y-107297895D01*
D11*
%TO.C,J1*%
X149456000Y-116896000D02*
X149456000Y-104896000D01*
X149456000Y-116896000D02*
X161456000Y-116896000D01*
X161456000Y-104896000D02*
X149456000Y-104896000D01*
X161456000Y-116896000D02*
X161456000Y-104896000D01*
%TO.C,NX1*%
X165456000Y-110896000D02*
G75*
G03*
X165456000Y-110896000I-10000000J0D01*
G01*
%TD*%
M02*
